<?xml version="1.0" encoding="UTF-8"?>
<svg width="334px" height="140px" viewBox="0 0 334 140" version="1.1" xmlns="http://www.w3.org/2000/svg" xmlns:xlink="http://www.w3.org/1999/xlink">
    <!-- Generator: Sketch 53 (72520) - https://sketchapp.com -->
    <title>Group 8 Copy</title>
    <desc>Created with Sketch.</desc>
    <defs>
        <polygon id="path-1" points="0 0.576 333.737191 0.576 333.737191 139.999575 0 139.999575"></polygon>
    </defs>
    <g id="Welcome" stroke="none" stroke-width="1" fill="none" fill-rule="evenodd">
        <g id="HOME" transform="translate(-970.000000, -3881.000000)">
            <g id="Group-8-Copy" transform="translate(1137.000000, 3950.500000) scale(-1, 1) translate(-1137.000000, -3950.500000) translate(970.000000, 3880.000000)">
                <g id="Group-3" transform="translate(0.000000, 0.424000)">
                    <mask id="mask-2" fill="white">
                        <use xlink:href="#path-1"></use>
                    </mask>
                    <g id="Clip-2"></g>
                    <path d="M171.6197,17.6004 C171.2447,17.9364 170.8687,18.2724 170.4927,18.6084 L170.4927,27.5624 C171.0117,27.6894 171.5297,27.8154 172.0487,27.9414 C172.8017,25.5174 173.8617,23.1274 174.1457,20.6484 C174.2507,19.7414 172.5157,18.6224 171.6197,17.6004 L171.6197,17.6004 Z M307.7477,48.4604 C307.5037,48.9504 307.2587,49.4404 307.0147,49.9304 C308.8517,53.6594 311.8017,55.1364 316.5767,52.9264 C313.6337,51.4374 310.6907,49.9494 307.7477,48.4604 L307.7477,48.4604 Z M232.5327,73.0204 C232.5157,72.7464 232.4997,72.4734 232.4837,72.1994 L205.3547,72.1994 C205.3487,72.4734 205.3427,72.7464 205.3357,73.0204 L232.5327,73.0204 Z M102.0237,110.8604 C101.5377,111.2654 101.0527,111.6704 100.5667,112.0764 C104.1327,120.6274 105.5237,122.0014 109.4687,119.8094 C106.9197,116.7454 104.4717,113.8024 102.0237,110.8604 L102.0237,110.8604 Z M163.4017,27.5084 C163.9647,27.3774 164.5287,27.2464 165.0917,27.1164 C165.6267,24.9414 166.4197,22.7874 166.5897,20.5844 C166.6777,19.4424 165.6617,18.2164 165.1437,17.0274 C164.1627,17.7234 162.3367,18.4334 162.3487,19.1114 C162.3967,21.9154 163.0007,24.7104 163.4017,27.5084 L163.4017,27.5084 Z M179.2337,18.6664 C176.6367,24.0884 174.8017,27.9174 172.9357,31.8114 C176.1937,32.6584 178.9987,30.5584 180.1017,27.4724 C180.8887,25.2714 179.6837,22.3604 179.2337,18.6664 L179.2337,18.6664 Z M157.8347,15.6844 C156.7557,17.2234 155.2057,18.4544 155.0327,19.8544 C154.4117,24.9034 157.7557,29.4414 160.9227,29.8474 C160.0637,25.9064 159.1237,21.5984 157.8347,15.6844 L157.8347,15.6844 Z M182.2567,32.4354 C185.8067,30.4544 188.6667,28.8594 191.5277,27.2634 C189.3937,25.3224 187.2607,23.3814 184.7297,21.0774 C183.8397,25.1654 183.2197,28.0124 182.2567,32.4354 L182.2567,32.4354 Z M17.0127,119.6934 C20.3127,129.7504 23.9687,135.2314 27.7627,135.7924 C25.5207,130.8354 23.4967,126.0524 21.1427,121.4374 C20.7187,120.6054 18.9407,120.4634 17.0127,119.6934 L17.0127,119.6934 Z M69.8097,28.9984 C65.4287,29.6904 61.8097,30.2614 58.1917,30.8334 C58.0517,31.3954 57.9117,31.9584 57.7717,32.5214 C60.7357,34.3874 63.7007,36.2534 66.9767,38.3154 C68.0057,34.9314 68.7097,32.6154 69.8097,28.9984 L69.8097,28.9984 Z M76.4287,130.9984 C76.6217,130.6944 76.8137,130.3914 77.0067,130.0864 C74.2367,124.8694 71.5107,119.6264 68.6337,114.4684 C68.3177,113.9014 67.1317,113.8194 66.3497,113.5124 C66.0567,114.4434 65.2377,115.6394 65.5537,116.2624 C67.7837,120.6744 70.1167,125.0504 72.7317,129.2414 C73.3407,130.2164 75.1637,130.4334 76.4287,130.9984 L76.4287,130.9984 Z M70.2977,131.4414 C67.6007,126.3504 65.2247,121.5934 62.5297,117.0244 C62.0237,116.1664 60.2407,116.0624 58.0607,115.2384 C63.3677,128.5564 66.1457,132.2434 70.2977,131.4414 L70.2977,131.4414 Z M24.1057,118.6794 C25.1777,127.3874 30.8197,136.0604 34.6677,134.9144 C27.9807,118.7804 27.6577,118.2834 24.1057,118.6794 L24.1057,118.6794 Z M102.8107,123.1654 C97.6707,111.2194 95.3087,108.0894 90.4847,106.6544 C93.8937,116.7174 98.8587,123.6024 102.8107,123.1654 L102.8107,123.1654 Z M63.2777,132.5224 C56.4807,117.7274 55.4967,116.4044 51.8827,117.0504 C54.2807,126.2244 59.3377,133.3594 63.2777,132.5224 L63.2777,132.5224 Z M55.2927,134.0484 C53.6707,125.1484 47.7507,116.2874 43.7507,116.4754 C47.3577,122.7404 48.4967,130.2834 55.2927,134.0484 L55.2927,134.0484 Z M73.4997,109.7684 C70.3607,112.6324 70.7197,113.8304 78.2177,126.0284 C79.3577,127.8834 80.1607,130.9254 83.7037,128.5824 C80.2947,122.2974 77.0097,116.2404 73.4997,109.7684 L73.4997,109.7684 Z M30.0097,116.1884 C33.1847,128.3244 37.9887,135.5784 42.0837,134.8714 C39.4687,129.2824 36.9747,123.6834 34.1767,118.2404 C33.7047,117.3234 31.9187,117.0834 30.0097,116.1884 L30.0097,116.1884 Z M49.2277,134.4514 C42.8777,119.1084 40.8507,116.1114 37.2087,116.5464 C39.5367,126.2794 44.8767,134.4984 49.2277,134.4514 L49.2277,134.4514 Z M14.4667,21.1874 C12.7047,25.2014 10.9597,29.1794 8.6257,34.4964 C13.7777,33.9724 17.6407,33.5794 21.3547,33.2024 C18.9307,28.9734 16.9067,25.4444 14.4667,21.1874 L14.4667,21.1874 Z M79.1887,106.2654 C78.6257,106.1944 78.0617,106.1224 77.4977,106.0514 C77.4977,107.6704 76.9807,109.5164 77.5777,110.8724 C83.6067,124.5754 86.1307,127.7504 90.1767,126.9384 C86.4937,120.0084 82.8417,113.1374 79.1887,106.2654 L79.1887,106.2654 Z M279.6897,42.7994 C273.0877,41.0104 269.4317,43.6374 265.6767,53.6044 C268.6247,53.2464 271.7747,53.8054 273.0797,52.5084 C275.7857,49.8194 277.5127,46.1434 279.6897,42.7994 L279.6897,42.7994 Z M13.4737,88.6054 C10.6197,84.1804 7.5537,79.4244 4.4867,74.6684 C4.2417,74.7414 3.9967,74.8144 3.7517,74.8874 C4.9327,81.6124 6.1137,88.3364 7.4717,96.0674 C10.1077,92.7894 11.9497,90.4994 13.4737,88.6054 L13.4737,88.6054 Z M185.4157,17.4724 C174.8047,10.0024 157.4037,7.7254 148.2837,12.3854 C154.2617,12.7114 160.5827,12.6634 166.7847,13.5054 C172.9687,14.3444 179.0317,16.0744 185.4157,17.4724 L185.4157,17.4724 Z M194.5207,36.7404 C203.0137,39.0744 200.1117,38.5374 208.3087,26.6134 C202.0947,24.8484 198.5217,27.4144 194.5207,36.7404 L194.5207,36.7404 Z M245.2637,48.2764 C252.4327,52.0464 251.5437,49.4324 258.6957,38.3834 C252.4297,36.5944 248.6247,39.3964 245.2637,48.2764 L245.2637,48.2764 Z M214.9597,41.1394 C220.8567,44.3404 222.4077,43.1714 228.3957,31.3224 C222.5377,29.1034 218.6657,31.8614 214.9597,41.1394 L214.9597,41.1394 Z M225.0497,43.4764 C231.1287,46.2784 234.6157,43.5854 238.4437,33.5144 C231.9497,31.9284 228.7817,34.2344 225.0497,43.4764 L225.0497,43.4764 Z M218.5267,29.2724 C212.6317,26.5094 208.3327,29.5624 205.0747,38.8774 C207.4717,40.8394 209.8897,41.8394 212.1587,38.7144 C214.3847,35.6484 216.4067,32.4344 218.5267,29.2724 L218.5267,29.2724 Z M269.4997,40.4224 C262.0817,39.1864 257.2877,43.0274 255.8567,50.9314 C261.6377,53.3054 262.3427,52.7724 269.4997,40.4224 L269.4997,40.4224 Z M249.0887,36.1054 C243.0287,34.0164 241.3087,34.8144 236.9657,42.2414 C236.2067,43.5394 236.6307,45.5294 236.5087,47.2004 C238.5307,46.7194 241.2297,46.8844 242.4347,45.6224 C244.9997,42.9394 246.7877,39.5144 249.0887,36.1054 L249.0887,36.1054 Z M83.8307,100.7514 C80.9317,104.2014 83.2577,110.6884 91.6927,123.1804 C92.5497,124.4484 94.3377,125.0884 95.6927,126.0194 C95.9397,125.6394 96.1857,125.2584 96.4317,124.8774 C92.3057,116.9754 88.1777,109.0734 83.8307,100.7514 L83.8307,100.7514 Z M276.8467,53.0384 C287.1317,55.3684 286.8747,52.3874 295.5537,42.1184 C292.8397,42.9334 290.1797,44.3874 287.5127,44.4024 C281.5987,44.4334 279.2567,48.2254 276.8467,53.0384 L276.8467,53.0384 Z M153.3657,29.0804 C152.5467,24.6064 151.8627,20.8734 151.0647,16.5194 C147.4057,16.8944 143.7907,17.2654 140.1267,17.6404 C140.7007,26.6504 147.9977,26.0274 153.3657,29.0804 L153.3657,29.0804 Z M75.8187,29.1794 C69.4437,32.2414 68.7227,42.7434 74.4957,48.7724 C82.3487,42.9704 78.8997,36.1354 75.8187,29.1794 L75.8187,29.1794 Z M5.2817,44.7944 C4.6797,53.7454 4.1287,61.9464 3.5777,70.1484 C3.8767,70.0844 4.1777,70.0204 4.4767,69.9564 C7.5907,65.0674 10.7047,60.1774 13.8457,55.2464 C11.6647,52.5834 8.9807,49.3084 5.2817,44.7944 L5.2817,44.7944 Z M57.6417,104.1634 C55.5827,99.6244 54.0947,96.0074 52.2697,92.5684 C51.8417,91.7614 50.1817,91.0054 49.2527,91.1674 C44.1317,92.0654 39.8337,98.7704 40.7267,104.9144 C46.2977,104.6674 51.9307,104.4174 57.6417,104.1634 L57.6417,104.1634 Z M196.7397,21.6254 C190.7207,14.1574 183.2517,9.0264 174.2447,6.1444 C161.1767,1.9634 148.5377,5.5174 135.9097,8.4634 C134.8137,8.7194 134.1077,10.6474 133.2217,11.7994 C156.3517,4.5664 177.8847,3.6954 196.7397,21.6254 L196.7397,21.6254 Z M191.5577,33.4964 C170.5607,39.3754 151.4367,34.1644 132.0797,22.9214 C142.5577,38.3324 180.2847,44.5074 191.5577,33.4964 L191.5577,33.4964 Z M12.2147,108.7144 C17.6267,107.3824 22.7587,106.1254 27.8797,104.8294 C28.0677,104.7824 28.1567,104.3414 27.8437,104.9384 C25.6077,100.6974 23.2927,97.0904 21.7767,93.1744 C20.6587,90.2864 19.2027,90.7134 17.1947,91.5614 C10.2337,94.4974 8.3047,100.7294 12.2147,108.7144 L12.2147,108.7144 Z M115.3477,3.3314 C114.1417,14.9704 119.1997,22.2914 127.5367,23.1604 C128.4417,17.9564 129.3427,12.7784 130.4487,6.4244 C125.7937,5.4714 120.7907,4.4464 115.3477,3.3314 L115.3477,3.3314 Z M29.8057,38.2904 C28.1807,37.4564 26.0357,35.4064 23.9727,35.4864 C19.0957,35.6764 14.2577,36.8794 9.3767,37.6774 C8.2097,46.1224 12.9037,52.6954 19.8697,53.3414 C23.1857,48.3174 26.2907,43.6154 29.8057,38.2904 L29.8057,38.2904 Z M71.8167,8.9614 C67.8407,9.7244 63.5477,10.3014 59.4377,11.5054 C58.3797,11.8154 57.1397,14.1754 57.2737,15.4584 C58.3117,25.3644 67.4307,29.4774 77.0427,25.0074 C75.3547,19.8224 73.6857,14.7014 71.8167,8.9614 L71.8167,8.9614 Z M52.8217,12.4124 C49.1987,12.8894 45.2787,13.6424 41.3307,13.8514 C38.0427,14.0254 37.5767,15.6094 37.8417,18.3894 C38.7607,27.9984 50.3507,32.4534 59.0747,27.1734 C57.0567,22.4114 55.0867,17.7594 52.8217,12.4124 L52.8217,12.4124 Z M33.1637,14.9514 C29.5867,15.4074 25.2807,15.7614 21.0777,16.6204 C19.9587,16.8484 18.4017,18.5774 18.3357,19.6934 C18.0227,24.9984 21.2147,29.8224 26.4697,30.7274 C31.0937,31.5244 35.9627,30.8944 40.2287,30.8944 C37.7347,25.2654 35.6407,20.5394 33.1637,14.9514 L33.1637,14.9514 Z M110.7637,5.0574 C106.3587,6.3104 101.5967,7.5964 96.8937,9.0754 C96.1827,9.2994 95.4327,10.3474 95.2487,11.1414 C94.1147,16.0384 97.6607,22.3884 102.3587,23.3374 C107.2797,24.3314 112.0637,23.5394 115.8987,21.3264 C114.1117,15.6664 112.4897,10.5274 110.7637,5.0574 L110.7637,5.0574 Z M95.8327,24.4894 C94.7087,20.3404 93.0447,16.3354 92.6757,12.2154 C92.3237,8.2924 89.4077,8.6064 87.3957,8.3104 C83.7757,7.7774 80.0217,8.0994 76.3317,8.2474 C76.1727,8.2534 76.0017,10.0864 75.9787,11.0724 C75.7167,22.6004 85.0097,28.4984 95.8327,24.4894 L95.8327,24.4894 Z M60.3567,38.4684 C59.7847,37.9824 58.4427,36.9964 57.2817,35.8304 C53.3067,31.8454 47.8067,30.6034 42.8257,32.8794 C41.7687,33.3624 40.6057,34.4124 40.2337,35.4644 C37.9947,41.7914 41.9947,50.3144 48.1877,52.9824 C50.3267,53.9034 51.5067,53.9604 52.7427,51.3294 C54.7837,46.9814 57.6147,43.0044 60.3567,38.4684 L60.3567,38.4684 Z M77.9217,94.5894 C76.7957,95.5484 76.0327,96.1564 75.3157,96.8154 C65.7857,105.5654 55.0207,109.5754 41.6747,108.4444 C33.6287,107.7624 25.2977,110.0964 17.1467,111.4034 C16.0137,111.5854 15.1827,113.6524 14.2107,114.8464 C15.7057,115.2264 17.4047,116.2684 18.6647,115.8824 C28.7897,112.7784 38.9797,111.4474 49.6227,112.4704 C62.6607,113.7234 72.4167,107.3434 80.7957,97.8604 C79.7777,96.7024 79.0287,95.8494 77.9217,94.5894 L77.9217,94.5894 Z M66.8587,41.1744 C58.8107,43.4164 54.3627,49.5784 55.1117,57.3434 C55.7957,64.4374 60.5937,69.5434 66.3237,70.1294 C68.0737,64.4864 69.8207,59.0454 71.4067,53.5584 C71.6807,52.6094 71.5287,51.3574 71.1397,50.4284 C69.8647,47.3934 68.3897,44.4424 66.8587,41.1744 L66.8587,41.1744 Z M75.5057,91.8354 C73.7117,88.4124 72.1057,85.6864 70.8287,82.8144 C69.5687,79.9774 68.6407,76.9934 67.5877,74.1254 C56.0627,76.7044 51.3737,89.1864 58.1487,98.2954 C60.1937,101.0444 62.2817,102.5454 65.4997,99.8154 C68.7617,97.0484 72.1827,94.4724 75.5057,91.8354 L75.5057,91.8354 Z M60.1157,72.2494 C57.9597,69.1834 55.1477,66.0804 53.3887,62.4664 C50.8897,57.3334 49.3107,56.5274 45.1787,60.4904 C43.1087,62.4754 41.2607,65.1514 40.4077,67.8594 C37.5447,76.9474 43.6817,86.5054 50.7487,86.2674 C54.1547,81.1704 57.2137,76.5924 60.1157,72.2494 L60.1157,72.2494 Z M29.4977,71.8484 C27.9517,70.1834 25.7217,68.3344 24.2237,66.0144 C22.6517,63.5794 21.7817,60.6924 20.6237,58.0464 C13.0587,58.8664 8.3737,65.2544 8.9537,73.7784 C9.4417,80.9464 14.6717,86.3874 19.8807,86.2894 C23.2747,81.1934 26.3277,76.6084 29.4977,71.8484 L29.4977,71.8484 Z M35.2767,103.2704 C38.5677,98.0814 41.6907,93.1584 44.4837,88.7544 C41.6337,84.3284 38.5577,79.5524 35.3107,74.5094 C28.7307,75.8664 24.0127,81.6524 24.1237,89.1124 C24.2347,96.4834 28.9637,102.1354 35.2767,103.2704 L35.2767,103.2704 Z M35.2807,70.2494 C38.5287,65.0904 41.6177,60.1844 44.4387,55.7044 C41.6357,51.2964 38.5317,46.4174 35.3287,41.3814 C28.4097,43.1724 23.9427,48.8374 24.1347,56.1934 C24.3277,63.5584 28.8977,68.9864 35.2807,70.2494 L35.2807,70.2494 Z M211.7677,107.6424 C203.8267,101.7644 194.7607,98.3864 184.9687,96.9274 C168.2307,94.4334 152.1277,97.8054 136.3817,102.8244 C117.2777,108.9134 100.3617,104.7744 84.6037,93.3974 C83.7957,92.8144 83.0127,92.1954 82.2017,91.6144 C81.5377,91.1384 80.8497,90.6944 80.1727,90.2364 C92.0287,106.3694 108.9417,112.0494 127.7777,113.6284 C137.4257,114.4364 146.1757,111.3414 154.4447,106.7724 C167.6227,99.4924 181.2717,98.8694 195.4467,103.2524 C200.8257,104.9154 206.3237,106.1904 211.7677,107.6424 L211.7677,107.6424 Z M120.7257,74.8444 C119.1367,78.4414 117.7757,81.5234 116.0187,85.4994 C113.7577,82.6544 112.1677,80.6514 110.3377,78.3484 C109.5877,79.8854 109.0727,81.0864 108.4307,82.2154 C107.8307,83.2704 107.0947,84.2484 105.9857,85.9084 C103.9727,83.4094 102.6427,81.2814 100.8487,79.6714 C99.2157,78.2074 97.0777,77.3084 95.1617,76.1594 C94.8777,76.6004 94.5937,77.0424 94.3097,77.4844 C95.5307,78.6404 96.7527,79.7974 97.9737,80.9534 L97.1667,82.4154 C95.4577,81.4924 93.2587,80.9654 92.1287,79.5724 C88.4297,75.0114 88.5097,61.6394 92.2487,57.2024 C93.3617,55.8824 95.5107,55.4364 97.1837,54.5904 C97.4137,55.0754 97.6427,55.5594 97.8727,56.0434 C97.4627,56.4944 97.1277,57.0644 96.6307,57.3764 C93.1697,59.5474 91.8607,63.1924 93.3077,66.3754 C94.0387,67.9814 98.2707,69.0454 100.6477,68.6624 C109.1367,67.2954 117.5157,65.2364 125.9217,63.3754 C131.2617,62.1934 136.5197,60.3924 141.9177,59.7964 C147.1147,59.2234 152.5227,60.0784 155.8687,54.6994 C155.9417,54.5804 156.4747,54.7474 157.5067,54.8584 C157.1297,61.3454 162.4767,61.6804 167.0077,63.1144 C170.0187,64.0674 172.8827,65.6704 175.9497,66.2234 C183.2587,67.5414 190.6367,68.5214 198.0137,69.4064 C201.2967,69.7994 203.6417,68.2984 205.0017,65.0324 C205.9617,62.7254 207.5587,60.6854 208.8717,58.5264 C209.3017,58.6164 209.7317,58.7054 210.1617,58.7954 C210.9467,61.7244 211.7307,64.6534 212.3067,66.7994 C225.0577,68.7974 237.1797,70.8084 249.3387,72.5554 C255.2157,73.3994 261.6817,76.7844 266.0737,68.5654 C267.2427,70.9794 267.9217,72.3804 268.8427,74.2824 C271.0767,70.2004 273.1037,66.4954 275.1317,62.7904 C275.6267,62.9174 276.1227,63.0454 276.6187,63.1724 C277.2877,66.4964 277.9557,69.8194 278.7167,73.5994 C280.4437,73.4104 282.0447,73.2614 283.6387,73.0574 C296.5577,71.4044 309.4777,70.1684 322.3847,73.1254 C327.9207,74.3934 329.1737,73.5534 329.7467,68.0384 C330.9037,56.8994 314.7197,41.5734 303.4957,43.1914 C303.3977,43.2054 303.3277,43.4074 302.9747,43.8884 C310.4367,46.2684 318.4407,47.8584 322.0607,56.2464 C312.5157,58.8724 306.9737,57.0734 304.0077,51.1014 C302.8107,48.6924 300.8087,46.6844 298.8277,44.0314 C296.2517,46.7634 294.1827,48.4984 292.6857,50.6344 C288.8877,56.0544 283.8617,57.7964 277.4707,56.7574 C272.5147,55.9514 267.4937,55.5504 262.5097,54.9124 C257.3487,54.2514 252.1737,53.6584 247.0497,52.7794 C243.2137,52.1204 239.4397,51.0874 235.6537,50.1614 C230.0107,48.7794 224.3797,47.3504 218.7457,45.9324 C213.8867,44.7094 209.0777,43.2204 204.1597,42.3144 C198.6337,41.2974 193.0057,40.1764 187.4317,40.2234 C178.4887,40.2994 169.5247,42.0614 160.6237,41.7144 C149.5427,41.2824 139.9897,36.6284 131.3947,29.1814 C127.8397,26.1004 121.8417,24.3914 117.0257,24.5314 C108.3377,24.7834 99.7127,26.9554 91.0397,28.1824 C89.2607,28.4334 87.3917,28.0194 85.5627,27.9704 C84.0197,27.9284 82.4747,27.9714 80.9317,27.9764 C81.0887,29.8694 80.6617,32.0914 81.5077,33.5954 C84.4737,38.8624 83.3617,43.5144 80.1567,48.0504 C78.5237,50.3614 76.6707,52.5194 75.0747,54.8534 C70.4887,61.5584 69.3047,73.2544 73.5207,78.0314 C86.7067,92.9734 102.3267,103.4984 123.3907,101.6154 C129.7727,101.0444 136.0537,98.9384 142.2907,97.2094 C168.0117,90.0814 193.0967,89.8604 216.3357,104.9274 C222.3847,108.8494 228.4347,110.0654 235.2047,109.4634 C239.0127,109.1244 242.8777,108.8434 246.5727,107.9444 C255.7787,105.7044 264.7737,102.2314 274.0887,100.9014 C286.7357,99.0974 299.6017,98.8294 312.3737,97.9014 C321.0037,97.2744 322.6997,95.8854 323.6507,87.2194 C323.8667,85.2554 322.8837,82.1294 321.4177,81.2364 C318.7417,79.6054 315.3857,79.2204 313.9247,83.6144 C313.4617,85.0074 312.2077,86.1384 311.1617,87.6044 C308.9737,84.3794 307.6527,80.3424 305.3127,79.6234 C303.3467,79.0194 300.1937,82.2804 297.2427,84.0204 C297.0127,83.8204 296.3577,83.3344 295.8047,82.7524 C291.9257,78.6724 290.4517,78.8954 287.9507,83.8954 C286.9427,85.9124 285.8177,87.8694 284.3367,90.6114 C282.5837,88.2344 281.5857,86.2624 280.0317,84.9484 C278.4737,83.6304 276.4247,82.3204 274.4817,82.1304 C264.4067,81.1474 254.2597,80.8424 244.2127,79.6584 C237.9007,78.9144 231.5017,75.6204 226.8937,83.1964 C224.9507,81.1654 223.5157,79.6664 221.8767,77.9524 C220.1107,81.0554 218.5417,83.8124 216.4327,87.5174 C214.9397,84.5924 213.7157,82.8134 213.0937,80.8444 C211.9627,77.2654 210.1337,76.0284 206.1477,76.5734 C200.5737,77.3344 194.8307,77.6174 189.2277,77.2014 C183.7977,76.7994 178.4917,75.4544 174.0627,79.9754 C173.9367,80.1044 173.4497,79.8794 172.8787,79.7724 C172.0927,78.2454 171.2417,76.5904 170.3497,74.8584 C167.6727,77.2374 165.3067,79.3404 162.6047,81.7414 C161.9047,80.1224 161.5137,79.3964 161.2677,78.6244 C157.7297,67.5094 156.4577,66.6354 144.5857,67.4254 C142.2607,67.5804 139.9477,67.9134 137.6247,68.1224 C133.2387,68.5174 130.1537,70.3084 129.2827,75.0654 C128.9827,76.7034 127.8947,78.1954 126.9737,80.1694 C124.6337,78.1754 122.8877,76.6864 120.7257,74.8444 L120.7257,74.8444 Z M285.2027,77.0984 L313.4517,75.0964 C310.1057,74.7814 306.6827,74.5144 303.3167,74.8404 C297.2907,75.4244 291.2997,76.3664 285.2717,77.1424 L261.5277,77.1424 C261.5367,77.6384 261.5447,78.1344 261.5537,78.6304 C265.0077,78.6304 268.4757,78.8244 271.9127,78.5824 C276.3557,78.2694 280.7737,77.6094 285.2027,77.0984 L285.2027,77.0984 Z M230.6607,114.3694 C219.2727,112.0314 207.5337,110.4104 196.2837,107.1154 C181.5807,102.8084 167.8547,103.1444 154.3887,110.8814 C145.9897,115.7064 136.8307,117.9014 127.0447,117.2324 C125.4977,117.1264 123.6897,117.5204 122.3457,118.2864 C101.5197,130.1474 78.6327,134.9774 55.2257,137.8384 C45.9837,138.9684 36.6357,139.2044 27.3457,139.9624 C24.3547,140.2064 22.4507,139.2694 20.8937,136.5544 C9.1427,116.0454 1.0897,94.3524 0.0997,70.5234 C-0.6763,51.8614 3.0427,34.1344 12.3837,17.7334 C14.1207,14.6814 16.3377,13.2734 19.7867,12.7464 C38.1827,9.9334 56.5277,6.7674 74.9397,4.0634 C78.9577,3.4734 83.1797,4.4014 87.3067,4.3864 C92.0067,4.3694 96.9797,5.0094 101.3507,3.7224 C112.1817,0.5354 122.6677,-1.5456 133.3357,4.1394 C134.7017,4.8674 136.8717,4.2264 138.6457,4.0204 C147.6987,2.9674 156.7687,0.7884 165.7837,1.0104 C178.2427,1.3174 189.1457,7.0884 197.2467,16.4384 C202.0567,21.9904 208.3537,22.4684 214.2407,24.2484 C223.4797,27.0424 233.0127,28.8714 242.4387,31.0364 C249.7967,32.7254 257.1857,34.2794 264.5507,35.9394 C271.1337,37.4244 277.6687,39.1504 284.2967,40.3914 C286.4317,40.7904 288.7887,39.9354 291.0517,39.7414 C295.7427,39.3404 300.6607,37.9284 305.0887,38.8444 C315.6817,41.0354 324.5127,46.6334 330.4657,55.9904 C333.9947,61.5394 334.9967,67.6474 331.8357,73.5504 C329.4887,77.9334 327.9577,82.0774 327.4167,87.2234 C326.2097,98.7214 322.4267,101.4544 310.7357,101.8374 C303.5777,102.0724 296.3227,101.5254 289.2807,102.5264 C279.4487,103.9234 269.7827,106.4664 260.0337,108.4644 C250.4657,110.4254 240.8827,112.3174 230.6607,114.3694 L230.6607,114.3694 Z" id="Fill-1" fill="#000000" mask="url(#mask-2)"></path>
                </g>
                <path d="M89.1642,88.1172 C87.5972,86.7082 85.5002,85.5872 84.5552,83.8412 C80.4562,76.2732 81.2902,56.9222 85.8202,52.1692 C86.7512,51.1912 88.4392,50.9332 89.9442,50.7972 C82.9762,62.1722 82.9902,76.9372 90.1842,86.5962 L89.1642,88.1172 Z" id="Fill-4" fill="#000000"></path>
                <path d="M303.3702,57.7398 C309.2172,58.5308 314.4182,59.2338 319.9672,59.9838 C317.7872,63.7408 314.2112,62.5038 311.2882,62.3988 C308.1442,62.2848 304.8012,61.7528 303.3702,57.7398" id="Fill-6" fill="#000000"></path>
            </g>
        </g>
    </g>
</svg>