<?xml version="1.0" encoding="UTF-8"?>
<svg width="90px" height="91px" viewBox="0 0 90 91" version="1.1" xmlns="http://www.w3.org/2000/svg" xmlns:xlink="http://www.w3.org/1999/xlink">
    <!-- Generator: Sketch 53 (72520) - https://sketchapp.com -->
    <title>custom</title>
    <desc>Created with Sketch.</desc>
    <g id="Welcome" stroke="none" stroke-width="1" fill="none" fill-rule="evenodd">
        <g id="HOME" transform="translate(-318.000000, -2461.000000)" fill="#000000" fill-rule="nonzero">
            <g id="custom" transform="translate(318.000000, 2461.000000)">
                <path d="M69.6474297,35.7330953 C68.440049,37.0824218 67.2294994,38.3433813 66.0259962,39.6110101 C63.9944636,41.750794 61.9719472,43.899175 59.9357867,46.0345405 C59.2717288,46.730962 58.5673425,47.3888897 57.9000013,48.0823101 C57.5292076,48.4676027 57.3249494,48.8397341 57.8619348,49.3267113 C58.746157,50.1286001 59.5442398,51.0246081 60.4121076,51.8455562 C61.9770651,53.3258911 63.5821323,54.7639909 65.1410652,56.2505469 C66.2904082,57.3465164 67.362211,58.5245276 68.5239474,59.6065545 C70.1100437,61.0838152 71.6974849,62.5682245 73.3835526,63.9265022 C74.4503521,64.7859025 75.7796875,65.1137045 77.1677068,65.3021096 C78.6111998,65.4980697 80.0616141,65.8353857 81.4316842,66.3264895 C82.8488789,66.8344955 84.090261,67.6915719 85.0369927,68.9384741 C85.7395861,69.863837 86.6467607,70.6413207 87.2969033,71.597435 C88.2559556,73.0078368 88.8604746,74.5972652 89.1162038,76.3007995 C89.1724801,76.6756299 89.2621532,77.0488137 89.2793831,77.4253634 C89.3054731,77.9954765 88.4975506,79.2614692 88.0017899,79.427991 C87.8754889,79.4704238 87.6649246,79.4026062 87.5487655,79.3131346 C86.2299683,78.2974666 84.9608284,77.2118758 83.5959597,76.2635771 C82.8268437,75.729186 81.9340847,75.2006097 81.0410024,75.0783026 C80.4658046,74.9995226 79.630531,75.5242224 79.1922661,76.024163 C78.4053678,76.9218175 77.6948108,77.9428522 77.199957,79.0254522 C76.5937286,80.351697 77.1217497,81.6075504 77.9642886,82.7160873 C78.7649564,83.7695095 79.7980047,84.532821 80.8909046,85.2782717 C81.9562449,86.004913 82.9431695,86.9267121 83.1385573,88.3528493 C83.3023098,89.5480754 82.1373942,90.7428639 80.9069984,90.9072181 C79.5209386,91.092372 78.2797234,90.6880305 77.0151491,90.301279 C75.2950694,89.7752348 73.6760975,89.0216665 72.0969536,88.1575457 C69.6420408,86.814211 67.3044338,85.4231184 65.5882629,83.0551123 C63.9921808,80.8527732 63.9238655,78.6254143 64.6129293,76.2044503 C64.7438999,75.7443168 64.7670192,75.4012799 64.5584562,74.9010372 C63.6466432,72.7141312 62.0778287,70.9949658 60.6448843,69.1872771 C59.2874578,67.4748331 57.8875452,65.7791038 56.3504183,64.2307014 C54.7886502,62.6574668 53.0313589,61.2788895 51.3702866,59.8031398 C50.8018432,59.2981349 50.2536108,58.7687873 49.718168,58.2287379 C49.2730548,57.7798169 48.8471002,57.7590278 48.4302347,58.2296759 C47.6769728,59.0801144 46.9529383,59.9568442 46.1869181,60.7953824 C45.8926222,61.1175154 45.4942375,61.3423824 45.1820652,61.6508125 C43.7044459,63.1106603 42.2509358,64.5949756 40.7685528,66.0499154 C38.8713892,67.9120101 36.9339075,69.7334019 35.0527541,71.611336 C33.3764792,73.2847444 31.7485325,75.0067442 30.1087293,76.7163849 C29.3353815,77.5226714 28.6772441,78.4753885 27.7951587,79.1306902 C27.013201,79.7116093 25.971918,79.9304011 25.0833076,80.383876 C23.2486273,81.3200763 21.4400109,82.3072754 19.619543,83.2713821 C17.56597,84.3589422 15.5355995,85.4939267 13.4505946,86.5176084 C10.9237182,87.7582373 8.35996901,88.9258175 5.7884803,90.071879 C5.28750256,90.2951411 4.67866298,90.2792498 4.11841759,90.3661995 C3.43018776,90.473011 3.1761263,89.9926198 3.23965725,89.4875419 C3.3625812,88.510305 3.49086791,87.4933551 3.86338679,86.594992 C5.37368909,82.952792 6.95954562,79.3414059 8.5561229,75.7357406 C9.16353973,74.363968 9.91050046,73.0542502 10.527215,71.6862291 C10.9911477,70.6571183 11.3063948,69.5610445 11.7698272,68.5316733 C12.0409309,67.929496 12.3985807,67.3295903 12.8486345,66.8525024 C13.695155,65.9551709 14.6158072,65.1235938 15.5448504,64.3093981 C16.4528433,63.5136574 17.4697926,62.8352219 18.3312709,61.9949748 C19.6594596,60.6995229 20.9054229,59.3188615 22.1664428,57.9559986 C22.6705056,57.4112285 23.0876266,56.7844794 23.6039422,56.252902 C24.9286756,54.8890177 26.2971145,53.5676497 27.6292433,52.21081 C29.7074312,50.0940452 31.7744662,47.9662868 33.836378,45.8336514 C34.3987497,45.2519924 34.9738589,44.670771 35.4436079,44.0178034 C35.6115714,43.784329 35.6179194,43.259973 35.4661642,43.0079083 C35.1561653,42.4930143 34.7094731,42.0526902 34.2832109,41.6166908 C31.2910938,38.5561811 28.4339136,35.3426964 25.2428074,32.5049176 C22.9704512,30.4841685 20.5572375,28.4588032 17.4483724,27.6839664 C17.2147254,27.6257464 16.9767943,27.5467579 16.7402077,27.5444757 C15.3645817,27.5311895 13.9874393,27.5764879 12.613278,27.5296681 C10.0344146,27.4418116 7.74570911,26.4797994 5.78824565,24.8665598 C3.83781808,23.2591141 2.25547941,21.2721591 0.922537571,19.136033 C0.195751195,17.971308 -0.279172827,16.5665437 0.18284704,15.1833083 C0.452903226,14.3747921 1.11357359,13.6828409 1.67099414,12.9973507 C1.76700996,12.8792797 2.28915239,12.9637181 2.50796681,13.1118422 C4.40226939,14.3941536 6.25215228,15.7431883 8.16756233,16.9921954 C8.51956258,17.2217307 9.17852858,17.2568796 9.5736612,17.0909934 C10.6435148,16.6418328 11.6228043,16.0358937 12.2946536,14.9983108 C12.5987789,14.528632 13.1323403,14.1956717 13.593641,13.842183 C14.3116299,13.2920046 14.7786686,11.8889596 14.4688469,10.8856295 C14.1250343,9.77224193 13.5737947,8.77679498 12.7370044,7.92779434 C11.933439,7.11249427 11.4007375,6.00822463 10.2210519,5.60896307 C9.72020459,5.43944544 9.21018467,5.28418322 8.69283171,5.17898688 C7.69555674,4.97620132 7.02021023,4.28433873 6.67046664,3.466225 C6.23174841,2.43998505 7.24269894,1.91414419 7.89149698,1.47792059 C10.2128017,-0.0828405611 12.8090983,-0.271349878 15.4793128,0.284684878 C17.4505145,0.695164195 19.0033132,1.83610393 20.5727477,3.06889646 C22.1396701,4.29971961 23.4811851,5.71430539 24.5120759,7.33824683 C25.4584324,8.82901276 26.4827198,10.377264 26.6244633,12.2608148 C26.6428658,12.5053559 26.8422459,12.7350633 26.9523384,12.9741543 C27.2737146,13.6721077 27.6550101,14.318656 27.3344313,15.1810472 C27.2056703,15.5274186 27.5171337,16.040635 27.636894,16.4755194 C28.2446913,18.682579 29.5326611,20.4890275 31.0463457,22.1453043 C33.2407448,24.5464066 35.5849239,26.8215442 37.6450063,29.3310835 C39.281052,31.3240719 41.3239983,32.8273216 43.1515855,34.5836678 C43.4804665,34.8997257 43.8321228,35.0237624 44.2711902,34.5748519 C48.3547375,30.3996989 52.4714419,26.2569957 56.5583559,22.0851251 C57.2922301,21.3359961 57.9276652,20.4911116 58.6198976,19.700373 C59.1498369,19.0950381 59.7150073,18.5196731 60.2260489,17.8993118 C60.364316,17.7314666 60.4849155,17.3874711 60.4053635,17.2284208 C59.9318884,16.2816852 60.6148022,15.6554466 61.0697341,15.0760801 C61.7471445,14.2133764 62.6167322,13.503533 63.3837738,12.7086052 C64.2221537,11.8397483 64.9758221,10.8783611 65.8799322,10.0869191 C66.7032814,9.36618098 67.6015441,8.56812173 68.6067305,8.25911851 C69.8600787,7.87382076 70.4673287,6.89372856 71.3127549,6.13250639 C72.4442945,5.1136651 73.5045689,4.01575198 74.5963849,2.95277415 C75.420964,2.14997351 76.3136397,1.45858522 77.5084602,1.33039576 C78.17675,1.25869646 78.8594868,0.995507732 79.483237,1.56964824 C79.6692229,1.74083324 80.0467294,1.69534724 80.3309876,1.77001112 C81.76905,2.14771746 82.7576631,3.17073741 83.7603376,4.17173332 C84.6831996,5.09303217 85.7222935,5.92696966 86.500061,6.95784156 C87.7192308,8.57383219 89.2728893,10.0330964 89.7555269,12.0817103 C90.0587036,13.3685442 89.7009809,14.661568 88.7718127,15.6479854 C87.7700034,16.711526 86.6412468,17.6543539 85.6025594,18.6847985 C84.8469001,19.4344696 84.135186,20.2300852 83.435011,21.0323699 C83.3136401,21.1714542 83.2660675,21.4712038 83.3227606,21.6538046 C83.7128587,22.9101895 82.8885089,23.6837759 82.1848626,24.4595506 C80.9378414,25.8344284 79.6012618,27.1280045 78.3508843,28.4999856 C77.5000588,29.4335809 76.7916179,30.5019774 75.9022987,31.3932128 C75.4593746,31.8371007 74.7620658,32.0378959 74.1629982,32.3118752 C73.7335725,32.5082522 73.1938874,32.5424006 72.8465463,32.8248623 C71.7440777,33.7214539 70.7087258,34.7005352 69.6474297,35.7330953 L69.6474297,35.7330953 Z M62.3039866,33.7696807 C63.8732075,31.9163392 65.4125651,30.0363 67.030651,28.2266315 C67.4893875,27.7135923 67.3780338,27.4349132 67.003008,27.0194736 C66.2231352,26.1555821 65.4352881,25.2949521 64.7156212,24.3818543 C64.0730357,23.5665437 64.0127881,23.525476 63.2883574,24.2493976 C60.9177602,26.6183209 58.5479966,28.9880674 56.17791,31.3575013 C54.5721966,32.9627794 52.9554448,34.5572307 51.3641888,36.1767121 C50.0400652,37.5243193 48.7496304,38.9049285 47.4375356,40.264436 C45.674626,42.0910485 43.8981867,43.9046665 42.1403325,45.7361039 C39.7599268,48.2161528 37.398773,50.7146775 35.0158915,53.1923297 C33.0590691,55.2269798 31.06885,57.2296386 29.1193709,59.2712079 C27.6716927,60.7872959 26.2811717,62.3578839 24.8356931,63.8761289 C23.7965574,64.9675655 22.685505,65.9910387 21.6583928,67.0931356 C21.3887013,67.3825168 21.2498609,67.8380027 21.1616991,68.2414064 C21.0433616,68.7829252 21.1257383,69.3787981 20.9543661,69.895818 C20.6820637,70.7173496 20.8335895,71.0809257 21.6133166,71.4285998 C22.8190712,71.9662421 24.0430826,71.6022701 25.245111,71.5462175 C25.830331,71.5189155 26.5353114,71.1989081 26.9447084,70.7771953 C28.4166733,69.2609719 29.7717544,67.6321223 31.1996748,66.0720593 C31.9062083,65.3001505 32.7101854,64.6166193 33.4069104,63.8366972 C34.2106115,62.9370628 34.9080348,61.94209 35.7176719,61.0483329 C36.8869915,59.7575078 38.112853,58.5176917 39.3198689,57.2611818 C40.8420903,55.6765469 42.3584539,54.0860764 43.8979782,52.5183646 C45.428997,50.9593227 46.9967899,49.4363781 48.5278712,47.8773779 C50.1107364,46.2656492 51.6599962,44.6209499 53.2405474,43.0069078 C54.5106462,41.709893 55.8162888,40.4476725 57.0867524,39.151012 C58.8070822,37.3951972 60.5088582,35.6212297 62.3039866,33.7696807 L62.3039866,33.7696807 Z M58.7176384,38.7209002 C56.7456239,40.7492979 54.7870346,42.7909715 52.7981444,44.8027066 C50.3614935,47.2673122 47.8846185,49.6922464 45.4563586,52.1649904 C44.5822784,53.0551003 43.8210427,54.0549604 42.9675592,54.9665994 C42.1386648,55.8519783 41.2356803,56.667862 40.4034712,57.5503129 C37.9575644,60.1438216 35.524051,62.7491058 33.0995903,65.3626743 C32.1341745,66.4033833 31.231336,67.5027604 30.2528024,68.5304958 C29.118761,69.7215745 27.9267392,70.8573405 26.7773598,72.0341742 C26.6402705,72.1745299 26.4866912,72.5054788 26.5538391,72.6064444 C27.1994996,73.5771788 26.8819436,74.631768 26.9114576,75.6618271 C26.9211723,76.0008833 27.1059022,76.4398839 27.3618032,76.6377821 C27.6241514,76.8406616 28.0303432,76.810796 28.1759277,76.2839912 C28.241064,76.0482762 28.5583854,75.8826091 28.7603399,75.6842001 C29.4104668,75.0454463 30.0769012,74.4222194 30.7058842,73.7632703 C31.5168399,72.9136551 32.2488014,71.9832277 33.1033063,71.1819642 C34.2934362,70.0659974 35.6564393,69.1245971 36.7819386,67.9516607 C38.6088638,66.0477165 40.2603361,63.976438 42.0658881,62.0507877 C43.7545411,60.24981 45.5381828,58.5371575 47.2978716,56.8037576 C48.1779453,55.936844 49.1283251,55.1400613 49.9900223,54.2561308 C50.6624502,53.5663472 51.2116832,52.7571327 51.8784824,52.061128 C53.0882189,50.7983866 54.3652075,49.6000863 55.5770705,48.3393142 C57.5458226,46.291086 59.4704208,44.2004459 61.4400068,42.1530306 C63.6769337,39.8276968 65.94757,37.5348024 68.1940136,35.2185555 C69.23243,34.1478663 70.2448191,33.0520009 71.2759288,31.9741529 C71.6895318,31.5417902 71.6665792,31.1271114 71.2316394,30.7502908 C70.5661328,30.1736962 69.8853139,29.6143998 69.2015557,29.0593757 C68.7193665,28.6679559 68.2887211,28.5741388 67.7860706,29.1236711 C66.0414229,31.0310227 64.2591883,32.9041216 62.4833535,34.7827852 C61.2633499,36.0734333 60.0302649,37.3517222 58.7176384,38.7209002 L58.7176384,38.7209002 Z M10.1313007,25.4891929 C11.3604457,25.7546168 12.565106,25.8696398 13.853305,25.7056086 C15.4764152,25.4988944 16.9813909,24.8800023 18.1745853,23.9950611 C20.4485521,22.3085332 22.6740445,20.5144955 24.192477,17.9744655 C25.657437,15.523907 25.6387843,13.129948 24.6201776,10.60929 C23.5889377,8.05738551 21.6489127,6.20735773 19.7173306,4.36738076 C19.0770539,3.75747127 18.3266636,3.23331332 17.5538838,2.79941883 C16.4811742,2.19714259 15.3145284,1.90207176 14.0682733,1.70675776 C12.2879618,1.4277661 10.688122,1.76784351 9.11615465,2.46493732 C8.84333101,2.58592088 8.70783114,3.01642344 8.50890979,3.30396517 C8.79480973,3.47139885 9.06251021,3.72667844 9.36991383,3.79035368 C10.4331798,4.01059895 11.3687062,4.44144024 12.0919591,5.26067944 C12.7123791,5.96344188 13.2425631,6.75650449 13.9200881,7.39584693 C15.1092644,8.51799849 15.4866093,10.0022879 15.8202121,11.4773601 C16.0104351,12.3184931 15.8945106,13.2267088 15.2055772,13.9360729 C14.3841354,14.781895 13.5681035,15.6352722 12.7928012,16.5229854 C11.9116747,17.5318594 10.8553092,18.3089888 9.62898882,18.7873898 C8.77702731,19.1197455 7.84522725,19.5013283 6.92427262,18.8697858 C6.03848169,18.2623563 5.1435234,17.668203 4.26095334,17.0561573 C3.48508298,16.5181086 2.7065963,15.9819252 1.95712856,15.4085088 C1.55902013,15.1039241 1.34308776,15.288609 1.35626824,15.6478917 C1.37892877,16.265627 1.4003281,16.934882 1.64455514,17.4836326 C2.45691786,19.3088905 3.77562655,20.7924452 5.04389596,22.3163174 C5.84467839,23.2784756 6.69232981,24.1072392 7.85848065,24.5860259 C8.56386222,24.8756362 9.26014953,25.1873903 10.1313007,25.4891929 L10.1313007,25.4891929 Z M52.3988529,28.306266 C51.8954935,28.8664064 51.4103231,29.4442308 50.8856685,29.9836655 C48.4013929,32.5378572 45.9062353,35.0814824 43.4151635,37.6290571 C40.9473883,40.1528101 38.475256,42.6723222 36.0141517,45.2025464 C34.775881,46.4755835 33.5636011,47.7738593 32.329234,49.0507415 C30.4029418,51.0433756 28.4630941,53.0229423 26.5385948,55.0172958 C25.6445329,55.9438259 24.7795576,56.8983457 23.8900507,57.8293254 C21.3184107,60.5209237 18.7461663,63.212001 16.1606997,65.890292 C15.7381743,66.32799 15.226669,66.6795614 14.8007403,67.1144562 C14.6746165,67.2432346 14.6953435,67.5202775 14.6693109,67.7318894 C14.6676535,67.7453633 14.8562139,67.8223405 14.9358858,67.7993006 C15.5188959,67.6307259 16.0884338,67.408808 16.6779536,67.2710369 C17.6942722,67.0334983 18.7402457,66.624801 19.7389436,66.7076243 C20.4895527,66.7698563 20.8467075,66.5140922 21.2536185,66.0926608 C21.5191301,65.8176706 21.7067055,65.4619413 21.9898692,65.2107415 C22.4996496,64.7585067 23.110579,64.4111035 23.5796087,63.9240118 C24.5208472,62.9465144 25.3763684,61.887142 26.3007731,60.8926799 C28.1348645,58.9195844 29.9944933,56.9702377 31.8382108,55.0060311 C33.4517521,53.2870534 35.0396049,51.5435663 36.6718982,49.8426578 C38.8597983,47.5627894 41.0750964,45.3091182 43.2876013,43.052988 C44.379636,41.9394283 45.5030454,40.8565575 46.5916404,39.7397154 C47.6491317,38.6548125 48.6834727,37.5472655 49.7217954,36.4438555 C50.4483522,35.6717594 51.1381353,34.8632535 51.8911991,34.1183655 C53.1501864,32.8730264 54.4485952,31.6675882 55.7257924,30.4405374 C56.0113951,30.1661411 56.2655609,29.8585866 56.5556354,29.5893797 C57.2719252,28.9246682 58.0506621,28.3198544 58.7140007,27.6069891 C60.1160397,26.1002589 61.4417892,24.5226476 62.8415974,23.0137498 C63.1872186,22.6411807 63.1398127,22.4040175 62.88818,22.0536549 C62.3394265,21.2895721 61.7681999,20.5353578 61.2962672,19.7246948 C61.0054214,19.2251502 60.7781275,19.2084668 60.4317976,19.5955726 C60.0626403,20.0082089 59.7203337,20.4455215 59.3411803,20.8484249 C58.2053774,22.0553326 57.0529491,23.2465885 55.9161039,24.4525374 C55.4398665,24.9577196 54.9896771,25.4873483 54.5219556,26.0007001 C53.8454208,26.743233 53.1637369,27.4810663 52.3988529,28.306266 L52.3988529,28.306266 Z M76.1369933,67.403827 C74.4281189,67.8969106 73.0001569,68.7986187 71.8248491,70.1577197 C70.5257209,71.6600317 69.0971335,73.0512804 67.8148914,74.566962 C67.268702,75.2126246 66.5502338,75.8874547 66.8838991,76.9536108 C66.9261663,77.0886622 66.5557372,77.3674976 66.356743,77.5592165 C66.1572067,77.7514355 65.8251465,77.876108 65.7370474,78.1026422 C65.1714286,79.5572277 65.7440728,80.8760217 66.4350128,82.0905677 C67.7537682,84.4087008 70.0294913,85.6602504 72.2612273,86.877037 C73.6373222,87.6273228 75.1328283,88.1900267 76.62478,88.6866639 C77.8084683,89.0806994 79.0616915,89.287403 80.2989459,89.4832381 C80.5885096,89.5290786 81.1308735,89.2578815 81.2092893,89.018655 C81.2979825,88.7480414 81.0718663,88.2816449 80.8438427,88.0223796 C80.5278556,87.6630969 80.0740284,87.428028 79.693989,87.121453 C78.3747123,86.0571935 76.8264218,85.1720959 75.7961252,83.8764147 C73.7364494,81.286178 74.2312614,80.3298032 75.4887583,78.1662811 C75.9939418,77.2971063 76.8696375,76.6500056 77.4325879,75.8057776 C78.0996165,74.8054696 79.0526543,74.2163701 80.0363789,73.643652 C80.5404783,73.3501548 81.0713244,73.2102785 81.6493573,73.5832227 C82.4508485,74.1003468 83.3380728,74.4932151 84.1043118,75.0543143 C85.1449589,75.8163859 86.1187082,76.672462 87.0949592,77.5184301 C87.4953138,77.8653748 87.5881557,77.5885506 87.5660267,77.3008889 C87.5012344,76.458766 87.441779,75.6069102 87.2620057,74.7847013 C86.709906,72.2596768 84.9115047,70.5698456 83.1047332,68.9450182 C81.9434241,67.9006621 80.5307219,67.1961645 78.910645,67.1613805 C78.0160932,67.1421752 77.1185707,67.2615541 76.1369933,67.403827 L76.1369933,67.403827 Z M80.321054,21.3916319 C81.6974826,21.6728327 82.2902856,20.5633788 83.0800192,19.8221068 C84.3295316,18.6492747 85.6106062,17.5031818 86.7773563,16.251705 C87.4844735,15.493239 88.2285001,14.632484 88.5424756,13.6812987 C88.8837293,12.647431 88.3522788,11.5635648 87.6894092,10.6725483 C87.1818491,9.99030405 86.5606005,9.38988793 86.0787343,8.6917938 C84.8928258,6.97370698 83.5114254,5.50808095 81.5410785,4.6740289 C80.4525461,4.21325441 79.4385099,3.49869561 78.3117546,3.22913978 C77.2932158,2.98547405 76.0947679,2.77242939 75.1648075,3.67344976 C74.3759494,4.43776183 73.5974317,5.21348954 72.834549,6.00367071 C71.9180348,6.95300644 71.0609345,7.96308902 70.1044046,8.86911132 C69.524141,9.41874773 69.4845528,9.99987544 69.8547106,10.5598232 C70.6871804,11.8190945 71.6960048,12.9674122 72.469363,14.2588626 C73.5993495,16.145873 75.0439161,17.7422417 76.7178615,19.1159524 C77.7807523,19.9882222 78.8101004,20.985894 80.321054,21.3916319 L80.321054,21.3916319 Z M55.7290236,51.6111441 C56.228516,52.1105009 56.7990128,52.5572544 57.2149819,53.1184891 C58.8540607,55.3299878 60.4740854,57.5572009 62.0322783,59.8258881 C62.419437,60.3895924 62.7444821,61.1297806 62.7473799,61.7903863 C62.7512157,62.6653447 60.708801,63.3117264 60.0079379,62.7076109 C58.5174872,61.4228819 57.0534391,60.107537 55.5800204,58.8030921 C54.5598762,57.8999251 53.5181345,57.0193709 52.5298029,56.0825662 C51.4246032,55.0349901 51.4626698,55.0292065 50.3642454,56.105054 C49.8969304,56.5627908 49.8716846,56.908881 50.3631821,57.3536337 C51.8367052,58.687048 53.2896836,60.0431583 54.7526476,61.3882853 C54.8101747,61.4411804 54.8955429,61.4633347 54.9548003,61.5149065 C56.0394968,62.4588807 57.2122822,63.3218552 58.183165,64.3714113 C59.4838566,65.7775199 60.6465104,67.3137823 61.8339824,68.8212837 C63.0355573,70.3466356 64.5029826,71.6847807 65.2233793,73.5576296 C65.2838979,73.7149186 65.4334016,73.8380177 65.5415554,73.9769978 C65.6712336,73.8213029 65.8280442,73.6810099 65.9265459,73.507621 C67.6752379,70.42949 70.0588438,67.9888935 73.1686939,66.2744591 C73.9185264,65.8610934 73.9149928,65.7472584 73.2510704,65.1952355 C71.4498442,63.6975922 69.5898193,62.2605239 67.8858857,60.6583093 C64.9187952,57.8683507 62.0524269,54.9714033 59.1413417,52.1218385 C58.5503419,51.5433057 57.9754984,50.9432541 57.340272,50.4169704 C57.0085765,50.1421366 56.45975,49.7475799 56.1858319,49.8555274 C55.3296696,50.1929788 55.2052969,50.7912587 55.7290236,51.6111441 L55.7290236,51.6111441 Z M21.8295929,24.2087051 C21.6606077,24.3509884 21.507852,24.5211052 21.3198075,24.630699 C20.5191032,25.0973561 19.7004967,25.5336681 18.905885,26.0101725 C18.7084125,26.1285927 18.5644489,26.3478636 18.4312059,26.5446886 C18.4170038,26.5656758 18.6447617,26.8446466 18.7536451,26.8402388 C20.0226911,26.7889901 20.9279531,27.5663174 21.8497206,28.2339885 C23.2624175,29.2572533 24.6864761,30.2862493 25.969354,31.4615722 C27.4193407,32.7899844 28.6995033,34.3018521 30.0895917,35.6980402 C31.1583509,36.7714804 32.3044782,37.7678079 33.3765157,38.8381635 C34.3846624,39.8447032 35.2994931,40.9468835 36.3324945,41.9256313 C37.2125526,42.75947 37.5099184,41.613325 38.0358027,41.2900767 C38.5812833,40.9547824 38.3409809,40.5638209 38.022513,40.2341016 C37.3307964,39.5179224 36.5863111,38.8506474 35.9207313,38.1117513 C34.8279618,36.8986122 33.9010086,35.50629 32.6814116,34.4454171 C31.3944946,33.3259908 30.3890788,32.0432937 29.4516707,30.6560882 C29.0541564,30.0678434 29.1268861,28.6599424 29.4792356,28.331015 C30.1792283,27.6775472 30.990898,27.5300536 31.7528062,28.1825834 C33.5712779,29.740031 35.3443452,31.3529474 37.0894515,32.9927075 C38.4330305,34.2551886 39.7421443,35.5592061 40.9959615,36.9102729 C41.6597692,37.6255661 41.911277,37.0183453 42.3231392,36.6835198 C42.8122183,36.2859205 42.7009271,35.9988735 42.2946207,35.6034729 C40.7893374,34.1386128 39.2776957,32.6770039 37.8382104,31.1485153 C35.0338877,28.170829 32.2452939,25.1768655 29.5181933,22.1288294 C28.6536661,21.1625654 27.6783794,20.2080664 27.4489904,18.8084603 C27.4191792,18.626568 27.1682136,18.4809085 27.0196844,18.3184612 C26.8835801,18.4599942 26.732445,18.5900021 26.6137688,18.7448839 C25.7045198,19.9315026 24.8442247,21.1589808 23.8805757,22.299311 C23.3078794,22.9770066 22.5755479,23.5198593 21.8295929,24.2087051 L21.8295929,24.2087051 Z M70.4159307,15.9282173 C70.6777576,16.3037874 70.8773982,16.7522708 71.2144928,17.0395885 C71.8913821,17.6165165 71.169672,17.8863486 70.9891376,18.232814 C70.7329706,18.724449 70.3607801,18.3891339 70.1291292,18.1842954 C69.246137,17.4034876 68.3130286,16.654869 67.5606841,15.7583295 C66.9196829,14.9944552 66.2793592,14.1385667 66.393319,13.0044211 C66.4091105,12.8472934 66.2988199,12.6775101 66.246911,12.5135882 C66.0393278,12.6307423 65.7137927,12.7005137 65.6444037,12.8731784 C65.3303135,13.6546115 64.852919,14.447153 65.5040726,15.3043337 C65.595476,15.4246504 65.5464127,15.6516326 65.562371,15.8292525 C65.3312411,15.8349004 64.9673061,15.9339277 64.8934767,15.8289711 C64.6558321,15.4911653 64.5302087,15.0757675 64.3509355,14.6952059 C64.275501,14.5350614 64.1739556,14.3872135 64.0842722,14.2337696 C64.0031672,14.3708844 63.9082095,14.5017675 63.8431984,14.646135 C63.3836384,15.6667009 63.722036,16.5620941 64.3490073,17.363639 C65.5137456,18.8526959 66.7310079,20.3007475 67.8929006,21.791951 C68.1351522,22.1028507 68.2321322,22.5268663 68.3960619,22.898758 C68.0240695,22.717241 67.5671154,22.6180782 67.2961263,22.3386489 C66.5063822,21.5242865 65.7504102,20.6690753 65.0586989,19.7702642 C64.4565356,18.9878411 63.9593781,18.1245955 63.416858,17.2963946 C63.268063,17.0692248 63.1229683,16.8396268 62.9761748,16.6111441 C62.9228797,16.9159477 62.8578789,17.2194383 62.8233148,17.5263572 C62.8126828,17.6208203 62.8712418,17.7324253 62.921754,17.8230119 C63.5019239,18.8635228 64.0124336,19.952844 64.6875403,20.9281428 C65.7076845,22.4019021 66.7732333,23.857269 67.9538466,25.2026045 C68.7899437,26.1553424 69.976488,26.8088206 70.7726423,27.7863178 C71.6504854,28.8641348 73.1012436,28.7883246 74.035488,29.7083106 C74.2123325,29.8824497 75.0818888,29.6631058 75.342934,29.3690354 C75.7271428,28.9362143 75.314603,28.5700645 74.9006665,28.2057799 C74.5591939,27.9052695 74.4702088,27.3226204 74.2556003,26.8715319 C74.1412757,26.631232 74.0305682,26.3769998 73.8611452,26.1775071 C73.4135513,25.6504626 72.9037399,25.1732912 72.4888653,24.6233525 C72.3758436,24.473535 72.5112861,24.1363649 72.5327064,23.8851859 C72.76639,23.9991669 73.0317817,24.074727 73.2268151,24.235559 C73.574427,24.5221994 73.8624272,24.8804818 74.2062764,25.1723951 C74.7480672,25.632341 75.3327816,26.042883 75.8609071,26.5171051 C76.0096185,26.6506353 76.050145,26.9301063 76.0792681,27.1507008 C76.0854492,27.197479 75.8306791,27.2976839 75.6863558,27.3396687 C75.5590333,27.3767139 75.4180559,27.3668351 75.2831033,27.3776831 C75.4219646,27.4880272 75.5453577,27.6583838 75.7022412,27.6987429 C76.5739448,27.9230367 76.7275033,27.105517 77.1701564,26.6806258 C77.8131902,26.0633908 77.6397542,25.7174257 76.9409132,25.2982972 C76.7174446,25.1642669 76.7395735,24.6209349 76.6493272,24.2648826 C76.9131555,24.2177084 77.2458098,24.0474143 77.4267298,24.1485153 C77.825125,24.3711524 78.1686509,24.7094791 78.4936129,25.0407512 C78.7914944,25.3444189 78.9497018,25.4355995 79.2282895,24.9832918 C79.5543355,24.453913 80.02287,24.0140788 80.4057968,23.5170665 C80.5810256,23.2896466 80.8864017,23.0066012 80.2521029,22.9136803 C79.8423671,22.8536575 79.4069061,22.724921 79.0632654,22.5028259 C77.9344984,21.7732876 76.8993339,20.8820314 75.7239845,20.2451222 C73.4743723,19.0260849 72.0076454,17.075175 70.5979452,15.065253 C69.7325685,13.8314289 68.5276893,12.7636366 68.4209741,11.0942507 C68.4169714,11.0317425 67.8787977,10.8741773 67.722133,10.9723501 C66.9211318,11.4743121 66.9893742,12.2452986 67.1839384,13.0420917 C67.5882437,14.6978631 68.7040335,15.8532824 69.9067446,16.9484705 C69.997585,17.0311895 70.1378535,17.0596587 70.2551488,17.1133458 C70.2249208,16.9759704 70.2327696,16.811908 70.1582315,16.7055966 C69.7079691,16.0633833 69.2245708,15.4439078 68.789485,14.7919926 C68.7131749,14.6776575 68.8131359,14.4457358 68.8316897,14.2681265 C68.9892194,14.3372257 69.1967505,14.3646529 69.2953565,14.4828749 C69.6599066,14.9199581 69.9884645,15.3870423 70.4159307,15.9282173 L70.4159307,15.9282173 Z M18.24325,70.6477295 C17.8813213,71.1802864 17.5364819,71.7254838 17.1537794,72.2426702 C16.4427585,73.2035676 15.6909665,74.1346098 14.9897958,75.1024472 C13.7087003,76.8707459 12.4407072,78.6488087 11.1898552,80.4385946 C10.5001869,81.4253976 9.8447441,82.4369289 9.20412342,83.4563172 C9.10335979,83.6166699 9.16348748,83.8780716 9.14922307,84.0927471 C9.36393063,84.0785542 9.58498104,84.0907881 9.791204,84.0412797 C9.93918074,84.0057661 10.0752694,83.8985065 10.2031444,83.804825 C12.3420334,82.2379156 14.483643,80.6746534 16.6141306,79.0963854 C17.8146372,78.2070467 18.9892102,77.2827674 20.1881114,76.3912298 C21.2066243,75.6338371 22.2423724,74.8995575 23.2727055,74.1581292 C23.4694901,74.0165336 23.6765886,73.889256 23.8789288,73.7553612 C23.6129221,73.6585013 23.3454352,73.4759839 23.0811744,73.4805482 C22.2223073,73.4953559 21.3649046,73.6199658 20.5064074,73.6259472 C19.1905863,73.6350758 18.4022233,72.79536 18.4095564,71.4945102 C18.4113073,71.1839546 18.3571055,70.8730861 18.24325,70.6477295 L18.24325,70.6477295 Z M22.8542557,80.5501581 C23.7339801,80.0664217 24.6161072,79.5869681 25.4916885,79.095854 C25.7017628,78.9780071 25.8901096,78.8214473 26.0884523,78.682707 C25.9180444,78.5621924 25.7166007,78.4687608 25.583222,78.3159423 C25.2272087,77.9080057 24.7837842,77.5197744 24.5968916,77.0377575 C24.4307884,76.6093442 24.5902257,76.0633966 24.5503978,75.573856 C24.5298322,75.3210514 24.388464,75.0780733 24.3016782,74.8306563 C24.1246202,74.9521608 23.9408807,75.0651519 23.7722499,75.1973897 C23.5764659,75.3508753 23.4099251,75.5459079 23.2028787,75.6799798 C22.3531113,76.230231 21.4577464,76.7164788 20.6437106,77.3141544 C19.0225235,78.5044516 17.4644976,79.7808024 15.8417991,80.9689425 C14.2806566,82.1120343 12.6811294,83.203919 11.0775634,84.2873734 C10.3840905,84.7559165 10.5856125,85.260567 10.8997287,85.8115998 C11.2143139,86.3634559 11.6510779,86.356797 12.156501,86.1001786 C14.2464258,85.039066 16.338253,83.9816945 18.4303928,82.9249376 C18.9942447,82.6401208 19.5682751,82.3747801 20.1258574,82.0783547 C21.0120756,81.607217 21.8883761,81.1174261 22.8542557,80.5501581 L22.8542557,80.5501581 Z M17.8163155,70.0501685 C17.973298,69.8087327 18.1302753,69.5672969 18.2872474,69.3258404 C17.9957188,69.3603327 17.704753,69.4008586 17.4125522,69.4282335 C16.3885409,69.5241764 15.3623563,69.6000594 14.3405132,69.7148219 C13.7744098,69.7783879 13.0644157,69.269298 12.6720297,70.0757928 C12.0962691,71.2592124 11.5277683,72.4465917 10.9825014,73.6442563 C10.4814248,74.7448631 10.0102739,75.8592252 9.53471391,76.9712841 C8.7904163,78.7117284 8.08678042,80.470711 7.29223121,82.1877714 C7.06787146,82.6726228 7.18111725,83.0207867 7.54450514,83.1186052 C7.8127007,83.1908097 8.31384512,82.9726433 8.48692144,82.7263307 C9.34670596,81.5028125 10.0923483,80.1990971 10.9528519,78.9761312 C12.3071096,77.0514502 13.7073557,75.1585312 15.1149398,73.2721459 C15.9313783,72.1779373 16.8002469,71.1228478 17.8163155,70.0501685 L17.8163155,70.0501685 Z M32.3324392,32.3184612 C33.1553299,33.1980358 33.992266,34.0649702 34.7979318,34.9600402 C36.1340839,36.4444495 37.4347964,37.9612358 38.7966947,39.4212606 C38.9439572,39.5791229 39.4397597,39.547934 39.6961142,39.4322231 C39.9865328,39.3011316 40.2627023,39.0125842 40.4070985,38.7235887 C40.524029,38.489562 40.563513,38.037025 40.4200653,37.880778 C39.071874,36.4122915 37.761056,34.891733 36.2728098,33.5743459 C34.650075,32.1379027 32.8545295,30.8957733 31.1211652,29.5863369 C30.9533892,29.4595908 30.6929903,29.4554016 30.4755778,29.3943262 C30.5244116,29.6283426 30.5073902,29.9085847 30.633613,30.0882782 C31.1475679,30.8199631 31.705395,31.5208552 32.3324392,32.3184612 L32.3324392,32.3184612 Z M57.4368035,55.0257782 C56.8133346,54.2886537 56.2274319,53.5153174 55.5585688,52.82197 C54.1749586,51.3876944 54.1861116,51.4259277 52.974228,53.138976 C52.6201951,53.6394166 52.7097639,53.9151572 53.0885316,54.2702717 C53.5204694,54.6752071 53.9293922,55.1046729 54.3483111,55.5234887 C55.6959187,56.8707519 57.0206364,58.2421285 58.4025684,59.5532321 C58.9461208,60.0689078 59.5905928,60.4968519 60.2429036,60.8710258 C60.5399096,61.0413928 60.9675739,60.9841313 61.3359702,61.0301071 C61.2109617,60.715258 61.1378098,60.365354 60.9524494,60.0912912 C59.8232133,58.4216655 58.6684397,56.7692758 57.4368035,55.0257782 Z" id="Shape"></path>
                <path d="M22.0430654,9.05626605 C22.2849992,9.61300405 22.5023648,10.1212968 22.6691923,10.6456579 C22.7054295,10.7595658 22.5604964,10.9310791 22.4990032,11.0760614 C22.3784455,11.0033201 22.2218173,10.9577039 22.1432818,10.8533516 C21.6892619,10.2500698 21.2415481,9.6412388 20.8143061,9.01876739 C19.8942532,7.67828788 18.5377544,6.87099085 17.2115617,6.02079185 C16.9807343,5.87280844 16.7275901,5.6954701 16.5996108,5.46730493 C16.4345345,5.17298976 16.3851169,4.81384246 16.2858907,4.4826122 C16.6338832,4.49343402 17.0804504,4.36790183 17.3141652,4.53678383 C19.0781274,5.81142561 20.8023922,7.14170322 22.0430654,9.05626605 Z" id="Path"></path>
                <path d="M23.5800673,14.1782173 C23.8379021,15.6001756 23.7603776,16.9111646 22.8673735,18.08705 C22.656116,18.3652393 22.6255493,18.7753643 22.4763218,19.108908 C22.4294839,19.2136041 22.2381509,19.3498748 22.1628883,19.3243755 C22.0314067,19.2798273 21.8356594,19.1094707 21.8467187,19.0122983 C21.9070549,18.4820756 21.9914119,17.9500081 22.1267761,17.4341138 C22.2795476,16.8518504 22.5390711,16.2958989 22.6704588,15.7101966 C22.7890361,15.1815682 22.7706177,14.6233555 22.8681605,14.0883079 C22.9043039,13.8900344 23.0985659,13.7205742 23.220708,13.5379734 C23.3262613,13.7371638 23.4318144,13.9363439 23.5800673,14.1782173 Z" id="Path"></path>
                <path d="M6.41687943,21.4343148 C7.60155797,22.0745587 8.75106769,22.6584373 9.88037146,23.2790591 C10.1722493,23.439464 10.4007264,23.7151733 10.6583265,23.9379143 C10.2942246,23.982077 9.85931095,24.1763072 9.57854459,24.0438817 C8.48652541,23.5288314 7.1707459,23.4490511 6.33412759,22.4191691 C6.08552812,22.1131463 5.7705259,21.8605918 5.52639791,21.551599 C5.42166814,21.4190277 5.42017759,21.2049566 5.37178679,21.0279099 C5.58292953,21.0353293 5.80697676,21.0020771 6.00096774,21.063559 C6.14552021,21.1093888 6.25119848,21.2778073 6.41687943,21.4343148 Z" id="Path"></path>
                <path d="M20.3352855,19.8977295 C20.5772193,19.8975522 20.7764638,19.940058 20.975703,19.9825534 C20.8871139,20.1708959 20.833871,20.3906254 20.7012428,20.539849 C20.5245234,20.7386644 20.2991422,20.9043107 20.0696332,21.042728 C19.9102116,21.1388897 19.7086531,21.1652123 19.5259194,21.2227342 C19.5459636,20.9738372 19.48606,20.6726288 19.6061487,20.4891839 C19.758592,20.256293 20.0570781,20.1189595 20.3352855,19.8977295 Z" id="Path"></path>
                <path d="M68.4519838,78.9282173 C68.4519838,79.5049785 68.4779279,79.9983749 68.4403929,80.4868943 C68.4231109,80.7119175 68.2815602,80.9273954 68.196338,81.1472084 C67.9969163,80.9800301 67.6402255,80.8256067 67.625445,80.6434435 C67.5630502,79.8747757 67.3865498,79.0143333 67.6471988,78.3403057 C68.3074313,76.6330615 69.1185016,74.9670832 70.4373717,73.635899 C70.6243478,73.4471604 70.9587429,73.4043942 71.224906,73.2940709 C71.2608565,73.4438259 71.3794546,73.6547186 71.3205516,73.7343011 C70.1487253,75.3175396 69.0624963,76.9455453 68.4519838,78.9282173 Z" id="Path"></path>
                <path d="M81.6445834,69.8367539 C82.4497333,70.6985925 83.2164727,71.5138511 83.9695157,72.3415726 C84.0697998,72.4518125 84.1549802,72.6269001 84.1506128,72.7689958 C84.1443066,72.9739386 84.0496304,73.1761614 83.9926662,73.3795513 C83.8321239,73.2758868 83.6356522,73.2029424 83.5166266,73.0637853 C82.4054543,71.7646445 81.3420946,70.4208825 79.7569154,69.6334889 C79.5944553,69.5527809 79.5400345,69.2546883 79.4354767,69.0574568 C79.6695044,69.0426595 79.9375333,68.9471961 80.1309405,69.0287167 C80.6386152,69.2426524 81.1137687,69.533732 81.6445834,69.8367539 Z" id="Path"></path>
                <path d="M73.020295,85.2879734 C73.356952,85.5107248 73.6807464,85.6576142 73.9329211,85.8841692 C74.0690098,86.0064136 74.082602,86.2649497 74.1514594,86.461983 C73.9210176,86.5017691 73.6192791,86.6545356 73.4723814,86.5619064 C72.8128368,86.1460189 72.181123,85.680008 71.5788449,85.1841629 C71.4497713,85.0779141 71.4848253,84.7724123 71.4442676,84.5586954 C71.6413649,84.5874564 71.8618316,84.5698456 72.0306082,84.6548258 C72.3614906,84.8214415 72.6635937,85.0451828 73.020295,85.2879734 Z" id="Path"></path>
                <path d="M70.2878472,82.7269978 C70.3874642,82.8590688 70.4684024,82.9414335 70.4969626,83.0391062 C70.5944741,83.372504 70.6807283,83.7098095 70.7503466,84.049908 C70.7588001,84.091257 70.6397953,84.1587098 70.5798709,84.2140641 C70.3259971,83.8956095 69.9782704,83.6110844 69.8470181,83.2482796 C69.736175,82.9418815 69.8562324,82.6436952 69.3256054,82.6468317 C69.0925681,82.6482177 68.8492324,82.2486697 68.6380114,82.0071714 C68.6214589,81.9882475 68.8643255,81.6614043 68.9135868,81.6792444 C69.2265721,81.7925688 69.5419338,81.9308924 69.8102754,82.1248933 C69.9940202,82.2577459 70.1028412,82.4941902 70.2878472,82.7269978 Z" id="Path"></path>
                <path d="M73.0629895,71.5867539 C73.3672399,72.4079 72.5700118,72.5325619 72.194194,72.939196 C72.1572116,72.9792009 71.8924556,72.8595094 71.78278,72.7597319 C71.730006,72.7117136 71.7597651,72.5215057 71.8079006,72.4228639 C72.0446069,71.9377209 72.3174201,71.4862258 73.0629895,71.5867539 Z" id="Path"></path>
                <path d="M85.1455322,13.2391929 C85.3020821,13.2487902 85.5082477,13.2276989 85.5143664,13.1806184 C85.5470751,12.9291424 85.4624367,12.6451384 85.5485032,12.4226943 C85.636571,12.195071 85.8438728,11.9592 86.0603055,11.8578801 C86.173202,11.8050267 86.4842381,11.9881641 86.5918187,12.1435566 C87.0501175,12.8054754 87.0938126,13.5842201 86.6850775,14.2193474 C86.4845091,14.5310079 85.8179705,14.7672541 85.438911,14.6849623 C84.9263477,14.5736804 84.4310352,14.1837609 84.0269488,13.8075239 C82.4584264,12.3471342 80.8908421,10.8818155 79.3984421,9.34500615 C78.4224832,8.34001393 77.5525514,7.22756932 76.6884882,6.12156983 C76.4600685,5.82917198 76.3320371,5.3812722 76.3364567,5.00688488 C76.34048,4.66517134 76.5207748,4.09826268 76.7396779,4.03541054 C77.1488508,3.91792834 77.7088409,3.97465822 78.0808437,4.18271154 C78.4156454,4.36996512 78.610439,4.84341115 78.7972065,5.22476995 C78.8294358,5.29058139 78.527437,5.54505854 78.3535423,5.67805717 C78.2327241,5.77046741 78.0669179,5.80410002 77.9212084,5.86399783 C78.0109337,6.00463995 78.0786965,6.1671132 78.1936465,6.28265724 C79.9539606,8.05190946 81.720435,9.81503412 83.4854709,11.5795813 C84.0245931,12.1185576 84.5637155,12.6575337 85.1455322,13.2391929 Z" id="Path"></path>
                <path d="M67.0857599,65.4404124 C67.7780028,66.0397553 68.4625949,66.6967763 68.1997777,67.593618 C68.0548083,68.0882752 67.4787139,68.6864614 66.9926054,68.8030683 C66.0117369,69.0383559 65.3586966,68.5587669 65.0447211,67.6295483 C64.6833813,66.5601409 64.6809631,65.4416837 65.9011336,65.2015401 C66.2387806,65.1350876 66.6324227,65.3529728 67.0857599,65.4404124 Z" id="Path"></path>
                <path d="M27.422572,27.8367539 C26.37725,28.3282744 25.7620365,28.2007675 25.2311644,27.2330238 C24.8950598,26.6203321 24.6578011,25.8990468 24.5925659,25.2061057 C24.5122895,24.3534268 25.3060934,23.9621215 26.1707144,24.081938 C27.5559558,24.2738964 28.1647641,26.0439666 27.9591249,27.1494087 C27.9149868,27.3866969 27.6360445,27.5803331 27.422572,27.8367539 Z" id="Path"></path>
                <path d="M67.9823443,20.153827 C67.3761993,19.2632793 66.7864084,18.4310352 66.2678621,17.5565562 C66.1387572,17.3388276 66.2398231,16.9847134 66.2351012,16.6932795 C66.4898089,16.7793435 66.8379525,16.7877425 66.9844021,16.9638096 C68.1216956,18.3310388 69.2076431,19.7408779 70.3395162,21.1127548 C70.6142058,21.4456837 71.0319781,21.6586085 71.3204578,21.983128 C71.4385556,22.1159598 71.3882102,22.3984528 71.4144878,22.6128575 C71.2201529,22.6288114 70.9857396,22.7222846 70.8388627,22.646412 C70.3673886,22.4028504 69.8769335,22.1531616 69.4891078,21.8009543 C68.9554786,21.3163218 68.5089063,20.7358924 67.9823443,20.153827 Z" id="Path"></path>
                <path d="M73.191073,22.6294368 C72.778356,22.1997105 72.3655245,21.8430329 72.0589809,21.4109726 C71.93293,21.2332902 72.0357887,20.8932961 72.0345274,20.6271322 C72.2689928,20.6882806 72.5585045,20.68232 72.7286987,20.8218314 C73.6065521,21.5414389 74.4452551,22.3085749 75.3163854,23.0366961 C75.6224288,23.2924809 75.9963704,23.4662555 76.3087198,23.7157567 C76.413955,23.7998096 76.4246495,24.002168 76.4785493,24.1504536 C76.3391043,24.1983261 76.2025985,24.2749594 76.0597451,24.289517 C74.9328438,24.4044775 74.3396029,23.4846584 73.5377156,22.9701707 C73.4207748,22.8951525 73.3343226,22.772658 73.191073,22.6294368 Z" id="Path"></path>
                <path d="M73.105684,28.348949 C72.523023,27.7664457 71.9636583,27.244226 71.4510951,26.679542 C71.1860994,26.3875976 70.9698646,26.0368077 70.7983675,25.6804844 C70.7055361,25.4875984 70.7530358,25.2271868 70.7372339,24.997245 C70.9505708,25.0832048 71.2204969,25.1138102 71.3678221,25.2643467 C72.167364,26.0813246 72.9338323,26.9305752 73.7178122,27.7629339 C74.0050514,28.0678834 74.3284081,28.3407583 74.5973021,28.6602238 C74.7291173,28.8168146 74.7740736,29.0465063 74.8583368,29.2431124 C74.6616774,29.2186865 74.4329451,29.2499379 74.2746752,29.1588408 C73.8820964,28.9328798 73.5217051,28.6510328 73.105684,28.348949 Z" id="Path"></path>
                <path d="M54.4481887,54.1721197 C54.6189667,54.144755 54.7897447,54.2027459 54.9605227,54.2607368 C54.9186517,54.3450189 54.8767703,54.4293009 54.8348783,54.5135831 C54.7059819,54.4282173 54.5770853,54.3428514 54.4481887,54.1721197 Z" id="Path"></path>
            </g>
        </g>
    </g>
</svg>