<?xml version="1.0" encoding="UTF-8"?>
<svg width="70px" height="107px" viewBox="0 0 70 107" version="1.1" xmlns="http://www.w3.org/2000/svg" xmlns:xlink="http://www.w3.org/1999/xlink">
    <!-- Generator: Sketch 53 (72520) - https://sketchapp.com -->
    <title>easy</title>
    <desc>Created with Sketch.</desc>
    <g id="Welcome" stroke="none" stroke-width="1" fill="none" fill-rule="evenodd">
        <g id="HOME" transform="translate(-778.000000, -2445.000000)" fill="#000000" fill-rule="nonzero">
            <g id="easy" transform="translate(778.000000, 2445.000000)">
                <path d="M15.322895,57.06846 C15.0651131,58.3222762 14.8151664,59.4871989 14.5470567,60.6479818 C14.3308036,61.5842123 14.0857872,62.513846 13.8670245,63.4495343 C13.7568225,63.9208872 13.6586457,64.3966454 13.5905401,64.8754034 C13.5574027,65.1083347 13.6057817,65.3527445 13.6172559,65.5919518 C13.8211108,65.4341664 14.1255521,65.3169481 14.2095724,65.1108473 C14.4418238,64.5411705 14.5861369,63.93552 14.7578672,63.3419899 C15.3126727,61.424512 15.8837212,59.5113398 16.4065022,57.5852283 C16.5932291,56.8972372 16.6782623,56.1796149 16.778053,55.4711024 C17.031895,53.6687507 17.2333461,51.8582858 17.5281215,50.0628301 C17.6449566,49.3511961 17.9765534,48.6768086 18.1637088,47.9731883 C18.2481131,47.6558575 18.3557611,47.2305951 18.2168121,46.9881003 C17.5814419,45.8792078 17.7132458,44.6606457 18.2935373,43.773638 C19.334603,42.1822905 19.7249845,40.4040025 20.2142551,38.6633042 C20.8885054,36.2644782 21.3339491,33.8023497 21.8894947,31.370074 C22.2297221,29.8805483 22.7203839,28.4109797 22.8975175,26.9038546 C23.0047257,25.9917097 23.182527,25.0725802 22.8832053,24.0426967 C22.5451647,22.8795783 22.6472257,21.482167 22.9316288,20.2736333 C23.3391271,18.5420555 24.1296949,16.9033337 24.6738776,15.1987971 C25.1770821,13.6226359 25.8116232,12.1325901 26.8726435,10.8423688 C26.9546385,10.7426501 27.0257991,10.5455484 26.9821278,10.4454534 C26.3149446,8.9163346 27.1832728,7.85737344 28.0478837,6.75973232 C28.4449539,6.25565465 28.7089514,5.6470543 29.0267478,5.08220903 C29.7167851,3.85571629 30.3432184,2.58886119 31.1067533,1.40964861 C31.8795813,0.216074501 33.3171607,-0.278423309 34.6830787,0.154736916 C35.0912336,0.284186268 35.5905596,0.725138778 35.6897215,1.11381889 C36.0226202,2.41862892 35.8823246,3.6333665 34.9993059,4.82054291 C33.8885376,6.31388751 32.7694001,7.83112943 32.7560782,9.89913165 C32.7521274,10.5124638 32.0090815,11.342423 31.389359,11.6694391 C30.7456419,12.0091289 30.4761353,12.4377342 30.6703635,12.9287896 C31.2914659,14.4991062 30.4786394,15.9494706 30.437539,17.4557876 C30.4298932,17.736038 30.3067033,18.0114625 30.2791472,18.2931962 C30.1481667,19.6324188 30.0286607,20.972815 29.9132055,22.3134766 C29.8925385,22.553492 29.8374709,22.8263707 29.9225987,23.033545 C30.3338254,24.0343399 29.8403422,24.9300143 29.6540047,25.8644297 C29.5341648,26.4653427 29.5228797,27.094791 29.3424408,27.6743413 C29.2036588,28.1200811 28.8339888,28.4892137 28.6416192,28.9249916 C27.9644809,30.458881 27.2072396,31.9713302 26.6992439,33.5610947 C26.318695,34.7520069 26.2593259,36.047209 26.0841233,37.2997301 C25.6486627,40.4128354 25.4248475,43.5364229 25.504355,46.6853801 C25.5206148,47.3293727 25.4183424,48.0677269 24.7402524,48.544426 C24.3353973,48.8290486 24.2254457,49.2097482 24.3975043,49.8130299 C24.6968428,50.8626602 24.1528606,51.837377 23.6039314,52.7190384 C22.0924926,55.146621 20.9286766,57.7306942 20.2759892,60.5016415 C19.9256174,61.9891525 19.8434889,63.5447146 19.7088638,65.0755269 C19.546137,66.9258616 19.4460626,68.7820075 19.3468062,70.6371018 C19.3342357,70.8721583 19.4905017,71.1161474 19.5685458,71.3559968 C19.7336264,71.1479038 19.9306923,70.9573769 20.0578053,70.7284303 C20.4391277,70.0415792 20.804218,69.345209 21.1556303,68.6426626 C22.007732,66.939133 22.9102382,65.2568446 23.6757541,63.5152718 C24.3836372,61.9048195 25.0278495,60.2548962 25.538622,58.5738253 C26.0642354,56.8439078 26.4825123,55.0694938 26.7738101,53.2864462 C26.9221966,52.3781753 26.6553445,51.4089156 26.6359628,50.4659994 C26.6068765,49.0513319 27.4028866,47.9542054 28.6972545,47.4406473 C28.9026898,47.3591478 29.1818565,47.0381199 29.1558029,46.8692215 C28.9284651,45.3960555 29.7376301,44.3791334 30.7875547,43.6551689 C31.7015128,43.0249568 31.7150683,42.1501246 31.9071708,41.2964119 C32.3625805,39.2725851 32.7723049,37.2385639 33.1993907,35.208439 C33.3808312,34.3459929 33.5987535,33.488727 33.7277863,32.6184995 C33.8438647,31.835638 33.9267889,31.0366381 33.9067784,30.2476997 C33.8746927,28.9820179 34.0275867,27.7610651 34.4646445,26.5724774 C34.5230063,26.413729 34.4780329,26.1138979 34.5597551,26.0825179 C35.981542,25.5366057 35.3465949,24.1655269 35.7417286,23.2152833 C35.7953827,23.0862545 35.7578104,22.9023799 35.837507,22.8040007 C37.0256795,21.3370996 37.2403409,19.5101089 37.7619142,17.7902862 C38.45302,15.511468 39.6041429,13.4865232 41.3738754,11.8446357 C41.4404954,11.7828277 41.4937934,11.7021363 41.568927,11.654795 C42.6780038,10.9561226 43.6952304,10.3538592 43.8860419,8.73985407 C43.9845137,7.90688405 45.1110411,7.10453041 45.9161883,6.46720663 C46.8549424,5.72410413 47.5498431,4.58698618 48.8707989,4.39575639 C50.0308032,4.22782637 51.1217057,3.65859785 52.3605607,3.917076 C53.3198373,4.11721611 54.0413927,5.12149199 53.7530443,6.05908407 C53.3547388,7.35420887 52.525452,8.36126849 51.4827726,9.1809007 C50.7610281,9.74824208 50.1577882,10.2941875 49.9272787,11.2736638 C49.6909707,12.2778124 48.5352513,12.3328796 47.7935409,12.8198617 C47.4821328,13.0243241 47.0526096,13.1716938 46.8925372,13.4624929 C46.1767691,14.7628199 45.5608528,16.117063 44.866364,17.4295768 C44.2084568,18.6729549 43.4787883,19.8786772 42.8156284,21.119443 C42.2069461,22.2582656 41.5779085,23.3476992 41.8970626,24.7909463 C42.0927375,25.6757513 41.9079692,26.6791804 41.7387154,27.6011323 C41.3753445,29.5804515 40.3169841,31.2539846 39.2178012,32.9070737 C38.2862589,34.3080382 38.1265871,35.9769112 37.7674455,37.5631669 C37.5013223,38.7386272 37.3757173,39.9464303 37.206263,41.1424562 C36.9065405,43.2580542 37.0918208,45.4846167 35.8708727,47.3883031 C35.6066303,47.800294 35.0534276,48.0197547 34.6767906,48.3736347 C34.494738,48.5447028 34.2947672,48.8277979 34.3061079,49.0499039 C34.3701123,50.3034544 33.8342934,51.3680385 33.4006414,52.4931911 C32.8667701,53.8783603 32.5367091,55.3402914 32.0946767,56.7616999 C31.6709408,58.1242668 31.5526811,59.571078 30.6730233,60.8093203 C30.2385254,61.4209258 29.996497,62.2671228 29.9429986,63.0263859 C29.8325405,64.5942896 29.0740027,65.901778 28.3501771,67.1817718 C27.331075,68.9839241 27.1316439,70.9087185 26.9878149,72.8832118 C26.9222522,73.7831478 26.7970146,74.6786895 26.7147358,75.5776517 C26.7017535,75.7194759 26.7732313,75.8689266 26.8056508,76.0148462 C26.9738588,75.9716338 27.2281181,75.982935 27.2963739,75.8763758 C27.7528801,75.1637125 28.2274434,74.4529418 28.5880875,73.6909559 C29.4850625,71.7957485 30.3445985,69.8822331 31.1805404,67.9594643 C31.9158181,66.2682321 32.6616798,64.5769559 33.2869223,62.8443043 C33.9054763,61.1301931 34.4320246,59.3781602 34.8974619,57.616254 C35.2105728,56.430987 35.1830612,55.1386626 35.6083107,54.005762 C36.0477503,52.8351057 36.7410483,51.7124436 37.5284666,50.7317276 C38.170136,49.9325617 39.6769284,50.127992 40.7185838,51.0785456 C41.4918791,51.7842357 42.0630668,51.6406294 42.6922937,50.9801663 C42.7902535,50.8773373 42.9132321,50.7500132 43.0400836,50.7297906 C44.6389594,50.4748765 46.2394158,50.2288398 47.8420199,49.9981331 C49.5934338,49.7459752 51.3413753,49.3853323 53.1019373,49.3008 C55.5983113,49.180925 58.1048463,49.2703718 60.6070408,49.2703718 C61.5594728,49.2703718 62.5236574,49.17849 63.4609538,49.296926 C64.3509172,49.4093737 65.2203028,49.7179048 66.0841793,49.986533 C66.6179392,50.1525093 67.1821822,50.3235664 67.6300464,50.6373441 C68.3489307,51.1410289 68.7159074,51.8352849 68.7927662,52.7890152 C68.8652956,53.6888849 69.4850068,54.5487519 69.5396183,55.4457437 C69.6636652,57.4834065 69.7643184,59.5529475 69.5340313,61.5710958 C69.3729239,62.9831068 68.6356207,64.3273991 68.1939444,65.7140073 C68.142427,65.8757222 68.3172791,66.2812713 68.4172421,66.2917976 C69.5366468,66.4097798 69.7207249,67.1070132 69.8869629,68.087187 C70.1185854,69.4528087 69.9742721,70.7549953 69.6355526,72.0332401 C69.3221078,73.2161164 68.7516101,74.3294695 68.3845999,75.5014098 C68.2136321,76.0473552 68.218017,76.6591489 68.2129977,77.2416766 C68.2081231,77.807723 68.1137692,78.2025353 67.4398916,78.3109208 C67.1845862,78.3519969 66.8694829,78.6227503 66.7594813,78.8677911 C65.5952257,81.4609627 63.8026893,83.652747 62.1949099,85.9587061 C61.6108234,86.7964687 60.8970808,87.5574473 60.1687699,88.2799398 C59.2282573,89.2129272 59.0337065,90.472809 58.513491,91.5921946 C58.378515,91.8826395 57.9566823,92.18961 57.6423248,92.2174257 C57.0395409,92.2707774 56.4192176,92.1309344 55.8064286,92.0688495 C55.0797873,91.9952199 54.537057,92.2619998 54.3533907,92.9836621 C54.0937559,94.0038715 53.4104519,94.4931005 52.4478477,94.8019195 C50.3871068,95.4630245 48.3337003,96.1530744 46.3053233,96.9059728 C44.2542539,97.6672724 42.2000459,98.4399396 40.2185679,99.3596998 C38.9893619,99.9302511 37.8941078,100.785624 36.7367079,101.51001 C35.4836296,102.294255 34.2763927,103.172275 32.9548137,103.818536 C32.2219844,104.176921 31.4835795,104.364028 30.9112232,105.057664 C30.5594492,105.483923 29.8446604,105.665274 29.2573908,105.835534 C28.4368628,106.073424 27.5870094,106.309964 26.7426203,106.338278 C25.989814,106.363492 25.2171975,106.145548 24.4720426,105.960367 C23.703455,105.769387 23.0284923,105.72489 22.4786505,106.43327 C21.9379793,107.129895 21.114619,107.038887 20.4193398,106.911818 C19.1985532,106.688715 18.0102695,106.290527 16.8071561,105.970174 C16.6140019,105.918727 16.4111375,105.844699 16.2185511,105.858867 C13.8908579,106.030322 12.1069968,104.920876 10.4642047,103.468852 C10.332423,103.352364 10.1733299,103.129461 10.0610579,103.149097 C8.81274851,103.367395 7.84802412,102.640796 6.78809988,102.227422 C5.42540383,101.695987 3.89315888,101.474944 2.81666321,100.398748 C1.40018484,98.9827415 -0.115889295,97.5790321 0.0070057599,95.3068994 C0.0628746246,94.2738944 0.0486402774,93.2278171 0.22408229,92.2147251 C0.303868046,91.7540091 0.699135213,91.2845047 1.07040234,90.9496077 C1.84235092,90.2532708 2.19989553,89.5224989 2.24320504,88.4128094 C2.342584,85.8665584 2.59090027,83.3260078 3.04653833,80.7972344 C3.2938809,79.4245064 3.91447138,78.7659914 5.14170755,78.5615511 C5.56626158,78.4908216 6.04520422,78.7467097 6.49999639,78.8503909 C6.75035508,78.9074616 7.00098619,78.9888282 7.25382108,78.9984026 C7.37166891,79.0028745 7.49505921,78.862777 7.61593975,78.7882066 C7.54090072,78.6813595 7.48405797,78.5526961 7.38683266,78.4724143 C7.21117931,78.3273689 7.0009417,78.2240751 6.82336866,78.0809669 C5.45240339,76.9761586 5.4229331,75.4144977 5.76324402,73.9734754 C6.38188709,71.3539158 7.4271317,68.8300127 7.98429652,66.2011775 C8.59871581,63.3022088 8.86109412,60.3397162 8.41740895,57.3502601 C8.21782212,56.0054477 8.24622955,54.6238648 8.21855094,53.2580106 C8.18794556,51.7475205 8.22442163,50.2357799 8.20731594,48.7248582 C8.19455072,47.5969494 8.40641318,46.5650404 9.15911373,45.6614627 C9.31822903,45.4704598 9.28415113,45.0538531 9.22760322,44.7626003 C8.91589465,43.1569409 9.20565635,41.7564636 10.349306,40.5017067 C11.9087232,38.7908055 12.4489603,36.7669011 12.0615003,34.4606101 C11.8794865,33.377209 11.9090237,32.2574027 11.8608005,31.1533142 C11.7906416,29.5467471 11.3905163,27.8525044 11.7704141,26.3562156 C12.1755587,24.7604739 11.3426382,23.5837186 11.2112127,22.20943 C11.0766709,20.8025107 10.8892428,19.301551 11.2378784,17.9751127 C11.6054449,16.5766388 12.580308,15.3363155 13.2872117,14.0254842 C13.3667304,13.878026 13.4641282,13.7278559 13.4937042,13.5680226 C13.6615282,12.6611352 13.9451076,11.8277559 14.5693318,11.0979912 C14.7825353,10.8487333 14.7464542,10.3639871 14.7705268,9.98347577 C14.8856981,8.16338094 14.8376754,6.36905971 16.3556193,4.89311537 C17.0146892,4.25227737 17.2402685,3.09490361 17.4825527,2.12750888 C17.7109031,1.21575695 18.3229186,0.804922469 19.0901762,0.701838997 C19.8216144,0.603564769 20.3582235,1.04519245 20.85859,1.67646709 C21.8024248,2.86719672 21.511678,3.96914909 21.0828114,5.22062963 C20.6355593,6.52575503 20.3924015,7.90028705 20.0647278,9.24561975 C19.8772218,10.0154866 19.9514317,11.0706181 19.4644815,11.5000757 C18.4354913,12.4075828 18.6840023,13.4524535 18.5890307,14.5208342 C18.4742878,15.8116643 18.1794789,17.0870755 18.0737008,18.3781712 C17.9465822,19.9296711 17.9802427,21.494232 17.8527234,23.0456763 C17.8060083,23.614003 17.4972878,24.1609999 17.3081402,24.7177484 C17.2541021,24.876829 17.1478621,25.0382781 17.1548513,25.1947021 C17.1987618,26.1781079 17.2863436,27.1598201 17.3176836,28.1434141 C17.327405,28.4485913 17.1481068,28.7598234 17.1582122,29.0649011 C17.1814503,29.7664292 17.3678879,30.4741005 17.3104664,31.1646818 C17.1148973,33.5164321 16.7668012,35.8575787 16.6317197,38.211554 C16.5658401,39.3597297 16.8826347,40.5250065 16.9508128,41.6869184 C17.0022633,42.5636765 17.1650679,43.5361685 16.8655735,44.3075406 C16.3984168,45.5107501 16.3731033,46.5841118 16.7450936,47.7901551 C16.9032016,48.3027834 16.686448,48.9419943 16.5946093,49.5164862 C16.2414662,51.7254162 15.8714401,53.9316896 15.5033673,56.1382288 C15.4563126,56.4202503 15.3836719,56.6980324 15.322895,57.06846 L15.322895,57.06846 Z M64.5552396,75.6569261 C65.1675166,76.0845354 65.7702891,76.5269655 66.4004843,76.9266259 C66.5196899,77.0022256 66.8534458,76.9719304 66.9086803,76.8817421 C67.2884,76.2617575 67.0583023,75.0596769 66.6475652,74.4309038 C66.4434767,74.1184654 66.3351665,73.5343438 66.4948272,73.2403238 C66.8279485,72.6268698 67.3662491,72.1231075 67.827502,71.5803943 C67.8528323,71.5505971 67.9570912,71.5541611 68.0033,71.5799514 C68.5452622,71.8824833 68.5491463,71.5319241 68.5710932,71.1444392 C68.6176582,70.3225048 68.7104541,69.5025739 68.7350943,68.6803629 C68.742128,68.4459261 68.5800301,68.2064642 68.4954922,67.9693044 C68.3058047,68.0843202 68.0557076,68.1560347 67.9359901,68.3212031 C66.9775036,69.6437119 66.1523126,71.0791778 65.0747318,72.2944745 C63.7318292,73.8090045 62.2060948,75.1672766 60.702363,76.5309059 C60.5367149,76.6811314 59.7948709,76.5406133 59.6739068,76.3320443 C59.4154518,75.8864594 59.174681,75.2469386 59.3048044,74.7944026 C59.8379856,72.9399393 60.4691824,71.1061523 61.9450353,69.7184041 C62.2402172,69.4408212 62.6295748,69.1207897 62.6959721,68.76826 C63.0048093,67.1284646 63.4099372,65.4708263 63.4140328,63.818689 C63.4196865,61.5370482 63.0855744,59.2553853 62.9236325,56.971863 C62.8922144,56.5288572 62.9829848,56.077273 63.0173966,55.6296404 C62.5276752,55.6860913 62.0338581,55.813515 61.5490113,55.7857435 C60.0779552,55.7015101 58.6121963,55.5092896 57.1407728,55.4539014 C56.2275938,55.4195329 55.3046208,55.5270772 54.3918313,55.6245377 C52.9348757,55.7801315 51.4132704,55.7654987 50.0422107,56.2039332 C46.5949627,57.3063172 43.1792328,58.5184039 39.8458818,59.9482356 C38.974226,60.322117 38.546873,60.9319956 38.30391,61.7426397 C37.779287,63.4930677 37.2826098,65.2518636 36.7833617,67.0097297 C36.4526666,68.174099 36.1978841,69.3635501 35.8018712,70.5049626 C35.0964532,72.5380982 34.298796,74.539389 33.5627281,76.562297 C33.2848413,77.3260097 32.97163,78.097249 32.8462254,78.8918656 C32.4605627,81.3355313 32.4542969,83.8102559 31.2476054,86.1318327 C30.4825793,87.6036816 29.5480095,88.7833811 28.2932174,89.7946248 C28.0543609,89.987133 27.8347693,90.2700289 27.7363976,90.5555592 C27.4529015,91.3784677 27.3228784,92.2638704 26.9609209,93.0461674 C26.7355753,93.5332158 26.9105666,93.699635 27.2526136,93.6806853 C28.1440518,93.6312964 28.688429,94.187104 29.3309109,94.6361091 C29.70895,94.900321 30.3325678,95.2390921 30.6348277,95.0978544 C31.210022,94.8290822 31.7077564,94.950695 32.2572198,94.9598157 C34.029512,94.9892254 35.8224937,95.1313374 37.5688102,94.9174996 C38.851971,94.7604004 40.2131033,94.3273345 41.2929435,93.6362221 C43.1239872,92.4643038 44.7396571,90.9642849 46.484883,89.6535754 C48.0667423,88.4655412 49.6243621,87.1858352 51.8158829,87.3296187 C51.9999723,87.3417057 52.2243718,87.0245852 52.4002143,86.8332834 C53.1244407,86.0453635 53.8263528,85.2369994 54.5570565,84.4551783 C55.3247426,83.6337862 56.1659265,82.8754974 56.8854563,82.0155417 C58.0403076,80.6353092 59.087995,79.1661278 60.2488117,77.7911862 C60.7800453,77.1619593 61.5309151,76.7183558 62.0774293,76.099124 C62.7741439,75.3096542 63.2339833,74.7956313 64.5552396,75.6569261 L64.5552396,75.6569261 Z M23.7106278,66.9520835 C23.0445964,68.0981007 22.4030216,69.2590387 21.7071248,70.3868256 C20.4874121,72.3635436 19.6152609,74.4307268 19.6917134,76.813359 C19.7440377,78.4442441 19.6872896,80.0627765 19.0418308,81.6190027 C18.9414781,81.8609551 19.3073195,82.294165 19.4575759,82.6389353 C19.6596446,82.4189767 19.9337196,82.2311726 20.0502542,81.9730154 C20.3948164,81.2097235 20.6343017,80.3975517 21.0063144,79.6494793 C21.1419914,79.3766561 21.5350216,79.2304263 21.8106436,79.02644 C21.8361631,79.3284737 21.9038124,79.6346914 21.8740027,79.931213 C21.8497018,80.1728888 21.7028846,80.4009388 21.6206447,80.6385413 C21.2819087,81.6172538 20.9281869,82.5916385 20.6285313,83.5821614 C20.5756339,83.757004 20.7544479,84.0011812 20.826265,84.2133476 C20.9944618,84.14502 21.1624581,84.0761943 21.3308885,84.0084423 C21.5651097,83.9142249 21.7958139,83.7513257 22.0346705,83.7382866 C23.5976211,83.6530127 24.7590944,82.6518747 24.9742288,81.1201882 C25.0072438,80.8851094 24.9395499,80.5739107 24.7983973,80.3881211 C24.3318471,79.7740142 24.3262434,79.2072484 24.7689437,78.579383 C25.0090355,78.2389183 25.2953584,77.8476813 25.3276499,77.4601191 C25.4485529,76.0094115 25.363987,74.5359023 25.561476,73.0988204 C25.8128808,71.2694611 26.0377198,69.3824667 26.6855048,67.674731 C27.4865566,65.5629406 28.5547776,63.5552633 29.1753903,61.3572249 C29.8301701,59.0381828 30.6890495,56.7754474 31.32186,54.4512472 C31.679655,53.1371395 31.734155,51.7571726 32.746062,50.6720225 C33.0491232,50.3470321 32.7459842,50.0836838 32.3009801,49.9831681 C31.4196418,49.7841072 30.5398394,49.5550166 29.6878711,49.2576318 C28.923791,48.9909295 28.2024582,49.45159 28.0735812,50.2590354 C27.7912315,52.0280587 27.8608229,53.8118148 27.4156409,55.5956594 C26.460304,59.4237083 25.3983598,63.1931259 23.7106278,66.9520835 L23.7106278,66.9520835 Z M9.94380547,60.5141269 C9.85263446,61.5438888 9.7038193,62.5723999 9.68149954,63.6036448 C9.62322668,66.295572 8.63287157,68.7805796 7.9651765,71.3307822 C7.58860632,72.7690483 7.16125899,74.1724478 7.306418,75.6718027 C7.36490238,76.2759366 7.54698839,76.7936567 8.32512493,76.8462334 C9.11298285,76.8994632 9.22291229,76.4169973 9.31403315,75.8245629 C9.39551615,75.2947778 9.4948672,74.753747 9.69864972,74.2638871 C9.77291544,74.0853698 10.165289,73.9902226 10.4245956,73.960215 C10.5199235,73.9491794 10.7623747,74.2502504 10.7449574,74.3841715 C10.6682766,74.9740156 10.507186,75.5523815 10.4036894,76.1396024 C10.3040267,76.7051508 10.73917,77.0923144 11.2423634,76.8103484 C11.6361451,76.5897144 12.025525,76.1944705 12.2017124,75.7851913 C13.0036712,73.9223266 12.7201084,71.9834417 12.6324154,70.0229837 C12.5136715,67.368336 12.4896879,64.6715496 12.8309727,62.0450168 C13.1826577,59.3383459 14.0817917,56.7063449 14.6252174,54.0184468 C14.9680213,52.3228647 15.2157701,50.5896709 15.290047,48.8641587 C15.365993,47.0997288 15.2493916,47.1300019 13.4671999,47.0755546 C12.8217075,47.0558301 12.1290939,46.9347376 11.5537717,46.6608517 C10.7431099,46.2749608 10.124862,46.4754275 10.0430174,47.3763377 C9.893234,49.0251319 9.67921243,50.6794055 9.6958174,52.329362 C9.72298399,55.0282515 9.91341142,57.7255028 9.94380547,60.5141269 L9.94380547,60.5141269 Z M30.0014274,73.0273382 C29.5388725,74.4882401 29.14858,75.9628673 27.9614093,77.0921153 C27.4633742,77.5658368 27.0859472,78.2322439 26.8387939,78.880819 C26.5886523,79.5372198 26.646519,80.3049061 26.4307112,80.9799688 C25.8150787,82.9057594 25.0491677,84.7378196 22.8170082,85.3753481 C22.6554001,85.4215048 22.448518,85.7080534 22.4628914,85.8646435 C22.4803757,86.055093 22.6749041,86.3280934 22.8539297,86.3896246 C24.26077,86.8732417 24.9063067,87.4061372 25.9715397,85.3805172 C26.0636177,85.2054202 26.1550057,85.0109638 26.3003151,84.8883329 C26.4258255,84.7823935 26.6276382,84.765879 26.7957236,84.7098377 C26.8197851,84.8770095 26.9134879,85.0737792 26.8564894,85.2065159 C26.5148206,86.0021842 26.1843091,86.8088105 25.7584752,87.560447 C25.4486863,88.1072337 25.5811916,88.5978905 26.0969053,88.5760961 C26.8341252,88.5449375 27.8115535,88.4142374 28.2433804,87.9329004 C30.2703439,85.6734526 31.2000278,82.9310515 31.387289,79.9111452 C31.441366,79.0391137 31.6272696,78.1513974 31.9045219,77.3209955 C33.0469975,73.8991596 34.3340424,70.5228498 35.3946734,67.077039 C36.0233213,65.034683 36.80069,63.0341118 37.1080027,60.8708184 C37.2391166,59.9478925 38.3258012,59.163769 38.9607262,58.3037802 C39.1108936,58.1003693 39.3386207,57.7950591 39.2791792,57.6221316 C38.7916058,56.2037449 39.1983473,54.8333967 39.4815429,53.47083 C39.5895414,52.9512613 39.6527777,52.4812036 39.1641693,52.2526665 C38.7110299,52.0407437 38.1182847,52.0159496 37.8242048,52.5687466 C37.3385901,53.4815225 36.6795478,54.3926157 36.5260975,55.3714834 C36.2297471,57.2616878 35.95708,59.1169592 35.2244622,60.9179935 C34.2774611,63.2460346 33.977249,65.8008751 32.6630041,68.0194793 C31.7214788,69.6089007 30.9435315,71.2941667 30.0014274,73.0273382 L30.0014274,73.0273382 Z M18.0580252,68.0401888 C18.1795846,66.3680061 18.2487586,64.6899348 18.4383681,63.0254118 C18.606882,61.5460472 18.682845,59.9967279 19.2024039,58.6296894 C20.0938253,56.2842482 21.2404632,54.0268148 22.3953702,51.7914305 C23.0553361,50.5140046 22.9071276,49.7685445 21.584508,49.2365568 C21.324506,49.13199 21.0725058,48.9994082 20.8336549,48.8526473 C20.011196,48.3473022 19.3825312,48.5273912 19.1711808,49.4783543 C18.8545696,50.9029506 18.6860835,52.3594028 18.4174618,53.795422 C18.0982464,55.5019068 17.8733405,57.2414873 17.3683609,58.8944435 C16.5107279,61.7016631 15.4255123,64.439371 14.5205245,67.2333966 C14.1804305,68.28337 13.765687,69.4580111 13.9308342,70.4893556 C14.2436113,72.4426189 14.3945522,74.294448 13.506375,76.1254788 C13.336687,76.4753076 13.2125677,76.861143 13.1520188,77.2436137 C13.1183639,77.4562117 13.2594664,77.6961828 13.3218015,77.9238122 C13.5413764,77.7945511 13.8685438,77.7150329 13.9572441,77.5252699 C14.1214287,77.1740242 14.0773234,76.7238237 14.251107,76.3805035 C14.3843689,76.1172213 14.7261043,75.7769672 14.9628628,75.7860657 C15.4031537,75.8030008 15.2338441,76.1347322 15.1685652,76.4775766 C15.0191992,77.2619656 14.815912,78.1275776 15.0100677,78.861991 C15.2480562,79.7621816 15.6576078,80.6915717 17.0557006,80.5214336 C17.6606823,80.4478151 18.023953,80.4800694 18.0537849,79.8259379 C18.127483,78.2096635 18.1896065,76.5927031 18.2362049,74.9754436 C18.2599882,74.1500114 18.2612401,73.3226865 18.2357319,72.4973541 C18.1916655,71.0716178 18.1188022,69.6467669 18.0580252,68.0401888 L18.0580252,68.0401888 Z M65.7404627,52.1719861 C65.9531988,52.1241801 66.1659237,52.0763741 66.3786598,52.028568 C66.2772944,51.8950232 66.1975643,51.6722418 66.0711578,51.6419134 C64.9628158,51.3759416 63.8566328,51.0470659 62.7293153,50.9265935 C61.2464399,50.7681329 59.7454569,50.7548391 58.2513854,50.7282409 C56.5406492,50.6977685 54.8226566,50.6290868 53.1192656,50.7443792 C50.9657956,50.8901329 48.8152417,51.1479469 46.6804355,51.4691739 C45.5114388,51.645068 44.3072514,51.9039667 43.2510723,52.402427 C42.4812159,52.7657486 41.9019372,53.5587825 41.2998435,54.2165557 C41.1865699,54.3402826 41.3665301,54.7295163 41.4111919,54.9962407 C41.5400244,54.8592314 41.666464,54.7198975 41.7982792,54.5857881 C41.9893353,54.3913651 42.1555735,54.1496672 42.3851592,54.0219887 C42.6455841,53.8771759 42.9642264,53.8359004 43.2575607,53.7495972 C43.1831391,54.041326 43.1417383,54.3465365 43.028064,54.6222598 C42.6961555,55.4272922 41.5086955,55.6983223 41.7249706,56.9012551 C41.8304985,57.4882326 42.0253942,57.5418718 42.4406831,57.3821383 C44.0634313,56.758025 45.6618845,56.0689604 47.2971641,55.4804224 C48.5151853,55.0420432 49.762788,54.6670551 51.0215421,54.3636821 C52.2472202,54.0682562 53.5053956,53.9079471 54.7463654,53.6729681 C55.7290246,53.4869129 56.7030028,53.1395415 57.6883888,53.1095449 C59.371057,53.0582854 61.0594569,53.206751 62.7459759,53.251967 C62.9828625,53.2583316 63.2227093,53.1553034 63.4611875,53.1029148 C63.2987892,52.96357 63.114288,52.8423558 62.9797462,52.6801427 C62.8224006,52.4904239 62.7086037,52.2649639 62.5759094,52.0550223 C62.7544007,51.9731023 62.9813155,51.7812803 63.1007993,51.8333368 C63.3156944,51.9269455 63.4571031,52.1771 63.6464342,52.3423346 C63.7945649,52.471618 63.9983086,52.6932814 64.1260836,52.6626209 C64.61467,52.5453692 65.0825222,52.3427442 65.7404627,52.1719861 L65.7404627,52.1719861 Z M38.6626732,98.688489 C39.1846139,98.411194 39.7290578,98.1685884 40.2246444,97.8506377 C42.519879,96.3782023 45.1762809,95.7437508 47.644787,94.6747281 C49.0316948,94.0741139 50.4985331,93.658116 51.9075436,93.1040571 C52.165754,93.0025122 52.5296589,92.5869791 52.4852531,92.4015217 C52.2579266,91.4520639 51.9163692,90.5293484 51.6075874,89.5996373 C51.4318228,89.0704057 51.0588252,88.7677187 50.5393441,89.0721545 C49.0705805,89.9329403 47.6138032,90.8181881 46.193552,91.7556141 C44.0334603,93.1813948 42.3005543,95.2743572 39.6343922,95.9050341 C38.5816854,96.1540485 37.5286223,96.5086036 36.4624937,96.5642685 C35.3991584,96.6197673 34.3165138,96.2485647 33.2474581,96.2744214 C32.3243071,96.2967471 31.2706319,96.2820035 30.6645205,97.2330995 C30.5545967,97.4056286 30.6067374,97.6803003 30.5840559,97.9078191 C30.7342789,97.8557072 30.8861824,97.807879 31.0344687,97.7507863 C32.0475331,97.3606561 33.0088464,96.6917254 34.1809815,97.1521425 C34.3516934,97.2191971 34.4951052,97.3549999 34.6511488,97.4590132 C34.463142,97.5968085 34.2843724,97.8379419 34.0856035,97.8555191 C32.8516898,97.9646351 31.8916121,98.4353349 31.101211,99.4528326 C30.3293514,100.446433 30.2389816,100.557607 31.2060154,101.422079 C31.3973831,101.593136 31.6870336,101.681354 31.8255153,101.880548 C32.4757097,102.815904 33.2392113,102.403105 33.7544743,101.892768 C35.1513762,100.50917 36.9338185,99.7647508 38.6626732,98.688489 L38.6626732,98.688489 Z M12.4054282,91.7971552 C12.3196326,92.1242819 12.1601725,92.4526816 12.1658539,92.7782254 C12.1737446,93.2310825 12.1539122,93.8343421 12.4207588,94.0964286 C12.7888373,94.4579238 13.3371042,94.3965698 13.5806684,93.7339261 C13.6351017,93.5858259 13.8888935,93.4828973 14.0719646,93.4174808 C14.2186707,93.365059 14.397301,93.4009993 14.5617638,93.397723 C14.5185657,93.582649 14.5337404,93.8199305 14.4218856,93.9432589 C13.9819454,94.4283481 13.4956463,94.8715199 13.0425067,95.3453633 C12.9548582,95.4370017 12.9388599,95.5964253 12.8898132,95.7245798 C13.0364692,95.7411497 13.2203582,95.8219961 13.3232761,95.7630438 C13.7436789,95.5222093 14.1197371,95.2016132 14.5477022,94.9776253 C15.9290954,94.2545905 17.1892184,93.4124334 17.8757778,91.941138 C18.5496831,90.4969832 19.1984919,89.0404868 19.9067589,87.6131786 C20.4587375,86.5008216 20.4095739,85.9951665 19.5676778,85.1297541 C19.1150169,84.6644447 18.7392535,84.1216096 18.2654637,83.6811496 C17.7793259,83.2291891 17.233207,82.8342773 16.6820297,82.4600196 C16.010634,82.0041409 15.6791152,82.3339795 15.5012583,83.0142999 C15.0596876,84.7033292 14.5926477,86.3857506 14.1458574,88.0734517 C13.8023803,89.3709008 13.1849115,90.5319163 12.4054282,91.7971552 L12.4054282,91.7971552 Z M35.015844,32.1327129 C34.8879575,33.0457544 34.7916781,33.9645186 34.6258853,34.8706974 C34.226144,37.0554753 33.8289737,39.2418249 33.361967,41.4129108 C33.0684325,42.7775142 32.9837499,44.2756071 31.5035009,45.0745185 C31.2222307,45.2263158 30.889866,45.499471 30.8226008,45.7749729 C30.7352582,46.1326273 30.7594421,46.6511775 30.9700971,46.9159759 C31.2998351,47.3304576 31.5857908,47.0720679 31.7717052,46.6268373 C31.8684966,46.3950018 32.1187493,46.2010436 32.3436164,46.0585883 C32.452572,45.9895745 32.6787743,46.0457042 32.8187249,46.1132018 C32.8705874,46.1382171 32.8676604,46.3747458 32.8205613,46.4857989 C32.6457205,46.897945 32.7170146,47.1778301 33.2109317,47.0799599 C33.6458637,46.9937675 34.2105408,46.9049738 34.4440553,46.6058509 C34.8643188,46.0675209 35.2442611,45.396609 35.3486314,44.7354154 C35.6250381,42.9843233 35.6917247,41.2012092 35.9444705,39.4454573 C36.1464668,38.0423455 36.3427873,36.6046439 36.8215574,35.2825778 C37.5514598,33.2669972 38.5169688,31.3352628 39.4003214,29.3759004 C39.5019762,29.1504405 39.7054082,28.9637876 39.8850902,28.7820826 C40.0000333,28.6658493 40.1581025,28.5917882 40.2968511,28.4988326 C40.151603,28.4104483 40.0171168,28.28215 39.8593816,28.2400335 C38.6836518,27.9260674 37.507922,27.6077846 36.3186478,27.3536012 C36.1677461,27.3213358 35.8411352,27.6153446 35.7609822,27.8216336 C35.2462311,29.1463672 34.8889146,30.5082146 35.015844,32.1327129 L35.015844,32.1327129 Z M22.2518916,37.0291869 C21.3401815,39.5853887 20.4103585,42.1355361 19.5410342,44.705917 C19.4390623,45.0074196 19.6048885,45.69064 19.7600583,45.7277869 C20.1310138,45.8165585 20.6685355,45.7515404 20.9626987,45.5237116 C21.8812979,44.8122327 22.2871436,44.8822648 22.677219,45.9759489 C22.7430375,46.1604876 22.7575558,46.3941163 22.8825986,46.5192598 C23.056143,46.6929622 23.3137523,46.8805228 23.5315075,46.8760731 C23.6559441,46.8735163 23.8641116,46.5076488 23.8781177,46.2951725 C23.9679977,44.9317754 24.0064438,43.5651244 24.0782721,42.2004102 C24.1231286,41.3481031 24.1439515,40.4895642 24.2685438,39.6474292 C24.536993,37.8330571 24.8511835,36.0249719 25.1730142,34.2189456 C25.5657496,32.0150297 26.0158174,29.8303514 27.8072688,28.2288871 C27.9012445,28.144864 27.9204423,27.9781129 27.9744639,27.849881 C27.8143804,27.7964521 27.6014552,27.6493923 27.5026271,27.7045369 C26.7578674,28.1201917 26.0725767,27.8364657 25.451018,27.491164 C24.7179549,27.0839326 24.2473982,26.9749271 24.1739616,28.0323056 C24.1553813,28.2997605 23.9555942,28.549915 23.8987737,28.8204248 C23.5827746,30.324838 23.2878377,31.8336234 22.9804138,33.3398297 C22.7415852,34.5099769 22.4950217,35.6785634 22.2518916,37.0291869 L22.2518916,37.0291869 Z M15.0493819,44.7365996 C15.9523666,43.7801131 15.7037943,42.6229276 15.6189225,41.4951407 C15.5220032,40.2072549 15.2793962,38.9112337 15.3553812,37.6337859 C15.4773582,35.5831616 15.8272069,33.5467163 16.0372607,31.4998554 C16.0800917,31.0825403 15.8712454,30.6442941 15.8813451,30.2181128 C15.9089236,29.0545739 16.0323861,27.8919977 16.0231321,26.729787 C16.0208563,26.4437696 15.7125865,26.0017489 15.4475429,25.9100441 C14.9366202,25.7332537 14.3522164,25.6912254 13.8064312,25.7247197 C13.5720655,25.7390979 13.177733,26.0705636 13.1650734,26.2767197 C13.0998281,27.3397984 13.1452634,28.4091091 13.1289589,29.4759069 C13.1234444,29.8363175 12.9864597,30.2014877 13.0188236,30.5545706 C13.1567376,32.0594045 13.4008639,33.5570435 13.4824915,35.063925 C13.5786205,36.8384387 13.1081417,38.5126469 12.2581323,40.0767762 C11.7619948,40.9897292 11.2149576,41.8797698 10.7907876,42.8245122 C10.6476486,43.1433263 10.8120558,43.5987291 10.8359169,43.9917039 C11.3730379,43.8539641 12.0947434,44.4271387 12.4581587,43.5403413 C12.5208778,43.3873044 12.9117434,43.3672698 13.1510229,43.2857925 C13.2063908,43.4597717 13.2974172,43.6310389 13.311123,43.8082058 C13.3799742,44.6988995 14.0050386,45.0782819 15.0493819,44.7365996 L15.0493819,44.7365996 Z M18.2403672,97.2376819 C17.8178554,97.0865488 17.3751608,96.767447 16.976488,96.8148213 C15.6112599,96.9770565 14.2538392,97.2344609 12.9121831,97.5376459 C12.6404951,97.5990222 12.3706158,97.9840608 12.2408763,98.2808481 C12.01779,98.7911519 11.9500239,99.3676916 11.7357242,99.8829653 C11.4612818,100.542886 12.0272444,102.59599 12.6363217,102.897282 C12.7546314,102.955791 12.9185379,102.923139 13.0614154,102.932525 C13.067492,102.829475 13.0830618,102.725981 13.0781428,102.62344 C13.0384223,101.795828 12.937413,100.965426 12.9811623,100.142462 C12.9982903,99.8202718 13.3022473,99.4828289 13.54693,99.2173774 C13.6493971,99.1061805 13.9383131,99.1477991 14.1399477,99.1601962 C14.1758842,99.16241 14.2388648,99.3685992 14.2224824,99.4699227 C14.1131762,100.146048 13.9920174,100.820447 13.8627621,101.493141 C13.6381122,102.66227 13.8262246,103.119056 14.9899182,103.405383 C16.2444433,103.714025 17.5432185,103.851964 18.8273083,104.031699 C19.5250526,104.129392 20.2315444,104.193502 20.9356268,104.21077 C21.7590873,104.230937 21.9681007,103.899471 21.7093951,103.163707 C21.4402115,102.398191 21.2422885,101.606529 20.9479637,100.851484 C20.6747289,100.150564 20.4090342,99.4139702 19.9674078,98.8200415 C19.5355977,98.2393401 18.8856981,97.8190585 18.2403672,97.2376819 L18.2403672,97.2376819 Z M55.8939938,90.4370235 C56.6860419,91.0493042 57.093863,90.9339344 57.4764986,89.9754886 C57.862651,89.0082101 58.3019901,88.0358068 59.1843746,87.3208301 C60.8421468,85.9776447 62.165128,84.3226739 63.2693633,82.508512 C63.8665378,81.5273864 64.3726972,80.4909612 64.9055892,79.47208 C65.0172936,79.2585301 65.0661623,79.01246 65.1439782,78.7813771 C64.8116581,78.8424325 64.4562447,78.851376 64.1552646,78.9832273 C63.9611033,79.0682909 63.8467723,79.3335985 63.6966607,79.5181372 C63.6181659,79.2487009 63.5713339,78.9645765 63.4534192,78.7134479 C63.2951943,78.3764147 63.1533851,77.9672793 62.8751423,77.7661487 C62.491427,77.4887651 62.0172198,77.5685156 61.6834641,77.9716073 C60.7529233,79.0954538 59.7933461,80.1979263 58.9113957,81.3585544 C57.7200849,82.9263031 56.7165695,84.6320685 55.0794423,85.8401925 C54.3517992,86.3771502 54.0685927,87.2378695 54.1712379,88.1636734 C54.1882657,88.3173302 54.3005489,88.5294191 54.4246736,88.5807006 C54.5240247,88.6217327 54.726188,88.4821774 54.8514256,88.3834993 C55.2430426,88.0748907 55.599235,87.7163507 56.0145795,87.4462503 C56.1431226,87.3626811 56.5036221,87.4330342 56.5990555,87.5554328 C56.6898815,87.6719207 56.6460879,88.0078692 56.5341829,88.1432514 C56.2081842,88.5376543 55.8370675,88.9011529 55.4495907,89.2380312 C54.7836595,89.8169616 55.0348806,90.1651301 55.8939938,90.4370235 L55.8939938,90.4370235 Z M41.3066324,13.7255977 C40.6684354,14.7296911 39.8006301,15.6588819 39.43963,16.7534181 C38.6775308,19.0641145 38.348939,21.5103923 37.162692,23.6968638 C37.0156297,23.9679382 37.1749897,24.5359437 37.3816158,24.838542 C37.9211407,25.6287091 38.8107258,25.4951309 39.6329121,25.5211647 C40.1410747,25.5372698 40.2936459,25.3434555 40.3158933,24.8450171 C40.3974264,23.0191113 41.0857831,21.3884255 42.0628443,19.86804 C42.7384469,18.8167274 43.5204563,17.8222196 44.0921671,16.7189169 C44.602066,15.7348469 44.8347012,14.6117974 45.2994374,13.599956 C45.4951901,13.1737527 45.7007255,12.7482466 45.311546,12.4993873 C44.9066074,12.2404442 44.2477098,11.9907989 43.8721191,12.1469462 C42.9925727,12.5125924 42.2160388,13.1233787 41.3066324,13.7255977 L41.3066324,13.7255977 Z M4.83822898,99.3232171 C4.98495176,99.4087014 5.13316027,99.4917726 5.27814679,99.5800682 C5.92412894,99.9734859 6.50898895,100.950416 7.3188716,99.7757975 C7.37671049,99.6919404 7.70058911,99.667257 7.71151249,99.6933793 C7.78518815,99.8694393 7.82518688,100.065091 7.84238155,100.2574 C7.86304856,100.488516 7.85020548,100.722577 7.85185823,100.955375 C8.04997593,100.786908 8.28301741,100.645649 8.44058006,100.445591 C9.51225114,99.0848952 9.28223125,97.4758157 9.31774491,95.9081555 C9.33508983,95.142528 8.99184083,94.6670133 8.40558407,94.2375002 C6.98228902,93.1947658 5.34019249,92.7179118 3.68146891,92.2117475 C2.9742926,91.9959506 2.47263506,92.1498288 2.28973107,92.6586274 C1.96899657,93.5508484 1.61219208,94.5614612 1.7419204,95.4547562 C1.99561777,97.2016088 3.04405647,98.5242616 4.83822898,99.3232171 L4.83822898,99.3232171 Z M24.8046799,18.5313962 C24.6223378,19.3607911 24.4525329,20.1931411 24.2549604,21.0189274 C23.8809279,22.5823041 23.9474419,23.8087691 25.575638,24.8785556 C26.5332563,25.5077603 27.0910278,25.3933756 27.8206573,24.9479347 C28.1073139,24.7729264 28.3824631,24.3755791 28.4259229,24.0483639 C28.5574932,23.0575863 28.5118074,22.0433652 28.6457371,21.0530858 C28.9994144,18.4381307 29.3414836,15.8242273 29.361149,13.1806707 C29.3690286,12.1228717 28.7118005,11.6838728 27.836383,12.3120261 C27.2405495,12.7395577 26.7856572,13.4672082 26.4699641,14.1527641 C25.8411713,15.5182973 25.3517003,16.9472768 24.8046799,18.5313962 L24.8046799,18.5313962 Z M23.7106278,98.688489 C24.1364839,98.3253998 24.5209947,97.8840765 25.0050345,97.6311107 C25.2601509,97.497776 25.6889896,97.6932618 26.0393948,97.7402821 C25.8561402,98.0106258 25.7076813,98.3163345 25.4781566,98.5396472 C25.3075394,98.7056346 25.0151345,98.7394165 24.8057037,98.8757285 C23.5705047,99.6796984 23.4621333,100.037685 23.8884625,101.413113 C24.1218655,102.166145 24.6148367,102.881099 24.2808528,103.74836 C24.2444267,103.842954 24.5311056,104.200476 24.663633,104.198107 C26.1273161,104.171985 27.591806,104.122264 29.0520113,104.021029 C29.3963731,103.99712 29.7255548,103.756551 30.0617146,103.615668 C29.8890328,103.363012 29.7259667,103.103161 29.5417439,102.859139 C29.1230828,102.304549 28.3804041,101.782324 28.3345403,101.202696 C28.2394741,100.001025 28.3794692,98.7370034 28.6792251,97.5633919 C28.8890453,96.7418782 28.8355469,95.9580535 28.2246388,95.6545807 C27.6087113,95.3486175 26.5993474,95.2781759 26.014009,95.5828218 C25.0454393,96.0869272 24.271237,96.966342 23.432919,97.7075074 C23.2447452,97.8738933 23.0352255,98.1084628 23.0016319,98.3359042 C22.938206,98.7652731 23.0059222,99.1974205 23.7106278,98.688489 L23.7106278,98.688489 Z M16.4169471,22.7024667 C16.2205598,20.2042874 16.6252035,17.7826265 17.3167655,15.3897224 C17.4595262,14.8957228 17.5352999,14.35022 17.486804,13.8431261 C17.4393544,13.3469238 15.8152596,13.0537338 15.4536694,13.545719 C14.4970193,14.8473632 13.4665878,16.1522064 12.8342669,17.6136062 C12.3824574,18.6578018 12.5295641,19.9574868 12.4045825,21.1426764 C12.310579,22.0340562 12.8410168,22.55751 13.5186116,22.9681064 C13.9730699,23.2434866 14.4605099,23.4668213 14.9407991,23.6978047 C15.6252049,24.0269458 16.2206544,23.6935099 16.4169471,22.7024667 L16.4169471,22.7024667 Z M7.1175042,83.0923126 C6.94698706,82.4995685 6.84334003,81.8753888 6.58196916,81.3253479 C6.41344958,80.9707264 6.03668484,80.6954015 5.70906127,80.4407644 C5.49570744,80.2749208 5.20028656,80.1261897 4.94691741,80.1342476 C4.81365001,80.1384981 4.617452,80.4820509 4.57674105,80.696276 C4.31023397,82.0985354 4.04031016,83.5022006 3.84860835,84.9157502 C3.71839591,85.8758782 3.66273291,86.8532295 3.66948831,87.8222125 C3.67470238,88.57013 3.67807443,89.3783391 3.95411946,90.0490739 C4.31046208,90.9149292 6.07215382,91.0279525 6.8244649,89.6904897 C7.24148419,88.949114 7.35578182,88.0455363 7.67273254,87.2408803 C8.23950186,85.80195 7.22816812,84.6047839 7.1175042,83.0923126 L7.1175042,83.0923126 Z M65.2846188,68.9469433 C65.8316449,67.6317398 66.290093,66.2710989 66.9437598,65.0106085 C68.3875048,62.2266223 68.864817,59.3153118 68.3746171,56.2388218 C68.3141184,55.8591184 68.1504068,55.4858792 67.9810971,55.1351538 C67.6170919,54.3810711 67.0025335,54.9056538 66.5071139,54.9032075 C65.2084722,54.8967766 64.8251133,55.2094475 64.9445639,56.4924408 C65.1205845,58.3830659 65.4695205,60.257453 65.7312366,62.1406398 C65.8430969,62.9454731 66.1388128,63.8045763 65.9670437,64.55173 C65.643471,65.9591808 65.0144,67.2947841 64.573614,68.6795548 C64.4584705,69.0413047 64.5690509,69.4741272 64.5759622,69.8743079 C64.8121699,69.6256366 65.0483889,69.3769654 65.2846188,68.9469433 L65.2846188,68.9469433 Z M24.4399958,89.4395937 C23.976022,89.0990406 23.5163385,88.7524992 23.0467889,88.4197274 C22.643119,88.133677 22.2237067,88.1037692 22.0832163,88.6506333 C21.7946065,89.7740812 21.6625409,90.9423797 21.308797,92.0421849 C21.1140457,92.6476804 20.6159719,93.1632198 20.2233199,93.6964915 C20.0235161,93.9678427 19.5675276,94.1901812 19.5693749,94.4321004 C19.5712169,94.6737873 19.9950197,94.9174775 20.2436197,95.149955 C20.36967,95.2678155 20.5132264,95.4461667 20.6558647,95.4530072 C21.1284526,95.4756208 21.630611,95.5236813 22.0734114,95.3965565 C23.0744895,95.1091445 23.6295065,93.8734481 24.8800807,94.0521315 C24.9542127,94.0627352 25.0558452,93.9045071 25.1401161,93.8203289 C26.5238354,92.4378826 26.2567941,90.5586585 24.4399958,89.4395937 L24.4399958,89.4395937 Z M10.2173185,83.4550143 C10.2173185,84.1900478 10.2401669,84.9259556 10.2117038,85.6599042 C10.1736027,86.6425351 10.1103827,87.6248451 10.0298793,88.6050189 C9.97540151,89.2682601 9.86900567,89.9271735 9.79321521,90.5888541 C9.76527513,90.8328322 9.7585086,91.0792231 9.74208742,91.3245073 C9.90049577,91.1308369 10.1339658,90.9611414 10.205438,90.7397216 C10.7737822,88.978889 11.3016157,87.2051835 11.8619913,85.4417387 C12.2093416,84.3486524 12.4712356,83.2060334 12.9857364,82.1933063 C13.8313108,80.528894 13.7522539,79.4878752 11.7002997,78.9560646 C11.4090188,78.8805644 11.0874996,78.9237769 10.7805042,78.9039639 C10.4861238,78.8849698 10.1928507,78.8456203 9.89832007,78.8331459 C9.55291761,78.8185018 9.04891169,78.6831638 8.89734773,78.8520292 C8.66363285,79.1124112 8.47898166,79.6813354 8.61357341,79.9522769 C8.96586511,80.6614426 9.38840463,81.4263063 9.99645253,81.8949252 C10.639986,82.3908731 10.7139735,82.7644001 10.2173185,83.4550143 L10.2173185,83.4550143 Z M34.0129517,3.56994791 C34.6485446,2.90553339 34.0695775,2.51491065 33.6497033,2.13698936 C33.2771286,1.80162732 32.8239558,1.47196042 32.4057956,2.09258142 C31.9780642,2.7274256 31.5825298,3.38384853 31.1772239,4.03349185 C30.1873418,5.62008525 29.1859299,7.19983248 28.21992,8.80071017 C27.9200862,9.29759873 27.9659277,9.69065121 28.7073266,9.75227098 C29.0283949,9.77894678 29.3650109,9.93804955 29.6415956,10.1176736 C30.5145092,10.6845944 31.1503245,10.4343957 31.3700052,9.40926064 C31.6657211,8.02923841 31.9406365,6.64844127 32.8165994,5.46899639 C33.2362953,4.90389088 33.5565179,4.2657093 34.0129517,3.56994791 L34.0129517,3.56994791 Z M18.6050568,9.2825009 C18.8831106,8.1596618 19.1593169,7.03635771 19.4398136,5.91411634 C19.644876,5.0936929 19.9369248,4.28416103 20.0350627,3.45168356 C20.1000131,2.90072958 19.8287927,2.29935716 19.1216888,2.32001702 C18.4695912,2.33908298 18.5238354,2.92422849 18.4000611,3.40490138 C18.2276965,4.07425826 17.9405113,4.72494198 17.6249073,5.34452802 C17.2419211,6.09638033 16.7088901,6.77682809 16.3654074,7.54340754 C15.8400111,8.71597868 15.9436357,9.83223185 16.9749689,10.7468341 C17.4774721,11.1924522 18.1911646,11.0776467 18.4129656,10.4716974 C18.5290384,10.154599 18.5442743,9.80097366 18.6050568,9.2825009 L18.6050568,9.2825009 Z M46.4122089,7.74101835 C45.9410176,8.27010612 45.4356708,8.77477608 45.0231309,9.34579218 C44.9226668,9.48484932 45.1508503,10.0687718 45.1878663,10.064931 C45.8762565,9.99374748 46.4283241,10.236021 46.9833743,10.6152705 C47.1244713,10.7116687 47.5710555,10.5448068 47.7522625,10.3704071 C48.2831844,9.8593837 48.7825437,9.30783744 49.2354162,8.72680388 C49.7459272,8.07183102 50.4158315,7.66082517 51.2686232,7.54514524 C51.3957417,7.52788898 51.511119,7.32655903 51.6056287,7.19210657 C51.7680159,6.96107896 51.8692256,6.673667 52.067794,6.48425252 C52.6273739,5.95047175 52.3202283,5.65935733 51.7882489,5.48916931 C51.4613489,5.38459133 51.0614739,5.31106152 50.745269,5.40086812 C49.1751401,5.84678492 47.5219865,6.1668609 46.4122089,7.74101835 L46.4122089,7.74101835 Z M63.4611875,72.2112592 C63.5898975,72.0832489 63.7143563,71.9506339 63.8483193,71.8283127 C64.0628359,71.6324175 64.2836631,71.4433405 64.5018413,71.251408 C64.1630106,71.1179849 63.8318257,70.912017 63.4828005,70.8757003 C63.2347289,70.8498879 62.8433013,70.9767582 62.7211575,71.1663223 C62.0808236,72.1601547 61.4985512,73.1915547 60.9150991,74.2205638 C60.8073678,74.4105595 60.7320559,74.6522794 60.7429959,74.8649661 C60.752122,75.0421994 60.9096569,75.2118727 61.0014511,75.3848887 C61.1527759,75.2710575 61.343576,75.1853299 61.4490038,75.0388344 C62.1000328,74.1341389 62.7318306,73.2157622 63.4611875,72.2112592 L63.4611875,72.2112592 Z M64.1905556,67.3147853 C64.432072,66.0641349 65.0978028,64.8732893 64.73461,63.5382061 C64.6891025,63.3708905 64.6030398,63.2144886 64.5357522,63.0530394 C64.4206867,63.2324643 64.2246444,63.4041302 64.2063592,63.5928307 C64.1591822,64.0799123 64.2379775,64.5804536 64.1770112,65.0644692 C64.1178925,65.5337634 63.8853687,65.9842626 63.8478184,66.4524387 C63.8230336,66.7614902 64.0082136,67.0872113 64.1905556,67.3147853 L64.1905556,67.3147853 Z M67.3815409,73.2086891 C67.351158,73.4654517 67.294955,73.7240184 67.312762,73.977427 C67.3162008,74.0264065 67.7362975,74.1136284 67.7496416,74.0848274 C68.0403271,73.4577146 68.3046473,72.8182379 68.5599083,72.1755846 C68.5828347,72.1178942 68.5301153,71.9852126 68.4749809,71.954851 C68.4198465,71.9245116 68.2784935,71.9508441 68.2421786,72.0007312 C67.9762113,72.3663329 67.7271158,72.7440883 67.3815409,73.2086891 Z" id="Shape"></path>
                <path d="M28.9985904,57.2126432 C28.5884229,58.3426529 28.1962807,59.3872501 27.7540242,60.4146262 C27.6565363,60.6410844 27.3813471,60.8064857 27.1879926,61 C27.1243212,60.7305449 26.9495929,60.4375281 27.0140404,60.1952577 C27.7224483,57.5320173 28.4707814,54.8772534 29.1975342,52.2178488 C29.2447509,52.0450444 29.1629727,51.8433556 29.2136194,51.6722176 C29.2824917,51.4395085 29.4212005,51.2232823 29.5299667,51 C29.6946747,51.2442273 29.985586,51.4837691 29.9972274,51.7336993 C30.0200723,52.223809 29.8965602,52.7208965 29.8171479,53.2129742 C29.617528,54.4500346 29.4116745,55.6863234 29.1964952,56.9212814 C29.1836144,56.995243 29.0669495,57.0547789 28.9985904,57.2126432 Z" id="Path"></path>
                <path d="M23.3578634,70.7150939 C23.4323219,70.4866952 23.4844156,70.3375741 23.5878662,70.2282573 C23.6812685,70.129555 23.830811,70.0743716 23.955597,70 C23.9698878,70.1223962 24.0174851,70.2505004 23.9932238,70.3662921 C23.7888897,71.3418053 23.5706756,72.3149595 23.3596033,73.2893405 C23.3462836,73.350857 23.35787,73.4167962 23.35787,73.4806714 C22.6663825,73.1362687 22.3070125,73.4931966 22.018621,74 C22.0191295,73.8560212 21.9707829,73.693361 22.0279137,73.5710357 C22.4595786,72.6468021 22.9119533,71.7304937 23.3578634,70.7150939 Z" id="Path"></path>
                <path d="M13.933752,48.0552053 C13.9745416,49.3702943 14.0513757,50.6495592 13.9492223,51.9130236 C13.873155,52.8538425 13.5722817,53.7760005 13.3520963,54.7014244 C13.3246459,54.8167917 13.1780332,54.9012239 13.08663,55 C13.0562819,54.8736692 12.9907455,54.7441035 13.0010972,54.6215276 C13.0929436,53.5333974 13.2405172,52.4484397 13.2863509,51.3586345 C13.323909,50.4654668 13.2334319,49.5670667 13.2263963,48.6707471 C13.2247333,48.4580078 13.2831742,48.2058871 13.4039796,48.0461662 C13.4718212,47.9564708 13.7238934,48.0187779 13.933752,48.0552053 Z" id="Path"></path>
                <path d="M12.5404961,56.050651 C12.6407232,56.0038359 12.7444938,55.9911835 12.7478367,56.0056761 C12.8435275,56.420417 13.0521357,56.8617197 12.987951,57.2493956 C12.8881886,57.8519452 12.601734,58.4183092 12.3944039,59 C12.2556362,58.8179287 11.9777896,58.6106442 12.0014165,58.4580151 C12.124431,57.6634962 12.3241883,56.8829099 12.5404961,56.050651 Z" id="Path"></path>
                <path d="M30.2046579,77.0651135 C30.4873098,75.9993179 30.7097298,74.9973138 31.0695786,74.0532545 C31.4287237,73.1110571 31.9054031,72.215024 32.3791429,71.3274507 C32.4730359,71.1515256 32.7873306,71.105775 33,71 C32.9726943,71.2295585 33.0028466,71.4897659 32.9092124,71.6839281 C31.9650761,73.6417611 31.3413829,75.7155274 30.8893385,77.8478592 C30.6283925,79.0787139 30.4532553,80.3296785 30.1928165,81.5606746 C30.0978056,82.0097527 29.8700031,82.4282472 29.6978055,82.8584894 C29.6471379,82.9850819 29.541093,83.216502 29.5249663,83.2104265 C28.8748162,82.9652987 28.6836559,83.408922 28.5105579,83.9161192 C28.4916779,83.9714402 28.2923921,84.0258246 28.2391781,83.9867157 C28.1359901,83.9108822 28.0771969,83.7682084 28,83.6532224 C28.3118207,83.4230435 28.0742883,82.591477 28.8318186,82.8219499 C28.9144706,82.8471007 29.1499845,82.6349737 29.1739985,82.5043092 C29.3670324,81.4534843 29.5075251,80.3919458 29.702298,79.3415236 C29.838671,78.6060746 30.0350688,77.8829396 30.2046579,77.0651135 Z" id="Path"></path>
                <path d="M15.241629,66.5 C15.3312695,66.021576 15.3979208,65.613261 15.523532,65.2388408 C15.5652429,65.1144817 15.7583915,65.0771282 15.8823118,65 C15.9234632,65.1565348 16.0147556,65.3230083 15.9979616,65.4680482 C15.8413355,66.8205973 15.6729095,68.171041 15.488055,69.5174358 C15.4641097,69.6918538 15.3275345,69.839793 15.2431331,70 C15.1577289,69.8411153 14.9924046,69.6750793 15.000271,69.524526 C15.0418809,68.728058 15.1273551,67.9355165 15.1969214,67.1415202 C15.2132063,66.955658 15.2267977,66.7694092 15.241629,66.5 Z" id="Path"></path>
                <path d="M47.0268405,52.5179927 C48.2477252,52.3205265 49.4250514,52.14646 50.6086776,52.0007792 C50.7187175,51.9872372 50.8686095,52.153585 51,52.236405 C50.8694774,52.3198719 50.7551696,52.4506635 50.6058085,52.4791025 C49.6530446,52.6605299 48.6974728,52.8384557 47.7322212,52.9762885 C47.3467598,53.0313318 46.882891,53.0306391 47.0268405,52.5179927 Z" id="Path"></path>
                <path d="M50,90.0755174 C49.670354,90.6250905 49.3282547,91.1669384 48.9233101,91.604291 C48.4555201,92.1095655 47.9395673,92.5384034 47.42716,92.9627665 C47.3249417,93.0474022 47.1444196,92.9622402 47,92.9553702 C47.0260358,92.8333717 47.0222447,92.6590728 47.0826055,92.5972707 C47.9300114,91.7297377 48.7835456,90.8727597 49.6450547,90.030574 C49.7145784,89.9625997 49.8532428,90.0216117 50,90.0755174 Z" id="Path"></path>
                <path d="M34.4180926,100.430394 C34.1619702,100.589263 33.9722752,100.724326 33.7557799,100.805979 C33.5166579,100.896183 33.2529889,100.937437 33,101 C33.0696805,100.717647 33.0283068,100.307395 33.2293219,100.176283 C33.9048079,99.7356624 34.6576546,99.3802305 35.4031146,99.0274566 C35.5517427,98.9571167 35.7984914,99.0425253 36,99.0561148 C35.9453995,99.230757 35.9556529,99.4736242 35.824225,99.5674337 C35.4018614,99.8689463 34.9271904,100.115384 34.4180926,100.430394 Z" id="Path"></path>
                <path d="M36.4224647,99 C36.1975262,98.7939899 35.9499934,98.4339892 36.008776,98.4068942 C36.3979805,98.22765 36.8402968,98.0830303 37.2921658,98.0054076 C37.4963419,97.9703405 37.7621506,98.1148983 38,98.1779553 C37.9489524,98.2564936 37.9281902,98.366077 37.8417101,98.4083344 C37.4179167,98.6153835 36.9766616,98.8045234 36.4224647,99 Z" id="Path"></path>
                <path d="M17.5917419,89 C17.3475128,88.868292 16.9567967,88.6217682 17.0038964,88.5202638 C17.3790638,87.7117282 17.8212758,86.9238166 18.2887096,86.1492979 C18.3524517,86.0436663 18.6692776,86.0470728 18.8689183,86 C18.9128603,86.1382884 19.0397322,86.3062221 18.9876652,86.4101912 C18.559963,87.2643114 18.0989826,88.1065385 17.5917419,89 Z" id="Path"></path>
                <path d="M37.5945575,30.5398256 C37.3152803,31.2644038 37.107936,31.94406 36.8563412,32.610498 C36.7984946,32.7636893 36.5885731,32.8713758 36.4486347,33 C36.2906683,32.7948591 35.9640449,32.558706 36.0032365,32.3897964 C36.1977761,31.5512201 36.458562,30.7214435 36.7622214,29.9081503 C36.8677958,29.625376 37.1328638,29.3699602 37.3847042,29.1582285 C37.5204155,29.0441452 37.7821969,29.0488669 37.9871002,29 C37.9865818,29.1757311 38.0218188,29.358927 37.9779636,29.5256276 C37.8921077,29.8519887 37.7621375,30.1691495 37.5945575,30.5398256 Z" id="Path"></path>
                <path d="M22,42.3833537 C22.1444866,41.9822621 22.2712651,41.6474696 22.4413659,41.3403736 C22.5196986,41.1989539 22.682859,41.1117806 22.8075607,41 C22.8755093,41.1507149 23.0208425,41.3172347 22.9974861,41.4493116 C22.9141355,41.9206724 22.8077326,42.3961834 22.6321422,42.8340678 C22.5840005,42.9541109 22.2636501,42.9481415 22.0682132,43 C22.045474,42.8203285 22.0227392,42.6406474 22,42.3833537 Z" id="Path"></path>
                <path d="M14.2409678,31.4444444 C14.4416628,30.6072681 14.4440779,29.8922413 14.0735525,29.1764007 C13.9607463,28.95846 13.9924688,28.6128993 14.0698624,28.3601685 C14.2128,27.8933739 14.4383957,27.4519767 14.6295492,27 C14.746548,27.4286478 14.9431071,27.8533394 14.9645657,28.2867343 C15.0146437,29.2981433 15.0110267,30.3153619 14.9576142,31.3264206 C14.9453415,31.558795 14.6449028,31.7758767 14.4770813,32 C14.3983787,31.8456828 14.3196759,31.6913543 14.2409678,31.4444444 Z" id="Path"></path>
                <path d="M60.3433977,82.9585665 C60.8220485,82.4794225 61.2383443,82.0277082 61.6931057,81.6088209 C61.9365956,81.3845488 62.2362503,81.2031065 62.5323855,81.0320382 C62.6187657,80.9821453 62.8464125,80.9924489 62.8928561,81.0495854 C62.9726275,81.1476856 63.0371892,81.3547917 62.9753321,81.4283316 C62.4997595,81.993697 62.012078,82.5533037 61.4891222,83.0845077 C60.9285045,83.6539964 60.3331108,84.1973299 59.7348764,84.7363494 C59.6002418,84.8576854 59.3909057,84.9138387 59.2159495,85 C59.1436812,84.771153 58.9274418,84.4546599 59.0247313,84.3290099 C59.393814,83.8524042 59.8644074,83.4375801 60.3433977,82.9585665 Z" id="Path"></path>
                <path d="M40.3225892,16.0372533 C40.7741939,15.4504855 41.1611856,14.8920261 41.5973351,14.3687344 C41.7445537,14.1921064 42.0104181,14.0131579 42.2327748,14.0007851 C42.4821867,13.9869029 42.7437413,14.1605122 43,14.2525431 C42.8779086,14.440897 42.7871157,14.6566967 42.6279871,14.8125733 C42.099671,15.3300639 41.5616274,15.8409111 40.9972709,16.3241686 C40.6967734,16.5814815 40.3344326,16.7767353 40,17 C40.0924104,16.6931035 40.18481,16.386207 40.3225892,16.0372533 Z" id="Path"></path>
                <path d="M7.84565686,96 C7.9030818,96.528473 7.99911085,96.9735413 7.99999942,97.4187827 C8.0003884,97.6123353 7.80518637,97.8062542 7.69882164,98 C7.51807183,97.8181255 7.22302393,97.659017 7.17855282,97.4500022 C7.05725213,96.879893 7.00968447,96.2892152 7.00006371,95.7056478 C6.99621021,95.4718323 7.16809622,95.2353008 7.25998253,95 C7.39778047,95.1908773 7.5414299,95.3781332 7.67105812,95.5740763 C7.74155782,95.680654 7.78823174,95.8019918 7.84565686,96 Z" id="Path"></path>
                <path d="M26.0983453,20.5787162 C26.1710339,21.535535 26.2709956,22.3964125 26.2990541,23.2590577 C26.3069937,23.5033596 26.1050137,23.7528719 25.9993019,24 C25.7415444,23.8192365 25.3060654,23.668317 25.2585205,23.4522428 C25.1000192,22.7319451 24.9097991,21.9627636 25.0473961,21.2594698 C25.2617616,20.1638044 25.7164876,19.1016237 26.108561,18.0362676 C26.2419721,17.6737286 26.4937597,17.3444649 26.6914603,17 C26.7845272,17.3785311 26.8946517,17.7546082 26.9669141,18.1361517 C27.0952937,18.8139976 26.8425942,19.3885983 26.3386993,19.9082907 C26.1970158,20.0544298 26.1751601,20.2892758 26.0983453,20.5787162 Z" id="Path"></path>
                <path d="M13,21.2001809 C13.1657822,19.9959701 13.1634256,18.8026299 13.4542261,17.7004609 C13.6216586,17.0658336 14.2582076,16.5737942 14.6990224,16.0323637 C14.7467294,15.9737682 14.8972016,16.0137986 15,16.0080816 C14.9805176,16.1196877 14.989017,16.2502543 14.937397,16.3400951 C14.0979776,17.8009685 13.8183255,19.3864758 13.918817,21.0957541 C13.9356944,21.3828231 13.5488067,21.6978775 13.3484804,22 C13.2172476,21.7497613 13.0860204,21.4995107 13,21.2001809 Z" id="Path"></path>
                <path d="M7,86.2765778 C6.93262113,86.6387186 6.89356211,86.9070959 6.79074518,87.1440482 C6.66111993,87.4427728 6.47944456,87.7158443 6.3202412,88 C6.20994788,87.6637228 6.02965447,87.3325475 6.00768212,86.9898273 C5.98223696,86.5928559 6.01572588,86.1447494 6.17293684,85.7951 C6.31597868,85.4769679 6.65904729,85.2610011 6.91393683,85 C6.94262657,85.3896214 6.97131632,85.7792428 7,86.2765778 Z" id="Path"></path>
                <path d="M67,58.2376663 C66.7720945,58.5602791 66.544189,58.7801333 66.3162985,59 C66.217546,58.729331 66.05569,58.4622872 66.0333046,58.1872405 C65.9884892,57.6365952 65.9877415,57.0795022 66.0381345,56.5295342 C66.0549572,56.3460068 66.2832964,56.1761141 66.4149314,56 C66.5282936,56.1639341 66.7060602,56.3183101 66.7430251,56.4935838 C66.8574638,57.0364146 66.9183392,57.5872103 67,58.2376663 Z" id="Path"></path>
                <path d="M10.756645,80.7739102 C10.9492673,80.7539864 11.0963113,80.779336 11.243355,80.8046854 C11.1699999,80.9475335 11.0966505,81.0903925 11.0233065,81.2332516 C10.9192322,81.0952216 10.8151521,80.9572026 10.756645,80.7739102 Z" id="Path"></path>
                <path d="M30.9554854,6 C30.9859501,6.25134484 31.0246037,6.47991368 30.9791893,6.65277697 C30.792511,7.36334439 30.5853942,8.06095258 30.3721934,8.75276052 C30.3382478,8.86289535 30.2347451,8.91894929 30.163403,9 C30.1126334,8.87314935 30.0388071,8.75530026 30.0174089,8.61699077 C29.9949099,8.47154594 29.9883573,8.27309497 30.0338908,8.155494 C30.3218106,7.41195581 30.6261229,6.68442465 30.9554854,6 Z" id="Path"></path>
                <path d="M17,9 C17.3725442,9.14810729 17.686272,9.35503812 18,9.56195435 C17.7696031,9.70797929 17.5392061,9.85398965 17.3088019,10 C17.1862576,9.68627929 17.0637134,9.37254424 17,9 Z" id="Path"></path>
                <path d="M47.0039856,8.51764116 C47.5575914,7.98636476 48.0667537,7.48461514 48.6008946,7.01433192 C48.663404,6.95929911 48.86362,7.07783492 49,7.11590822 C48.954934,7.24122195 48.9425711,7.40310705 48.8593335,7.48573688 C48.4241229,7.91779479 47.9716586,8.3306307 47.5236699,8.74834341 C47.2370761,9.01555971 46.963576,9.2290361 47.0039856,8.51764116 Z" id="Path"></path>
            </g>
        </g>
    </g>
</svg>