<?xml version="1.0" encoding="UTF-8"?>
<svg width="171px" height="177px" viewBox="0 0 171 177" version="1.1" xmlns="http://www.w3.org/2000/svg" xmlns:xlink="http://www.w3.org/1999/xlink">
    <!-- Generator: Sketch 53 (72520) - https://sketchapp.com -->
    <title>edgy</title>
    <desc>Created with Sketch.</desc>
    <g id="Welcome" stroke="none" stroke-width="1" fill="none" fill-rule="evenodd">
        <g id="HOME" transform="translate(-649.000000, -7064.000000)" fill="#FFFFFF" fill-rule="nonzero">
            <g id="edgy" transform="translate(649.000000, 7064.000000)">
                <path d="M50.9994728,134.82 C46.7319859,139.47 42.6448155,144.15 38.2871705,148.59 C34.8611599,152.1 31.3750439,155.67 27.0474517,158.1 C23.7717047,159.93 20.3757469,161.55 16.8896309,162.99 C15.6274165,163.53 14.0045694,163.23 12.5620387,163.41 C10.7288225,163.65 8.89560633,163.83 7.15254833,164.31 C6.01054482,164.64 5.04885764,165.48 3.9970123,166.11 C3.57627417,166.35 3.15553603,166.74 2.70474517,166.8 C2.13374341,166.89 1.53268893,166.68 0.96168717,166.62 C1.05184534,166.02 0.931634446,165.27 1.26221441,164.88 C3.96695958,161.55 5.13901582,157.53 6.58154657,153.6 C7.4831283,151.14 8.20439367,148.56 9.25623902,146.16 C10.6386643,143.07 12.0210896,139.92 13.8843585,137.1 C16.6191564,132.96 19.7746924,129.09 22.7499121,125.13 C23.8919156,123.63 24.9137083,122.01 26.1759227,120.63 C27.5282953,119.13 29.1511424,117.84 30.5936731,116.4 C30.713884,116.31 30.5936731,115.8 30.4133568,115.62 C29.2713533,114.33 27.9490334,113.22 26.9873462,111.81 C25.9956063,110.34 25.1841828,108.69 24.5831283,107.04 C23.7717047,104.82 23.1706503,102.51 22.5395431,100.23 C22.2690685,99.21 22.0586995,98.19 21.9685413,97.14 C21.7281195,94.92 21.5177504,92.67 21.3975395,90.45 C21.2472759,87.69 21.0068541,84.93 21.127065,82.17 C21.3073814,78.81 21.7281195,75.45 22.9602812,72.24 C23.8919156,69.84 24.7634446,67.35 25.3644991,64.86 C25.7852373,63.15 27.1075571,62.28 28.0391916,61.02 C29.5418278,58.98 30.8340949,56.73 32.6072056,54.99 C33.9295255,53.67 35.8829525,53.01 37.5659051,52.02 C40.0903339,50.55 42.7650264,49.26 45.0790861,47.49 C46.5516696,46.35 47.5434095,44.52 48.6253076,42.93 C49.9776801,40.92 51.1497364,38.73 52.5622144,36.75 C53.9446397,34.77 56.198594,33.96 58.3623902,33.27 C60.4360281,32.64 62.6599297,32.46 64.8237258,32.04 C67.0175747,31.62 69.1513181,30.93 71.3752197,30.72 C74.2001757,30.48 77.0852373,30.69 79.940246,30.57 C82.1040422,30.48 84.2377856,30.72 86.2212654,31.5 C89.0161687,32.58 91.6908612,33.96 94.4557118,35.01 C96.7697715,35.88 98.4827768,37.53 100.28594,39.09 C100.556415,39.33 101.127417,39.21 101.548155,39.27 C101.397891,38.94 101.367838,38.49 101.127417,38.28 C97.8516696,35.61 94.5158172,32.97 91.270123,30.27 C89.8876977,29.1 88.6855888,27.72 87.3332162,26.52 C86.6420035,25.89 87.1228471,25.44 87.4534271,25.02 C89.6172232,22.14 91.8411248,19.32 93.9748682,16.44 C94.8163445,15.3 95.7780316,15.39 96.7697715,15.99 C100.135677,18.03 103.501582,20.1 106.777329,22.23 C107.949385,22.98 109.00123,23.94 110.023023,24.9 C111.285237,26.07 112.276977,26.07 113.449033,24.84 C114.500879,23.73 115.642882,22.71 116.694728,21.57 C118.197364,19.95 119.609842,18.24 121.112478,16.62 C122.915641,14.67 124.77891,12.75 126.612127,10.83 C128.565554,8.79 130.488928,6.75 132.442355,4.74 C134.425835,2.7 137.13058,2.22 139.835325,3.48 C140.676801,3.87 141.277856,3.66 141.939016,3.12 C142.780492,2.43 143.682074,1.77 144.613708,1.17 C147.528822,-0.78 151.676098,0.21 154.140422,2.43 C156.033743,4.11 157.776801,5.91 158.017223,8.64 C158.077329,9.42 158.047276,10.26 157.806854,10.98 C157.566432,11.73 157.085589,12.45 156.604745,13.08 C155.342531,14.67 154.380844,16.14 154.320738,18.42 C154.260633,20.22 152.788049,21.87 151.225308,23.16 C149.692619,24.45 148.370299,26.01 146.897715,27.39 C145.154657,29.04 143.261336,30.54 141.54833,32.22 C140.015641,33.69 138.663269,35.37 137.13058,36.84 C135.778207,38.16 134.275571,39.27 132.893146,40.56 C132.021617,41.37 131.029877,42.15 130.458875,43.14 C129.797715,44.34 130.939719,45.24 131.660984,45.96 C134.606151,48.9 137.761687,51.6 140.015641,55.2 C141.157645,57.03 142.720387,58.62 144.012654,60.36 C145.034446,61.77 144.914236,62.76 143.591916,63.99 C141.578383,65.88 139.534798,67.68 137.491213,69.51 C137.340949,69.63 137.220738,69.81 137.070475,69.93 C136.379262,70.47 136.439367,72.03 135.177153,71.7 C134.335677,71.46 133.584359,70.77 132.953251,70.11 C130.609139,67.59 128.355185,64.98 126.071178,62.4 C125.019332,61.23 123.907381,60.12 122.915641,58.92 C121.623374,57.39 120.391213,55.8 119.098946,54.3 C118.858524,54 118.37768,53.88 118.017047,53.7 C118.077153,54.06 118.0471,54.48 118.197364,54.81 C119.579789,57.39 121.082425,59.88 122.34464,62.52 C123.035852,63.99 123.456591,65.67 123.757118,67.29 C124.177856,69.81 124.869069,72.42 124.568541,74.88 C123.99754,79.5 125.620387,83.64 126.461863,87.96 C126.942707,90.42 126.642179,92.7 125.740598,94.98 C124.869069,97.14 124.147803,99.36 123.516696,101.58 C123.33638,102.15 123.546749,102.96 123.847276,103.53 C124.237961,104.34 124.538489,104.97 124.177856,105.96 C123.99754,106.47 124.628647,107.37 125.079438,107.97 C125.470123,108.45 125.560281,108.66 125.139543,109.23 C123.99754,110.79 124.057645,111.12 125.500176,112.47 C126.341652,113.25 126.341652,114.15 125.920914,115.02 C125.049385,116.85 124.147803,118.65 123.156063,120.39 C122.524956,121.47 121.984007,122.4 122.975747,123.57 C125.500176,126.57 124.538489,127.86 121.743585,130.02 C121.112478,130.5 120.120738,130.53 119.399473,130.95 C118.527944,131.46 117.596309,132 116.995255,132.75 C115.312302,134.88 113.869772,137.22 111.675923,138.93 C111.104921,139.35 110.98471,140.28 110.503866,140.88 C109.602285,141.99 108.580492,142.95 107.67891,144.03 C106.657118,145.26 105.635325,146.55 104.703691,147.87 C104.012478,148.86 103.531634,150 102.960633,151.05 C102.840422,151.26 102.780316,151.5 102.630053,151.62 C101.27768,152.79 100.225835,154.14 99.2942004,155.7 C97.8817223,158.1 95.9884007,160.23 94.3655536,162.51 C93.6142355,163.56 92.9530756,164.73 92.2318102,165.81 C92.0514938,166.08 91.931283,166.41 91.6608084,166.59 C91.3001757,166.83 90.8493849,166.92 90.4286467,167.07 C90.3685413,166.74 90.188225,166.38 90.2182777,166.05 C90.4586995,164.34 91.0297012,162.93 92.2318102,161.52 C93.4639719,160.11 95.0267135,158.49 95.5376098,156.9 C96.5894552,153.6 99.1739895,151.56 100.796837,148.77 C101.397891,147.75 101.638313,146.52 102.089104,145.41 C102.449736,144.54 102.780316,143.64 103.321265,142.89 C104.012478,141.87 104.192794,140.79 104.132689,139.59 C103.952373,136.17 105.935852,133.89 108.279965,131.76 C110.143234,130.08 111.856239,128.28 113.599297,126.48 C113.779613,126.3 113.689455,125.88 113.719508,125.58 C113.418981,125.67 113.028295,125.64 112.817926,125.85 C111.225132,127.29 109.722496,128.82 108.069596,130.2 C107.648858,130.56 106.68717,130.62 106.176274,130.41 C105.875747,130.26 105.695431,129.21 105.875747,128.7 C106.176274,127.86 106.777329,127.14 107.318278,126.42 C107.408436,126.27 107.708963,126.27 107.919332,126.21 C107.949385,126.45 107.979438,126.69 107.979438,126.9 C107.979438,127.56 106.837434,127.98 107.618805,128.79 C108.069596,128.31 108.460281,127.8 108.971178,127.38 C110.383656,126.12 111.826186,124.95 113.238664,123.69 C114.110193,122.88 114.861511,121.92 115.793146,121.23 C116.243937,120.9 117.05536,121.02 117.71652,120.93 C117.71652,121.38 117.656415,121.83 117.746573,122.28 C118.137258,124.92 115.913357,126.36 114.891564,128.34 C113.929877,130.14 112.577504,131.73 111.345343,133.38 C110.383656,134.67 109.301757,135.9 108.400176,137.25 C107.67891,138.36 107.107909,139.62 106.56696,140.82 C106.446749,141.06 106.657118,141.48 106.747276,141.81 C106.987698,141.66 107.258172,141.54 107.468541,141.36 C107.799121,141.09 108.249912,140.82 108.370123,140.43 C109.812654,136.41 113.599297,134.13 115.763093,130.62 C116.3942,129.63 118.0471,129.27 119.219156,128.64 C119.970475,128.22 120.811951,127.92 121.413005,127.35 C121.68348,127.11 121.563269,126.3 121.413005,125.82 C121.322847,125.46 120.902109,125.16 120.631634,124.83 C119.339367,123.27 119.790158,121.77 120.751845,120.24 C121.893849,118.44 123.0058,116.64 124.087698,114.81 C124.358172,114.36 124.418278,113.7 123.636907,113.88 C122.374692,114.18 121.202636,114.75 119.970475,115.17 C119.7,115.26 119.36942,115.29 119.068893,115.35 C119.128998,115.05 119.098946,114.69 119.279262,114.45 C120.541476,112.83 121.863796,111.27 123.156063,109.68 C123.33638,109.44 123.456591,109.14 123.606854,108.87 C123.246221,108.78 122.855536,108.57 122.555009,108.66 C122.134271,108.78 121.773638,109.11 121.413005,109.41 C120.932162,109.83 120.571529,110.37 120.060633,110.7 C119.609842,111 119.008787,111.09 118.467838,111.27 C118.678207,110.82 118.918629,110.4 119.098946,109.95 C119.730053,108.39 120.992267,107.4 122.134271,106.29 C122.34464,106.11 122.284534,105.63 122.34464,105.3 C122.044112,105.39 121.68348,105.39 121.443058,105.57 C119.609842,106.89 118.678207,108.9 117.355888,110.64 C116.514411,111.75 115.312302,112.56 114.320562,113.55 C112.036555,115.86 109.812654,118.23 107.558699,120.57 C106.056063,122.13 104.463269,123.6 102.990685,125.16 C102.119156,126.06 101.397891,127.08 100.646573,128.1 C100.496309,128.31 100.526362,128.61 100.466257,128.88 C100.766784,128.88 101.157469,128.97 101.367838,128.82 C101.908787,128.46 102.419684,128.01 102.870475,127.53 C105.635325,124.59 108.400176,121.62 111.165026,118.71 C111.405448,118.47 111.826186,118.41 112.156766,118.29 C112.066608,118.65 112.096661,119.1 111.886292,119.37 C110.443761,121.26 109.00123,123.12 107.498594,124.92 C106.657118,125.94 105.57522,126.78 104.884007,127.89 C103.531634,130.08 101.578207,130.95 99.1439367,131.16 C98.6330404,131.19 98.0019332,131.46 97.7314587,131.85 C95.627768,134.67 92.3219684,135.15 89.2866432,136.02 C86.702109,136.77 84.3880492,137.97 81.9838313,139.08 C80.7817223,139.65 79.399297,139.95 78.0769772,140.1 C75.8530756,140.34 73.5690685,140.64 71.4052724,140.34 C68.2797891,139.92 65.1543058,139.17 62.1189807,138.3 C59.2038664,137.46 56.6493849,135.66 53.5539543,135.15 C52.6824253,134.82 51.9311072,134.22 50.9994728,134.82 L50.9994728,134.82 Z M122.825483,85.11 C122.434798,82.8 121.984007,80.52 121.68348,78.21 C121.593322,77.46 121.984007,76.65 121.923902,75.87 C121.68348,72.75 121.473111,69.63 121.02232,66.54 C120.842004,65.25 120.150791,64.02 119.579789,62.82 C119.399473,62.43 118.858524,62.22 118.467838,61.95 C118.557996,62.4 118.648155,62.88 118.738313,63.33 C118.768366,63.45 118.978735,63.57 118.948682,63.66 C118.918629,63.96 118.828471,64.26 118.738313,64.56 C118.497891,64.44 118.167311,64.38 118.0471,64.17 C117.746573,63.72 117.566257,63.21 117.265729,62.76 C117.085413,62.52 116.784886,62.34 116.514411,62.16 C116.544464,62.46 116.544464,62.76 116.604569,63.03 C116.664675,63.24 116.814938,63.42 116.905097,63.63 C117.746573,65.46 118.738313,67.23 119.399473,69.12 C119.609842,69.69 118.948682,70.56 118.678207,71.28 C118.407733,70.8 118.0471,70.32 117.866784,69.81 C117.145518,67.8 116.634622,65.67 115.763093,63.72 C115.041828,62.1 113.899824,60.63 112.938137,59.1 C112.817926,58.95 112.547452,58.89 112.337083,58.8 C112.337083,59.07 112.246924,59.34 112.30703,59.61 C112.367135,59.85 112.577504,60.09 112.697715,60.3 C113.62935,61.98 114.591037,63.66 115.432513,65.4 C115.582777,65.7 115.28225,66.24 115.192091,66.66 C114.981722,66.42 114.741301,66.21 114.591037,65.94 C114.200351,65.34 113.899824,64.68 113.509139,64.08 C112.787873,62.94 112.066608,61.77 111.285237,60.66 C111.165026,60.45 110.834446,60.39 110.594025,60.27 C110.503866,60.57 110.32355,60.87 110.353603,61.17 C110.383656,61.5 110.624077,61.83 110.774341,62.13 C111.525659,63.57 112.276977,64.98 113.028295,66.42 C113.449033,67.23 113.208612,67.65 112.427241,68.04 C111.916344,68.28 111.585764,68.91 111.195079,69.36 C110.954657,69.63 110.714236,69.93 110.473814,70.23 C110.32355,69.87 110.173286,69.51 110.023023,69.12 C109.902812,68.79 109.872759,68.4 109.722496,68.07 C109.542179,67.71 109.271705,67.38 109.031283,67.05 C108.881019,67.41 108.760808,67.8 108.550439,68.1 C108.34007,68.43 108.039543,68.7 107.799121,69 C107.558699,68.67 107.258172,68.34 107.137961,67.98 C107.047803,67.65 107.137961,67.23 107.137961,66.84 C107.137961,66.09 107.168014,65.34 107.077856,64.62 C107.047803,64.44 106.68717,64.29 106.446749,64.14 C106.386643,64.35 106.296485,64.53 106.23638,64.74 C105.935852,65.64 105.695431,66.54 105.334798,67.41 C105.184534,67.74 104.733743,67.95 104.433216,68.19 C104.343058,67.83 104.162742,67.47 104.222847,67.14 C104.313005,66.48 104.58348,65.85 104.733743,65.19 C104.944112,64.32 105.214587,63.45 105.334798,62.55 C105.364851,62.25 105.004218,61.89 104.823902,61.53 C104.613533,61.8 104.313005,62.04 104.222847,62.34 C104.042531,62.97 104.042531,63.6 103.892267,64.23 C103.802109,64.59 103.561687,64.95 103.411424,65.31 C103.291213,64.98 103.050791,64.62 103.050791,64.29 C103.080844,63.21 103.26116,62.16 103.291213,61.08 C103.291213,60.75 102.93058,60.42 102.750264,60.09 C102.539895,60.42 102.329525,60.72 102.179262,61.05 C102.119156,61.17 102.209315,61.35 102.149209,61.47 C101.968893,61.92 101.758524,62.37 101.578207,62.82 C101.397891,62.73 101.127417,62.7 101.097364,62.58 C100.977153,62.13 100.856942,61.65 100.886995,61.2 C100.9471,60.63 101.217575,60.06 101.247627,59.49 C101.27768,59.13 101.007206,58.74 100.886995,58.35 C100.676626,58.62 100.406151,58.89 100.28594,59.19 C100.075571,59.64 100.015466,60.15 99.8351494,60.6 C99.7750439,60.75 99.5346221,60.93 99.3843585,60.9 C99.2340949,60.9 98.9936731,60.63 99.0237258,60.51 C99.0838313,59.88 99.2942004,59.25 99.2641476,58.59 C99.2340949,58.02 99.0237258,57.45 98.8734622,56.88 C98.5428822,57.3 98.1221441,57.69 97.8516696,58.14 C97.6713533,58.47 97.701406,58.95 97.5210896,59.31 C97.1905097,59.94 96.7998243,60.51 96.4091388,61.11 C96.3490334,60.36 96.1987698,59.61 96.2889279,58.86 C96.4091388,57.78 96.7697715,56.73 96.9200351,55.65 C96.9500879,55.41 96.6796134,55.11 96.5293497,54.84 C96.2889279,55.08 95.958348,55.26 95.8381371,55.53 C95.5676626,56.28 95.4474517,57.12 95.1769772,57.87 C95.0567663,58.23 94.6660808,58.5 94.3956063,58.8 C94.2753954,58.41 94.0049209,57.99 94.0950791,57.63 C94.3355009,56.49 94.8163445,55.41 95.0267135,54.27 C95.1168717,53.82 94.7862917,53.31 94.6360281,52.8 C94.4557118,53.13 94.3054482,53.46 94.0650264,53.76 C93.7644991,54.15 93.4339192,54.48 93.1033392,54.81 C92.9831283,54.33 92.7427065,53.85 92.7727592,53.37 C92.8328647,52.41 93.1033392,51.48 93.1333919,50.52 C93.1333919,50.25 92.7126538,49.95 92.472232,49.65 C92.3219684,49.95 92.141652,50.25 92.0214411,50.55 C91.7509666,51.21 91.5405975,51.9 91.2400703,52.53 C91.1499121,52.74 90.8493849,52.86 90.6390158,53.01 C90.5188049,52.71 90.2483304,52.41 90.3084359,52.14 C90.4286467,51.15 90.6991213,50.19 90.8493849,49.2 C90.9094903,48.81 90.8493849,48.39 90.8493849,48 C90.5789104,48.33 90.1581722,48.6 90.0079086,48.99 C89.6472759,49.89 89.4669596,50.88 89.0762742,51.78 C88.8959578,52.17 88.4151142,52.44 88.0845343,52.77 C88.0544815,52.35 87.8741652,51.87 87.9643234,51.48 C88.1446397,50.7 88.5052724,49.98 88.7456942,49.2 C89.1964851,47.82 90.0079086,46.38 88.1746924,45.3 C87.8441125,45.12 87.5435852,44.67 87.4834798,44.31 C87.4233743,43.8 87.6036907,43.26 87.6637961,42.75 C88.114587,42.84 88.6254833,42.87 89.0462214,43.05 C89.3768014,43.2 89.5871705,43.56 89.9177504,43.77 C90.0379613,43.86 90.3084359,43.8 90.4586995,43.71 C90.5188049,43.68 90.5789104,43.41 90.5488576,43.35 C89.5871705,42.15 89.2866432,40.38 87.3933216,39.99 C86.7622144,39.87 86.2513181,39.15 85.6803163,38.73 C86.4015817,37.83 87.0627417,38.7 87.7539543,38.79 C88.1746924,38.85 88.5954306,38.64 89.0161687,38.55 C88.7757469,38.34 88.5353251,38.16 88.3249561,37.92 C88.0845343,37.65 87.8741652,37.32 87.6637961,37.02 C88.0244288,36.96 88.4151142,36.75 88.7156415,36.87 C89.8876977,37.29 91.1198594,37.68 92.141652,38.34 C93.4940246,39.18 94.8163445,39.93 96.499297,39.75 C96.7397188,39.72 96.9500879,39.69 97.1905097,39.66 C97.0101933,39.45 96.8599297,39.18 96.6495606,39.06 C95.627768,38.49 94.6059754,37.92 93.5541301,37.41 C91.3001757,36.33 89.1063269,35.01 86.7321617,34.35 C84.1776801,33.63 81.472935,33.48 78.8282953,33.12 C78.0769772,33.03 77.2956063,32.94 76.5743409,33.06 C75.041652,33.3 73.5690685,33.78 72.0363796,33.96 C68.4901582,34.32 64.913884,34.44 61.3977153,34.89 C57.6711775,35.37 54.7260105,37.05 52.7725835,40.53 C51.3,43.14 49.4367311,45.57 47.483304,47.88 C44.868717,50.94 41.0820738,52.38 37.8063269,54.54 C36.7544815,55.23 35.5223199,55.71 34.6207381,56.55 C33.6891037,57.42 33.0579965,58.56 32.3367311,59.64 C30.9242531,61.71 29.4817223,63.75 28.1594025,65.88 C27.5884007,66.81 27.1977153,67.89 26.8671353,68.97 C26.0557118,71.7 24.3126538,74.16 24.2224956,77.16 C24.1924429,78.06 23.8318102,78.93 23.741652,79.83 C23.5012302,82.08 22.8400703,84.45 23.2908612,86.61 C23.8919156,89.52 24.402812,92.37 24.1924429,95.31 C24.0121265,97.8 24.7934974,100.14 25.6349736,102.27 C26.8070299,105.18 26.9572935,108.69 29.7521968,110.85 C29.9325132,111 30.1128295,111.18 30.2330404,111.36 C31.3750439,113.16 33.2683656,114.03 35.0414763,114.72 C37.355536,115.62 39.2488576,117 40.9017575,118.68 C42.0738137,119.85 42.6748682,121.62 43.6666081,123 C44.8386643,124.62 45.8003515,126.39 47.9942004,127.02 C49.7973638,127.53 51.0896309,128.88 52.2316344,130.41 C53.2534271,131.79 54.6057996,132.81 56.3488576,133.35 C58.4826011,134.01 60.6463972,134.67 62.5998243,135.69 C65.244464,137.07 68.06942,137.49 70.9244288,137.61 C72.9980668,137.7 75.1318102,137.19 77.1753954,137.43 C80.2407733,137.79 82.5848858,136.08 84.959051,134.85 C86.7922671,133.92 88.5653779,133.29 90.5789104,132.96 C92.5022847,132.66 94.4557118,132.24 95.8080844,130.56 C97.6713533,128.22 99.5947276,125.94 101.548155,123.66 C103.681898,121.2 105.755536,118.68 108.00949,116.37 C110.774341,113.52 113.839719,110.94 116.514411,108.03 C118.107206,106.29 119.730053,104.43 120.451318,102 C121.142531,99.63 121.713533,97.2 122.765378,95.01 C124.418278,91.71 123.937434,88.59 122.825483,85.11 L122.825483,85.11 Z M42.3743409,140.82 C44.2075571,138.69 45.9506151,136.47 47.9040422,134.49 C50.5787346,131.82 50.6388401,131.22 46.7620387,129.39 C45.199297,128.67 43.6666081,128.1 42.4644991,126.81 C42.1940246,126.54 41.3525483,126.54 40.9318102,126.72 C40.3307557,126.99 39.759754,127.5 39.3089631,128.01 C36.3938489,131.37 33.5388401,134.79 30.5936731,138.09 C28.1594025,140.82 25.6349736,143.46 23.1405975,146.13 C21.5177504,147.87 19.8648506,149.55 18.2420035,151.32 C16.9196837,152.79 15.6574692,154.29 14.3351494,155.76 C13.1029877,157.14 11.8107206,158.46 10.5785589,159.84 C10.3080844,160.14 10.2179262,160.56 10.0376098,160.92 C10.4282953,160.95 10.8189807,161.04 11.1796134,160.98 C12.8325132,160.68 14.485413,160.02 16.1082601,160.05 C18.1518453,160.08 19.8648506,159.36 21.5778559,158.52 C27.1376098,155.85 31.5553603,151.56 36.1233743,147.57 C38.3773286,145.56 40.2105448,143.16 42.3743409,140.82 L42.3743409,140.82 Z M103.531634,36.06 C105.515114,38.04 107.498594,40.02 109.452021,41.97 C110.143234,42.66 110.804394,43.35 111.495606,44.01 C112.908084,45.36 114.320562,46.68 115.793146,47.97 C116.243937,48.36 116.905097,48.78 117.476098,48.75 C119.128998,48.72 120.451318,49.56 121.503163,50.58 C124.177856,53.22 126.702285,56.01 129.226714,58.8 C130.819508,60.57 132.412302,62.37 133.82478,64.29 C135.447627,66.51 136.048682,66.93 137.911951,64.32 C138.693322,63.24 137.641476,62.76 137.371002,62.04 C137.220738,61.62 136.769947,61.35 136.46942,60.96 C134.546046,58.44 132.682777,55.86 130.72935,53.37 C129.527241,51.87 128.174868,50.49 126.912654,49.02 C126.642179,48.69 125.77065,48.21 126.732337,47.73 C127.123023,47.55 127.874341,47.67 128.174868,47.97 C129.437083,49.2 130.699297,50.43 131.781195,51.84 C134.245518,55.05 136.559578,58.35 138.993849,61.59 C139.414587,62.16 139.955536,62.88 140.88717,62.25 C141.788752,61.62 141.398067,60.96 140.917223,60.36 C139.144112,58.08 137.491213,55.74 135.567838,53.61 C132.111775,49.8 128.535501,46.08 124.929174,42.39 C122.555009,39.96 120.03058,37.68 117.596309,35.34 C116.484359,34.26 115.462566,33.12 114.320562,32.1 C112.577504,30.54 110.774341,29.07 108.941125,27.6 C107.168014,26.16 105.455009,24.66 103.561687,23.4 C101.548155,22.05 99.3843585,20.91 97.2806678,19.71 C96.9801406,19.53 96.6195079,19.44 96.2889279,19.32 C96.3189807,19.62 96.3790861,19.92 96.3189807,20.19 C96.2889279,20.4 96.0485062,20.73 95.9282953,20.7 C94.0650264,20.67 93.5841828,22.35 92.5623902,23.37 C92.4421793,23.49 92.5623902,24.09 92.7427065,24.18 C93.5841828,24.69 94.4857645,25.11 95.3572935,25.56 C99.5947276,27.78 102.509842,31.59 106.116169,34.59 C106.326538,34.77 106.386643,35.19 106.506854,35.49 C106.146221,35.52 105.785589,35.64 105.424956,35.58 C105.184534,35.55 104.91406,35.37 104.733743,35.19 C102.509842,33.18 100.436204,31.02 98.0620387,29.22 C96.0785589,27.69 93.7644991,26.55 91.5706503,25.32 C91.3001757,25.17 90.7892794,25.47 90.398594,25.53 C90.6390158,25.77 90.8193322,26.07 91.0898067,26.25 C92.3820738,27.18 93.7644991,28.02 94.9966608,29.01 C97.8216169,31.23 100.586467,33.6 103.531634,36.06 L103.531634,36.06 Z M21.9384886,138.06 C20.4358524,138.3 18.9332162,138.51 17.4606327,138.78 C16.3186292,138.99 15.2066784,139.32 14.7558875,140.58 C14.6957821,140.76 14.6356766,140.91 14.5455185,141.09 C14.7859402,141.15 15.026362,141.27 15.2367311,141.21 C16.6492091,140.79 18.0316344,140.25 19.4741652,139.92 C21.1571178,139.53 22.9001757,139.05 24.613181,139.14 C25.6950791,139.2 26.356239,138.93 26.9272408,138.21 C28.7003515,136.02 30.383304,133.74 32.1864675,131.55 C34.53058,128.64 36.9047452,125.76 39.3991213,122.97 C40.0602812,122.22 40.1203866,121.74 39.5493849,121.17 C38.4674868,120.12 37.355536,119.1 36.1534271,118.2 C35.6425308,117.81 34.8311072,117.51 34.2601054,117.66 C33.7492091,117.81 33.3885764,118.56 32.9377856,119.07 C33.3585237,119.07 33.8093146,119.04 34.2300527,119.04 C34.7108963,119.04 35.1917399,118.98 35.6725835,119.07 C35.943058,119.13 36.1534271,119.4 36.4239016,119.58 C36.2435852,119.79 36.1233743,120.15 35.9130053,120.18 C34.9513181,120.33 33.9595782,120.33 32.997891,120.51 C32.2165202,120.66 31.4351494,120.9 30.6838313,121.2 C30.4434095,121.29 30.3231986,121.65 30.1428822,121.89 C30.5035149,121.95 30.8942004,122.1 31.2247803,122.04 C32.8776801,121.83 34.5005272,121.56 36.1534271,121.38 C36.4239016,121.35 36.7244288,121.83 36.9949033,122.04 C36.7244288,122.28 36.484007,122.7 36.1534271,122.76 C35.0414763,122.94 33.8994728,122.85 32.8175747,123.12 C31.1045694,123.51 29.301406,123.81 27.7987698,124.62 C26.7168717,125.19 25.9956063,126.54 25.1541301,127.53 C24.9137083,127.8 24.7333919,128.13 24.5230228,128.43 C24.943761,128.49 25.3644991,128.64 25.7551845,128.55 C28.0692443,128.1 30.383304,127.59 32.6973638,127.14 C32.997891,127.08 33.3585237,127.35 33.7191564,127.47 C33.5388401,127.71 33.3885764,127.98 33.1481547,128.16 C32.9077329,128.34 32.6072056,128.49 32.3066784,128.55 C30.8942004,128.76 29.3915641,128.73 28.0692443,129.18 C26.356239,129.78 24.3126538,129.09 22.8400703,130.56 C22.659754,130.74 22.4794376,130.92 22.2991213,131.13 C22.5996485,131.22 22.9001757,131.46 23.1706503,131.43 C23.9219684,131.34 24.6732865,131.07 25.4246046,130.95 C27.2578207,130.62 29.1210896,130.29 30.9843585,130.02 C31.2247803,129.99 31.4952548,130.23 31.7356766,130.35 C31.5253076,130.62 31.3750439,131.07 31.1346221,131.13 C29.0910369,131.58 26.9873462,131.85 24.9738137,132.33 C23.3209139,132.72 21.4275923,132.3 20.045167,133.71 C19.8347979,133.92 19.6544815,134.13 19.4441125,134.31 C19.7746924,134.37 20.1353251,134.52 20.4358524,134.46 C22.9602812,133.95 25.48471,133.38 28.0391916,132.9 C28.429877,132.81 28.9107206,133.08 29.3314587,133.2 C28.970826,133.47 28.6702988,133.92 28.2796134,134.01 C26.2360281,134.46 24.1323374,134.73 22.1188049,135.21 C20.6161687,135.57 19.1435852,136.17 17.6710018,136.68 C17.4906854,136.74 17.4005272,137.04 17.2803163,137.22 C17.5207381,137.31 17.7311072,137.46 17.971529,137.46 C18.2420035,137.46 18.512478,137.34 18.7528998,137.28 C21.0369069,136.77 23.3509666,136.2 25.6650264,135.75 C26.0857645,135.66 26.6267135,135.99 27.0775044,136.11 C26.7168717,136.41 26.3862917,136.89 25.9355009,137.01 C24.7033392,137.49 23.3810193,137.67 21.9384886,138.06 L21.9384886,138.06 Z M107.588752,50.82 C107.107909,50.91 106.446749,50.85 106.146221,51.15 C104.884007,52.47 103.711951,53.88 102.569947,55.29 C102.419684,55.47 102.479789,56.07 102.660105,56.25 C103.952373,57.6 105.24464,58.95 106.627065,60.18 C106.89754,60.42 107.769069,60.42 107.949385,60.21 C109.211599,58.77 110.293497,57.24 111.525659,55.77 C112.727768,54.33 114.020035,52.98 115.222144,51.54 C115.372408,51.36 115.312302,50.67 115.162039,50.61 C114.681195,50.4 114.110193,50.22 113.599297,50.25 C111.675923,50.4 109.782601,50.61 107.588752,50.82 L107.588752,50.82 Z M150.203515,9.72 C149.842882,9.42 149.422144,9.18 149.121617,8.85 C148.851142,8.52 148.670826,8.1 148.460457,7.71 C148.941301,7.8 149.542355,7.71 149.842882,7.98 C151.044991,9.12 152.096837,10.41 153.268893,11.55 C153.479262,11.76 154.23058,11.79 154.290685,11.67 C154.591213,11.1 154.861687,10.44 154.981898,9.78 C155.312478,7.59 152.998418,4.26 150.92478,3.3 C148.280141,2.1 146.116344,3 143.982601,4.35 C143.050967,4.95 143.20123,5.55 144.253076,6.24 C145.274868,6.93 146.326714,7.65 147.228295,8.49 C148.851142,9.99 150.353779,11.61 151.946573,13.14 C152.156942,13.32 152.487522,13.38 152.757996,13.5 C152.757996,13.17 152.878207,12.75 152.727944,12.54 C152.036731,11.58 151.25536,10.65 150.203515,9.72 L150.203515,9.72 Z M103.110896,43.71 C102.870475,43.86 102.660105,44.07 102.419684,44.13 C101.488049,44.34 100.526362,44.43 99.5947276,44.64 C99.3242531,44.7 99.0838313,45.03 98.8434095,45.24 C99.1439367,45.36 99.4144112,45.57 99.7149385,45.57 C100.436204,45.63 101.187522,45.51 101.878735,45.63 C102.239367,45.69 102.509842,46.11 102.840422,46.35 C102.509842,46.59 102.179262,46.92 101.818629,47.01 C101.488049,47.1 101.097364,46.83 100.766784,46.86 C99.7149385,46.89 98.6330404,46.92 97.6112478,47.07 C97.3407733,47.1 97.1304042,47.61 96.8899824,47.88 C97.2205624,48 97.5811951,48.18 97.911775,48.18 C99.0237258,48.21 100.165729,48.15 101.27768,48.21 C101.60826,48.24 101.93884,48.57 102.26942,48.75 C101.908787,48.96 101.548155,49.29 101.157469,49.32 C99.654833,49.38 98.1822496,49.32 96.6796134,49.38 C96.3189807,49.41 95.958348,49.77 95.5977153,49.98 C95.9282953,50.16 96.2588752,50.46 96.6195079,50.49 C97.911775,50.64 99.2340949,50.64 100.556415,50.85 C101.067311,50.94 101.518102,51.39 101.998946,51.69 C101.457996,51.99 100.9471,52.44 100.406151,52.5 C99.7750439,52.56 99.113884,52.17 98.4527241,52.08 C98.1521968,52.05 97.7915641,52.23 97.4609842,52.32 C97.6112478,52.53 97.701406,52.77 97.8817223,52.92 C98.3926186,53.37 99.0537786,53.73 99.4745167,54.27 C100.135677,55.14 100.646573,54.84 101.097364,54.15 C102.089104,52.74 103.050791,51.3 104.012478,49.86 C104.343058,49.35 104.884007,48.75 104.853954,48.21 C104.673638,45.96 104.343058,43.74 104.012478,41.49 C103.982425,41.19 103.651845,40.95 103.471529,40.68 C103.171002,41.01 102.630053,41.34 102.660105,41.64 C102.6,42.24 102.900527,42.84 103.110896,43.71 L103.110896,43.71 Z M21.3374341,144.42 C20.9467487,144.33 20.4358524,144.03 20.1954306,144.18 C18.4223199,145.2 16.4688928,145.32 14.485413,145.5 C13.3133568,145.59 11.6604569,145.32 11.3599297,147.18 C11.2998243,147.48 11.4200351,147.84 11.4500879,148.17 C11.7205624,148.11 11.9910369,148.11 12.2615114,148.02 C13.5537786,147.57 14.8460457,147.06 16.1683656,146.64 C16.3787346,146.58 16.7393673,146.88 16.9797891,147.06 C17.0098418,147.09 16.8295255,147.57 16.7093146,147.6 C15.7476274,147.81 15.1766257,148.2 15.5372583,149.31 C15.5673111,149.4 15.3268893,149.64 15.1766257,149.7 C14.1848858,150.12 13.1630931,150.45 12.2314587,150.93 C11.3599297,151.38 10.5485062,152.01 9.7370826,152.58 C9.64692443,152.64 9.64692443,152.85 9.67697715,152.97 C9.70702988,153.06 9.88734622,153.21 9.97750439,153.18 C12.4418278,152.64 14.8460457,151.95 16.559051,149.85 C18.0015817,148.05 19.6544815,146.34 21.3374341,144.42 L21.3374341,144.42 Z M24.1022847,140.25 C21.788225,140.82 19.4441125,141.33 17.1601054,142.02 C15.6574692,142.47 14.2449912,143.1 12.8325132,143.76 C12.5920914,143.88 12.5319859,144.39 12.3817223,144.69 C12.6221441,144.75 12.8926186,144.9 13.1330404,144.84 C16.0181019,144.12 18.8731107,143.16 21.8783831,143.13 C22.0286467,143.13 22.2089631,142.98 22.3592267,142.89 C23.0203866,142.41 23.7115993,141.93 24.3727592,141.45 C24.8536028,141.06 25.0339192,140.67 24.1022847,140.25 L24.1022847,140.25 Z M122.975747,54 C121.743585,52.77 120.541476,51.54 119.309315,50.34 C119.189104,50.22 118.978735,50.16 118.798418,50.07 C118.70826,50.37 118.437786,50.73 118.527944,50.94 C118.648155,51.27 119.03884,51.48 119.309315,51.78 C122.044112,54.69 124.77891,57.6 127.483656,60.51 C128.866081,62.01 130.278559,63.48 131.660984,64.98 C131.811248,65.13 132.05167,65.19 132.262039,65.28 C132.201933,65.04 132.231986,64.74 132.111775,64.59 C129.106503,61.08 126.10123,57.63 122.975747,54 L122.975747,54 Z M137.611424,19.98 C138.152373,20.04 138.723374,20.16 139.264323,20.1 C140.526538,19.95 141.307909,18.57 140.797012,17.58 C140.226011,16.44 139.174165,16.53 138.302636,16.71 C137.761687,16.83 137.340949,17.55 136.920211,18.06 C136.319156,18.87 136.950264,19.35 137.611424,19.98 L137.611424,19.98 Z M129.617399,27.36 C128.595606,26.76 127.09297,26.88 126.582074,27.87 C126.281547,28.44 126.461863,29.28 126.43181,30 C126.972759,30 127.603866,30.15 128.054657,29.94 C128.655712,29.67 129.226714,29.19 129.677504,28.68 C129.917926,28.44 129.767663,27.9 129.617399,27.36 L129.617399,27.36 Z M93.4038664,45.33 C94.0049209,45.63 94.6059754,45.93 95.2070299,46.2 C95.4173989,46.29 95.7479789,46.41 95.8681898,46.32 C96.0184534,46.2 96.1086116,45.78 96.0184534,45.66 C95.2671353,44.85 94.3956063,44.28 93.2235501,44.49 C93.1934974,44.49 93.2235501,44.94 93.4038664,45.33 L93.4038664,45.33 Z M8.89560633,157.74 C9.25623902,157.23 9.64692443,156.75 10.0075571,156.24 C9.82724077,156.12 9.52671353,155.85 9.46660808,155.88 C8.95571178,156.27 8.50492091,156.72 8.02407733,157.17 C7.96397188,157.23 8.02407733,157.35 8.02407733,157.44 C7.9940246,157.71 7.96397188,157.98 7.93391916,158.22 C8.20439367,158.13 8.47486819,158.01 8.89560633,157.74 L8.89560633,157.74 Z M90.9395431,39.96 C91.3602812,40.02 91.7810193,40.08 92.2318102,40.14 C92.0214411,39.9 91.7810193,39.66 91.5706503,39.45 C91.4804921,39.36 91.3903339,39.21 91.270123,39.15 C90.6991213,38.94 90.0980668,38.76 89.4970123,38.55 C89.9177504,38.97 90.3384886,39.39 90.9395431,39.96 L90.9395431,39.96 Z M9.6168717,155.01 C10.2479789,154.92 10.8790861,154.83 11.5101933,154.71 C11.5702988,154.68 11.5702988,154.32 11.6003515,154.11 C10.999297,154.11 10.3681898,154.05 9.79718805,154.17 C9.58681898,154.23 9.49666081,154.71 9.6168717,155.01 L9.6168717,155.01 Z M97.4609842,41.25 C97.6713533,41.64 97.8516696,42.03 98.0620387,42.42 C98.242355,42.33 98.4527241,42.21 98.6330404,42.12 C98.4226714,41.82 98.2123023,41.52 98.0019332,41.25 C97.911775,41.16 97.7314587,41.16 97.4609842,41.25 Z" id="Shape"></path>
                <path d="M38.227065,157.11 C39.9400703,157.65 40.9017575,158.7 40.7815466,160.59 C40.6913884,162.03 40.8717047,163.53 40.7514938,164.97 C40.5110721,167.61 39.9400703,170.34 38.0768014,172.17 C36.0933216,174.15 33.9595782,176.25 30.8942004,176.7 C29.2713533,176.94 27.1075571,175.05 26.8370826,173.37 C26.4163445,170.58 27.7086116,168.45 29.3915641,166.59 C30.8942004,164.91 32.6673111,163.44 34.3803163,161.97 C35.6725835,160.83 37.0850615,159.87 37.355536,157.95 C37.3855888,157.65 37.8664323,157.41 38.227065,157.11 L38.227065,157.11 Z M35.7026362,164.55 C35.402109,165.24 35.0114236,165.9 34.8010545,166.62 C34.5005272,167.67 34.2901582,168.72 34.1398946,169.8 C34.1098418,170.04 34.3502636,170.49 34.5606327,170.58 C34.7710018,170.67 35.1917399,170.49 35.402109,170.28 C35.7026362,170.01 36.0332162,169.65 36.1233743,169.29 C36.4539543,167.82 36.7544815,166.35 36.9949033,164.88 C37.0550088,164.49 36.9047452,164.07 36.8446397,163.65 C36.5140598,163.92 36.1834798,164.16 35.7026362,164.55 Z" id="Shape"></path>
                <path d="M11.2096661,108.39 C14.0346221,108.18 16.3787346,109.14 18.6026362,110.46 C18.9632689,110.67 19.3539543,111.36 19.2637961,111.72 C19.1435852,112.29 18.7228471,113.16 18.2720562,113.25 C15.7175747,113.82 14.0646749,115.68 12.2615114,117.3 C10.0676626,119.28 7.51318102,120.45 4.47785589,120.54 C2.40421793,120.6 1.14200351,119.58 0.480843585,117.75 C-0.15026362,116.04 0.0601054482,114.39 1.26221441,112.95 C3.66643234,110.07 6.88207381,108.99 10.458348,108.63 C10.668717,108.66 10.8490334,108.51 11.2096661,108.39 L11.2096661,108.39 Z M13.1029877,113.04 C13.4335677,112.8 13.7641476,112.56 14.0947276,112.32 C13.9144112,112.17 13.7641476,111.93 13.5838313,111.9 C11.9910369,111.48 8.74534271,113.13 8.50492091,114.15 C8.44481547,114.45 8.50492091,114.81 8.50492091,115.14 C8.80544815,115.11 9.19613357,115.2 9.43655536,115.05 C10.5785589,114.42 11.6905097,113.7 13.1029877,113.04 Z" id="Shape"></path>
                <path d="M82.3144112,6.18 C83.9072056,8.07 84.8989455,10.05 85.1994728,12.48 C85.5601054,15.48 84.297891,17.97 83.0957821,20.49 C82.5848858,21.57 81.472935,21.39 80.811775,20.19 C80.4811951,19.56 80.3609842,18.75 79.9101933,18.27 C78.3775044,16.62 76.6945518,15.12 75.1618629,13.47 C73.0581722,11.22 71.4052724,8.73 72.1265378,5.46 C72.5472759,3.57 74.3504394,3.39 75.7629174,2.79 C76.9950791,2.25 78.0469244,2.91 78.9785589,3.51 C80.1506151,4.23 81.142355,5.22 82.3144112,6.18 L82.3144112,6.18 Z M81.0822496,11.01 C80.6915641,10.14 80.1806678,9.3 79.0987698,9.84 C78.1070299,10.35 78.3474517,11.34 78.7982425,12.18 C79.5195079,13.53 80.3008787,14.82 81.0822496,16.14 C81.2024605,16.32 81.3827768,16.44 81.5330404,16.62 C81.6532513,16.38 81.9537786,16.14 81.9237258,15.93 C81.7133568,14.34 81.472935,12.75 81.0822496,11.01 Z" id="Shape"></path>
                <path d="M164.568717,53.13 C166.101406,53.52 167.604042,53.7 168.836204,54.33 C170.308787,55.11 170.909842,56.73 170.909842,58.35 C170.909842,59.91 170.428998,61.32 168.926362,62.25 C166.882777,63.51 164.92935,62.97 163.066081,62.04 C159.700176,60.33 156.454482,58.44 153.148682,56.64 C152.637786,56.37 152.066784,56.22 151.525835,56.01 C150.744464,55.71 150.383831,55.05 150.684359,54.33 C150.834622,54 151.525835,53.76 152.006678,53.73 C154.711424,53.4 157.446221,53.04 160.181019,52.86 C161.593497,52.77 163.005975,53.04 164.568717,53.13 L164.568717,53.13 Z M160.661863,58.05 C161.593497,58.35 162.525132,58.71 163.486819,58.89 C163.907557,58.95 164.388401,58.62 164.869244,58.47 C164.568717,57.96 164.388401,57.12 163.967663,56.97 C162.434974,56.43 160.842179,56.1 159.249385,55.77 C158.948858,55.71 158.588225,56.01 158.257645,56.13 C158.468014,56.46 158.618278,56.88 158.888752,57.12 C159.30949,57.48 159.850439,57.75 160.661863,58.05 Z" id="Shape"></path>
                <path d="M28.8205624,34.11 C30.2630931,34.95 31.6154657,35.73 32.9678383,36.54 C33.5087873,36.87 34.0797891,37.14 34.5606327,37.53 C34.9513181,37.86 35.2217926,38.31 35.5223199,38.7 C36.0031634,39.33 36.5741652,39.9 36.9648506,40.56 C37.2353251,41.01 37.2653779,41.61 37.4156415,42.12 C36.9347979,42.03 36.3938489,42.09 36.0332162,41.85 C32.126362,39.27 28.2796134,36.6 24.3727592,34.02 C22.8400703,33 21.2472759,32.07 19.6544815,31.11 C18.7829525,30.6 17.7912127,28.5 18.1818981,27.69 C18.2720562,27.48 19.0233743,27.36 19.2637961,27.51 C21.0970123,28.68 22.9001757,29.91 24.7033392,31.17 C26.0857645,32.13 27.4080844,33.09 28.8205624,34.11 Z" id="Path"></path>
                <path d="M24.0421793,44.1 C23.0804921,43.65 21.9084359,43.65 21.9084359,42.21 C21.9084359,41.1 22.329174,40.77 23.3810193,41.13 C25.3043937,41.82 27.2578207,42.48 29.1811951,43.17 C30.4133568,43.59 31.6455185,43.98 32.8175747,44.49 C33.2082601,44.67 33.4787346,45.15 33.8093146,45.48 C33.2683656,45.72 32.787522,46.11 32.2165202,46.17 C29.2713533,46.53 26.8070299,44.88 24.0421793,44.1 Z" id="Path"></path>
                <path d="M33.2383128,28.53 C33.1481547,27.81 33.0279438,27.21 32.9377856,26.64 C32.9077329,26.34 32.9678383,26.04 32.997891,25.74 C33.328471,25.8 33.7792619,25.77 33.9595782,25.95 C35.1917399,27.3 36.4239016,28.65 37.5358524,30.09 C38.5876977,31.44 39.5193322,32.91 40.3608084,34.41 C40.6012302,34.83 40.4810193,35.58 40.2706503,36.03 C40.1804921,36.21 39.098594,36.24 38.888225,35.97 C36.9648506,33.6 35.1015817,31.11 33.2383128,28.53 Z" id="Path"></path>
                <path d="M88.114587,165.48 C88.3249561,165.57 88.4752197,165.72 88.5954306,165.87 C88.445167,165.99 88.2648506,166.11 88.114587,166.2 C88.0845343,165.99 88.0544815,165.78 88.114587,165.48 Z" id="Path"></path>
                <path d="M83.9673111,75.69 C81.6532513,78.78 79.0086116,81.36 75.9432337,83.55 C73.298594,85.44 70.4135325,86.07 67.2579965,86.49 C63.4112478,87 59.7147627,86.61 56.3789104,84.87 C53.4637961,83.34 50.3383128,81.75 48.7755712,78.57 C47.9942004,76.98 47.5734622,75.18 47.1527241,73.47 C46.8221441,72.03 46.5216169,70.53 46.611775,69.09 C46.7019332,67.59 47.3330404,66.12 47.6335677,64.62 C48.3848858,61.2 49.8274165,58.08 52.1114236,55.5 C54.0949033,53.25 56.3789104,51.3 58.7230228,49.41 C62.299297,46.53 66.656942,46.14 70.9845343,46.56 C74.3804921,46.89 77.5059754,48.39 80.0604569,50.85 C81.8335677,52.53 83.7869947,54.12 85.1994728,56.07 C87.6036907,59.4 88.1446397,63.24 87.4834798,67.32 C87.0026362,70.38 85.83058,73.11 83.9673111,75.69 L83.9673111,75.69 Z M56.2887522,82.08 C59.4743409,83.82 62.8101933,84.72 66.4766257,84.42 C69.5119508,84.18 72.216696,83.49 74.7711775,81.63 C79.5495606,78.24 82.885413,73.86 84.6585237,68.37 C85.1994728,66.69 85.2295255,64.71 85.0191564,62.91 C84.8388401,61.32 84.087522,59.76 83.3963093,58.26 C82.2242531,55.65 80.1205624,53.91 77.9267135,52.17 C74.0499121,49.08 69.9026362,47.64 64.8838313,49.02 C60.6163445,50.19 57.5509666,53.04 54.8462214,56.13 C52.6824253,58.59 51.3901582,61.77 50.3984183,65.1 C49.2864675,68.94 49.6170475,72.54 50.6388401,76.11 C51.5103691,78.81 53.7042179,80.58 56.2887522,82.08 Z" id="Shape"></path>
                <path d="M46.4915641,82.71 C47.3630931,83.67 48.1745167,84.51 48.8957821,85.44 C49.1061511,85.74 48.9859402,86.25 49.015993,86.7 C48.6553603,86.52 48.2346221,86.43 47.9340949,86.16 C47.2428822,85.59 46.7019332,85.08 45.7101933,84.84 C44.8987698,84.63 44.3578207,83.34 43.6966608,82.53 C43.2458699,81.99 42.8251318,81.45 42.4043937,80.91 C42.4344464,81.57 42.3743409,82.23 42.5246046,82.83 C42.7950791,84 43.1857645,85.17 43.456239,86.34 C43.5463972,86.67 43.3961336,87.06 43.3660808,87.42 C43.0956063,87.18 42.6448155,87 42.5546573,86.7 C42.1038664,85.44 41.6831283,84.15 41.3826011,82.86 C40.841652,80.34 40.3608084,77.79 39.9100176,75.24 C39.6695958,73.77 39.4892794,72.3 39.3390158,70.8 C39.2188049,69.54 39.098594,68.28 39.0685413,67.02 C39.0384886,66.63 39.1586995,66.18 39.3690685,65.85 C39.5193322,65.58 39.8799649,65.43 40.1804921,65.25 C40.3908612,65.55 40.7214411,65.85 40.7815466,66.18 C41.2022847,68.94 41.5629174,71.73 41.9536028,74.52 C42.4043937,77.79 44.0272408,80.43 46.4915641,82.71 Z" id="Path"></path>
                <path d="M69.7523726,129.54 C72.9680141,129.72 76.0033392,129.93 79.068717,130.11 C83.4564148,130.35 87.2130053,128.79 90.5488576,126 C90.8193322,125.76 91.1499121,125.58 91.4804921,125.49 C91.7209139,125.43 92.0214411,125.52 92.2919156,125.55 C92.141652,125.82 92.0815466,126.12 91.8711775,126.33 C89.7073814,128.58 87.1829525,130.26 84.1776801,131.13 C83.3061511,131.37 82.344464,131.49 81.4428822,131.52 C78.5878735,131.58 75.702812,131.73 72.8478032,131.49 C69.3917399,131.16 65.9356766,130.59 62.9003515,128.64 C62.5998243,128.46 62.4195079,128.07 62.1790861,127.8 C62.5096661,127.59 62.8101933,127.29 63.1407733,127.23 C63.9822496,127.14 64.6734622,127.32 65.4848858,127.92 C66.4465729,128.64 67.7989455,128.82 68.9710018,129.24 C69.2114236,129.33 69.4217926,129.42 69.7523726,129.54 Z" id="Path"></path>
                <path d="M100.796837,86.4 C101.968893,83.4 103.080844,80.55 104.313005,77.73 C104.523374,77.25 105.124429,76.95 105.57522,76.56 C105.635325,77.07 105.9058,77.67 105.725483,78.12 C104.373111,81.57 103.171002,85.08 101.518102,88.35 C100.015466,91.26 97.5210896,93.48 94.8463972,95.34 C92.9230228,96.66 90.8193322,97.71 88.7757469,98.82 C88.4752197,98.97 87.9943761,98.82 87.6036907,98.79 C87.7539543,98.49 87.784007,98.07 88.0244288,97.92 C89.527065,96.93 91.059754,95.97 92.6224956,95.04 C95.627768,93.21 98.1521968,90.87 100.225835,88.02 C100.466257,87.6 100.586467,87.06 100.796837,86.4 Z" id="Path"></path>
                <path d="M110.353603,96.24 C111.705975,93.09 113.088401,90.09 114.440773,87.09 C114.470826,87.06 114.530931,87.03 114.530931,87 C114.440773,84.27 114.981722,81.54 114.110193,78.87 C113.989982,78.48 113.839719,78.09 113.839719,77.7 C113.839719,77.43 114.050088,77.01 114.29051,76.92 C114.530931,76.83 115.011775,77.01 115.131986,77.22 C115.522671,77.97 116.003515,78.75 116.093673,79.56 C116.304042,81.33 116.304042,83.13 116.424253,84.93 C116.514411,86.4 116.243937,87.75 115.552724,89.07 C113.869772,92.31 112.30703,95.64 110.563972,98.88 C110.263445,99.45 109.452021,99.78 108.881019,100.23 C108.971178,99.54 108.971178,98.79 109.211599,98.16 C109.482074,97.5 109.962917,96.96 110.353603,96.24 Z" id="Path"></path>
                <path d="M107.528647,106.44 C108.911072,104.61 110.203339,102.84 111.525659,101.04 C111.64587,100.89 111.705975,100.71 111.826186,100.59 C112.186819,100.23 112.577504,99.87 112.938137,99.51 C112.96819,100.11 113.148506,100.77 112.96819,101.25 C111.345343,105.45 108.00949,108.18 104.463269,110.64 C101.367838,112.8 98.1822496,114.81 95.0567663,116.88 C94.7862917,117.06 94.5158172,117.24 94.2453427,117.33 C93.8546573,117.42 93.4339192,117.42 93.013181,117.45 C93.2235501,116.97 93.3137083,116.25 93.6743409,116.01 C97.1003515,113.7 100.586467,111.51 104.012478,109.23 C105.184534,108.45 106.296485,107.43 107.528647,106.44 Z" id="Path"></path>
                <path d="M60.7065026,113.4 C63.5615114,114.54 66.3564148,115.65 69.1813708,116.61 C70.4135325,117.03 71.7659051,117.27 73.0581722,117.33 C73.8094903,117.36 74.5608084,116.85 75.3421793,116.61 C75.702812,116.49 76.3038664,116.28 76.3940246,116.4 C76.6344464,116.7 76.78471,117.24 76.6945518,117.6 C76.3339192,119.01 74.831283,119.58 72.8778559,119.13 C68.06942,118.02 63.4112478,116.4 59.0235501,114.15 C56.8898067,113.07 54.9964851,111.48 53.043058,110.07 C52.7725835,109.86 52.6824253,109.35 52.5321617,108.99 C53.0130053,109.08 53.5239016,109.05 53.914587,109.29 C56.1685413,110.58 58.3924429,111.96 60.7065026,113.4 Z" id="Path"></path>
                <path d="M30.3532513,92.19 C31.2247803,96.12 32.0963093,99.9 32.9678383,103.68 C33.0279438,104.01 32.997891,104.34 32.9678383,104.7 C32.9678383,104.88 32.8776801,105.06 32.8476274,105.21 C32.6372583,105.12 32.3367311,105.06 32.2766257,104.91 C31.7056239,103.65 31.0745167,102.42 30.6838313,101.1 C29.9926186,98.76 29.4216169,96.42 28.9107206,94.05 C28.7304042,93.15 28.8806678,92.19 28.8806678,91.23 C28.8806678,89.73 28.8506151,88.23 28.9407733,86.73 C28.970826,86.34 29.3615114,85.95 29.6019332,85.56 C29.9625659,85.92 30.4734622,86.22 30.6237258,86.67 C31.3449912,88.47 30.6237258,90.27 30.3532513,92.19 Z" id="Path"></path>
                <path d="M45.1391916,115.65 C42.3442882,111.87 38.7379613,108.69 37.4456942,104.04 C36.9047452,102.18 36.3637961,100.35 35.9130053,98.46 C35.8228471,98.07 36.1233743,97.62 36.2435852,97.17 C36.5140598,97.5 36.9047452,97.77 37.0249561,98.16 C37.5959578,99.9 38.0768014,101.67 38.5876977,103.44 C39.3690685,106.2 41.0219684,108.48 42.8852373,110.61 C44.2376098,112.17 45.6200351,113.7 46.942355,115.26 C47.1827768,115.56 47.3029877,115.98 47.483304,116.34 C47.0625659,116.28 46.611775,116.31 46.2210896,116.19 C45.8604569,116.1 45.5899824,115.83 45.1391916,115.65 Z" id="Path"></path>
                <path d="M82.4646749,106.02 C86.6420035,105.27 90.4586995,103.89 93.9147627,101.55 C94.1551845,101.37 94.4857645,101.19 94.756239,101.19 C95.086819,101.19 95.4474517,101.4 95.7780316,101.49 C95.627768,101.79 95.5676626,102.24 95.3572935,102.36 C94.0650264,103.14 92.7727592,104.04 91.3602812,104.58 C88.9560633,105.54 86.4917399,106.47 83.9673111,107.01 C81.5330404,107.55 78.9785589,107.58 76.4541301,107.76 C76.0934974,107.79 75.702812,107.31 75.3121265,107.07 C75.702812,106.83 76.0634446,106.41 76.4541301,106.38 C78.4075571,106.26 80.3910369,106.2 82.4646749,106.02 Z" id="Path"></path>
                <path d="M89.9778559,66.96 C91.1499121,66.84 91.7509666,67.74 91.4504394,68.97 C90.729174,72.15 89.1664323,74.91 87.243058,77.46 C85.6803163,79.53 83.9072056,81.45 82.1641476,83.4 C81.9237258,83.67 81.3827768,83.7 80.9620387,83.85 C81.0822496,83.43 81.0521968,82.83 81.3226714,82.59 C84.0274165,80.16 86.1010545,77.25 87.8741652,74.16 C88.8659051,72.42 89.3768014,70.35 90.0079086,68.43 C90.1581722,68.01 89.9778559,67.5 89.9778559,66.96 Z" id="Path"></path>
                <path d="M62.299297,110.94 C62.5397188,111.33 62.7200351,111.63 62.9003515,111.93 C62.5096661,111.99 62.0588752,112.2 61.7282953,112.08 C61.097188,111.84 60.556239,111.39 59.9852373,111.03 C56.9799649,109.11 53.914587,107.22 50.96942,105.21 C50.3082601,104.76 49.887522,103.92 49.4968366,103.2 C49.3766257,102.96 49.7372583,102.48 49.8574692,102.09 C50.2181019,102.24 50.6989455,102.3 50.8792619,102.57 C52.5922671,105.36 55.4472759,106.59 58.1219684,108.15 C59.5644991,108.96 60.8567663,109.95 62.299297,110.94 Z" id="Path"></path>
                <path d="M84.0574692,85.05 C86.702109,83.13 89.4068541,81.48 90.9996485,78.54 C91.4504394,77.7 92.6224956,77.22 93.4639719,76.59 C93.5841828,76.83 93.8546573,77.13 93.8246046,77.34 C93.4940246,79.35 91.9012302,80.52 90.5188049,81.72 C88.6254833,83.37 86.5217926,84.81 84.5082601,86.34 C84.4181019,86.4 84.3880492,86.52 84.297891,86.52 C83.6667838,86.61 83.0356766,86.64 82.4346221,86.7 C82.7952548,86.22 83.1258348,85.74 83.5165202,85.29 C83.5766257,85.2 83.8170475,85.17 84.0574692,85.05 Z" id="Path"></path>
                <path d="M65.6952548,89.88 C68.73058,89.4 71.6156415,88.95 74.500703,88.47 C74.7711775,88.44 75.0717047,88.38 75.3421793,88.44 C75.5826011,88.5 75.8230228,88.68 76.0634446,88.8 C75.8831283,88.98 75.7328647,89.22 75.5525483,89.28 C73.3887522,89.88 71.2249561,90.48 69.0611599,91.02 C67.7688928,91.32 66.4766257,91.5 65.1543058,91.74 C64.6434095,91.83 64.1024605,92.01 63.6516696,91.86 C63.2008787,91.71 62.9003515,91.2 62.5096661,90.87 C62.9003515,90.63 63.2309315,90.3 63.6516696,90.18 C64.2827768,90 64.9439367,89.97 65.6952548,89.88 Z" id="Path"></path>
                <path d="M74.1100176,38.07 C75.5525483,38.46 76.8448155,38.82 78.1070299,39.24 C78.3474517,39.33 78.4977153,39.72 78.7080844,39.99 C78.3474517,40.08 77.9567663,40.29 77.6261863,40.23 C76.9950791,40.17 76.3940246,39.81 75.7929701,39.81 C74.0799649,39.84 72.3669596,39.99 70.6539543,40.08 C70.4135325,40.08 70.143058,40.14 69.9326889,40.08 C69.5720562,39.96 69.2414763,39.72 68.9108963,39.54 C69.1813708,39.33 69.4217926,39 69.7223199,38.94 C71.1047452,38.64 72.5472759,38.37 74.1100176,38.07 Z" id="Path"></path>
                <path d="M72.7275923,91.98 C73.5991213,91.77 74.4405975,91.74 75.2219684,91.5 C76.5142355,91.08 77.7764499,90.45 79.068717,90.03 C79.4594025,89.91 79.9702988,90.18 80.4210896,90.3 C80.2107206,90.63 80.0604569,91.17 79.7599297,91.26 C77.7764499,91.92 75.7629174,92.52 73.7193322,93.06 C73.0581722,93.24 72.5472759,92.91 72.7275923,91.98 Z" id="Path"></path>
                <path d="M79.1288225,44.37 C77.6261863,44.16 76.2137083,44.04 74.7711775,43.86 C74.3504394,43.8 73.959754,43.56 73.5390158,43.41 C73.8695958,43.08 74.2001757,42.51 74.5608084,42.48 C76.8448155,42.27 79.0386643,42.54 81.0521968,43.74 C81.2625659,43.86 81.3827768,44.19 81.5330404,44.43 C81.2926186,44.52 81.0521968,44.73 80.811775,44.73 C80.270826,44.67 79.729877,44.55 79.1288225,44.37 Z" id="Path"></path>
                <path d="M59.8349736,117.15 C60.3759227,117.27 60.886819,117.21 61.2775044,117.39 C61.6681898,117.57 61.9086116,117.96 62.2391916,118.29 C61.9086116,118.47 61.5479789,118.8 61.2173989,118.8 C59.2339192,118.83 57.5209139,118.02 56.0182777,116.79 C55.8079086,116.64 55.8079086,116.22 55.7177504,115.92 C56.0483304,115.89 56.4089631,115.71 56.6794376,115.8 C57.731283,116.19 58.7530756,116.64 59.8349736,117.15 Z" id="Path"></path>
                <path d="M97.2205624,97.62 C96.5594025,98.1 95.958348,98.55 95.3272408,98.91 C95.0567663,99.06 94.6660808,98.97 94.3355009,98.97 C94.3655536,98.67 94.3054482,98.22 94.4557118,98.1 C95.958348,96.9 97.5210896,95.76 99.0838313,94.62 C99.2340949,94.5 99.5947276,94.65 99.8652021,94.65 C99.7449912,95.07 99.7449912,95.64 99.4745167,95.91 C98.8434095,96.51 98.0319859,97.02 97.2205624,97.62 Z" id="Path"></path>
                <path d="M70.5637961,105.57 C69.6321617,105.12 68.7606327,104.76 67.9492091,104.31 C67.6787346,104.16 67.6186292,103.74 67.4383128,103.44 C67.7087873,103.35 68.0393673,103.14 68.2797891,103.2 C69.6321617,103.65 70.9544815,104.16 72.2768014,104.7 C72.5172232,104.79 72.6374341,105.21 72.8177504,105.48 C72.3970123,105.63 71.9762742,105.84 71.5254833,105.9 C71.2249561,105.96 70.9244288,105.75 70.5637961,105.57 Z" id="Path"></path>
                <path d="M60.1355009,42.63 C61.3676626,42.21 62.5096661,41.85 63.711775,41.58 C63.9521968,41.52 64.2827768,41.91 64.5532513,42.09 C64.3428822,42.3 64.1625659,42.57 63.8920914,42.69 C62.7200351,43.2 61.5179262,43.71 60.2857645,44.13 C60.0753954,44.22 59.7147627,43.92 59.4142355,43.83 C59.6246046,43.44 59.8349736,43.08 60.1355009,42.63 Z" id="Path"></path>
                <path d="M82.8253076,124.89 C83.3061511,125.22 83.6367311,125.55 83.9973638,125.88 C83.5766257,126.03 83.1859402,126.3 82.7652021,126.33 C81.8035149,126.39 80.811775,126.39 79.8500879,126.33 C79.6697715,126.33 79.5195079,125.94 79.3692443,125.73 C79.6096661,125.55 79.8200351,125.25 80.0905097,125.22 C80.9319859,125.07 81.8035149,125.01 82.8253076,124.89 Z" id="Path"></path>
                <path d="M33.2383128,68.76 C33.2383128,67.65 33.2082601,66.66 33.2984183,65.7 C33.328471,65.49 33.8093146,65.31 34.0797891,65.1 C34.2,65.4 34.3803163,65.67 34.3803163,65.97 C34.4103691,66.96 34.4404218,67.98 34.3803163,68.97 C34.3502636,69.39 33.9896309,69.78 33.7792619,70.17 C33.5989455,69.78 33.4186292,69.33 33.2383128,68.76 Z" id="Path"></path>
                <path d="M86.2813708,122.88 C85.6502636,123.06 85.1393673,123.33 84.628471,123.42 C84.5383128,123.45 84.1476274,122.79 84.2077329,122.55 C84.4481547,121.71 86.9725835,120.78 87.7539543,121.2 C87.9042179,121.29 87.9943761,121.86 87.9042179,121.95 C87.4534271,122.31 86.9425308,122.58 86.2813708,122.88 Z" id="Path"></path>
                <path d="M34.1098418,75.99 C34.1398946,75.51 34.0797891,75.12 34.2300527,74.91 C34.4103691,74.64 34.8010545,74.49 35.1015817,74.28 C35.2518453,74.61 35.5223199,74.91 35.5223199,75.24 C35.5824253,76.23 35.5523726,77.25 35.5223199,78.27 C35.5223199,78.48 35.4321617,78.72 35.3720562,78.93 C35.1316344,78.78 34.7710018,78.72 34.7108963,78.51 C34.4704745,77.7 34.3202109,76.92 34.1098418,75.99 Z" id="Path"></path>
                <path d="M49.1061511,119.61 C50.0077329,119.01 51.9311072,119.67 52.2316344,120.6 C52.2616872,120.69 52.171529,120.9 52.0513181,120.99 C51.2098418,121.65 49.1963093,120.78 49.1061511,119.61 Z" id="Path"></path>
                <path d="M56.0783831,89.1 C56.198594,89.22 56.198594,89.25 56.2586995,89.28 C56.7996485,89.55 57.3105448,89.82 57.8514938,90.09 C57.3706503,90.33 56.7996485,90.81 56.4089631,90.72 C55.8079086,90.54 55.2970123,89.97 54.7560633,89.55 C55.1768014,89.34 55.5975395,89.19 56.0783831,89.1 Z" id="Path"></path>
                <path d="M118.768366,75.42 C118.798418,74.64 118.858524,74.04 118.888576,73.41 C119.128998,73.47 119.579789,73.5 119.609842,73.59 C119.669947,74.34 120.451318,75.21 119.36942,75.81 C119.249209,75.87 118.978735,75.63 118.768366,75.42 Z" id="Path"></path>
                <path d="M125.349912,52.62 C124.057645,51.3 122.885589,50.01 121.653427,48.78 C119.579789,46.71 117.476098,44.7 115.40246,42.63 C115.222144,42.45 115.28225,42.03 115.222144,41.73 C115.582777,41.76 116.06362,41.64 116.304042,41.85 C117.566257,42.93 118.768366,44.04 119.970475,45.18 C122.194376,47.28 124.508436,49.29 126.582074,51.54 C128.655712,53.79 130.428822,56.31 132.412302,58.65 C133.283831,59.67 134.305624,60.54 135.207206,61.56 C135.718102,62.13 136.108787,62.82 136.439367,63.51 C136.559578,63.75 136.289104,64.17 136.168893,64.53 C135.868366,64.41 135.447627,64.38 135.267311,64.17 C132.652724,61.02 130.06819,57.84 127.453603,54.72 C126.822496,54.03 126.10123,53.37 125.349912,52.62 Z" id="Path"></path>
                <path d="M108.820914,30.63 C110.473814,31.89 112.066608,33.09 113.62935,34.29 C113.869772,34.47 114.230404,34.59 114.410721,34.83 C114.711248,35.19 114.921617,35.61 115.162039,36.03 C114.62109,36.03 113.989982,36.21 113.599297,35.97 C111.64587,34.71 109.722496,33.39 107.859227,32.01 C103.772056,28.98 99.985413,25.47 95.1168717,23.61 C94.7862917,23.49 94.6360281,22.98 94.3956063,22.62 C94.7862917,22.38 95.2671353,21.87 95.5376098,21.96 C96.5894552,22.32 97.6713533,22.74 98.572935,23.37 C101.998946,25.68 105.364851,28.14 108.820914,30.63 Z" id="Path"></path>
                <path d="M120.421265,41.49 C118.678207,42.27 118.407733,40.5 117.566257,39.84 C117.085413,39.48 116.995255,38.58 116.784886,37.92 C116.754833,37.86 117.38594,37.5 117.415993,37.53 C118.467838,38.7 119.489631,39.93 120.481371,41.13 C120.541476,41.19 120.511424,41.31 120.421265,41.49 Z" id="Path"></path>
                <path d="M107.949385,39.03 C107.769069,38.85 107.648858,38.76 107.588752,38.64 C107.318278,38.13 107.077856,37.62 106.807381,37.14 C107.408436,37.32 108.00949,37.47 108.580492,37.65 C108.730756,37.71 108.941125,37.89 108.971178,38.04 C109.091388,38.55 109.151494,39.09 109.211599,39.63 C108.850967,39.45 108.430228,39.27 107.949385,39.03 Z" id="Path"></path>
                <path d="M33.5388401,124.89 C34.4704745,124.8 35.2518453,124.71 36.0332162,124.65 C36.0332162,124.92 36.0933216,125.4 36.0031634,125.43 C35.2217926,125.73 34.4103691,126.03 33.5688928,126.15 C32.0061511,126.39 30.4434095,126.51 28.8506151,126.63 C28.6101933,126.66 28.3697715,126.42 28.1293497,126.33 C28.3096661,126.09 28.429877,125.67 28.640246,125.64 C30.2029877,125.34 31.7957821,125.13 33.5388401,124.89 Z" id="Path"></path>
                <path d="M153.839895,9.42 C153.56942,9.57 153.178735,9.72 153.028471,9.6 C151.91652,8.55 150.834622,7.47 149.782777,6.36 C149.632513,6.21 149.572408,5.88 149.632513,5.7 C149.692619,5.55 150.083304,5.34 150.173462,5.4 C150.834622,5.73 151.58594,6.03 152.036731,6.57 C152.757996,7.38 153.268893,8.37 153.839895,9.42 Z" id="Path"></path>
                <path d="M59.1137083,58.26 C58.9634446,58.02 58.8732865,57.87 58.8432337,57.69 C58.7831283,57.3 58.7530756,56.91 58.6929701,56.49 C59.1137083,56.61 59.6246046,56.61 59.9852373,56.85 C60.4961336,57.21 60.8567663,57.75 61.3376098,58.14 C61.6080844,58.35 61.968717,58.47 62.299297,58.62 C62.3594025,58.23 62.5998243,57.81 62.4796134,57.48 C62.2692443,56.79 61.8785589,56.19 61.6080844,55.53 C61.5179262,55.29 61.6080844,54.99 61.6381371,54.75 C61.9086116,54.81 62.299297,54.78 62.4195079,54.96 C62.9905097,55.74 63.4413005,56.55 63.9822496,57.36 C64.1926186,57.69 64.4630931,58.02 64.7035149,58.35 C64.8537786,57.99 65.0942004,57.6 65.1242531,57.24 C65.1843585,56.13 65.0942004,54.99 65.1843585,53.88 C65.2144112,53.52 65.6050967,53.22 65.8455185,52.86 C65.9957821,53.22 66.2662566,53.58 66.2963093,53.97 C66.3564148,54.96 66.2061511,55.2 67.6186292,54.81 C69.271529,54.39 69.6922671,53.64 70.1130053,52.32 C70.2031634,52.02 70.8943761,51.9 71.2850615,51.69 C71.4052724,52.08 71.6156415,52.44 71.6456942,52.83 C71.6757469,53.28 71.4954306,53.76 71.5254833,54.21 C71.5855888,55.47 72.6975395,56.04 73.7493849,55.38 C74.0198594,55.2 74.2602812,54.93 74.5608084,54.9 C74.8913884,54.87 75.2219684,55.02 75.5826011,55.11 C75.4623902,55.41 75.4022847,55.74 75.1919156,55.95 C74.6810193,56.58 74.0499121,57.12 73.5690685,57.75 C73.3887522,57.96 73.4789104,58.38 73.4488576,58.68 C73.7193322,58.56 74.0198594,58.47 74.2602812,58.32 C74.4706503,58.2 74.5908612,57.93 74.7711775,57.84 C75.0115993,57.72 75.3121265,57.69 75.5525483,57.63 C75.5525483,57.93 75.6427065,58.29 75.5224956,58.53 C75.2820738,58.98 74.8613357,59.31 74.5908612,59.73 C74.4105448,60 74.4105448,60.39 74.3203866,60.72 C74.6509666,60.6 75.041652,60.57 75.3121265,60.39 C76.3639719,59.64 77.3256591,58.77 78.4075571,58.05 C78.7080844,57.84 79.2790861,58.02 79.729877,58.02 C79.5195079,58.32 79.3091388,58.65 79.068717,58.95 C78.2272408,59.91 77.3557118,60.84 76.5142355,61.8 C76.3940246,61.95 76.3038664,62.13 76.1836555,62.31 C76.3639719,62.43 76.5743409,62.64 76.7546573,62.64 C77.11529,62.64 77.4759227,62.55 77.8365554,62.49 C78.8282953,62.34 79.8500879,62.16 80.8418278,62.1 C81.1724077,62.07 81.5029877,62.34 81.8335677,62.49 C81.5630931,62.73 81.3527241,63.12 81.0521968,63.21 C79.9702988,63.57 78.858348,63.75 77.8065026,64.14 C77.3857645,64.29 77.0251318,64.71 76.6644991,64.98 C77.0852373,65.16 77.5059754,65.49 77.9567663,65.52 C78.9184534,65.61 79.8801406,65.52 80.8418278,65.55 C81.0822496,65.55 81.3226714,65.79 81.5630931,65.91 C81.4128295,66.09 81.3226714,66.33 81.142355,66.42 C80.3309315,66.78 79.6697715,67.74 78.5578207,67.02 C78.2873462,66.84 77.6862917,66.96 77.3256591,67.11 C76.9650264,67.29 76.6945518,67.68 76.3940246,67.98 C76.7546573,68.13 77.1453427,68.28 77.5059754,68.43 C78.2873462,68.76 79.068717,69.06 79.8500879,69.45 C80.0003515,69.54 80.1205624,69.96 80.0604569,70.11 C79.9702988,70.29 79.6096661,70.41 79.399297,70.38 C78.3474517,70.26 77.3256591,70.08 76.2738137,69.87 C75.372232,69.69 75.372232,70.44 75.5826011,70.8 C76.0333919,71.52 76.7246046,72.09 77.2655536,72.78 C77.6862917,73.29 78.1671353,73.8 78.3775044,74.4 C78.4676626,74.7 78.0469244,75.21 77.7764499,75.54 C77.7163445,75.6 77.1453427,75.36 76.9349736,75.15 C76.3038664,74.52 75.8530756,73.71 75.1618629,73.17 C74.7110721,72.84 73.8695958,72.63 73.4188049,72.81 C72.5472759,73.23 73.088225,73.77 73.4789104,74.37 C74.1100176,75.39 74.5608084,76.53 74.9214411,77.67 C75.041652,78.03 74.5608084,78.54 74.3804921,78.99 C74.0799649,78.66 73.6892794,78.39 73.4789104,78.03 C73.0581722,77.25 72.8177504,76.35 72.3369069,75.63 C72.0664323,75.24 71.2550088,74.82 70.9845343,74.97 C70.3834798,75.27 69.8425308,75.75 70.3534271,76.74 C70.8342707,77.67 70.9845343,78.81 71.1949033,79.86 C71.2249561,80.07 70.9544815,80.31 70.8042179,80.55 C70.6539543,80.4 70.4435852,80.25 70.3534271,80.07 C69.9326889,79.17 69.602109,78.27 69.1813708,77.37 C69.0010545,76.98 68.7005272,76.62 68.4601054,76.26 C68.3098418,76.65 68.1295255,77.01 68.0393673,77.4 C67.8891037,78.21 67.859051,79.05 67.7087873,79.89 C67.6486819,80.22 67.3782074,80.52 67.197891,80.82 C66.987522,80.46 66.656942,80.16 66.5667838,79.77 C66.3864675,79.02 66.3864675,78.21 66.2362039,77.43 C66.1760984,77.1 65.9056239,76.83 65.7253076,76.53 C65.5149385,76.74 65.244464,76.92 65.0942004,77.16 C64.6734622,78 64.3428822,78.87 63.8920914,79.71 C63.7418278,79.98 63.3511424,80.1 63.0806678,80.28 C62.9604569,80.01 62.7500879,79.74 62.7801406,79.5 C62.9304042,78.72 62.9905097,77.79 63.4413005,77.19 C64.2226714,76.2 63.6817223,76.35 62.9304042,76.2 C61.2474517,75.81 60.7666081,77.16 59.9251318,78.03 C59.4743409,78.51 59.1137083,79.05 58.6629174,79.53 C58.4826011,79.74 58.1520211,79.8 57.8815466,79.92 C57.7613357,79.62 57.4608084,79.26 57.5509666,79.08 C58.0017575,78.03 58.602812,77.01 59.0836555,75.96 C59.3240773,75.48 59.4743409,74.97 59.6546573,74.46 C58.9934974,74.46 58.3022847,74.34 57.7012302,74.49 C56.859754,74.7 56.0783831,75.21 55.2068541,75.45 C54.786116,75.57 54.3052724,75.36 53.8244288,75.3 C54.0949033,74.85 54.245167,74.22 54.6358524,73.95 C55.2970123,73.44 56.1685413,73.2 56.859754,72.72 C57.1602812,72.51 57.2504394,72.03 57.4608084,71.7 C57.1302285,71.67 56.7695958,71.58 56.4390158,71.61 C55.4172232,71.67 54.3954306,71.82 53.373638,71.88 C53.1031634,71.88 52.8326889,71.58 52.5922671,71.43 C52.8026362,71.19 52.9528998,70.86 53.1933216,70.77 C53.9746924,70.53 54.8462214,70.5 55.5374341,70.11 C56.1084359,69.78 56.4690685,69.06 56.9198594,68.52 C56.3789104,68.28 55.8680141,67.95 55.327065,67.89 C54.7560633,67.83 54.1550088,68.1 53.5539543,68.13 C53.2233743,68.16 52.8627417,67.98 52.502109,67.89 C52.6523726,67.62 52.7425308,67.2 52.9829525,67.11 C54.0047452,66.63 55.0265378,66.18 56.0783831,65.88 C57.3105448,65.55 57.2203866,64.95 56.5592267,64.2 C56.1084359,63.66 55.5374341,63.21 55.0265378,62.67 C54.786116,62.43 54.6358524,62.13 54.4254833,61.86 C54.9063269,61.71 55.4172232,61.35 55.8079086,61.5 C56.4390158,61.71 56.9198594,62.25 57.5509666,62.55 C57.7913884,62.67 58.2121265,62.46 58.5126538,62.43 C58.4224956,62.22 58.3323374,61.98 58.1820738,61.83 C57.7913884,61.41 57.3405975,61.02 56.9799649,60.6 C56.7695958,60.36 56.6794376,60.06 56.529174,59.79 C56.9198594,59.73 57.3405975,59.55 57.7012302,59.64 C58.1520211,59.79 58.5126538,60.21 58.9934974,60.39 C59.3240773,60.54 59.7448155,60.51 60.1054482,60.57 C60.0453427,60.21 60.0453427,59.82 59.8950791,59.52 C59.7748682,59.04 59.4442882,58.71 59.1137083,58.26 L59.1137083,58.26 Z M70.5036907,60.06 C71.6456942,59.73 71.7057996,58.71 71.4653779,57.93 C71.2550088,57.3 70.5036907,56.46 69.9026362,56.37 C68.9710018,56.25 67.9492091,56.67 66.987522,56.91 C66.8973638,56.94 66.8973638,57.24 66.8673111,57.42 C66.7170475,58.95 68.6103691,60.45 70.5036907,60.06 Z" id="Shape"></path>
            </g>
        </g>
    </g>
</svg>