<?xml version="1.0" encoding="UTF-8"?>
<svg width="230px" height="159px" viewBox="0 0 230 159" version="1.1" xmlns="http://www.w3.org/2000/svg" xmlns:xlink="http://www.w3.org/1999/xlink">
    <!-- Generator: Sketch 53 (72520) - https://sketchapp.com -->
    <title>experience-3</title>
    <desc>Created with Sketch.</desc>
    <g id="Welcome" stroke="none" stroke-width="1" fill="none" fill-rule="evenodd">
        <g id="EVENTS" transform="translate(-959.000000, -2906.000000)" fill-rule="nonzero">
            <g id="experience-3" transform="translate(959.000000, 2906.000000)">
                <g id="Laag_2" transform="translate(1.199478, 6.311909)" fill="#FFF476">
                    <path d="M5.66453716,54.5469187 C5.66453716,54.5469187 13.6800522,56.2240832 15.7881356,57.7088847 C19.5814863,60.4139887 19.9683181,57.8952363 23.4258149,57.1588469 C28.280704,56.124896 36.9049544,46.2091871 40.3024772,45.0279584 C47.4093872,42.5542911 53.5477184,42.2116446 58.1986962,37.9075236 C62.8496741,33.6034026 66.6820078,23.7628355 67.074837,22.0165406 C67.8215124,18.7103025 64.567927,9.94275992 66.7119948,4.92028355 C68.8560626,-0.102192817 66.7119948,0.498941399 66.7119948,0.498941399 L29.1443286,0.13826087 L5.17874837,5.88510397 L0.170925684,9.47387524 L5.66453716,54.5469187 Z" id="Path"></path>
                    <path d="M76.3258149,81.7121739 C76.3258149,81.7121739 86.7642764,79.5 90.5216428,85.1867297 C93.7512386,90.0739509 91.9760104,97.8105482 88.2906128,99.5899055 C85.9636245,99.923535 77.3813559,83.849206 76.5327249,82.661966" id="Path"></path>
                    <path d="M84.4912647,104.06535 C84.4912647,104.06535 76.9285528,107.5369 70.421382,98.6220794 C66.9698827,93.8911531 68.8230769,85.5444045 72.7483703,84.4082609 C75.2432855,88.3577127 83.0878748,99.3734972 83.9335072,100.563743" id="Path"></path>
                    <path d="M20.9189048,119.493459 C20.9189048,119.493459 21.8185137,119.421323 23.0179922,119.403289 C23.4128679,119.390973 23.8025604,119.309598 24.1694915,119.162836 C25.0181226,118.84724 25.2370274,119.785009 25.8577575,120.184764 C26.8233377,120.924159 27.9178618,117.533762 28.2357236,115.459849 C28.4000627,114.288907 28.7239447,113.146109 29.1983051,112.06344 C29.1983051,112.06344 30.9345502,116.376578 31.0934811,117.494688 C31.252412,118.612798 31.99309,119.917259 33.2825293,119.439357 C34.5719687,118.961456 37.540678,117.221172 37.540678,117.221172 C37.540678,117.221172 34.1851369,121.489225 34.5,122.766635 C34.8148631,124.044045 31.7352021,128.49845 30.9405476,128.49845 C30.1458931,128.49845 20.9189048,119.493459 20.9189048,119.493459 Z" id="Path"></path>
                    <path d="M67.8994785,52.250586 C67.8350604,52.1401738 67.8332433,52.0039602 67.8946933,51.8918612 C67.9561432,51.7797622 68.0718256,51.7082589 68.1993481,51.7035539 C69.4647979,51.7035539 72.2295958,51.6284121 72.7183833,51.135482 C73.8028385,49.9826994 74.5803924,48.5748854 74.9794003,47.041758 C75.189309,46.1400567 75.5071708,44.3366541 75.6810952,43.5732136 C75.6810952,43.5333739 75.7133167,43.5010775 75.7530639,43.5010775 C75.7928111,43.5010775 75.8250326,43.5333739 75.8250326,43.5732136 C75.9029987,44.72138 75.9749674,47.1800189 76.235854,48.833138 C76.3775773,49.7556095 77.1443017,50.4526574 78.0740548,50.5042911 C79.888266,50.6064839 82.2542373,50.5463705 82.8719687,50.6004726 C83.7056063,50.6756144 81.9723598,53.0531002 81.8704042,53.3266163 C81.7684485,53.6001323 80.233116,63.7112098 79.7953064,66.569603 C79.7739781,66.7071415 79.6762022,66.8204152 79.543476,66.861349 C79.4107499,66.9022828 79.2663561,66.8636962 79.1715776,66.761966 L71.674837,58.7488469 C71.6555579,58.7293998 71.6393759,58.7070978 71.6268579,58.6827221 L67.8994785,52.250586 Z" id="Path"></path>
                    <path d="M80.0232073,132.832628 C74.0258149,129.631588 77.9391134,129.75482 78.2239896,129.75482 C79.4894394,129.75482 82.257236,129.679679 82.7460235,129.189754 C83.3847458,128.549546 84.5722295,129.051493 85.0070404,127.196994 C85.2169492,126.295293 85.534811,124.792457 85.7057366,124.029017 C85.7057366,123.989177 85.7379581,123.956881 85.7777053,123.956881 C85.8174526,123.956881 85.8496741,123.989177 85.8496741,124.029017 C85.9306389,125.177183 85.6697523,126.184083 85.9306389,127.840208 C86.077575,128.762949 87.19309,129.550435 88.1016949,129.760832 C90.2007823,130.241739 93.5743155,130.229716 94.1860495,130.286824 C95.0196871,130.361966 92.1019557,133.292495 91.8920469,133.484858 C90.2307692,135.056824 80.0232073,132.832628 80.0232073,132.832628 Z" id="Path"></path>
                    <path d="M34.4520209,55.5808696 C34.4520209,55.5808696 39.8496741,56.3413043 44.4256845,55.0729112 C47.0675359,54.3395274 48.9237288,53.3386389 51.004824,50.3840643 C52.1683181,48.7339509 54.8311604,47.1529679 56.1835724,45.1361626 L56.1835724,44.3276371 L49.1936115,44.9798677 L45.0284224,46.6720605 L40.8662321,48.5896786 L38.6172099,50.8439319 L36.1402868,53.2003781 L34.4520209,55.5808696 Z" id="Path"></path>
                    <path d="M7.22385919,60.8828733 C7.22385919,60.8828733 5.98839635,63.4707561 18.0191656,62.0069943 L14.4207301,59.7557467 L12.5075619,59.0794707 L9.02007823,58.2889792 L6.09934811,58.2889792 L7.22385919,60.8828733 Z" id="Path"></path>
                    <path d="M69.7766623,5.08559546 C70.1764824,5.6948626 70.4526233,6.37711767 70.589309,7.09338374 C70.7242503,8.09427221 70.8591917,11.0007561 71.4019557,11.7702079 C71.9447197,12.5396597 71.0511082,16.365879 71.0511082,16.365879 L68.9520209,9.20937618 L69.7766623,5.08559546 Z" id="Path"></path>
                </g>
                <g id="Contours" fill="#000000">
                    <path d="M229.74811,44.4598866 C229.74811,45.6290926 229.766102,46.6510208 229.74811,47.6669376 C229.65515,51.986087 229.538201,56.3022306 229.466232,60.6183743 C229.466232,61.1744234 229.742112,61.7364839 229.739113,62.2955388 C229.659148,70.6693384 229.559192,79.043138 229.439244,87.4169376 C229.370274,92.4514367 229.169361,97.4859357 229.169361,102.52344 C229.169361,107.35656 229.406258,112.189679 229.433246,117.025803 C229.481226,125.459716 229.481226,133.892628 229.433246,142.324537 C229.418253,144.771153 227.634029,145.841172 225.235072,145.330208 C223.256166,144.938572 221.251981,144.68847 219.237679,144.581796 C215.576271,144.320302 211.908866,144.164008 208.24146,143.962628 C204.643025,143.764253 201.011604,143.361493 197.398175,143.403573 C190.732073,143.460681 184.06897,143.740208 177.405867,143.971645 C172.970795,144.12794 168.538722,144.320302 164.109648,144.572779 C159.932464,144.816238 155.764276,145.218998 151.587093,145.435406 C150.021773,145.513554 148.438462,145.185936 146.864146,145.185936 C145.302509,145.152094 143.74119,145.266824 142.201173,145.528582 C141.628422,145.636786 141.064668,146.403233 140.722816,147.001361 C140.216037,147.903062 139.787223,148.522231 138.560756,148.504197 C133.762842,148.423043 128.964928,148.402004 124.167014,148.504197 C121.228292,148.561304 118.295567,148.997127 115.362842,148.997127 C114.403259,148.997127 113.263755,148.359924 112.523077,147.66862 C110.873794,146.117694 108.81369,145.56465 106.777575,145.231021 C103.538983,144.708034 100.195437,144.80121 96.974837,144.212098 C92.6087353,143.415595 88.2366362,143.41259 83.8435463,143.358488 C79.9872229,143.310397 76.1249022,142.98879 72.277575,143.127051 C69.4318123,143.226238 66.5980443,143.806333 63.7762712,144.284234 C60.0099087,144.924442 56.2525424,145.642798 52.5041721,146.388204 C50.2521512,146.833043 47.9851369,147.26586 45.7840939,147.89104 C40.8872229,149.318733 36.0173403,150.84862 31.1504563,152.381512 C26.1526293,153.952476 21.1687962,155.555501 16.198957,157.190586 C15.1134289,157.554272 14.1478488,158.281645 13.0623207,158.657353 C12.4625815,158.861739 11.5629726,158.939887 11.0981747,158.624291 C9.5988266,157.599357 8.55827901,156.108544 8.47431551,154.239017 C8.36636245,151.72327 8.47431551,149.195501 8.43833116,146.676749 C8.37535854,143.343459 8.23741851,140.013176 8.13846154,136.679887 C8.02750978,132.514026 7.94654498,128.348166 7.83859192,124.182306 C7.75762712,121.176635 7.67066493,118.15293 7.53872229,115.138242 C7.36679704,111.349093 7.16688396,107.55794 6.93898305,103.764783 C6.78904824,101.342212 6.5041721,98.9256522 6.37222947,96.5000756 C6.32425033,95.646465 6.64511082,94.7778261 6.63311604,93.9212098 C6.56714472,89.2023062 6.49217731,84.4834026 6.33324641,79.7705104 C6.19530639,75.5926276 5.97340287,71.4177505 5.73350717,67.245879 C5.59256845,64.8203025 5.25371578,62.4037429 5.16675359,59.9781664 C5.06479791,57.1618526 5.28670143,54.3275047 5.10977836,51.5141966 C4.836897,47.216087 4.42307692,42.9179773 3.91029987,38.6409074 C3.4125163,34.4329679 2.773794,30.2250284 2.11108214,26.0170888 C1.57131682,22.5515501 0.929595828,19.1040454 0.311864407,15.6415123 C0.0119947849,14.0034216 1.09452412,12.9634594 3.37353325,12.3082231 C6.32425033,11.4606238 9.2809648,10.6320605 12.2436767,9.82253308 C14.8045632,9.12521739 17.3624511,8.39183365 19.9563233,7.8147448 C23.0359844,7.1294518 26.1456323,6.56438563 29.2522816,6.01134216 C30.7569015,5.73016994 32.2753923,5.52950775 33.8013038,5.41020794 C38.6711864,5.07056711 43.5440678,4.7279206 48.4199478,4.52654064 C50.4890482,4.43937618 52.5701434,4.7910397 54.6422425,4.77601134 C59.0503259,4.73994329 63.4674055,4.3642344 67.8604954,4.5626087 C71.9147327,4.74595463 75.9569752,5.46431002 79.9842243,6.00232514 C82.8209909,6.37202268 85.6607562,6.74773157 88.4825293,7.20459357 C92.4468057,7.85982987 96.4230769,8.49102079 100.34837,9.33561437 C102.709152,9.84179289 105.018032,10.5662539 107.245372,11.4996975 C109.044589,12.2571267 110.663885,11.9475425 112.421121,11.6229301 C117.974707,10.5919849 122.718644,7.48712665 127.954368,5.66568998 C131.456845,4.44839319 134.977314,3.26115312 138.55176,2.2963327 C140.73781,1.69519849 143.031812,1.45173913 145.295828,1.20226843 C148.729335,0.823553875 152.171838,0.489924386 155.61734,0.300567108 C158.343155,0.156294896 161.083963,0.231436673 163.815776,0.282533081 C166.2897,0.327618147 168.802608,0.237448015 171.228553,0.634196597 C173.831421,1.06100189 176.353325,1.97773157 178.905215,2.69909263 C183.508214,3.99453686 188.105215,5.13669187 192.930117,5.49436673 C195.434029,5.68071834 197.63807,5.5394518 199.887093,4.52353497 C200.507823,4.24400756 201.311473,4.41232514 201.230508,5.48234405 C201.203525,5.73208653 201.203525,5.98401933 201.230508,6.23376181 C201.302477,6.69964083 201.413429,7.15650284 201.509387,7.61937618 C201.863233,7.37591682 202.235072,7.15650284 202.564928,6.88599244 C203.560495,6.06243856 205.863494,6.07145558 206.832073,6.95812854 C207.2309,7.3158034 207.809648,7.61336484 207.257888,8.37079395 C207.041982,8.67136106 207.236897,9.24844991 207.218905,9.69930057 C207.170926,10.9256144 206.985007,12.1038374 208.988136,11.4486011 C209.950717,11.13 211.105215,11.3434026 212.169752,11.4125331 C212.787484,11.4516068 213.246284,11.7311342 212.631551,12.4404726 C212.007823,13.2249527 212.196741,13.5255198 213.207301,13.5255198 C214.772621,13.4894518 216.346936,13.4413611 217.906258,13.5255198 C219.978357,13.6487524 222.038462,13.9312854 224.107562,14.0965974 C224.968188,14.1627221 225.840808,14.072552 226.704433,14.1146314 C228.308735,14.1897732 229.070404,14.995293 229.145372,16.6574291 C229.256323,19.1190737 229.361278,21.583724 229.445241,24.0483743 C229.556193,27.2283743 229.691134,30.4083743 229.745111,33.59138 C229.796089,37.1651229 229.745111,40.7388658 229.745111,44.4628922 L229.74811,44.4598866 Z M196.609518,119.905236 C196.80827,119.8747 197.010504,119.8747 197.209257,119.905236 C199.164407,120.575501 199.161408,120.581512 199.161408,118.678922 C199.161408,113.851815 199.185398,109.027713 199.161408,104.200605 C199.161408,102.637656 198.879531,101.077713 198.894524,99.5177694 C198.918514,96.9028355 199.095437,94.2909074 199.167405,91.6759735 C199.209387,90.0559168 199.20339,88.4358601 199.167405,86.8158034 C199.086441,82.8002268 198.918514,78.7846503 198.894524,74.7660681 C198.879531,72.4036106 199.143416,70.0411531 199.161408,67.6786957 C199.200391,61.7485066 199.161408,55.8213233 199.161408,49.8941399 L199.161408,42.3348771 C199.161408,38.0758412 199.1794,33.8168053 199.161408,29.560775 C199.161408,28.6590737 198.861538,27.733327 198.897523,26.82862 C199.032464,24.105482 199.320339,21.3853497 199.449283,18.6622117 C199.497262,17.6583176 199.176402,16.6393951 199.194394,15.6294896 C199.230378,13.3181285 199.401304,11.0067675 199.464276,8.69240076 C199.506258,7.0873724 199.080443,6.93708885 197.518123,7.44204159 C196.513559,7.76665406 195.383051,7.75763705 194.306519,7.76965974 C193.443951,7.72988982 192.584674,7.6365348 191.733638,7.49013233 C189.967405,7.28875236 188.135202,7.28875236 186.443937,6.84992439 C182.212777,5.7678828 178.047588,4.39128544 173.822425,3.31826087 C171.430476,2.70674147 168.988847,2.31042442 166.526597,2.13402647 C164.286571,1.98374291 162.028553,2.36245747 159.75854,2.36546314 C154.864668,2.36546314 149.979791,2.41655955 145.136897,3.26716446 C142.53103,3.72703214 139.853194,3.67593573 137.319296,4.67381853 C135.12425,5.53644612 132.800261,6.06544423 130.59322,6.90703214 C127.531551,8.07323251 124.331943,9.06810964 121.543155,10.7302457 C117.596871,13.0806805 113.950456,15.9300567 110.26206,18.6622117 C109.539374,19.1972212 108.693742,20.1650473 108.684746,20.9555388 C108.657757,23.4262004 109.026597,25.896862 109.194524,28.3705293 C109.419426,31.6917958 109.602347,35.0160681 109.794263,38.3403403 C109.995176,41.7127032 110.244068,45.0850662 110.394003,48.4604348 C110.631899,54.1852363 110.831812,59.9130435 110.993742,65.6438563 C111.053716,67.7147637 110.918774,69.7916824 111.02073,71.8565784 C111.269622,76.8940832 111.620469,81.9255766 111.887353,86.9630813 C111.980313,88.7664839 111.824381,90.6089603 111.923338,92.4243856 C112.028292,94.2999244 112.343155,96.1634405 112.49309,98.0359735 C112.726988,100.957486 112.948892,103.878998 113.092829,106.806522 C113.248761,110.067675 113.305737,113.334839 113.392699,116.598998 C113.479661,119.863157 113.590613,123.127316 113.692568,126.391474 C113.692568,126.625917 113.788527,126.857353 113.809518,127.091796 C114.073403,129.941172 114.409257,132.784537 114.556193,135.639924 C114.634159,137.040567 114.337288,138.459244 114.316297,139.871909 C114.316297,140.325766 114.649153,140.773611 114.829074,141.242495 C115.149935,140.863781 115.659713,140.530151 115.752673,140.10034 C116.195687,138.02331 117.322607,136.155915 118.952282,134.798336 C122.781617,131.419962 126.514993,128.029565 130.98605,125.420643 C134.407562,123.424877 137.883051,121.71465 141.697392,120.855028 C146.168395,119.821677 150.689383,119.019108 155.242503,118.450491 C159.844992,117.900631 164.473685,117.599628 169.108475,117.54879 C172.17914,117.509716 175.249804,118.149924 178.332464,118.366333 C182.392699,118.642854 186.464928,118.721002 190.525163,119.015558 C192.462321,119.153819 194.375489,119.586635 196.600522,119.887202 L196.609518,119.905236 Z M65.4075619,40.9883365 C66.5080834,38.8843667 67.7015645,36.8344991 68.6791395,34.6764272 C69.5187744,32.8279395 70.1275098,30.8712476 70.8112125,28.9656522 C71.3779661,27.3756522 72.0646675,25.8337429 71.4289439,24.0423629 C70.727249,22.0736484 69.9715776,20.0748771 69.671708,18.0310208 C69.4068077,15.941136 69.4118471,13.8257385 69.6867014,11.7371456 C69.779661,10.9316257 70.7692308,10.2192817 71.3749674,9.48589792 C71.6538462,9.14625709 71.9926988,8.85470699 72.3045632,8.5421172 C71.8667536,8.39183365 71.4319426,8.11831758 70.9911343,8.11230624 C67.7765319,8.07623819 64.5589309,8.16039698 61.3473272,8.05820416 C60.036897,8.01913043 59.1732725,8.44593573 58.2376793,9.33561437 C57.233116,10.2944234 55.9376793,10.9586767 54.7232073,11.6680151 C54.5043025,11.7942533 54.054498,11.5237429 53.7126467,11.4365784 C53.8718639,11.1515808 54.074177,10.8930316 54.3123859,10.6701323 C55.2119948,10.0689981 56.1595828,9.57005671 57.056193,8.97793951 C57.2960887,8.82164461 57.4220339,8.48500945 57.598957,8.22952741 C57.2601043,8.0852552 56.8432855,7.73659735 56.5973924,7.82977316 C55.8566971,8.1093859 55.1583283,8.49074058 54.5222947,8.96291115 C53.529681,9.75307658 52.1281349,9.76546464 51.1217731,8.99296786 C50.4840659,8.523725 49.7362065,8.22761273 48.9507171,8.13334594 C46.8877531,8.00561349 44.8190801,7.99959176 42.7554107,8.11531191 C39.2259452,8.33172023 35.684485,8.5421172 32.1880052,9.03504726 C28.5026076,9.55202268 24.8741851,10.4567297 21.203781,11.0849149 C15.6992303,12.0373004 10.3847795,13.8765121 5.46662321,16.5311909 C4.70795306,16.9369565 4.07522816,17.3757845 4.51003911,18.5149338 C4.88787484,19.5158223 4.98683181,20.6189036 5.13676662,21.7099622 C5.46662321,24.0363516 5.7095176,26.3747637 6.05736636,28.6951418 C6.51916558,31.8 7.2208605,34.8808129 7.50273794,38.0127221 C7.87757497,42.1575425 7.97953064,46.3264083 8.13546284,50.4862571 C8.28239896,54.3515501 8.41134289,58.2168431 8.4053455,62.0821361 C8.4053455,63.2423251 9.06205997,63.7021928 9.8327249,63.9847259 C10.6615232,64.2392549 11.5276,64.3500534 12.3936115,64.312344 C14.2258149,64.312344 15.932073,64.7361437 17.1915254,66.0886957 C18.163103,67.1226465 19.3445893,67.3721172 20.6100391,67.6636673 C21.4736636,67.8620416 22.2233377,68.2918526 22.2863103,66.8701701 C22.2863103,66.7108696 22.8410691,66.4313422 23.1169492,66.4553875 C26.3015645,66.7349149 29.1143416,65.5717202 31.6812256,63.9546692 C33.2675359,62.9567864 34.9797914,61.7665406 35.921382,60.2216257 C37.2947849,57.9403214 39.2529335,56.3803781 41.2110821,54.8534972 C45.6431551,51.3969754 51.0288136,50.3449905 56.4234681,49.6657089 C59.0863103,49.3380907 61.0324641,48.2951229 62.4418514,46.11 C63.4554107,44.5350284 64.4239896,42.9269943 65.4135593,41.0334216 L65.4075619,40.9883365 Z M200.654759,81.309414 L200.654759,87.3718526 C200.654759,91.7781664 200.633768,96.1844802 200.669752,100.596805 C200.669752,101.910284 200.954628,103.220756 200.936636,104.528223 C200.888657,108.41155 200.717731,112.291871 200.672751,116.175198 C200.657757,117.635955 200.915645,119.096711 200.939635,120.557467 C200.963625,122.084348 200.147979,122.616352 198.699609,122.36087 C195.101173,121.711645 191.52073,120.945198 187.904302,120.596541 C183.56219,120.178752 179.181095,120.148696 174.817992,119.941304 C174.536115,119.941304 174.260235,119.824083 173.978357,119.803043 C171.594394,119.643743 169.207432,119.463403 166.820469,119.36121 C165.92086,119.325142 165.021252,119.535539 164.136636,119.538544 C163.314993,119.538544 162.475359,119.265028 161.677705,119.370227 C158.328162,119.809055 155.005606,120.443251 151.650065,120.81896 C148.585398,121.158601 145.550717,121.549338 142.653977,122.643403 C139.802216,123.719433 136.929465,124.747372 134.146675,125.99172 C132.458032,126.787704 130.844231,127.734296 129.324772,128.820057 C127.603745,129.933722 125.972457,131.180888 124.445893,132.550095 C122.085919,134.786314 119.881877,137.193856 117.653846,139.568336 C117.443937,139.793762 117.539896,140.304726 117.491917,140.680435 C117.830972,140.726764 118.172367,140.753859 118.514472,140.761588 C119.447066,140.734537 120.505606,140.376862 121.27927,140.70448 C122.592699,141.254518 122.364798,140.48206 122.394785,139.781739 C122.454759,138.299943 122.769622,137.007505 124.238983,136.198979 C125.309518,135.597845 126.254107,134.792325 127.270665,134.095009 C129.102868,132.84465 130.854107,131.447013 132.800261,130.416068 C135.199218,129.141664 137.772099,128.188866 140.261017,127.079773 C144.684094,125.102042 149.053194,122.757618 153.998044,122.661437 C158.466102,122.574272 162.826206,121.441134 167.318253,121.657543 C171.072621,121.837883 174.847979,121.618469 178.608344,121.720662 C181.328162,121.792798 184.041982,122.054291 186.752803,122.321796 C190.687093,122.682476 194.618383,123.118299 198.549674,123.524064 C200.648761,123.734461 202.81382,123.764518 204.88292,124.194329 C205.923468,124.410737 206.040417,124.212363 206.064407,123.349735 C206.14837,120.644631 206.259322,117.924499 206.364276,115.210378 C206.364276,114.909811 206.385267,114.609244 206.400261,114.323705 C206.487223,112.658563 206.70013,110.98741 206.640156,109.32828 C206.526206,106.001002 206.178357,102.682741 206.094394,99.3584688 C206.037419,97.0651418 206.394263,94.7627977 206.334289,92.4694707 C206.253325,89.2443856 205.923468,86.0253119 205.779531,82.8002268 C205.695567,80.8856144 205.842503,78.9589792 205.743546,77.0413611 C205.644589,75.1237429 205.224772,73.3023062 205.191786,71.4297732 C205.110821,66.7078639 205.125815,61.9799433 205.191786,57.258034 C205.236767,53.173327 205.446675,49.0916257 205.45867,45.0099244 C205.45867,41.9471456 205.218774,38.8843667 205.194785,35.8185822 C205.146806,30.3452552 205.179791,24.8689225 205.179791,19.3925898 C205.179791,16.5372023 205.158801,13.6818147 205.197784,10.8294329 C205.197784,10.2282987 205.497653,9.64519849 205.566623,9.04406427 C205.548779,8.7897183 205.401452,8.56253364 205.176793,8.44293006 C204.678761,8.39037673 204.177175,8.38032169 203.677445,8.41287335 C201.902216,8.41287335 201.371447,8.89378072 201.278488,10.6791493 C201.149544,13.2580151 201.068579,15.8398866 200.978618,18.4187524 C200.876662,21.1809641 200.74472,23.9431758 200.678748,26.7083932 C200.626771,29.2271456 200.626771,31.7479017 200.678748,34.2706616 C200.732725,37.0028166 200.909648,39.731966 200.954628,42.4611153 C201.004607,45.4327221 201.004607,48.4043289 200.954628,51.3759357 C200.924641,53.1793384 200.687744,55.000775 200.681747,56.8131947 C200.648761,64.8744045 200.666754,72.93862 200.666754,81.300397 L200.654759,81.309414 Z M126.598957,137.807013 C125.771317,138.558431 124.919687,139.291815 124.122034,140.073289 C123.903782,140.361127 123.728051,140.678987 123.600261,141.01707 C123.886319,141.140576 124.189828,141.218658 124.49987,141.248507 C125.262942,141.194824 126.022027,141.094448 126.772881,140.94794 C127.828422,140.74656 129.00691,140.749565 129.063885,139.126503 C129.063885,138.684669 129.729596,138.185728 130.188396,137.852098 C130.82412,137.389225 131.594785,137.112703 132.233507,136.64983 C135.40013,134.392571 138.530769,132.087221 142.429074,131.221588 C145.022947,130.65051 147.649804,130.097467 150.123729,129.168715 C152.518895,128.251243 155.056593,127.763889 157.620469,127.728998 C158.319166,127.728998 159.02086,127.759055 159.719557,127.728998 C163.335984,127.539641 166.949413,127.323233 170.565841,127.145898 C170.865711,127.13087 171.183572,127.428431 171.489439,127.416408 C173.645502,127.344272 175.801565,127.187977 177.960626,127.148904 C179.247066,127.124858 180.536506,127.26913 181.825945,127.329244 C184.704694,127.464499 187.445502,128.871153 190.441199,128.07465 C191.768793,127.750589 193.140748,127.649028 194.501434,127.774083 C196.636506,127.933384 198.744589,128.480416 200.879661,128.603648 C204.21721,128.799017 207.452803,129.279924 210.475489,130.785766 C210.757366,130.924026 211.294133,130.98414 211.459061,130.824839 C211.683963,130.599414 211.710952,130.136541 211.758931,129.766843 C211.80691,129.397146 211.731943,128.925255 211.758931,128.507467 C211.854889,126.646957 212.058801,124.789452 212.058801,122.928941 C212.058801,120.668677 211.866884,118.420435 211.785919,116.142136 C211.749935,115.177316 211.818905,114.203478 211.767927,113.238658 C211.722947,112.37603 211.468057,111.516408 211.501043,110.656786 C211.540026,108.679055 211.800913,106.695312 211.749935,104.723592 C211.680965,102.246919 211.234159,99.7792628 211.216167,97.3086011 C211.18618,93.4433081 211.459061,89.5780151 211.459061,85.7127221 C211.459061,81.8474291 211.23116,77.9490737 211.210169,74.0687524 C211.210169,72.8664839 211.716949,71.6401701 211.69296,70.4318904 C211.656975,68.5533459 211.207171,66.6778072 211.210169,64.8022684 C211.210169,59.5663894 211.510039,54.3305104 211.453064,49.1006427 C211.354107,39.9664083 211.084224,30.8351796 210.853325,21.7039509 C210.853325,21.2921739 210.619426,20.889414 210.574446,20.4746314 C210.355541,18.4908885 210.163625,16.5011342 209.974707,14.5143856 C209.977396,14.3725142 210.028156,14.23578 210.118644,14.1266541 C210.754368,13.2580151 209.836767,13.0866919 209.458931,12.9544423 C208.190482,12.5065974 206.970013,13.5195085 206.970013,14.9351796 C206.970013,22.6156711 206.970013,30.2941588 206.970013,37.9706427 C206.970013,38.3463516 207.11395,38.7220605 207.13794,39.100775 C207.287875,41.6946692 207.524772,44.291569 207.524772,46.8884688 C207.524772,48.5085255 207.008996,50.1255766 206.997001,51.7456333 C206.970013,54.4747826 207.236897,57.2069376 207.239896,59.936087 C207.239896,62.4157656 206.982008,64.8954442 206.985007,67.3751229 C206.988005,69.8548015 207.170926,72.4006049 207.257888,74.9133459 C207.464798,80.88862 207.692699,86.8668998 207.857627,92.8421739 C207.932595,95.7125898 207.833638,98.5860113 207.878618,101.459433 C207.941591,105.273629 208.097523,109.087826 208.151499,112.902023 C208.151499,114.011115 207.902608,115.120208 207.884615,116.232306 C207.842634,118.853251 207.941591,121.480208 207.824641,124.095142 C207.791656,124.819509 207.317862,126.021777 206.841069,126.135992 C205.611604,126.43656 204.250196,126.358412 202.969752,126.208129 C199.221382,125.775312 195.491004,125.201229 191.745632,124.744367 C190.198305,124.558015 188.62399,124.597089 187.076662,124.416749 C184.038983,124.062079 181.019296,123.542098 177.975619,123.265577 C176.587223,123.139338 175.162842,123.521059 173.756454,123.50603 C171.381486,123.481985 169.000522,123.163384 166.63455,123.265577 C162.706258,123.430888 158.786962,123.806597 154.867666,124.143233 C153.583983,124.202786 152.310802,124.404389 151.071317,124.744367 C148.654368,125.516824 146.273403,126.424537 143.919426,127.38034 C140.755802,128.669773 137.604172,130.001285 134.497523,131.416957 C131.361219,132.826812 128.64224,135.026106 126.604954,137.801002 L126.598957,137.807013 Z M223.762712,117.663006 C223.762712,120.016446 223.795698,122.372892 223.762712,124.726333 C223.726728,126.761172 223.618774,128.799017 223.522816,130.833856 C223.441851,132.580151 223.300913,134.32344 223.258931,136.069735 C223.240939,136.887278 223.543807,137.72586 223.441851,138.525369 C223.222947,140.256635 222.023468,141.056144 220.704042,140.424953 C216.898696,138.60051 212.745502,138.495312 208.682269,137.972325 C207.650717,137.840076 206.520209,138.182722 205.548631,137.912212 C201.61734,136.818147 197.5691,136.661853 193.553846,136.51758 C188.608996,136.33724 183.658149,136.637807 178.689309,136.755028 C175.414733,136.831172 172.141156,136.931361 168.868579,137.055595 C167.309257,137.112703 165.746936,137.202873 164.19661,137.356163 C162.484355,137.527486 160.784094,137.813025 159.071838,138.005388 C158.0103,138.125614 156.894785,138.005388 155.878227,138.275898 C151.5691,139.421059 147.286962,140.680435 142.746936,140.352817 C142.549022,140.352817 142.303129,140.277675 142.147197,140.367845 C141.922295,140.509112 141.625424,140.764594 141.628422,140.968979 C141.700422,141.237278 141.903894,141.450287 142.168188,141.534045 C143.016819,141.69034 143.889439,141.894726 144.735072,141.834612 C148.015645,141.594159 151.284224,141.233478 154.561799,140.965974 C157.374576,140.731531 160.193351,140.575236 163.006128,140.364839 C166.580574,140.082306 170.149022,139.721626 173.729465,139.481172 C176.380313,139.303837 179.040156,139.180605 181.697001,139.180605 C184.053977,139.180605 186.41395,139.439093 188.770926,139.436087 C191.292829,139.436087 193.817731,139.22569 196.342634,139.168582 C198.441721,139.117486 200.579791,139.063384 202.687875,139.168582 C206.24133,139.360945 209.78279,139.469149 213.303259,140.283686 C216.772751,141.0862 220.368188,141.356711 223.909648,141.852647 C225.525945,142.078072 226.098696,141.645255 226.146675,140.151437 C226.257627,136.736994 226.479531,133.319546 226.422555,129.90811 C226.3206,123.629263 225.990743,117.353422 225.876793,111.074575 C225.822816,108.162079 226.062712,105.246578 226.143677,102.334083 C226.179661,101.014594 226.143677,99.695104 226.143677,98.3756144 C226.230639,93.7589036 226.350587,89.1421928 226.443546,84.525482 C226.479531,82.4555766 226.479531,80.3846692 226.443546,78.3127599 C226.359583,72.9967297 226.259626,67.6786957 226.143677,62.3586578 C226.059713,58.3941777 225.876793,54.4296975 225.867797,50.4622117 C225.867797,47.2491493 226.140678,44.0330813 226.125684,40.8200189 C226.104694,35.6532703 225.933768,30.4865217 225.852803,25.3167675 C225.816819,23.0474858 225.876793,20.7751985 225.816819,18.5059168 C225.816819,18.1362193 225.438983,17.5110397 225.160104,17.462949 C223.441851,17.1623819 221.702608,16.9970699 219.966362,16.822741 C217.753325,16.6003214 215.537288,16.3899244 213.318253,16.2486578 C213.018383,16.2306238 212.676532,16.6484121 212.352673,16.8648204 C212.652542,17.0481664 212.952412,17.3517391 213.252282,17.3998299 C214.961538,17.6402836 216.68279,17.8236295 218.398044,18.0189981 C220.629074,18.2714745 221.774576,19.4436862 221.645632,21.3011909 C221.609645,22.0190935 221.609645,22.7383545 221.645632,23.4562571 C221.739591,26.7204159 221.839548,29.9845747 221.945502,33.2487335 C222.035463,36.0620416 222.161408,38.8753497 222.245372,41.6916635 C222.284355,43.158431 222.245372,44.6282042 222.245372,46.0979773 L222.245372,53.0621172 C222.245372,56.3863894 222.269361,59.707656 222.245372,63.0319282 C222.155411,74.0386957 222.176402,85.0394518 223.14498,96.0161626 C223.276923,97.5189981 223.102999,99.0579017 223.174967,100.575766 C223.333898,103.800851 223.618774,107.019924 223.74472,110.245009 C223.837679,112.610473 223.762712,114.984953 223.762712,117.656994 L223.762712,117.663006 Z M201.122555,131.933932 C203.311604,132.324669 205.506649,132.676333 207.683703,133.115161 C210.08266,133.599074 212.445632,134.170151 214.949544,134.101021 C216.448892,134.061947 216.802738,133.352609 216.853716,132.216465 C217.083616,126.990605 217.283529,121.763743 217.453455,116.535879 C217.480443,115.77845 217.174576,115.012004 217.18957,114.254575 C217.23455,112.225747 217.489439,110.193913 217.44146,108.168091 C217.363494,105.375822 217.024641,102.589565 216.8897,99.7972968 C216.799739,97.930775 216.8897,96.0552363 216.865711,94.1857089 C216.787744,90.1190359 216.658801,86.0523629 216.565841,81.98569 C216.529857,80.0680718 216.52086,78.1444423 216.565841,76.2238185 C216.619817,74.1198488 216.841721,72.0008507 216.832725,69.8878639 C216.832725,67.0565217 216.619817,64.2251796 216.562842,61.3938374 C216.436897,55.5748582 216.370926,49.755879 216.24498,43.9368998 C216.208996,42.2236673 216.047066,40.5134405 215.945111,38.8002079 C215.738201,34.9258979 215.522295,31.0515879 215.345372,27.1772779 C215.2794,25.6744423 215.2794,24.1716068 215.345372,22.6687713 C215.411343,21.1659357 214.091917,21.2531002 213.342243,21.1028166 C212.406649,20.9134594 212.646545,21.9323819 212.640548,22.5184877 C212.619557,24.5563327 212.340678,26.6422684 212.70352,28.62 C213.14133,31.0936673 212.925424,33.5222495 212.928422,35.9748771 C212.928422,41.7517769 212.967405,47.5316824 212.928422,53.3085822 C212.895437,57.0746881 212.682529,60.8377883 212.661538,64.6038941 C212.661538,67.008431 212.886441,69.4310019 212.922425,71.8445558 C212.922425,72.9536484 212.679531,74.0657467 212.661538,75.177845 C212.661538,75.9352741 212.940417,76.6987146 212.922425,77.4561437 C212.874446,79.6863516 212.72751,81.9165595 212.652542,84.1467675 C212.652542,84.5645558 212.829465,84.9883554 212.844459,85.4091493 C212.892438,86.6474858 212.940417,87.8858223 212.913429,89.1241588 C212.844459,92.1899433 212.631551,95.2587335 212.673533,98.324518 C212.706519,100.698998 213.144329,103.064461 213.2103,105.438941 C213.264276,107.44673 212.943416,109.466541 212.976402,111.474329 C212.994394,112.796824 213.477184,114.113308 213.507171,115.435803 C213.543155,117.194121 213.276271,118.95845 213.261278,120.719773 C213.261278,121.982155 213.53116,123.244537 213.519166,124.503913 C213.501173,126.433554 213.390222,128.3662 213.219296,130.28983 C213.087353,131.840756 211.926858,133.024991 210.121643,132.327675 C207.446806,131.293724 204.72399,130.410057 201.758279,130.383006 C200.231943,130.383006 198.7206,129.670662 197.182269,129.568469 C194.92425,129.421191 192.651239,129.514367 190.384224,129.535406 C188.998827,129.535406 187.601434,129.763837 186.234029,129.631588 C183.865059,129.403157 181.526076,128.777977 179.160104,128.672779 C175.384746,128.507467 171.594394,128.549546 167.813038,128.651739 C163.947718,128.753932 160.076402,128.952306 156.220078,129.252873 C154.702738,129.379112 153.20339,129.88707 151.722034,130.319887 C149.365059,131.011191 147.071056,131.985028 144.675098,132.468941 C141.741599,133.035119 138.948421,134.17603 136.455671,135.826276 C134.575489,137.076635 132.668318,138.284915 130.815124,139.574348 C130.476271,139.80879 130.335332,140.331777 130.101434,140.722514 C131.114993,140.653384 132.590352,140.981002 133.049153,140.439981 C134.332595,138.937146 135.957888,138.035444 137.661147,137.377202 C140.159061,136.397353 142.779922,135.736106 145.343807,134.921569 C147.235984,134.353497 149.035202,133.472836 150.930378,133.181285 C154.735724,132.598185 158.58605,132.309641 162.421382,131.933932 C163.92073,131.786654 165.435072,131.705501 166.943416,131.633365 C167.843025,131.591285 168.781617,131.690473 169.69322,131.612325 C172.164146,131.40794 174.608083,132.213459 177.14498,131.410945 C178.863233,130.866919 180.842373,130.960095 182.68957,131.062287 C185.322425,131.209565 187.934289,131.732552 190.567145,131.888847 C192.312386,131.988034 194.078618,131.648393 195.838853,131.648393 C197.494133,131.648393 199.137419,131.825728 201.110561,131.924915 L201.122555,131.933932 Z M218.652934,132.676333 C218.652934,133.076087 218.652934,133.478847 218.652934,133.878601 C218.631943,135.697032 217.882269,136.256087 216.065059,135.841304 C215.828162,135.787202 215.564276,135.859338 215.318383,135.841304 C212.793481,135.540737 210.259583,135.303289 207.746675,134.939603 C204.846936,134.506786 201.980183,133.704272 199.068449,133.505898 C193.418905,133.124178 187.74837,132.943837 182.083833,132.904764 C178.818253,132.874707 175.552673,133.286484 172.287093,133.454802 C170.973664,133.520926 169.651239,133.397694 168.340808,133.475841 C163.866754,133.746352 159.3897,134.019868 154.924641,134.377543 C153.323447,134.529813 151.737665,134.815335 150.183703,135.231153 C147.256975,135.979565 144.327249,136.752023 141.457497,137.692798 C139.490352,138.339017 137.613168,139.264764 135.717992,140.118374 C135.451108,140.238601 135.316167,140.662401 135.118253,140.944934 C135.433116,140.944934 135.747979,140.944934 136.059844,140.971985 C137.601173,141.146314 138.794654,140.548185 139.754237,139.366957 C139.898128,139.247039 140.077092,139.177398 140.264016,139.168582 C144.870013,138.46225 149.470013,137.728866 154.085007,137.064612 C155.671317,136.839187 157.344589,137.043573 158.867927,136.640813 C161.43781,135.967543 164.037679,135.739112 166.664537,135.555766 C168.919557,135.396465 171.162581,135.318318 173.435593,135.255198 C177.408866,135.134972 181.382138,134.954631 185.355411,134.972665 C189.808475,134.972665 194.264537,135.134972 198.7206,135.273233 C199.881095,135.306295 201.098566,135.273233 202.184094,135.597845 C206.595176,136.968431 211.225163,136.53862 215.678227,137.401248 C217.477445,137.749905 219.240678,138.432193 221.012907,138.985236 C221.303725,139.108151 221.581916,139.259147 221.843546,139.436087 C221.906155,139.104873 221.942255,138.769172 221.951499,138.432193 C221.864537,136.502552 221.35176,134.485747 221.735593,132.66431 C222.857106,127.416408 222.035463,122.15949 222.236375,116.917599 C222.350326,114.149376 222.335332,111.372136 222.236375,108.603913 C222.140417,105.976957 221.843546,103.362023 221.666623,100.738072 C221.609648,99.8724386 221.705606,98.9977883 221.65163,98.132155 C221.366754,93.599603 220.976923,89.0700567 220.785007,84.5314934 C220.647066,81.2252552 220.785007,77.8889603 220.749022,74.5646881 C220.683051,69.5001323 220.50013,64.4325709 220.47914,59.3650095 C220.47914,56.1850095 220.779009,53.0020038 220.73103,49.8220038 C220.626076,43.8948204 220.359192,37.9676371 220.158279,32.0434594 C220.158279,31.6046314 220.107301,31.1658034 220.068318,30.7269754 C219.900391,28.8454253 219.684485,26.9638752 219.573533,25.0793195 C219.495567,23.7628355 219.669492,22.4253119 219.501565,21.1298677 C219.438592,20.6579773 218.787875,20.0718715 218.278096,19.8885255 C217.082796,19.4704791 215.855179,19.1518029 214.607692,18.9357278 C214.184876,18.8545747 213.708083,19.0649716 213.25528,19.1401134 C213.657918,19.3846547 214.074445,19.6054457 214.502738,19.8013611 C215.102477,20.0418147 215.78618,20.1229679 216.331943,20.4445747 C216.694785,20.6579773 217.117601,21.1719471 217.114602,21.547656 C217.114602,23.2759168 216.832725,25.010189 216.886701,26.7324386 C216.943677,28.6079773 217.357497,30.4714934 217.432464,32.3470321 C217.600391,36.5549716 217.639374,40.7629112 217.759322,44.9918904 C217.825293,47.3212854 217.963233,49.6506805 218.059192,51.9800756 C218.167145,54.7933837 218.359061,57.6066919 218.33807,60.42 C218.31708,65.0848015 218.083181,69.7526087 218.083181,74.4174102 C218.083181,78.9259168 218.278096,83.4344234 218.353064,87.9669754 C218.395046,90.5368242 218.353064,93.1096786 218.353064,95.6795274 C218.353064,98.7002268 218.275098,101.726938 218.377053,104.744631 C218.467014,107.449735 218.787875,110.121777 218.931812,112.811853 C218.973794,113.614367 218.658931,114.434915 218.673924,115.240435 C218.703911,116.803384 218.973794,118.369338 218.922816,119.92327 C218.835854,122.29775 218.461017,124.663214 218.383051,127.037694 C218.329074,128.81104 218.553977,130.596408 218.652934,132.673327 L218.652934,132.676333 Z M82.0623207,94.0504537 C82.7340287,95.0242911 83.3637549,96.0311909 84.083442,96.9659546 C85.9666232,99.3975425 87.8857888,101.802079 89.8019557,104.206616 C90.4196871,104.982079 91.1123859,105.270624 91.86206,104.362911 C92.2847693,103.904073 92.664222,103.407021 92.9955671,102.87811 C94.4949153,100.145955 95.2715776,97.3266352 94.5458931,94.1346125 C93.8531943,91.077845 92.2159061,88.9017391 89.5080834,87.431966 C87.1900913,86.1755955 84.6831812,86.5513043 82.2332464,86.5693384 C81.243917,86.580186 80.2676548,86.7971829 79.3664928,87.2065406 C78.6677966,87.5341588 78.2419817,88.1924008 78.9196871,89.1421928 C80.0052151,90.6660681 80.9228162,92.3071645 82.0623207,94.0504537 L82.0623207,94.0504537 Z M75.465189,108.177108 C76.2469037,108.59526 77.0029293,109.059968 77.7292047,109.568733 C79.5853977,111.032495 81.5705346,111.09862 83.6726206,110.278072 C85.2799218,109.652892 85.4718383,108.615936 84.2723598,107.371588 C83.6338331,106.766496 83.0526016,106.103417 82.5361147,105.390851 C81.2646675,103.48225 80.065189,101.525558 78.8657106,99.5688658 C77.2644068,96.9389036 75.6990874,94.284896 74.0917862,91.6579395 C73.9838331,91.4836106 73.5130378,91.3032703 73.4410691,91.3724008 C72.7363755,92.0336484 71.8367666,92.6377883 71.4529335,93.4763705 C70.1664928,96.277656 70.4783572,99.1871456 71.0780965,102.138715 C71.6148631,104.798733 73.6479791,106.253478 75.456193,108.186125 L75.465189,108.177108 Z M57.6139505,53.6331947 C58.3906128,52.8547259 59.1792699,52.0882798 59.9349413,51.2917769 C60.0801947,51.071042 60.1895122,50.8285637 60.2588005,50.5734216 C60.0249022,50.5463705 59.7040417,50.4020983 59.5691004,50.5042911 C57.401043,52.1453875 54.7711864,51.538242 52.3722295,51.9289792 C49.2974404,52.4555469 46.340636,53.5262177 43.6400261,55.0909452 C40.2604954,56.9995463 37.7146023,59.954121 35.2046936,62.8786389 C34.968075,63.2061045 34.7594262,63.5529855 34.5809648,63.9155955 C35.0130895,63.9748978 35.44976,63.9940152 35.8853977,63.9727032 C37.0548892,63.8164083 38.2153846,63.5008129 39.3878748,63.4256711 C40.9471969,63.3294896 42.554498,63.6210397 44.0718383,63.3595463 C47.7302477,62.7313611 50.9688396,61.3577694 53.2568449,58.0966163 C54.3873533,56.4855766 56.1385919,55.3073535 57.6079531,53.6331947 L57.6139505,53.6331947 Z M78.298957,49.7258223 C78.1801472,49.3726944 78.0800509,49.0135161 77.9990874,48.6497921 C77.7831812,47.3333081 77.6152542,46.0108129 77.3783572,44.6973346 C77.2671139,44.396863 77.109238,44.11588 76.9105606,43.8647637 C76.7354968,44.0819948 76.5995227,44.328131 76.5087353,44.5921361 C76.3078227,45.8665406 76.2298566,47.1649905 75.96897,48.4273724 C75.6091265,50.167656 75.0933507,51.8718715 74.7035202,53.603138 C74.340678,55.2322117 73.836897,56.7260302 71.911734,57.0085633 C71.0840939,57.1257845 70.2294654,57.0085633 69.3958279,57.1077505 C68.8555038,57.2109921 68.3248469,57.3598009 67.8095176,57.5525898 C68.3043025,57.7990548 68.7780965,58.153724 69.3088657,58.2709452 C70.5084181,58.5534739 71.7256711,58.7543108 72.9522816,58.8720794 C74.4726206,59.0013233 74.9734029,59.4732136 75.0093872,61.0572023 C75.0049632,61.5813345 75.092247,62.1021861 75.2672751,62.5961059 C76.1488918,64.7842344 77.0664928,66.9563327 78.0200782,69.1124008 C78.1400261,69.3829112 78.5778357,69.5151607 78.8687093,69.713535 C79.0131944,69.4601531 79.1193079,69.1866551 79.1835724,68.9020038 C79.3095176,67.1436862 79.2735332,65.3643289 79.522425,63.6240454 C79.9722295,60.4771078 80.5899609,57.3662382 84.7101695,57.0566541 C84.9650587,57.03862 85.1839635,56.5396786 85.4178618,56.2631569 C85.1179922,56.1399244 84.8181226,55.896465 84.5182529,55.9084877 C83.2078227,55.9625898 81.9003911,56.0557656 80.5959583,56.2090548 C79.5853977,56.317259 78.3109518,55.6620227 78.2959583,54.8925709 C78.2659713,53.2755198 78.2959583,51.6554631 78.2959583,49.7348393 L78.298957,49.7258223 Z M31.2164276,117.663006 C31.0754889,117.022798 30.9345502,116.379584 30.7966102,115.739376 C30.4367666,116.370567 29.9419817,116.962684 29.7410691,117.641966 C29.0783572,119.926276 28.5415906,122.243648 27.8998696,124.53397 C27.7919166,124.921701 27.4410691,125.243308 27.2041721,125.594972 C26.9432855,125.324461 26.5804433,125.102042 26.4395046,124.780435 C26.1666232,124.149244 25.9447197,124.035028 25.2760104,124.389698 C24.6073012,124.744367 23.7556714,124.801474 23.0029987,125.041928 C22.719846,125.17897 22.4565571,125.353894 22.220339,125.561909 C22.4872229,125.784329 22.7181226,126.117958 23.0209909,126.211134 C24.6612777,126.719093 26.3675359,127.055728 27.9538462,127.689924 C28.7102221,128.055768 29.3179884,128.671315 29.6750978,129.433214 C30.3827901,130.936049 30.847588,132.544083 31.4353325,134.101021 C31.5808875,134.394764 31.7546321,134.673603 31.9541069,134.933592 C32.1425361,134.677678 32.293966,134.396375 32.4039113,134.098015 C32.6378096,133.037013 32.8177314,131.963989 33.0036506,130.896975 C33.3035202,129.297958 33.3035202,127.650851 35.0667536,126.640945 C36.2662321,125.952647 37.1898305,124.795463 38.2303781,123.83966 C38.382689,123.676955 38.5201771,123.500923 38.6411995,123.313667 C38.4462842,123.184423 38.2093872,122.907902 38.0594524,122.946975 C36.9859192,123.247543 35.9153846,123.54811 34.8778357,123.932836 C34.5,124.074102 34.2121252,124.455822 33.8852673,124.726333 C33.5853977,124.323573 33.1835724,123.962892 33.0246415,123.524064 C32.3769231,121.690605 31.8041721,119.827089 31.2044329,117.675028 L31.2164276,117.663006 Z M85.780704,131.801682 C85.0490222,132.946843 84.7281617,134.506786 82.9949153,134.654064 C81.6395046,134.771285 80.2750978,134.807353 78.9286832,134.984688 C78.3949153,135.053819 77.9001304,135.405482 77.3843546,135.627902 C77.8041721,136.006616 78.1730117,136.472495 78.6498044,136.743006 C79.6543677,137.311078 81.0067797,137.533497 81.6874837,138.342023 C82.7580183,139.619433 83.8735332,139.511229 85.2139505,139.306843 C86.1315515,139.165577 87.1481095,138.961191 87.9907432,139.216673 C89.8529335,139.781739 91.328292,139.418053 92.7226858,138.110586 C93.322425,137.54552 94.132073,137.208885 94.8517601,136.764045 C95.3075619,136.487524 95.7723598,136.232042 96.2341591,135.967543 C95.691395,135.832287 95.1516297,135.685009 94.6028683,135.564783 C94.4054184,135.520299 94.200579,135.520299 94.0031291,135.564783 C92.1229465,136.054707 90.4556714,135.264216 88.7943937,134.617996 C88.2966102,134.425633 87.6638853,133.770397 87.6398957,133.298507 C87.567927,131.945955 87.8018253,130.593403 87.8528031,129.219811 C87.8528031,128.919244 87.597914,128.636711 87.4599739,128.345161 C87.1990874,128.570586 86.8242503,128.747921 86.6953064,129.033459 C86.3125278,129.92907 86.0046033,130.854992 85.7747066,131.801682 L85.780704,131.801682 Z M87.4239896,104.600359 C85.8766623,102.640662 84.2063885,100.762117 82.8059974,98.7002268 C80.6439374,95.5172212 78.6767927,92.2079773 76.610691,88.9618526 C76.1009126,88.162344 75.5161669,87.4139319 74.9853977,86.6294518 C74.8053613,86.3292209 74.6421785,86.0191548 74.4966102,85.7006994 C74.3158685,86.0757335 74.1848146,86.4728408 74.1067797,86.8819282 C74.103517,87.2578518 74.2019657,87.6276334 74.3916558,87.9519471 C75.6151239,90.200189 76.7906128,92.4604537 78.13103,94.6575992 C79.8162973,97.428828 81.4835724,100.227108 83.4147327,102.821002 C85.3458931,105.414896 87.5439374,107.744291 89.7119948,110.124783 C89.9878748,110.42535 90.7285528,110.482457 91.2113429,110.389282 C91.6341591,110.311134 91.9850065,109.866295 92.3688396,109.583762 C91.9239321,109.356574 91.4977711,109.094252 91.0943937,108.799282 C90.4865219,108.296578 89.9208659,107.744685 89.4031291,107.149168 C88.7554107,106.385728 88.2036506,105.553157 87.4419817,104.600359 L87.4239896,104.600359 Z M8.74419817,69.8578072 C9.4398957,70.1102836 10.1325945,70.5581285 10.8432855,70.5701512 C12.3996089,70.6002079 13.9589309,70.4228733 15.5152542,70.3056522 C16.6187744,70.2214934 17.7312907,70.1463516 18.8138201,69.9569943 C19.179661,69.8908696 19.4915254,69.4881096 19.8273794,69.2416446 C19.5718045,69.0347377 19.2918263,68.8601014 18.9937419,68.7216635 C17.3594524,68.1806427 15.8121252,67.5193951 14.6396349,66.1758601 C14.3838603,65.9649214 14.0700826,65.8370217 13.7400261,65.8091682 C12.5405476,65.5867486 11.3140808,65.3462949 10.0906128,65.2290737 C9.66779661,65.1869943 8.84315515,65.4424764 8.82516297,65.6228166 C8.70521512,66.9242722 8.74419817,68.2437618 8.73220339,69.8578072 L8.74419817,69.8578072 Z M126.13116,145.149868 C129.285789,145.25206 132.428422,145.387316 135.598044,145.423384 C136.287744,145.423384 136.983442,145.062703 137.676141,144.87034 C137.037419,144.569773 136.407692,144.010718 135.756975,143.986673 C131.058018,143.81535 126.353064,143.72518 121.663103,143.665066 C120.556584,143.650038 119.450065,143.866446 118.343546,143.935577 C117.626858,143.980662 116.895176,143.86344 116.199478,143.983667 C115.842634,144.043781 115.55176,144.470586 115.2309,144.732079 C115.62073,144.87034 116.010561,145.128828 116.406389,145.131834 C119.552021,145.164896 122.703651,145.149868 126.143155,145.149868 L126.13116,145.149868 Z M71.566884,11.9986389 C71.3179922,13.3421739 70.7482399,14.7187713 70.8891786,16.0202268 C71.1380704,18.3315879 71.8097784,20.6008696 72.3315515,22.8791682 C72.3765319,23.0805482 72.6314211,23.2308318 72.7843546,23.4051607 C72.9252934,23.2638941 73.1711864,23.1346503 73.1891786,22.9783554 C73.4170795,21.1749527 73.6119948,19.3715501 73.7889179,17.5681474 C73.7889179,17.4689603 73.5760104,17.3667675 73.5160365,17.2375236 C73.0752282,16.3057656 72.7843546,15.434121 73.1292047,14.2979773 C73.363103,13.5134972 72.8293351,12.4945747 72.6044329,11.5928733 C72.5564537,11.4035161 72.2715776,11.2923062 72.0946545,11.1239887 C71.9407129,11.4381828 71.7622344,11.7396889 71.5608866,12.02569 L71.566884,11.9986389 Z M28.8354628,92.7009074 C30.2658409,91.9074102 30.6346806,91.1439698 30.067927,90.2963705 C29.4082138,89.3105104 28.3916558,89.3616068 27.5520209,89.6050662 C27.0722295,89.7463327 26.3795306,90.9185444 26.5114733,91.1079017 C27.0452412,91.8503025 27.2851369,93.160775 28.8354628,92.6979017 L28.8354628,92.7009074 Z M57.7728814,120.500359 C57.8778357,121.302873 57.9857888,122.105388 58.0907432,122.904896 C58.6335072,122.354858 59.3142112,121.882968 59.6860495,121.233743 C60.0938722,120.524405 61.3773142,119.613686 60.2318123,118.874291 C58.9873533,118.068771 58.5555411,119.601664 57.7728814,120.500359 L57.7728814,120.500359 Z M95.5564537,18.9086767 C95.0315603,19.472208 94.5503698,20.0750952 94.1170795,20.7120794 C93.982965,21.0752356 94.0453198,21.4820528 94.2820078,21.7881096 C95.0046936,22.3892439 97.0588005,21.6348204 97.1667536,20.7090737 C97.2357236,20.1440076 96.974837,19.5068053 96.7499348,18.9597732 C96.7019557,18.842552 96.1681877,18.9237051 95.5504563,18.9116824 L95.5564537,18.9086767 Z M83.5556714,39.3502457 C83.4837027,38.7761626 83.4087353,38.2020794 83.3367666,37.6279962 C82.8599739,38.0638185 82.3801825,38.4966352 81.9123859,38.9444802 C81.8644068,38.9925709 81.8973924,39.1368431 81.9123859,39.2450473 C81.9963494,39.9213233 82.0653194,40.6006049 82.1912647,41.2708696 C82.1912647,41.3550284 82.6530639,41.4482042 82.6590613,41.4361815 C82.9259452,40.8019849 83.1658409,40.1557656 83.5586701,39.3592628 L83.5556714,39.3502457 Z M20.2861799,137.945274 C20.0618997,137.865934 19.8296094,137.811506 19.5934811,137.782968 C19.2099839,138.516988 18.908296,139.291105 18.6938722,140.091323 C18.6219035,140.424953 19.0447197,140.863781 19.2426336,141.251512 C19.5425033,140.908866 19.989309,140.611304 20.1182529,140.21155 C20.3182285,139.473898 20.3792449,138.705342 20.2981747,137.945274 L20.2861799,137.945274 Z M95.7153846,78.2827032 C95.484485,79.016087 94.566884,79.728431 95.6044329,80.4497921 C95.6614081,80.4888658 96.53103,79.4969943 96.8878748,78.9048771 C97.103781,78.5502079 97.0588005,78.0392439 97.1307692,77.5974102 C96.6083374,77.7009655 96.1210652,77.9368902 95.7153846,78.2827032 L95.7153846,78.2827032 Z M36.7910039,104.281758 C36.3441982,104.329849 35.5915254,104.248696 35.5075619,104.444064 C35.2011406,105.277865 34.985972,106.142557 34.8658409,107.02293 C34.8388527,107.185236 35.1207301,107.398639 35.2586701,107.587996 C35.4408244,107.443126 35.6004983,107.271939 35.7324641,107.080038 C36.1866642,106.189027 36.5416479,105.250618 36.7910039,104.281758 L36.7910039,104.281758 Z M45.0374185,134.188185 L45.4512386,135.504669 C45.7511082,135.21913 46.06897,134.939603 46.3718383,134.654064 C46.5997185,134.462274 46.8085967,134.248884 46.9955671,134.016862 C47.189851,133.713918 47.3680222,133.400891 47.5293351,133.079093 C47.154498,133.079093 46.7316819,132.994934 46.4198175,133.139206 C45.9670143,133.349603 45.595176,133.74034 45.0374185,134.188185 L45.0374185,134.188185 Z M20.5980443,79.3346881 C20.1182529,79.6172212 19.545502,79.8186011 19.1886571,80.212344 C18.972751,80.4527977 18.9847458,81.0298866 19.1016949,81.3875614 C19.1646675,81.5769187 19.821382,81.8113611 19.9413299,81.7091682 C20.6040417,81.1441021 21.5306389,80.6000756 20.5980443,79.3346881 L20.5980443,79.3346881 Z M42.6384615,111.044518 L42.1226858,109.761096 C41.6583117,110.232818 41.2414754,110.749286 40.8782269,111.303006 C40.7612777,111.513403 41.0851369,111.970265 41.2080834,112.315917 C41.7560205,111.98008 42.2402909,111.549633 42.6384615,111.044518 L42.6384615,111.044518 Z M19.248631,109.541682 C19.5245111,109.466541 19.9833116,109.463535 20.0432855,109.304234 C20.3062245,108.578186 20.5156953,107.833789 20.670013,107.077032 C20.6880052,106.989868 20.4091265,106.836578 20.2681877,106.716352 C19.8843546,107.317486 19.4585398,107.870529 19.1316819,108.486692 C19.0057366,108.727146 19.1046936,109.087826 19.248631,109.541682 L19.248631,109.541682 Z M100.813168,49.1276938 L101.814733,49.8791115 C102.10738,49.3180801 102.363796,48.7387984 102.582399,48.1448393 C102.630378,47.9825331 102.222555,47.4865974 102.144589,47.5106427 C101.712407,47.6538252 101.307035,47.8681565 100.945111,48.1448393 C100.810169,48.2500378 100.858149,48.5926843 100.825163,49.1276938 L100.813168,49.1276938 Z M99.9255541,103.229773 C100.276402,102.87811 100.765189,102.580548 100.933116,102.156749 C101.053064,101.856181 100.747197,101.375274 100.633246,100.97552 C100.09648,101.342212 99.472751,101.636767 99.0859192,102.120681 C98.9719687,102.264953 99.5297262,102.94724 99.9285528,103.229773 L99.9255541,103.229773 Z M54.3483703,87.9008507 C54.0754889,87.6754253 53.6346806,87.2095463 53.5537158,87.2636484 C53.0549337,87.580705 52.6254652,87.9958351 52.2912647,88.4839509 C52.1713168,88.6733081 52.5071708,89.1482042 52.6391134,89.4938563 C52.9286419,89.3967193 53.201672,89.2558324 53.4487614,89.0760681 C53.748631,88.7755009 53.9525424,88.3967864 54.3483703,87.9008507 L54.3483703,87.9008507 Z M100.078488,141.251512 L101.128031,141.014064 C100.813168,140.79465 100.528292,140.479055 100.171447,140.370851 C99.5794528,140.200083 98.9695836,140.09921 98.3542373,140.070284 C98.0873533,140.070284 97.8054759,140.259641 97.5295958,140.370851 C97.7994644,140.596918 98.0954585,140.789661 98.4112125,140.944934 C98.9543359,141.10592 99.5134372,141.206712 100.078488,141.245501 L100.078488,141.251512 Z M37.2558018,81.2823629 L36.7070404,79.929811 C36.4071708,80.2063327 35.8074316,80.4978828 35.8074316,80.7533648 C35.8404172,81.2673346 36.2032595,81.7602647 36.4281617,82.2562004 C36.7751158,81.9989013 37.0566203,81.6631936 37.2498044,81.2763516 L37.2558018,81.2823629 Z M63.788266,70.3056522 C64.4959583,69.7886767 64.7718383,69.1033837 64.4359844,68.2858412 C64.3970013,68.1926654 63.995176,68.2437618 63.7612777,68.2287335 C63.6960321,68.9200103 63.7050801,69.6163131 63.788266,70.3056522 L63.788266,70.3056522 Z M89.2771838,62.4909074 C89.1872229,63.0920416 89.0962625,63.7031947 89.0043025,64.3243667 C89.2066463,64.3137408 89.4074926,64.2835438 89.6040417,64.2341966 C89.6585965,63.6333011 89.5432429,63.0291509 89.2711864,62.4909074 L89.2771838,62.4909074 Z M82.0743155,36.341569 C81.1747066,36.1882798 80.4670143,36.4167108 80.1821382,37.3574858 C80.1131682,37.5889225 80.2481095,37.8804726 80.2870926,38.1449716 C80.5002937,38.0634897 80.7019232,37.9543565 80.8868318,37.8203592 C81.3761619,37.407699 81.7831503,36.9059389 82.0863103,36.341569 L82.0743155,36.341569 Z M88.9833116,111.783913 C88.7896869,111.768856 88.5951893,111.768856 88.4015645,111.783913 C88.140678,111.825992 87.8887875,111.913157 87.6338983,111.979282 C87.7478488,112.17465 87.8588005,112.538336 87.972751,112.541342 C88.5059124,112.5271 89.0376905,112.479922 89.5650587,112.400076 C89.4601901,112.124153 89.2512234,111.900665 88.9833116,111.777902 L88.9833116,111.783913 Z M103.227119,126.054839 C103.434029,125.847448 103.763885,125.670113 103.826858,125.42966 C103.895828,125.114064 103.748892,124.750378 103.694915,124.410737 C103.440026,124.633157 103.095176,124.816503 102.966232,125.099036 C102.867275,125.29741 103.038201,125.63104 103.236115,126.054839 L103.227119,126.054839 Z M79.3964798,139.430076 L80.1461538,139.219679 C79.9002608,138.988242 79.6753585,138.618544 79.4024772,138.570454 C79.1295958,138.522363 78.7397653,138.789868 78.40691,138.922117 C78.7011954,139.153509 79.0371627,139.325965 79.3964798,139.430076 L79.3964798,139.430076 Z M73.8488918,10.3365028 C73.9988266,9.61213611 73.5820078,9.47086957 73.0212516,9.60311909 C72.7843546,9.66022684 72.5924381,9.9036862 72.3795306,10.0659924 C72.8493819,10.2429891 73.3469563,10.3345929 73.8488918,10.3365028 L73.8488918,10.3365028 Z M35.0157757,72.4036106 L34.2661017,73.0588469 L35.2736636,73.3053119 C35.3330705,72.9808626 35.2376532,72.6472375 35.0157757,72.4036106 L35.0157757,72.4036106 Z M46.5607562,129.661645 C46.1589309,129.565463 45.7601043,129.457259 45.3612777,129.388129 C45.3312907,129.388129 45.2533246,129.646616 45.1963494,129.787883 C45.6578871,129.815777 46.120974,129.773212 46.5697523,129.661645 L46.5607562,129.661645 Z M104.294654,122.598318 L103.245111,122.793686 L103.371056,123.175406 C103.728239,123.076884 104.049133,122.876381 104.294654,122.598318 L104.294654,122.598318 Z M103.84485,47.6068242 C103.910821,47.9584877 103.973794,48.3101512 104.039765,48.6588091 L104.4206,48.5325709 C104.320733,48.1752495 104.120955,47.8540269 103.84485,47.6068242 L103.84485,47.6068242 Z M85.2529335,23.8620227 C84.9530639,23.8620227 84.6531943,23.8620227 84.3533246,23.877051 C84.3533246,23.877051 84.3533246,24.1475614 84.3533246,24.1475614 C84.6839605,24.1981103 85.0186838,24.0862764 85.2529335,23.8469943 L85.2529335,23.8620227 Z M18.1900913,110.284083 L17.788266,110.482457 L18.4899609,110.885217 C18.5215331,110.642316 18.4029046,110.404507 18.1900913,110.284083 L18.1900913,110.284083 Z M26.1366362,94.50431 L26.9252934,94.9190926 L27.0362451,94.5403781 C26.7444957,94.4508005 26.4345917,94.4383755 26.1366362,94.50431 L26.1366362,94.50431 Z M75.465189,7.79069943 L75.929987,8.39183365 L76.2148631,8.15438563 C75.9983091,7.97367974 75.740936,7.84882137 75.465189,7.79069943 L75.465189,7.79069943 Z" id="Shape"></path>
                    <path d="M10.5434159,24.9230246 C10.6004784,25.6367796 10.7006183,26.3464153 10.8432855,27.048034 C11.2780965,28.7762949 12.3426336,30.4684877 13.8899609,30.7991115 C15.7971317,31.2138941 18.1361147,31.5595463 19.7494133,29.6359168 C20.1937598,29.1559966 20.5220771,28.5801049 20.7089961,27.952741 C21.0508475,26.4499055 21.9954368,25.2776938 22.694133,23.9642155 C23.4797914,22.488431 24.2624511,20.9014367 23.7256845,19.107051 C23.6357236,18.8064839 23.3328553,18.5630246 23.2458931,18.2594518 C23.1569496,17.8540577 23.1027755,17.441779 23.0839635,17.0271267 C23.5577575,17.0662004 24.2024772,16.9189225 24.4813559,17.1744045 C25.8247718,18.4007183 25.4469361,19.9907183 25.1890482,21.5236106 C25.1530639,21.7340076 24.9431551,22.013535 25.0181226,22.1247448 C27.0062581,25.2476371 25.4289439,27.9196786 23.7676662,30.3572779 C22.2473272,32.5874858 20.2981747,33.5432892 17.0925684,32.4612476 C16.6042474,32.2869569 16.0929846,32.1856818 15.5752282,32.1606805 C12.4325945,32.0735161 10.354498,30.5827032 9.49687093,27.6010775 C9.20509756,26.5890385 9.07553934,25.5369732 9.11303781,24.4841966 C9.13402868,24.0213233 9.7547588,23.5824953 10.1385919,23.1496786 C10.177575,23.1045936 10.6003911,23.2729112 10.6033898,23.3570699 C10.6273794,23.831966 10.5794003,24.3098677 10.5554107,24.9350473 L10.5434159,24.9230246 Z M24.0495437,23.8830624 C22.2743155,25.9870321 22.6371578,29.2421739 20.2501956,31.0335539 C20.2501956,31.0335539 20.5110821,31.5385066 20.5500652,31.5204726 C20.9582657,31.4349078 21.3449009,31.2672148 21.6865711,31.0275425 C23.6567145,29.2902647 24.1065189,26.8436484 24.6132986,24.4421172 C24.6552803,24.2347259 24.3374185,23.9612098 24.0375489,23.8710397 L24.0495437,23.8830624 Z" id="Shape"></path>
                    <path d="M13.2422425,54.3786011 C13.886824,51.8277669 15.3055182,49.540394 17.3024772,47.8322495 C18.064146,47.1740076 19.2126467,46.9305482 20.2082138,46.5788847 C20.7368047,46.3682771 21.304374,46.2739747 21.8724902,46.3023629 C22.2953064,46.3444423 22.6821382,46.7291682 23.0719687,46.9636106 C22.7921455,47.1614575 22.4902316,47.3258789 22.1723598,47.453535 C21.0538462,47.7751418 19.7734029,47.8082042 18.8228162,48.3913043 C16.603781,49.7528733 15.6382008,52.1153308 14.7295958,54.4357089 C14.3577575,55.3855009 14.1508475,56.3954064 13.8029987,57.3542155 C13.622934,57.6942998 13.3968983,58.0078446 13.1312907,58.2859735 C12.8794003,57.8170888 12.3756193,57.3211531 12.4265971,56.8883365 C12.5435463,56.0828166 12.9603651,55.3043478 13.2422425,54.3786011 Z" id="Path"></path>
                    <path d="M26.8113429,58.3611153 C27.6659713,55.8002836 28.2297262,53.2905482 27.9898305,50.651569 C27.9688396,50.405104 28.2897001,50.1315879 28.4576271,49.8700945 C28.7874837,50.0834972 29.3872229,50.2758601 29.3872229,50.4952741 C29.4446809,51.6539521 29.437673,52.8149392 29.3662321,53.9728355 C29.3662321,54.3425331 29.0963494,54.7242533 29.1503259,55.0699055 C29.7500652,58.7638752 25.7827901,61.3818147 22.8920469,62.1572779 C22.6431551,62.2234026 22.2923077,61.9288469 22.0074316,61.8026087 C22.2053455,61.4539509 22.3073012,60.9670321 22.6071708,60.7836862 C23.9655802,59.963138 25.3599739,59.2117202 26.8113429,58.3611153 Z" id="Path"></path>
                    <path d="M37.2318123,31.8360681 C37.9485007,33.4561248 39.03103,34.1985255 40.7432855,33.9761059 C41.2440678,33.9099811 41.7988266,34.2526276 42.3295958,34.4119282 C41.9126072,34.6974472 41.4662426,34.9372712 40.9981747,35.1272779 C39.0280313,35.6953497 37.5676662,35.0912098 36.6170795,33.5883743 C35.1657106,31.2890359 35.9963494,29.9665406 37.2168188,28.4306427 C37.4447197,28.1300756 37.9485007,28.0489225 38.3473272,27.9467297 C38.5482399,27.8956333 38.7971317,28.0308885 39.0250326,28.0819849 C38.9200782,28.2893762 38.8091265,28.4937618 38.7071708,28.7011531 C38.2183833,29.6960302 37.7265971,30.6909074 37.2318123,31.8360681 Z" id="Path"></path>
                    <path d="M18.8647979,43.9338941 C19.1196871,44.0601323 19.3116037,44.0841777 19.4645372,44.1653308 C19.9773142,44.4178072 20.4750978,44.6943289 20.9638853,44.9618336 C20.4720991,45.0940832 19.959322,45.3916446 19.4885267,45.3345369 C16.8976532,45.0339698 15.7221643,46.8974858 14.4297262,48.5596219 C13.8599739,49.2960113 13.4431551,50.1526276 12.9033898,50.9160681 C12.6575487,51.1734333 12.3769414,51.3950014 12.0697523,51.57431 C11.9767927,51.1324764 11.6499348,50.5313422 11.8268579,50.2758601 C13.6800522,47.6248582 14.9934811,44.3727221 18.8647979,43.9338941 Z" id="Path"></path>
                    <path d="M57.9977836,46.9395652 C57.3026323,47.2708897 56.578995,47.5384836 55.8357236,47.7390737 C55.5148631,47.8082042 55.1280313,47.5647448 54.7711864,47.462552 C54.9541069,47.1800189 55.0710561,46.7982987 55.33794,46.6359924 C55.7637549,46.3775047 56.285528,46.2873346 56.7503259,46.082949 C59.0743155,45.0550095 60.7325945,43.3327599 62.0160365,41.1596597 C62.2649283,40.7358601 62.9156454,40.5585255 63.383442,40.2579584 C63.4076329,40.7173024 63.3814879,41.1779202 63.3054759,41.6315501 C62.7057366,43.8497353 60.6276402,44.7905104 59.158279,46.2572779 C58.8764016,46.5368053 58.4385919,46.6660491 57.9977836,46.9395652 Z" id="Path"></path>
                    <path d="M13.3172099,21.090794 C13.629378,20.9914858 13.9615244,20.9728754 14.2827901,21.0366919 C14.5604464,21.1793186 14.8159965,21.3615558 15.0414602,21.5777127 C14.855242,21.7809945 14.6819746,21.9958238 14.5226858,22.2209263 C13.9859192,23.1015879 13.3531943,23.9491871 12.9873533,24.8989792 C12.7714472,25.4610397 12.7114733,26.4018147 13.7430248,26.4408885 C14.3281816,26.4008208 14.8940787,26.2148492 15.389309,25.8998677 C15.9711581,25.5367732 16.5281567,25.1351227 17.0565841,24.6975992 C16.7567145,25.4520227 16.6637549,26.4619282 16.1149935,26.8977505 C15.4432855,27.4297543 14.3157757,27.8265028 13.5211213,27.6702079 C12.9380897,27.5684468 12.4219,27.232219 12.0923199,26.7395371 C11.7627399,26.2468552 11.6484182,25.6405454 11.7758801,25.0612854 C12.0187744,23.6906994 11.8118644,22.0976938 13.3172099,21.090794 Z" id="Path"></path>
                    <path d="M21.3387223,50.4712287 C20.2831812,51.2827599 19.3835724,52.1033081 18.4629726,52.8937996 C18.128313,53.1511613 17.777767,53.3870753 17.4134289,53.6001323 C17.4404172,53.0891682 17.3504563,52.5391304 17.5153846,52.0762571 C18.3880052,49.6356522 20.5350717,49.070586 22.7451108,48.6768431 C23.5861962,48.5056594 24.4417766,48.4160775 25.3,48.4093384 C25.5818774,48.4093384 25.8577575,48.8812287 26.1366362,49.1367108 C25.8684948,49.3077383 25.5830238,49.4497983 25.2850065,49.5605104 C24.0255541,49.8941399 22.7571056,50.1706616 21.3387223,50.4712287 Z" id="Path"></path>
                    <path d="M52.9,12.5246314 C52.702086,12.9003403 52.4711864,13.3902647 52.1443286,13.4714178 C49.4005215,14.1506994 46.0959583,12.3773535 44.9654498,9.66623819 C44.8784876,9.45584121 44.845502,9.03504726 44.9444589,8.97493384 C45.2082084,8.79666679 45.5318061,8.73071556 45.8440678,8.7915879 C46.1610001,8.94549246 46.42129,9.19586786 46.5877445,9.50693762 C47.8801825,11.7161059 49.8863103,12.4254442 52.3002608,12.3082231 C52.514088,12.3332961 52.7192936,12.407342 52.9,12.5246314 Z" id="Path"></path>
                    <path d="M66.3191656,22.5184877 C66.2202086,23.8890737 65.9353325,25.1334216 66.0972621,26.3146503 C66.1782269,26.8947448 67.0958279,27.3486011 67.5966102,27.8836106 C67.7470908,28.0766503 67.8748784,28.286427 67.9774446,28.5087902 C67.7255541,28.6169943 67.4646675,28.830397 67.2187744,28.8093573 C65.7194263,28.7011531 64.1481095,27.0330057 64.2350717,25.4760681 C64.3272312,24.1543173 64.5278221,22.8424175 64.834811,21.5536673 C64.9097784,21.2200378 65.4345502,20.9916068 65.7494133,20.7120794 C65.9533246,21.2681285 66.1362451,21.8181664 66.3191656,22.5184877 Z" id="Path"></path>
                    <path d="M21.8634941,57.459414 C20.9638853,56.3503214 20.1782269,55.2923251 21.2877445,53.9968809 C21.7195567,53.4949338 22.5861799,52.6262949 22.6911343,52.7044423 C23.5099424,53.3317022 24.2535688,54.0518433 24.9071708,54.8504915 C25.0151239,54.973724 24.727249,55.4516257 24.6252934,55.7521928 C24.4123859,55.631966 24.2054759,55.4997164 23.9865711,55.3885066 C23.6087353,55.1991493 23.2219035,55.0188091 22.8410691,54.8354631 C22.8410691,55.3013422 22.8410691,55.7702268 22.8410691,56.2361059 C22.8410691,56.7590926 22.86206,57.2820794 22.8740548,57.8050662 C22.5294708,57.7139447 22.1917697,57.5984374 21.8634941,57.459414 Z" id="Path"></path>
                    <path d="M19.5395046,24.0213233 C19.4405476,22.7619471 19.3026076,21.6528544 19.2696219,20.5407561 C19.2696219,20.3063138 19.7494133,19.8224008 19.8063885,19.8524575 C20.2471969,20.0748771 20.9338983,20.3513989 20.9878748,20.697051 C21.2667536,22.46138 21.3567145,24.2677883 20.4691004,25.9088847 C20.1692308,26.4499055 19.6054759,26.8496597 19.1166884,27.2614367 C19.0357236,27.3335728 18.567927,27.1592439 18.5469361,27.0510397 C18.4737086,26.7134842 18.4934025,26.362326 18.6039113,26.0351229 C18.8647979,25.3949149 19.2216428,24.790775 19.5395046,24.0213233 Z" id="Path"></path>
                    <path d="M50.3511082,28.0038374 C51.2237288,30.2160113 50.1981747,32.8279395 48.0750978,34.0302079 C47.9464972,34.078369 47.8048718,34.078369 47.6762712,34.0302079 C47.6013038,33.6304537 47.4003911,33.1465406 47.5473272,32.8279395 C47.8307442,32.3217728 48.1977968,31.8674797 48.6328553,31.4844045 C49.6943937,30.420397 49.622425,29.4195085 48.6538462,28.3104159 C48.3719687,27.9888091 48.4139505,27.3816635 48.3059974,26.9037618 C48.8217731,27.1081474 49.346545,27.2914934 49.8503259,27.5229301 C50.0182529,27.5950662 50.1352021,27.7874291 50.3511082,28.0038374 Z" id="Path"></path>
                    <path d="M42.6294654,37.8474102 C42.3715776,37.949603 42.248631,38.1479773 42.1586701,38.1479773 C41.5139505,38.0457845 40.8722295,37.8985066 40.2305085,37.7632514 C40.7972621,37.4957467 41.3400261,37.1260491 41.9367666,36.9817769 C43.2441982,36.6661815 44.035854,35.8185822 44.7315515,34.742552 C44.953455,34.4029112 45.457236,34.2496219 45.832073,34.0091682 C45.8500652,34.4570132 46.0269883,34.9769943 45.86206,35.3346692 C45.2473272,36.6301134 44.1558018,37.4326276 42.6294654,37.8474102 Z" id="Path"></path>
                    <path d="M43.5290743,39.6508129 C43.0312907,39.5756711 42.6804433,39.4975236 42.3295958,39.4193762 C42.5608828,39.1629737 42.8286517,38.9421835 43.1242503,38.7641399 C44.7765319,38.0848582 46.2518905,37.228242 47.1754889,35.5901512 C47.3584094,35.2715501 47.9101695,35.1603403 48.2910039,34.9559546 C48.2340287,35.436862 48.3359844,36.0229679 48.0960887,36.3806427 C47.0255541,37.9856711 45.5022164,39.0346503 43.5290743,39.6508129 Z" id="Path"></path>
                    <path d="M46.1529335,31.0095085 C45.6851369,29.7471267 45.1873533,28.7612665 43.6070404,29.0888847 C43.3551499,29.1399811 42.9803129,28.6079773 42.6654498,28.3464839 C42.9653194,28.1060302 43.2352021,27.7122873 43.5650587,27.6551796 C45.5711864,27.3125331 47.1245111,28.4637051 47.1125163,30.7149527 C47.1125163,31.3822117 46.878618,31.8150284 46.1529335,31.0095085 Z" id="Path"></path>
                    <path d="M41.3550196,14.4783176 C40.1105606,13.5074858 38.5782269,12.8582609 38.7581486,10.9917391 C38.8439846,10.6501056 39.0882854,10.3705746 39.4148631,10.2403214 C39.6217731,10.1772023 40.2095176,10.5408885 40.1915254,10.673138 C39.9606258,12.2931947 41.429987,12.7951418 42.1436767,13.7870132 C42.2952536,14.0787698 42.4052768,14.3903843 42.4705346,14.7127599 C42.0930253,14.6647241 41.7199836,14.5863237 41.3550196,14.4783176 Z" id="Path"></path>
                    <path d="M30.6346806,39.0496786 C30.0349413,38.9084121 29.6031291,38.7671456 29.1623207,38.625879 C29.6361147,38.3673913 30.1788787,37.8113422 30.571708,37.9015123 C31.9217918,38.2203325 33.238251,38.6682249 34.5029987,39.2390359 C34.8028683,39.3712854 34.8418514,40.0866352 35.0007823,40.5344802 C34.5783481,40.4493063 34.1609005,40.3409389 33.7503259,40.2098677 C32.7547588,39.8431758 31.7861799,39.4404159 30.6346806,39.0496786 Z" id="Path"></path>
                    <path d="M19.7644068,58.9622495 C20.127249,59.4521739 20.4121252,59.8639509 20.6970013,60.2817391 C20.028292,60.182552 19.1976532,60.2997732 18.7148631,59.9420983 C17.4704042,59.040397 17.4044329,57.7930435 18.3640156,56.9364272 C18.5845658,56.7673185 18.8205038,56.6193885 19.0687093,56.4945936 C19.2583461,56.7507267 19.411733,57.0319157 19.5245111,57.3301701 C19.6354628,57.8291115 19.6414602,58.364121 19.7644068,58.9622495 Z" id="Path"></path>
                    <path d="M38.8061278,26.0501512 C37.954498,24.9470699 39.1539765,24.5743667 39.5258149,24.3910208 C40.3744459,23.9732325 41.3940026,23.8800567 42.3565841,23.7478072 C42.6204694,23.7147448 42.9263364,24.0093006 43.2112125,24.1535728 C42.9653513,24.3483289 42.7023902,24.5203554 42.4255541,24.6675425 C41.2500652,25.1694896 40.0625815,25.64138 38.8061278,26.0501512 Z" id="Path"></path>
                    <path d="M17.4404172,19.2122495 C17.0146023,19.3895841 16.7537158,19.6751229 16.4568449,19.7202079 C15.913511,19.7703698 15.3671241,19.7784088 14.8225554,19.7442533 C15.1614081,19.2663516 15.4222947,18.6712287 15.8691004,18.3466163 C16.2529335,18.0731002 16.8586701,18.0460491 17.3684485,18.0460491 C17.9012956,18.0977071 18.4282817,18.1983189 18.942764,18.3466163 C18.4620778,18.6688654 17.9601443,18.9580732 17.4404172,19.2122495 L17.4404172,19.2122495 Z" id="Path"></path>
                    <path d="M40.5303781,31.2349338 C41.4435514,30.8509695 42.3929107,30.559961 43.364146,30.3662949 C43.4720991,30.3452552 43.8409387,30.8171456 43.798957,30.9914745 C43.6550196,31.5926087 41.0041721,32.3770888 40.5453716,31.9683176 C40.4464146,31.8811531 40.5303781,31.5865974 40.5303781,31.2349338 Z" id="Path"></path>
                    <path d="M48.5518905,58.811966 C46.9295958,59.7377127 45.3942634,60.6153686 43.8319426,61.4238941 C43.2214708,61.7539598 42.5700938,62.0015736 41.8947849,62.1602836 C41.5949153,62.2264083 41.2170795,61.9228355 40.8722295,61.7845747 C41.0761408,61.5200756 41.2230769,61.1443667 41.4929596,61.0091115 C43.4391134,60.0442911 45.4482399,59.2057089 47.3554107,58.171758 C48.8547588,57.3722495 50.2071708,56.3683554 51.6225554,55.4335917 C52.1901798,55.0149456 52.7841553,54.6334352 53.4007823,54.2914367 C53.7366362,54.1321361 54.1984355,54.2283176 54.6002608,54.2102836 C54.4083442,54.5108507 54.2853977,54.9226276 54.0005215,55.1119849 C52.2372881,56.3473157 50.4260756,57.5345558 48.5518905,58.811966 Z" id="Path"></path>
                    <path d="M48.4019557,55.0548771 C49.0226858,54.8264461 49.5684485,54.6701512 50.1142112,54.516862 C49.7397434,55.0569707 49.3268485,55.5692673 48.8787484,56.0497543 C48.4330971,56.4671476 47.921347,56.8074149 47.3644068,57.0566541 C47.0645372,57.1858979 46.6657106,57.03862 46.3088657,57.0145747 C46.4424116,56.7175049 46.6192678,56.4419803 46.8336375,56.1970321 C47.2954368,55.8002836 47.826206,55.4816824 48.4019557,55.0548771 Z" id="Path"></path>
                    <path d="M12.417601,69.4820983 C11.6240135,69.4996832 10.8303963,69.4483954 10.0456323,69.3288091 C9.88670143,69.3047637 9.62581486,68.8569187 9.67079531,68.7968053 C9.84771838,68.5593573 10.1325945,68.2287335 10.3694915,68.2347448 C11.3668558,68.2794672 12.3609626,68.3798115 13.3471969,68.5353119 C13.5151239,68.5593573 13.6470665,68.835879 13.8,69.0072023 C13.365189,69.1304348 12.9303781,69.2717013 12.417601,69.4820983 Z" id="Path"></path>
                </g>
            </g>
        </g>
    </g>
</svg>