<?xml version="1.0" encoding="UTF-8"?>
<svg width="40px" height="40px" viewBox="0 0 40 40" version="1.1" xmlns="http://www.w3.org/2000/svg" xmlns:xlink="http://www.w3.org/1999/xlink">
    <!-- Generator: Sketch 53 (72520) - https://sketchapp.com -->
    <title>Group 3</title>
    <desc>Created with Sketch.</desc>
    <defs>
        <polygon id="path-1" points="0 0 40 0 40 40 0 40"></polygon>
    </defs>
    <g id="Welcome" stroke="none" stroke-width="1" fill="none" fill-rule="evenodd">
        <g id="TEMPORARY-TATTOOS" transform="translate(-305.000000, -8326.000000)">
            <g id="Group-3" transform="translate(305.000000, 8326.000000)">
                <mask id="mask-2" fill="white">
                    <use xlink:href="#path-1"></use>
                </mask>
                <g id="Clip-2"></g>
                <path d="M0,37.9988473 L0,1.97903866 C0.0196203863,1.9522957 0.0491853519,1.92837486 0.0577860692,1.89854101 C0.451537657,0.526855694 1.14429856,5.97274339e-05 2.55750391,5.97274339e-05 C14.2164481,5.97274339e-05 25.8752579,-7.46592923e-05 37.5342021,5.97274339e-05 C39.088513,5.97274339e-05 39.9996515,0.910932957 39.9996515,2.46524983 C39.9996515,14.1464128 39.9996515,25.8275759 39.9996515,37.5087389 C39.9996515,37.5865488 40.0005922,37.6643587 39.9993827,37.7420342 C39.9821813,38.8168593 39.2802821,39.6797564 38.2326072,39.9185616 C38.1596355,39.9352256 38.0912329,39.9724507 38.0208146,40 L27.6818117,40 C27.6801991,34.9541816 27.6803334,29.9084976 27.6724047,24.8626792 C27.6720015,24.6010282 27.7524988,24.5213369 28.0142832,24.5232183 C29.5145708,24.5339692 31.0151272,24.524159 32.5155492,24.5322222 C32.7606696,24.5335661 32.8696568,24.4624755 32.901372,24.203781 C33.1190776,22.4293387 33.3514314,20.6566434 33.5788129,18.8834106 C33.6367333,18.4311992 33.6363302,18.4305273 33.1749823,18.4303929 C31.4522855,18.4299897 29.7295887,18.429721 28.0068919,18.4307961 C27.8344744,18.4309304 27.6724047,18.4489383 27.6750924,18.1884968 C27.6893373,16.755128 27.6560095,15.3198777 27.7151395,13.8885247 C27.7628466,12.7350834 28.3600589,12.0663751 29.4100183,11.8231351 C29.6360559,11.7707243 29.8706942,11.7339023 30.1019729,11.7306771 C31.2242321,11.7152226 32.3467601,11.7058155 33.4690193,11.7125348 C33.7579497,11.7142819 33.8479884,11.6269305 33.8450319,11.3319516 C33.8302495,9.88729433 33.8383126,8.44236825 33.8383126,6.99757656 C33.8383126,6.22794378 33.8383126,6.22807817 33.0543035,6.15403108 C32.9990708,6.14892438 32.9443756,6.1356201 32.8891428,6.13279798 C31.1591892,6.0434308 29.4272198,5.86563716 27.6984756,6.1012171 C25.6625245,6.37872569 23.9482941,7.24941728 22.743253,8.96768597 C21.7373722,10.4019955 21.372648,12.037482 21.3433518,13.7574977 C21.3194311,15.1685583 21.3373045,16.5802908 21.3366325,17.991889 C21.3366325,18.1222441 21.3366325,18.2524649 21.3366325,18.4302585 L20.9083437,18.4302585 C19.4413838,18.4302585 17.9742896,18.4368435 16.5073298,18.4247487 C16.216518,18.4223297 16.1018866,18.4844164 16.1047087,18.8070789 C16.1205663,20.5852841 16.1196256,22.3636236 16.1053806,24.1418288 C16.1028273,24.4544123 16.2020043,24.5367914 16.502895,24.534238 C17.9698549,24.5212025 19.4369491,24.528325 20.9039089,24.528325 L21.3366325,24.528325 L21.3366325,24.9961252 C21.3366325,28.4971682 21.3358262,31.9980768 21.3370357,35.4989854 C21.3375732,36.9994132 21.3421424,38.4997066 21.3449645,40 L2.00114501,40 C1.95276598,39.9750041 1.90707467,39.9376446 1.85587352,39.9268936 C0.872300872,39.72061 0.280732787,39.1254112 0.0731060968,38.1434474 C0.0623552002,38.0923804 0.0249958346,38.0468233 0,37.9988473" id="Fill-1" fill="#000000" mask="url(#mask-2)"></path>
            </g>
        </g>
    </g>
</svg>