<?xml version="1.0" encoding="utf-8"?>
<!-- Generator: Adobe Illustrator 23.0.3, SVG Export Plug-In . SVG Version: 6.00 Build 0)  -->
<svg version="1.1" id="Contours" xmlns="http://www.w3.org/2000/svg" xmlns:xlink="http://www.w3.org/1999/xlink" x="0px" y="0px"
	 viewBox="0 0 404.9 404.9" style="enable-background:new 0 0 404.9 404.9;" xml:space="preserve">
<style type="text/css">
	.st0{fill:none;}
</style>
<g>
	<path class="st0" d="M182.1,34.5c0.5,1,1,2,1.6,2.9c0.2,0.3,0.9,0.4,1.3,0.5c0.1-0.4,0.3-0.9,0.2-1.3c-0.5-1.4-1.5-2.3-3.1-2.5
		c-0.8-0.6-1.6-1.2-2.5-1.7c-0.3-0.2-0.9,0.2-1.3,0.2c0.1,0.4,0.2,0.8,0.4,1.1C179.6,35.2,180.9,34.5,182.1,34.5z"/>
	<path class="st0" d="M166.5,33.8c-0.2-0.7-0.4-1.4-0.8-2.4c-0.5,0.1-1.1,0.1-1.6,0.4c-0.4,0.2-1,0.7-1,1c0.1,0.5,0.6,1.2,1,1.2
		C164.9,34.3,165.7,34,166.5,33.8z"/>
	<path class="st0" d="M155.9,36.5c-1.7-0.5-1.1,1.2-1.3,2.1c-0.1,0.4-0.1,0.7-0.1,1.1c0.5,0,1-0.1,1.7-0.3
		C156.4,38.4,157.4,37,155.9,36.5z"/>
	<path class="st0" d="M159.9,36.5c0.4-0.2,0.8-0.5,1.5-1c1.1-1-0.3-1.2-0.6-1.8c-0.8,0.4-1.8,0.5-2.3,1.1c-0.4,0.5-0.2,1.5-0.3,2.3
		C158.9,37,159.4,36.8,159.9,36.5z"/>
	<path class="st0" d="M176.4,31.7c-0.8-0.4-1.6-1.2-2.4-1.1c-0.5,0-1.1,1.1-1.5,1.8c-0.2,0.4-0.1,1.2,0.2,1.4
		C173.5,34.6,176.3,33.2,176.4,31.7z"/>
	<path class="st0" d="M168.7,31c-0.1,1,0.1,2,0.2,3c0,0.1,0.6,0.3,0.6,0.3c0.4-0.8,0.7-1.7,1.1-2.5c0-0.1,0-0.3,0-0.8
		C169.8,30.2,168.8,30.1,168.7,31z"/>
	<path class="st0" d="M222.2,336.7c0,0.4,0,0.8,0,1.2c9.3,0.1,23-0.1,31.8,0c1.7,0,3.5,0.1,5.2,0.1c0.3,0,0.7-0.8,0.7-1.3
		c0-0.8-0.3-1.6-0.3-2.4c0-5.4-0.1-10.8,0-16.1c0-1.2-0.4-1.6-1.6-1.6c-2.3,0-4.5-0.1-6.8-0.1c-1.7,0-2.6,1.1-2.4,2.8
		c0.3,2,0.6,4,0.6,6c0.1,2.3-1.6,3.8-3.9,3.8c-3.1-0.1-6.2-0.2-9.3-0.2c-3.1,0-9.8,0.2-14.2,0.3c0.1,1.1,0.2,2.3,0.2,3.4
		C222.3,333.9,222.2,335.3,222.2,336.7z"/>
	<path class="st0" d="M222.6,354.5c0,0.7-0.1,1.5,0,2.2c0.1,2.7,0.3,2.9,2.9,2.8c3.1-0.1,6.1-0.5,9.2-0.5c5.1,0,10.2,0.2,15.3,0.4
		c0.5,0,1.5,1,1.5,1.5c0.1,2.3-0.1,4.5,0,6.8c0,0.7,0.7,1.8,1.3,1.9c2.1,0.4,4.3,0.5,6.4-0.2c0.4-0.1,0.8-0.6,0.9-1
		c0.3-1.8,0.6-3.7,0.5-5.6c-0.1-4.4-0.3-8.8-0.5-13.2c0-0.3-0.6-0.8-1-0.9c-4.9-0.3-9.8-0.6-14.8-0.8c-3.5-0.1-6.9,0.1-10.4,0.1
		c-2.3,0-4.5,0.1-6.8,0.2c-1.1,0.1-2.4,0.6-3.4,0.2c-1.5-0.6-1.5,0.1-1.4,1C222.3,351.1,222.5,352.6,222.6,354.5z"/>
	<path class="st0" d="M221.1,296.8c0.3-2.3-0.4-4.7-0.5-7c-0.2-5.9-0.3-11.9-0.4-17.8c-0.1-3.8-0.1-7.6-0.1-11.4
		c0-5.2,0-10.4,0-15.6c0-3.5-0.1-7.1-0.1-10.6c0-1.9,0.1-3.8,0.1-5.6c0-4.7-0.1-9.5,0-14.2c0-2.3,0.5-4.6,0.5-6.9
		c0-3.9-0.3-7.9-0.5-11.8c-0.1-2.6-0.5-5.2-0.6-7.8c-0.1-3.1,0.1-6.1,0.2-9.2c0-0.2-0.2-0.4-0.4-1c0.2-6.9,0.4-13.8,0.5-20.7
		c0-2.5-0.2-5.1-0.2-7.6c0.1-1.7-0.2-2-1.8-1.9c-3.2,0.3-6.5,0.4-9.7,0.6c-0.6,0-1.2,0-1.8,0c-1.5,0-3-0.1-4.4-0.1
		c-1.2,0-2.8-0.5-3.3,0.9c-0.4,1.3,0,2.8,0.1,4.2c0,0.4,0.4,0.7,0.6,1.1c0.3-0.3,0.7-0.6,1-0.9c0.7-0.6,1.4-1.3,2.3-1.7
		c0.3-0.1,0.9,0.3,1.3,0.5c-0.3,0.3-0.5,0.8-0.9,1c-1.3,0.9-2.7,1.6-3.9,2.6c-0.4,0.4-0.2,1.5-0.2,2.2c0.5-0.3,1-0.5,1.4-0.8
		c0.4-0.3,0.7-0.8,1.2-1.1c0.5-0.4,1-0.7,1.6-0.9c0.1,0,0.7,0.6,0.7,0.8c-0.3,0.6-0.7,1.1-1.2,1.6c-1.3,1.3-2.7,2.4-4,3.7
		c-0.3,0.3-0.2,0.9-0.3,1.3c0.5-0.1,1-0.2,1.4-0.5c1-0.8,2-1.7,3-2.4c0.5-0.4,1.2-0.6,1.8-0.9c-0.2,0.7-0.3,1.4-0.6,2
		c-0.3,0.5-0.9,0.7-1.3,1.1c-1.2,1-2.5,1.9-3.6,2.9c-0.3,0.3-0.1,1.2-0.2,1.8c0.5-0.1,1-0.1,1.4-0.4c1-0.8,1.9-1.8,2.9-2.7
		c0.2-0.2,0.7-0.2,1.1-0.2c0,0.4,0.2,0.9,0,1.1c-0.8,1-1.6,2.5-2.7,2.9c-2.8,1.1-3.1,3.2-3.1,5.7c0,0.5,0.3,0.9,0.4,1.4
		c0.7-0.6,1.4-1.2,2.2-1.8c-0.3-0.1-0.6-0.2-0.8-0.5c-0.2-0.3-0.5-0.9-0.4-1.1c0.9-1.1,1.9-2.2,2.9-3.1c0.2-0.2,0.7-0.1,1.1-0.2
		c0,0.5,0.2,1.1,0,1.3c-0.6,0.7-1.3,1.3-2,2c-0.1,0.1-0.1,0.4-0.1,0.7c0.2,0,0.4,0,0.5,0.1c0.4,0.1,0.8,0.1,1.2,0.2
		c-0.2,0.4-0.4,0.9-0.7,1.2c-1.2,1.2-2.5,2.2-3.7,3.4c-0.4,0.4-0.2,1.3-0.3,1.9c0.5-0.3,1-0.5,1.4-0.9c0.4-0.3,0.7-0.8,1.2-1.1
		c0.7-0.4,1.5-0.7,2.3-1c0.1,0,0.6,0.7,0.5,0.7c-0.6,0.6-1.2,1.1-1.8,1.6c-1,0.9-2.1,1.7-3,2.6c-0.2,0.2-0.1,0.6-0.2,0.9
		c0.4,0,0.8,0.1,1.1,0c0.8-0.6,1.5-1.4,2.4-2.1c0.2-0.2,0.9-0.3,0.9-0.2c0.2,0.3,0.5,0.9,0.3,1.2c-0.3,0.6-0.8,1.1-1.3,1.5
		c-0.9,0.8-2,1.4-2.9,2.2c-0.7,0.7-1,1.6-1.5,2.4c0.8-0.5,1.5-1,2.4-1.3c1-0.4,2.1-0.7,3.1-1c-0.8,0.8-1.5,1.7-2.4,2.5
		c-1,1-2.2,1.8-3.2,2.8c-0.2,0.3,0,0.9,0,1.4c0.4-0.2,0.8-0.4,1.1-0.6c1-0.7,2-1.4,3-2c0.3-0.2,0.7-0.1,1.1-0.1
		c-0.1,0.3-0.2,0.7-0.4,1c-1.3,1.3-2.7,2.5-3.9,3.9c-0.4,0.4-0.3,1.3-0.4,2c0.5-0.3,1.1-0.5,1.6-0.9c0.7-0.6,1.2-1.3,1.8-1.9
		c0.3-0.2,0.8-0.1,1.3-0.1c-0.1,0.4,0,1-0.3,1.2c-1.1,1.1-2.4,2.1-3.4,3.3c-0.6,0.8-0.6,1.9-0.9,2.9c0.7-0.5,1.4-0.9,2.1-1.4
		c0.1,0,0.1-0.1,0.1-0.1c0.8-0.5,1.7-1.1,2.5-1.6c0.9,1.5-0.4,2.1-1.2,3c-1.1,1.3-2.4,2.4-3.4,3.7c-0.2,0.3,0,1,0,1.5
		c0.3-0.2,0.7-0.3,1-0.5c1.2-0.9,2.2-2,3.5-2.8c0.5-0.3,1.3-0.1,1.9-0.2c-0.3,0.5-0.5,1.1-0.9,1.5c-1.8,1.4-3.7,2.7-5.5,4.1
		c-0.3,0.2-0.1,1-0.1,1.5c0.3-0.1,0.7-0.2,1-0.4c1-0.8,2-1.7,3-2.4c0.3-0.2,0.9-0.1,1.3-0.1c-0.1,0.5,0,1-0.3,1.4
		c-0.5,0.7-1.3,1.2-1.8,1.8c-1.1,1.3-2.2,2.6-3.3,3.9c-0.2,0.2,0,0.7,0,1.1c0.3-0.1,0.6-0.2,0.8-0.4c1.1-1,2.2-2.1,3.3-3.1
		c0.2-0.2,0.9,0.2,1.3,0.3c-0.1,0.4-0.2,0.8-0.4,1.1c-1.3,1.3-2.6,2.4-3.8,3.7c-0.6,0.7-1,1.7-1.3,2.6c-0.1,0.3,0.2,0.7,0.4,1
		c0.3-0.2,0.6-0.3,0.8-0.5c0.3-0.3,0.5-0.8,0.8-1c1-0.9,1.9-1.8,3-2.4c0.4-0.2,1.1,0.2,1.7,0.4c-0.2,0.4-0.3,0.9-0.7,1.2
		c-0.7,0.7-1.7,1.2-2.4,1.9c-1.3,1.4-3.4,2.2-3.4,4.5c0,0.4,0.3,0.8,0.5,1.2c0.3-0.2,0.6-0.4,0.9-0.7c1-0.9,2-2,3-2.8
		c0.3-0.2,0.9,0,1.3,0c0,0.4,0.1,0.8-0.1,1.1c-0.6,0.7-1.3,1.3-2,1.9c-1,0.8-2.1,1.4-3.1,2.2c-0.3,0.2-0.1,0.9-0.2,1.4
		c0.4-0.2,0.8-0.2,1.1-0.5c0.7-0.5,1.2-1.2,1.9-1.7c0.3-0.2,0.9-0.1,1.3-0.1c-0.1,0.5,0,1-0.3,1.4c-0.2,0.3-0.7,0.5-1,0.8
		c-1,1-1.9,2-2.8,3.1c-0.2,0.3,0,0.9,0,1.4c0.5-0.2,1-0.3,1.4-0.7c0.8-0.8,1.4-1.7,2.2-2.4c0.2-0.2,1-0.1,1.3,0.1
		c0.2,0.2,0.2,1,0,1.3c-0.6,0.7-1.5,1.2-2.2,1.9c-1,1-1.9,2.2-2.8,3.3c-0.2,0.2-0.2,0.6-0.3,0.9c0.4-0.1,0.8,0,1.1-0.2
		c0.7-0.6,1.3-1.3,2.1-1.9c0.3-0.2,0.8-0.2,1.2-0.3c0,0.5,0.1,1.1-0.1,1.5c-0.7,0.8-1.6,1.4-2.2,2.2c-0.6,0.7-1.2,1.5-1.6,2.3
		c-0.2,0.3,0.1,0.9,0.1,1.3c0.3-0.2,0.7-0.3,1-0.5c0.9-1,1.8-2,2.8-3c0.3-0.3,0.8-0.4,1.3-0.6c0,0.6,0.2,1.4-0.1,1.7
		c-0.9,1.1-2.1,2-3.1,3.1c-1,1-2.7,1.7-2.3,3.6c0,0.3,0.2,0.5,0.3,0.8c0.3-0.2,0.6-0.3,0.8-0.5c1.1-1,2.1-2.2,3.3-3.2
		c0.4-0.3,1.1-0.3,1.6-0.4c-0.1,0.6-0.1,1.2-0.3,1.8c-0.2,0.3-0.7,0.5-1,0.8c-1.4,1.2-2.7,2.4-4,3.8c-0.3,0.3-0.1,0.9-0.2,1.3
		c0.4-0.1,0.9-0.2,1.2-0.4c0.9-0.8,1.7-1.7,2.6-2.4c0.4-0.3,1-0.4,1.5-0.5c-0.1,0.5,0,1.2-0.4,1.5c-1.2,1.2-2.5,2.3-3.7,3.5
		c-0.7,0.7-1.3,1.5-1.6,2.4c-0.3,0.8,0,1.7,0,2.6c0.6-0.6,1.3-1.3,1.9-1.9c1.1-1.1,2.2-2.3,3.4-3.3c0.3-0.2,1,0.1,1.6,0.2
		c-0.2,0.4-0.3,0.8-0.6,1.1c-1.9,1.9-3.9,3.7-5.8,5.6c-0.3,0.3-0.3,1-0.5,1.5c0.5-0.1,1-0.1,1.3-0.4c0.9-0.8,1.7-1.7,2.6-2.4
		c0.6-0.5,1.9-1.1,2-0.9c1,1.2-0.1,1.8-0.9,2.5c-0.3,0.3-0.7,0.4-0.9,0.6c-1.3,1.3-2.6,2.5-3.7,3.9c-0.4,0.5-0.1,1.6-0.1,2.4
		c0.5-0.4,1.1-0.7,1.5-1.1c0.5-0.4,0.8-0.9,1.3-1.2c0.8-0.6,1.6-1,2.4-1.5c0,0,0.6,0.8,0.6,0.9c-0.6,0.8-1.2,1.7-2,2.2
		c-1.8,1.3-3.5,2.6-4.1,4.9c-0.1,0.3-0.2,0.6-0.3,1c0.4-0.1,0.9,0,1.2-0.3c0.8-0.8,1.6-1.7,2.3-2.6c0.2-0.2,0.5-0.3,0.7-0.4
		c0.2,0.3,0.4,0.5,0.4,0.8c0.3,1.6-0.9,2.3-2,3c-1.6,0.9-2.3,2.2-2.1,4c0,0.4,0.3,0.7,0.4,1c0.3-0.2,0.6-0.3,0.8-0.5
		c0.7-0.7,1.2-1.6,1.9-2.1c0.4-0.3,1.1,0,1.7,0c-0.1,0.5-0.1,1.1-0.4,1.3c-1,0.8-2.2,1.4-3,2.3c-0.7,0.8-1.1,2-1.6,3.1
		c0.4,0.1,0.9,0.5,1.1,0.3c0.4-0.2,0.6-0.9,1-1.1c1.2-0.7,2.4-1.3,3.6-1.8c0.3-0.1,0.8,0.3,1.1,0.5c-0.2,0.3-0.4,0.8-0.7,1
		c-0.8,0.6-1.7,1-2.5,1.6c-2,1.5-3.9,3.1-4.1,5.9c0,0.4,0.2,0.8,0.3,1.2c0.3-0.2,0.6-0.4,0.9-0.7c1.8-1.8,3.5-3.6,5.3-5.2
		c0.4-0.3,1.2-0.2,1.8-0.3c-0.2,0.6-0.3,1.2-0.5,1.8c-0.1,0.3-0.6,0.4-0.9,0.7c-1.4,1.3-2.8,2.6-4.2,3.8c-0.4,0.3-0.8,0.6-1.3,0.8
		c-0.3,0.1-0.9,0.1-0.9,0.2c-0.1,0.6,0,1.2,0.1,1.7c0.4-0.1,0.9-0.1,1.2-0.3c1.2-0.9,2.3-1.9,3.4-2.8c0.5-0.4,1.1-0.9,1.7-1.2
		c0.2-0.1,0.8,0,0.9,0.2c0.1,0.2,0.1,0.7-0.1,0.9c-1.2,1.2-2.6,2.2-3.8,3.4c-1.2,1.2-3.2,1.8-3.2,3.9c0,0.2,0.7,0.5,0.8,0.5
		c1-0.9,1.9-1.8,2.9-2.7c0.6-0.5,1.3-0.7,2-1.1c-0.1,0.8-0.2,1.6-0.5,2.3c-0.1,0.3-0.6,0.4-0.9,0.6c-1.4,1.4-2.7,2.7-4,4.2
		c-0.2,0.2,0.1,0.8,0.1,1.2c0.4-0.2,0.8-0.2,1.1-0.5c0.8-0.8,1.4-1.7,2.2-2.4c0.6-0.4,1.4-0.5,2.2-0.7c-0.3,0.7-0.4,1.6-0.9,2.1
		c-1.3,1.3-2.8,2.4-4.1,3.6c-0.5,0.5-0.8,1.2-1,1.9c-0.1,0.3,0.2,0.7,0.3,1c0.3-0.1,0.6-0.2,0.8-0.4c0.9-1,1.8-2,2.8-3
		c0.2-0.2,0.6-0.3,0.8-0.5c0.1,0.3,0.5,0.8,0.4,1c-0.7,1.1-1.5,2.2-2.3,3.1c-0.8,0.9-1.9,1.6-2.7,2.4c-0.2,0.2-0.1,0.8,0.1,1.2
		c0.1,0.1,0.8,0.1,1,0c1-0.6,2-1.4,3-2c0.4-0.2,0.9-0.3,1.4-0.4c-0.1,0.4-0.2,0.8-0.3,1.2c-0.1,0.4-0.2,0.7-0.3,1.1
		c0.4,0,0.7,0.1,1.1,0.1c1.5-0.2,3-0.5,4.5-0.5c3.5-0.1,7.1-0.1,10.6-0.2c0.5,0,1.3-0.7,1.3-0.9
		C221.2,303.2,220.7,300.1,221.1,296.8z"/>
	<path class="st0" d="M226.5,38.2c-0.5,0.1-1.1,0-1.3,0.3c-0.5,0.6-0.7,1.4-0.9,2.3c0.3,0.4,0.7,0.8,1,1.2c0.3-0.5,0.5-0.9,0.8-1.4
		c0.2-0.4,0.5-0.9,0.6-1.3C226.8,39,226.6,38.6,226.5,38.2z"/>
	<path class="st0" d="M219.9,337.9c0-0.6-0.1-1.3-0.1-1.9c0-2.3,0-4.6,0-6.9c-0.1,0-0.2,0-0.3,0c-0.7,0-1.4-0.5-2.1-0.8
		c0.7-0.5,1.4-1.4,2.2-1.5c0,0,0.1,0,0.2,0c0-2.6,0-5.1,0-7.7c0-0.2,0-0.4,0-0.6c-0.1-1.2-0.5-2.2-2.1-2.1c-2.8,0.1-5.6,0.4-8.4,0.1
		c-2.9-0.3-5.2,0.6-7.6,1.9c-2.3,1.3-4.1,3-4,6c0,0.3,0.5,0.6,0.7,0.9c0.8-0.9,1.6-1.8,2.5-2.7c0.5-0.6,0.9-1.2,1.5-1.7
		c0.1-0.1,1.1,0.5,1.1,0.8c0.1,0.6,0,1.4-0.4,1.9c-1.7,2.1-3.4,4.1-5.1,6.1c-0.2,0.2-0.1,0.7-0.1,1.1c0.3-0.1,0.6-0.1,0.8-0.3
		c1.4-1.2,2.8-2.5,4.3-3.6c0.3-0.3,0.9-0.2,1.3-0.3c0,0.4,0.2,1,0,1.2c-0.9,1-1.9,2.1-2.9,2.9c-1,0.8-2.1,1.3-3.1,2.1
		c-0.3,0.2-0.1,1-0.1,1.6c0.5-0.2,1-0.3,1.4-0.6c0.4-0.3,0.5-0.9,0.9-1.2c0.6-0.3,1.3-0.5,2-0.7c-0.2,0.7-0.3,1.5-0.7,2
		c-0.5,0.6-1.3,1-1.9,1.5c-0.8,0.8-1.6,1.7-2.3,2.6c-0.2,0.3,0,0.9,0,1.3c0.3-0.1,0.7-0.2,1-0.4c0.6-0.4,1.1-0.9,1.7-1.2
		c0.4-0.2,1-0.1,1.5-0.1c-0.1,0.5-0.1,1.1-0.3,1.6c-0.2,0.3-0.8,0.4-1.1,0.7c-0.9,0.9-1.8,1.8-2.5,2.9c-0.2,0.3,0,1.1,0,1.6
		c0.4-0.3,0.9-0.5,1.2-0.9c0.6-0.6,1-1.3,1.6-1.8c0.3-0.2,0.9-0.1,1.3-0.1c0,0.4,0.1,1-0.1,1.3c-1,1.2-2.1,2.3-3.4,3.6
		c-0.2,1-0.5,1.9-0.6,2.9c-0.1,0.4,0.1,0.9,0.1,1.4c0.4-0.2,1-0.4,1.2-0.7c0.5-0.6,0.6-1.5,1.1-2.1c0.3-0.3,1-0.3,1.5-0.5
		c0,0.4,0.2,0.9,0,1.2c-0.6,1-1.3,2-2.1,2.9c-0.5,0.6-1.3,1-1.7,1.7c-0.3,0.5-0.1,1.3-0.2,2c0.5-0.2,1.1-0.3,1.5-0.6
		c1-0.7,1.9-1.6,2.9-2.3c0.3-0.2,0.9,0.2,1.3,0.3c-0.1,0.4-0.2,0.9-0.4,1.1c-0.7,0.5-1.7,0.8-2.2,1.4c-1.1,1.3-3.4,1.7-3,4.1
		c0.1,0.3,0.2,0.6,0.2,0.9c0.3-0.1,0.6-0.3,0.8-0.5c1.1-1,2.1-2,3.1-3c0.9-0.8,1.3-0.3,1.4,0.5c0.2,1.4-0.4,2.2-1.6,2.9
		c-2.9,1.6-3.9,3-3.7,5.7c0,0.5,0.6,1,1,1.5c0.3-0.3,0.6-0.7,1-1c0.9-1,1.8-2.1,2.8-3c0.5-0.4,1.2-0.5,1.9-0.6
		c0.2,0,0.5,0.3,0.8,0.4c-0.1,0.2-0.2,0.5-0.4,0.7c-1.9,1.6-3.8,3.1-5.6,4.7c-0.5,0.4-0.9,1.1-1.1,1.7c-0.1,0.3,0.2,0.8,0.3,1.2
		c0.3-0.2,0.7-0.3,1-0.5c0.7-0.6,1.3-1.4,2-1.9c0.8-0.5,1.7-0.7,2.6-1.1c-0.5,0.9-0.7,1.9-1.4,2.5c-1.1,1.1-2.5,1.9-3.8,2.9
		c-0.3,0.2-0.6,0.9-0.5,1.1c0.2,0.4,0.8,0.7,1.2,0.7c0.7,0,1.8,0,2.1-0.4c1.3-1.6,2.4-2.8,4.1-0.6c0.1,0.1,0.5,0,0.8,0
		c4,0.1,8,0.1,11.9,0.3c1.3,0.1,1.8-0.4,1.7-1.7c-0.2-2.7-0.5-5.4-0.6-8c-0.2-5.3-0.3-10.7-0.4-16c0-0.9,0.4-1.7,0.4-2.6
		c-0.1-1.9-0.2-3.8-0.3-5.6c-0.6-0.2-1.1-0.9-1.7-1.3C218.9,338.8,219.4,338.3,219.9,337.9z"/>
	<path class="st0" d="M198.3,318.5c0.5-0.5,0.9-1,1.1-1.8c-0.6,0.4-1.2,0.8-1.8,1.3C197.8,318.2,198.3,318.5,198.3,318.5z"/>
	<path class="st0" d="M202.8,386.5c0.3-0.3,0.5-0.7,0.7-1.1c0.7-0.7,1.4-1.6,2.4-0.6c1,1-0.1,1.5-0.7,2c-1.3,1.3-2.7,2.4-3.8,3.8
		c-0.4,0.5-0.2,1.5-0.3,2.2c0.4,0,0.9,0.2,1.1,0c1.2-1,2.3-2.2,3.5-3.2c0.4-0.3,0.9-0.5,1.4-0.7c-0.1,0.6,0.1,1.4-0.3,1.9
		c-0.9,1.1-2,2.1-3.1,3c-1.3,1-0.7,2.4-0.9,3.6c0.4,0,0.9,0.2,1.1,0.1c1.3-1,2.4-2.2,3.8-3.1c0.5-0.4,1.4-0.2,2.1-0.2
		c-0.3,0.7-0.4,1.6-0.9,1.9c-1.1,0.8-2.4,1.3-3.5,2c-0.2,0.2-0.4,1.1-0.3,1.1c1.3,0.6,2.7,1.5,4.1,0.3c1.5-1.3,3-2.7,4.6-3.9
		c0.4-0.3,1.1-0.3,1.6-0.4c-0.1,0.5,0,1.2-0.3,1.5c-0.8,0.9-1.9,1.7-2.8,2.6c-0.3,0.3-0.4,0.7-0.6,1.1c0.4,0,1,0.1,1.3-0.1
		c2.4-1.3,4.6-2.8,5.4-5.7c0.8-2.7,1.9-5.4,2.4-8.1c0.2-1.2,1.2-3-1.2-3.9c-2.6,0.1-5.2,0.2-7.8,0.2c-2.3,0-4.7-0.3-7-0.1
		c-1.3,0.1-2.9,0.8-3.7,1.8c-0.6,0.8-0.2,2.4-0.2,3.6C201.6,387.5,202.2,387.1,202.8,386.5z"/>
	<path class="st0" d="M149.1,60c-2.8,1.1-2.8,0.8-2.3,3.6c0.6,3.3,1.5,6.5,3.5,9.3c1.5,2,2.9,4.2,4.5,6.1c3.2,4,7,7.3,12.2,8.6
		c3.2,0.8,6.6,1.1,9.8,1.9c4.7,1.1,9.5,2.1,14.1,3.5c7.9,2.5,14.6,6.3,15.7,15.7c0,0.3,0.4,0.6,0.6,0.9c0.2-0.2,0.5-0.4,0.7-0.7
		c0.6-1.2,1.1-2.5,1.8-3.6c1.9-2.9,4.8-4.6,7.8-6.3c3-1.7,5.8-3.6,8.8-5.2c2-1.1,4.1-2,6.2-2.8c2.2-0.8,4.5-1.2,6.7-2.1
		c3.5-1.5,7-3.1,10.2-5.2c3.2-2,6.2-4.4,7.4-8.3c0.9-2.9,1.5-5.9,2.7-8.7c0.9-2.1,0.2-2.1-1.5-2.1c-3.1,0-5.1-1.4-6.5-4.3
		c-1.6-3.1-0.9-6-0.3-9c0.3-1.6,0.5-3.1-0.5-4.6c-1.9-2.7-4.1-4.9-7-6.7c-3-1.9-6.1-2.2-9.3-1.7c-3.5,0.5-7.7,5.7-7.9,9.1
		c0,0.2,0.2,0.5,0.3,0.6c0.2,0.1,0.5-0.1,0.7-0.2c0.9-0.3,1.9-1.1,2.7-1c2.8,0.4,5.2,1.5,6.5,4.7c0.1,1,0.3,2,0.3,3
		c0,4-1.7,7.2-4.3,10.2c-4.5,5.1-11.3,7-17.4,4.3c-5.1-2.3-8.4-8.1-8.5-13.7c0-4.1,0.6-8.3,1.5-12.4c0.5-2.1,0.9-4.7,3.2-6
		c0.2-0.1,0.4-0.8,0.3-0.9c-0.3-0.3-0.8-0.5-1.2-0.5c-1.2,0.2-2.4,0.3-3.5,0.7c-0.8,0.3-1.8,0.3-1.4,2c1.3,5.5,0.4,10.9-0.9,16.3
		c-1.1,4.3-3.6,7.7-7,10.6c-3.5,3-7.4,4.5-12,3.2c-2.7-0.8-5.1-2-6.6-4.5c-1.7-2.8-2.6-5.9-3.1-9c-0.6-3.4,2.2-8.8,6.6-8.8
		c0.4,0,1.1-0.9,1.1-1.3c-0.2-3-1.9-6.5-5.3-7.4c-4.5-1.2-9.1-0.9-13.7,0.3c-4.5,1.2-7.6,4.3-10.6,7.6c-0.9,1-1.3,2.8-1.4,4.3
		c-0.3,2.4,0.2,4.9-0.4,7.2C152.1,58.1,150.5,59.5,149.1,60z"/>
	<path class="st0" d="M190.4,42.4c-0.8,0.5-1.6,1-2.3,1.6c-0.8,0.7-1.5,1.6-0.6,2.7c0.5,0.6,1.3,1.1,1.9,1.6
		c0.5-0.8,1.1-1.7,1.7-2.9C190.8,44.4,190.6,43.4,190.4,42.4z"/>
	<path class="st0" d="M222.7,43.7c-0.3,0.1-0.4,0.6-0.8,1.1c-0.3,3.1-0.6,6.1-0.8,9.2c0,0.3,0.3,0.7,0.4,1c0.3-0.2,0.9-0.4,1-0.7
		c0.2-0.7,0.2-1.5,0.2-2.3c0.1-1.3,0-2.7,0.3-3.9c0.2-1.1,0.9-2.1,1.3-3.2c0.2-0.5,0-1,0-1.6C223.7,43.4,223.1,43.4,222.7,43.7z"/>
	<path class="st0" d="M190.3,51.6c0.2-0.5,0.4-1,0.6-1.5c-0.2,0-0.6,0-0.6,0C190.1,50.5,190.1,50.9,190.3,51.6z"/>
	<path class="st0" d="M232.6,34.8c0.3-0.2,0.2-0.9,0.2-1.3c-0.4,0-1-0.2-1.2,0c-1.1,0.8-2.2,1.8-3.2,2.7c-0.2,0.2-0.1,0.7-0.1,1
		c0.4,0,0.7-0.1,1.3-0.3C230.6,36.3,231.7,35.6,232.6,34.8z"/>
	<path class="st0" d="M186.9,37.7c-0.3,0.8-0.6,1.6-0.9,2.4c0,0.1,0,0.3,0,0.4c0.3,0.9,0.6,1.7,0.9,2.6c0.4-0.6,0.9-1.3,1.5-2.1
		c1.3-1.1-0.2-1.9-0.4-2.8C187.8,37.9,187.2,37.8,186.9,37.7z"/>
	<path class="st0" d="M281.9,22.2c-2.3-0.2-4.8-0.5-6.7,1.4c-1.1,1.1-2.5,2.1-3.4,3.3c-0.9,1.3-2.1,2.6-1.4,4.5
		c0.2,0.6-0.3,1.4-0.4,2.2c-0.7-0.3-1.4-0.6-2-1c-0.3-0.2-0.5-0.4-0.7-0.7c-4-6-10.2-8.5-16.8-10.1c-2.7-0.6-4.4-0.8-7.2-1.4
		c-2.9-0.7-6.9,0.6-9.7,2.2c-1.1,0.6-2.2,1.2-3.4,1.6c-1.9,0.7-3.7,1.8-5.6,2.3c-0.8,0.2-2,0.1-2.4-0.4c-0.4-0.4-0.1-1.6,0.1-2.4
		c0.3-1.5,1.4-3.1,1.2-4.4c-0.5-3-1.4-6.1-3.6-8.4c-3.4-3.7-7.4-6.2-12.5-7.1c-4.6-0.8-8.3,0.2-11.4,3.4c-3.5,3.6-4.1,8.3-3.6,13.1
		c0.2,1.5-0.3,2.4-1.7,2.3c-0.8,0-1.7-0.1-2.4-0.5c-5.4-3.5-11.4-4.4-17.6-4.7c-6.4-0.3-12.4,1.4-18.4,3.4c-1.4,0.5-2.5,1.5-3.8,2.4
		c-0.5,0.3-0.9,0.8-1.3,1.2c-0.4-0.6-1-1.1-1.3-1.7c-1.4-4.4-3.3-6.5-7.9-6.5c-1.6,0-2,0.8-1.6,2.3c0.8,2.8,1.8,5.6,2.1,8.4
		c0.3,2.7,0,5.5-0.1,8.3c-0.1,1.2-0.4,3.1-0.8,4.2c-1.5,4.2-3.2,8.4-4.6,12.6c-0.9,2.9-1.6,6-1.9,9c-0.6,5.2,1.1,10,2.2,15
		c1.4,5.8,3.8,11.2,6.3,16.5c1.6,3.4,4.5,5.9,7.8,7.9c1.1,0.6,2.2,1.3,3.1,2.1c0.7,0.6,1,1.6,1.5,2.4c-1-0.2-2.1-0.3-3-0.7
		c-3.2-1.6-6.2-3.5-9.5-4.9c-2.4-1.1-5-1.8-7.6-2.3c-1.7-0.3-4,1.4-3.8,2.6c0.4,2.2,0.4,4.6,2.5,6.1c1.6,1.1,3.3,2.1,5,3.2
		c3.9,2.6,8.4,3,12.9,3.5c2.2,0.2,4.4,0.8,6.6,0.9c2.8,0.2,5.6,0.1,8.4,0.3c2.7,0.1,5.4,0.4,8.1,0.7c0.3,0,0.6,0.6,0.9,1
		c-0.4,0.2-0.8,0.5-1.2,0.5c-1.7,0.1-3.3,0.1-5,0.3c-3.1,0.3-6.2,0.9-9.3,0.9c-2.7,0-5,0.9-7.4,1.9c-2.3,1-2.8,3.7-0.9,5.4
		c1.9,1.7,3.8,2.7,6.3,2.6c4.2-0.2,8.5-0.4,12.7-0.9c3.5-0.4,7-1.1,10.6-1.7c3.4-0.6,6.8-1.4,10.2-1.7c5.4-0.5,10.6,0.7,15.4,3.4
		c1.2,0.7,2.3,0,2.3-1.4c0.1-2.4,0.3-4.8,0.1-7.2c-0.2-3.6-1.2-7.1-2.9-10.3c-2.3-4.2-5.3-7.6-10-9.1c-2.5-0.8-5-1.3-7.5-2.2
		c-5.5-2.1-11.4-2.8-17.2-3.9c-5-0.9-9.4-3-12.9-6.8c-1.9-2.1-3.6-4.4-5.5-6.5c-3-3.6-5.5-7.4-6.5-12.1c-0.5-2.1-0.6-4.4-1.4-6.4
		c-0.7-1.8,0.2-2,1.5-2.3c0.6-0.1,1.2,0.1,1.8,0c2.8-0.3,4.2-0.5,4-4c-0.1-1.5-0.4-3-0.6-4.5c-0.1-0.8-0.1-1.5-0.1-2.3
		c0-1.1,0.3-2.2,0.2-3.2c-0.4-3.1-0.4-6,2.3-8.1c0.7-0.5,1.5-0.9,2.2-1.4c3.4-1.8,6.7-3.8,10.2-5.3c4.6-2,9.3-2.3,14.3-0.4
		c2.7,1,4.9,2.6,7.4,3.8c4.2,1.9,6.8,5.3,8.1,9.2c1.6,4.9,1.2,10-2.3,14.4c-0.9,1.2-1.6,2.5-2.7,3.6c-0.5,0.5-1.5,0.6-2.3,0.6
		c-0.2,0-0.4-1.2-0.5-1.9c-0.2-1.4-0.1-2.8-0.4-4.2c-0.1-0.6-0.9-1.3-1.5-1.3c-0.6-0.1-1.6,0.4-2,0.9c-1.7,2.3-0.5,9.1,1.9,10.5
		c2.3,1.4,4.8,2,7.5,1c2.7-1,4.9-2.7,6.8-4.8c3-3.4,4.6-7.4,5-11.9c0.4-4.7-0.8-9.2-1.8-13.7c-0.1-0.6-0.2-1.4,0.2-1.7
		c0.4-0.3,1.2-0.4,1.8-0.3c1,0.2,2,0.7,3,0.8c2.3,0.2,4.5-0.2,6.4-1.7c0.4-0.3,1-0.2,1.5-0.3c0,0.5,0,1.1-0.1,1.6
		c-0.2,0.6-0.7,1.2-0.7,1.9c-0.2,3.4-1.3,6.5-2.2,9.7c-1.6,5.9-1.9,11.9,1.2,17.5c1.7,3,4.4,4.9,7.8,5c3.9,0.1,7.4-1.5,10.1-4.4
		c1.4-1.5,2.8-3.3,2.4-5.5c-0.2-1-1-2.3-1.9-2.7c-0.7-0.3-2.4,0.1-2.9,0.7c-1.3,1.6-2,3.5-3.2,5.2c-0.5,0.7-1.4,1.7-2.1,1.6
		c-1.4-0.2-2.8-0.7-3.9-1.5c-2.2-1.7-2.3-3.9-1.9-6.6c0.6-4.2,1.8-8.1,3.5-11.9c2-4.6,5.1-7.9,9.4-10.4c1-0.6,2-1.3,3.1-1.8
		c6.4-2.8,12.2,0,17.7,2.7c2.4,1.2,4.3,3.5,6.1,5.6c0.8,0.9,1.7,2.7,1.4,3.8c-1.5,4.4-3.7,8.6-4.5,13.3c-0.4,2.5,0.6,4,2.2,5.4
		c1.2,1.1,2.5,0.5,3.7-0.3c1.5-0.9,2.6-0.1,3.2,1.1c0.5,1.1,0.6,2.6,0.4,3.7c-0.7,3.1-1.6,6.1-2.6,9.1c-0.7,2-1.3,4.3-2.7,5.8
		c-4.8,5.6-11.2,9.1-18,11.8c-1.4,0.6-3,0.6-4.5,1.2c-2.9,1.2-5.8,2.3-8.5,3.9c-4.3,2.5-8.8,4.6-12.4,8.2c-3.3,3.2-3.9,7.3-4.1,11.4
		c-0.1,2.6,0.4,5.2,0.5,7.8c0,1,0.2,1.7,1.4,1.6c1.3-0.1,1.2-1.2,1-1.9c-0.7-2.5,0-4.7,0.6-7.1c1.7-6.7,5.7-11.6,11.6-14.8
		c4.7-2.6,9.6-4.7,14.4-7c6.6-3.2,13.4-5.9,18.3-11.8c0.5-0.6,1.2-2,2.2-0.9c0.3,0.3-0.4,1.6-0.7,2.5c0,0.1-0.2,0.2-0.3,0.3
		c-2.9,2.7-5.6,5.6-8.6,8.1c-1.7,1.4-3.8,2.4-5.7,3.6c-3.5,2.2-7.1,4.3-10.3,6.9c-2.1,1.7-3.5,4.3-5.3,6.5
		c-3.5,4.5-4.4,10.7-9.5,14.1c-0.2,0.1-0.2,0.6-0.3,0.9c0.3,0,0.7,0.1,1,0c1.8-0.2,3.7-0.3,5.4-0.7c1.6-0.3,3.7,0,4.2-2.4
		c0-0.1,1.1-0.3,1.4-0.1c1,0.7,1.7,1.2,3.2,0.9c2-0.4,4.1-0.1,6.2,0.1c1.8,0.2,3.6,0.7,5.4,0.9c3.5,0.4,7.1,0.7,10.6,1.1
		c2.5,0.3,5.2-1.1,6.2-3.6c-1.2-3.1-4.1-4.8-6.8-5.3c-3.8-0.8-8-0.5-11.9,0c-3.9,0.5-7.7,1.9-11.5,2.8c-0.6,0.1-1.2,0-1.8-0.1
		c0.3-0.4,0.6-1,1-1.2c4.7-2.3,9.5-4.6,14.9-4.7c1.5,0,2.9,0.1,4.4,0.1c3.3,0.1,6.6-0.1,9.8,0.4c4.1,0.5,8,1,11.2-2.6
		c2-2.2,2.6-6.4,0.1-8.9c-3.8-3.7-10.2-4.4-14.8-1.7c-2,1.2-4.2,2.3-6.2,3.4c-0.9,0.5-2.1,0.2-2.5-0.8c-0.5-1.1,0.4-1.7,1.4-2.3
		c2.4-1.3,4.7-2.6,6.8-4.2c1.8-1.4,3.4-3.2,4.9-5c3.3-3.9,6.7-7.6,9-12.3c2.5-4.9,3.9-9.9,4.9-15.1c0.5-2.7,1.3-5.4,1.7-8.1
		c0.4-2.8,0.8-5.6,0.6-8.3c-0.2-2.9-0.7-5.7-0.6-8.7c0-4.7,3-10.7,5-14.3C283.4,23.3,283.4,22.3,281.9,22.2z"/>
	<path class="st0" d="M241.8,33.4c0.2-0.5,0.1-1,0.1-1.5c-0.6,0-1.5-0.2-1.7,0.1c-0.4,0.8-0.6,1.7-0.8,2.6c0.5,0.1,0.9,0.1,1.6,0
		C241.3,34.3,241.7,33.9,241.8,33.4z"/>
	<path class="st0" d="M254.6,45c0-1.7,0-3.4-0.3-5.1c-0.1-0.4-1-0.6-1.7-0.7c-0.3,1-1,2.1-0.9,3c0.2,1.1,1.2,2,1.9,2.9
		C253.8,45.2,254.6,45,254.6,45z"/>
	<path class="st0" d="M236.9,34.9c0.5-0.4,0.4-1.6,0.4-2.4c0-0.2-1.1-0.6-1.2-0.5c-0.4,0.5-0.7,1.1-0.8,1.9
		C235.6,34.7,236,35.7,236.9,34.9z"/>
	<path class="st0" d="M248,38.6c0.8,0.3,1.7,1.6,2.5,0.2c0.6-1.1,0.6-2.2-0.4-3.1c-0.2-0.2-0.4-0.4-0.9-0.6
		c-0.5,0.3-1.4,0.8-1.3,0.9C248.2,36.9,246.4,38,248,38.6z"/>
	<path class="st0" d="M245.1,33.1c-0.6,0-1.2,1.2-1.6,2c-0.1,0.3,0.5,1.3,0.7,1.3c0.5,0,1-0.5,1.5-1.2
		C245.5,34.5,247.2,33,245.1,33.1z"/>
	<path d="M222.1,329.1c4.4-0.1,11.1-0.3,14.2-0.3c3.1,0,6.2,0.1,9.3,0.2c2.3,0,3.9-1.5,3.9-3.8c-0.1-2-0.4-4-0.6-6
		c-0.2-1.7,0.7-2.8,2.4-2.8c2.3,0,4.5,0.2,6.8,0.1c1.2,0,1.6,0.4,1.6,1.6c-0.1,5.4,0,10.8,0,16.1c0,0.8,0.3,1.6,0.3,2.4
		c0,0.5-0.5,1.3-0.7,1.3c-1.7,0.1-3.5,0-5.2-0.1c-8.8-0.1-22.4,0-31.8,0c0,0.9,0,1.9,0.1,2.8c0.4,0,0.7,0,1.1-0.1
		c2.7-0.1,10.7-0.3,13.2-0.3c4.3,0,8.6-0.1,12.8-0.1c3.6,0,7.2,0.2,10.7,0.2c0.6,0,1.5-0.2,1.7-0.6c0.5-1.3,0.9-2.8,0.9-4.2
		c0-4.9-0.3-9.9-0.4-14.8c0-1.6,0-3.2,0.1-4.8c0.2-2.1-0.4-2.9-2.5-3c-3.5-0.2-6.9-0.4-10.4-0.6c-1.7-0.1-3.6,2.1-3.4,3.8
		c0.3,2.8,0.4,5.6,0.5,8.5c0,0.4-0.6,1.1-1.1,1.2c-1.1,0.3-2.3,0.3-3.4,0.4c-3.7,0.1-7.4,0.1-11.2,0.2c-1.5,0-6,0.2-9,0.3
		c0,0.1,0,0.2,0,0.2C222,327.6,222.1,328.3,222.1,329.1z"/>
	<path d="M220.4,329.1c0.5,0,1.1,0,1.7,0c0-0.7-0.1-1.5,0-2.2c0-0.1,0-0.2,0-0.2c-0.9,0.1-1.7,0.1-2.3,0.2c0,0.6,0,1.2,0,1.7
		C219.8,328.8,220.1,329.1,220.4,329.1z"/>
	<path d="M220.7,337.9c-0.3,0-0.8,0-0.8,0c0,0.9,0.1,1.8,0.1,2.7c0,0,0,0,0.1,0c0.7,0.2,1.4,0.2,2.2,0.1c0-0.9,0-1.9-0.1-2.8
		C221.7,337.9,221.2,337.9,220.7,337.9z"/>
	<g>
		<path class="st0" d="M159.9,36.5c0.4-0.2,0.8-0.5,1.5-1c1.1-1-0.3-1.2-0.6-1.8c-0.8,0.4-1.8,0.5-2.3,1.1c-0.4,0.5-0.2,1.5-0.3,2.3
			C158.9,37,159.4,36.8,159.9,36.5z"/>
		<path class="st0" d="M166.5,33.8c-0.2-0.7-0.4-1.4-0.8-2.4c-0.5,0.1-1.1,0.1-1.6,0.4c-0.4,0.2-1,0.7-1,1c0.1,0.5,0.6,1.2,1,1.2
			C164.9,34.3,165.7,34,166.5,33.8z"/>
		<path class="st0" d="M168.7,31c-0.1,1,0.1,2,0.2,3c0,0.1,0.6,0.3,0.6,0.3c0.4-0.8,0.7-1.7,1.1-2.5c0-0.1,0-0.3,0-0.8
			C169.8,30.2,168.8,30.1,168.7,31z"/>
		<path class="st0" d="M176.4,31.7c-0.8-0.4-1.6-1.2-2.4-1.1c-0.5,0-1.1,1.1-1.5,1.8c-0.2,0.4-0.1,1.2,0.2,1.4
			C173.5,34.6,176.3,33.2,176.4,31.7z"/>
		<path class="st0" d="M182.1,34.5c0.5,1,1,2,1.6,2.9c0.2,0.3,0.9,0.4,1.3,0.5c0.1-0.4,0.3-0.9,0.2-1.3c-0.5-1.4-1.5-2.3-3.1-2.5
			c-0.8-0.6-1.6-1.2-2.5-1.7c-0.3-0.2-0.9,0.2-1.3,0.2c0.1,0.4,0.2,0.8,0.4,1.1C179.6,35.2,180.9,34.5,182.1,34.5z"/>
		<path class="st0" d="M155.9,36.5c-1.7-0.5-1.1,1.2-1.3,2.1c-0.1,0.4-0.1,0.7-0.1,1.1c0.5,0,1-0.1,1.7-0.3
			C156.4,38.4,157.4,37,155.9,36.5z"/>
		<path class="st0" d="M202.8,386.5c0.3-0.3,0.5-0.7,0.7-1.1c0.7-0.7,1.4-1.6,2.4-0.6c1,1-0.1,1.5-0.7,2c-1.3,1.3-2.7,2.4-3.8,3.8
			c-0.4,0.5-0.2,1.5-0.3,2.2c0.4,0,0.9,0.2,1.1,0c1.2-1,2.3-2.2,3.5-3.2c0.4-0.3,0.9-0.5,1.4-0.7c-0.1,0.6,0.1,1.4-0.3,1.9
			c-0.9,1.1-2,2.1-3.1,3c-1.3,1-0.7,2.4-0.9,3.6c0.4,0,0.9,0.2,1.1,0.1c1.3-1,2.4-2.2,3.8-3.1c0.5-0.4,1.4-0.2,2.1-0.2
			c-0.3,0.7-0.4,1.6-0.9,1.9c-1.1,0.8-2.4,1.3-3.5,2c-0.2,0.2-0.4,1.1-0.3,1.1c1.3,0.6,2.7,1.5,4.1,0.3c1.5-1.3,3-2.7,4.6-3.9
			c0.4-0.3,1.1-0.3,1.6-0.4c-0.1,0.5,0,1.2-0.3,1.5c-0.8,0.9-1.9,1.7-2.8,2.6c-0.3,0.3-0.4,0.7-0.6,1.1c0.4,0,1,0.1,1.3-0.1
			c2.4-1.3,4.6-2.8,5.4-5.7c0.8-2.7,1.9-5.4,2.4-8.1c0.2-1.2,1.2-3-1.2-3.9c-2.6,0.1-5.2,0.2-7.8,0.2c-2.3,0-4.7-0.3-7-0.1
			c-1.3,0.1-2.9,0.8-3.7,1.8c-0.6,0.8-0.2,2.4-0.2,3.6C201.6,387.5,202.2,387.1,202.8,386.5z"/>
		<path class="st0" d="M198.3,318.5c0.5-0.5,0.9-1,1.1-1.8c-0.6,0.4-1.2,0.8-1.8,1.3C197.8,318.2,198.3,318.5,198.3,318.5z"/>
		<path class="st0" d="M226.5,38.2c-0.5,0.1-1.1,0-1.3,0.3c-0.5,0.6-0.7,1.4-0.9,2.3c0.3,0.4,0.7,0.8,1,1.2c0.3-0.5,0.5-0.9,0.8-1.4
			c0.2-0.4,0.5-0.9,0.6-1.3C226.8,39,226.6,38.6,226.5,38.2z"/>
		<path class="st0" d="M222.3,349.7c0,1.5,0.2,2.9,0.3,4.8c0,0.7-0.1,1.5,0,2.2c0.1,2.7,0.3,2.9,2.9,2.8c3.1-0.1,6.1-0.5,9.2-0.5
			c5.1,0,10.2,0.2,15.3,0.4c0.5,0,1.5,1,1.5,1.5c0.1,2.3-0.1,4.5,0,6.8c0,0.7,0.7,1.8,1.3,1.9c2.1,0.4,4.3,0.5,6.4-0.2
			c0.4-0.1,0.8-0.6,0.9-1c0.3-1.8,0.6-3.7,0.5-5.6c-0.1-4.4-0.3-8.8-0.5-13.2c0-0.3-0.6-0.8-1-0.9c-4.9-0.3-9.8-0.6-14.8-0.8
			c-3.5-0.1-6.9,0.1-10.4,0.1c-2.3,0-4.5,0.1-6.8,0.2c-1.1,0.1-2.4,0.6-3.4,0.2c-1-0.4-1.3-0.2-1.4,0.3h0.9h-0.9
			C222.3,349.2,222.3,349.4,222.3,349.7z"/>
		<path class="st0" d="M149.1,60c-2.8,1.1-2.8,0.8-2.3,3.6c0.6,3.3,1.5,6.5,3.5,9.3c1.5,2,2.9,4.2,4.5,6.1c3.2,4,7,7.3,12.2,8.6
			c3.2,0.8,6.6,1.1,9.8,1.9c4.7,1.1,9.5,2.1,14.1,3.5c7.9,2.5,14.6,6.3,15.7,15.7c0,0.3,0.4,0.6,0.6,0.9c0.2-0.2,0.5-0.4,0.7-0.7
			c0.6-1.2,1.1-2.5,1.8-3.6c1.9-2.9,4.8-4.6,7.8-6.3c3-1.7,5.8-3.6,8.8-5.2c2-1.1,4.1-2,6.2-2.8c2.2-0.8,4.5-1.2,6.7-2.1
			c3.5-1.5,7-3.1,10.2-5.2c3.2-2,6.2-4.4,7.4-8.3c0.9-2.9,1.5-5.9,2.7-8.7c0.9-2.1,0.2-2.1-1.5-2.1c-3.1,0-5.1-1.4-6.5-4.3
			c-1.6-3.1-0.9-6-0.3-9c0.3-1.6,0.5-3.1-0.5-4.6c-1.9-2.7-4.1-4.9-7-6.7c-3-1.9-6.1-2.2-9.3-1.7c-3.5,0.5-7.7,5.7-7.9,9.1
			c0,0.2,0.2,0.5,0.3,0.6c0.2,0.1,0.5-0.1,0.7-0.2c0.9-0.3,1.9-1.1,2.7-1c2.8,0.4,5.2,1.5,6.5,4.7c0.1,1,0.3,2,0.3,3
			c0,4-1.7,7.2-4.3,10.2c-4.5,5.1-11.3,7-17.4,4.3c-5.1-2.3-8.4-8.1-8.5-13.7c0-4.1,0.6-8.3,1.5-12.4c0.5-2.1,0.9-4.7,3.2-6
			c0.2-0.1,0.4-0.8,0.3-0.9c-0.3-0.3-0.8-0.5-1.2-0.5c-1.2,0.2-2.4,0.3-3.5,0.7c-0.8,0.3-1.8,0.3-1.4,2c1.3,5.5,0.4,10.9-0.9,16.3
			c-1.1,4.3-3.6,7.7-7,10.6c-3.5,3-7.4,4.5-12,3.2c-2.7-0.8-5.1-2-6.6-4.5c-1.7-2.8-2.6-5.9-3.1-9c-0.6-3.4,2.2-8.8,6.6-8.8
			c0.4,0,1.1-0.9,1.1-1.3c-0.2-3-1.9-6.5-5.3-7.4c-4.5-1.2-9.1-0.9-13.7,0.3c-4.5,1.2-7.6,4.3-10.6,7.6c-0.9,1-1.3,2.8-1.4,4.3
			c-0.3,2.4,0.2,4.9-0.4,7.2C152.1,58.1,150.5,59.5,149.1,60z"/>
		<path class="st0" d="M221.1,296.8c0.3-2.3-0.4-4.7-0.5-7c-0.2-5.9-0.3-11.9-0.4-17.8c-0.1-3.8-0.1-7.6-0.1-11.4
			c0-5.2,0-10.4,0-15.6c0-3.5-0.1-7.1-0.1-10.6c0-1.9,0.1-3.8,0.1-5.6c0-4.7-0.1-9.5,0-14.2c0-2.3,0.5-4.6,0.5-6.9
			c0-3.9-0.3-7.9-0.5-11.8c-0.1-2.6-0.5-5.2-0.6-7.8c-0.1-3.1,0.1-6.1,0.2-9.2c0-0.2-0.2-0.4-0.4-1c0.2-6.9,0.4-13.8,0.5-20.7
			c0-2.5-0.2-5.1-0.2-7.6c0.1-1.7-0.2-2-1.8-1.9c-3.2,0.3-6.5,0.4-9.7,0.6c-0.6,0-1.2,0-1.8,0c-1.5,0-3-0.1-4.4-0.1
			c-1.2,0-2.8-0.5-3.3,0.9c-0.4,1.3,0,2.8,0.1,4.2c0,0.4,0.4,0.7,0.6,1.1c0.3-0.3,0.7-0.6,1-0.9c0.7-0.6,1.4-1.3,2.3-1.7
			c0.3-0.1,0.9,0.3,1.3,0.5c-0.3,0.3-0.5,0.8-0.9,1c-1.3,0.9-2.7,1.6-3.9,2.6c-0.4,0.4-0.2,1.5-0.2,2.2c0.5-0.3,1-0.5,1.4-0.8
			c0.4-0.3,0.7-0.8,1.2-1.1c0.5-0.4,1-0.7,1.6-0.9c0.1,0,0.7,0.6,0.7,0.8c-0.3,0.6-0.7,1.1-1.2,1.6c-1.3,1.3-2.7,2.4-4,3.7
			c-0.3,0.3-0.2,0.9-0.3,1.3c0.5-0.1,1-0.2,1.4-0.5c1-0.8,2-1.7,3-2.4c0.5-0.4,1.2-0.6,1.8-0.9c-0.2,0.7-0.3,1.4-0.6,2
			c-0.3,0.5-0.9,0.7-1.3,1.1c-1.2,1-2.5,1.9-3.6,2.9c-0.3,0.3-0.1,1.2-0.2,1.8c0.5-0.1,1-0.1,1.4-0.4c1-0.8,1.9-1.8,2.9-2.7
			c0.2-0.2,0.7-0.2,1.1-0.2c0,0.4,0.2,0.9,0,1.1c-0.8,1-1.6,2.5-2.7,2.9c-2.8,1.1-3.1,3.2-3.1,5.7c0,0.5,0.3,0.9,0.4,1.4
			c0.7-0.6,1.4-1.2,2.2-1.8c-0.3-0.1-0.6-0.2-0.8-0.5c-0.2-0.3-0.5-0.9-0.4-1.1c0.9-1.1,1.9-2.2,2.9-3.1c0.2-0.2,0.7-0.1,1.1-0.2
			c0,0.5,0.2,1.1,0,1.3c-0.6,0.7-1.3,1.3-2,2c-0.1,0.1-0.1,0.4-0.1,0.7c0.2,0,0.4,0,0.5,0.1c0.4,0.1,0.8,0.1,1.2,0.2
			c-0.2,0.4-0.4,0.9-0.7,1.2c-1.2,1.2-2.5,2.2-3.7,3.4c-0.4,0.4-0.2,1.3-0.3,1.9c0.5-0.3,1-0.5,1.4-0.9c0.4-0.3,0.7-0.8,1.2-1.1
			c0.7-0.4,1.5-0.7,2.3-1c0.1,0,0.6,0.7,0.5,0.7c-0.6,0.6-1.2,1.1-1.8,1.6c-1,0.9-2.1,1.7-3,2.6c-0.2,0.2-0.1,0.6-0.2,0.9
			c0.4,0,0.8,0.1,1.1,0c0.8-0.6,1.5-1.4,2.4-2.1c0.2-0.2,0.9-0.3,0.9-0.2c0.2,0.3,0.5,0.9,0.3,1.2c-0.3,0.6-0.8,1.1-1.3,1.5
			c-0.9,0.8-2,1.4-2.9,2.2c-0.7,0.7-1,1.6-1.5,2.4c0.8-0.5,1.5-1,2.4-1.3c1-0.4,2.1-0.7,3.1-1c-0.8,0.8-1.5,1.7-2.4,2.5
			c-1,1-2.2,1.8-3.2,2.8c-0.2,0.3,0,0.9,0,1.4c0.4-0.2,0.8-0.4,1.1-0.6c1-0.7,2-1.4,3-2c0.3-0.2,0.7-0.1,1.1-0.1
			c-0.1,0.3-0.2,0.7-0.4,1c-1.3,1.3-2.7,2.5-3.9,3.9c-0.4,0.4-0.3,1.3-0.4,2c0.5-0.3,1.1-0.5,1.6-0.9c0.7-0.6,1.2-1.3,1.8-1.9
			c0.3-0.2,0.8-0.1,1.3-0.1c-0.1,0.4,0,1-0.3,1.2c-1.1,1.1-2.4,2.1-3.4,3.3c-0.6,0.8-0.6,1.9-0.9,2.9c0.7-0.5,1.4-0.9,2.1-1.4
			c0.1,0,0.1-0.1,0.1-0.1c0.8-0.5,1.7-1.1,2.5-1.6c0.9,1.5-0.4,2.1-1.2,3c-1.1,1.3-2.4,2.4-3.4,3.7c-0.2,0.3,0,1,0,1.5
			c0.3-0.2,0.7-0.3,1-0.5c1.2-0.9,2.2-2,3.5-2.8c0.5-0.3,1.3-0.1,1.9-0.2c-0.3,0.5-0.5,1.1-0.9,1.5c-1.8,1.4-3.7,2.7-5.5,4.1
			c-0.3,0.2-0.1,1-0.1,1.5c0.3-0.1,0.7-0.2,1-0.4c1-0.8,2-1.7,3-2.4c0.3-0.2,0.9-0.1,1.3-0.1c-0.1,0.5,0,1-0.3,1.4
			c-0.5,0.7-1.3,1.2-1.8,1.8c-1.1,1.3-2.2,2.6-3.3,3.9c-0.2,0.2,0,0.7,0,1.1c0.3-0.1,0.6-0.2,0.8-0.4c1.1-1,2.2-2.1,3.3-3.1
			c0.2-0.2,0.9,0.2,1.3,0.3c-0.1,0.4-0.2,0.8-0.4,1.1c-1.3,1.3-2.6,2.4-3.8,3.7c-0.6,0.7-1,1.7-1.3,2.6c-0.1,0.3,0.2,0.7,0.4,1
			c0.3-0.2,0.6-0.3,0.8-0.5c0.3-0.3,0.5-0.8,0.8-1c1-0.9,1.9-1.8,3-2.4c0.4-0.2,1.1,0.2,1.7,0.4c-0.2,0.4-0.3,0.9-0.7,1.2
			c-0.7,0.7-1.7,1.2-2.4,1.9c-1.3,1.4-3.4,2.2-3.4,4.5c0,0.4,0.3,0.8,0.5,1.2c0.3-0.2,0.6-0.4,0.9-0.7c1-0.9,2-2,3-2.8
			c0.3-0.2,0.9,0,1.3,0c0,0.4,0.1,0.8-0.1,1.1c-0.6,0.7-1.3,1.3-2,1.9c-1,0.8-2.1,1.4-3.1,2.2c-0.3,0.2-0.1,0.9-0.2,1.4
			c0.4-0.2,0.8-0.2,1.1-0.5c0.7-0.5,1.2-1.2,1.9-1.7c0.3-0.2,0.9-0.1,1.3-0.1c-0.1,0.5,0,1-0.3,1.4c-0.2,0.3-0.7,0.5-1,0.8
			c-1,1-1.9,2-2.8,3.1c-0.2,0.3,0,0.9,0,1.4c0.5-0.2,1-0.3,1.4-0.7c0.8-0.8,1.4-1.7,2.2-2.4c0.2-0.2,1-0.1,1.3,0.1
			c0.2,0.2,0.2,1,0,1.3c-0.6,0.7-1.5,1.2-2.2,1.9c-1,1-1.9,2.2-2.8,3.3c-0.2,0.2-0.2,0.6-0.3,0.9c0.4-0.1,0.8,0,1.1-0.2
			c0.7-0.6,1.3-1.3,2.1-1.9c0.3-0.2,0.8-0.2,1.2-0.3c0,0.5,0.1,1.1-0.1,1.5c-0.7,0.8-1.6,1.4-2.2,2.2c-0.6,0.7-1.2,1.5-1.6,2.3
			c-0.2,0.3,0.1,0.9,0.1,1.3c0.3-0.2,0.7-0.3,1-0.5c0.9-1,1.8-2,2.8-3c0.3-0.3,0.8-0.4,1.3-0.6c0,0.6,0.2,1.4-0.1,1.7
			c-0.9,1.1-2.1,2-3.1,3.1c-1,1-2.7,1.7-2.3,3.6c0,0.3,0.2,0.5,0.3,0.8c0.3-0.2,0.6-0.3,0.8-0.5c1.1-1,2.1-2.2,3.3-3.2
			c0.4-0.3,1.1-0.3,1.6-0.4c-0.1,0.6-0.1,1.2-0.3,1.8c-0.2,0.3-0.7,0.5-1,0.8c-1.4,1.2-2.7,2.4-4,3.8c-0.3,0.3-0.1,0.9-0.2,1.3
			c0.4-0.1,0.9-0.2,1.2-0.4c0.9-0.8,1.7-1.7,2.6-2.4c0.4-0.3,1-0.4,1.5-0.5c-0.1,0.5,0,1.2-0.4,1.5c-1.2,1.2-2.5,2.3-3.7,3.5
			c-0.7,0.7-1.3,1.5-1.6,2.4c-0.3,0.8,0,1.7,0,2.6c0.6-0.6,1.3-1.3,1.9-1.9c1.1-1.1,2.2-2.3,3.4-3.3c0.3-0.2,1,0.1,1.6,0.2
			c-0.2,0.4-0.3,0.8-0.6,1.1c-1.9,1.9-3.9,3.7-5.8,5.6c-0.3,0.3-0.3,1-0.5,1.5c0.5-0.1,1-0.1,1.3-0.4c0.9-0.8,1.7-1.7,2.6-2.4
			c0.6-0.5,1.9-1.1,2-0.9c1,1.2-0.1,1.8-0.9,2.5c-0.3,0.3-0.7,0.4-0.9,0.6c-1.3,1.3-2.6,2.5-3.7,3.9c-0.4,0.5-0.1,1.6-0.1,2.4
			c0.5-0.4,1.1-0.7,1.5-1.1c0.5-0.4,0.8-0.9,1.3-1.2c0.8-0.6,1.6-1,2.4-1.5c0,0,0.6,0.8,0.6,0.9c-0.6,0.8-1.2,1.7-2,2.2
			c-1.8,1.3-3.5,2.6-4.1,4.9c-0.1,0.3-0.2,0.6-0.3,1c0.4-0.1,0.9,0,1.2-0.3c0.8-0.8,1.6-1.7,2.3-2.6c0.2-0.2,0.5-0.3,0.7-0.4
			c0.2,0.3,0.4,0.5,0.4,0.8c0.3,1.6-0.9,2.3-2,3c-1.6,0.9-2.3,2.2-2.1,4c0,0.4,0.3,0.7,0.4,1c0.3-0.2,0.6-0.3,0.8-0.5
			c0.7-0.7,1.2-1.6,1.9-2.1c0.4-0.3,1.1,0,1.7,0c-0.1,0.5-0.1,1.1-0.4,1.3c-1,0.8-2.2,1.4-3,2.3c-0.7,0.8-1.1,2-1.6,3.1
			c0.4,0.1,0.9,0.5,1.1,0.3c0.4-0.2,0.6-0.9,1-1.1c1.2-0.7,2.4-1.3,3.6-1.8c0.3-0.1,0.8,0.3,1.1,0.5c-0.2,0.3-0.4,0.8-0.7,1
			c-0.8,0.6-1.7,1-2.5,1.6c-2,1.5-3.9,3.1-4.1,5.9c0,0.4,0.2,0.8,0.3,1.2c0.3-0.2,0.6-0.4,0.9-0.7c1.8-1.8,3.5-3.6,5.3-5.2
			c0.4-0.3,1.2-0.2,1.8-0.3c-0.2,0.6-0.3,1.2-0.5,1.8c-0.1,0.3-0.6,0.4-0.9,0.7c-1.4,1.3-2.8,2.6-4.2,3.8c-0.4,0.3-0.8,0.6-1.3,0.8
			c-0.3,0.1-0.9,0.1-0.9,0.2c-0.1,0.6,0,1.2,0.1,1.7c0.4-0.1,0.9-0.1,1.2-0.3c1.2-0.9,2.3-1.9,3.4-2.8c0.5-0.4,1.1-0.9,1.7-1.2
			c0.2-0.1,0.8,0,0.9,0.2c0.1,0.2,0.1,0.7-0.1,0.9c-1.2,1.2-2.6,2.2-3.8,3.4c-1.2,1.2-3.2,1.8-3.2,3.9c0,0.2,0.7,0.5,0.8,0.5
			c1-0.9,1.9-1.8,2.9-2.7c0.6-0.5,1.3-0.7,2-1.1c-0.1,0.8-0.2,1.6-0.5,2.3c-0.1,0.3-0.6,0.4-0.9,0.6c-1.4,1.4-2.7,2.7-4,4.2
			c-0.2,0.2,0.1,0.8,0.1,1.2c0.4-0.2,0.8-0.2,1.1-0.5c0.8-0.8,1.4-1.7,2.2-2.4c0.6-0.4,1.4-0.5,2.2-0.7c-0.3,0.7-0.4,1.6-0.9,2.1
			c-1.3,1.3-2.8,2.4-4.1,3.6c-0.5,0.5-0.8,1.2-1,1.9c-0.1,0.3,0.2,0.7,0.3,1c0.3-0.1,0.6-0.2,0.8-0.4c0.9-1,1.8-2,2.8-3
			c0.2-0.2,0.6-0.3,0.8-0.5c0.1,0.3,0.5,0.8,0.4,1c-0.7,1.1-1.5,2.2-2.3,3.1c-0.8,0.9-1.9,1.6-2.7,2.4c-0.2,0.2-0.1,0.8,0.1,1.2
			c0.1,0.1,0.8,0.1,1,0c1-0.6,2-1.4,3-2c0.4-0.2,0.9-0.3,1.4-0.4c-0.1,0.4-0.2,0.8-0.3,1.2c-0.1,0.4-0.2,0.7-0.3,1.1
			c0.4,0,0.7,0.1,1.1,0.1c1.5-0.2,3-0.5,4.5-0.5c3.5-0.1,7.1-0.1,10.6-0.2c0.5,0,1.3-0.7,1.3-0.9
			C221.2,303.2,220.7,300.1,221.1,296.8z"/>
		<path class="st0" d="M236.9,34.9c0.5-0.4,0.4-1.6,0.4-2.4c0-0.2-1.1-0.6-1.2-0.5c-0.4,0.5-0.7,1.1-0.8,1.9
			C235.6,34.7,236,35.7,236.9,34.9z"/>
		<path class="st0" d="M222.7,43.7c-0.3,0.1-0.4,0.6-0.8,1.1c-0.3,3.1-0.6,6.1-0.8,9.2c0,0.3,0.3,0.7,0.4,1c0.3-0.2,0.9-0.4,1-0.7
			c0.2-0.7,0.2-1.5,0.2-2.3c0.1-1.3,0-2.7,0.3-3.9c0.2-1.1,0.9-2.1,1.3-3.2c0.2-0.5,0-1,0-1.6C223.7,43.4,223.1,43.4,222.7,43.7z"/>
		<path class="st0" d="M190.4,42.4c-0.8,0.5-1.6,1-2.3,1.6c-0.8,0.7-1.5,1.6-0.6,2.7c0.5,0.6,1.3,1.1,1.9,1.6
			c0.5-0.8,1.1-1.7,1.7-2.9C190.8,44.4,190.6,43.4,190.4,42.4z"/>
		<path class="st0" d="M190.3,51.6c0.2-0.5,0.4-1,0.6-1.5c-0.2,0-0.6,0-0.6,0C190.1,50.5,190.1,50.9,190.3,51.6z"/>
		<path class="st0" d="M186.9,37.7c-0.3,0.8-0.6,1.6-0.9,2.4c0,0.1,0,0.3,0,0.4c0.3,0.9,0.6,1.7,0.9,2.6c0.4-0.6,0.9-1.3,1.5-2.1
			c1.3-1.1-0.2-1.9-0.4-2.8C187.8,37.9,187.2,37.8,186.9,37.7z"/>
		<path class="st0" d="M248,38.6c0.8,0.3,1.7,1.6,2.5,0.2c0.6-1.1,0.6-2.2-0.4-3.1c-0.2-0.2-0.4-0.4-0.9-0.6
			c-0.5,0.3-1.4,0.8-1.3,0.9C248.2,36.9,246.4,38,248,38.6z"/>
		<path class="st0" d="M241.8,33.4c0.2-0.5,0.1-1,0.1-1.5c-0.6,0-1.5-0.2-1.7,0.1c-0.4,0.8-0.6,1.7-0.8,2.6c0.5,0.1,0.9,0.1,1.6,0
			C241.3,34.3,241.7,33.9,241.8,33.4z"/>
		<path class="st0" d="M245.1,33.1c-0.6,0-1.2,1.2-1.6,2c-0.1,0.3,0.5,1.3,0.7,1.3c0.5,0,1-0.5,1.5-1.2
			C245.5,34.5,247.2,33,245.1,33.1z"/>
		<path class="st0" d="M281.9,22.2c-2.3-0.2-4.8-0.5-6.7,1.4c-1.1,1.1-2.5,2.1-3.4,3.3c-0.9,1.3-2.1,2.6-1.4,4.5
			c0.2,0.6-0.3,1.4-0.4,2.2c-0.7-0.3-1.4-0.6-2-1c-0.3-0.2-0.5-0.4-0.7-0.7c-4-6-10.2-8.5-16.8-10.1c-2.7-0.6-4.4-0.8-7.2-1.4
			c-2.9-0.7-6.9,0.6-9.7,2.2c-1.1,0.6-2.2,1.2-3.4,1.6c-1.9,0.7-3.7,1.8-5.6,2.3c-0.8,0.2-2,0.1-2.4-0.4c-0.4-0.4-0.1-1.6,0.1-2.4
			c0.3-1.5,1.4-3.1,1.2-4.4c-0.5-3-1.4-6.1-3.6-8.4c-3.4-3.7-7.4-6.2-12.5-7.1c-4.6-0.8-8.3,0.2-11.4,3.4c-3.5,3.6-4.1,8.3-3.6,13.1
			c0.2,1.5-0.3,2.4-1.7,2.3c-0.8,0-1.7-0.1-2.4-0.5c-5.4-3.5-11.4-4.4-17.6-4.7c-6.4-0.3-12.4,1.4-18.4,3.4
			c-1.4,0.5-2.5,1.5-3.8,2.4c-0.5,0.3-0.9,0.8-1.3,1.2c-0.4-0.6-1-1.1-1.3-1.7c-1.4-4.4-3.3-6.5-7.9-6.5c-1.6,0-2,0.8-1.6,2.3
			c0.8,2.8,1.8,5.6,2.1,8.4c0.3,2.7,0,5.5-0.1,8.3c-0.1,1.2-0.4,3.1-0.8,4.2c-1.5,4.2-3.2,8.4-4.6,12.6c-0.9,2.9-1.6,6-1.9,9
			c-0.6,5.2,1.1,10,2.2,15c1.4,5.8,3.8,11.2,6.3,16.5c1.6,3.4,4.5,5.9,7.8,7.9c1.1,0.6,2.2,1.3,3.1,2.1c0.7,0.6,1,1.6,1.5,2.4
			c-1-0.2-2.1-0.3-3-0.7c-3.2-1.6-6.2-3.5-9.5-4.9c-2.4-1.1-5-1.8-7.6-2.3c-1.7-0.3-4,1.4-3.8,2.6c0.4,2.2,0.4,4.6,2.5,6.1
			c1.6,1.1,3.3,2.1,5,3.2c3.9,2.6,8.4,3,12.9,3.5c2.2,0.2,4.4,0.8,6.6,0.9c2.8,0.2,5.6,0.1,8.4,0.3c2.7,0.1,5.4,0.4,8.1,0.7
			c0.3,0,0.6,0.6,0.9,1c-0.4,0.2-0.8,0.5-1.2,0.5c-1.7,0.1-3.3,0.1-5,0.3c-3.1,0.3-6.2,0.9-9.3,0.9c-2.7,0-5,0.9-7.4,1.9
			c-2.3,1-2.8,3.7-0.9,5.4c1.9,1.7,3.8,2.7,6.3,2.6c4.2-0.2,8.5-0.4,12.7-0.9c3.5-0.4,7-1.1,10.6-1.7c3.4-0.6,6.8-1.4,10.2-1.7
			c5.4-0.5,10.6,0.7,15.4,3.4c1.2,0.7,2.3,0,2.3-1.4c0.1-2.4,0.3-4.8,0.1-7.2c-0.2-3.6-1.2-7.1-2.9-10.3c-2.3-4.2-5.3-7.6-10-9.1
			c-2.5-0.8-5-1.3-7.5-2.2c-5.5-2.1-11.4-2.8-17.2-3.9c-5-0.9-9.4-3-12.9-6.8c-1.9-2.1-3.6-4.4-5.5-6.5c-3-3.6-5.5-7.4-6.5-12.1
			c-0.5-2.1-0.6-4.4-1.4-6.4c-0.7-1.8,0.2-2,1.5-2.3c0.6-0.1,1.2,0.1,1.8,0c2.8-0.3,4.2-0.5,4-4c-0.1-1.5-0.4-3-0.6-4.5
			c-0.1-0.8-0.1-1.5-0.1-2.3c0-1.1,0.3-2.2,0.2-3.2c-0.4-3.1-0.4-6,2.3-8.1c0.7-0.5,1.5-0.9,2.2-1.4c3.4-1.8,6.7-3.8,10.2-5.3
			c4.6-2,9.3-2.3,14.3-0.4c2.7,1,4.9,2.6,7.4,3.8c4.2,1.9,6.8,5.3,8.1,9.2c1.6,4.9,1.2,10-2.3,14.4c-0.9,1.2-1.6,2.5-2.7,3.6
			c-0.5,0.5-1.5,0.6-2.3,0.6c-0.2,0-0.4-1.2-0.5-1.9c-0.2-1.4-0.1-2.8-0.4-4.2c-0.1-0.6-0.9-1.3-1.5-1.3c-0.6-0.1-1.6,0.4-2,0.9
			c-1.7,2.3-0.5,9.1,1.9,10.5c2.3,1.4,4.8,2,7.5,1c2.7-1,4.9-2.7,6.8-4.8c3-3.4,4.6-7.4,5-11.9c0.4-4.7-0.8-9.2-1.8-13.7
			c-0.1-0.6-0.2-1.4,0.2-1.7c0.4-0.3,1.2-0.4,1.8-0.3c1,0.2,2,0.7,3,0.8c2.3,0.2,4.5-0.2,6.4-1.7c0.4-0.3,1-0.2,1.5-0.3
			c0,0.5,0,1.1-0.1,1.6c-0.2,0.6-0.7,1.2-0.7,1.9c-0.2,3.4-1.3,6.5-2.2,9.7c-1.6,5.9-1.9,11.9,1.2,17.5c1.7,3,4.4,4.9,7.8,5
			c3.9,0.1,7.4-1.5,10.1-4.4c1.4-1.5,2.8-3.3,2.4-5.5c-0.2-1-1-2.3-1.9-2.7c-0.7-0.3-2.4,0.1-2.9,0.7c-1.3,1.6-2,3.5-3.2,5.2
			c-0.5,0.7-1.4,1.7-2.1,1.6c-1.4-0.2-2.8-0.7-3.9-1.5c-2.2-1.7-2.3-3.9-1.9-6.6c0.6-4.2,1.8-8.1,3.5-11.9c2-4.6,5.1-7.9,9.4-10.4
			c1-0.6,2-1.3,3.1-1.8c6.4-2.8,12.2,0,17.7,2.7c2.4,1.2,4.3,3.5,6.1,5.6c0.8,0.9,1.7,2.7,1.4,3.8c-1.5,4.4-3.7,8.6-4.5,13.3
			c-0.4,2.5,0.6,4,2.2,5.4c1.2,1.1,2.5,0.5,3.7-0.3c1.5-0.9,2.6-0.1,3.2,1.1c0.5,1.1,0.6,2.6,0.4,3.7c-0.7,3.1-1.6,6.1-2.6,9.1
			c-0.7,2-1.3,4.3-2.7,5.8c-4.8,5.6-11.2,9.1-18,11.8c-1.4,0.6-3,0.6-4.5,1.2c-2.9,1.2-5.8,2.3-8.5,3.9c-4.3,2.5-8.8,4.6-12.4,8.2
			c-3.3,3.2-3.9,7.3-4.1,11.4c-0.1,2.6,0.4,5.2,0.5,7.8c0,1,0.2,1.7,1.4,1.6c1.3-0.1,1.2-1.2,1-1.9c-0.7-2.5,0-4.7,0.6-7.1
			c1.7-6.7,5.7-11.6,11.6-14.8c4.7-2.6,9.6-4.7,14.4-7c6.6-3.2,13.4-5.9,18.3-11.8c0.5-0.6,1.2-2,2.2-0.9c0.3,0.3-0.4,1.6-0.7,2.5
			c0,0.1-0.2,0.2-0.3,0.3c-2.9,2.7-5.6,5.6-8.6,8.1c-1.7,1.4-3.8,2.4-5.7,3.6c-3.5,2.2-7.1,4.3-10.3,6.9c-2.1,1.7-3.5,4.3-5.3,6.5
			c-3.5,4.5-4.4,10.7-9.5,14.1c-0.2,0.1-0.2,0.6-0.3,0.9c0.3,0,0.7,0.1,1,0c1.8-0.2,3.7-0.3,5.4-0.7c1.6-0.3,3.7,0,4.2-2.4
			c0-0.1,1.1-0.3,1.4-0.1c1,0.7,1.7,1.2,3.2,0.9c2-0.4,4.1-0.1,6.2,0.1c1.8,0.2,3.6,0.7,5.4,0.9c3.5,0.4,7.1,0.7,10.6,1.1
			c2.5,0.3,5.2-1.1,6.2-3.6c-1.2-3.1-4.1-4.8-6.8-5.3c-3.8-0.8-8-0.5-11.9,0c-3.9,0.5-7.7,1.9-11.5,2.8c-0.6,0.1-1.2,0-1.8-0.1
			c0.3-0.4,0.6-1,1-1.2c4.7-2.3,9.5-4.6,14.9-4.7c1.5,0,2.9,0.1,4.4,0.1c3.3,0.1,6.6-0.1,9.8,0.4c4.1,0.5,8,1,11.2-2.6
			c2-2.2,2.6-6.4,0.1-8.9c-3.8-3.7-10.2-4.4-14.8-1.7c-2,1.2-4.2,2.3-6.2,3.4c-0.9,0.5-2.1,0.2-2.5-0.8c-0.5-1.1,0.4-1.7,1.4-2.3
			c2.4-1.3,4.7-2.6,6.8-4.2c1.8-1.4,3.4-3.2,4.9-5c3.3-3.9,6.7-7.6,9-12.3c2.5-4.9,3.9-9.9,4.9-15.1c0.5-2.7,1.3-5.4,1.7-8.1
			c0.4-2.8,0.8-5.6,0.6-8.3c-0.2-2.9-0.7-5.7-0.6-8.7c0-4.7,3-10.7,5-14.3C283.4,23.3,283.4,22.3,281.9,22.2z"/>
		<path class="st0" d="M232.6,34.8c0.3-0.2,0.2-0.9,0.2-1.3c-0.4,0-1-0.2-1.2,0c-1.1,0.8-2.2,1.8-3.2,2.7c-0.2,0.2-0.1,0.7-0.1,1
			c0.4,0,0.7-0.1,1.3-0.3C230.6,36.3,231.7,35.6,232.6,34.8z"/>
		<path class="st0" d="M254.6,45c0-1.7,0-3.4-0.3-5.1c-0.1-0.4-1-0.6-1.7-0.7c-0.3,1-1,2.1-0.9,3c0.2,1.1,1.2,2,1.9,2.9
			C253.8,45.2,254.6,45,254.6,45z"/>
		<g>
			<path class="st0" d="M168.7,31c-0.1,1,0.1,2,0.2,3c0,0.1,0.6,0.3,0.6,0.3c0.4-0.8,0.7-1.7,1.1-2.5c0-0.1,0-0.3,0-0.8
				C169.8,30.2,168.8,30.1,168.7,31z"/>
			<path class="st0" d="M166.5,33.8c-0.2-0.7-0.4-1.4-0.8-2.4c-0.5,0.1-1.1,0.1-1.6,0.4c-0.4,0.2-1,0.7-1,1c0.1,0.5,0.6,1.2,1,1.2
				C164.9,34.3,165.7,34,166.5,33.8z"/>
			<path class="st0" d="M159.9,36.5c0.4-0.2,0.8-0.5,1.5-1c1.1-1-0.3-1.2-0.6-1.8c-0.8,0.4-1.8,0.5-2.3,1.1
				c-0.4,0.5-0.2,1.5-0.3,2.3C158.9,37,159.4,36.8,159.9,36.5z"/>
			<path class="st0" d="M182.1,34.5c0.5,1,1,2,1.6,2.9c0.2,0.3,0.9,0.4,1.3,0.5c0.1-0.4,0.3-0.9,0.2-1.3c-0.5-1.4-1.5-2.3-3.1-2.5
				c-0.8-0.6-1.6-1.2-2.5-1.7c-0.3-0.2-0.9,0.2-1.3,0.2c0.1,0.4,0.2,0.8,0.4,1.1C179.6,35.2,180.9,34.5,182.1,34.5z"/>
			<path class="st0" d="M155.9,36.5c-1.7-0.5-1.1,1.2-1.3,2.1c-0.1,0.4-0.1,0.7-0.1,1.1c0.5,0,1-0.1,1.7-0.3
				C156.4,38.4,157.4,37,155.9,36.5z"/>
			<path class="st0" d="M176.4,31.7c-0.8-0.4-1.6-1.2-2.4-1.1c-0.5,0-1.1,1.1-1.5,1.8c-0.2,0.4-0.1,1.2,0.2,1.4
				C173.5,34.6,176.3,33.2,176.4,31.7z"/>
			<path class="st0" d="M221.1,296.8c0.3-2.3-0.4-4.7-0.5-7c-0.2-5.9-0.3-11.9-0.4-17.8c-0.1-3.8-0.1-7.6-0.1-11.4
				c0-5.2,0-10.4,0-15.6c0-3.5-0.1-7.1-0.1-10.6c0-1.9,0.1-3.8,0.1-5.6c0-4.7-0.1-9.5,0-14.2c0-2.3,0.5-4.6,0.5-6.9
				c0-3.9-0.3-7.9-0.5-11.8c-0.1-2.6-0.5-5.2-0.6-7.8c-0.1-3.1,0.1-6.1,0.2-9.2c0-0.2-0.2-0.4-0.4-1c0.2-6.9,0.4-13.8,0.5-20.7
				c0-2.5-0.2-5.1-0.2-7.6c0.1-1.7-0.2-2-1.8-1.9c-3.2,0.3-6.5,0.4-9.7,0.6c-0.6,0-1.2,0-1.8,0c-1.5,0-3-0.1-4.4-0.1
				c-1.2,0-2.8-0.5-3.3,0.9c-0.4,1.3,0,2.8,0.1,4.2c0,0.4,0.4,0.7,0.6,1.1c0.3-0.3,0.7-0.6,1-0.9c0.7-0.6,1.4-1.3,2.3-1.7
				c0.3-0.1,0.9,0.3,1.3,0.5c-0.3,0.3-0.5,0.8-0.9,1c-1.3,0.9-2.7,1.6-3.9,2.6c-0.4,0.4-0.2,1.5-0.2,2.2c0.5-0.3,1-0.5,1.4-0.8
				c0.4-0.3,0.7-0.8,1.2-1.1c0.5-0.4,1-0.7,1.6-0.9c0.1,0,0.7,0.6,0.7,0.8c-0.3,0.6-0.7,1.1-1.2,1.6c-1.3,1.3-2.7,2.4-4,3.7
				c-0.3,0.3-0.2,0.9-0.3,1.3c0.5-0.1,1-0.2,1.4-0.5c1-0.8,2-1.7,3-2.4c0.5-0.4,1.2-0.6,1.8-0.9c-0.2,0.7-0.3,1.4-0.6,2
				c-0.3,0.5-0.9,0.7-1.3,1.1c-1.2,1-2.5,1.9-3.6,2.9c-0.3,0.3-0.1,1.2-0.2,1.8c0.5-0.1,1-0.1,1.4-0.4c1-0.8,1.9-1.8,2.9-2.7
				c0.2-0.2,0.7-0.2,1.1-0.2c0,0.4,0.2,0.9,0,1.1c-0.8,1-1.6,2.5-2.7,2.9c-2.8,1.1-3.1,3.2-3.1,5.7c0,0.5,0.3,0.9,0.4,1.4
				c0.7-0.6,1.4-1.2,2.2-1.8c-0.3-0.1-0.6-0.2-0.8-0.5c-0.2-0.3-0.5-0.9-0.4-1.1c0.9-1.1,1.9-2.2,2.9-3.1c0.2-0.2,0.7-0.1,1.1-0.2
				c0,0.5,0.2,1.1,0,1.3c-0.6,0.7-1.3,1.3-2,2c-0.1,0.1-0.1,0.4-0.1,0.7c0.2,0,0.4,0,0.5,0.1c0.4,0.1,0.8,0.1,1.2,0.2
				c-0.2,0.4-0.4,0.9-0.7,1.2c-1.2,1.2-2.5,2.2-3.7,3.4c-0.4,0.4-0.2,1.3-0.3,1.9c0.5-0.3,1-0.5,1.4-0.9c0.4-0.3,0.7-0.8,1.2-1.1
				c0.7-0.4,1.5-0.7,2.3-1c0.1,0,0.6,0.7,0.5,0.7c-0.6,0.6-1.2,1.1-1.8,1.6c-1,0.9-2.1,1.7-3,2.6c-0.2,0.2-0.1,0.6-0.2,0.9
				c0.4,0,0.8,0.1,1.1,0c0.8-0.6,1.5-1.4,2.4-2.1c0.2-0.2,0.9-0.3,0.9-0.2c0.2,0.3,0.5,0.9,0.3,1.2c-0.3,0.6-0.8,1.1-1.3,1.5
				c-0.9,0.8-2,1.4-2.9,2.2c-0.7,0.7-1,1.6-1.5,2.4c0.8-0.5,1.5-1,2.4-1.3c1-0.4,2.1-0.7,3.1-1c-0.8,0.8-1.5,1.7-2.4,2.5
				c-1,1-2.2,1.8-3.2,2.8c-0.2,0.3,0,0.9,0,1.4c0.4-0.2,0.8-0.4,1.1-0.6c1-0.7,2-1.4,3-2c0.3-0.2,0.7-0.1,1.1-0.1
				c-0.1,0.3-0.2,0.7-0.4,1c-1.3,1.3-2.7,2.5-3.9,3.9c-0.4,0.4-0.3,1.3-0.4,2c0.5-0.3,1.1-0.5,1.6-0.9c0.7-0.6,1.2-1.3,1.8-1.9
				c0.3-0.2,0.8-0.1,1.3-0.1c-0.1,0.4,0,1-0.3,1.2c-1.1,1.1-2.4,2.1-3.4,3.3c-0.6,0.8-0.6,1.9-0.9,2.9c0.7-0.5,1.4-0.9,2.1-1.4
				c0.1,0,0.1-0.1,0.1-0.1c0.8-0.5,1.7-1.1,2.5-1.6c0.9,1.5-0.4,2.1-1.2,3c-1.1,1.3-2.4,2.4-3.4,3.7c-0.2,0.3,0,1,0,1.5
				c0.3-0.2,0.7-0.3,1-0.5c1.2-0.9,2.2-2,3.5-2.8c0.5-0.3,1.3-0.1,1.9-0.2c-0.3,0.5-0.5,1.1-0.9,1.5c-1.8,1.4-3.7,2.7-5.5,4.1
				c-0.3,0.2-0.1,1-0.1,1.5c0.3-0.1,0.7-0.2,1-0.4c1-0.8,2-1.7,3-2.4c0.3-0.2,0.9-0.1,1.3-0.1c-0.1,0.5,0,1-0.3,1.4
				c-0.5,0.7-1.3,1.2-1.8,1.8c-1.1,1.3-2.2,2.6-3.3,3.9c-0.2,0.2,0,0.7,0,1.1c0.3-0.1,0.6-0.2,0.8-0.4c1.1-1,2.2-2.1,3.3-3.1
				c0.2-0.2,0.9,0.2,1.3,0.3c-0.1,0.4-0.2,0.8-0.4,1.1c-1.3,1.3-2.6,2.4-3.8,3.7c-0.6,0.7-1,1.7-1.3,2.6c-0.1,0.3,0.2,0.7,0.4,1
				c0.3-0.2,0.6-0.3,0.8-0.5c0.3-0.3,0.5-0.8,0.8-1c1-0.9,1.9-1.8,3-2.4c0.4-0.2,1.1,0.2,1.7,0.4c-0.2,0.4-0.3,0.9-0.7,1.2
				c-0.7,0.7-1.7,1.2-2.4,1.9c-1.3,1.4-3.4,2.2-3.4,4.5c0,0.4,0.3,0.8,0.5,1.2c0.3-0.2,0.6-0.4,0.9-0.7c1-0.9,2-2,3-2.8
				c0.3-0.2,0.9,0,1.3,0c0,0.4,0.1,0.8-0.1,1.1c-0.6,0.7-1.3,1.3-2,1.9c-1,0.8-2.1,1.4-3.1,2.2c-0.3,0.2-0.1,0.9-0.2,1.4
				c0.4-0.2,0.8-0.2,1.1-0.5c0.7-0.5,1.2-1.2,1.9-1.7c0.3-0.2,0.9-0.1,1.3-0.1c-0.1,0.5,0,1-0.3,1.4c-0.2,0.3-0.7,0.5-1,0.8
				c-1,1-1.9,2-2.8,3.1c-0.2,0.3,0,0.9,0,1.4c0.5-0.2,1-0.3,1.4-0.7c0.8-0.8,1.4-1.7,2.2-2.4c0.2-0.2,1-0.1,1.3,0.1
				c0.2,0.2,0.2,1,0,1.3c-0.6,0.7-1.5,1.2-2.2,1.9c-1,1-1.9,2.2-2.8,3.3c-0.2,0.2-0.2,0.6-0.3,0.9c0.4-0.1,0.8,0,1.1-0.2
				c0.7-0.6,1.3-1.3,2.1-1.9c0.3-0.2,0.8-0.2,1.2-0.3c0,0.5,0.1,1.1-0.1,1.5c-0.7,0.8-1.6,1.4-2.2,2.2c-0.6,0.7-1.2,1.5-1.6,2.3
				c-0.2,0.3,0.1,0.9,0.1,1.3c0.3-0.2,0.7-0.3,1-0.5c0.9-1,1.8-2,2.8-3c0.3-0.3,0.8-0.4,1.3-0.6c0,0.6,0.2,1.4-0.1,1.7
				c-0.9,1.1-2.1,2-3.1,3.1c-1,1-2.7,1.7-2.3,3.6c0,0.3,0.2,0.5,0.3,0.8c0.3-0.2,0.6-0.3,0.8-0.5c1.1-1,2.1-2.2,3.3-3.2
				c0.4-0.3,1.1-0.3,1.6-0.4c-0.1,0.6-0.1,1.2-0.3,1.8c-0.2,0.3-0.7,0.5-1,0.8c-1.4,1.2-2.7,2.4-4,3.8c-0.3,0.3-0.1,0.9-0.2,1.3
				c0.4-0.1,0.9-0.2,1.2-0.4c0.9-0.8,1.7-1.7,2.6-2.4c0.4-0.3,1-0.4,1.5-0.5c-0.1,0.5,0,1.2-0.4,1.5c-1.2,1.2-2.5,2.3-3.7,3.5
				c-0.7,0.7-1.3,1.5-1.6,2.4c-0.3,0.8,0,1.7,0,2.6c0.6-0.6,1.3-1.3,1.9-1.9c1.1-1.1,2.2-2.3,3.4-3.3c0.3-0.2,1,0.1,1.6,0.2
				c-0.2,0.4-0.3,0.8-0.6,1.1c-1.9,1.9-3.9,3.7-5.8,5.6c-0.3,0.3-0.3,1-0.5,1.5c0.5-0.1,1-0.1,1.3-0.4c0.9-0.8,1.7-1.7,2.6-2.4
				c0.6-0.5,1.9-1.1,2-0.9c1,1.2-0.1,1.8-0.9,2.5c-0.3,0.3-0.7,0.4-0.9,0.6c-1.3,1.3-2.6,2.5-3.7,3.9c-0.4,0.5-0.1,1.6-0.1,2.4
				c0.5-0.4,1.1-0.7,1.5-1.1c0.5-0.4,0.8-0.9,1.3-1.2c0.8-0.6,1.6-1,2.4-1.5c0,0,0.6,0.8,0.6,0.9c-0.6,0.8-1.2,1.7-2,2.2
				c-1.8,1.3-3.5,2.6-4.1,4.9c-0.1,0.3-0.2,0.6-0.3,1c0.4-0.1,0.9,0,1.2-0.3c0.8-0.8,1.6-1.7,2.3-2.6c0.2-0.2,0.5-0.3,0.7-0.4
				c0.2,0.3,0.4,0.5,0.4,0.8c0.3,1.6-0.9,2.3-2,3c-1.6,0.9-2.3,2.2-2.1,4c0,0.4,0.3,0.7,0.4,1c0.3-0.2,0.6-0.3,0.8-0.5
				c0.7-0.7,1.2-1.6,1.9-2.1c0.4-0.3,1.1,0,1.7,0c-0.1,0.5-0.1,1.1-0.4,1.3c-1,0.8-2.2,1.4-3,2.3c-0.7,0.8-1.1,2-1.6,3.1
				c0.4,0.1,0.9,0.5,1.1,0.3c0.4-0.2,0.6-0.9,1-1.1c1.2-0.7,2.4-1.3,3.6-1.8c0.3-0.1,0.8,0.3,1.1,0.5c-0.2,0.3-0.4,0.8-0.7,1
				c-0.8,0.6-1.7,1-2.5,1.6c-2,1.5-3.9,3.1-4.1,5.9c0,0.4,0.2,0.8,0.3,1.2c0.3-0.2,0.6-0.4,0.9-0.7c1.8-1.8,3.5-3.6,5.3-5.2
				c0.4-0.3,1.2-0.2,1.8-0.3c-0.2,0.6-0.3,1.2-0.5,1.8c-0.1,0.3-0.6,0.4-0.9,0.7c-1.4,1.3-2.8,2.6-4.2,3.8c-0.4,0.3-0.8,0.6-1.3,0.8
				c-0.3,0.1-0.9,0.1-0.9,0.2c-0.1,0.6,0,1.2,0.1,1.7c0.4-0.1,0.9-0.1,1.2-0.3c1.2-0.9,2.3-1.9,3.4-2.8c0.5-0.4,1.1-0.9,1.7-1.2
				c0.2-0.1,0.8,0,0.9,0.2c0.1,0.2,0.1,0.7-0.1,0.9c-1.2,1.2-2.6,2.2-3.8,3.4c-1.2,1.2-3.2,1.8-3.2,3.9c0,0.2,0.7,0.5,0.8,0.5
				c1-0.9,1.9-1.8,2.9-2.7c0.6-0.5,1.3-0.7,2-1.1c-0.1,0.8-0.2,1.6-0.5,2.3c-0.1,0.3-0.6,0.4-0.9,0.6c-1.4,1.4-2.7,2.7-4,4.2
				c-0.2,0.2,0.1,0.8,0.1,1.2c0.4-0.2,0.8-0.2,1.1-0.5c0.8-0.8,1.4-1.7,2.2-2.4c0.6-0.4,1.4-0.5,2.2-0.7c-0.3,0.7-0.4,1.6-0.9,2.1
				c-1.3,1.3-2.8,2.4-4.1,3.6c-0.5,0.5-0.8,1.2-1,1.9c-0.1,0.3,0.2,0.7,0.3,1c0.3-0.1,0.6-0.2,0.8-0.4c0.9-1,1.8-2,2.8-3
				c0.2-0.2,0.6-0.3,0.8-0.5c0.1,0.3,0.5,0.8,0.4,1c-0.7,1.1-1.5,2.2-2.3,3.1c-0.8,0.9-1.9,1.6-2.7,2.4c-0.2,0.2-0.1,0.8,0.1,1.2
				c0.1,0.1,0.8,0.1,1,0c1-0.6,2-1.4,3-2c0.4-0.2,0.9-0.3,1.4-0.4c-0.1,0.4-0.2,0.8-0.3,1.2c-0.1,0.4-0.2,0.7-0.3,1.1
				c0.4,0,0.7,0.1,1.1,0.1c1.5-0.2,3-0.5,4.5-0.5c3.5-0.1,7.1-0.1,10.6-0.2c0.5,0,1.3-0.7,1.3-0.9
				C221.2,303.2,220.7,300.1,221.1,296.8z"/>
			<path class="st0" d="M222.3,349.7c0,1.5,0.2,2.9,0.3,4.8c0,0.7-0.1,1.5,0,2.2c0.1,1.5,0.2,2.2,0.7,2.5h1.5h-1.5
				c0.4,0.3,1.1,0.3,2.2,0.3c3.1-0.1,6.1-0.5,9.2-0.5c5.1,0,10.2,0.2,15.3,0.4c0.5,0,1.5,1,1.5,1.5c0.1,2.3-0.1,4.5,0,6.8
				c0,0.7,0.7,1.8,1.3,1.9c2.1,0.4,4.3,0.5,6.4-0.2c0.4-0.1,0.8-0.6,0.9-1c0.3-1.8,0.6-3.7,0.5-5.6c-0.1-4.4-0.3-8.8-0.5-13.2
				c0-0.3-0.6-0.8-1-0.9c-4.9-0.3-9.8-0.6-14.8-0.8c-3.5-0.1-6.9,0.1-10.4,0.1c-2.3,0-4.5,0.1-6.8,0.2c-1.1,0.1-2.4,0.6-3.4,0.2
				c-1-0.4-1.3-0.2-1.4,0.3C222.3,349.2,222.3,349.4,222.3,349.7z"/>
			<path class="st0" d="M202.8,386.5c0.3-0.3,0.5-0.7,0.7-1.1c0.7-0.7,1.4-1.6,2.4-0.6c1,1-0.1,1.5-0.7,2c-1.3,1.3-2.7,2.4-3.8,3.8
				c-0.4,0.5-0.2,1.5-0.3,2.2c0.4,0,0.9,0.2,1.1,0c1.2-1,2.3-2.2,3.5-3.2c0.4-0.3,0.9-0.5,1.4-0.7c-0.1,0.6,0.1,1.4-0.3,1.9
				c-0.9,1.1-2,2.1-3.1,3c-1.3,1-0.7,2.4-0.9,3.6c0.4,0,0.9,0.2,1.1,0.1c1.3-1,2.4-2.2,3.8-3.1c0.5-0.4,1.4-0.2,2.1-0.2
				c-0.3,0.7-0.4,1.6-0.9,1.9c-1.1,0.8-2.4,1.3-3.5,2c-0.2,0.2-0.4,1.1-0.3,1.1c1.3,0.6,2.7,1.5,4.1,0.3c1.5-1.3,3-2.7,4.6-3.9
				c0.4-0.3,1.1-0.3,1.6-0.4c-0.1,0.5,0,1.2-0.3,1.5c-0.8,0.9-1.9,1.7-2.8,2.6c-0.3,0.3-0.4,0.7-0.6,1.1c0.4,0,1,0.1,1.3-0.1
				c2.4-1.3,4.6-2.8,5.4-5.7c0.8-2.7,1.9-5.4,2.4-8.1c0.2-1.2,1.2-3-1.2-3.9c-2.6,0.1-5.2,0.2-7.8,0.2c-2.3,0-4.7-0.3-7-0.1
				c-1.3,0.1-2.9,0.8-3.7,1.8c-0.6,0.8-0.2,2.4-0.2,3.6C201.6,387.5,202.2,387.1,202.8,386.5z"/>
			<path class="st0" d="M226.5,38.2c-0.5,0.1-1.1,0-1.3,0.3c-0.5,0.6-0.7,1.4-0.9,2.3c0.3,0.4,0.7,0.8,1,1.2
				c0.3-0.5,0.5-0.9,0.8-1.4c0.2-0.4,0.5-0.9,0.6-1.3C226.8,39,226.6,38.6,226.5,38.2z"/>
			<path class="st0" d="M149.1,60c-2.8,1.1-2.8,0.8-2.3,3.6c0.6,3.3,1.5,6.5,3.5,9.3c1.5,2,2.9,4.2,4.5,6.1c3.2,4,7,7.3,12.2,8.6
				c3.2,0.8,6.6,1.1,9.8,1.9c4.7,1.1,9.5,2.1,14.1,3.5c7.9,2.5,14.6,6.3,15.7,15.7c0,0.3,0.4,0.6,0.6,0.9c0.2-0.2,0.5-0.4,0.7-0.7
				c0.6-1.2,1.1-2.5,1.8-3.6c1.9-2.9,4.8-4.6,7.8-6.3c3-1.7,5.8-3.6,8.8-5.2c2-1.1,4.1-2,6.2-2.8c2.2-0.8,4.5-1.2,6.7-2.1
				c3.5-1.5,7-3.1,10.2-5.2c3.2-2,6.2-4.4,7.4-8.3c0.9-2.9,1.5-5.9,2.7-8.7c0.9-2.1,0.2-2.1-1.5-2.1c-3.1,0-5.1-1.4-6.5-4.3
				c-1.6-3.1-0.9-6-0.3-9c0.3-1.6,0.5-3.1-0.5-4.6c-1.9-2.7-4.1-4.9-7-6.7c-3-1.9-6.1-2.2-9.3-1.7c-3.5,0.5-7.7,5.7-7.9,9.1
				c0,0.2,0.2,0.5,0.3,0.6c0.2,0.1,0.5-0.1,0.7-0.2c0.9-0.3,1.9-1.1,2.7-1c2.8,0.4,5.2,1.5,6.5,4.7c0.1,1,0.3,2,0.3,3
				c0,4-1.7,7.2-4.3,10.2c-4.5,5.1-11.3,7-17.4,4.3c-5.1-2.3-8.4-8.1-8.5-13.7c0-4.1,0.6-8.3,1.5-12.4c0.5-2.1,0.9-4.7,3.2-6
				c0.2-0.1,0.4-0.8,0.3-0.9c-0.3-0.3-0.8-0.5-1.2-0.5c-1.2,0.2-2.4,0.3-3.5,0.7c-0.8,0.3-1.8,0.3-1.4,2c1.3,5.5,0.4,10.9-0.9,16.3
				c-1.1,4.3-3.6,7.7-7,10.6c-3.5,3-7.4,4.5-12,3.2c-2.7-0.8-5.1-2-6.6-4.5c-1.7-2.8-2.6-5.9-3.1-9c-0.6-3.4,2.2-8.8,6.6-8.8
				c0.4,0,1.1-0.9,1.1-1.3c-0.2-3-1.9-6.5-5.3-7.4c-4.5-1.2-9.1-0.9-13.7,0.3c-4.5,1.2-7.6,4.3-10.6,7.6c-0.9,1-1.3,2.8-1.4,4.3
				c-0.3,2.4,0.2,4.9-0.4,7.2C152.1,58.1,150.5,59.5,149.1,60z"/>
			<path class="st0" d="M198.3,318.5c0.5-0.5,0.9-1,1.1-1.8c-0.6,0.4-1.2,0.8-1.8,1.3C197.8,318.2,198.3,318.5,198.3,318.5z"/>
			<path class="st0" d="M236.9,34.9c0.5-0.4,0.4-1.6,0.4-2.4c0-0.2-1.1-0.6-1.2-0.5c-0.4,0.5-0.7,1.1-0.8,1.9
				C235.6,34.7,236,35.7,236.9,34.9z"/>
			<path class="st0" d="M281.9,22.2c-2.3-0.2-4.8-0.5-6.7,1.4c-1.1,1.1-2.5,2.1-3.4,3.3c-0.9,1.3-2.1,2.6-1.4,4.5
				c0.2,0.6-0.3,1.4-0.4,2.2c-0.7-0.3-1.4-0.6-2-1c-0.3-0.2-0.5-0.4-0.7-0.7c-4-6-10.2-8.5-16.8-10.1c-2.7-0.6-4.4-0.8-7.2-1.4
				c-2.9-0.7-6.9,0.6-9.7,2.2c-1.1,0.6-2.2,1.2-3.4,1.6c-1.9,0.7-3.7,1.8-5.6,2.3c-0.8,0.2-2,0.1-2.4-0.4c-0.4-0.4-0.1-1.6,0.1-2.4
				c0.3-1.5,1.4-3.1,1.2-4.4c-0.5-3-1.4-6.1-3.6-8.4c-3.4-3.7-7.4-6.2-12.5-7.1c-4.6-0.8-8.3,0.2-11.4,3.4
				c-3.5,3.6-4.1,8.3-3.6,13.1c0.2,1.5-0.3,2.4-1.7,2.3c-0.8,0-1.7-0.1-2.4-0.5c-5.4-3.5-11.4-4.4-17.6-4.7
				c-6.4-0.3-12.4,1.4-18.4,3.4c-1.4,0.5-2.5,1.5-3.8,2.4c-0.5,0.3-0.9,0.8-1.3,1.2c-0.4-0.6-1-1.1-1.3-1.7
				c-1.4-4.4-3.3-6.5-7.9-6.5c-1.6,0-2,0.8-1.6,2.3c0.8,2.8,1.8,5.6,2.1,8.4c0.3,2.7,0,5.5-0.1,8.3c-0.1,1.2-0.4,3.1-0.8,4.2
				c-1.5,4.2-3.2,8.4-4.6,12.6c-0.9,2.9-1.6,6-1.9,9c-0.6,5.2,1.1,10,2.2,15c1.4,5.8,3.8,11.2,6.3,16.5c1.6,3.4,4.5,5.9,7.8,7.9
				c1.1,0.6,2.2,1.3,3.1,2.1c0.7,0.6,1,1.6,1.5,2.4c-1-0.2-2.1-0.3-3-0.7c-3.2-1.6-6.2-3.5-9.5-4.9c-2.4-1.1-5-1.8-7.6-2.3
				c-1.7-0.3-4,1.4-3.8,2.6c0.4,2.2,0.4,4.6,2.5,6.1c1.6,1.1,3.3,2.1,5,3.2c3.9,2.6,8.4,3,12.9,3.5c2.2,0.2,4.4,0.8,6.6,0.9
				c2.8,0.2,5.6,0.1,8.4,0.3c2.7,0.1,5.4,0.4,8.1,0.7c0.3,0,0.6,0.6,0.9,1c-0.4,0.2-0.8,0.5-1.2,0.5c-1.7,0.1-3.3,0.1-5,0.3
				c-3.1,0.3-6.2,0.9-9.3,0.9c-2.7,0-5,0.9-7.4,1.9c-2.3,1-2.8,3.7-0.9,5.4c1.9,1.7,3.8,2.7,6.3,2.6c4.2-0.2,8.5-0.4,12.7-0.9
				c3.5-0.4,7-1.1,10.6-1.7c3.4-0.6,6.8-1.4,10.2-1.7c5.4-0.5,10.6,0.7,15.4,3.4c1.2,0.7,2.3,0,2.3-1.4c0.1-2.4,0.3-4.8,0.1-7.2
				c-0.2-3.6-1.2-7.1-2.9-10.3c-2.3-4.2-5.3-7.6-10-9.1c-2.5-0.8-5-1.3-7.5-2.2c-5.5-2.1-11.4-2.8-17.2-3.9c-5-0.9-9.4-3-12.9-6.8
				c-1.9-2.1-3.6-4.4-5.5-6.5c-3-3.6-5.5-7.4-6.5-12.1c-0.5-2.1-0.6-4.4-1.4-6.4c-0.7-1.8,0.2-2,1.5-2.3c0.6-0.1,1.2,0.1,1.8,0
				c2.8-0.3,4.2-0.5,4-4c-0.1-1.5-0.4-3-0.6-4.5c-0.1-0.8-0.1-1.5-0.1-2.3c0-1.1,0.3-2.2,0.2-3.2c-0.4-3.1-0.4-6,2.3-8.1
				c0.7-0.5,1.5-0.9,2.2-1.4c3.4-1.8,6.7-3.8,10.2-5.3c4.6-2,9.3-2.3,14.3-0.4c2.7,1,4.9,2.6,7.4,3.8c4.2,1.9,6.8,5.3,8.1,9.2
				c1.6,4.9,1.2,10-2.3,14.4c-0.9,1.2-1.6,2.5-2.7,3.6c-0.5,0.5-1.5,0.6-2.3,0.6c-0.2,0-0.4-1.2-0.5-1.9c-0.2-1.4-0.1-2.8-0.4-4.2
				c-0.1-0.6-0.9-1.3-1.5-1.3c-0.6-0.1-1.6,0.4-2,0.9c-1.7,2.3-0.5,9.1,1.9,10.5c2.3,1.4,4.8,2,7.5,1c2.7-1,4.9-2.7,6.8-4.8
				c3-3.4,4.6-7.4,5-11.9c0.4-4.7-0.8-9.2-1.8-13.7c-0.1-0.6-0.2-1.4,0.2-1.7c0.4-0.3,1.2-0.4,1.8-0.3c1,0.2,2,0.7,3,0.8
				c2.3,0.2,4.5-0.2,6.4-1.7c0.4-0.3,1-0.2,1.5-0.3c0,0.5,0,1.1-0.1,1.6c-0.2,0.6-0.7,1.2-0.7,1.9c-0.2,3.4-1.3,6.5-2.2,9.7
				c-1.6,5.9-1.9,11.9,1.2,17.5c1.7,3,4.4,4.9,7.8,5c3.9,0.1,7.4-1.5,10.1-4.4c1.4-1.5,2.8-3.3,2.4-5.5c-0.2-1-1-2.3-1.9-2.7
				c-0.7-0.3-2.4,0.1-2.9,0.7c-1.3,1.6-2,3.5-3.2,5.2c-0.5,0.7-1.4,1.7-2.1,1.6c-1.4-0.2-2.8-0.7-3.9-1.5c-2.2-1.7-2.3-3.9-1.9-6.6
				c0.6-4.2,1.8-8.1,3.5-11.9c2-4.6,5.1-7.9,9.4-10.4c1-0.6,2-1.3,3.1-1.8c6.4-2.8,12.2,0,17.7,2.7c2.4,1.2,4.3,3.5,6.1,5.6
				c0.8,0.9,1.7,2.7,1.4,3.8c-1.5,4.4-3.7,8.6-4.5,13.3c-0.4,2.5,0.6,4,2.2,5.4c1.2,1.1,2.5,0.5,3.7-0.3c1.5-0.9,2.6-0.1,3.2,1.1
				c0.5,1.1,0.6,2.6,0.4,3.7c-0.7,3.1-1.6,6.1-2.6,9.1c-0.7,2-1.3,4.3-2.7,5.8c-4.8,5.6-11.2,9.1-18,11.8c-1.4,0.6-3,0.6-4.5,1.2
				c-2.9,1.2-5.8,2.3-8.5,3.9c-4.3,2.5-8.8,4.6-12.4,8.2c-3.3,3.2-3.9,7.3-4.1,11.4c-0.1,2.6,0.4,5.2,0.5,7.8c0,1,0.2,1.7,1.4,1.6
				c1.3-0.1,1.2-1.2,1-1.9c-0.7-2.5,0-4.7,0.6-7.1c1.7-6.7,5.7-11.6,11.6-14.8c4.7-2.6,9.6-4.7,14.4-7c6.6-3.2,13.4-5.9,18.3-11.8
				c0.5-0.6,1.2-2,2.2-0.9c0.3,0.3-0.4,1.6-0.7,2.5c0,0.1-0.2,0.2-0.3,0.3c-2.9,2.7-5.6,5.6-8.6,8.1c-1.7,1.4-3.8,2.4-5.7,3.6
				c-3.5,2.2-7.1,4.3-10.3,6.9c-2.1,1.7-3.5,4.3-5.3,6.5c-3.5,4.5-4.4,10.7-9.5,14.1c-0.2,0.1-0.2,0.6-0.3,0.9c0.3,0,0.7,0.1,1,0
				c1.8-0.2,3.7-0.3,5.4-0.7c1.6-0.3,3.7,0,4.2-2.4c0-0.1,1.1-0.3,1.4-0.1c1,0.7,1.7,1.2,3.2,0.9c2-0.4,4.1-0.1,6.2,0.1
				c1.8,0.2,3.6,0.7,5.4,0.9c3.5,0.4,7.1,0.7,10.6,1.1c2.5,0.3,5.2-1.1,6.2-3.6c-1.2-3.1-4.1-4.8-6.8-5.3c-3.8-0.8-8-0.5-11.9,0
				c-3.9,0.5-7.7,1.9-11.5,2.8c-0.6,0.1-1.2,0-1.8-0.1c0.3-0.4,0.6-1,1-1.2c4.7-2.3,9.5-4.6,14.9-4.7c1.5,0,2.9,0.1,4.4,0.1
				c3.3,0.1,6.6-0.1,9.8,0.4c4.1,0.5,8,1,11.2-2.6c2-2.2,2.6-6.4,0.1-8.9c-3.8-3.7-10.2-4.4-14.8-1.7c-2,1.2-4.2,2.3-6.2,3.4
				c-0.9,0.5-2.1,0.2-2.5-0.8c-0.5-1.1,0.4-1.7,1.4-2.3c2.4-1.3,4.7-2.6,6.8-4.2c1.8-1.4,3.4-3.2,4.9-5c3.3-3.9,6.7-7.6,9-12.3
				c2.5-4.9,3.9-9.9,4.9-15.1c0.5-2.7,1.3-5.4,1.7-8.1c0.4-2.8,0.8-5.6,0.6-8.3c-0.2-2.9-0.7-5.7-0.6-8.7c0-4.7,3-10.7,5-14.3
				C283.4,23.3,283.4,22.3,281.9,22.2z"/>
			<path class="st0" d="M190.4,42.4c-0.8,0.5-1.6,1-2.3,1.6c-0.8,0.7-1.5,1.6-0.6,2.7c0.5,0.6,1.3,1.1,1.9,1.6
				c0.5-0.8,1.1-1.7,1.7-2.9C190.8,44.4,190.6,43.4,190.4,42.4z"/>
			<path class="st0" d="M222.7,43.7c-0.3,0.1-0.4,0.6-0.8,1.1c-0.3,3.1-0.6,6.1-0.8,9.2c0,0.3,0.3,0.7,0.4,1c0.3-0.2,0.9-0.4,1-0.7
				c0.2-0.7,0.2-1.5,0.2-2.3c0.1-1.3,0-2.7,0.3-3.9c0.2-1.1,0.9-2.1,1.3-3.2c0.2-0.5,0-1,0-1.6C223.7,43.4,223.1,43.4,222.7,43.7z"
				/>
			<path class="st0" d="M190.3,51.6c0.2-0.5,0.4-1,0.6-1.5c-0.2,0-0.6,0-0.6,0C190.1,50.5,190.1,50.9,190.3,51.6z"/>
			<path class="st0" d="M186.9,37.7c-0.3,0.8-0.6,1.6-0.9,2.4c0,0.1,0,0.3,0,0.4c0.3,0.9,0.6,1.7,0.9,2.6c0.4-0.6,0.9-1.3,1.5-2.1
				c1.3-1.1-0.2-1.9-0.4-2.8C187.8,37.9,187.2,37.8,186.9,37.7z"/>
			<path class="st0" d="M241.8,33.4c0.2-0.5,0.1-1,0.1-1.5c-0.6,0-1.5-0.2-1.7,0.1c-0.4,0.8-0.6,1.7-0.8,2.6c0.5,0.1,0.9,0.1,1.6,0
				C241.3,34.3,241.7,33.9,241.8,33.4z"/>
			<path class="st0" d="M254.6,45c0-1.7,0-3.4-0.3-5.1c-0.1-0.4-1-0.6-1.7-0.7c-0.3,1-1,2.1-0.9,3c0.2,1.1,1.2,2,1.9,2.9
				C253.8,45.2,254.6,45,254.6,45z"/>
			<path class="st0" d="M232.6,34.8c0.3-0.2,0.2-0.9,0.2-1.3c-0.4,0-1-0.2-1.2,0c-1.1,0.8-2.2,1.8-3.2,2.7c-0.2,0.2-0.1,0.7-0.1,1
				c0.4,0,0.7-0.1,1.3-0.3C230.6,36.3,231.7,35.6,232.6,34.8z"/>
			<path class="st0" d="M245.1,33.1c-0.6,0-1.2,1.2-1.6,2c-0.1,0.3,0.5,1.3,0.7,1.3c0.5,0,1-0.5,1.5-1.2
				C245.5,34.5,247.2,33,245.1,33.1z"/>
			<path class="st0" d="M248,38.6c0.8,0.3,1.7,1.6,2.5,0.2c0.6-1.1,0.6-2.2-0.4-3.1c-0.2-0.2-0.4-0.4-0.9-0.6
				c-0.5,0.3-1.4,0.8-1.3,0.9C248.2,36.9,246.4,38,248,38.6z"/>
			<path d="M287.1,20.7c-0.6-1.5-4.6-2.9-6.2-2.8c-2.8,0.1-5.2,1.3-7.8,2.2c-1.9,0.7-3.4,1.3-4.6,2.9c-0.8,1.1-1.8,2.2-3.4,1
				c-6.7-4.7-14.3-6.6-22.3-7.3c-4.9-0.4-10.7,2-14.5,4.5c-0.7,0.2-1.5,0.3-1.4-1c0.5-5.4-1.8-9.9-5.5-13.4c-4-3.7-8.6-6.2-14.3-6.8
				c-5.6-0.6-10.1,1.2-14,4.8c-2.8,2.7-4.1,6.3-4.3,10.2c-0.1,1.8-1.5,2.5-3,1.7c-0.9-0.5-1.7-1-2.7-1.2c-2.4-0.6-4.8-1.2-7.2-1.3
				c-4.4-0.2-8.9-0.5-13.3-0.1c-3.5,0.3-6.9,1.6-10.4,2.7c-1.9,0.6-3.1,0.1-4.3-1.3c-1.2-1.4-2.6-2.7-4.2-3.6
				c-2.9-1.8-6-0.7-8.9,0.2c-2,0.6-3.7,3.2-3.3,4.8c0.6,2.5,1.4,5,2,7.5c1.1,4.9,1.5,9.8-0.1,14.6c-1.7,5-3.5,10-4.9,15.1
				c-1,3.6-1.6,7.3-2,10.9c-0.3,2.8,0,3.3,0.1,6.1c0,1.1,1,6.4,1.4,7.4c1.7,5,2.6,8.1,4.4,13.1c0.2,0.7,0.8,1.8-1,2
				c-1.5,0.1-2.9,0.7-4,1.6c-5.4,4.5-3,10.3,1.8,13.7c3.1,2.2,6.9,3.7,10.6,5c2.2,0.8,4.8,0.7,7.2,1.1c0.5,0.1,0.9,0.5,1.4,0.8
				c-0.2,0.3-0.5,0.8-0.7,0.8c-1.8-0.1-2.1,1.3-2.5,2.5c-1.5,5.4,0.9,7.8,5.9,9.5c3.8,1.3,7.8,1.1,11.8,0.8
				c4.6-0.4,9.2-0.4,13.8-1.6c4-1,7.1-1.5,11.2-2.1c1.7-0.3,2.4,0.1,3.4,1.7c0.2,0.4,0.2,1.2,0,1.5c-1.8,1.6-1.5,3.8-1.8,5.8
				c-0.1,0.7,0.7,1.6,1.3,2.2c0.6,0.6,1.5,0.8,2.2,1.3c0.2,0.1,0.1,0.7,0.2,1.1c-1.9,0.1-1.9,1.9-2.7,3c-0.8,1.3-1,3.1,0.2,4
				c2.2,1.7,5.6,3.2,4.7,6.4c-0.5,1.6,0.5,3.6,0.5,5.4c0.1,4.7,0.1,9.3,0.1,14c0,4.5-0.3,9.1-0.3,13.6c0,5.5,0.3,10.9,0.4,16.4
				c0,3.1-0.3,6.3-0.2,9.4c0.2,6.7,0.5,13.3,0.7,20c0.2,6.5,0.2,13,0.3,19.6c0.1,4-0.5,8,0,12.1c0.5,4.2,0.3,8.5,0.1,12.8
				c-0.1,2.1-1,4.2-0.1,6.3c0.1,0.2,0,0.4,0,0.6c-0.1,2.3-0.1,4.6-0.2,6.8c-0.1,5-0.1,10.1-0.4,15.1c-0.2,3.5,0.3,3.6-2.4,3.7
				c-1.9,0.1-3.2,0.9-3.5,2.2c-0.2,1.1-0.9,4.8,0.4,5.7c1.5,1.1,1.9,0.3,3.3,1.4c0.4,0.3,0.2,0.3,0.2,0.7c0.4,3.1,0.9,6.3,1,9.5
				c0.2,8.5,0.2,17,0.2,25.5c0,0.9-0.1,1.9-0.1,2.8c0.2,5.8,0.5,11.6,0.8,17.4c0.1,1.3-0.9,1.9-2.3,2.4c-1.3,0.5-1.4,1.9-1.4,3.3
				c-0.1,1.5,0.8,2.4,1.9,3.2c0.8,0.6,1.7,1.6,1.9,2.5c0.5,2.5,0.6,5.1,1.1,7.7c0.8,3.7,1.6,7.5,5.5,9.7c0.6,0.3,6,2.1,7.9,2.1
				c4.3-0.1,9-3.3,10.7-7.6c1.6-4,2.7-8.2,2.3-12.6c-0.1-1.4,0.5-2.3,1.7-2.9c1.4-0.8,2.5-2,1.9-3.6c-0.4-1.2-1.5-2.4-2.6-3.3
				c-0.8-0.6-1.2-1.1-1.2-2.1c-0.2-2.6-0.6-5.3-0.8-7.9c0-0.5,0.6-1.3,0.9-1.4c4.2-0.5,8.3-1.2,12.5-1.3c3.9-0.1,7.8,0.4,11.9,0.6
				c0,1.9-0.4,3.7-0.5,5.5c-0.1,1.1,0.2,2.1,0.3,3.2c0.2,2.5,1.4,3.3,3.9,2.7c0.9-0.2,1.8-0.1,2.7-0.1c0.8,0,1.5,0.1,2.3,0
				c1.2-0.2,2.3-0.8,3.4-0.7c2.4,0.3,3.2-0.2,3.2-2.6c0-1.4-0.3-2.8-0.3-4.2c0-3.4,0.1-6.8,0.2-10.1c0.1-2.3,0.1-4.6,0.2-6.8
				c0-1.3-0.1-2.5-1.9-2.5c-0.9,0-1.7-0.4-2.6-0.4c-3.7,0-7.3,0.1-11,0.1c-2.3,0-4.7-0.4-7-0.5c-1,0-2,0.3-3,0.3
				c-3.1-0.1-6.2-0.5-9.4-0.6c-1.4,0-2.9,0.3-4.3,0.7c-1.7,0.5-2.4-3.1-2-5.7c-0.8-1-1.1,0.7-1.9-0.3c-0.2,0-0.5,0.6-0.6,0.6
				c0,0,0,0-0.1,0c0.1,1.9,0.2,3.8,0.3,5.6c0,0.6-0.2,1.6-0.3,2.2c-0.1,0.3,0.2,0.5,0.4,0.5l1.4-0.2c1-0.1,0.9-0.1,1.9-0.1
				c1-0.1,2.2-0.2,3.4-0.2c2.3-0.1,4.5-0.2,6.8-0.2c3.5-0.1,6.9-0.2,10.4-0.1c4.9,0.1,9.9,0.5,14.8,0.8c0.4,0,1,0.5,1,0.9
				c0.2,4.4,0.4,8.8,0.5,13.2c0,1.9-0.3,3.7-0.5,5.6c-0.1,0.4-0.5,0.9-0.9,1c-2.1,0.7-4.3,0.6-6.4,0.2c-0.6-0.1-1.3-1.2-1.3-1.9
				c-0.1-2.3,0.1-4.5,0-6.8c0-0.6-0.9-1.5-1.5-1.5c-5.1-0.2-10.2-0.4-15.3-0.4c-3.1,0-6.1,0.4-9.2,0.5c-1.2,0-1.7,0.3-2.1,0
				l-1.3-0.1c-0.9-0.1-1.7,0.7-1.7,1.6c0.1,3,0.2,6,0.4,9.1c0.1,0.9,0.2,1.7,0.3,2.6c0.2,1.5-0.3,2-1.7,1.9c-4-0.2-7.9-0.2-11.9-0.3
				c-0.3,0-0.7,0.1-0.8,0c-1.8-2.2-2.9-1-4.1,0.6c-0.4,0.4-1.4,0.4-2.1,0.4c-0.4,0-1-0.3-1.2-0.7c-0.1-0.2,0.2-0.9,0.5-1.1
				c1.2-1,2.6-1.8,3.8-2.9c0.7-0.6,0.9-1.7,1.4-2.5c-0.9,0.4-1.8,0.6-2.6,1.1c-0.8,0.5-1.3,1.3-2,1.9c-0.3,0.2-0.7,0.3-1,0.5
				c-0.1-0.4-0.4-0.9-0.3-1.2c0.2-0.6,0.6-1.2,1.1-1.7c1.8-1.6,3.8-3.1,5.6-4.7c0.2-0.2,0.3-0.5,0.4-0.7c-0.3-0.2-0.6-0.5-0.8-0.4
				c-0.7,0.1-1.4,0.2-1.9,0.6c-1,0.9-1.9,2-2.8,3c-0.3,0.3-0.6,0.7-1,1c-0.3-0.5-0.9-1-1-1.5c-0.2-2.7,0.8-4.1,3.7-5.7
				c1.3-0.7,1.9-1.5,1.6-2.9c-0.1-0.9-0.6-1.4-1.4-0.5c-1,1-2.1,2-3.1,3c-0.2,0.2-0.5,0.3-0.8,0.5c-0.1-0.3-0.2-0.6-0.2-0.9
				c-0.5-2.4,1.9-2.8,3-4.1c0.5-0.6,1.5-0.9,2.2-1.4c0.3-0.2,0.3-0.7,0.4-1.1c-0.4-0.1-1.1-0.5-1.3-0.3c-1,0.7-1.9,1.5-2.9,2.3
				c-0.4,0.3-1,0.4-1.5,0.6c0-0.7-0.1-1.4,0.2-2c0.4-0.7,1.2-1.1,1.7-1.7c0.8-0.9,1.5-1.9,2.1-2.9c0.2-0.3,0-0.8,0-1.2
				c-0.5,0.2-1.2,0.2-1.5,0.5c-0.5,0.6-0.7,1.5-1.1,2.1c-0.3,0.4-0.8,0.5-1.2,0.7c0-0.5-0.2-0.9-0.1-1.4c0.2-1,0.4-1.9,0.6-2.9
				c1.3-1.3,2.4-2.4,3.4-3.6c0.2-0.3,0.1-0.8,0.1-1.3c-0.4,0-1-0.1-1.3,0.1c-0.6,0.5-1,1.2-1.6,1.8c-0.4,0.4-0.8,0.6-1.2,0.9
				c0-0.5-0.3-1.3,0-1.6c0.7-1,1.7-1.9,2.5-2.9c0.3-0.3,0.9-0.4,1.1-0.7c0.2-0.5,0.2-1.1,0.3-1.6c-0.5,0-1.1-0.1-1.5,0.1
				c-0.6,0.3-1.1,0.8-1.7,1.2c-0.3,0.2-0.7,0.3-1,0.4c0-0.5-0.2-1,0-1.3c0.7-0.9,1.5-1.8,2.3-2.6c0.6-0.6,1.4-0.9,1.9-1.5
				c0.4-0.5,0.5-1.3,0.7-2c-0.7,0.2-1.4,0.3-2,0.7c-0.4,0.2-0.5,0.9-0.9,1.2c-0.4,0.3-0.9,0.4-1.4,0.6c0-0.5-0.2-1.3,0.1-1.6
				c0.9-0.8,2.1-1.3,3.1-2.1c1.1-0.9,2-1.9,2.9-2.9c0.2-0.2,0-0.8,0-1.2c-0.5,0.1-1,0.1-1.3,0.3c-1.5,1.2-2.8,2.4-4.3,3.6
				c-0.2,0.2-0.6,0.2-0.8,0.3c0-0.4-0.1-0.8,0.1-1.1c1.7-2.1,3.5-4.1,5.1-6.1c0.4-0.5,0.5-1.3,0.4-1.9c-0.1-0.3-1-0.9-1.1-0.8
				c-0.6,0.5-1,1.1-1.5,1.7c-0.8,0.9-1.6,1.8-2.5,2.7c-0.3-0.3-0.7-0.6-0.7-0.9c-0.1-2.9,1.6-4.7,4-6c2.3-1.3,4.7-2.2,7.6-1.9
				c2.8,0.3,5.6,0,8.4-0.1c1.6-0.1,1.9,0.9,2.1,2.1c0,0.2,0,0.4,0,0.6c0,2.6,0,5.1,0,7.7c0.5-0.1,1.3-0.1,2.3-0.2
				c0.1-2.3,0.6-4.5,0.4-6.8c-0.2-2.2-0.5-3.7,2.6-4.1c2.1-0.3,4-4.1,1.5-6.7c-0.8-0.8-1.8-1.6-2.1-2.5c-0.6-2.4-1-4.8-1.1-7.3
				c-0.2-6-0.1-12-0.5-18c-0.2-2.4-0.2-4.7-0.2-7.1c0-3.7,0-7.5-0.1-11.2c-0.1-5.2-0.3-10.3-0.4-15.5c0-1,0-2.5,0-3.5
				c0.1-1.8,0.2-3.5,0.2-5.3c0-1.1-0.3-2.1-0.3-3.2c0-2.5,0.2-5.1,0.2-7.6c0-3.9,0-7.9-0.1-11.8c-0.1-5.1,0.5-10.2-0.3-15.4
				c-0.7-4.5-0.2-9.3-0.2-13.9c0-2.4,0.2-4.8,0.1-7.2c-0.1-2.9-0.6-5.8-0.5-8.6c0.2-4.5,0.7-8.9,1-13.4c0.2-2.8,0-5.6,0.3-8.3
				c0.1-0.8,0.9-1.8,1.6-2.4c0.9-0.8,2.1-1.2,3.1-2c1.5-1.3,1.6-3.5,0.2-5c-2.3-2.3-1.8-2,0.3-4c1.7-1.6,1.9-2.9,0.9-5
				c-0.2-0.5-0.1-1.5,0.2-1.9c2.9-3.1,6.8-2.4,10.4-2.4c2.8,0,5.5,0.7,8.3,0.9c2,0.2,4.2-0.2,6.1,0.2c3.7,0.8,6.9,0.4,10.2-1.4
				c2.3-1.2,4-4.9,1.7-7.5c-0.3-0.3-0.5-0.8-0.4-1.1c0-0.2,0.6-0.4,0.9-0.5c6.1-0.7,10.1-3.9,11.4-9.5c0.6-2.5,0.1-5.4-1.8-7.1
				c-2.2-2-4.9-3.6-7.7-4.8c-2-0.8-1.1-1.5-0.5-2.2c0.9-1.1,2.1-1.9,2.9-3c3.1-4.4,5.4-9.2,7.1-14.3c1.7-5.1,3.6-10.2,3.6-15.7
				c0-1.6,0.4-3.2,0.5-4.8c0.1-2.9,0.5-5.8,0.1-8.6c-0.4-2.7-0.8-8.3,0.3-10.9c1.1-2.5,1.7-5.3,3.1-7.7c1-1.7,1.2-3.5,1.6-5.3
				C287.1,22.4,287.4,21.4,287.1,20.7z M201.2,384.4c0.8-1,2.4-1.7,3.7-1.8c2.3-0.2,4.7,0.1,7,0.1c2.6,0,5.2-0.1,7.8-0.2
				c2.4,0.9,1.4,2.8,1.2,3.9c-0.5,2.8-1.7,5.4-2.4,8.1c-0.8,2.9-3,4.3-5.4,5.7c-0.3,0.2-0.9,0.1-1.3,0.1c0.2-0.4,0.3-0.8,0.6-1.1
				c0.9-0.9,1.9-1.6,2.8-2.6c0.3-0.3,0.2-1,0.3-1.5c-0.5,0.1-1.2,0.1-1.6,0.4c-1.6,1.3-3.1,2.6-4.6,3.9c-1.4,1.3-2.8,0.3-4.1-0.3
				c-0.1,0,0.1-0.9,0.3-1.1c1.1-0.7,2.5-1.2,3.5-2c0.5-0.4,0.6-1.3,0.9-1.9c-0.7,0.1-1.6-0.1-2.1,0.2c-1.3,0.9-2.5,2.1-3.8,3.1
				c-0.2,0.2-0.7,0-1.1-0.1c0.2-1.2-0.5-2.6,0.9-3.6c1.1-0.9,2.2-1.9,3.1-3c0.3-0.4,0.2-1.2,0.3-1.9c-0.5,0.2-1,0.4-1.4,0.7
				c-1.2,1-2.3,2.2-3.5,3.2c-0.2,0.2-0.7,0-1.1,0c0.1-0.8-0.1-1.8,0.3-2.2c1.1-1.4,2.6-2.5,3.8-3.8c0.5-0.5,1.7-1.1,0.7-2
				c-1-1-1.8-0.1-2.4,0.6c-0.3,0.3-0.4,0.8-0.7,1.1c-0.6,0.5-1.2,1-1.9,1.5C201,386.8,200.6,385.2,201.2,384.4z M198.3,318.5
				c0,0-0.5-0.3-0.7-0.5c0.6-0.4,1.2-0.8,1.8-1.3C199.2,317.5,198.8,318,198.3,318.5z M221.7,306.3c0,0.2-0.8,0.9-1.3,0.9
				c-3.5,0.1-7.1,0.1-10.6,0.2c-1.5,0.1-3,0.4-4.5,0.5c-0.4,0-0.7-0.1-1.1-0.1c0.1-0.4,0.2-0.7,0.3-1.1c0.1-0.4,0.2-0.8,0.3-1.2
				c-0.5,0.1-1,0.2-1.4,0.4c-1,0.6-2,1.4-3,2c-0.3,0.2-0.9,0.2-1,0c-0.2-0.3-0.3-1-0.1-1.2c0.9-0.9,1.9-1.5,2.7-2.4
				c0.9-0.9,1.6-2,2.3-3.1c0.1-0.2-0.2-0.7-0.4-1c-0.3,0.2-0.6,0.2-0.8,0.5c-0.9,1-1.8,2-2.8,3c-0.2,0.2-0.6,0.3-0.8,0.4
				c-0.1-0.3-0.4-0.8-0.3-1c0.2-0.7,0.5-1.4,1-1.9c1.3-1.3,2.8-2.3,4.1-3.6c0.5-0.5,0.6-1.4,0.9-2.1c-0.7,0.2-1.6,0.3-2.2,0.7
				c-0.8,0.7-1.5,1.6-2.2,2.4c-0.3,0.3-0.7,0.3-1.1,0.5c0-0.4-0.3-1-0.1-1.2c1.3-1.4,2.7-2.8,4-4.2c0.3-0.3,0.8-0.4,0.9-0.6
				c0.3-0.7,0.3-1.5,0.5-2.3c-0.7,0.4-1.4,0.6-2,1.1c-1,0.8-1.9,1.8-2.9,2.7c-0.1,0.1-0.8-0.3-0.8-0.5c0-2.1,2-2.7,3.2-3.9
				c1.2-1.2,2.5-2.2,3.8-3.4c0.2-0.2,0.3-0.7,0.1-0.9c-0.1-0.2-0.7-0.3-0.9-0.2c-0.6,0.3-1.2,0.8-1.7,1.2c-1.2,0.9-2.3,1.9-3.4,2.8
				c-0.3,0.2-0.8,0.2-1.2,0.3c0-0.6-0.1-1.2-0.1-1.7c0-0.1,0.6-0.1,0.9-0.2c0.4-0.2,0.9-0.5,1.3-0.8c1.4-1.3,2.8-2.6,4.2-3.8
				c0.3-0.3,0.7-0.4,0.9-0.7c0.3-0.5,0.4-1.2,0.5-1.8c-0.6,0.1-1.4,0-1.8,0.3c-1.8,1.7-3.5,3.5-5.3,5.2c-0.3,0.3-0.6,0.5-0.9,0.7
				c-0.1-0.4-0.3-0.8-0.3-1.2c0.2-2.8,2.1-4.4,4.1-5.9c0.8-0.6,1.7-1,2.5-1.6c0.3-0.2,0.4-0.7,0.7-1c-0.4-0.2-0.9-0.6-1.1-0.5
				c-1.2,0.5-2.4,1.1-3.6,1.8c-0.4,0.2-0.6,0.9-1,1.1c-0.2,0.1-0.7-0.2-1.1-0.3c0.5-1,0.8-2.2,1.6-3.1c0.8-0.9,2.1-1.5,3-2.3
				c0.3-0.3,0.3-0.9,0.4-1.3c-0.6,0-1.4-0.3-1.7,0c-0.8,0.6-1.3,1.4-1.9,2.1c-0.2,0.2-0.6,0.4-0.8,0.5c-0.1-0.3-0.4-0.7-0.4-1
				c-0.2-1.8,0.5-3.1,2.1-4c1.1-0.7,2.3-1.4,2-3c0-0.3-0.3-0.5-0.4-0.8c-0.2,0.1-0.5,0.2-0.7,0.4c-0.8,0.8-1.5,1.8-2.3,2.6
				c-0.3,0.2-0.8,0.2-1.2,0.3c0.1-0.3,0.2-0.6,0.3-1c0.6-2.2,2.3-3.6,4.1-4.9c0.8-0.6,1.4-1.4,2-2.2c0.1-0.1-0.5-0.9-0.6-0.9
				c-0.8,0.5-1.6,0.9-2.4,1.5c-0.5,0.3-0.8,0.8-1.3,1.2c-0.5,0.4-1,0.7-1.5,1.1c0-0.8-0.3-1.8,0.1-2.4c1.1-1.4,2.5-2.6,3.7-3.9
				c0.3-0.3,0.7-0.4,0.9-0.6c0.7-0.7,1.9-1.3,0.9-2.5c-0.1-0.2-1.4,0.5-2,0.9c-0.9,0.7-1.7,1.7-2.6,2.4c-0.3,0.3-0.9,0.3-1.3,0.4
				c0.2-0.5,0.2-1.1,0.5-1.5c1.9-1.9,3.9-3.7,5.8-5.6c0.3-0.3,0.4-0.7,0.6-1.1c-0.5-0.1-1.3-0.4-1.6-0.2c-1.2,1-2.3,2.2-3.4,3.3
				c-0.6,0.6-1.3,1.3-1.9,1.9c0-0.9-0.2-1.8,0-2.6c0.3-0.9,0.9-1.7,1.6-2.4c1.2-1.2,2.5-2.3,3.7-3.5c0.3-0.3,0.2-1,0.4-1.5
				c-0.5,0.2-1.1,0.2-1.5,0.5c-0.9,0.7-1.7,1.7-2.6,2.4c-0.3,0.3-0.8,0.3-1.2,0.4c0.1-0.4-0.1-1.1,0.2-1.3c1.3-1.3,2.7-2.5,4-3.8
				c0.3-0.3,0.9-0.4,1-0.8c0.2-0.5,0.2-1.2,0.3-1.8c-0.5,0.1-1.2,0.1-1.6,0.4c-1.1,1-2.2,2.1-3.3,3.2c-0.2,0.2-0.6,0.3-0.8,0.5
				c-0.1-0.3-0.3-0.5-0.3-0.8c-0.3-1.9,1.3-2.5,2.3-3.6c1-1,2.2-2,3.1-3.1c0.3-0.4,0.1-1.1,0.1-1.7c-0.4,0.2-0.9,0.3-1.3,0.6
				c-1,1-1.8,2-2.8,3c-0.2,0.3-0.7,0.3-1,0.5c0-0.5-0.3-1-0.1-1.3c0.4-0.8,1-1.6,1.6-2.3c0.7-0.8,1.6-1.4,2.2-2.2
				c0.3-0.3,0.1-1,0.1-1.5c-0.4,0.1-0.9,0-1.2,0.3c-0.7,0.6-1.3,1.3-2.1,1.9c-0.3,0.2-0.7,0.2-1.1,0.2c0.1-0.3,0.1-0.7,0.3-0.9
				c0.9-1.1,1.8-2.3,2.8-3.3c0.7-0.7,1.5-1.2,2.2-1.9c0.2-0.3,0.2-1,0-1.3c-0.2-0.2-1-0.3-1.3-0.1c-0.8,0.7-1.4,1.6-2.2,2.4
				c-0.3,0.3-0.9,0.4-1.4,0.7c0-0.5-0.2-1.1,0-1.4c0.8-1.1,1.8-2.1,2.8-3.1c0.3-0.3,0.8-0.5,1-0.8c0.2-0.4,0.2-0.9,0.3-1.4
				c-0.5,0-1-0.1-1.3,0.1c-0.7,0.5-1.2,1.2-1.9,1.7c-0.3,0.2-0.7,0.3-1.1,0.5c0-0.5-0.1-1.2,0.2-1.4c0.9-0.8,2.1-1.4,3.1-2.2
				c0.7-0.6,1.4-1.2,2-1.9c0.2-0.2,0.1-0.7,0.1-1.1c-0.5,0-1.1-0.2-1.3,0c-1.1,0.9-2,1.9-3,2.8c-0.3,0.3-0.6,0.5-0.9,0.7
				c-0.2-0.4-0.5-0.8-0.5-1.2c0-2.3,2.1-3.1,3.4-4.5c0.7-0.8,1.6-1.3,2.4-1.9c0.3-0.3,0.4-0.8,0.7-1.2c-0.6-0.1-1.4-0.6-1.7-0.4
				c-1.1,0.7-2,1.6-3,2.4c-0.3,0.3-0.5,0.7-0.8,1c-0.2,0.2-0.6,0.3-0.8,0.5c-0.1-0.3-0.5-0.8-0.4-1c0.4-0.9,0.7-1.9,1.3-2.6
				c1.2-1.3,2.6-2.5,3.8-3.7c0.2-0.2,0.3-0.7,0.4-1.1c-0.5-0.1-1.1-0.5-1.3-0.3c-1.2,1-2.2,2.1-3.3,3.1c-0.2,0.2-0.6,0.3-0.8,0.4
				c0-0.4-0.2-0.9,0-1.1c1-1.3,2.2-2.7,3.3-3.9c0.6-0.6,1.3-1.1,1.8-1.8c0.3-0.3,0.2-0.9,0.3-1.4c-0.5,0-1-0.1-1.3,0.1
				c-1.1,0.7-2,1.6-3,2.4c-0.3,0.2-0.7,0.3-1,0.4c0-0.5-0.1-1.2,0.1-1.5c1.8-1.4,3.7-2.7,5.5-4.1c0.4-0.3,0.6-1,0.9-1.5
				c-0.6,0.1-1.4-0.1-1.9,0.2c-1.2,0.8-2.3,1.9-3.5,2.8c-0.3,0.2-0.7,0.4-1,0.5c0-0.5-0.2-1.2,0-1.5c1.1-1.3,2.3-2.5,3.4-3.7
				c0.8-0.8,2.1-1.5,1.2-3c-0.8,0.5-1.7,1-2.5,1.6c-0.1,0-0.1,0.1-0.1,0.1c-0.7,0.5-1.4,0.9-2.1,1.4c0.3-1,0.3-2.2,0.9-2.9
				c0.9-1.2,2.3-2.2,3.4-3.3c0.2-0.3,0.2-0.8,0.3-1.2c-0.4,0-1-0.1-1.3,0.1c-0.7,0.5-1.2,1.3-1.8,1.9c-0.4,0.4-1,0.6-1.6,0.9
				c0.1-0.7,0-1.6,0.4-2c1.2-1.4,2.6-2.6,3.9-3.9c0.2-0.2,0.3-0.6,0.4-1c-0.4,0-0.8-0.1-1.1,0.1c-1,0.6-2,1.3-3,2
				c-0.4,0.2-0.7,0.4-1.1,0.6c0-0.5-0.2-1.2,0-1.4c1-1,2.1-1.9,3.2-2.8c0.8-0.8,1.6-1.6,2.4-2.5c-1,0.3-2.1,0.6-3.1,1
				c-0.8,0.3-1.6,0.9-2.4,1.3c0.5-0.8,0.9-1.8,1.5-2.4c0.8-0.8,1.9-1.4,2.9-2.2c0.5-0.4,1-0.9,1.3-1.5c0.1-0.3-0.1-0.9-0.3-1.2
				c-0.1-0.1-0.7,0-0.9,0.2c-0.8,0.7-1.5,1.4-2.4,2.1c-0.2,0.2-0.7,0-1.1,0c0.1-0.3,0-0.7,0.2-0.9c1-0.9,2-1.8,3-2.6
				c0.6-0.5,1.2-1,1.8-1.6c0,0-0.4-0.7-0.5-0.7c-0.8,0.3-1.6,0.6-2.3,1c-0.4,0.3-0.8,0.7-1.2,1.1c-0.4,0.3-0.9,0.6-1.4,0.9
				c0.1-0.7,0-1.5,0.3-1.9c1.1-1.2,2.5-2.2,3.7-3.4c0.3-0.3,0.5-0.8,0.7-1.2c-0.4-0.1-0.8-0.1-1.2-0.2c-0.2,0-0.4,0-0.5-0.1
				c0-0.2,0-0.5,0.1-0.7c0.6-0.7,1.4-1.2,2-2c0.2-0.3,0-0.9,0-1.3c-0.4,0-0.9-0.1-1.1,0.2c-1,1-2,2-2.9,3.1
				c-0.1,0.2,0.2,0.8,0.4,1.1c0.2,0.2,0.5,0.3,0.8,0.5c-0.7,0.6-1.4,1.2-2.2,1.8c-0.2-0.5-0.4-0.9-0.4-1.4c0-2.4,0.3-4.6,3.1-5.7
				c1.1-0.5,1.9-1.9,2.7-2.9c0.2-0.2,0-0.7,0-1.1c-0.4,0.1-0.8,0-1.1,0.2c-1,0.9-1.9,1.9-2.9,2.7c-0.3,0.3-0.9,0.3-1.4,0.4
				c0-0.6-0.2-1.5,0.2-1.8c1.1-1.1,2.4-2,3.6-2.9c0.4-0.4,1.1-0.6,1.3-1.1c0.3-0.6,0.4-1.3,0.6-2c-0.6,0.3-1.3,0.5-1.8,0.9
				c-1,0.8-2,1.7-3,2.4c-0.4,0.3-0.9,0.3-1.4,0.5c0.1-0.5,0-1.1,0.3-1.3c1.3-1.3,2.7-2.5,4-3.7c0.5-0.4,0.9-1,1.2-1.6
				c0.1-0.1-0.5-0.8-0.7-0.8c-0.6,0.2-1.1,0.5-1.6,0.9c-0.4,0.3-0.7,0.8-1.2,1.1c-0.4,0.3-0.9,0.5-1.4,0.8c0-0.8-0.2-1.9,0.2-2.2
				c1.2-1,2.6-1.7,3.9-2.6c0.4-0.2,0.6-0.7,0.9-1c-0.5-0.2-1.1-0.7-1.3-0.5c-0.8,0.4-1.5,1.1-2.3,1.7c-0.4,0.3-0.7,0.6-1,0.9
				c-0.2-0.4-0.6-0.7-0.6-1.1c-0.1-1.4-0.5-2.9-0.1-4.2c0.5-1.5,2.1-0.9,3.3-0.9c1.5,0,3,0.1,4.4,0.1c0.6,0,1.2,0.1,1.8,0
				c3.2-0.2,6.5-0.3,9.7-0.6c1.6-0.1,1.8,0.2,1.8,1.9c-0.1,2.5,0.2,5.1,0.2,7.6c-0.1,6.9-0.3,13.8-0.5,20.7c0.1,0.6,0.4,0.8,0.4,1
				c0,3.1-0.2,6.1-0.2,9.2c0.1,2.6,0.4,5.2,0.6,7.8c0.2,3.9,0.5,7.9,0.5,11.8c0,2.3-0.5,4.6-0.5,6.9c-0.1,4.7,0,9.5,0,14.2
				c0,1.9-0.1,3.8-0.1,5.6c0,3.5,0.1,7.1,0.1,10.6c0,5.2,0,10.4,0,15.6c0,3.8,0.1,7.6,0.1,11.4c0.1,5.9,0.2,11.9,0.4,17.8
				c0.1,2.4,0.8,4.7,0.5,7C220.7,300.1,221.2,303.2,221.7,306.3z M152.8,49.6c0.2-1.5,0.5-3.3,1.4-4.3c3-3.2,6.1-6.4,10.6-7.6
				c4.6-1.2,9.2-1.5,13.7-0.3c3.3,0.9,5,4.4,5.3,7.4c0,0.4-0.7,1.3-1.1,1.3c-4.4,0.1-7.2,5.4-6.6,8.8c0.5,3.2,1.4,6.2,3.1,9
				c1.6,2.6,3.9,3.8,6.6,4.5c4.7,1.3,8.5-0.2,12-3.2c3.4-2.9,5.9-6.2,7-10.6c1.3-5.4,2.2-10.8,0.9-16.3c-0.4-1.7,0.6-1.7,1.4-2
				c1.1-0.4,2.3-0.6,3.5-0.7c0.4,0,0.8,0.2,1.2,0.5c0.1,0.1-0.1,0.8-0.3,0.9c-2.3,1.3-2.7,3.9-3.2,6c-0.9,4-1.5,8.2-1.5,12.4
				c0.1,5.6,3.4,11.4,8.5,13.7c6,2.7,12.9,0.8,17.4-4.3c2.6-3,4.3-6.2,4.3-10.2c0-1-0.2-2-0.3-3c-1.3-3.1-3.7-4.3-6.5-4.7
				c-0.8-0.1-1.8,0.6-2.7,1c-0.2,0.1-0.5,0.2-0.7,0.2c-0.2-0.1-0.3-0.4-0.3-0.6c0.2-3.4,4.5-8.6,7.9-9.1c3.2-0.5,6.3-0.2,9.3,1.7
				c2.9,1.8,5.1,4,7,6.7c1.1,1.5,0.9,3,0.5,4.6c-0.7,3-1.3,5.9,0.3,9c1.5,2.9,3.5,4.2,6.5,4.3c1.6,0,2.4,0,1.5,2.1
				c-1.2,2.7-1.8,5.8-2.7,8.7c-1.2,3.9-4.2,6.3-7.4,8.3c-3.2,2-6.7,3.6-10.2,5.2c-2.1,0.9-4.5,1.3-6.7,2.1c-2.1,0.8-4.2,1.7-6.2,2.8
				c-3,1.6-5.8,3.6-8.8,5.2c-3,1.7-5.8,3.4-7.8,6.3c-0.7,1.1-1.2,2.4-1.8,3.6c-0.1,0.3-0.4,0.5-0.7,0.7c-0.2-0.3-0.6-0.6-0.6-0.9
				c-1-9.4-7.8-13.2-15.7-15.7c-4.6-1.5-9.4-2.5-14.1-3.5c-3.2-0.7-6.6-1.1-9.8-1.9c-5.2-1.2-9-4.5-12.2-8.6c-1.6-2-2.9-4.1-4.5-6.1
				c-2.1-2.8-2.9-6-3.5-9.3c-0.5-2.8-0.5-2.5,2.3-3.6c1.4-0.5,3-1.9,3.3-3.3C153,54.5,152.5,52,152.8,49.6z M154.5,39.7
				c0-0.4,0-0.7,0.1-1.1c0.2-0.9-0.4-2.6,1.3-2.1c1.5,0.5,0.6,1.9,0.3,2.9C155.4,39.6,154.9,39.6,154.5,39.7z M158.6,34.8
				c0.5-0.6,1.5-0.8,2.3-1.1c0.2,0.6,1.7,0.8,0.6,1.8c-0.6,0.5-1,0.8-1.5,1c-0.5,0.3-1.1,0.4-1.6,0.7
				C158.4,36.4,158.2,35.4,158.6,34.8z M163.1,32.9c0-0.3,0.5-0.8,1-1c0.5-0.2,1.1-0.3,1.6-0.4c0.4,0.9,0.6,1.6,0.8,2.4
				c-0.8,0.1-1.6,0.4-2.4,0.3C163.7,34.1,163.2,33.4,163.1,32.9z M170.6,31.8c-0.3,0.9-0.7,1.7-1.1,2.5c0,0-0.6-0.1-0.6-0.3
				c-0.1-1-0.4-2.1-0.2-3c0.1-0.9,1.1-0.9,1.9,0C170.6,31.5,170.7,31.7,170.6,31.8z M172.5,32.4c0.4-0.7,0.9-1.8,1.5-1.8
				c0.8,0,1.6,0.7,2.4,1.1c-0.1,1.5-2.9,2.9-3.7,2.1C172.4,33.6,172.3,32.8,172.5,32.4z M178.3,32.6c0.5-0.1,1-0.4,1.3-0.2
				c0.9,0.5,1.6,1.1,2.5,1.7c1.6,0.2,2.6,1.1,3.1,2.5c0.1,0.4-0.1,0.9-0.2,1.3c-0.4-0.2-1.1-0.2-1.3-0.5c-0.6-0.9-1.1-1.9-1.6-2.9
				c-1.2,0-2.5,0.8-3.4-0.7C178.5,33.4,178.5,33,178.3,32.6z M226.1,40.7c-0.2,0.5-0.5,0.9-0.8,1.4c-0.3-0.4-0.7-0.8-1-1.2
				c0.1-0.9,0.4-1.7,0.9-2.3c0.2-0.3,0.9-0.2,1.3-0.3c0.1,0.4,0.2,0.8,0.2,1.1C226.6,39.8,226.3,40.2,226.1,40.7z M228.4,36.2
				c1-1,2.1-1.9,3.2-2.7c0.3-0.2,0.8,0,1.2,0c-0.1,0.4,0,1.1-0.2,1.3c-1,0.8-2,1.5-3,2.2c-0.6,0.2-0.9,0.3-1.3,0.3
				C228.3,36.9,228.2,36.4,228.4,36.2z M235.2,33.9c0.1-0.8,0.4-1.5,0.8-1.9c0.1-0.1,1.2,0.3,1.2,0.5c0,0.8,0.1,2-0.4,2.4
				C236,35.7,235.6,34.7,235.2,33.9z M239.4,34.6c0.2-0.9,0.4-1.8,0.8-2.6c0.1-0.3,1.1-0.1,1.7-0.1c0,0.5,0.1,1-0.1,1.5
				c-0.2,0.5-0.5,0.8-0.8,1.2C240.3,34.8,239.9,34.7,239.4,34.6z M245.8,35.2c-0.5,0.7-1,1.1-1.5,1.2c-0.2,0-0.8-1-0.7-1.3
				c0.4-0.8,1-2,1.6-2C247.2,33,245.5,34.5,245.8,35.2z M247.8,36c0-0.1,0.9-0.6,1.3-0.9c0.6,0.2,0.7,0.4,0.9,0.6
				c1.1,0.9,1.1,2,0.4,3.1c-0.8,1.4-1.7,0.2-2.5-0.2C246.4,38,248.2,36.9,247.8,36z M252.6,39.1c0.7,0.1,1.7,0.4,1.7,0.7
				c0.2,1.7,0.2,3.4,0.3,5.1c0,0-0.8,0.2-0.9,0.1c-0.7-0.9-1.7-1.9-1.9-2.9C251.6,41.3,252.3,40.1,252.6,39.1z M282.7,24.6
				c-2,3.6-5,9.6-5,14.3c0,3,0.4,5.8,0.6,8.7c0.2,2.7-0.2,5.6-0.6,8.3c-0.4,2.7-1.2,5.4-1.7,8.1c-1,5.3-2.4,10.3-4.9,15.1
				c-2.4,4.7-5.7,8.4-9,12.3c-1.5,1.8-3.1,3.6-4.9,5c-2.1,1.6-4.5,2.9-6.8,4.2c-1,0.6-1.9,1.2-1.4,2.3c0.4,1,1.6,1.3,2.5,0.8
				c2.1-1.2,4.2-2.2,6.2-3.4c4.5-2.7,11-2,14.8,1.7c2.5,2.4,1.9,6.6-0.1,8.9c-3.2,3.6-7,3.2-11.2,2.6c-3.2-0.4-6.5-0.3-9.8-0.4
				c-1.5,0-2.9-0.1-4.4-0.1c-5.4,0.1-10.2,2.4-14.9,4.7c-0.4,0.2-0.7,0.8-1,1.2c0.6,0,1.3,0.2,1.8,0.1c3.8-0.9,7.6-2.3,11.5-2.8
				c3.9-0.5,8.1-0.8,11.9,0c2.7,0.5,5.5,2.3,6.8,5.3c-1,2.6-3.7,3.9-6.2,3.6c-3.5-0.4-7.1-0.7-10.6-1.1c-1.8-0.2-3.6-0.7-5.4-0.9
				c-2.1-0.2-4.2-0.5-6.2-0.1c-1.5,0.3-2.2-0.2-3.2-0.9c-0.3-0.2-1.4-0.1-1.4,0.1c-0.5,2.4-2.6,2.1-4.2,2.4
				c-1.8,0.4-3.6,0.5-5.4,0.7c-0.3,0-0.7,0-1,0c0.1-0.3,0.1-0.8,0.3-0.9c5.1-3.4,6-9.6,9.5-14.1c1.7-2.2,3.1-4.7,5.3-6.5
				c3.2-2.6,6.8-4.6,10.3-6.9c1.9-1.2,4-2.1,5.7-3.6c3-2.6,5.8-5.4,8.6-8.1c0.1-0.1,0.2-0.2,0.3-0.3c0.3-0.9,1-2.2,0.7-2.5
				c-1.1-1.1-1.7,0.3-2.2,0.9c-4.9,5.8-11.7,8.6-18.3,11.8c-4.8,2.3-9.7,4.4-14.4,7c-5.9,3.2-9.9,8.1-11.6,14.8
				c-0.6,2.3-1.3,4.6-0.6,7.1c0.2,0.7,0.3,1.8-1,1.9c-1.2,0.1-1.3-0.6-1.4-1.6c-0.1-2.6-0.6-5.2-0.5-7.8c0.2-4.2,0.9-8.2,4.1-11.4
				c3.6-3.6,8.1-5.7,12.4-8.2c2.7-1.6,5.6-2.7,8.5-3.9c1.4-0.6,3-0.7,4.5-1.2c6.8-2.7,13.2-6.2,18-11.8c1.3-1.6,2-3.8,2.7-5.8
				c1-3,1.9-6,2.6-9.1c0.3-1.2,0.1-2.7-0.4-3.7c-0.5-1.1-1.7-2-3.2-1.1c-1.2,0.7-2.5,1.4-3.7,0.3c-1.5-1.4-2.6-2.8-2.2-5.4
				c0.8-4.7,3.1-8.8,4.5-13.3c0.3-1-0.5-2.8-1.4-3.8c-1.8-2.1-3.7-4.4-6.1-5.6c-5.5-2.7-11.2-5.5-17.7-2.7c-1.1,0.5-2,1.2-3.1,1.8
				c-4.2,2.5-7.4,5.7-9.4,10.4c-1.6,3.9-2.9,7.7-3.5,11.9c-0.4,2.7-0.2,5,1.9,6.6c1.1,0.8,2.5,1.3,3.9,1.5c0.6,0.1,1.6-0.9,2.1-1.6
				c1.1-1.7,1.9-3.6,3.2-5.2c0.5-0.7,2.2-1.1,2.9-0.7c0.9,0.4,1.7,1.7,1.9,2.7c0.5,2.2-0.9,4-2.4,5.5c-2.7,2.9-6.1,4.5-10.1,4.4
				c-3.4-0.1-6.1-1.9-7.8-5c-3.2-5.6-2.9-11.6-1.2-17.5c0.9-3.2,2-6.3,2.2-9.7c0-0.6,0.6-1.2,0.7-1.9c0.1-0.5,0.1-1.1,0.1-1.6
				c-0.5,0.1-1.1,0-1.5,0.3c-1.9,1.5-4.1,1.9-6.4,1.7c-1-0.1-2-0.6-3-0.8c-0.6-0.1-1.4-0.1-1.8,0.3c-0.3,0.3-0.3,1.1-0.2,1.7
				c1,4.5,2.2,9,1.8,13.7c-0.4,4.5-2,8.4-5,11.9c-1.9,2.2-4.1,3.9-6.8,4.8c-2.6,0.9-5.2,0.4-7.5-1c-2.4-1.5-3.6-8.3-1.9-10.5
				c0.4-0.5,1.3-0.9,2-0.9c0.6,0.1,1.4,0.8,1.5,1.3c0.3,1.4,0.2,2.8,0.4,4.2c0.1,0.7,0.3,1.8,0.5,1.9c0.7,0.1,1.8-0.1,2.3-0.6
				c1-1.1,1.7-2.4,2.7-3.6c3.5-4.4,3.9-9.5,2.3-14.4c-1.3-4-3.9-7.3-8.1-9.2c-2.5-1.1-4.7-2.8-7.4-3.8c-4.9-1.8-9.7-1.6-14.3,0.4
				c-3.5,1.5-6.8,3.5-10.2,5.3c-0.8,0.4-1.5,0.8-2.2,1.4c-2.7,2.1-2.7,5-2.3,8.1c0.1,1-0.1,2.1-0.2,3.2c0,0.8,0,1.5,0.1,2.3
				c0.2,1.5,0.6,3,0.6,4.5c0.2,3.5-1.2,3.6-4,4c-0.6,0.1-1.2-0.1-1.8,0c-1.2,0.2-2.2,0.5-1.5,2.3c0.8,2,0.9,4.2,1.4,6.4
				c1.1,4.6,3.5,8.5,6.5,12.1c1.9,2.2,3.6,4.4,5.5,6.5c3.4,3.8,7.8,5.9,12.9,6.8c5.8,1.1,11.6,1.8,17.2,3.9c2.4,0.9,5,1.4,7.5,2.2
				c4.7,1.5,7.7,4.8,10,9.1c1.7,3.2,2.7,6.7,2.9,10.3c0.1,2.4-0.1,4.8-0.1,7.2c0,1.5-1.1,2.1-2.3,1.4c-4.8-2.7-9.9-3.9-15.4-3.4
				c-3.4,0.3-6.8,1.1-10.2,1.7c-3.5,0.6-7,1.3-10.6,1.7c-4.2,0.5-8.4,0.7-12.7,0.9c-2.4,0.1-4.4-0.9-6.3-2.6
				c-1.9-1.7-1.4-4.3,0.9-5.4c2.3-1,4.6-2,7.4-1.9c3.1,0,6.2-0.6,9.3-0.9c1.7-0.2,3.3-0.2,5-0.3c0.4,0,0.8-0.3,1.2-0.5
				c-0.3-0.3-0.6-0.9-0.9-1c-2.7-0.3-5.4-0.5-8.1-0.7c-2.8-0.1-5.6-0.1-8.4-0.3c-2.2-0.2-4.4-0.7-6.6-0.9c-4.5-0.5-9-0.8-12.9-3.5
				c-1.6-1.1-3.4-2.1-5-3.2c-2.1-1.5-2.1-3.9-2.5-6.1c-0.2-1.2,2.1-3,3.8-2.6c2.6,0.5,5.2,1.3,7.6,2.3c3.2,1.4,6.3,3.3,9.5,4.9
				c0.9,0.4,2,0.5,3,0.7c-0.5-0.8-0.9-1.7-1.5-2.4c-0.9-0.8-2-1.5-3.1-2.1c-3.3-2-6.2-4.5-7.8-7.9c-2.5-5.3-5-10.6-6.3-16.5
				c-1.2-5-2.8-9.9-2.2-15c0.3-3,1-6.1,1.9-9c1.3-4.3,3.1-8.4,4.6-12.6c0.4-1.1,0.7-3,0.8-4.2c0.2-2.8,0.4-5.6,0.1-8.3
				c-0.3-2.9-1.3-5.6-2.1-8.4c-0.5-1.5-0.1-2.3,1.6-2.3c4.7,0,6.5,2.1,7.9,6.5c0.2,0.6,0.8,1.1,1.3,1.7c0.4-0.4,0.8-0.8,1.3-1.2
				c1.2-0.8,2.4-1.9,3.8-2.4c5.9-2.1,12-3.7,18.4-3.4c6.2,0.2,12.2,1.2,17.6,4.7c0.6,0.4,1.6,0.5,2.4,0.5c1.4,0.1,1.9-0.9,1.7-2.3
				c-0.5-4.8,0.1-9.5,3.6-13.1c3.1-3.2,6.8-4.2,11.4-3.4c5.2,0.9,9.1,3.4,12.5,7.1c2.2,2.3,3,5.4,3.6,8.4c0.2,1.4-0.8,2.9-1.2,4.4
				c-0.2,0.8-0.5,2-0.1,2.4c0.5,0.5,1.7,0.6,2.4,0.4c1.9-0.5,3.7-1.7,5.6-2.3c1.2-0.4,2.3-1,3.4-1.6c2.8-1.6,6.8-2.9,9.7-2.2
				c2.7,0.7,4.4,0.8,7.2,1.4c6.6,1.6,12.8,4.1,16.8,10.1c0.2,0.3,0.4,0.6,0.7,0.7c0.7,0.4,1.4,0.7,2,1c0.2-0.7,0.6-1.6,0.4-2.2
				c-0.7-1.9,0.5-3.2,1.4-4.5c0.9-1.3,2.3-2.2,3.4-3.3c1.9-1.9,4.4-1.7,6.7-1.4C283.4,22.3,283.4,23.3,282.7,24.6z M224.2,44.8
				c-0.4,1.1-1,2.1-1.3,3.2c-0.3,1.3-0.2,2.6-0.3,3.9c-0.1,0.8,0,1.6-0.2,2.3c-0.1,0.3-0.6,0.5-1,0.7c-0.2-0.3-0.5-0.7-0.4-1
				c0.2-3.1,0.5-6.1,0.8-9.2c0.4-0.5,0.5-1,0.8-1.1c0.5-0.2,1.1-0.3,1.6-0.4C224.2,43.7,224.4,44.3,224.2,44.8z M189.4,48.3
				c-0.7-0.5-1.4-1-1.9-1.6c-0.9-1.1-0.2-2,0.6-2.7c0.7-0.6,1.5-1.1,2.3-1.6c0.2,1,0.4,2,0.6,3C190.4,46.7,189.9,47.5,189.4,48.3z
				 M190.8,50.1c-0.2,0.5-0.4,1-0.6,1.5c-0.2-0.6-0.2-1-0.1-1.4C190.2,50.1,190.6,50.1,190.8,50.1z M188.3,41
				c-0.6,0.8-1.1,1.5-1.5,2.1c-0.3-0.9-0.6-1.7-0.9-2.6c0-0.1,0-0.3,0-0.4c0.3-0.8,0.6-1.6,0.9-2.4c0.4,0.1,1,0.2,1,0.4
				C188.2,39,189.6,39.8,188.3,41z"/>
		</g>
	</g>
</g>
<path d="M194.8,102.2c4.1,3.9,7.2,8.3,8.6,13.7c0.7,2.6,0,5.3-1.8,6c-0.4,0.2-0.9,0.4-1.2,0.2c-6.2-2.8-11.8-6.5-15.9-12.1
	c-2.6-3.6-6.3-5.7-10.6-7.3c-5-1.8-9.8-4.4-14.5-7.1c-1.5-0.9-2.4-3-3.4-4.7c-0.3-0.4,0.1-1.2,0.2-1.9c0.6,0.1,1.4,0.1,1.9,0.5
	c1,0.7,1.9,1.5,2.8,2.3c3.2,2.5,7.1,3.3,11,3.8c5.3,0.6,10.5,1.1,15.4,3.3c1,0.4,2.2,0.1,3.2,0.6
	C191.9,100.2,193.2,101.3,194.8,102.2z"/>
<path d="M204.9,12.9c1.2-0.1,2.2-0.2,3.2-0.3c2-0.1,3.4,0.7,4.5,2.5c2.2,3.6,0.1,9.6-4,10.8c-2,0.6-5.8-1.5-6.3-3.6
	c-0.6-2.5-1.1-5,0.6-7.3C203.4,14.3,204.1,13.6,204.9,12.9 M207.4,15.8c-0.9,0.9-2.2,1.8-2.4,2.9c-0.2,1,0.5,2.3,1.1,3.3
	c0.3,0.4,1.3,0.6,2,0.6c1.7,0.1,2.1-1.2,2.3-2.5C210.6,18,210,16.4,207.4,15.8z"/>
<path d="M254.7,109.2c-1.5,0.1-2.7,0.3-4,0.3c-0.4,0-0.8-0.4-1.1-0.6c0.2-0.3,0.3-0.8,0.6-0.9c1.3-0.6,2.6-1.3,3.9-1.5
	c2-0.4,4.1-0.3,6-0.8c1.6-0.4,3-1.3,4.6-1.9c1.9-0.7,3.1,0,4.1,1.9c0.8,1.8-0.5,2.3-1.6,3.2c-1.8,1.4-3.5,1-5.4,0.5
	c-1-0.3-2-0.4-3-0.5C257.5,108.9,256.2,109.1,254.7,109.2z"/>
<path d="M257.3,53.2c0.2-3.7,1.4-7,3.1-10.1c0.3-0.5,0.8-1,1.3-1.2c0.4-0.2,1.1-0.2,1.4,0.1c0.3,0.2,0.4,0.9,0.3,1.3
	c-0.8,2.7-1.8,5.4-2.7,8c-0.1,0.2-0.2,0.5-0.2,0.7c0.1,0.9,0.2,1.7,0.3,2.6c0.9-0.2,1.7-0.4,2.6-0.5c0.8-0.1,1.6-0.2,2.5-0.3
	c-0.4,0.8-0.8,1.6-1.3,2.3c-0.6,0.6-1.3,1.2-2.1,1.5C259.7,58.6,256.9,58,257.3,53.2z"/>
<path d="M172,120.6c-2.1,0.7-4.1,1.4-6.1,1.9c-3.1,0.8-6.2,1.7-9.4,2c-1.3,0.1-3-1-4-2c-1.1-1,0.2-3,2-3.1c1.1,0,2.4,0,3.4,0.5
	c2.9,1.5,5.8,0.5,8.6,0c1.7-0.3,3.3-0.9,5-1.2c0.4-0.1,0.8,0.3,1.2,0.4C172.5,119.6,172.3,120.1,172,120.6z"/>
<path d="M150.1,107.9c0.9,1.2,0.5,2.1-1,1.9c-2.1-0.2-4.2-0.5-6.1-1.1c-2.6-0.8-5.2-1.8-7.8-2.8c-1.6-0.6-2.1-2-2-3.5
	c0-1.7,1.7-2.5,3.3-1.7c0.6,0.3,1.5,0.5,1.7,1c1.3,3,4.2,3.7,6.7,4.7C146.5,107.2,148.2,107.4,150.1,107.9z"/>
<path d="M273.4,39.8c0.2-3.8-0.3-7.5,1.5-10.8c0.7-1.3,0.4-1.4,1.4-2.5c0.3-0.4,1-1.2,1.7-1.3c-0.1,0.6,0.1,2-0.2,2.5
	c-0.7,1.2-0.6,1.6-1,2.9c-1,3.4-1.5,6.9-0.7,10.4c0.2,0.8,0,1.6,0,2.4c0,0.9,0.1,1.9-0.1,2.8c-0.1,0.6-0.5,1.2-0.8,1.8
	c-0.4-0.4-1-0.8-1-1.2c-0.2-1.4-0.3-2.9-0.4-4.4C273.6,41.6,273.5,40.8,273.4,39.8z"/>
<path d="M145.5,54.2c-0.8,0.3-1.4,0.6-2,0.6c-0.5,0-1.4-0.3-1.5-0.7c-0.1-0.5,0.2-1.4,0.6-1.6c2.7-1.3,1.7-3.6,1.6-5.7
	c0-2.4,0.2-4.9,0.5-7.3c0-0.3,0.8-0.6,1.2-0.9c0.2,0.4,0.7,0.8,0.7,1.2c0.2,3.7,0.5,7.3,0.5,11C147,51.8,146.1,52.9,145.5,54.2z"/>
<path d="M245.7,119.3c2.6-0.3,5-0.7,7.5-1c0.3,0,0.6-0.1,0.8,0c1,0.6,1.9,1.2,2.9,1.7c-0.8,0.9-1.5,2-2.4,2.5
	c-0.7,0.4-1.9,0.2-2.7-0.1c-2.7-1.1-5.4-0.9-8.1-0.6c-0.3,0-0.7-0.3-1.1-0.5c0.3-0.6,0.5-1.4,1-1.7
	C244,119.4,244.8,119.4,245.7,119.3z"/>
<path d="M139.2,22c0-1.6,0.6-1.9,1.9-0.9c3.2,2.5,2.3,6,2.2,9.2c-0.1,1.9-0.5,3.8-0.9,5.6c-0.1,0.5-0.5,0.9-0.7,1.4
	c-0.4-0.5-1.1-1-1.2-1.5c-0.1-1.4-0.2-2.8,0.1-4.2c0.8-3,0.5-5.8-1-8.6C139.3,22.7,139.3,22.4,139.2,22z"/>
<path d="M154.4,107.9c0.5-0.3,1-0.6,1.4-0.6c0.4,0,1.1,0.2,1.3,0.5c0.2,0.3-0.1,0.9-0.4,1.3c-0.2,0.3-0.5,0.7-0.8,0.8
	c-0.8,0.1-1.6,0.1-2.4,0.1C153.8,109.3,154,108.7,154.4,107.9z"/>
<path d="M183.6,119.3c-0.8-0.2-1.5-0.4-2.3-0.6c0.4-0.6,0.6-1.4,1.1-1.6c0.5-0.2,1.3,0.3,1.8,0.7
	C184.3,117.9,183.8,118.7,183.6,119.3z"/>
<path d="M175.7,119.6c0.7-0.6,1.4-1.2,2.2-1.5c0.1-0.1,0.6,0.8,1,1.3c-0.7,0.4-1.3,0.9-2,1.1C176.6,120.7,176.1,120.1,175.7,119.6z"
	/>
<path d="M161.5,108.6c0.5,0.6,0.9,1.1,1.3,1.5c-0.5,0.4-1,0.9-1.6,1.1c-0.3,0.1-0.8-0.5-1.2-0.8C160.5,109.8,161,109.2,161.5,108.6z
	"/>
<path d="M245.8,111.3c-0.7-0.3-1.4-0.6-1.9-1c-0.2-0.1-0.1-0.9,0-1c0.5-0.3,1.2-0.6,1.6-0.4C246.4,109.4,246.8,110.2,245.8,111.3z"
	/>
<path d="M264.3,75.6c-0.2-0.9-0.2-1.8-0.2-2.7c0.5,0.2,1.1,0.5,1.6,0.7C265.3,74.3,264.9,74.9,264.3,75.6z"/>
<path d="M239.1,110.5c0.1,0.8,0.1,1.5,0,2.1c0,0.1-1.1,0.2-1.4,0c-0.3-0.3-0.6-1.3-0.5-1.5C237.6,110.7,238.4,110.6,239.1,110.5z"/>
<path d="M153.4,86.5c-0.7,0.3-1.4,0.5-2,0.4c-0.1,0-0.4-1-0.3-1.4c0.1-0.3,1-0.8,1.2-0.6C152.8,85.2,153.1,85.8,153.4,86.5z"/>
<path d="M262.9,80.6c-0.6-0.2-1.4-0.5-1.4-0.9c-0.1-0.5,0.4-1.1,0.8-1.6c0.1-0.1,0.9,0.1,0.9,0.1C263.1,79,263,79.8,262.9,80.6z"/>
<path d="M148.8,80.8c0.3,0.6,0.4,1.2,0.3,1.8c0,0.2-0.9,0.6-1,0.5c-0.4-0.4-0.9-1-0.8-1.3C147.3,81.3,148.1,81.1,148.8,80.8z"/>
<path d="M238.4,121.4c-0.4,0.1-0.8,0.1-1.1,0.1c-0.5-0.1-1-0.4-1.5-0.5c0.2-0.2,0.3-0.6,0.6-0.6c0.6-0.1,1.2-0.3,1.7-0.2
	C238.3,120.2,238.4,120.9,238.4,121.4z"/>
</svg>
