<?xml version="1.0" encoding="utf-8"?>
<!-- Generator: Adobe Illustrator 23.0.3, SVG Export Plug-In . SVG Version: 6.00 Build 0)  -->
<svg version="1.1" id="Contours" xmlns="http://www.w3.org/2000/svg" xmlns:xlink="http://www.w3.org/1999/xlink" x="0px" y="0px"
	 viewBox="0 0 635.4 635.4" style="enable-background:new 0 0 635.4 635.4;" xml:space="preserve">
<path d="M550.3,176.1c-7.7,9.4-13.7,20-25.2,25.2c-1.4,0.6-2.9,1.3-4.1,2.2c-0.5,0.4-0.8,1.8-0.5,2.3c0.4,0.5,1.6,0.9,2.3,0.7
	c14.8-5.2,28.8-0.3,42.9,3.4c14.4,3.8,27.9,4.1,37.8-9.8c0.1-0.2,0.4-0.2,0.8-0.2c1.9,0,3.3,1.7,3,3.6c-0.3,2.4-0.6,4.7-1.9,6.2
	c-6.1,6.9-14.9,8.4-23.5,9.2c-5.8,0.6-11.7,0.8-17.6,1c-2,0.1-4-0.7-6.1-0.9c-8.9-1.1-17.7-0.1-26.3,2.1c-1.4,0.3-2.6,1.6-3.9,2.5
	c1.5,0.5,2.9,1.1,4.4,1.4c1.8,0.4,3.7,0.9,5.6,1c2.9,0.2,5.9,0.5,8.6,0c10.7-2.3,20,2,29,6.5c9.4,4.7,28.9,2.6,36.4-4.9
	c2.8-2.8,6.6-4.7,9.3-7.6c1.8-1.9,2.3-5,3.7-7.4c0.5-0.8,1.3-1.5,2.1-2.1c0.9-0.7,2.3-0.5,2.8,0.6c0.6,1,1.1,2,0.8,2.8
	c-1.1,3.6-2.5,7.5-4.8,10.5c-9.6,12.5-22.9,17.3-38.1,18.9c-8.1,0.8-15.8,0.3-23.8-0.8c-8.8-1.3-17.8,0.6-24.7,7.7
	c-1.7,1.8-1.9,2.7,0.3,4c4.7,2.9,9.5,4.4,14.9,2c0.1-0.1,0.3,0,0.5,0c12.1,0.6,24.2-0.9,36.4,1.6c8.9,1.9,18.8,4.5,27.8-0.7
	c3.7-2.1,6.8-5.3,10.2-7.9c1.1-0.9,2.3-1.7,3.4-2.5c0.8-0.6,1.9-0.1,2.1,0.8c0.3,1.8,0.7,3.6,0.1,4.9c-3,6.4-9,9.6-15.4,11.7
	c-6.4,2.2-12.9,2.2-19.8,1.3c-6.7-0.9-13.8-0.2-20.4,1.1c-7.5,1.5-15,3.9-22.1,6.8c-4,1.6-7.5,4.8-10.6,7.8
	c-4.4,4.3-9.5,7.2-15.3,9.2c-3,1-4.2,2.2-1.3,5.7c10.6,12.6,18.2,27.3,25.7,41.8c3.9,7.5,5.7,16.1,5.1,24.8
	c-0.4,6.7-5.1,12.2-12.6,8.4c-0.7-0.3-2.1-0.5-2.3-0.2c-0.5,0.8-1,2.1-0.8,3c3,10.8,6.2,21.4,9.1,32.2c0.9,3.5,1.7,7.2,1.6,10.8
	c-0.1,4.1-3.8,6.3-9.2,6.3c-2.9,0-4.8-0.4-4,4.3c1.2,7,0.8,14.4,0.2,21.6c-0.6,7.1-5.6,7.3-10.8,4.7c-4.6-2.4-4.5-2-5.2,3
	c-1.1,7.3-2.4,14.6-4.8,21.5c-1.4,3.9-5.2,6.8-7.9,10.2c-0.9,1.2-2,2.7-2.1,4.1c-1.1,9.9-1.7,19.9-3.2,29.7
	c-0.8,5.5-4,10.7-4.4,16.1c-0.6,9.7-6.2,16.9-10.7,24.6c-4.5,7.8-10.1,14.9-15.4,22.1c-3.4,4.5-6.8,9.1-10.9,12.8
	c-6.1,5.5-13.6,4.1-16.6-2.1c-1.8-3.7-3.7,0.1-3.8,0.9c-0.6,4.4-3.8,6.4-7,8.3c-10.5,6.2-24.3-1.2-27.1-14.4
	c-0.7-3.4-1.3-6.8-2-10.2c-0.1-0.5-0.6-0.9-0.9-1.4c-0.4,0.4-1,0.7-1.1,1.2c-0.4,1.7-0.7,3.4-1,5.1c-0.8,3.5-0.9,7.3-2.4,10.5
	c-4.4,9.4-14.6,11.2-22.8,4.6c-3.4-2.7-7-4.8-6.9-10.1c0-2.9-2-2.6-3.9-0.7c-3.7,3.6-7.4,7.4-11.6,10.5c-9.7,7.4-20.1,6.9-30.3-1.4
	c-3.7-3.1-7.7-5.9-11.1-9.3c-3.9-3.9-7-8.5-10.7-12.5c-5.8-6.1-11.8-12.1-17.9-17.9c-3.9-3.7-8.1-7-12.2-10.3
	c-5.6-4.5-12.7-4.4-19.2-5.5c-10.4-1.8-21.3-3-31.3,1.9c-6.5,3.2-13.1,6.9-18.6,11.6c-6.2,5.4-11.6,11.9-16.6,18.5
	c-5.2,6.8-9.5,14.3-16.7,19.5c-7.3,5.2-12.8,4-18.3-3.5c-5.1-7.1-6.5-15.2-7.9-23.6c-0.9-5.4,0.2-10.8,1.3-16.3
	c0.1-0.6-0.2-1.5-0.3-2.2c-0.8,0.4-1.9,0.5-2.4,1.1c-1.5,2-3.1,4-4.3,6.2c-4.3,8.4-15.1,10.3-21.6,3.4c-9.2-9.7-13.8-21.5-15.6-34.5
	c-0.2-1.2-1.9-3.3-2.9-3.2c-7.9,0.4-10.2-0.6-13.2-8c-3.5-8.6-7.7-17.1-9.5-26c-1.8-8.9-1-18.3-1.3-27.5c0-0.7,0-1.4,0-2.2
	c-0.8,0.1-1.8,0-2.4,0.4c-8.5,6.4-14.1,5.5-18.8-3.9c-2.2-4.3-3-9.5-3.7-14.4c-1.6-11.6-3-23.2-4-34.8c-0.4-4.6,0.6-9.3,0.4-13.9
	c-0.1-1.5-1.4-3.8-2.7-4.4c-4.7-2.2-5.5-6.4-5.7-10.6c-0.8-13.9,1.2-27.4,5.7-40.8c2.9-8.5,4.1-17.5,8.2-25.6c0.4-0.8,0-2-0.1-3.1
	c-1,0.5-2.3,0.7-3.1,1.4c-1.6,1.6-2.7,3.6-4.3,5.2c-3.4,3.2-8.5,2.5-10.3-1.7c-1.6-3.5-2.6-7.4-3-11.2c-1.4-13.2,1.2-25.9,4.7-38.7
	c1.3-4.8,1.8-10.2-1.6-15.4c-4-6.1-3-13.5-1.1-20.1c4.9-17,10.7-33.7,21.6-48c1.4-1.8,3.2-3.3,4.9-4.9c0.8-0.8,1.6-1.6,2.4-2.5
	c-1-0.5-1.9-1.1-2.9-1.4c-8.9-2.7-18.1-4.6-26.5-8.3c-8.2-3.6-15.7-9-23.2-14c-3.9-2.6-7.4-6-10.5-9.4c-5.6-6.3-5-13.3,1-19.6
	c4.3-4.6,8.3-9.4,12.4-14.3C26.4,93.3,39,88.8,52,84.7C63.7,81.1,75.5,79,87.6,79c12.2,0,24.5,1,36.7,2c4.5,0.4,8.8,2.6,13.3,2.7
	c5,0.1,10.5-0.1,15.1-2c9.8-4.2,20.8-5.2,29.3-12.8c3.6-3.2,8.3-5.6,13-7c6.6-2,13.6-2.6,20.4-4c10.3-2.1,20,3.1,29.9,2.7
	c9.9-0.3,20.2-0.3,28.5-8.4c5.4-5.2,12.8-8.3,19.3-12.3c9.6-6,20.4-6.7,31-5.7c7.7,0.7,15.1,4.3,22.6,6.7c12.7,4.1,25.6,7.5,39,5.8
	c8.9-1.1,17.4-4.3,25.2-9.1c9-5.6,19.1-7.5,29.4-8.8c16-2,30.8,1.8,43.4,11.2c7.7,5.7,14.3,13,20.2,20.6c2.9,3.8,6.6,4.6,10.1,6.1
	c12.6,5.3,23.8,12.2,29.6,25.2c1.2,2.7,0.9,6.3,0.5,9.4c-1.5,10.1-7,18.3-13.7,25.8c-2.1,2.3-1.8,3.9,1.6,4.7
	c9.8,2.3,19.6,4.9,27.9,11.1c1.7,1.3,3.4,4.2,3.2,6c-0.6,4.2-2,8.5-3.9,12.3C556.5,166.4,553.4,171.1,550.3,176.1 M413.5,564.9
	c0.5,0.7,1.1,1.3,1.5,2c3,6.1,5.7,12.4,9.2,18.2c1.2,1.9,4.3,3.1,6.7,3.7c5.2,1.2,7.2-1.5,10.9-8.1c2.4-4.2,5.1-8.3,8.2-12.1
	c1.1-1.4,3.5-1.8,5.3-2.7c0.9,1.9,2.3,3.8,2.6,5.8c0.7,4.1,2.4,7.8,6.2,9c4.2,1.4,6.2-2.2,8.1-5.4c5.2-8.8,10.3-17.8,15.9-26.4
	c4.7-7.3,8.8-14.6,10-23.4c1.1-8.1,3.2-16,4.9-23.9c0.2-1,0-2.1,0.1-3.2c-1.3,0.2-2.9,0.1-3.7,0.8c-7,6.3-15.8,6.8-24.4,7.5
	c-6.8,0.6-13.7-0.8-20.6-0.8c-11.5,0.1-23.1,0.3-34.6,1.1c-4.4,0.3-8.7,2.2-13,3.6c-4,1.3-7.7,3.8-11.7,4.1
	c-8.7,0.6-17.5,0.6-26.1,0c-4.4-0.3-9.9-1-12.8-3.7c-8.1-7.4-16.1-15.2-22.2-24.2c-6.4-9.4-9.3-20.7-15.6-30.5
	c-5.8-9-11.3-18.1-21.6-22c-11.2-4.3-18.6-11.9-23.7-22.3c-1.6-3.2-3.5-6.5-3.9-9.8c-1.3-12,0.3-24,3-35.7
	c3.4-14.8,7.8-29.4,11.8-44.1c0.7-2.5-0.5-4.3-2.7-4.5c-3.2-0.2-6.5,0.1-9.6,0.8c-12,3.1-23.9,7.1-36.6,5
	c-7.1-1.2-13.6-3.8-18.7-9.1c-2.2-2.2-1.3-5.4,1.7-5.7c2.5-0.2,5.6-0.2,7.4,1.1c8.9,6.3,18.6,5.4,26.5,0.4c10.4-6.6,21.6-7.4,33-8.5
	c4.3-0.4,8.7,0.6,13.1,0.8c0.9,0.1,1.9-0.3,2.8-0.4c-0.5-0.9-1-2-1.7-2.7c-0.5-0.5-1.4-0.5-2.1-0.9c-5.3-2.6-11.7-2.6-15.9-7.8
	c-1.1-1.3-4.9-1.2-7.1-0.6c-3.5,1.1-7,2.7-9.9,4.9c-6.7,4.9-14.3,6.9-22.3,6.4c-3.8-0.2-7.5-1.9-11.3-2.9c-7.7-2-14.6-5.6-20.3-11.3
	c-0.7-0.8-1.4-2.9-1-3.2c1-0.8,2.8-1.7,3.8-1.3c2.2,0.7,4.1,2.2,6,3.5c9.3,5.9,19.1,9.3,29.6,3.3c5.8-3.3,11.5-7.1,16.9-11
	c8.7-6.2,20.5-4.1,29-11c1-0.8,1.6-2,2.4-3c-0.9-0.3-1.9-1.1-2.8-0.9c-6.5,0.8-13.2,0.7-19.2,4.3c-3,1.8-6.2,3.6-9.6,4.5
	c-13.5,3.5-27.1,7.2-41,3c-5.3-1.6-10.3-4.1-15.3-6.5c-0.6-0.3-0.9-0.9-1.3-1.7c-0.4-1,0.1-2.2,1.2-2.5c0.5-0.1,0.9-0.2,1.4-0.1
	c2.4,0.4,4.9,1,7.2,2c8.1,3.6,16.2,3,24.6,1.4c9.9-1.9,17.5-8.5,26.5-12.1c4.9-1.9,9.2-5,14.7-5.5c3.9-0.3,8.8,0,11.5-2.2
	c4.7-3.9,10.2-5.3,15.4-7.7c8.9-4.2,18.5-5,27.8-3.8c11.7,1.6,23.2,5,34.7,7.8c4.8,1.2,10.2,1.5,13.2,6.6c0.7,1.1,1.9,2,2.9,2.9
	c0-1.7,0.4-3.6,0-5.1c-1.1-3.5-2.7-6.9-3.9-10.4c-5.1-14.9-9.5-30-15.2-44.7c-4.2-10.9-9.4-21.5-15-31.7c-3.4-6.2-8.4-11.6-13.1-17
	c-0.8-1-5.1-0.8-5.5,0c-5.3,10.5-16.1,14.7-24.6,21.5c-6.6,5.3-14.6,7.4-22.7,9c-11.7,2.4-23.3,5.7-35.1,6.8
	c-16.5,1.5-33.1,0.7-48.5-6.9c-1.9-0.9-4.5-4.3-4-5.6c2-5.6,2.7-12.1,8.1-16.2c1.7-1.3,3-3.1,4.6-4.5c5.8-4.9,11-10.7,17.6-14.2
	c9.6-5.1,20.3-8.1,30.2-12.8c9-4.3,18.3-4.3,27.5-3.4c9.3,1,18.3,3.9,27.5,5.9c0.6,0.1,1.6,0.2,1.7-0.1c0.3-0.6,0.4-1.6,0.1-2
	c-0.9-0.9-2-1.6-3.1-2.2c-5.7-2.7-11.2-6.2-17.3-7.7c-9-2.2-18.3-4-27.5-3.9c-8.5,0.1-17.1,2.6-25.4,4.8c-3.8,1-5.3-0.9-6.1-3.1
	c-1-2.8,0.9-4.9,4.6-5.2c6.6-0.5,13.2-1.7,19.6-3.4c12-3.2,23.7-1.7,34.9,2.3c12.4,4.5,23.6,11,32.9,20.7c6.4,6.7,13.2,13,19.6,19.7
	c10.6,11.2,17.9,24.4,23.1,38.9c4.8,13.3,10.2,26.5,14.7,39.9c3,9,5,18.3,7.6,27.4c1,3.4,2,6.9,6.5,7.6c6,1,12.1,2.1,17.8,4.1
	c4.4,1.6,7.3-0.1,10.3-2.4c11.9-9.2,24.7-16.3,39.7-18.9c1-0.2,2.6-2.7,2.3-3.5c-2.7-6.7-5.5-13.4-8.8-19.9c-1.5-2.9-3.8-5.5-5.9-8
	c-8.3-9.4-16.2-19.3-25.2-28c-9-8.7-19.3-16.1-28.8-24.3c-1.2-1-1.5-3-2.2-4.5c2.2-0.4,4.6-1.5,6.4-0.9c2.4,0.8,4.7,2.6,6.6,4.5
	c7,6.6,13,14.3,21.4,19.4c4.3,2.6,7.3,3.3,10-0.2c1.4-1.8,3-3.3,5-4.4c9.8-5.2,19.3-11,29.6-14.9c9.1-3.5,18.9-5.2,28.5-7.1
	c6-1.2,12.4-0.8,18.3-2.3c4.2-1.1,8.1-1.4,12.3-0.8c2,0.3,4.1,0.9,6.1,0.9c1,0,2.1-1.1,3.1-1.7c-0.9-0.7-1.7-2.1-2.6-2.2
	c-11.9-1.3-22.5-10.2-35.3-6.1c-0.2,0-0.4,0.1-0.5,0c-0.8-0.5-1.6-0.9-2.4-1.4c0.6-0.5,1-1.2,1.7-1.6c3.6-2.4,7.7-4.4,10.9-7.3
	c8-7.4,14.5-15.9,17.3-26.8c0.2-0.7,0.3-2.1,0.2-2.1c-1-0.3-2.4-0.7-3-0.3c-1.3,1.1-2.3,2.6-3.2,4.1c-1.9,3-3.1,6.6-5.4,9.2
	c-5.2,6.1-11.2,11.6-16.4,17.7c-9.2,10.7-21.7,15.3-34.5,19.3c-5.1,1.6-10.5,3.1-15.7,3c-8.6-0.2-17.2-1.8-25.8-2.8
	c-2.9-0.3-5.9-0.2-8.5-1.1c-2.6-0.9-4.7-2.5-4.8-6.3c-0.2-4.4,2.6-7,4.2-10.4c3.1-6.4,7.7-11.4,13.6-15.2
	c8.8-5.6,17.5-11.6,26.7-16.5c12-6.5,24.4-12.7,38.8-11.3c9.3,0.9,18.5,2.8,27.7,4.1c1.2,0.2,2.5-0.2,3.8-0.3
	c-0.6-0.9-1.1-2.1-1.9-2.8c-4.9-4.1-9.6-8.7-15.1-11.9c-5.6-3.2-11.8-6.1-18.8-5.3c-12,1.3-23.7,4-34.4,10
	c-8,4.5-16.1,8.6-24.1,13.1c-2.2,1.2-4,3.4-6.3,4.2c-1.5,0.5-3.6-0.7-5.4-1.1c0.7-1.4,1-3,2-4.1c1.5-1.6,3.4-2.9,5.3-4
	c10.5-6.1,20.7-12.7,31.6-17.8c7.1-3.3,15.2-4.3,22.9-6.2c1.5-0.4,3-0.5,4.5-0.8c-0.9-1.8-1.4-4.1-2.8-5.3c-1.4-1.2-3.7-1.6-5.6-1.9
	c-4.4-0.8-8.8-1.3-13.2-2.1c-6.6-1.2-13.2-3.6-19.9-3.7c-6.2-0.1-12.4,2.1-18.6,3.2c-5.5,0.9-10.9,2-16.5,2.3
	c-1.8,0.1-3.7-2.1-5.5-3.2c1.8-1.2,3.6-3.4,5.4-3.4c6.5,0.2,11.6-2.8,16.9-5.8c1.7-1,3.6-1.8,5.5-2.4c6-1.7,12.1-3.3,18.2-5
	c0.7-0.2,1.4-0.8,2-1.2c-0.7-0.2-1.4-0.7-2.1-0.7c-5.2,0.3-10.4,0.5-15.6,1c-11,1.1-21.3,4.1-31.3,8.9c-12.7,6-25.8,10.3-40.3,8.2
	c-9.5-1.3-18.9-2.8-28.1-5.9c-6.6-2.3-13.2-5-20-6c-16.6-2.6-30.4,5.2-43.8,13.5c-0.7,0.4-1.1,1.4-1.6,2.1c1,0.4,2.1,1.3,3,1.1
	c3.2-0.5,6.4-1.6,9.6-2.2c6.4-1.2,12.5-1.7,18.3,2.7c3.9,2.9,8.6,5.6,13.3,6.3c9.7,1.5,19.5,1.9,29.3,2.1c7.1,0.2,14.2-0.7,21.3-0.8
	c1.3,0,2.7,1.1,4,1.8c-1.1,1-2.1,2.7-3.4,2.9c-8.7,1.6-17.5,2.8-26.3,4.2c-5.1,0.8-10.3,1.5-15.4,2.6c-9.4,2.1-18.5,1.6-27.6-1.7
	c-3.9-1.4-8.2-2.9-12.3-2.7c-10.3,0.3-20-1.9-29.9-4.1c-4.5-1-9.2-1.5-13.9-2c-5.8-0.6-11.5-1.2-17.3-1.6c-4-0.3-8-0.7-12-0.4
	c-5.9,0.4-11.8,0.9-17.7,2c-3.7,0.7-7.4,2.2-10.8,4c-4.6,2.4-8.6,5.6-13.2,8c-5.2,2.6-10.8,4.5-16.1,6.9c-8.6,4-17.7,4.6-26.9,3.9
	c-13.6-1.1-27.2-3.4-40.9-3.7c-11.1-0.2-22.4,0.8-33.2,3c-9.2,1.9-18.8,5.1-26.6,10.2c-9.1,5.9-17.6,13.5-23.2,23.4
	c-2.2,3.8-3.1,7-0.4,10.7c0.7,0.9,1.6,2.3,2.4,2.3c0.8,0,1.9-1.3,2.5-2.2c1.2-1.7,2-3.5,3.1-5.2c5.1-7.8,7.3-6.5,14.6-8
	c2.3-0.5,11.2-1,13.3-0.3c5.4,1.7,10.1,0.5,15.1-1.6c6.2-2.7,12.4-3,19.3-0.9c7.9,2.4,14.6,6.8,21.9,10c8.3,3.6,9.8,3.7,16.7-2
	c1.3-1.1,2.8-2.1,4.4-2.5c1.6-0.4,4.7-0.6,4.9,0c0.9,2.3,3.9,3.9,1.8,7.5c-5.4,9.1-14.2,12.3-23.5,13.1c-12,1.1-24-1-35.9-3.3
	c-6.9-1.3-14.4-0.3-21.4,0.7c-5.3,0.8-5.9,4.2-1.8,7.6c1.2,1,2.6,1.8,4.1,2.1c4.1,1,8.5,1.1,12.4,2.6c11,4.2,22.3,6.6,33.9,7.3
	c10.8,0.7,21.8,0.2,32.7,0.1c2,0,4.1-1,6.1-0.8c1.2,0.1,2.3,1.5,3.5,2.4c-0.9,0.6-1.8,1.3-2.8,1.7c-2.8,1.3-5.5,2.8-8.5,3.7
	c-5.2,1.5-6.1,2.5-3.1,7.1c3.7,5.7,5.2,11.6,4.3,18.2c-0.6,4.4-2.1,8.8-1.8,13.2c0.5,9.8-2.3,18.9-5,28c-2.6,8.7-3.3,17.2,0.5,26
	c2.3,5.2,3.4,11,4.2,16.7c0.7,4.8-0.7,10.1,0.7,14.6c1.4,4.2,0.6,7.5-0.7,11c-0.3,0.9-1.7,2.2-2.5,2.1c-1.2-0.1-3-1-3.2-1.9
	c-1-3.7-1.5-7.5-2.1-11.3c-0.4-2.4-0.5-4.8-1-7.1c-3.2-14.2-12.5-26.5-13.3-41.4c-0.4-6.7-0.5-13.6,1-20.1c2.6-10.8,4.1-21.6,1-32.2
	c-1.8-6.3-5.5-12.2-9.4-17.5c-1.1-1.5-5.8-0.3-8.8-0.4c-0.2,0-0.3,0-0.5,0c-4.7-0.3-9.4-0.8-14.1-0.9c-0.9,0-2.5,0.7-2.8,1.4
	c-2.9,8-9.7,13.5-12.4,21.9c-3.8,11.8-8.8,23-7.7,35.8c0.1,1,0.6,1.9,0.9,2.9c1-0.6,2.2-1.1,3-1.9c0.6-0.6,0.6-1.7,1.1-2.5
	c3.4-6.1,6.5-12.4,10.3-18.2c1.5-2.2,4.4-3.5,6.9-4.9c0.4-0.2,2.8,1.4,2.6,1.8c-0.8,2.8-1.5,5.8-3,8.2
	c-7.6,11.9-14.6,24.1-19.4,37.5c-2.8,7.8-5.5,15.7-4.3,24.1c0.4,2.7,2.7,5.2,4.2,7.7c1.8-1.1,3.9-2,5.5-3.3c2.1-1.7,3.6-4,5.8-5.5
	c1-0.8,3-0.9,4.3-0.4c0.8,0.3,1.8,2.3,1.5,3.3c-3.6,13.8-7.5,27.6-11.2,41.3c-2.6,9.6-5.2,19.1-4.3,29.2c0.2,2-0.9,4.1-0.8,6.1
	c0.1,1.8,0.9,3.6,1.4,5.4c1.2-1.3,2.7-2.4,3.5-3.9c1.5-3.2,3.3-5.8,7.1-5.9c0.4,0,1.4,1.4,1.3,2c-1.7,7.3-4.6,14.5-5.1,21.8
	c-1,15.5-0.6,31,2.9,46.2c1,4.3,3.3,8.4,5.7,12.1c2.1,3.1,4.7,3.2,6.4-0.9c1.4-3.4,2.9-6.9,4.8-10c0.8-1.2,3-2,4.6-2.1
	c0.7,0,2,2.1,2.2,3.4c0.2,1.5-0.4,3.1-0.6,4.7c-1.4,7.7-3.5,15.4-4.1,23.3c-0.6,9.5,1.7,18.9,4.8,27.9c1.7,4.9,3.6,10,6.5,14.3
	c2.7,4,6.8,2.9,8.5-1.7c1.3-3.5,2-7.2,3.1-10.7c0.6-2.2,0.9-4.8,2.2-6.5c0.9-1.2,3.3-1.2,5.1-1.7c0.2,0.8,0.9,1.8,0.6,2.5
	c-4,11.6-3.9,23.2-0.9,35c0.9,3.3,1,7.2,3,9.7c4.1,5.2,9,9.8,14,14.2c6.2,5.4,10.9,4.6,14.6-3.1c1.9-3.9,5.4-7.1,8.3-10.5
	c0.7-0.8,2-0.9,3.1-1.3c0.1,1.3,0.4,2.5,0.4,3.8c-0.4,8-1.6,16-1.1,23.9c0.5,7.2,2.5,14.4,7,20.5c8,10.9,10.2,8.4,17.3,0.1
	c6.1-7.2,12.5-13.1,20-18.7c2.3-1.7,11.9-8.3,14.5-10.1c8.5-6.1,18.6-6.6,28.7-6.6c7.2,0,14.4,2.1,21.5,3.4
	c4.2,0.8,6.8,1.2,11.1,3.1c2.3,1,4.4,2.2,6.4,3.7c1.2,0.9,2.4,1.7,3.5,2.6c5.2,4,11.2,7.4,15.2,12.3c5.9,7.2,13.7,11.2,20.7,16.7
	c2.2,1.7,4.1,3.7,6.1,5.7c5.9,6.2,16.9,9.7,25.2,4.3c5.8-3.7,9.7-9,12.7-15.1c1-2.1,3.8-4.8,5.5-4.6c2.5,0.3,5.5,2.5,6.7,4.7
	c2.9,5.3,6.8,9,12.4,11.1c5.5,2.1,8.5,1,10.3-4.6c1.1-3.5,2.1-7.1,3-10.8C407.1,562.6,409.2,561.9,413.5,564.9 M402,368.4
	c0-1.2,0-2.3,0-3.5c0-5.4,0.4-10.8-0.1-16.2c-0.4-4.5-1.8-8.9-2.9-13.3c-0.2-0.9-0.8-1.7-1.2-2.6c-0.9,0.9-2.6,1.6-2.7,2.6
	c-1.9,15.7-10.2,28.8-16.9,42.5c-1.1,2.3-3.7,5.6-5.4,5.5c-3.4-0.3-2.9-4-2.9-6.8c0-0.4-0.6-0.7-0.8-1.2
	c-4.1-13.2-11.1-25.5-9.5-40.2c0.3-2.7,0.3-4,0.9-7.7c-0.2-1.7,0-2.2,0.3-3.2c-1.1-0.1-0.8,0-2,0c-0.9,0-1.9,0.3-2.8,0.4
	c-3.6,0.3-5.1,1.9-5.2,5.9c-0.2,7.7-0.9,15.5-2,23.2c-1.1,8.2-1.9,16.2,0,24.4c1.7,7.3,7,13.8,12.9,13.4c9.1-0.5,16.3,2.9,23.1,8.5
	c6.1,5.1,12.4,10,20.2,12.8c6.6,2.4,12.4,6.6,15.1,13.6c0.7,1.9,1.8,4.3,1.2,6c-1.1,3.4-5,2.8-7.3-1.5c-3.2-5.8-7.7-10.4-13.9-12.2
	c-6.4-1.8-11.4-5.4-16-9.6c-6.9-6.2-13.9-11-24.1-9.8c-5.4,0.6-10-3.1-13.1-7.6c-5.1-7.7-6.4-16.5-6-25.5c0.4-8.2,0.9-16.5,2.1-24.6
	c0.6-3.6,0.3-6.7,0.8-10.8c0.1-1,0.8-2,0.1-2.7c-0.2-0.2-0.3-0.3-0.4-0.3c-4,0.3-6.6,1.2-10.6,1.1c-6.6-0.2-13.4-0.3-19.8-1.8
	c-6.8-1.7-13.2-5.1-19.9-7.3c-1-0.3-3.8,1.9-4.2,3.4c-2.5,10.2-4.6,20.4-6.9,30.7c-2.8,12.7-6.2,25.2-6.4,38.4
	c-0.1,6,3.5,7.7,7.8,9.6c3.9,1.8,5.6-1,7.6-3.1c4.6-5,10.4-5.4,15.8-2.9c4.2,2,8,5.8,7.9,11.3c-0.1,3.8,2.1,3.1,4.1,2.4
	c7.9-2.6,11.7-0.4,13,8.3c0.5,3.4,1.3,6.1,6.2,6.1c2.3,0,5.3,3.2,6.6,5.6c1.3,2.3,0.6,5.7,1.3,8.4c0.4,1.7,1.6,4.2,2.8,4.4
	c5.2,0.9,6.6,4.8,8.1,8.8c0.4,0.9,1.3,1.6,1.9,2.4c0.7-0.8,1.5-1.5,2-2.4c2.1-4.1,3.9-8.4,6.1-12.5c2.8-5.3,6.7-6.1,10.1-1.3
	c3.6,5.2,6.5,10.9,8.7,16.8c2.1,5.7,2.8,11.8,4.2,17.8c0.2,0.9,0.9,1.6,1.4,2.4c0.5-0.7,1.4-1.4,1.5-2.2c0.6-5.8,2.4-11.2,7-15.1
	c1.9-1.6,4.3-4.6,5.9-4.3c2.6,0.6,5.7,2.9,7,5.3c1.8,3.3,2.2,7.4,3.2,11.2c0.4,1.3,0.8,2.7,1.3,4c0.9-1.3,2-2.5,2.7-3.9
	c0.3-0.7-0.1-1.7,0.1-2.5c1.6-6.1,3.3-12.3,9.6-15.3c1.1-0.5,3.8-0.1,4.2,0.6c1.4,2.7,2.2,5.8,3.2,8.7c0.5,1.6,1.1,3.1,1.7,4.7
	c0.8-1.4,1.5-2.7,2.3-4.1c1.7-3.1,2.5-7.2,7.2-6.9c4.6,0.4,6,3.5,5.8,7.7c0,0.7,0.2,1.6,0.5,2.3c0.4,1,1,2,1.6,3c0.6-1,1.6-2,1.8-3
	c1.6-11.2,4.1-22,9.5-32.1c0.8-1.4,0-4.8-1.2-5.9c-6.7-5.6-13.5-11.2-20.9-15.9c-6.2-4-13.4-6.4-19.7-10.2
	c-4.1-2.4-7.4-6.1-11.4-8.8C406.3,386.5,403,378.6,402,368.4 M507,336.4c-0.3,4-0.2,8.2-1.2,12c-0.5,2.1-2.6,4.2-4.6,5.2
	c-0.7,0.4-3.7-2-4.5-3.7c-4.1-7.9-7.8-16.1-11.7-24.1c-0.5-1-1.3-1.9-2-2.9c-0.7,1.1-1.7,2.2-1.9,3.4c-0.8,3.7-1.2,7.5-2.1,11.1
	c-0.9,3.7-4.1,4.2-6.4,2.3c-4.2-3.6-7.7-8-11.6-12c-0.7-0.7-1.7-1.1-2.6-1.7c-0.5,1-1.3,1.9-1.3,2.9c0,1.5,0.7,3,0.9,4.6
	c1,11.9,1.5,23.9,3.2,35.7c1.8,12.6,7,23.7,15.2,33.7c6.3,7.7,12,16.1,10.7,27c-0.2,1.3,0.1,2.9,0.8,4.2c2.8,5.7,6.4,11,8.7,16.9
	c2.7,6.9,4.3,14.2,6.6,21.3c0.4,1.3,1.3,3.2,2.3,3.4c2.3,0.5,4.8,0.5,7.1,0c1.4-0.3,3.2-1.5,3.7-2.7c1.6-3.9,3.7-7.9,3.7-11.9
	c-0.1-10.9-0.6-21.9-2.1-32.6c-0.4-3,0.3-4,1.8-5.6c1.2,1.3,2.6,2.4,3.5,3.9c3.7,6.4,7.3,13,11,19.4c0.4,0.8,1.8,1,2.7,1.5
	c0.4-1,1.3-2,1.3-2.9c-0.2-5.3-0.4-10.5-1-15.8c-0.2-2.3-1.3-4.5-1.9-6.7c-1.8-5.8-3.3-11.6-5.5-17.2c-0.7-1.8-2.4-3.1,0-4.1
	c1.4-0.6,3.9-0.7,4.9,0.1c1.9,1.5,3,4,4.5,6c1.9,2.7,3.8,5.5,6,8c0.6,0.7,2.4,0.5,3.6,0.5c0.1,0,0.5-1.5,0.4-2.2
	c-1.9-9-3.3-18.2-6-27c-3.5-11.3-8.2-22.3-12.1-33.5c-0.6-1.7,0.2-3.8,0.3-5.7c1.8,0.5,3.7,1,5.4,1.7c0.6,0.3,1,1.2,1.5,1.8
	c3.7,4.3,7.5,8.5,11.2,12.8c1.8,2.1,3.5,1.4,3.7-0.8c0.2-4,0.4-8.4-0.8-12.1c-5.4-17-14.9-32-24.9-46.6c-3.6-5.2-9.9-8.6-15.2-12.5
	c-2-1.5-4.9-1.6-4.9,1.8c0,3.7,1.3,7.4,1.9,11.1C510.9,315,510.8,325.3,507,336.4 M327.5,289.9c-1.2,0.3-2.4,0.6-3.6,1
	c-8.4,3-14.4,8.9-17.3,17.2c-0.8,2.3,0,6.8,1.7,8.2c5.3,4.2,11.9,7.3,18.6,6.4c9.5-1.3,18.8-4.3,28.1-6.8c9.4-2.5,18.8-5.3,28.2-8
	c1.3-0.4,2.4-1.5,3.6-2.2c-1-0.8-1.9-2-3.1-2.4c-6.7-2.2-10.8-7.2-13.2-13.3c-5.3-13.5-3.5-21.3,11.6-30c0.7-0.4,1.2-1,1.7-1.5
	c-0.7-0.7-1.3-1.7-2.1-2.1c-2.8-1.2-5.7-2.5-8.6-3.3c-9-2.5-18-5.1-27.1-6.9c-11.1-2.2-22.3-2.3-33.2,1.1c-4.3,1.4-8.2,4.5-11.8,7.5
	c-1.2,1-0.5,4.1-0.7,6.2c1.7,0,3.5,0.2,5.1-0.1c1.6-0.3,3.1-1.7,4.7-1.8c9.5-0.8,19.1-1.9,28.7-1.8c4.5,0,9,2.1,13.3,3.9
	c1.8,0.8,3,3.1,4.5,4.6c-2.3,0.4-5,1.8-6.9,1.1c-10-3.8-20.1-3-30.4-2c-10.7,1-18.1,7-25.3,13.7c-2.9,2.7-2.6,5.8-0.2,8.9
	c3.1,3.9,12.4,6,17.2,2.4c9.6-7.2,20.9-9.4,32.1-11.8c2.2-0.5,4.4-1,6.6-0.9c1.1,0.1,2.2,1.7,3.2,2.6c-0.9,0.8-1.6,1.9-2.6,2.2
	C343,284.4,335.5,286.9,327.5,289.9 M406.5,306.9c5.7,1.3,11.3,2.7,17,3.9c0.9,0.2,2-0.6,3-1c-0.5-0.8-0.9-1.8-1.6-2.4
	c-3-2.4-6.3-4.5-9-7.2c-4.1-4-8.7-6-14.4-6.5c-2-0.2-3.7-2.5-5.6-3.8c1.5-1.3,2.9-2.8,4.6-3.9c0.7-0.5,2-0.2,2.9-0.1
	c9.8,1.1,19.1,3.2,26.9,9.9c2.1,1.8,3.9,2,5.6-1.2c7.3-13.3,17.6-22.8,33.4-24.5c1.7-0.2,3.6,1.4,5.5,2.2c-1.1,1.2-2,2.9-3.3,3.4
	c-5.7,1.8-10.2,5.2-13.1,10.3c-3.3,5.9-6.4,12-9.4,18.1c-0.3,0.7,0.1,1.7,0.2,2.6c0.8-0.3,1.7-0.4,2.4-0.9c3.4-2.3,6.9-4.5,10-7.1
	c10-8.4,21.2-15.9,23-30.8c0.7-5.6-1.3-9.2-4.9-12.7c-3.8-3.7-8-7-13.6-4.9c-7.9,3-15.8,6.2-23.2,10.3c-5.5,3.1-9.9,8-15.1,11.6
	c-1.5,1.1-4.3,0.9-6.4,0.5c-2.8-0.6-5.5-2.6-8.3-2.8c-9.2-0.4-18.4-0.2-27.6-0.1c-4.8,0.1-9.2,3.6-9.6,7.6c-0.5,5.7,1,10.8,5,14.9
	C387.9,299.4,396.6,303.3,406.5,306.9 M492,266.4c-0.3,2.5,0.1,5.5-1.1,7.5c-3.3,5.3-2.1,7.3,4,7.5c7.8,0.2,15.7,1.2,23.5,1.5
	c4.6,0.1,9.2-1.1,13.7-0.8c6.2,0.5,12.1-6.9,11.8-12.7c-0.4-6.7-10.1-12.5-16.5-10.4c-2.8,0.9-5.8,1.4-8.7,1.9
	c-0.7,0.1-2-0.6-2.4-1.2c-0.3-0.5,0.3-1.7,0.9-2.3c0.8-0.9,1.9-1.9,3-2.3c8.2-3.3,13.5-8.7,15.3-17.8c0.8-3.9-0.8-4.6-3.5-5.2
	c-5.8-1.3-10.8,0.5-15.6,3.9c-1.1,0.8-3.1,0.3-4.7,0.3c0.1-1.8-0.3-3.8,0.4-5.2c0.9-1.8,2.8-3.2,4.1-4.8c1.7-2,3.6-3.8,4.9-6
	c1.9-3.4-1.2-9-4.6-8.1c-4.1,1.1-8.5,2.5-11.9,4.9c-7,5.2-13.3,11.3-20.1,16.8c-5.5,4.5-5.7,9.8,0,14.2
	C490.3,252.4,493.2,258,492,266.4 M318.5,442.9c0.5,0.8,0.9,1.6,1.4,2.4c5.7,9.5,11.4,18.9,17.1,28.4c2.8,4.7,5.4,9.4,8.4,14
	c2,3.1,4.1,6.1,6.7,8.7c3.4,3.4,6.8,7.8,11.1,9.2c13,4.1,26.3,3.4,39-1.5c16.4-6.3,33.4-5.8,50.3-5c11.7,0.5,23.2,2.7,34.5-2.2
	c1.3-0.5,2.7-0.7,4.1-1c5.7-1.4,10.6-4.1,14.2-8.9c0.6-0.7-0.2-2.4-0.3-3.7c-0.9,0.3-1.9,0.5-2.8,0.9c-4.4,2.2-8.6,5.1-13.3,6.4
	c-3.9,1.1-8.4,0.3-12.6,0.2c-6.4-0.2-13,0.3-19-1.2c-10.7-2.6-21.5-3.2-32.3-2.6c-5.3,0.3-10.5,1.8-15.7,3.1
	c-6.9,1.7-13.6,4.8-20.6,5.5c-10.9,1.1-20.7-4.1-30.5-8.1c-8.6-3.6-12.2-11.9-17-18.8c-7.1-10.4-13.4-21.3-21.6-31.1
	c-9.5-11.2-20.3-20.5-33-27.6c-1.2-0.7-2.9-0.6-4.4-0.9c0.3,1.7,0.1,3.6,0.9,5c3.5,6.2,9.3,10.2,15.5,12.5
	C307.2,429.8,312.8,435.7,318.5,442.9 M469.5,409.9c-7-5.7-14.1-11.2-20.9-17.1c-3.8-3.3-7.6-7-10.5-11.1c-8.3-11.4-9.5-25-11-38.3
	c-0.5-4.6,0-9.3-0.2-14c0-0.9-1.1-1.7-1.7-2.6c-0.7,0.7-1.9,1.3-2.1,2.2c-0.6,2.3-0.9,4.7-1.1,7.1c-0.9,9.8-4.2,18.5-10.7,26.1
	c-1.4,1.6-2.4,4.4-2.2,6.5c0.8,8.4,4.9,15.5,12,20.1c7.3,4.7,15.2,8.4,22.8,12.5c10.9,6,22.2,11.4,28.9,22.8
	c0.6,1.1,2.1,1.6,3.1,2.4c0.2-1.6,0.9-3.5,0.4-4.7C474.5,417.9,472.2,414.2,469.5,409.9 M251.5,166.9c2.5,0.8,5,1.7,7.5,2.4
	c9.8,2.9,22.5-3.9,28-10.3c4.2-4.9,5.2-11.2,6-17.4c0.6-5.4-1.5-10.8-5.6-13.3c-3.3-2.1-8.9-1.7-13.1-0.9
	c-7.7,1.5-15.2,4.1-22.7,6.6c-2,0.7-4.3,2.4-5.1,4.2C242.6,146.4,242.5,160.5,251.5,166.9 M478,438.4c-4.8-1.1-6.9,2.4-8.5,5.7
	c-1.6,3.1-2.6,6.6-3.4,10c-1.8,8.1-3.5,16.2-4.9,24.4c-0.2,0.9,1.7,3.2,2.8,3.2c8,0.6,16,0.9,24,1.1c5.1,0.1,7.4-2.4,7-7.5
	c-0.8-8.3-1.3-16.6-6.9-23.6C484.7,447.7,481.7,443.2,478,438.4 M502.5,166.9c-3.2-6.7-5.6-7.7-12.3-4.7c-0.7,0.3-1.5,0.4-2.2,0.7
	c-7.6,3-15.2,5.9-22.7,9.1c-3.9,1.7-6.5,4.9-5.1,9.3c1,3.5,2.5,7.2,4.9,9.9c6.4,7.1,18.5,7.2,26.6,3.5
	C500.8,190.5,504.7,179.3,502.5,166.9 M309.5,159.9c3-2.3,6.4-4.4,9-7.1c4-4.1,7.6-8.7,11.2-13.3c0.3-0.3-0.3-2-0.9-2.3
	c-3.5-1.7-6.9-3.5-10.6-4.6c-5.5-1.6-11.2-2.7-16.9-3.7c-0.9-0.2-3.2,2.2-3.2,2.3c3.4,5,1.1,10.3,0.7,15.3
	c-0.6,7.3-2.3,14.4-8.5,19.3c-1.1,0.8-1.9,1.9-2.9,2.9c1.7,0,3.7,0.6,5.1,0C298.2,166.2,303.6,163.2,309.5,159.9 M487.5,132.9
	c8-6.9,9.1-19.7,5.5-29c-1.4-3.6-5.5-5.5-9.3-4.1c-5.2,1.9-10.5,3.7-15.3,6.4c-3.6,2-7.7,4.9-9.1,8.4c-1.6,4.2-2.3,9.7,0.7,14
	c2.6,3.7,5.6,8.8,9.3,9.8C475.4,139.9,481.7,137.1,487.5,132.9 M361.5,469.9c-0.5,1.1-1.4,2.3-1.3,3.4c0.3,2.7,0.4,7,2,7.8
	c5.4,2.9,11.3,4.9,17.2,6.5c1.1,0.3,4-2,4.4-3.6c0.7-2.7,0.3-5.7,0.2-8.6c-0.6-11.5-5-21.7-10-31.8c-0.2-0.4-1.2-0.9-1.4-0.8
	c-0.8,0.5-1.7,1.2-2.1,2c-1.9,4-4,8-5.4,12.2C363.8,461.1,363,465.3,361.5,469.9 M227.5,147.9c-4.9,4.9-9.8,9.8-14.7,14.7
	c-6.3,6.3-4,6.7,1.4,9c0.4,0.2,0.9,0.2,1.3,0.4c10.3,5.1,21.4,3.8,32.3,3.9c0.4,0,0.8-0.4,1.2-0.6c-0.3-0.5-0.5-1.1-0.9-1.4
	c-11-6.5-12.1-17-11.4-28.2c0-0.7,0-1.7-0.4-2c-0.6-0.4-1.7-0.5-2.3-0.2C231.9,144.7,230,146.1,227.5,147.9 M538.5,160.9
	c1.4-3.6,0.3-5.2-3.6-5c-7.6,0.4-15.1-1.4-22.7,0.8c-4.7,1.4-6.5,2.7-4,7c4.8,8.5,1,16.5-1.1,24.6c-0.3,1.3-0.8,2.6-1.2,3.9
	c1.6-0.4,3.3-0.6,4.8-1.4c1-0.6,1.6-2,2.5-2.9c3.5-3.7,7.1-7.3,10.6-11C528.5,171.8,533.3,166.6,538.5,160.9 M372.5,359.9
	c0.2,1.6,0.1,3.3,0.6,4.8c0.5,1.8,1.5,3.4,2.3,5.1c0.6-1.3,1.1-2.6,1.7-3.9c0.3-0.7,0.7-1.4,1-2.1c3.6-9.3,7.3-18.6,10.7-28
	c1.6-4.5-0.1-7.9-3.7-8.8c-2.9-0.6-5.8-1.6-8.7-1.9c-1.7-0.1-4.9,0.7-5,1.5c-1.1,6-2.1,12.1-2,18.1
	C369.3,349.6,371,354.5,372.5,359.9 M453,349.4c-0.4-1.4-0.7-2.7-1.1-4.1c-0.6,0.3-1.4,0.4-1.7,0.9c-6.9,8.6-6.8,8.6-13,0.4
	c-0.6-0.8-1.8-1.2-2.7-1.8c-0.2,1.1-0.7,2.2-0.5,3.3c0.5,2.9,1.6,5.8,1.9,8.7c1.6,13.6,9.2,23.4,19.3,31.8c0.9,0.7,2.2,0.8,3.4,1.1
	c0-1.2,0.4-2.7-0.1-3.7C453.1,374.7,453.4,362.5,453,349.4 M502,330.4c0.7-3.4,2-6.8,1.9-10.1c-0.3-7.9-1.1-15.7-2-23.6
	c-0.1-0.6-2.9-1.8-3.6-1.3c-3.3,2.2-6.6,4.6-9.4,7.4c-1.2,1.1-2.1,3.6-1.7,5.1c1.7,7.2,3.7,14.4,5.9,21.4c1.4,4.4,3.2,8.6,5,12.9
	c0.3,0.7,1.4,1.2,2.1,1.7c0.3-0.8,0.7-1.6,0.8-2.5C501.4,338.1,501.7,334.7,502,330.4 M431,135.4c-1,0.7-2.1,1.3-3.1,2.1
	c-1,0.8-1.9,1.8-2.9,2.7c1.2,0.6,2.4,1.5,3.7,1.6c5.5,0.5,11,0.6,16.5,1.1c4.4,0.4,8.8,1.3,13.2,1.8c1,0.1,2-0.5,3-0.7
	c-0.4-0.8-0.7-1.8-1.3-2.4c-5.5-6.2-9.2-12.9-7.2-21.6c0.2-0.7-0.4-2-1-2.5c-0.6-0.5-2-0.7-2.6-0.3
	C442.6,122.2,435.1,126.6,431,135.4 M477.5,212.9c3-0.3,6.1-0.3,9.1-1.1c19.7-4.9,36.6-14.8,49.9-30.1c6.3-7.2,11.3-15.6,16.6-23.5
	c0.8-1.2,0.7-3.2,1-4.8c-1.7,0.9-3.8,1.4-4.9,2.8c-2,2.5-3.2,5.7-5.2,8.3c-9.8,12.1-19.7,23.7-33.5,31.9
	c-12,7.2-24.2,13.2-38.1,15.6c-1.2,0.2-2.2,1.3-3.3,2c1.1,0,2.3,0.1,3.4,0C473.9,213.7,475.2,213.2,477.5,212.9 M519,98.4
	c-6.4-3.8-13.7-2.2-20.5-3.4c-1.6-0.3-2.8,0.2-1.3,2.8c5.8,9.6,7.2,19.7,1.9,30.2c-0.5,0.9,0,2.4,0.1,3.6c1-0.5,2.4-0.7,3.1-1.5
	c6-7.1,12.1-14.2,17.6-21.7C521.8,105.7,524.3,101.9,519,98.4 M392.5,315.9c-5.1,0-10.3,0-15.4,0c-0.7,0-1.4,0.5-2.1,0.7
	c0.3,0.4,0.6,1.1,1,1.2c2.4,0.8,4.7,1.7,7.1,2c6.7,0.8,13.4,1.8,20.1,2c8.8,0.3,17.7,0,26.5-0.2c1.8,0,3.7-0.7,5.4-1.4
	c1-0.4,1.8-1.4,2.6-2.1c-1-0.4-2-1.1-3-1.2c-6.9-0.7-13.7-1.4-20.6-2.1c-2.5-0.3-5.1-1.1-7.6-0.9
	C402.3,314.3,397.9,315.2,392.5,315.9 M440,339.4c0.2,0.9,0.3,1.9,0.7,2.7c0.8,1.6,1.9,3.2,2.8,4.8c1.1-1.4,2.5-2.6,3.1-4.2
	c2.3-5.7,4.3-11.5,6.3-17.4c0.4-1.1,0.6-3.2,0.1-3.6c-1-0.6-2.7-0.7-3.9-0.4c-4.2,1-8.3,2.5-12.5,3.5c-2.8,0.6-2.8,1.7-1.6,4
	C436.7,332.1,438,335.5,440,339.4 M488.5,291.9c-1.5,0.3-3.1,0.5-4.6,1c-3.2,1.2-6.4,2.3-9.3,3.9c-4.2,2.4-8.1,5.4-12.1,8
	c-6.5,4.2-13,8.5-20.7,10.1c-0.7,0.1-1.2,1.3-1.8,2c0.8,0.3,1.6,0.7,2.4,0.9c1,0.1,2.1,0.4,3,0c7.1-3.3,14.3-6.5,21.2-10.1
	c7.3-3.8,14.4-7.8,21.4-12C488.8,295.4,488.7,293.6,488.5,291.9 M412,354.4c0.2-0.2,0.6-0.4,0.7-0.7c1.9-7.5,3.8-15,5.5-22.6
	c0.1-0.5-1.3-2.1-2.1-2.1c-3,0.1-6.1,0.3-9,1c-0.9,0.2-2,2-2,3.2C404.6,341.2,406.8,348.4,412,354.4 M469.2,327.5
	c1.3,1.6,2.8,2.7,4.3,4.2c0.3,0.3,2.6,2.7,2.4-0.6c0.5-5.2,1-10.4,0.9-15.5c0-1.2-2.7-3.7-3.6-3.4c-4.6,1.1-9.1,2.9-13.5,4.7
	c-0.6,0.2-0.9,1.3-1.3,2.1 M448,182.4c-3.4,2-3.7,2.7-2.1,4.5c3.5,3.9,7,7.8,10,12c5.2,7.4,11.1,9.8,19,6.9c0.8-0.3,1.4-1.1,2-1.7
	c-0.9-0.4-1.7-1.1-2.6-1.2c-5.1-0.7-10.2-1-13.6-5.7c-3.2-4.5-6.5-9-9.8-13.4C450.4,183,449.4,182.5,448,182.4 M353.5,458.9
	c-0.8-1.8-1.9-3.6-2.4-5.5c-0.9-3.7-4.2-3.2-5.7-2.1c-1.8,1.4-6,2.5-3.4,6.6c2.8,4.5,5.4,9.1,8.2,13.6c0.4,0.7,1.7,1.4,2.3,1.1
	c0.7-0.3,1.4-1.5,1.4-2.3C354.1,466.7,354,463.1,353.5,458.9 M411,469.4c-0.3-1.5-0.3-3.3-1.1-4.5c-0.8-1.2-2.3-1.9-3.6-2.7
	c-0.2-0.2-0.6-0.2-0.8-0.1c-1.6,0.5-1.9,0.5-3.9,3.1c0,0,0,0,0,0.1c-4.2,5.9-4,9.6-4.9,13.6c0,0,0,0,0,0.1c-3.2,10.5,1.7,6,4.7,5.9
	c0.9-0.1,1.9-0.1,2.7-0.5c1.9-1,3.8-2.1,5.6-3.4c1.2-0.9,3.2-2,3.2-3.1C412.9,475.2,412,472.5,411,469.4 M486,222.4
	c2-1.2,4.1-2.2,6-3.6c0.8-0.6,1.2-1.8,1.7-2.7c-1.1-0.3-2.4-1.2-3.4-1c-5,1.1-10,2.3-14.8,3.9c-1,0.3-2.1,2.4-2.1,3.7
	c0,1.8,0.8,3.6,1.6,5.2c0.6,1.2,1.9,2.1,3,2.9c0.2,0.1,1.3-0.8,1.8-1.4C481.9,227.3,483.7,225.1,486,222.4 M314,420.4
	c0,1-0.3,2.4,0.2,3c1.4,1.8,3.2,3.3,4.8,5c1.5,1.5,3,3,4.5,4.5c0.6-1.9,1.1-3.9,1.7-5.7c1.4-3.8,1.9-8.2-1.4-10.6
	C320.4,414,317.4,418,314,420.4 M432,463.4c-0.8-1.2-1.5-2.4-2.5-3.4c-0.2-0.2-2.2,0.9-2.4,1.7c-1.2,4.2-2.2,8.4-3,12.7
	c-0.4,2-0.6,4.8,2.7,4.4c2.9-0.3,6.8-0.6,7-4.3C434.1,471.2,432.7,467.8,432,463.4 M308,412.4c2-3.7,0.8-6.8-2.2-9.2
	c-3.9-3-7-0.4-10.2,1.6c-2.1,1.3-1.9,2.8,0,4.1c2.6,1.7,5.2,3.5,8,4.8C304.8,414.3,306.6,413.6,308,412.4 M451,469.4
	c-0.3-1.2-0.5-2.5-1.1-3.6c-0.6-1.1-1.6-2-2.4-2.9c-0.8,0.8-1.9,1.4-2.4,2.4c-1.2,2.7-2.4,5.4-3.1,8.2c-0.3,1.5,0.1,4.3,1.1,4.8
	c2.1,1.1,4.8,1.4,7.3,1.3c0.6,0,1.3-3,1.4-4.7C452,473.5,451.4,471.9,451,469.4 M329,439.4c2,3,4,6,6,8.9c0.6,0.9,1.5,1.7,2.3,2.6
	c0.6-1.1,1.6-2.1,1.6-3.2c0.2-3.6,0.2-7.3,0-10.9c-0.1-1.6-0.8-4.6-1.4-4.6c-1.9-0.1-4.1,0.4-5.6,1.5
	C330.6,434.7,330,436.8,329,439.4"/>
<path d="M135.3,370.6c11.7,10.6,13.8,23.6,11.8,38.1c-1.6,11.6-2.4,23.4,1.1,34.7c2.1,6.8,5.7,13,14.5,13.5c4.5,0.3,7.5,3.5,9.3,7.4
	c4.5,9.8,8.4,19.9,13.2,29.5c3.1,6.2,6.6,12.3,14.5,14.3c3.3,0.8,5.4,0.3,7.9-1.3c7.3-4.6,15.3-6.6,24-6.1c13,0.8,22.9,7.3,30.9,17
	c0.7,0.8,0.7,3.3,0.1,3.9c-1.8,1.6-4.6,4.2-6,3.7c-9.9-3.7-19.1-0.9-28.4,2c-6.9,2.2-13.8,4.6-20.7,6.7c-7.7,2.4-15.4-0.3-19.7-7.2
	c-6.1-9.8-12.1-19.6-17.4-29.8c-2.9-5.5-3.9-12-6.5-17.8c-1-2.2-3.8-4.7-6.1-5.1c-11.4-1.9-16.8-9.4-20.7-19.5
	c-4.3-11.1-6.8-22.4-8.1-34.2c-0.5-4.8-2.3-9.4-7.3-13c-9.4-6.7-15.9-16.3-20.1-27c-2.4-6.2-4.2-13.1-4.1-19.7
	c0.1-9.1,2.6-18.2,3.5-27.4c0.4-4.3-0.3-8.7-0.8-13c-0.4-3.1-0.9-6.3-2.1-9.1c-1.7-3.7-4.4-6.8-6.1-10.5c-0.8-1.6-1.1-4.9-0.2-5.5
	c1.7-1.3,5.3-2.5,6.5-1.6c3.4,2.6,6.4,6,8.9,9.6c6.7,9.6,10.8,20.3,12.2,31.9c0.7,5.8,0.1,11.8,1.5,17.4
	C122.5,360.6,127.5,366.6,135.3,370.6z"/>
<path d="M225.8,475.1c-8.6-2.6-16.9-5.1-25.4-7.2c-5.5-1.4-7.5-5.9-9.3-10.1c-5.8-13.8-7.6-28.7-10.1-43.3
	c-2-11.7-2.7-23.7-5.3-35.4c-2.1-9.6-5.9-18.8-9.2-28.1c-3.3-9.3-7-18.4-14.2-25.8c-1.7-1.8-1.3-7.3,0.2-10.1
	c1.8-3.3,5.1-0.7,7.9,0.6c13.7,6.3,19.3,19.7,27.5,30.9c5.4,7.5,10.5,15.2,13.1,24c2.4,7.9,3,16.4,4.9,24.5
	c2.9,12.2,7.2,23.8,16,33.4c5.2,5.7,9.2,12.5,13.9,18.7c7.2,9.4,14.6,18.6,21.9,27.9c3.9,4.9,7.9,9.7,11.6,14.7
	c0.9,1.2,1.4,4.4,0.7,4.8c-1.6,1.1-4,1.8-6,1.6c-1.7-0.2-3.7-1.4-4.8-2.7c-4.5-5.6-10.9-7-17.2-9.3
	C236.6,482.3,231.4,478.5,225.8,475.1z"/>
<path d="M355.3,210.1c-9.7,6.4-19,12.8-28.7,18.5c-5.1,3-10.9,4.9-16.5,7.2c-11.2,4.8-23,6.3-35.1,7.2c-18.4,1.3-35.5-3-52.4-9.2
	c-4.5-1.7-5.3-7.2-1.2-10.7c6.4-5.4,13.1-10.7,20.2-15.1c9.1-5.6,18.5-10.6,28.2-15c7.1-3.2,14.8-5.5,22.5-7
	c8.2-1.5,16.8-2.3,25.1-2c11.8,0.5,23.5,2.6,34.5,6.9c3.4,1.3,6.4,3.9,9.5,6c2.4,1.7,3.7,3.7,0.6,6.2
	C359.8,205.3,357.8,207.7,355.3,210.1 M313,199.4c-0.4-6-2.2-7.7-8-7.5c-1.7,0.1-3.4,0.8-5.1,0.9c-11.9,0.7-23,4.1-33.2,10
	c-2.9,1.7-6.3,4.2-7.4,7.1c-2,5.2,1.6,12.7,6.4,16c8.6,5.9,17.9,9.2,28.1,5.6c4.7-1.6,8.6-5.6,13.1-8.1
	C312.6,220.5,318.4,206.3,313,199.4 M349,205.4c1-0.5,2-0.9,2.9-1.5c1.1-0.7,2.1-1.5,3.1-2.2c-0.9-0.9-1.6-2.4-2.6-2.7
	c-9.3-2.5-18.6-5.2-28.1-6.9c-5.4-1-6.1,1.1-5.1,6.7c0.8,4.5,1,9.3,0.7,13.9c-0.3,4.9-1.5,9.8-6,13c-0.6,0.4-0.5,2-0.7,3
	c0.9,0,1.9,0.1,2.7-0.2c0.9-0.3,1.7-0.8,2.4-1.4C328.4,220,338.5,212.9,349,205.4 M242.5,232.9c6.3,1.3,12.5,2.8,18.8,3.9
	c2.5,0.5,5.1,0.3,7.7,0.4c-2.1-1.5-4-3.2-6.2-4.3c-7.5-3.9-11.7-10.8-10.8-18.1c0.1-0.8-0.1-1.7-0.1-2.6c-0.8,0.2-1.7,0.3-2.4,0.7
	c-6.5,4.1-13,8.1-19.3,12.4c-2.2,1.5-1.6,3.6,0.7,4.5C234.3,231.1,238,231.9,242.5,232.9z"/>
<path d="M186.8,172.1c5.4,13.5,3.1,25.4-5.7,36.3c-2.2,2.7-4.1,5.6-6,8.5c-6,9.2-1.2,17.3,2.9,25.3c3,5.8,6.8,11.2,10,16.9
	c1.2,2.1,1.8,4.7,1.9,7.1c0,1.2-1.5,3.1-2.7,3.5c-1.2,0.3-3.3-0.5-4.2-1.5c-5.4-6.3-10.9-12.7-15.9-19.4c-4-5.4-8.5-10.8-10.8-17
	c-3.3-8.7-1.7-17.5,3.7-25.5c2.8-4.2,5.3-8.8,7.4-13.4c3.2-6.9,2.9-14.2,0.9-21.2c-3.3-11.4-3.6-22.6,2.7-33
	c1.9-3.2,5.5-5.5,8.7-7.6c0.8-0.6,3.1,0.8,4.6,1.6c0.3,0.2,0.3,2.2-0.2,2.6c-8.6,6-5.9,13.9-3.4,21.5
	C182.3,162,184.5,166.9,186.8,172.1z"/>
<path d="M308.8,100.1c0.3-1.6,0.5-3.7,1.5-4.1c9.8-4.5,19.5-6.4,29.3,0.7c4.4,3.2,9.7,6,15,6.9c4.9,0.8,10.2-1.3,15.4-2.1
	c9.6-1.4,15.8-8.1,22.8-13.8c7.7-6.3,17.3-8.3,26.6-10.5c4-1,8.9,1.7,11.3,5.9c1.6,2.7,0.6,5.6-2.5,6.7c-2.4,0.8-5.3,1.7-7.5,0.9
	c-7.2-2.4-11.9,1.5-16.4,5.7c-3.8,3.5-6.9,7.9-10.7,11.5c-13.9,12.9-29.2,13-44.4,4.4c-9.7-5.4-19.4-10-30.7-10.4
	C315.3,101.7,312.2,100.9,308.8,100.1z"/>
<path d="M253.1,411.3c1.3,2.5,2.7,5.5,5,6.8c8.3,4.9,11.7,13.6,17,20.8c2.8,3.8,5.9,7.5,8.8,11.3c0.5,0.7,0.4,1.8,0.6,2.7
	c-2.5,0.4-5.2-1.5-7.3-2.2c-2-0.7-4.3-2.8-5.7-4.8c-4.8-6.7-9.6-9.3-17.3-13.1c-4.6-2.2-7.8-7.6-10.9-12.1
	c-24.5-29.9-12.4-55.6-7.4-63.4c2.6-4.1,8.8-7.7,9.2-12.1c0.1-0.8,0-1.6-0.2-2.3c-0.6-2.4-1.8-4.4-1.7-5.3c0.6-5.9,5-5.1,8.7-4.6
	c2.2,0.3,3.1,1.8,3.1,4.8c0.2,13-6.9,23.9-9.6,36C243.1,400.2,250.1,405.6,253.1,411.3z"/>
<path d="M263.3,140.1c8.1-1.8,13.4-0.2,14.3,5.1c0.7,3.7-0.7,7.8-1.1,11.7c-0.6,5.2-4.9,6.7-8.9,6.8c-5.9,0.1-10.3-4.8-10.6-10
	C256.7,148.2,256.6,142.8,263.3,140.1 M269.5,145.9c-0.7,0-1.4,0.1-2,0c-3.7-0.7-5.6,1.7-5.3,4.4c0.3,2.7,0.5,6.7,5.2,6.6
	c4.2,0,4.5-3.1,4.5-5.9C271.9,149.5,270.7,147.9,269.5,145.9z"/>
<path d="M488,179.9c-0.7,2.2-1.3,3.9-2,5.6c-1.3,3.5-4.4,5.2-7.5,4.2c-2.8-0.9-6.2-3.1-7.2-5.6c-1.1-2.9-1.2-7,2.7-9.3
	c2-1.2,3.7-3.2,5.9-3.8c1.9-0.6,5.2-0.5,6.1,0.7C487.5,173.7,490.9,176,488,179.9 M478.5,178.9c-0.2,1.8-0.4,3.6-0.6,5.4
	c1.2-0.4,2.8-0.6,3.4-1.4c1-1.5,1.5-3.4,2.2-5.1C482,178,480.5,178.2,478.5,178.9z"/>
<path d="M472,130.9c-4.7-2.3-7.1-5.7-7-10.6c0.2-4.3,2.5-7.3,6.3-9.2c6.7-3.3,11.7-0.3,11.7,7.2C483,125.7,479.1,130.5,472,130.9
	 M476,122.4c1.5-2.4,3.2-5.1-0.2-6.9c-0.8-0.4-3.7,1.3-4.2,2.6c-0.6,1.8,0.2,4.2,0.3,6.3C473.3,124,474.7,123.7,476,122.4z"/>
<path d="M277.8,219.1c-2.9-6.1,3.3-18.3,9.6-19.2c1.4-0.2,3.3,0.3,4.4,1.2c5.4,4.3,7.4,11,5.2,17.3c-1.8,5.2-6.7,7.2-11.2,7
	C283,225.3,280.6,221.5,277.8,219.1 M290,207.4c-4.6-1.6-5.6,2.7-6.6,5c-0.8,1.8,0.4,5.1,1.8,6.8c1.3,1.6,4.2,1.4,4.7-1.5
	C290.5,214.5,290.4,211.2,290,207.4z"/>
</svg>
