<?xml version="1.0" encoding="utf-8"?>
<!-- Generator: Adobe Illustrator 23.0.3, SVG Export Plug-In . SVG Version: 6.00 Build 0)  -->
<svg version="1.1" id="Contours" xmlns="http://www.w3.org/2000/svg" xmlns:xlink="http://www.w3.org/1999/xlink" x="0px" y="0px"
	 viewBox="0 0 510.7 510.7" style="enable-background:new 0 0 510.7 510.7;" xml:space="preserve">
<path d="M128.4,316c0.5-9.1,0.9-18,2.7-26.7c1.3-6.2,2.1-12.6,2.8-18.9c0.6-5.4,0.9-10.8,1.1-16.2c0.2-3.3-0.1-6.6,0.1-9.8
	c0.3-7.2,0.9-14.4,1-21.6c0-4.9-0.3-9.8-1.2-14.6c-0.6-3,0.4-5.3,1.7-7.5c2.2-3.6,1.9-7,0.2-10.6c-2.1-4.6,0.4-10.1,5-12.2
	c7-3.1,14.3-5.1,21.7-5.9c6-0.6,12.3-0.8,18,2.2c1.9,1,2.5,0.4,2.5-1.5c0-2.1-0.1-4.2,0-6.2c0.1-2.5,0.5-5,0.5-7.6
	c0-4.2,0-8.4-0.6-12.6c-0.9-6.9,2.5-10.8,8.3-13.7c4.6-2.3,9.5-3,14.4-3.6c2.2-0.3,4.5-0.7,6.7-0.5c5.4,0.4,10.8,1.2,16.2,1.8
	c0.5,0.1,1.7-0.6,1.7-1c-0.1-4.7,4.5-6.4,7.9-7.7c4.8-1.6,0.8-4-1.5-5.5c-2.7-2.7-2.4-2.9-4-5.7c-1-1.7-1.1-3.7,0.6-5
	c1.8-1.4,3.9-1.3,5.6,0.2c2.1,1.7,3.5,3.8,3.2,6.7c0,0.5-0.1,1,0,1.5c0,0.8-0.1,1.7-0.2,2.5c-0.8,4.6,1.3,3.4,4,3
	c0.7-0.1,1.3-0.4,2-0.5c11.2-1.1,5.2-3.4,4-7.4c-0.9-3.2,0-5.8,2.9-7.2c0.9-0.5,2-0.6,3-0.3c3,0.9,2.3,3.5,2,5.4
	c-0.4,2.2-1,3.6-2.4,5.8c-1,1.1-1,1.6-1,2.2c0.5,0,2.2,0.1,2.7,0.2c2.7,0.5,5.8,0.5,8.1,1.8c3.6,2,7.8,3.4,10,7.4
	c1.1,2,2.6,3.8,1.7,6.4c-0.1,0.4,0.3,0.9,0.5,1.4c0.4-0.2,0.9-0.3,1.2-0.6c1.7-1.9,3.8-2.8,6.3-3c0.9-0.1,1.7-0.8,2.5-1.3
	c-0.6-0.7-1.2-1.4-1.8-2c-2.2-2-4.7-3.8-6.5-6.2c-1.1-1.4-2.1-3.7-0.2-5.6c1.7-1.7,3.5-2.3,5.8-1.1c0.4,0.2,0.9,0.4,1.1,0.7
	c1.6,4,4.3,7.7,4,12.3c-0.1,1.7,0.3,2.2,2,2.1c6.7-0.2,13.5-0.1,20,2.2c4.6,1.7,6.6,3.8,5.6,9.5c-0.2,0.9,0.3,1.8,0.3,2.7
	c0.1,4.1,0.4,8.4,0.2,12.4c-0.3,5.1,1.2,9.8,1.5,14.7c0.3,4.9,1.6,9.8,2.1,14.7c0.4,4.2,0.3,8.5,0.6,12.7c0.4,6,1,12,1.4,18.1
	c0.1,1.2-0.3,2.4-0.3,3.6c-0.2,9.2-0.3,18.5-0.6,27.7c-0.1,3-1,6-1,9c0,3.2,0.7,6.4,1.1,9.5c0.2,1.6,0.2,3.2,0.6,4.8
	c0.2,0.9,0.8,1.7,1.2,2.6c0.5-0.4,1-1.1,1.6-1.3c2.4-0.9,4.8-2.1,7.3-2.4c7.2-0.7,13.8,0.9,19.1,6.1c2.9,2.9,5.9,5.8,8.4,9
	c2.9,3.7,2.3,9.7-0.4,13.6c-3.4,4.9-6.4,10-9.5,15c-3.2,5-6.2,10.1-9.5,15c-4.8,7.1-7.4,15.2-9.8,23.2c-1.9,6.3-3.2,12.8-4.5,19.3
	c-2,9.3-6.2,17.7-11.1,25.8c-2.9,4.9-6.1,9.6-9.7,14.1c-2.1,2.7-4.9,4.8-7.6,6.9c-2.4,1.9-5.1,3.3-7.6,5.1c-0.6,0.5-1,1.4-1.2,2.3
	c-1.5,6.3-3,12.5-2.4,19.1c0.4,5.1,0.6,10.3,1.2,15.4c0.1,1,1.5,2.6,2.5,2.7c8.5,0.8,16.1,3.9,23.7,7.3c8.8,4,15.3,10.6,21.1,18.2
	c0.2,0.3,0.5,0.9,0.6,1.3c0.3,1.1,0.5,2.3,0.7,3.4c-1.2,0-2.3,0.1-3.5-0.1c-5.4-1-10.8-2.4-16.2-3.3c-4.7-0.8-9.4-1.2-14.1-1.7
	c-4.9-0.5-9.9-1-14.9-1.1c-2.7-0.1-5.5,0.5-8.2,1.1c-3.9,0.9-8,0.3-12,2c-4.2,1.9-9,2.5-13.3,4.1c-5.1,1.8-10,4-15,6.2
	c-2.3,1-4.3,2.5-6.6,3.7c-0.6,0.3-1.8,0.5-2,0.2c-0.5-0.8-1-1.9-0.9-2.8c0.4-2,1-4.1,2.1-5.8c2.5-3.9,3-7,6.9-11.6
	c0.3-0.2,0.5-0.8,0.7-1.2c-0.8-0.1-0.3,0-0.9,0.3c-2.3,1.1-4.6,2.4-6.9,3.6c-5.4,3-10.7,6.1-16.1,8.9c-5.3,2.7-10.7,5.7-16.3,7.6
	c-8.3,2.8-16.9,4.4-25.8,1.9c-7.1-2-13.9-4.7-20-9c-3-2.1-5.6-4.7-8-7.5c-2.5-2.8-4.7-6-6.5-9.3c-1.3-2.4-1.8-5.2-2.5-7.9
	c-0.1-0.4,0.5-1,0.9-1.4c0.1-0.1,0.8,0.3,1.1,0.6c3.1,4.9,8.3,6.4,13.3,7.5c6.5,1.5,13.2,1.3,19.4-1.6c2.5-1.2,4.8-2.8,7.2-4.2
	c0.4-0.3,1-0.8,1-1.2c0.1-3.7,0-7.3,0-11c0-1.8,0.3-3.6,0-5.3c-1.1-5.8-2-11.6-3.7-17.1c-0.6-1.9-3.1-3.3-4.7-4.9
	c-3.1-3.2-6.3-6.5-9.4-9.7c-0.3-0.3-0.5-0.7-0.8-1c-7.4-6.6-13.2-14.6-18.1-23.2c-3.6-6.4-7.4-12.7-10.3-19.4
	c-1.8-4.1-2.5-8.6-3.4-13.1c-0.9-4.4-1.7-8.9-2.3-13.3c-0.6-4.2-1.6-8.3-1.8-12.5c-0.3-7.2-0.1-14.4-0.1-21.5
	C128.9,318,128.5,317.2,128.4,316 M235.1,401.3c-0.7-0.6-1.5-1.2-1.9-1.9c-0.4-0.8-0.2-2-0.7-2.8c-2-3.8-4-7.6-6.1-11.4
	c-0.2-0.4-0.6-0.7-1-1c-0.2,0.5-0.6,0.9-0.7,1.4c-0.1,0.6,0,1.3,0,1.9c-0.4,8-3.3,14.8-8.8,20.6c-0.2,0.2-1.2-0.1-1.2-0.2
	c-0.2-2.8-1.1-5.3-0.2-8.3c1.3-4.5,2.4-9.4,0.2-14.1c-0.2-0.5-0.5-1-0.7-1.4c-0.3,0.5-0.8,0.9-1,1.4c-0.2,0.4,0.1,1,0,1.4
	c-1.2,3.8-2.6,7.3-6,9.7c-3.6,2.5-8.4,3.3-10.9,7.4c-0.2,0.3-1,0.7-1.3,0.5c-0.4-0.2-0.7-0.9-0.7-1.3c0-0.7,0.2-1.5,0.5-2
	c4.4-6,5.4-12.8,4.9-19.9c-0.1-0.8-0.7-1.5-1-2.2c-0.2,0.6-0.4,1.2-0.6,1.8c-0.2,0.8-0.3,1.8-0.6,2.5c-1,2.4-1.6,5.3-3.4,6.9
	c-3.7,3.2-8,5.6-12,8.4c-1.4,1-2.5,0.5-3.2-0.7c-0.4-0.7-0.4-1.9-0.1-2.6c1.5-3.5,3.2-7,4.9-10.5c0.4-0.9,1.2-2.4-0.5-2.3
	c-2.9,0.3-6,0.1-8.4,2.7c-1.6,1.7-3.8,2.8-5.8,4.2c-0.3,0.2-1,0.1-1.1,0c-0.3-0.5-0.6-1.3-0.4-1.6c0.3-0.6,1.1-0.9,1.6-1.4
	c0.6-0.6,1.1-1.3,1.6-2c-0.9,0-1.8-0.1-2.6-0.1c-3.2,0.3-6.4,0.7-9.6,0.9c-3.3,0.2-6.5,0.2-9.8,0.1c-1.2,0-2.6-0.2-3.3-0.9
	c-0.5-0.5-0.2-2.2,0.2-3.1c1-1.9,2.3-3.7,3.5-5.5c2.1-3.5,4.2-7,6.4-10.5c0.6-1,1.6-1.9,2.4-2.8c-1.2,0-2.4,0-3.7-0.1
	c-0.6,0-1.2-0.2-1.7-0.4c0.3-0.6,0.5-1.3,0.9-1.8c0.3-0.4,0.9-0.5,1.3-0.8c1.3-1.3,2.8-2.4,3.9-3.9c1.6-2.2,2.8-4.6,4.1-6.9
	c0.2-0.4,0.3-0.9,0.5-1.4c-0.6-0.1-1.2-0.3-1.7-0.2c-1.1,0.2-2.1,0.7-3.2,0.9c-0.7,0.1-1.5-0.1-2.3-0.2c0.4-0.8,0.5-1.9,1.1-2.4
	c0.9-0.9,2.4-1.3,3.2-2.3c2.5-3.4,4.6-7.1,7.2-10.3c1.3-1.6,3.4-3.1,5.3-3.6c2.1-0.6,2.1-1.4,1.6-3c-0.3-1.1-0.6-2.7-0.1-3.5
	c1.4-2.4,3.1-4.7,5.1-6.8c4.8-5.2,9.1-10.5,12.1-17c3.2-6.8,7-13.3,10.7-19.8c4.4-7.8,9.1-15.4,13.6-23.1
	c4.9-8.4,8.7-17.5,14.4-25.5c0.3-0.4,0.1-1,0.2-1.5c-0.4,0-0.9-0.1-1.3-0.1c-2.7,0.2-5.4,0.4-8.1,0.5c-0.5,0-1.4-0.7-1.5-1.1
	c-0.1-0.5,0.5-1.4,1-1.6c1.7-0.7,3.4-1.4,5.1-1.7c4.6-0.8,6.1-1.8,7.1-6.5c0.7-3.7,1.2-7.5,1.1-11.2c-0.3-9.2-1-18.5-1.6-27.7
	c-0.2-2.8-1-5.5-1.5-8.3c-0.5-2.7-2.4-3.8-5-3.7c-2.8,0.1-5.6,0.7-8.4,0.4c-1.2-0.1-3.1-1.9-3.2-2.9c0-1.1,1.7-2,3.5-0.9
	c0.7,0.4,2.1-0.2,3.1-0.3c1-0.2,2.1-0.7,3-0.5c2.7,0.5,4.6-0.3,5.1-3c0.8-4.4,1.3-8.8,1.7-13.2c0.2-1.6-0.5-2.1-2.4-1.4
	c-3.3,1.2-6.8,2.8-10.2,2.8c-8.6,0.1-17.3,1.3-25.6-2.6c-3.1-1.5-4.1-0.5-4.1,3.1c0,16.1,0,32.1,0,48.2c0,0.7,0,1.3,0,2
	c0,4.1,0,8.2,0,12.4c0,2.2-0.1,4.3,0,6.5c0.3,4.9,0.8,9.7,1,14.6c0.1,1.5-0.6,2.5-2.5,3.1c-4.2,1.5-8.7,0.5-12.4,3.3
	c-0.5,0.4-1.6,0.5-2.3,0.2c-0.8-0.2-1.5,0.2-2.2-0.3c0.4-0.6,0.8-1.3,1.3-1.7c2.9-2.1,5.8-4.3,8.8-6.2c2.7-1.8,6-3,5.5-7.2
	c-0.6-4.9-1.1-9.8-1.8-14.6c-0.1-0.6-1.3-1.5-1.9-1.5c-2.5,0-5.2-0.1-7.5,0.6c-5,1.4-10,0.2-14.9,0.4c-0.7,0-1.9-0.9-2.1-1.6
	c-0.2-0.5,0.7-2,1.2-2.1c1.8-0.4,3.7-0.6,5.4-0.3c2.9,0.6,5.7,0.9,8.5-0.3c2.4-1.1,4.9-2,7.4-2.9c2.7-1,4.4-3.2,4.6-5.9
	c0.2-2.4,0.4-4.9,0.5-7.3c0-0.4-0.1-0.9-0.2-1.3c-0.3,0.1-0.7,0.1-0.9,0.3c-7,4.9-15.3,5.6-23.3,6.1c-4.9,0.3-10-1.2-14.9-2.1
	c-1.8-0.3-2.8-1-1.8,1.7c1.2,3.2,0.8,6.1-2.3,8.4c-0.6,0.5-1,1.7-1,2.6c-0.1,6.9,0,13.8,0,20.7c0,0.8,0,1.7,0,2.5
	c-0.1,2.9-0.4,5.8-0.3,8.7c0.2,4.7,0.7,9.4,0.9,14.1c0.1,3.7-0.1,7.5,0.1,11.2c0.1,2.9,3.1,4.4,5.8,3.2c0.9-0.4,1.7-0.8,2.6-1.1
	c5-1.4,9.9-3,15-4.2c2.2-0.5,4.5-0.4,6.7-0.4c0.7,0,1.4,0.6,2.1,0.9c-0.7,0.5-1.4,1.2-2.1,1.4c-7.2,2.1-14.4,4.3-20.8,8.4
	c-6.3,4.1-11.6,9.2-13.9,16.6c-0.9,2.9-0.8,6.2-1.1,9.3c-0.8,10-1.7,20-2.2,30c-0.4,8.7,1.2,17.2,2,25.8c0.7,7.3,2.1,14.3,4.1,21.2
	c1.3,4.5,2.4,9.1,4.5,13.1c2.6,5.1,6.2,9.7,9.3,14.5c1.6,2.4,2.8,5.1,4.6,7.3c2,2.5,4.5,4.6,6.8,6.9c3.2,3.3,6.2,6.8,9.5,9.9
	c2.4,2.3,4.9,4.7,7.7,6.2c4.7,2.5,9.5,4.5,15.1,4.7c4.8,0.1,9.5,1.7,14.4,0.5c1.6-0.4,3.4-0.6,5-0.5c0.8,0.1,1.4,1.2,2.2,1.9
	c-0.7,0.6-1.2,1.7-2,1.8c-6.4,1.2-12.8,2.4-19.2,3.4c-2.7,0.4-4.6,1.7-5.5,4.1c-2,5.1-4.1,10.1-3.6,16c0.3,3.7,1.7,7.6,1,11.3
	c-0.1,0.5-0.3,1.2,0,1.6c2.8,5.1,3,9.9,8.4,12.7c6.7,3.4,13.4,3.9,20.6,1.2c2.3-0.9,4.1-1.9,4.7-4.1c0.5-2.1,0.7-4.3,0.6-6.4
	c-0.3-6.3-0.7-12.5-1.1-18.8c0-0.2,0-0.4,0-0.6c-0.7-2.9,0.1-5.6,2.4-6.8c0.8-0.4,2.1,0.1,3.2,0.2c-0.3,0.8-0.3,1.8-0.8,2.3
	c-1.5,1.4-2.1,3-2,5c0.4,8.1,2.1,16.1,0.6,24.2c-0.1,0.5,0.3,1.2,0.4,1.7c0.5-0.2,0.9-0.4,1.4-0.7c1-0.6,2-1.5,3.1-1.9
	c8.5-3.4,17.1-6.8,25.7-10c1.7-0.6,2.4-1.3,2.3-3.2c-0.3-4.7-0.5-9.5-0.6-14.3c-0.1-6.5-3.6-11.1-9.6-12.5c-0.8-0.2-1.4-1.1-2.1-1.7
	c0.9-0.5,1.9-1.6,2.8-1.5c6,0.6,11.1,5.7,11.6,11.9c0.5,5.8,0.9,11.6,1.1,17.4c0.2,5.3,0.1,10.6,0,16c0,1.4-0.2,2.8-0.4,4.2
	c1.4-0.3,2.9-0.6,4.2-1c4.6-1.5,9.3-2.5,13.3-5.5c2.3-1.7,4.9-3.1,7.2-4.7c2.6-1.8,4.8-3.8,4-7.5c-0.7-3.4-1.4-6.8-1.6-10.2
	c-0.5-6.8-0.9-13.6-1.1-20.4c-0.1-3.6-3.2-7.6-6-8c-4.7-0.6-9.4-1.1-14.1-1.7c-0.8-0.1-1.5-0.5-2.2-0.7c0.4-0.6,0.7-1.4,1.2-1.9
	c0.5-0.5,1.1-1,1.7-1.2c5.6-1.7,11.2-3.6,16.9-5c8.4-2.2,15.2-6.9,21.1-13c4.3-4.5,7.7-9.7,10.3-15.5c1.9-4.1,3.7-8.3,5.6-12.5
	c0.4-0.8,0.7-1.5,1.1-2.3c-0.9-0.1-1.8-0.3-2.7-0.2c-5.6,0.5-11.2,1.1-16.9,1.7c-0.9,0.1-1.7,0.4-2.5,0.6c0.4,0.7,0.8,1.4,1.1,2.1
	c0.3,0.9,0.9,1.9,0.6,2.6c-0.1,0.4-1.6,0.8-2.4,0.7c-4.8-0.5-8.9-2.4-11.9-6.3c-0.5-0.6-1.2-1-1.8-1.5c-0.1,0.7-0.4,1.4-0.4,2
	c0.6,4.7,1.3,9.5,1.9,14.2c0.1,0.8-0.2,1.6-0.4,2.4c0,0.1-0.8,0.1-1.1-0.1c-2-1.4-4.1-2.8-6-4.3c-3.2-2.6-4.2-6.5-5.7-10.2
	c-0.2-0.4-0.4-0.9-0.5-1.3c-0.4,0.4-0.9,0.8-1,1.3c-0.3,1.2-0.4,2.5-0.4,3.7c-0.1,2.7-0.3,5.4-0.2,8.1c0.1,2.6,0.4,5.2,0.5,7.8
	c0.1,2.4-1.3,2-2.5,1.2c-1.2-0.8-2-2.3-3.2-3.1c-4.2-2.8-5.3-7.1-6.5-11.5c-0.3-1.2-0.4-2.5-0.6-3.7c-0.7,1.1-1.5,2.2-2,3.5
	c-1.4,4.1-3,8.1-3.8,12.3c-0.5,2.2-0.8,4.1-2.7,5.3c-0.4,0.3-1.7,0.2-1.8-0.1c-3.1-5.2-3.9-11-4-17c0-1.3,0.7-2.7,0.5-3.9
	c-0.7-3.6-0.5-7.4-3.2-10.4c-0.4-0.5-0.5-1.2-0.8-1.9c-0.5,0.7-1.1,1.3-1.4,2.1c-0.2,0.5-0.1,1.1,0,1.7c0.4,3.5,0.8,6.9,1.1,10.4
	c0.4,5.5-1.2,10.6-3.7,15.4c-0.6,1.1-1.4,2.1-2.1,3.2c-0.3-1.3-0.5-2.6-0.5-3.9c3.6-6.1,4-12.6,2.9-19.4c-0.7-4.5-1-8.9,1.9-12.8
	c0.4-0.5,0.3-1.3,0.5-2c-0.6,0-1.2,0.1-1.9,0.1c-1.8,0-3.6,0.4-5.2,0c-2.5-0.7-4,0.4-5.2,2.3c-3.4,5.3-1.4,10.5,0.8,15.5
	C231.9,390.3,236.2,394.8,235.1,401.3 M334.8,283.7c-1.2-1.4-2.4-2.9-3.8-4.3c-0.4-0.4-1.8-0.7-2-0.4c-2,2.6-5.1,3.5-7.6,5.3
	c-4.9,3.5-9.6,7.3-14.4,10.9c-0.6,0.5-1.7,0.7-2.4,0.5c-0.4-0.2-0.8-1.4-0.7-2.1c0.1-0.9,0.6-1.9,1.2-2.5c3.7-3.3,7.5-6.5,11.3-9.7
	c4.1-3.5,6.2-7.8,4.6-13.1c-1.4-4.7-3.3-9.4-8.9-10.5c-2.2-0.4-4.5-0.2-6.7-0.3c-6.6,0-13.2,0-19.8-0.1c-0.4,0-0.7-0.3-1.1-0.7
	c-0.5-0.5-0.5-1.3,0-1.8c0.4-0.4,0.7-0.7,1.1-0.7c9.7,0.1,19.3-0.3,28.8-1.7c3.2-0.5,5.7-1.7,6.1-4.9c0.3-3.2-0.2-6.4-0.6-9.6
	c-0.1-0.8-1.1-1.9-1.9-2.1c-2.4-0.6-4.9-1.1-7.3-1.2c-8.4-0.3-16.8-0.8-25.1-0.5c-5,0.2-9.9,0.7-14.9,0.3c-0.5,0-1.1-0.4-1.6-0.9
	c-0.5-0.4-0.6-1.2-0.3-1.7c0.3-0.5,0.6-1,1.1-1.2c3.4-1.6,4.4-3,4.4-6.6c0-3.7,0-7.3,0-11c-0.2-10.3-0.3-20.6-0.6-31
	c-0.1-3.4-0.6-6.8-1.1-10.1c-0.3-2-2-3.2-4-3.2c-4.8,0-9.6,0.4-14.3,0.4c-0.4,0-0.7-0.2-1.1-0.4c-0.7-0.4-0.8-1.3-0.3-1.9
	c0.3-0.4,0.6-0.7,1-0.8c1.6-0.4,3.4-0.4,5-0.7c3.6-0.6,7.4-1,10.9-2c4-1.2,7.3-8.6,6.7-13.4c-0.4-2.9-2.1-5.9,0-8.9
	c0.1-0.1-0.6-1.1-1.1-1.2c-0.8-0.2-1.7-0.1-2.5,0c-2.5,0.3-4.9,0.9-7.3,1.1c-4,0.3-8.1,0.9-12,0.5c-5.4-0.6-10.7-2-16-2.9
	c-1-0.2-2.3-0.2-2.9,0.3c-0.5,0.4-0.2,1.8-0.2,2.7c0,1.2,0.3,2.3,0.3,3.5c0,2.9-0.1,5.8,0,8.7c0.3,6.6,0.6,13.1,1.1,19.7
	c0.3,4.1,1.5,8,1.2,12.2c-0.2,3.2,0.8,6.4,1,9.6c0.2,4.1,0,8.2,0.1,12.3c0.1,4.8,0.3,9.6,0.6,14.3c0.1,1.4,0.6,2.8,1.4,3.9
	c5.4,7.5,11.1,14.8,16.4,22.4c5,7.2,9.7,14.7,14.5,22.1c2.8,4.2,5.4,8.6,8.5,12.6c5,6.7,10.1,13.3,15.4,19.8c2.1,2.6,4.7,4.8,7,7.2
	c2.5,2.7,6.1,5.1,5.8,9c0,0.2-0.1,0.5-0.3,0.7c-5.7,8.1,0.6,9.6,6.1,15c2.1,2.1,4.5,5,6.4,3.5c0.4-0.3,0.9-0.4,1.4-0.6
	c0.1,0.6,0.4,1.2,0.3,1.7c-0.7,1.9-1.6,3.8-2.3,5.7c-0.2,0.5-0.3,1.1-0.1,1.5c1.8,3.2,3.8,6.4,5.7,9.6c0.6,1,1,2.2,1.4,3.3
	c0,0.1,0.1,0.3,0.1,0.4c0.4,1.1,1.9,1.2,2.4,0.2c0-0.1,0.1-0.1,0.1-0.2c0.2-0.4,0-0.9,0.1-1.3c1.3-5.2,2.7-10.4,4-15.6
	c0.2-0.7,0.3-1.4,0.4-2.1c-0.7,0.4-1.5,0.7-2.1,1.1c0,0,0,0,0,0c-0.7,0.5-1.8,0.3-2.1-0.6c-0.1-0.2-0.1-0.4-0.1-0.6
	c0.1-0.9,0.7-1.8,1.3-2.5c3-3.9,6.2-7.6,9.2-11.5c3.5-4.6,6.8-9.2,10-14c2.3-3.4,3.9-7.2,6.2-10.5c1.1-1.5,0.3-1.9-0.5-2.4
	c-4.7-3.3-9.6-6.5-14.2-9.9C338.9,288.3,337.1,286,334.8,283.7 M306.4,152.2c-8.5-0.2-17.1,1-25-3.7c-0.1-0.1-1.2,0.8-1.3,1.4
	c-0.3,2.9-0.2,5.8-0.8,8.6c-1.2,5.5-2.5,10.9-1.8,16.8c0.7,6.1,0.5,12.3,0.6,18.4c0,1.2-0.5,2.4-0.5,3.7c0.1,4.9,0.4,9.8,0.5,14.6
	c0,1.1-0.6,2.3-0.5,3.4c0.4,4,1.2,7.9,1.6,11.9c0.2,2.2,0.9,3.2,3.2,3c6.6-0.4,13.1-0.7,19.7-1.1c4.1-0.3,8.3-0.5,12.3-1.2
	c3.1-0.5,6.1-1.4,6.9-5.3c0.8-3.7,1.2-7.3,1-11.1c-0.4-5.4-0.1-10.8-0.7-16.2c-0.8-7.8-2.2-15.6-3.3-23.4c-0.6-4.3-4.1-8.8-7.6-9.5
	c-3.2-0.6-6.5-0.1-9.8-0.1c-1.1,0-2.3,0.1-3.3-0.1c-0.3-0.1-0.8-1.4-0.6-1.7c2.1-2.5,7.2-3.6,10.6-2.6c1.8,0.5,3.6,0.9,5.4,0.9
	c2.3,0.1,4-2.4,3.5-4.7c-0.2-1.2-0.2-2.4-0.2-3.6c0-0.6,0.1-1.5-0.3-1.8c-0.3-0.3-1.2,0-1.8,0.2
	C311.7,149.9,309.2,150.9,306.4,152.2 M210.8,338c0.7,2.4,1.4,4.8,2.2,7.2c0.8,2.6,2.3,5.2,4.9,5.8c5.3,1.3,6.8,1.7,15.1,2.5
	c2.7,0.2,3.8,0.3,7.6,0.1c7.6-0.4,12.1-0.3,19.1-3.1c3.2-0.8,6.2-4.2,8.6-6.2c4.5-3.7,5.7-9.3,6-14.9c0.4-7.2-1.3-14.3-4-20.9
	c-1.9-4.8-4.4-9.4-10.5-10.8c-9-2.1-17.9-3.8-27.3-3c-6.7,0.6-12.4,2.9-17.2,7.5c-5,4.8-6.5,11.1-7.2,17.6
	C207.4,325.9,207.9,332.1,210.8,338 M261,275.1c3.6,5.5,5.1,12.9,12.9,14.8c0.2,0.1,0.4,0.3,0.6,0.5c1.9,1.5,3.7,3.1,5.7,4.5
	c0.4,0.3,1,0.1,1.5,0.2c-0.1-0.4-0.2-0.8-0.4-1.2c-0.9-1.4-2-2.7-2.9-4.1c-4.7-6.5-9.5-12.9-14.1-19.5c-4-5.8-7.6-11.9-11.5-17.8
	c-5.2-7.6-10.5-15.1-15.8-22.7c-0.2-0.3-0.6-0.6-0.9-0.6c-0.3,0-0.6,0.4-0.8,0.7c-2.2,4.6-4.1,9.3-6.5,13.7
	c-5.4,10.1-10.8,20.2-16.4,30.3c-2.3,4.2-4.8,8.2-7.2,12.3c-2.2,3.6-4.5,7.2-6.6,10.9c-0.4,0.6-0.1,1.6-0.2,2.4
	c0.6-0.3,1.3-0.5,1.7-1c2.7-3.2,6.2-5.2,9.9-7c1.4-0.7,2.8-1.9,3.4-3.2c1.5-2.9,2.4-6,3.8-9c4.2-9.1,8.6-18.2,12.7-27.3
	c1.6-3.5,2.1-7.6,5.3-10.3c1.4-1.2,2.4-1.1,3.5,0.3c3.4,4.5,7.1,8.9,10.2,13.6C253.1,261.7,256.8,268.3,261,275.1 M206.4,312.4
	c1.4-3.1,2.9-6.2,4.3-9.3c0.4-0.9,0.9-1.8,1.4-2.7c-1,0.4-2,0.8-3,1.2c-0.6,0.2-1.1,0.6-1.6,0.8c-2.7,1.2-5.1,2.8-6.6,5.5
	c-1,1.8-2,3.6-2.9,5.5c-3.2,6.4-4.2,13.2-3.2,20.1c0.6,4.1,1.6,8.5,6.1,10.8c2.8,1.4,5.6,3.1,8.4,4.6c0.5,0.3,1.2,0.1,1.8,0.1
	c-0.2-0.6-0.2-1.2-0.5-1.7c-1.4-3.4-3-6.8-4.1-10.3c-1.8-5.5-2.6-11.2-1.7-16.9C205.1,317.7,205.8,315.3,206.4,312.4 M176.8,174.8
	c-2.4-0.3-4.8-0.9-7.2-0.8c-3.2,0.2-6.4,1.3-9.6,1.5c-6,0.4-11.3,2.7-16.5,5.2c-1,0.5-2.3,2-2.2,2.9c0.2,1.3,1.2,3,2.3,3.6
	c4.4,2.6,9.5,3.2,14.4,3.3c4.3,0.1,8.6-0.6,12.9-1c0.7-0.1,1.3-0.7,1.9-1c-0.6-0.4-1.2-0.9-1.8-1.1c-2.4-0.8-4.8-1.3-7.1-2.3
	c-2.9-1.3-3-4.6-0.8-6.1c3.3-2.3,7.1-2.6,10.9-2.3c2.7,0.3,5.2,1.2,7.9,1.8c0.4,0.1,0.8,0,1.2,0c-0.1-0.3-0.2-0.8-0.4-1
	C180.9,176.6,179,175.8,176.8,174.8 M260.7,133.8c-1.2-1.5-2.4-3-3.5-4.7c-1.4-2-0.7-4.2,1.8-4.7c2.9-0.6,5.9-0.5,8.8-0.8
	c0.5-0.1,1-0.4,1.5-0.6c-0.3-0.3-0.6-0.8-0.9-0.9c-1.9-0.6-3.8-1.3-5.7-1.6c-8-0.9-14.9,2.4-21.8,5.6c-1.6,0.7-3.2,1.9-4.5,3.2
	c-1.1,1.1-1.7,2.3,0.5,3.7c4.1,2.5,8.5,3.2,13,3.6c4.5,0.4,9.1,0.4,13.7,0.6c0.4,0,0.8-0.3,1.1-0.6c0.1-0.1-0.2-0.7-0.5-0.9
	C263.2,135,262.2,134.4,260.7,133.8 M202.7,361.2c0.3-0.2,0.6-0.3,0.9-0.6c0.5-0.5,1-1.1,1.4-1.6c-0.7-0.2-1.3-0.6-2-0.6
	c-1.9,0.2-3.9,0.5-5.7,0.9c-6.1,1.5-10.1,7.2-10,14c0,3.9-0.4,7.9-1.1,11.8c-0.5,2.8-1.8,5.4-2.7,8c-0.1,0.3-0.1,0.7-0.2,1
	c0.4,0,0.9,0.1,1.2-0.1c1.2-0.8,2.2-1.8,3.4-2.5c5.5-3.2,7.5-8.4,7.7-14.3C195.9,371,198.3,365.9,202.7,361.2 M211.4,372.6
	c0.8-2.1,1.4-4.2,2.4-6.2c0.5-1,1.5-1.6,2.4-2.4c-1.1-0.4-2.3-0.8-3.4-1.1c-0.3-0.1-0.6,0.1-0.8,0c-4.1-1.3-8.6,0.7-9.3,4.8
	c-0.6,3.7-0.3,7.7-0.3,11.5c0,2.9,0.4,5.8,0,8.6c-0.3,2.7-1.3,5.4-2,8.1c-0.1,0.3,0.1,0.8,0.3,1.1c0.1,0.1,0.6,0.2,0.7,0
	c2.2-2.2,4.7-4.2,6.6-6.6C211.8,385.2,211.4,379.1,211.4,372.6 M255.7,364.5c3.5,0.8,4.6,3.8,5.2,6.6c0.7,3.5,1.4,7,1.6,10.7
	c0.3,4.8,3.1,9.5,4.9,14.3c0.2,0.5,0.9,0.7,1.3,1.1c0.2-0.6,0.6-1.1,0.7-1.7c0.1-2.4-0.2-4.9,0.1-7.3c0.3-3,0.9-6.1,1.7-9
	c1.3-5,0.5-9.5-2.6-13.6C265.4,361.4,259.2,360.8,255.7,364.5 M274.3,308.5c0.9,3.7,1.9,7.4,2.7,11.1c1.2,5.6,0.9,11.3-0.6,16.8
	c-0.5,2-0.9,2.2-1.9,4.1c-0.2,0.4-0.3,0.8-0.5,1.1c-1.4,2.2-3.8,4.7,1,1.4c3.1-2.9,6.8-3.9,8.3-9c1.1-3.7,1.6-7.5,1.7-11.1
	c0.1-3.5-0.5-7.1-2.3-10.6c-2.4-4.7-4.9-8.7-10.1-10.3c-0.4-0.1-0.9-0.1-1.3-0.1c0,0.5-0.1,1.1,0.1,1.5
	C272.4,305,273.2,306.6,274.3,308.5 M215.6,131c-4.1,0.4-8.3,0.4-12.3,1.2c-4.1,0.9-8.4,1.8-11.4,5.2c-1.6,1.8-1.4,4.4,0.9,5.1
	c3.9,1.2,7.9,2.3,11.9,2.8c2.6,0.4,5.4-0.3,8.1-0.4c3.6-0.2,7.1-0.3,10.7-0.6c0.7-0.1,1.3-0.6,2-1c-0.6-0.4-1.2-0.8-1.9-1
	c-0.3-0.1-0.8,0.3-1.1,0.3c-4-0.1-8.2,1.2-11.5-2.4c-2-2.2-1.7-4.7,1-6.1c1.2-0.6,2.5-1.1,3.8-1.5
	C216.9,132.4,217.3,131.9,215.6,131 M256.5,370.9c-1-2.6-2.5-4.6-5.5-4.7c-7.3-0.2-8.8,1-4.7,7.3c2.3,3.6,3.2,7.8,2.7,11.6
	c-0.8,5.1,0.5,9.8,0.8,14.6c0,0.5,0.9,1,1.4,1.5c0.3-0.4,0.8-0.9,0.7-1.3c-0.4-6.2,3.2-11.1,5-16.6c1-3.1,2.5-6.1,0.6-9.4
	C257.2,373.1,257.1,372.1,256.5,370.9 M281.6,144.1c1.8,1,3.5,2.4,5.4,3.1c6.4,2.3,13.1,1.7,19.7,1.6c1.6,0,3.1-0.9,4.6-1.6
	c0.6-0.3,0.9-1,1.4-1.5c-0.6-0.1-1.3-0.3-1.9-0.1c-4.2,1-8.2,0.5-12.2-1.1c-2-0.9-3.9-1.8-3.7-4.5c0.2-2.5,1.9-3.4,4-3.9
	c1-0.3,2.1-0.3,3.1-0.6c0.8-0.3,1.6-0.9,2.3-1.4c-0.8-0.3-1.7-0.8-2.5-0.7c-3.9,0.3-7.9,0.6-11.8,1.1c-1.9,0.2-3.9,0.5-5.6,1.3
	C281.5,137,280.1,141.1,281.6,144.1 M295,375.9c-0.9-3.5-2-7-2.8-10.5c-0.7-3.2-0.9-6.5-1.8-9.6c-1-3.4-5.6-6-9.1-5.2
	c-1.5,0.4-2.8,1.8-4,3c-0.2,0.2,0.7,1.8,1.4,2.6c3.5,3.9,6.2,8.4,7.3,13.4c1.3,6.4,5.5,9.7,10.7,12.4c0.5,0.2,1.1,0.1,1.7,0.1
	c-0.2-0.6-0.3-1.2-0.6-1.7C296.8,379,295.9,377.8,295,375.9 M283.3,380.4c0-1.6,0-3.2,0-4.7c-0.1-6.4-1.8-12.1-7-16.3
	c-2-1.6-5.3-2.1-7.4-0.7c-0.8,0.6-1.8,1.2,0.1,2.1c1.2,0.6,2,2.4,2.8,3.7c3.1,5.3,3.8,11.4,6,17c1.3,3.3,3.4,6.2,5.2,9.2
	c0.2,0.3,0.7,0.4,1.1,0.6c0.1-0.4,0.3-0.9,0.2-1.3C284,386.9,283.6,383.9,283.3,380.4 M194.4,353.9c-2.8-1.3-5.5-1.2-8.5-0.6
	c-4.5,0.8-11.1,6.4-11.8,10.8c-0.4,2.3,0.1,4.7-0.1,7c-0.2,3.1-0.7,6.2-1.1,9.3c-0.1,0.6,0.1,1.2,0.2,1.8c0.5-0.3,1.3-0.5,1.5-0.9
	c0.8-2,1.6-4,2.1-6.1c1.1-4.2,2.2-8.5,5.8-11.2c4-2.9,7.7-6.4,12.8-7.5c0.7-0.1,1.3-1,1.9-1.5c-0.7-0.2-1.5-0.5-2.2-0.7
	C194.9,354.4,194.8,354.3,194.4,353.9 M218.1,396.5c-0.4,1.3-0.8,2.6-1.1,4c-0.1,0.4,0.3,0.9,0.5,1.3c0.4-0.3,1-0.6,1.1-1
	c1-2.7,2-5.5,2.8-8.3c0.6-2.1,1-4.3,1.1-6.5c0.2-2.9-0.5-5.9,0.2-8.7c0.8-3.5,0.7-7.7,4.2-10.2c0.2-0.2,0.5-0.7,0.4-0.9
	c-0.9-1.8-7.1-2.3-8.3-0.6c-3,4.1-4,9-3,13.7C217.2,384.8,219.6,390.1,218.1,396.5 M184.1,325.2c-0.1,1.7-1,4-0.2,5.1
	c2,2.9,4.7,5.3,7.2,7.9c0.3,0.3,1,0.2,1.5,0.2c0-0.5,0-1-0.1-1.5c-0.5-2.7-1.7-5.5-1.5-8.2c0.5-6.3,1.1-12.7,5-18.2
	c0.3-0.4,0.2-1.1,0.3-1.7c-0.6,0.1-1.2,0.2-1.6,0.5c-0.5,0.3-1,0.8-1.4,1.3C188.8,314.5,185,318.7,184.1,325.2 M355.4,294.3
	c-1.5-0.7-3.1-1.2-4.4-2.2c-3.6-2.7-5.2-6.7-6.6-10.9c-0.7-2.3-0.1-3.7,1.8-4.8c0.3-0.2,0.6-0.4,0.9-0.6c1.1-0.7,0.6-1.4-0.3-1.6
	c-2.4-0.5-4.9-1.1-7.3-1c-1.4,0-3.3,0.7-4.1,1.8c-0.5,0.6,0.5,2.8,1.3,3.8c1.8,2.4,4.4,4.2,5.9,6.7c3.1,5,7.5,8,12.6,10.3
	c1.1,0.5,2.5,0.2,3.8,0.3c-0.8-0.6-1.7-1.3-2.5-1.9C356.4,294.2,356.2,294.3,355.4,294.3 M303.9,360.3c1.4,1.2,2,2.7,3.5,3.8
	c1.3,0.9,1.1,5.2,1.7,6.3c2.1,3.8,8.9-0.9,11.7,0.4c0.1,0,5.3,2,0.9-3.3c-1-2.3-2.1-4.5-3.5-6.6c-0.4-0.6-2-1.2-2.6-1
	c-3.6,1.7-6.5,0.2-9.1-2c-1.7-1.4-2.9-3.2-4.4-4.8c-0.3-0.4-0.9-0.5-1.3-0.8c-0.1,0.5-0.4,1.1-0.2,1.5
	C301.5,355.9,302.6,358,303.9,360.3 M299.1,343.3c1.4,2.5,2.5,5.2,4.3,7.4c2,2.4,4.5,4.4,7.1,6.1c1,0.6,2.8,0,4.2-0.1
	c-0.5-1.2-0.7-2.6-1.5-3.6c-1.5-2-3.5-3.7-5-5.7c-2.1-2.9-4.2-5.9-7.8-7.1c-1.1-0.4-2.5,0.3-3.7,0.4
	C297.4,341.5,298.1,342.3,299.1,343.3 M303,364.5c-3.1-3.4-4.5-7.5-5.3-12c-1.2-6.7-4.2-8.7-10.8-7.5c-0.5,0.1-0.9,0.7-1.4,1
	c0.4,0.4,0.8,0.9,1.3,1.2c1.3,0.7,3,1.1,3.8,2.1c1.6,2.1,2.8,4.5,3.8,7c1.6,3.9,3.6,7.3,7.3,9.4c1.2,0.7,2.8,0.6,4.3,0.9
	C305.1,365.9,304.4,365.2,303,364.5 M183.8,342.8c-4.2-2.7-10.2-0.8-13.1,3.4c-2.5,3.5-5,7-7.5,10.5c-0.5,0.8-1.1,1.6-1.6,2.4
	c1.1,0,2.3,0.2,3.2-0.2c1-0.5,1.8-1.5,2.5-2.4c1.5-1.9,2.4-4.6,4.2-5.6c4.1-2.2,7.4-6,12.5-6.1c0.6,0,1.1-0.6,1.7-0.9
	C185.3,343.5,184.8,343.1,183.8,342.8 M163.5,369.8c0.7-2,1.5-4,2.1-6.1c0.2-0.5-0.4-1.2-0.6-1.9c-0.5,0.4-1,0.7-1.3,1.1
	c-0.4,0.6-0.6,1.4-1,2.1c-2.2,3.7-4.4,7.4-6.7,11.1c-0.7,1.2-0.4,1.8,1.1,1.7c4.3-0.4,8.6-0.7,12.9-1.2c0.5-0.1,1.2-0.8,1.3-1.3
	c0.2-1.8,0.1-3.7,0-5.5c0-0.3-0.4-0.8-0.7-0.8c-0.3,0-0.8,0.2-1,0.5c-1.5,3.3-4.5,4.8-7.4,6.5c-0.5,0.3-1.1,0.2-1.7,0.3
	c0.1-0.7-0.1-1.5,0.3-2.1C161.5,372.9,162.5,371.6,163.5,369.8 M302.5,336.1c2.6,1.9,5.2,3.9,7.9,5.6c1.6,1,3.6,1.5,5.5,2.1
	c0.4,0.1,0.9-0.3,1.3-0.4c-0.3-0.4-0.6-0.9-0.9-1.2c-1.7-2-3.4-4-5.3-5.8c-2.2-2.1-4.5-4.1-7-5.8c-2-1.4-3.4-0.5-4.8,2
	c-1.5,2.6,1.1,2.1,2,2.9C301.5,335.6,301.9,335.7,302.5,336.1 M186.6,350c1.2-0.3,2.4-0.7,3.6-1c-1.1-0.6-2.1-1.5-3.2-1.7
	c-6.7-0.9-11.1,3.6-14.9,7.7c-2.6,2.9-3.2,7.6-4.7,11.5c-0.1,0.3,0,0.6,0,1c0.3-0.1,0.8-0.1,1-0.3c0.7-1,1.3-2.1,1.9-3.1
	c1.7-2.7,3-5.7,5.1-8.1C178,352.7,181.7,350.8,186.6,350 M288.3,316.3c0.4,2,1.1,4,1,5.9c-0.1,2.8-1.6,5.9-2,8.7
	c-0.1,0.6,0.1,1.3,0.2,1.9c0.5-0.2,1.1-0.4,1.3-0.7c0.8-1,2.2-2.5,2.7-3.7c2-4.9,1.4-9.9-0.9-14.5c-1-2-3-3.6-4.6-5.2
	c-0.2-0.2-0.9,0-1.3,0.1c-0.1,0-0.1,0.5,0,0.7C285.9,311.5,287.1,313.6,288.3,316.3 M239,263.7c-0.1,0.3-0.3,0.7-0.3,1
	c0.5,6,1,12,1.7,17.9c0.1,0.6,1.2,1.1,1.8,1.7c0.5-0.7,1.5-1.4,1.4-2c-0.2-5.5-0.7-11-1-16.5C242.4,263.5,241.5,262.6,239,263.7
	 M235.6,265.3c-0.6-1.2-1.1-2.5-2.7-1.2c-0.8,0.7-2,1.9-1.9,2.6c0.9,4.2,2,8.4,3.2,12.6c0.4,1.6,1,3.1,1.7,4.6
	c0.2,0.4,1,0.5,1.5,0.8c0.2-0.6,0.7-1.3,0.6-1.9C237.4,277.1,236.6,271.3,235.6,265.3 M169.9,340.5c1.9-0.9,3.8-1.9,5.8-2.8
	c1.2-0.5,2.6-0.9,3.9-1.3c-0.8-1-1.5-2.2-2.4-3.1c-0.8-0.8-1.8-1.3-2.9-1.7c-0.6-0.2-1.6,0-2,0.4c-2,2.2-4,4.4-5.6,6.8
	c-0.7,1-0.5,2.6-0.7,3.9C167.2,342.1,168.4,341.5,169.9,340.5 M245.9,269.5c0.2,4.3,0.3,8.6,0.6,12.8c0,0.7,0.8,1.3,1.3,1.9
	c0.5-0.6,1.3-1.2,1.4-1.8c0.3-3.3,0.2-6.7,0.7-10c0.5-3.4-1.6-5.6-3.2-8.2c-0.2-0.3-0.6-0.4-0.9-0.5c-0.2,0.4-0.5,0.7-0.5,1.1
	C245.5,266.1,245.7,267.5,245.9,269.5 M233.7,257.8c-0.2,0.7-0.5,1.3-0.5,2c0,0.2,1,0.8,1.1,0.6c2.6-2.1,5.4-1.3,8.2-0.7
	c0.7,0.2,1.5,0.3,2.2,0.4c-0.3-0.8-0.5-1.6-1-2.3c-0.5-0.7-1.3-1.1-1.7-1.8c-1.2-1.7-2.2-3.5-3.3-5.3c-0.3-0.6-0.7-1.1-1.1-1.6
	c-0.4,0.5-1,1-1.2,1.5C235.5,253,234.7,255.2,233.7,257.8 M229.8,271.7c-0.1-0.8-0.3-1.7-0.4-2.5c-0.6,0.7-1.3,1.3-1.8,2.1
	c-2.5,4.5,0.5,8.5,1.2,12.7c0.1,0.4,1.9,0.7,2.9,0.8c0.3,0,1-1.2,0.8-1.7C231.7,279.4,230.7,275.9,229.8,271.7 M184.6,375.9
	c0.4-3.1,0.8-6.2,1.1-9.4c0-0.3-0.2-0.6-0.3-0.9c-0.3,0.1-0.8,0.2-0.9,0.4c-1.2,1.8-2.5,3.6-3.3,5.6
	C179.6,375.5,180.2,376.2,184.6,375.9 M294.4,314.6c0.4,3.1,0.7,6.2,1.1,9.3c0.1,0.4,0.2,1,0.2,1.7c1.7-1.8,4.1-4.9,3.9-6.8
	C299.5,317.2,296.4,315.8,294.4,314.6 M225.3,279c-0.7,0-1.8-0.4-2-0.1c-0.8,1.2-1.6,2.5-1.8,3.9c-0.2,1.1,0.1,2.6,0.7,3.5
	c0.4,0.5,2.6,0.4,2.9-0.1c0.5-0.8,0.2-2.2,0.2-3.3C225.3,281.7,225.3,280.6,225.3,279 M254.3,275.6c-0.4-0.5-0.9-0.9-1.3-1.4
	c-0.3,0.6-0.8,1.2-0.9,1.8c-0.1,2.4-0.1,4.8,0,7.2c0,0.6,0.9,1.1,1.3,1.6c0.5-0.5,1.1-1,1.4-1.6
	C255.8,280.8,255.6,278.5,254.3,275.6 M300.2,367.8c-1.2-1-2.3-2-3.5-2.9c-0.4-0.3-0.8-0.5-1.2-0.8c-0.2,0.6-0.7,1.1-0.6,1.7
	c0.2,1.5,2.7,5,3.1,6.5c0.1,0.3,1.7,1.8,1.9,1.8c1.6-0.3,3.2-0.6,4.8-1c0.5-0.1,1.6-0.1,2.1-0.4c-0.4-0.3-4.6-4-5-4.3
	C301.6,368.2,301.2,368,300.2,367.8 M180.8,319.9c-0.1,0.4-3.1,2.1-1.1,5.2c0.1,0.5,1.4,2.6,1.6,3.1c-0.1-0.7-0.2-1.5,0.1-3.1
	c0.1-0.7,1.1-5.6,2.4-7.3C183.3,317.9,181.5,318.9,180.8,319.9 M257.9,283.2c-0.1,0.9-0.1,1.8-0.1,2.6c0,0.1,0.7,0.2,1.1,0.3
	c-0.2-0.8-0.3-1.6-0.5-2.4C258.4,283.5,258.2,283.5,257.9,283.2z"/>
<path d="M276.2,44.8c1.8-3,3.2-6.1,5.4-8.5c1.5-1.7,4.1-2.7,6.4-3.3c11.1-2.7,17.1,5.4,19.5,14.2c2.2,8.4,2.8,16.9,3.2,25.4
	c0.4,7,2.7,13.4,5.1,19.9c0.9,2.5,1.6,5.3,1.5,8c-0.2,3.4-3.1,5.1-6,6c-4.5,1.5-9,2.5-13.8,2.3c-3.3-0.1-6.7,0.6-10.1,0.4
	c-3.8-0.3-7.4-1.4-11.2-1.7c-0.8-0.1-6.2-4.2-5.6-4.9c-1.1-0.7-2.2-2.1-3.1-2.1c-4.9,0.4-9.7,1.3-14.6,1.7c-4,0.3-7.9,0-11.9,0.1
	c-3.5,0-6.8-1.3-10.1-1.6c-3.2-0.2-6.5,1.5-9.7,2.6c-6.2,2.1-12.4,2.9-18.9,1.7c-2.6-0.5-5.3-0.6-7.9-1.2c-2.1-0.5-4.4-1-5.9-2.4
	c-1.4-1.3-2.5-3.7-2.4-5.5c0.2-5.1,1.1-10.1,1.5-15.2c0.3-3.8,0-7.6,0.1-11.4c0.1-7.5,0-15.1,0.7-22.6c0.6-6.2,2.5-12.2,6.3-17.4
	c4.4-6.1,14.3-9.1,20.9-5.5c5.2,2.9,9.3,7.4,11.2,13.4c0.2,0.5,0.5,0.9,0.7,1.4c0.3-0.5,0.7-0.9,0.9-1.4c2.3-7.4,4.3-14.9,6.8-22.2
	c2.2-6.4,7.7-9,13.6-10.1c3.3-0.6,7.3-0.6,10.3,0.7c3,1.3,5.8,4.1,7.5,6.9c2.1,3.5,3,7.7,4.1,11.6c0.9,3.2,1.3,6.6,1.6,9.9
	c0.5,5.6,0.8,11.2,1.2,16.8c0,0.4,0.3,0.9,0.5,1.3c0.3-0.4,0.7-0.7,0.9-1.1C275.1,48.9,275.6,46.9,276.2,44.8 M232,72.8
	c0.3,3,0.9,6,1,9c0.2,4.1,0,8.3,0.2,12.4c0.1,0.8,1.4,2.1,2.4,2.2c3.4,0.6,6.9,1.1,10.4,1.1c4.9,0.1,9.9,0,14.8-0.6
	c2.4-0.3,4.9-1.5,6.7-3c1.3-1.1,1.3-3.6,2.5-5c1.8-2.1,1-4.1,0-5.6c-0.5-0.8-3.1-0.5-4.6-0.2c-4.6,1.1-9.1,2.8-13.7,3.7
	c-2.2,0.4-4.7,0-7-0.5c-1.5-0.3-1.5-1.6,0-2.1c1.2-0.4,2.7,0.2,4-0.1c5.6-1.5,11.3-2.9,16.5-6c2.6-1.6,4.7-3.6,5.1-6.2
	c0.6-4.7,0.4-9.5,0.1-14.3c-0.4-5.8-1.6-11.5-2.1-17.2c-0.6-6.6-1.2-13.2-3.4-19.5c-1.8-5-3.3-10-9.6-11.4
	c-7.3-1.6-14.8,1.9-17.1,9.3c-1.4,4.4-3.1,8.8-3.9,13.4c-1.4,7.3-2.7,14.7-3.2,22.1C230.7,60.3,231.6,66.3,232,72.8 M225.9,57.2
	c-0.2-1.8-0.3-3.6-0.6-5.3c-0.8-6.2-1.8-12.5-5.7-17.7c-1.9-2.6-4.4-5.4-7.3-6.6c-6.3-2.7-13.6,1.2-16,7.9c-0.8,2.3-1.5,4.6-2.2,6.9
	c-0.6,2-1.5,4-1.6,6c-0.4,6.6-0.4,13.2-0.6,19.8c-0.2,5.1-0.3,10.2-0.6,15.4c-0.2,3.5-0.7,6.9-1.1,10.4c-0.2,1.5,0.2,2.8,1.8,3.1
	c4.4,1,8.8,2.3,13.3,2.7c4,0.4,8,0,12-0.5c2.8-0.4,5.7-1.2,8-2.8c1.2-0.9,1.1-3.7,1.7-5.6c0.1-0.2,0.4-0.4,0.4-0.7
	c0.5-2.1-1.3-4.5-3-4.2c-1.4,0.3-2.7,0.6-4,1c-4.2,1.5-8.4,1.3-12.7,0.5c-0.3-0.1-0.7-0.5-0.7-0.8c0-0.3,0.4-0.8,0.6-0.8
	c3.3-1,6.6-1.9,10-2.8c4.4-1.1,8.7-5.1,8.8-8.8C226.4,68.8,226,63.3,225.9,57.2 M300.5,43.8c-0.4-0.5-0.8-1-1.1-1.5
	c-3.4-5.2-9.9-6.9-14.4-2.7c-2.8,2.6-4.7,6.7-6.1,10.5c-1.4,3.6-1.9,7.7-2.3,11.6c-0.8,7.1-1.2,14.2-1.7,21.4
	c-0.3,4-0.3,8.1-0.6,12.1c-0.1,1.4-1.9,2.7-0.2,4.2c1.2,1,2,2.7,3.4,3.2c3.1,1.1,6.4,2.1,9.6,2.2c7.6,0.4,15-0.2,22.1-3.6
	c2.5-1.2,2.8-2.5,2.2-4.7c-0.1-0.5-0.1-1.1-0.3-1.6c-0.9-3.8-1.4-7.5-5.1-10.2c-4.5-3.3-9.1-1.1-13.6-1.3c-1.1-0.1-2.2,0.5-2.3-0.9
	c0-0.7,1.2-1.9,1.9-2c3-0.4,6.1-0.5,9.2-0.6c3.4-0.1,5.6-2.2,5.4-5.5c-0.4-6.5-0.7-13-1.8-19.3C304.2,51.2,302.2,47.7,300.5,43.8z"
	/>
<path d="M173.1,62.4c3.4,4.9,5,10.2,6,15.8c0.6,3.6,1.2,7.1,1.6,10.7c0.2,1.8,0,3.6,0.1,5.4c0.3,6.2,0.7,12.3,1.1,18.5
	c0,0.6,0.4,1.2,0.4,1.8c0,1.3,0.3,3.3-0.4,3.8c-3.1,2.4-1.4,5.3-1.6,8.1c-0.2,2.9,0.2,5.9-0.6,8.6c-1,3.4-4.8,3.9-7.6,4.8
	c-5.1,1.6-10.4,1.2-15.7,0.2c-4.5-0.8-9-1.5-13.5-2.3c-4.1-0.7-6.6-5.7-5.2-9.6c2-5.4,3.5-10.9,4.2-16.7c1.2-9.8,2.6-19.6,4.5-29.3
	c1-5.4,2.8-10.7,4.8-15.8c2-5.1,6.3-7.4,11.7-7.7c3.3-0.2,6.4,0.1,9.1,2.1C172.4,61,172.6,61.7,173.1,62.4 M145.6,107.4
	c-0.2,1.4-0.3,2.8-0.6,4.2c-0.9,5.8-1.8,11.7-2.8,17.5c-0.4,2.4,0.6,4.4,3,4.7c7.5,1,14.9,2.8,22.6,2.3c7.2-0.5,10.6-4.3,9-11.6
	c-0.1-0.6-1.3-1.3-1.9-1.3c-2.3,0.3-4.6,0.9-7,1.3c-2.7,0.5-5.4,1.2-8.1,1.3c-1,0-2.1-1.4-3.1-2.1c0.9-0.6,1.8-1.3,2.8-1.6
	c4.6-1.5,9.7-1.6,13.7-4.5c1.8-1.3,4.7-1.9,4.7-4.9c-0.1-6.1-0.3-12.3-0.6-18.4c-0.1-1.7-0.6-3.4-1-5.2c-1-4.5-1.8-9.1-3-13.5
	c-1-3.6-1.6-7.6-4.9-9.9c-4.2-2.9-9.7-4.6-13.2,1.3c-4.6,7.8-6.3,16.3-7.5,25.1C147.2,97,146.6,102.1,145.6,107.4z"/>
<path d="M403.2,212.5c2.4-0.5,4.6-0.9,6.9-1.2c4.5-0.6,7.6,4.1,7.9,7.6c0.7,7.5-1.6,14.4-4.2,21.3c-2,5.3-4.2,10.4-7.5,15
	c-1.9,2.7-4.3,5.1-6.6,7.6c-4.1,4.4-8.3,8.8-12.6,13.1c-1.7,1.7-3.3,3.4-5.3,4.6c-1.1,0.7-3.2,0.8-4.2,0.2
	c-7.4-4.9-14.4-10.2-18.3-18.6c-0.9-2-2.8-3.7-3.8-5.7c-0.8-1.6-1.1-3.4-1.5-5.2c-0.3-1.7,0.1-3,2-3.9c5.4-2.3,8.7-6.8,11.8-11.6
	c0.9-1.4,1.9-2.8,3.2-3.7c5.8-4.2,11.8-8.2,17.8-12.2C393.2,216.8,397.9,214.3,403.2,212.5 M407.8,216.3c-3.4,1.3-6.9,2.3-10,4
	c-7.1,3.9-14.3,7.8-21,12.3c-4.7,3.1-6.8,7.5-3.1,13c1.6,2.4,3.8,4.5,5.6,6.9c0.5,0.6,0.5,1.5,0.7,2.3c-0.9,0.1-1.8,0.3-2.6,0.1
	c-0.7-0.2-1.4-0.8-1.9-1.3c-1.9-1.9-3.6-4-5.7-5.6c-3.1-2.4-3.9-3.1-6.9,0c-0.6,0.6-1.3,1.1-1.7,1.8c-0.6,0.8-1.5,1.9-1.4,2.7
	c0.7,3.4,1.8,6.6,3.7,9.6c3.7,5.9,8.6,10.2,14.4,13.9c0.8,0.5,2.7,0.4,3.5-0.2c2.7-2.3,5.2-4.9,7.7-7.5c2.3-2.4,4.4-5,6.5-7.6
	c2.6-3.2,5.2-6.3,7.6-9.6c1-1.3,1.5-2.9,2.4-4.3c4.8-8.1,8.6-16.4,8.3-26.1C413.5,217.6,411.1,215.6,407.8,216.3z"/>
<path d="M123.3,152.2c5.8-0.2,9.1,3,11.7,7.3c0.6,1,1.2,1.9,1.7,2.9c0.4,1,1.2,2.7,0.8,2.9c-1.1,0.9-2.7,2-3.9,1.7
	c-3.7-0.8-7.4-1.9-10.7-3.5c-1.9-0.9-3.5-3-4.4-4.9c-1.2-2.4,0.6-4.1,2.5-5.3C121.7,152.9,122.4,152.6,123.3,152.2"/>
<path d="M194.7,107.2c6.8,1.6,8.4,6.9,9.3,12.8c0,0.3-0.1,0.6,0,0.8c0.6,1.5,1.4,3.5-0.6,4.2c-1.3,0.4-3.3-0.4-4.6-1.2
	c-3.9-2.3-7.2-5.2-8.2-10.1C189.9,110,190.7,108.5,194.7,107.2z"/>
<path d="M332.3,456.4c-0.8,4.3-1.6,5.2-5.6,5c-4.4-0.2-8.8-0.6-13.1-1.2c-0.7-0.1-1.3-1.2-1.9-1.9c0.6-0.5,1.2-1.1,1.9-1.3
	c3.1-1.2,6.3-2.2,9.4-3.4C326.7,452.3,329.8,452.9,332.3,456.4z"/>
<path d="M172.5,464.4c-6.3,1.1-13.3-2.1-15.7-7.1c-1.2-2.4,0.2-4.6,2.9-4.7C165,452.3,172.1,458.7,172.5,464.4z"/>
<path d="M309.9,122.5c-2.6,0-3.4-1.2-2.5-3.6c1.1-3,2-6.1,3.9-8.6c1.6-2.2,4.3-3.6,6.6-5.1c0.3-0.2,2,0.8,2.1,1.4
	c0.4,2.5,0.1,5-1.7,7C315.5,116.6,312.7,119.5,309.9,122.5z"/>
<path d="M376.7,307.3c-2.2-4.1-3.2-8.3-3.2-12.8c0-1.3-0.5-2.6-0.5-3.9c0-0.6,0.7-1.2,1.1-1.8c0.5,0.4,1.1,0.7,1.4,1.2
	c1.6,2.4,3.3,4.8,4.5,7.3c1.1,2.3,1.8,4.8,2.4,7.4c0.3,1.5,0.1,2.8-1.8,3.7C378.7,309.2,378,308.2,376.7,307.3z"/>
<path d="M311.3,451c-2.2,3.7-6.5,3.6-9.4,5.9c-0.3,0.3-1.5,0-1.9-0.4c-0.3-0.3-0.4-1.4-0.1-1.8c2.6-3.8,5.1-7.8,8.1-11.3
	c1.4-1.7,3.8-1.4,5.5,0c1.7,1.4,1.5,2.8,0,4.4C312.6,448.7,312,449.8,311.3,451z"/>
<path d="M222.4,119c-1.5,0.9-2.8,1.8-4.2,2.5c-0.5,0.3-1.4,0.3-1.8,0c-0.4-0.2-0.6-1.2-0.5-1.7c0.5-2.5,0.8-5.1,2-7.2
	c1.2-2.1,3.3-4,5.4-5.4c1.9-1.3,3.4-0.2,3.1,2.2C226,112.8,225.3,116.3,222.4,119z"/>
<path d="M333.4,250.8c-0.9-3-2-5.8-2.7-8.6c-0.2-0.7,0.4-2.3,0.7-2.3c1.2-0.1,2.6-0.1,3.5,0.5c2.7,1.8,2.9,4.9,3.5,7.7
	c0.4,2.2,0.5,4.5,0.5,6.7c0,0.7-0.8,1.3-1.2,2c-0.5-0.4-1-0.6-1.4-1.1C335.3,254.2,334.4,252.7,333.4,250.8z"/>
<path d="M340.1,234.1c-0.2-0.7-0.6-1.1-0.5-1.4c0.4-1.5,0.9-3,1.6-4.3c0.2-0.3,1.9-0.4,2.1-0.1c0.9,1.4,2.2,3,2.2,4.6
	c0.1,3-0.6,6-1,9c-0.1,0.6-0.5,1.1-0.7,1.6c-0.4-0.3-1-0.6-1.1-1C341.8,239.8,340.9,237.1,340.1,234.1z"/>
<path d="M143.5,157.1c0.2,0.9,0.4,1.7,0.4,2.5c0,1-0.1,2.1-0.1,3.1c-0.9-0.7-2.1-1.1-2.6-2c-1-1.7-1.7-3.6-2.2-5.4
	c-0.3-0.9-0.3-2,0.1-2.8c0.2-0.5,1.6-1,2-0.7c0.9,0.6,1.8,1.5,2.2,2.5C143.7,155,143.4,156,143.5,157.1z"/>
<path d="M259.3,304.3c4,3.2,4.9,6.4,2.6,11.1c-0.4,0.8-0.6,1.8-0.4,2.6c1.9,7.6-1.4,19.6-9.9,23.7c-5.8,2.8-11.7,2.8-17.8,0.6
	c-8.1-3-12.8-10.6-12.9-18.4c-0.1-4,0-8.3,1.2-12c1.2-3.4,3.5-6.8,6.3-9c6.4-5.1,13.9-6,21.5-2.9C253.1,301.1,256,302.8,259.3,304.3
	 M227.5,309.6c-0.6,1.5-1.3,3-1.7,4.6c-0.2,0.6,0,1.4,0,2.1c0.5-0.3,1.2-0.5,1.6-1c5.1-5.4,11.4-7.2,18.4-5.3
	c2.7,0.7,2.9-0.6,3.4-2.1c0.6-1.6-0.1-3.1-1.8-3.5c-2.6-0.6-5.2-1.2-7.8-1.2C234.7,303.3,230.4,304.7,227.5,309.6 M253.2,310.7
	c0.9,0.9,1.7,2.2,2.7,2.6c1.1,0.4,3.3,0.4,3.5-0.2c0.6-1.2,0.4-2.8,0.2-4.2c-0.1-0.6-0.9-1.2-1.5-1.5c-1.5-0.7-3.2-1.4-4.4,0.2
	C253.2,308.2,253.3,309.3,253.2,310.7z"/>
<path d="M268.1,111c-0.5,0.8-0.9,1.5-1.5,2.1c-0.7,0.7-1.5,1.4-2.3,2.1c-0.2-1.1-0.7-2.3-0.4-3.2c0.5-1.9,1.3-3.7,2.2-5.4
	c0.4-0.8,1.2-1.6,2-1.9c0.5-0.2,1.8,0.4,2,0.9c0.2,1,0.2,2.3-0.2,3.3C269.7,109.6,268.7,110.1,268.1,111z"/>
</svg>
