<?xml version="1.0" encoding="utf-8"?>
<!-- Generator: Adobe Illustrator 23.0.3, SVG Export Plug-In . SVG Version: 6.00 Build 0)  -->
<svg version="1.1" id="Contours" xmlns="http://www.w3.org/2000/svg" xmlns:xlink="http://www.w3.org/1999/xlink" x="0px" y="0px"
	 viewBox="0 0 523.7 523.7" style="enable-background:new 0 0 523.7 523.7;" xml:space="preserve">
<style type="text/css">
	.st0{fill:none;}
</style>
<path d="M218.1,297.9c7.1,2.4,13.8,5.2,20.7,7c3,0.8,6.7-0.1,9.9-0.8c4.7-1.1,8.8,0.1,12.4,2.9c4,3.1,7.5,7,9.1,11.9
	c1.2,3.6,1.4,7.5,2.4,11.2c0.8,2.7,1.6,5.7,3.3,7.9c3.5,4.7,3.9,9.8,2.1,14.8c-2,5.7-5,11-7.8,16.4c-0.4,0.8-1.8,1.6-2.8,1.7
	c-7.1,0.7-14.2,0.9-20.8-2.6c-4.9-2.6-9.8-5.2-14.5-8.1c-4.2-2.7-8.2-2.5-12.3,0c-4,2.5-7.9,5.4-13.2,5.2
	c-10.7-0.3-16.7-7.5-14.2-17.9c1.4-5.8,2.2-11.2-0.5-17.2c-2.4-5.4-1.4-11.7,1-17.4c1-2.3,1.5-4.9,2.9-7c3.5-5.7,9.4-7.4,15.6-7.8
	C213.4,297.8,215.6,297.9,218.1,297.9z"/>
<path d="M346.8,333.2c0.1-1.1,0.4-2.1,0.7-3c0.8,0.6,2.2,1.2,2.3,1.9c0.2,2.6,0.1,5.3-0.1,7.9c-0.1,1.4-0.6,2.7-0.5,4.1
	c0.1,0.9,1.1,1.7,1.6,2.5c0.4-0.7,0.7-1.5,1.2-2.2c0.4-0.5,1-0.9,1.5-1.3c0.5,0.6,1.4,1.3,1.3,1.8c-0.4,2.8-0.6,5.7-1.7,8.2
	c-3.5,8-3.4,5.7-7.9,1.4c-1.6-1.5-3.4-2.8-5-4.4c-0.6-0.7-0.6-1.9-1.1-2.8c-0.3-0.6-0.9-1.3-1.4-1.3c-0.5,0-1.2,0.7-1.4,1.2
	c-0.6,1.8-1.1,3.6-1.4,5.5c-0.1,0.5,0.7,1.5,1.3,1.7c5.3,1.6,9.1,4.9,11.6,9.8c0.4,0.8,0.5,1.8,0.8,2.7c-1.2,0-2.6,0.5-3.6,0
	c-2.4-1.1-4.6-2.7-7-3.9c-1.8-0.9-3.7-1.8-5.6-2c-2.8-0.3-5.7-0.1-8.6-0.1c-13.6,0-24.7-9.2-27.7-22.6c-1.2-5.3-0.5-10.4,0.6-15.6
	c0.7-3.6,0.7-7.4,0.9-11.1c0.3-4,0.4-7.9,0.7-11.9c0.5-5.6-1.8-9.8-5.7-13.8c-2.5-2.6-4.3-6-5.7-9.4c-1.9-4.5,0.1-9.6,4.2-11.9
	c2.2-1.3,3.5,0.6,3.5,2.3c-0.2,6.8,4.6,11,8.2,15.6c3.8,4.6,6.8,9.5,8.8,15c0.7,1.9-0.2,4.5-0.5,6.8c-0.9,7.5-2.7,14.7-7,21.1
	c-3.2,4.9-1.5,16.8,2.3,19.9c3.3,2.7,5.6,6.8,10.3,7.2c4.8,0.4,9.6,0.5,14.5,0.4c0.7,0,2.2-2.2,2-3c-0.4-1.5-1.5-3.4-2.7-3.9
	c-5.7-2.1-10.5-5.3-14.7-9.5c-0.5-0.5-1-0.8-1.5-1.2c-0.6,0.7-1.6,1.5-1.6,2.2c0.2,2,0.3,4.3,1.4,5.8c2.7,3.4,6.2,5.8,10.9,5.6
	c0.8,0,1.7,0.7,2.6,1.1c-0.8,0.3-1.6,0.8-2.5,1c-6.5,0.9-11.4-2-15.4-6.8c-3.2-3.8-1.3-8.3,3-10.5c3.9-2.1,5.7-0.2,7.8,2
	c3.2,3.3,6.4,6.6,11.2,7.6c0.5,0.1,1.1,0.1,1.7,0.2c-0.4-0.6-0.6-1.4-1.1-1.7c-2.1-1.3-4.3-2.3-6.4-3.6c-0.7-0.4-1.1-1.3-1.7-1.9
	c1.1-0.3,2.2-1,3.1-0.7c1.1,0.3,1.9,1.6,3,2.1c0.9,0.5,2.1,0.5,3.2,0.7c-0.3-1.4-0.5-2.8-1-4.2c-0.4-0.9-1.2-1.5-1.9-2.3
	c1.3-0.5,2.9-1.8,3.9-1.5c2.2,0.7,3.6,0.6,5.2-1.1c1.2-1.3,1.9-0.8,2.3,1.2c0.4,2.5,1.6,4.8,2.7,7.1c0.3,0.7,1.7,0.8,2.6,1.2
	c0-0.9,0.1-1.8,0.1-2.7C347.4,335.1,347.2,334.2,346.8,333.2 M352,349.1c-0.8-0.4-1.6-1-2.4-1c-2.1,0-3.9,0.2-3.5-3
	c0.1-1-1.4-2.2-2.2-3.3c0,0-0.9,0.4-0.9,0.5c0,1.3,0.2,2.6,0.4,3.9c0.1,0.4,0.3,0.9,0.5,1.2c1.1,1.7,2.3,3.3,3.5,4.9
	c0.6,0.8,1.5,1.3,2.2,2c0.3-0.8,0.6-1.6,0.9-2.5C350.9,351.1,351.3,350.3,352,349.1 M339.8,342c0-0.9,0.3-2-0.1-2.8
	c-0.7-1.4-1.7-2.7-2.7-4c-0.3,1.4-1.1,3-0.7,4.2C336.8,340.6,338.4,341.4,339.8,342z"/>
<path d="M172.9,365.2c-0.2,8.5-0.5,16.6-0.8,24.7c0,0.6-0.6,1.2-0.9,1.8c-0.6-0.4-1.8-0.8-1.9-1.2c-0.4-5.4-0.6-10.9-0.9-16.3
	c-0.2-4.2,0-8.5-0.8-12.5c-1.3-6.4-3.2-12.7-4.9-19c-0.2-0.8-0.6-1.7-1-2.4c-1.5-2.9-4.2-3.1-6.2-0.5c-1.2,1.7-2.6,3.3-4,4.7
	c-0.5,0.5-1.6,0.3-2.4,0.4c0.1-0.8-0.1-1.7,0.2-2.4c0.8-2.2,1.9-4.2,2.7-6.4c1.6-4.2,7.6-5.7,10.8-2.5c4.2,4.1,5.7,9.6,6.9,15
	C171.2,354,172,359.4,172.9,365.2z"/>
<path d="M385.7,402.5c2.2-3.9,6.9-5.7,10.8-4.2c0.7,0.3,1.3,2.7,0.8,3.5c-2.2,4-4.8,7.8-7.2,11.7c-0.4,0.7-0.4,1.6-0.6,2.4
	c0.7-0.3,1.6-0.5,1.9-1.1c3.2-4.9,6.4-9.7,9.2-14.8c2.3-4.1,4.1-8.6,6.3-12.7c0.4-0.7,1.9-0.8,2.9-1.2c0.1,0.8,0.5,1.9,0.1,2.5
	c-3.8,6.9-7.5,13.9-11.5,20.6c-1.9,3.1-4.3,5.9-6.5,8.7c-2.1,2.7-3.8-1.2-5.8-0.5c0.2-1.2,0.2-2.5,0.7-3.6c1.9-3.8,4-7.4,6-11.1
	c0.3-0.6,0-1.5-0.1-2.2c-0.7,0.2-1.6,0.3-1.9,0.8c-2.3,3.7-4.4,7.5-6.6,11.2c-0.6,1-1.7,1.9-2.5,2.8c-0.3-1.3-1.3-2.9-0.9-3.8
	C382.1,408.5,384,405.7,385.7,402.5z"/>
<path d="M182.2,388.2c-1.7-3.5-3.1-6.8-5.1-9.6c-1.2-1.7-2.2-3.4-0.6-4.9c1.7-1.7,3.1,0.1,4.4,1.3c4.1,4,5.1,9.4,6.3,14.5
	c0.8,3.7,1.7,8.1,0.5,11.4c-1,2.8-4.9,4.7-7.8,6.6c-0.7,0.5-2.7-0.4-1.3-2.3c0.5-0.7,0.9-1.6,1.5-2.2
	C184.3,398.4,184.9,394.5,182.2,388.2z"/>
<path d="M261.2,285.5c4.6,3.5,9.1,6.8,13.5,10.3c0.9,0.7,1.4,2.1,2.1,3.2c-1.2-0.1-2.6,0.1-3.5-0.5c-4.4-3-8.6-6.2-12.9-9.5
	c-5.8-4.5-11.9-8.3-19.5-9.1c-0.8-0.1-1.5-1.3-2.2-2c0.8-0.8,1.4-2,2.3-2.2c3.9-0.8,6.9,1.6,10,3.3
	C254.5,281,257.7,283.3,261.2,285.5z"/>
<path d="M278.8,294.1c-4.5-2.7-8.8-5.5-13.1-8.4c-3.1-2.1-6.1-4.3-9.1-6.5c-0.3-0.3-0.6-1-0.5-1.4c0.1-0.3,0.8-0.6,1.3-0.7
	c3.4-0.7,5.3,1.7,7.5,3.5c3.9,3.1,7.7,6.2,11.5,9.3c0.4,0.4,1.1,0.4,1.7,0.6c-0.2-0.7-0.1-1.7-0.5-2.2c-2.9-3-5.9-5.9-8.8-8.9
	c-0.7-0.7-1.1-1.6-1.6-2.5c1.4,0,3.3-0.6,4,0.1c3,2.8,5.8,5.9,8.4,9C281.8,288.8,280.6,291.5,278.8,294.1z"/>
<path d="M258.2,382.4c1.4,1.2,2.5,2.4,3.6,3.6c-1.6,0-3.3,0.2-4.9-0.1c-2.2-0.3-4.4-0.8-6.6-1.4c-2.2-0.6-4-1.6-5.7-3.6
	c-2.7-3.3-6.9-2.2-10.7-1.8c-0.2,0-0.4,0.4-0.6,0.4c-1.6,0.1-3.2,0.1-4.8,0c-0.2,0-0.5-1.6-0.3-1.8c1.5-0.9,3.1-2.4,4.7-2.4
	c3.9,0,7.8,0.8,11.7,0.9c3.3,0.1,5.4,1.9,7.7,4C253.6,381.6,256,381.8,258.2,382.4z"/>
<path d="M248,400.2c0.7-0.9,1-2,1.7-2.3c0.8-0.3,1.9,0,2.8,0.2c0.1,0,0.2,1.3-0.1,1.9c-3.7,8.3-7.4,16.7-11.5,24.9
	c-0.6,1.3-2.6,2.2-4.1,2.6c-1.8,0.4-3.9,0.2-5.8,0c-0.5,0-1.3-0.7-1.5-1.2c-0.2-0.5,0.2-1.4,0.6-1.8c0.3-0.4,1.1-0.6,1.5-0.5
	c6.6,2.5,7.4-3.3,9.1-6.9C243.5,411.7,245.5,406,248,400.2z"/>
<path d="M160,373.1c-1.2-5.9-2.4-11.5-3.6-17.1c-0.2-0.8-0.5-1.5-0.8-2.3c-0.2,0.7-0.4,1.4-0.7,2.1c-0.3,0.8-0.5,1.5-0.8,2.2
	c-0.7-0.6-1.7-1.1-2-1.8c-0.7-1.7-1.1-3.6-1.4-5.5c-0.1-0.6,0.5-1.7,1-1.9c0.5-0.2,1.5,0.2,2.1,0.7c1.2,0.9,1.4,3.1,3.8,2.4
	c0.5-0.1,2,1.5,2.2,2.5c1.3,6,2.5,12.1,3.6,18.1c0.2,1.1-0.7,2.3-1,3.4C161.7,375.2,160.9,374.3,160,373.1z"/>
<path d="M383.7,396.2c-3.1,4.6-6,9-9.1,13.3c-0.3,0.4-1.3,0.3-1.9,0.4c0-1.1-0.5-2.5,0-3.4c2-3.3,4.6-6.2,6.4-9.5
	c2.6-4.7,4.8-9.7,7.2-14.5c0.6-1.1,1.5-2,2.3-3c0.4,1.3,0.8,2.7,1.1,4c0,0.1-0.2,0.2-0.2,0.2C390.8,389.3,386.2,392.1,383.7,396.2z"
	/>
<path d="M175.8,408.2c-0.1,1.7-0.2,3-0.3,4.3c-1.1-0.8-2.2-1.6-3.3-2.4c-1.1-0.9-2.2-1.9-3.4-2.7c-1.7-1.1-4-7-3-8.7
	c0.4-0.7,1.7-1.2,2.6-1.2c3.3,0.2,5.5,2.9,6,6.3C174.6,405.2,175.3,406.5,175.8,408.2z"/>
<path d="M312.4,419.9c-4.6-4.4-8.4-9.3-14.6-11.1c-0.7-0.2-1.1-1.6-1.7-2.4c1.4-0.3,3-1.1,4.1-0.7c4.7,2.1,9.4,4.4,12.2,9.2
	c0.9,1.5,2,2.7,3,4.1c0.4,0.7,0.6,1.6,0.9,2.4c-1-0.2-2-0.3-2.9-0.6C313.1,420.7,312.9,420.3,312.4,419.9z"/>
<path d="M225.8,434.6c-4.6-3.4-3.4-8-2.6-12.5c0.5-2.5,1.3-4.9,2.1-7.3c0.4-1.1,1.2-2.1,2-3.1c0.2-0.3,0.9-0.2,1.4-0.3
	c0,0.5,0.2,1,0.1,1.5c-0.5,2.5-1.4,5-1.7,7.5c-0.4,3.3-0.3,6.7-0.5,10C226.5,431.7,226.2,433,225.8,434.6z"/>
<path d="M241.7,468.4c-0.2-4.3-0.6-8.2-0.7-12.2c0-1.3,0.1-2.9,0.8-3.9c0.8-1.1,2.3-1.7,3.5-2.5c0,1,0.1,2.1,0,3.1
	c-0.4,4.6-1,9.1-1.4,13.7c-0.1,0.8,0.7,1.6,0.9,2.4c0.3,1,0.7,2.2,0.5,3.2c-0.1,0.6-1.5,0.8-2.2,1.2c-0.4-1.1-0.9-2.1-1.3-3.2
	C241.6,469.8,241.7,469.2,241.7,468.4z"/>
<path d="M332.5,410.6c-0.9-0.6-1.7-1.1-2.4-1.5c0.1,0.8,0.4,1.6,0.4,2.4c0,0.8-0.2,1.6-0.3,2.5c-0.9-0.4-2.5-0.7-2.6-1.2
	c-0.2-2.4-4.8-2-3.3-5.1c1.7-3.4,5.6-3.9,8.3-1.2c0.8,0.8,1.7,1.4,2.2,2.3c0.6,0.9,0.8,1.9,1.2,2.9
	C334.9,411.3,333.8,411,332.5,410.6z"/>
<path d="M158.1,433.1c0.3-0.8,0.8-1.9,1.1-1.9c3.8,0.4,7.5,0.9,11.3,1.5c0.4,0.1,0.7,1.1,1,1.6c-0.7,0.4-1.4,1.1-2,1
	C165.7,434.8,162,434,158.1,433.1z"/>
<path d="M249.6,463.4c0,1.4,0.2,2.5-0.1,3.6c-0.2,0.8-0.8,1.4-1.3,2.2c-0.7-0.8-2.2-1.6-2.1-2.4c0.2-3.4,0.8-6.8,1.4-10.1
	c0.1-0.7,1.1-1.2,1.6-1.8c0.5,1,1.4,2,1.4,2.9C250.5,459.5,249.9,461.3,249.6,463.4z"/>
<path d="M320.3,417.4c-1,0.1-2.2,0.3-2.6-0.2c-1.2-1.3-2.1-2.9-3.1-4.4c-2-3.3,1.4-2.9,2.7-3.9c1.9-1.5,3.3-0.4,4.3,1.1
	c0.2,0.3-0.6,1.8-0.9,1.8c-4.7-0.2-1.9,2.2-1.3,3.7C319.7,416.1,320.2,416.6,320.3,417.4z"/>
<path d="M180.6,451c-3.1-2.7-2.4-6.8-3.4-10.3c-0.1-0.2,0.8-1,0.9-0.9c0.8,0.4,2.1,0.9,2.2,1.4C180.7,444.4,180.7,447.6,180.6,451z"
	/>
<path d="M205.2,437.6c-2.2,1.1-4.3,1.9-6.5,2.5c-0.3,0.1-1.2-0.4-1.2-0.6c-0.1-0.9-0.2-1.9,0.2-2.6
	C199.3,434.1,203.2,434.3,205.2,437.6z"/>
<path d="M356.5,353.2c1.5,2,2.8,4.2,4.1,6.4c0.1,0.2-0.6,1.1-1,1.2c-0.4,0.1-1-0.3-1.4-0.7C355.9,358.4,356.4,355.8,356.5,353.2z"/>
<path d="M235.1,416.6c-0.9,0.6-1.6,1.1-2.4,1.6c-0.2-0.7-0.4-1.5-0.5-2.2c0-0.1,0.2-0.2,0.2-0.3c-0.3-2.3,0.9-3.5,2.8-4.4
	C235.2,413.1,235.2,414.8,235.1,416.6z"/>
<path d="M235.3,435.4c0-0.6-0.1-0.9,0-1.1c0.8-1.3,1.6-2.6,2.4-4c0.6,0.5,1.9,1.3,1.8,1.5c-0.7,1.7-1.6,3.3-2.5,4.9
	C236.4,436.5,235.8,436.2,235.3,435.4z"/>
<path d="M255.3,468.4c-0.7,0.6-1.5,0.8-2.2,1c-0.2-1.4-0.4-2.9-0.4-4.3c0-0.3,1.1-0.6,1.6-0.9c0.3,0.9,0.7,1.9,1,2.8
	C255.4,467.3,255.3,467.7,255.3,468.4z"/>
<path d="M324.8,417.5c-1-0.6-1.6-1.1-2.1-1.7c0.8-0.6,1.5-1.7,2.3-1.8c0.6-0.1,1.3,1.1,2,1.8C326.4,416.4,325.8,417,324.8,417.5z"/>
<path d="M236.5,146.2c-3.7-0.4-5.5-2.4-4.1-4.5c0.4-0.6,1.4-1.3,2.1-1.3c6.1,0.1,10.9-3.1,15.9-5.8c9.9-5.3,16.6-13.6,22.1-23.1
	c1.5-2.6,2.9-2.8,4.8-0.4c5.7,7,11.3,14.2,17,21.2c3.1,3.8,7.6,5.2,12.2,5.8c3.9,0.5,4.6,2,3.3,5.8c-1.1,3.5-3.5,3.8-6.6,4.3
	c-10.6,1.8-21.3,1.3-32,1.3c-4.2,0-8.4,0-12.7,0C251.2,149.6,243.9,148.4,236.5,146.2 M264.3,141c3.9-0.2,7.9-0.6,11.8-0.7
	c3.8-0.1,7.6,0,11.4-0.1c0.7,0,1.4-0.3,2.2-0.5c-0.4-0.6-0.7-1.2-1.2-1.7c-4.2-4.7-8.5-9.3-12.6-14.1c-2.5-3-2-2.9-4.2,0.3
	c-4.1,5.8-7,13-15.2,14.6c-0.4,0.1-0.8,0.7-1.2,1.1c0.5,0.3,0.9,0.9,1.4,1C259,141.1,261.3,141,264.3,141z"/>
<path d="M224.7,129.4c1.3,1,1.4,1.9,0,2.3c-4.3,1.4-8.1,4-13.2,3.8c-7-0.4-14.1,0.3-21.2,0.6c-7.3,0.2-14.6,0.5-21.9,0.7
	c-1.4,0-3.6,0.5-3.2-1.9c0.2-1,2.2-2.2,3.5-2.3c4.4-0.3,8.9,0,13.4-0.1c11-0.4,22-0.9,33.1-1.5c2.2-0.1,4.3-1.2,6.4-1.7
	C222.5,129.1,223.5,129.2,224.7,129.4z"/>
<path d="M184.2,157c9.3,1.5,18.4,2.9,27.5,4.1c5.9,0.8,11.8,1.4,17.7,2.2c0.7,0.1,1.4,0.8,2.1,1.2c-0.8,0.3-1.7,1-2.5,0.9
	c-7-0.6-14-1.3-20.9-2.1c-6-0.7-12.1-1.4-18.1-2.2c-6.9-0.9-13.8-1.9-20.6-2.8c-3-0.4-6-0.4-9-0.8c-1.1-0.2-2.2-1.1-3.2-1.7
	c1-0.4,2.1-1.1,3-1.1c7.1,0.6,14.2,1.4,21.3,2.1C182.4,156.8,183.2,156.8,184.2,157z"/>
<path d="M354.9,167.5c-12.2,0.2-24,0.5-35.9,0.7c-1.2,0-2.3-0.7-3.5-1c1.2-0.6,2.3-1.6,3.5-1.7c4.9-0.4,9.8-0.6,14.7-0.8
	c3.7-0.1,7.5,0.1,11.2,0c10-0.4,19.9-1,29.8-1.3c1.7-0.1,3.4,1,5,1.6c-1,2.4-3.2,1.9-5.1,1.9c-5.2,0-10.3,0-15.5,0
	C357.9,166.9,356.6,167.3,354.9,167.5z"/>
<path d="M336.4,154.1c3.6-0.1,7.9-1.2,10.4,0.4c4.6,3,9,1.6,13.5,1.6c1,0,2-0.2,2.8,0.1c0.7,0.3,1.2,1.1,1.8,1.7
	c-0.7,0.4-1.3,1-2.1,1c-3.5,0.3-7,0.8-10.4,0.7c-2.4-0.1-4.8-1.2-7.3-1.3c-5-0.4-10-0.5-15.1-0.6c-4-0.1-8-0.1-12,0
	c-2.6,0.1-5.3,0.5-7.9,0.5c-2,0-4-0.5-6-0.8c1.7-0.9,3.3-2.1,5.1-2.6c1.7-0.4,3.6-0.1,5.3-0.1C321.8,154.5,329,154.4,336.4,154.1z"
	/>
<path d="M342,134.6c-5.4,0.5-10.5,1-15.5,1.4c-3.7,0.3-7.4,0.6-11.2,0.7c-0.9,0-1.8-0.9-2.7-1.4c0.8-0.7,1.6-1.5,2.6-2
	c0.4-0.3,1.2,0,1.8-0.1c11.1-0.9,22.1-2,33.2-2.8c5.5-0.4,10.9-0.3,16-2.8c0.6-0.3,1.9,1,2.9,1.5c-0.7,0.7-1.3,1.7-2.1,1.9
	c-2.9,0.9-5.8,1.8-8.8,2.2C353,133.8,347.6,134.1,342,134.6z"/>
<path d="M284,169c-7.8-0.2-15.2-0.4-22.6-0.8c-1.1-0.1-2.1-1.1-3.2-1.7c1-0.6,2.1-1.8,3.1-1.8c8.6,0.3,17.2,1,25.9,1.3
	c3.6,0.1,7.3-0.4,10.9-0.6c0.8-0.1,1.8-0.2,2.5,0.1c0.8,0.3,1.4,1.2,2.1,1.8c-0.7,0.3-1.4,1-2.1,1C295.1,168.5,289.7,168.7,284,169z
	"/>
<path d="M278.2,155.3c3.5-0.2,6.6-0.5,9.7-0.7c0.8-0.1,1.8-0.3,2.5,0.1c0.8,0.4,1.4,1.4,2.1,2.1c-0.7,0.5-1.3,1.2-2.1,1.3
	c-2.4,0.4-4.8,0.7-7.2,0.7c-9.5,0.1-19.1,0.1-28.6,0c-1,0-1.9-0.8-2.9-1.3c1-0.7,2.1-2.1,3.1-2.1
	C262.5,155.3,270.2,155.3,278.2,155.3z"/>
<path d="M327.8,148.7c0.3-1,0.6-2.4,1.3-2.6c2-0.5,4-0.7,6.1-0.8c7.9-0.5,15.8-1,23.7-1.4c0.6,0,1.2-0.1,1.8,0
	c0.7,0.2,1.4,0.7,2.1,1c-0.6,0.4-1.1,0.9-1.7,1.1c-1.7,0.6-3.4,1.2-5.1,1.4c-3.7,0.4-7.4,0.6-11.1,0.8
	C339.2,148.4,333.6,148.7,327.8,148.7z"/>
<path d="M332,126c0.9,0.3,1.5,0.7,2.1,1c-0.5,0.4-1,1-1.5,1.1c-2,0.6-4.1,1.2-6.2,1.4c-7.8,0.8-15.6,1.5-23.4,2.1
	c-1,0.1-2.2-0.8-3.2-1.2c0.9-0.6,1.9-1.7,2.9-1.8c5.1-0.5,9.9-2.4,15.4-1.5C322.3,127.9,327.1,126.4,332,126z"/>
<path d="M171.5,128.1c-4.6,0-8.8,0.1-13,0c-1.1,0-2.2-0.5-3.2-0.8c-0.1,0,0-1.3,0.2-1.4c1.2-0.5,2.4-1,3.6-1.1
	c5.4-0.3,10.7-0.6,16.1-0.8c1.7-0.1,3.4,0.2,5,0.4c0.2,0,0.3,0.8,0.5,1.2c-1.7,0.6-3.3,1.3-5,1.8
	C174.5,127.7,173.2,127.9,171.5,128.1z"/>
<path d="M392.1,152.5c1.5,0.8,1.6,1.7,0.2,2.1c-1.6,0.4-3.4,0.7-5.1,0.7c-5,0.1-10.1,0.1-15.1,0c-1.2,0-2.4-0.8-3.6-1.3
	c1.3-0.8,2.5-2.2,3.8-2.2C378.8,151.9,385.3,152.2,392.1,152.5z"/>
<path d="M233.8,148.2c0.7,0.1,1.1,0.1,1.3,0.3c0.7,0.5,1.4,1.2,2,1.8c-1,0.3-1.9,0.8-2.9,0.8c-3.3,0.1-6.7-0.1-10,0.1
	c-2.4,0.2-4.8,0.9-7.3,1.4c-0.7,0.1-1.5,0-2.2,0c0.1-0.8,0-1.9,0.4-2.4c0.8-0.8,2-1.8,3.1-1.8C223.4,148.1,228.4,148.2,233.8,148.2z
	"/>
<path d="M351.8,140.5c-1.6-1.8-1.4-2.9,0.6-3c6-0.2,12.1-0.1,18.1,0c0.5,0,1,0.8,1.5,1.2c-0.5,0.5-1,1.5-1.5,1.5
	c-2.9,0.2-5.8,0-8.6,0.1C358.6,140.4,355.3,140.5,351.8,140.5z"/>
<path d="M213.8,158.9c-3.5-0.2-6.6-0.4-9.7-0.8c-0.8-0.1-1.6-0.7-2.4-1c0.8-0.6,1.6-1.7,2.4-1.7c4.4,0.1,8.8,0.5,13.2,0.9
	c2.2,0.2,4.5,0.7,6.7,1.2c0.5,0.1,0.9,0.7,1.3,1.1c-0.6,0.4-1.2,1-1.7,1C220.4,159.5,217.2,159.2,213.8,158.9z"/>
<path d="M208.2,124c-3.9,0.3-7.7,0.5-11.4,0.5c-0.8,0-1.6-1.1-2.4-1.7c0.8-0.6,1.6-1.6,2.5-1.7c4.3-0.2,8.5-0.1,12.8,0
	c0.7,0,1.3,1,1.9,1.5C210.5,122.9,209.5,123.4,208.2,124z"/>
<path d="M186,147.6c4.2-0.2,8.2-0.3,12.2-0.1c1.1,0.1,2.1,1,3.2,1.6c-1,0.6-1.9,1.8-2.9,1.8c-4,0-8.1-0.3-12.1-0.7
	C186.2,150.2,186,148.7,186,147.6z"/>
<path d="M233.1,127.4c3.7,0,7-0.2,10.3,0.1c1.2,0.1,2.2,1.5,3.3,2.3c-1.1,0.4-2.2,1.1-3.4,1.1c-3,0.2-6,0.1-9,0
	c-0.8,0-2.2-0.4-2.3-0.9C231.8,129.3,232.4,128.3,233.1,127.4z"/>
<path d="M249.6,162.5c2.4,0.6,3.2,2.1,0.9,2.7c-3.2,0.8-6.6,0.6-10,0.7c-0.3,0-1-1.2-0.9-1.3c0.8-0.8,1.6-1.9,2.5-2
	C244.4,162.3,246.8,162.5,249.6,162.5z"/>
<path d="M175.1,146.7c1.1,0.5,2.1,0.9,2.5,1.6c0.2,0.4-0.6,1.9-0.9,1.9c-3.1-0.1-6.3-0.4-9.4-0.7c-0.3,0-0.9-1-0.8-1.1
	c0.5-0.6,1.1-1.6,1.7-1.7C170.4,146.6,172.6,146.7,175.1,146.7z"/>
<path d="M186.4,126.5c-1.5-0.2-2.8-0.7-4.1-1.1c0.2-0.5,0.4-1.5,0.7-1.5c1.4-0.2,2.9-0.2,4.3,0c0.5,0,0.9,0.6,1.3,1
	C187.9,125.3,187.2,125.8,186.4,126.5z"/>
<path d="M297.6,122.4c0.5,0.8,0.6,1.6,0.8,2.5c-1-0.1-2.2,0.1-3.1-0.3c-0.5-0.2-0.6-1.4-0.9-2.1
	C295.3,122.4,296.2,122.4,297.6,122.4z"/>
<path d="M359,118.6c-0.3,0.3-0.5,0.6-0.7,0.7c-1.2,0.2-2.4,0.3-3.6,0.5c0-0.6-0.1-1.8,0.1-1.9c1.1-0.3,2.2-0.4,3.4-0.4
	C358.5,117.5,358.9,118.1,359,118.6z"/>
<path d="M235.4,160.9c0.6-1.4,0.9-4,3.2-1.7c0.4,0.4-0.2,1.8-0.3,2.8C237.4,161.7,236.5,161.4,235.4,160.9z"/>
<path d="M209.3,192.8c-1.3-0.7-2.3-1.3-3.4-1.9c1.3-0.4,2.6-1.3,3.8-1.1c7.3,1,14.5,2.4,21.8,3.5c10.4,1.5,20.8,2.9,31.2,4.3
	c3.3,0.4,6.7,0.5,10.1,0.7c10.8,0.7,21.6,1.4,32.4,2.2c2.9,0.2,5.8,0.6,8.7,0.7c13.9,0.3,27.7,0.6,41.6,0.7
	c9.2,0.1,18.2-1.6,27.2-3.5c4.9-1,9.9-1.5,14.9-2.2c0.6-0.1,1.3,0.5,1.9,0.8c-0.6,0.4-1.1,1.1-1.8,1.3c-10,2.2-19.8,5.2-29.9,6.3
	c-10,1.1-20.1,0.2-30.2,0.2c-0.8,0-1.7,0-2.5,0c-9.9-0.2-19.9-0.4-29.8-0.8c-6.7-0.3-13.5-0.8-20.2-1.4c-9.8-0.9-19.5-1.8-29.3-2.9
	c-9.3-1-18.6-2.3-27.9-3.6C221.7,195.3,215.6,194,209.3,192.8z"/>
<path d="M215.9,215.5c-1.3-0.2-2.4-0.3-3.3-0.8c-0.9-0.4-1.6-1.2-2.4-1.8c0.8-0.4,1.6-1,2.4-1c3.6,0.1,7.2,0.3,10.8,0.7
	c4.8,0.6,9.7,1.5,14.5,2.1c8.4,1,16.9,2,25.3,2.9c3.8,0.4,7.7,0.7,11.5,0.7c11,0.1,22,0.1,32.9,0c12.2-0.1,24.4,0,36.6-0.8
	c10.1-0.7,20.5,0.1,30.4-3.4c1.8-0.6,3.4-1.7,5.2-2.2c0.9-0.3,1.9,0.2,2.9,0.3c-0.4,0.9-0.7,2.4-1.4,2.6c-5.3,1.6-10.7,3.8-16.1,4.2
	c-14.2,1-28.5,1.1-42.7,1.6c-6.2,0.2-12.4,0.5-18.7,0.7c-6.9,0.3-13.9,1-20.8,0.6c-9.8-0.5-19.5-1.8-29.2-2.7
	c-5-0.5-10.1-1-15.2-1.4C231.2,217,223.7,216.2,215.9,215.5z"/>
<path d="M396.6,190.6c1.5,0.1,2.8,0.4,4.1,0.7c-1.4,0.6-2.6,1.7-4.1,1.9c-7.7,1.1-15.4,2-23.1,2.9c-0.4,0-0.7,0-1.1,0
	c-8.7,0.2-17.5,0.5-26.2,0.7c-8.1,0.2-16.3,0.5-24.4,0.7c-0.7,0-1.4-0.4-2.1-0.6c0.7-0.5,1.3-1.4,2-1.5c4.9-0.6,9.9-1.3,14.8-1.4
	c9.1-0.2,18.2,0.3,27.2-0.2C374.7,193.3,385.6,191.9,396.6,190.6z"/>
<path d="M349,211c-8.2,0.7-16.2,1.2-24.2,1.6c-4.4,0.2-8.9,0.1-13.3,0c-1,0-2.1-0.7-3.1-1.1c0.8-0.6,1.6-1.3,2.5-1.7
	c1-0.4,2.2-0.7,3.3-0.7c8-0.1,16,0,23.9-0.1c2.8,0,5.5-0.6,8.3-0.6C348.3,208.4,349.2,209.3,349,211z"/>
<path d="M199.6,191.7c-0.3,0.9-0.9,2.3-1.4,2.2c-6-0.6-12.1-1.3-18.1-2.1c-0.6-0.1-1-1.2-1.5-1.9c0.7-0.3,1.5-0.9,2.2-0.9
	C187,189.8,193.2,190.7,199.6,191.7z"/>
<g>
	<path class="st0" d="M395,268.2c0.7,0,1.6,0.3,2.1-0.1c2.5-1.5,2.1-4.8-1.1-7.3c-0.8-0.6-2.7-0.4-3.8,0.1c-1.4,0.6-1.7,1.7-0.2,3
		C393.2,264.9,393.8,266.5,395,268.2z"/>
	<path class="st0" d="M132.3,207.5c2.1,1,4.4,1.6,6.9,2.7c11.3,2.7,22.5,5.6,33.8,8.2c7.1,1.6,14.3,3,21.5,4.3
		c5,0.9,10.1,1.4,15.2,2.2c5.9,0.9,11.9,1.8,17.8,2.8c4.7,0.7,9.4,1.5,14.1,2.2c0.9,0.1,1.9-0.4,2.8-0.6c-0.9-0.5-1.7-1.3-2.7-1.5
		c-9.8-2.2-19.7-4.2-29.5-6.5c-13.5-3.2-26.9-6.5-40.3-9.9c-5.7-1.4-11.4-3.7-17.2-4.2c-7-0.6-13.3-2.9-19.8-5.1
		c-1.3-0.4-3.9-0.3-4.1,0.3C130.2,204,130.1,206.4,132.3,207.5z"/>
	<path class="st0" d="M400.9,262.6c0.4,0.4,1.2,0.9,1.7,0.8c3.7-0.6,5.8-5.6,3.5-9.2c-1.5-0.6-8.2,0.9-8.6,2.3
		c-0.2,1.1,1.1,2.6,1.9,3.8C399.9,261.2,400.3,261.9,400.9,262.6z"/>
	<path class="st0" d="M387.1,248.1c-1.5-0.6-3.1-1.2-4.6-1.7c-0.7-0.2-1.4,0-2.9,0c-0.8,0.4-1.7,0.9-2.5,1.3c0.5,0.5,1.1,1,1.6,1.5
		c0.4,0.4,0.9,0.7,1.3,1.1c2.1,2.5,3.9,0.2,5.8-0.5C386.4,249.6,386.7,248.7,387.1,248.1z"/>
	<path class="st0" d="M398.7,246.9c-2.9-1.6-4.6,0.2-5.8,3.4c1.2,1.1,2.5,3.2,3.5,3c1.8-0.3,3.4-1.9,5.1-3
		C400.5,249.1,399.8,247.5,398.7,246.9z"/>
	<path class="st0" d="M391.9,245c-0.6-0.2-1.3-0.3-2.3-0.2c0.5,0.5,1,0.9,1.5,1.4C391.4,245.9,391.7,245.5,391.9,245z"/>
	<path class="st0" d="M396.9,136.6c0.2-0.6-0.1-1.4-0.2-2.1c0-0.1-0.8-0.3-0.9-0.2c-1.5,1.9-2.9,3.8-3.9,6
		C394,139.8,396.1,139.1,396.9,136.6z"/>
	<path class="st0" d="M391.8,254.2c-0.6-0.6-1.2-1.7-1.8-1.7c-1.7,0.1-3.3,0.5-4.9,1c-0.4,0.1-0.9,1.3-0.8,1.4
		c1.6,1.2,3.2,3.1,5.1,3.4C391.7,258.8,392.3,256.7,391.8,254.2z"/>
	<path class="st0" d="M147.9,141c0.5,0,1-0.4,1.4-0.5c-0.2-0.4-0.3-0.9-0.7-1.1c-0.9-0.7-1.8-1.3-2.8-1.9c-2.7-1.6-5.4-3.1-8.4-5
		c-0.6-0.8-1.1-1.7-1.8-2.5c-0.4-0.5-1-1-1.5-1.4c-0.2,0.7-0.7,1.5-0.6,2.2C135.1,137.2,141.3,141.6,147.9,141z"/>
	<path class="st0" d="M158.9,188.3c-8.5-1.2-17.1-1.4-25.2-4.9c-0.8-0.3-2.1,0.6-3.1,1c0.4,0.9,0.6,2,1.3,2.6
		c0.7,0.7,1.7,1.1,2.7,1.3c3.2,0.7,6.4,1.2,10,2.2c6.9,1.2,13.8,2.4,20.7,3.6c14.7,2.6,29.3,5.4,44,7.8c8.5,1.4,17.1,2.6,25.7,3.6
		c10.3,1.2,20.7,2.1,31,2.9c6.8,0.5,13.6,0.5,20.5,0.8c3.2,0.1,6.5,0.3,9.7,0.8c0.9,0.1,1.7,1.2,2.6,1.8c-0.8,0.3-1.7,0.9-2.5,0.9
		c-3.7-0.1-7.4-0.5-11.2-0.6c-8-0.3-16-0.3-24.1-0.8c-8.4-0.5-16.9-1.2-25.2-2.2c-5.4-0.6-10.7-1.8-16-2.7c-6.5-1-13-2.1-19.5-2.9
		c-4.4-0.6-9-0.7-13.4-1.5c-6.8-1.2-13.6-2.8-20.4-4.2c-10.4-2.2-20.9-4.4-31.4-6.4c-1.4-0.3-3,0.6-4.6,1c0.7,1.4,1.2,2.9,2.1,4.1
		c0.5,0.7,1.7,1,2.7,1.2c15.2,4.3,30.3,8.7,45.5,12.9c9.1,2.5,18.3,5,27.5,7.1c9.9,2.3,19.9,4.4,29.9,6.5c8.9,1.8,17.9,3.7,26.9,4.9
		c7.7,1,15.6,1.2,23.4,1.5c8.8,0.4,17.5,0.6,26.3,0.7c4.9,0.1,9.9,0.2,14.8,0c4.8-0.2,9.6-1.2,14.5-1.3c12.2-0.3,24.1-2.4,35.9-5.1
		c7.3-1.7,14.6-3.4,21.9-5c2.7-0.6,3.7-2.2,2.9-4.8c-0.8-2.4-2.4-2.9-4.9-2.1c-2.9,0.9-5.9,1.3-8.9,1.8c-0.6,0.1-1.2-0.3-1.8-0.5
		c0.4-0.6,0.6-1.4,1.1-1.6c2.9-1,5.8-2.4,8.9-2.7c3-0.4,3.8-1.7,3.6-4.4c-0.3-5-0.4-10.1-0.8-15.1c-0.2-2.5-1.7-3.2-4.1-2.7
		c-4.2,1-8.3,2.2-12.5,2.6c-8.4,0.8-16.8,1.2-25.2,1.5c-16.7,0.6-33.3,1.2-50,1.4c-9,0.1-17.9-0.5-26.9-0.6c-3.2,0-6.5,0.6-9.7,0.6
		c-4.1,0-8.2-0.4-12.2-0.7c-7-0.5-13.9-0.7-20.9-1.5c-9.6-1-19.1-2.5-28.6-3.5c-10-1.1-20-2-30-2.9c-9.8-0.8-19.4-2.9-28.8-5.7
		c-5.8-1.7-11.9-2.6-17.8-3.6c-1.4-0.2-3.9-0.9-3.8,1.6c0,1.1,1.7,2.9,3,3.2c8.3,1.9,16.7,3.5,25.1,5.1c3.2,0.6,6.5,0.9,9.8,1.5
		c0.8,0.1,1.4,0.9,2.1,1.4c-0.8,0.5-1.6,1.4-2.4,1.4C165.7,189.4,162.3,188.8,158.9,188.3z"/>
	<path class="st0" d="M135,157.4c5.7,1.4,11.4,2.6,17.1,3.6c10.7,2,21.3,3.9,32,5.7c3.1,0.5,6.2,0.5,9.3,0.9
		c6.2,0.8,12.4,2,18.6,2.7c5.2,0.5,10.4,0.5,15.6,0.8c7.1,0.4,14.3,0.9,21.4,1.4c7.5,0.6,14.9,1.8,22.4,2
		c10.8,0.4,21.6,0.2,32.4,0.1c7.2-0.1,14.4-0.5,21.6-0.7c5.5-0.1,11.1,0.1,16.6-0.1c4.2-0.1,8.4-0.4,12.6-0.7
		c2.9-0.2,5.8-0.5,9.4-0.7c2.9-0.5,5.8-1,8.7-1.4c5.7-0.8,11.4-1.3,17-2.2c2-0.3,3.9-1.9,5.9-2c2.5-0.1,3.2-1,3.1-3.4
		c-0.2-5.6-0.2-11.2,0-16.8c0.1-4-0.2-4-4.1-2.9c-4.7,1.4-9.7,2.1-14.6,2.8c-0.8,0.1-2.7-2.2-2.5-2.5c2.2-4,4.4-8.1,7.3-11.7
		c2.8-3.5,6.3-6.4,9.5-9.7c0.4-0.4,0.5-1,0.8-1.5c-0.5-0.1-1.1-0.4-1.6-0.3c-1.5,0.2-2.9,0.6-4.4,0.7c-12.5,1-22.9-3.1-31.3-12.5
		c-1.6-1.8-2.9-1.9-4.4,0.5c-1.4,2.3-3.5,4.3-5.4,6.3c-3.2,3.4-7.5,4.1-11.7,5.4c-10.6,3.2-21,3.2-31.6-0.1c-12.7-4-19.3-14-25-25
		c-0.5-0.9-1.3-1.7-2-2.6c-0.5,1-1.4,1.9-1.5,3c-0.8,7.3-5.1,12.9-10.2,17.2c-8.7,7.4-19,11.4-30.9,10c-6.5-0.8-13-1.8-17.9-6
		c-4.6-4-8.1-9.4-12-14.2c-0.6-0.7-1.2-1.4-1.8-2c-0.4,0.7-0.9,1.3-1.3,2c-3.2,7.3-9.9,10.5-16.7,12.9c-8.5,3.1-17.6,3.6-26.7,3
		c-3.5-0.3-7.1-0.7-10.5-1.5c-3-0.7-5.8-2-8.8-3c-0.9-0.3-1.9-0.2-2.9-0.3c0.4,0.7,0.7,1.6,1.3,2.2c1,1.2,2.3,2.1,3.3,3.3
		c5.7,7.2,12.2,13.6,20.6,17.6c3.6,1.7,1.6,4.5,1.7,6.7c0.1,1.1-1.8,2.9-3.1,3.5c-4.3,2-8.9,0.9-13.4,0.8c-2.5-0.1-5-0.6-7.5-0.9
		c-1-0.1-2.2-0.2-3.1,0.1c-0.3,0.1-0.6,1.8-0.4,2c0.9,0.7,2.1,1.4,3.2,1.6c2.1,0.5,4.3,0.6,6.4,1c0.6,0.1,1.1,1.1,1.6,1.7
		c-0.6,0.3-1.2,0.9-1.8,0.8c-3.1-0.2-6.2-0.6-9.3-0.7c-1-0.1-2.1,0.3-3.1,0.5C133.5,155.9,134.1,157.2,135,157.4z"/>
	<path class="st0" d="M133.3,408c1-0.4,2.3-1.6,2.3-2.4c0-6.9,2-13.3,4.2-19.7c0.2-0.5-0.5-1.3-1.2-1.6c-0.7,1-1.7,1.9-2.1,3.1
		c-2.1,5.7-4,11.4-5.9,17.2c-0.3,1-0.5,2.3,0,3.1C130.9,408.1,132.5,408.3,133.3,408z"/>
	<path class="st0" d="M260.1,432c0.7-0.3,1.4-0.4,2-0.9c1-0.8,2-1.7,2.8-2.8c1-1.3,1.7-2.8,2.5-4.2c-1.6,0.8-3.3,1.5-5.3,2.6
		c-0.6,0.9-1.3,1.8-1.7,2.8C260.1,430.4,260.2,431.2,260.1,432z"/>
	<path class="st0" d="M440.8,281.2c-2.2-9.6-6.6-18-15-23.8c-3.5-2.4-7.5-4.4-10.6-7.2c-2.8-2.6-5.8-4.4-9.3-5.2
		c-1.6-0.4-3.3,0.1-5,0.2c1.4,1.3,2.8,2.6,4.3,3.8c0.4,0.3,1.1,0.1,1.7,0.3c0.4,0.1,0.9,0.3,1,0.6c2,3.8,4,7.7,5.7,11.6
		c1.2,2.6,2.1,5.4,2.8,8.1c0.2,0.9-0.5,2.1-0.8,3.2c-0.6-0.9-1.3-1.9-1.9-2.9c-0.3-0.5-0.4-1-0.6-1.5c-2.1-6.3-2.2-6.4-7.3-2.5
		c-0.8,0.6-1.2,2.6-0.9,3.6c1.5,4,3.9,7.8,5.1,11.9c3.6,12.6,6.9,25.4,10.1,38.1c0.9,3.5,1.1,7.2,1.4,10.9c0.1,0.7-0.8,1.4-1.3,2.2
		c-0.5-0.5-1.3-1-1.5-1.6c-0.8-3.4-1.5-6.8-2.2-10.9c-1.4-6.5-2.5-13-4.4-19.4c-2.8-9.4-6.2-18.7-9.2-28c-0.6-1.8-1.2-3-3.5-2.1
		c-2.4,0.9-2.8,2.6-1.9,4.7c2.7,6.9,5.7,13.6,8.3,20.6c1.6,4.3,2.5,8.8,3.5,13.2c0.2,0.8-0.8,1.9-1.2,2.9c-0.5-0.8-1.3-1.5-1.5-2.3
		c-1-3.5-1.6-7.2-2.7-10.7c-2.5-7.4-5.3-14.8-8.2-22.1c-0.2-0.6-2.4-1.3-2.8-0.9c-4,3.5-7.8,7.1-11.6,10.8c-0.6,0.5-1.2,1-1.8,1.4
		c-0.3-0.8-0.9-1.7-0.8-2.5c0.1-0.9,0.6-2,1.3-2.6c3.5-3.2,7.2-6.2,10.7-9.5c0.8-0.7,1.5-2.2,1.4-3.2c-0.2-1.3-1.1-2.6-2-3.8
		c-1.3-1.8-2.7-2.9-4.8-0.5c-1,1.1-2.6,1.8-3.9,2.6c-0.5,0.3-1.2,0.3-1.8,0.4c0-0.7-0.3-1.8,0.1-2.1c1.4-1.3,3.1-2.4,4.5-3.6
		c0.6-0.5,1.3-1.4,1.2-1.9c-0.7-3.5-4.3-4.7-7.1-2.5c-1.9,1.5-3.8,3-5.8,4.3c-0.8,0.5-2,0.6-3,0.9c0.4-1.2,0.5-2.7,1.3-3.4
		c1.8-1.5,4-2.4,5.8-4c0.8-0.7,1.7-2.9,1.4-3.3c-2.7-3-5.3-6.3-10-5.9c-8.9,0.8-17.8,2-26.7,2.1c-22.1,0.1-44.2-0.3-66.3-0.6
		c-3.8,0-7.5-0.5-11.3-0.7c-13.8-0.7-27.6-1.4-41.4-2.2c-2.2-0.1-4.4-0.8-6.7-1.2c-5.5-1-11.1-2-16.6-3.1
		c-7.6-1.4-15.3-2.8-22.9-4.3c-6.4-1.3-12.7-2.9-19-4.2c-1.9-0.4-3.4,0.2-4.4,2c-1.8,3.4-3.7,6.8-5.7,10.2c-0.4,0.7-1.3,1.2-2,1.8
		c-0.3-0.8-0.6-1.7-0.8-2.5c-0.1-0.5,0.2-1.1,0.4-1.6c1.8-3.1,3.7-6.1,5.5-9.2c0.5-0.8,0.7-1.8,1-2.7c-1.1,0.2-2.2,0.2-3.1,0.6
		c-0.7,0.4-1.3,1.3-1.7,2.1c-1.9,3.1-3.7,6.3-5.7,9.5c-1.5,2.5-2.4,4.9,0,7.4c0.4,0.4,0.8,1.4,0.6,1.8c-2,3.6-3.3,7.6-7.3,10
		c-4.1,2.4-8.3,4.1-13,5.1c-6.6,1.4-11.3,6.4-16.4,10.4c-5.6,4.4-7,10.6-6,16.9c0.8,5.7,3,11.3,5.1,16.8c1.3,3.5,2.7,6.8,2.6,10.8
		c-0.2,11.1-0.6,22.1-3.6,32.9c-3.1,11.4-8.5,21.8-13.4,32.4c-2.4,5.1-5.4,10-7.2,15.3c-3.1,8.8,5,18.2,14.2,16.9
		c0.7-0.1,1.3-0.7,2-1.1c-0.5-0.6-0.8-1.4-1.4-1.7c-2.3-0.8-4.7-1.4-6.9-2.3c-0.9-0.4-1.6-1.5-2.4-2.2c0.8-0.7,1.5-1.9,2.3-1.9
		c3.3-0.1,2.2-1.6,1.3-3.4c-0.4-0.7-0.7-2-0.3-2.3c0.7-0.8,2-1.6,2.9-1.4c1.5,0.3,3,1,4.1,2c3.6,2.9,4.9,7.2,6.2,11.4
		c0.3,1.1,1.2,1.9,1.9,2.9c0.3-1.1,0.9-2.1,0.9-3.2c0-2.1-1.1-4.3-0.5-6.1c2.3-6.8,5-13.4,7.6-20.1c0.4-0.9,0.8-1.8,1.2-2.7
		c-1.3-0.2-2.7-0.5-4-0.6c-0.5,0-1.1,0.8-1.5,0.6c-0.7-0.3-1.3-1-2-1.5c0.5-0.4,0.9-0.9,1.4-1.3c2.2-1.6,4.6-0.8,7-0.8
		c0.8,0,1.6-0.9,2.3-1.4c-0.8-0.4-1.6-1.2-2.5-1.3c-0.8-0.1-1.7,0.3-2.6,0.7c-4,1.7-7.9,1-10.5-2.5c-0.6-0.8-0.3-2.2-0.4-3.4
		c1.1,0.2,2.2,0.1,3.2,0.6c1.2,0.6,2.1,1.7,3.3,2.3c0.6,0.3,1.5-0.2,2.3-0.3c-0.3-0.6-0.6-1.3-1-1.7c-1.5-1.4-3.5-2.5-4.7-4.1
		c-1.1-1.6-1.7-3.6-2.1-5.5c-0.1-0.5,2.2-2,2.5-1.8c1.4,1,2.6,2.4,3.8,3.7c2.3,2.5,4.4,5.2,6.9,7.4c0.6,0.5,2.9-0.3,3.9-1.1
		c1-0.7,1.2-2.4,2.1-3.3c0.7-0.7,1.1-1.2,1.2-1.6c-0.2,0.3-0.4,0.5-0.6,0.8l-0.5-0.4c0.2-0.4,0.4-0.7,0.6-1.1
		c-0.4-0.1-1.1-0.2-1.8-0.4c-2.4-0.5-5.3-1.2-6.9-2.9c-2-2-3.2-5-4.4-7.8c-2.6-6-2.4-10.3,1.5-12.8c5.5-3.5,4.2-8.1,4.1-13.3
		c-0.2-7.6-2.7-16,4.2-22.5c0.1-0.1-0.4-1.5-0.7-1.5c-2.5-0.2-4.3,0.9-5.4,3.3c-0.4,0.8-2,1.1-3.1,1.6c-0.6-1.2-1.9-3-1.5-3.5
		c1.9-2.3,4-5.7,6.4-6.1c7.8-1.5,15.7,0.2,22.6,3.8c7.9,4,12.4,16.8,9.6,25.5c-1.8,5.7-4,11.2-6.1,16.8c-0.4,1.1-1,2-0.4,2.6
		c0.1,0,0.3-0.1,0.4-0.1c0.6-0.1,1.3-0.1,1.9,0.2l-0.2,0.4c-0.3,0-0.6,0-0.9,0c0.2,0,0.4,0.1,0.6,0.1c1.4,0.2,2.9,1.9,3.9,3.2
		c3,3.7,3,8.4,3.4,12.9c0.2,2.3,0.7,3.7,3.4,3.9c2.7,0.1,4.6,2.9,3.8,5.4c-2.1,6.4-0.9,12.7,0.5,19.1c1.8,8,3.6,15.8-2.4,23.4
		c-4,5.1-10.4,5.6-14.7,1.5c-1.6-1.5-3-3.3-4.3-5c-2.5-3.3-4.5-3.4-7.5-0.6c-2.5,2.4-5.1,4.8-7.8,7.1c-3.4,2.8-7.6,5.7-11.8,3.9
		c-4.2-1.8-3.1,0.4-3.6,2.6c-1,4.5-0.7,9.1-2.3,13.7c-1.7,4.9-1,10.7-1.1,16.1c0,0.7,1.8,2.2,2.2,2c1.1-0.5,2.2-1.5,2.6-2.6
		c0.5-1.3,0.2-3,0.5-4.4c0.7-3.7,1.5-7.5,2.5-11.1c1.1-3.9,2.4-7.8,3.9-11.6c0.2-0.6,1.6-0.9,2.4-1.3c0.3,1.2,1.1,2.4,1,3.4
		c-0.6,3.9-1.5,7.7-2.3,11.6c-0.6,3.2-1.2,6.5-1.7,9.7c-0.8,4.9-1.4,9.5,3,13.5c3.8,3.4,8.2,4.6,12.9,5.2c4.3,0.6,5-0.4,3.6-4.5
		c-0.3-0.8-0.5-1.7-1-2.5c-4-6.3-7.2-12.6-6.3-20.5c0.5-4.3-0.2-8.7,0.2-13c0.2-1.6,1.8-3.9,3.2-4.4c2.4-0.8,2.7,1.7,3.1,3.4
		c0.3,1.8,0.8,3.6,0.7,5.4c-0.3,4.9-1.4,9.9-1.2,14.8c0.1,2.8,1.6,5.8,3.1,8.3c1.7,2.7,4,4.8,4,8.4c0,1.2-0.1,4.1,2.8,3.8
		c4.4-0.5,8.5-7.5,7.6-12.1c-1-4.8-1.3-9.8-2-14.7c-0.2-1.9-0.5-3.9-0.7-5.8c-0.3-3.1-1.3-6.3,0.8-9.1c0.6-0.8,2.1-0.8,3.2-1.2
		c0.1,0.8,0.2,1.7,0.3,2.5c0,1.4-0.2,2.9,0.1,4.3c0.1,0.5,1.8,1.4,2.1,1.1c4-2.5,10.8-1.9,14.6,1.4c6.9,5.9,7.9,10,5.8,20.1
		c-0.6,3.2,0.2,7,1.6,10c1.6,3.5,5.6,4.1,8.9,2.9c6.7-2.3,8.5-7.8,8.9-13.7c0.6-8.6,4.6-14.5,11.9-18.5c0.9-0.5,2.8,0.1,3.8,0.8
		c2,1.3,3.8,3,5.5,4.8c0.7,0.8,1.3,2.5,1,3.3c-2,4.5-3.3,9-2.7,14c0.1,0.5-0.5,1-0.5,1.6c0.1,3.6-0.3,7.5,3.2,9.9
		c1.3,0.9,3,1.7,4.6,1.7c4.5,0.2,9.7,2.1,12.9-2.6c1.5-2.2,1.3-5.4,2-8.1c0.3-0.9,1-1.7,1.6-2.6c0.9,0.6,2.4,1.2,2.6,2
		c0.5,1.9,0.5,4,0.4,5.9c-0.2,2.3,2.2,5.1,4.3,4.2c4-1.7,8.1-2,12.4-2.2c4-0.1,4.3-1.5,3.9-5.4c-0.4-4.9-1.4-10.3,0.2-14.7
		c2.9-8.4,5.1-17.3,11-24.4c0.5-0.6,0.5-1.6,0.7-2.4c-0.9,0.3-2.2,0.3-2.6,1c-2.3,3.3-4.6,6.7-6.4,10.2c-1.7,3.3-2.8,6.9-4.3,10.4
		c-0.3,0.7-0.8,1.2-1.2,1.8c-0.3-0.7-1.1-1.5-0.9-2.1c0.9-3.3,2-6.6,3-9.8c0.3-1,0.6-2,0.9-3c-1.2,0.5-3.1,0.6-3.6,1.4
		c-2.1,4.3-3.8,8.7-3.4,13.7c0.1,1.2-0.2,2.4-0.4,3.5c0,0.2-0.9,0.3-0.9,0.3c-0.5-1.1-1.3-2.2-1.4-3.3c-0.2-2.4-0.1-4.8-2.9-6
		c-0.3-0.2-0.6-1.2-0.5-1.7c1.3-3.5,2.7-7,4-10.5c0.2-0.4-0.3-1.5-0.7-1.7c-0.7-0.3-1.7,0.1-2.5-0.1c-0.8-0.2-1.6-0.6-2.5-1
		c0.4-0.7,0.7-1.4,1.2-2c2.4-2.5,5.4-4.5,7.2-7.4c3.3-5.3,8.4-5.5,13.6-6.2c4.5-0.6,9-2,13.5-2.7c2.7-0.4,5.7-1.1,8.1-0.3
		c7.2,2.3,13.6,6.3,18.6,12c7.1,8.1,9.7,7.1,15.8,2.1c5.3-4.3,11.4-6.6,17.6-8.7c7.2-2.4,14.5-0.5,21.4,1.9
		c5.9,2.1,11.7,4.7,17.6,6.7c2.7,0.9,5.1,2.1,7.5,3.7c1.8,1.2,5,2,6.9,1.3c4.1-1.6,7-5.5,7-9.7c0-5.8,2.8-9.2,7.2-12
		c4.6-3,6.5-6.3,5.1-10.4c-1.3-3.7-0.2-6.5,1.6-9.6c1.8-2.9,3.1-6.1,4.1-9.4c1.7-5.2,2.5-10.7,4.7-15.6c3-7,6.9-13.6,10.4-20.4
		c5.2-10.1,6.3-21.1,7.1-32.1c0.4-5.4,0.3-10.8,0-16.2C442,290.5,441.8,285.7,440.8,281.2z"/>
	<path class="st0" d="M254.6,432.2c0.9-0.4,1.8-0.9,2.7-1.3c-0.3-0.3-0.5-0.7-0.8-1C255.9,430.4,255.3,431,254.6,432.2z"/>
	<path class="st0" d="M122.1,260.9c2.8-1.6,5.5-3.4,8.4-4.8c4-1.9,5.6-4,5.1-7.8c-0.1-0.4-0.2-0.9-0.3-1.3c-0.5,0.2-1.2,0.3-1.4,0.7
		c-1.2,1.8-2.2,3.6-3.4,5.4c-0.4,0.6-1.3,1-2,1.5c-0.3-0.8-0.8-1.7-0.7-2.5c0.1-1.1,0.6-2.1,1.2-3.1c1.2-1.8,2.5-3.5,3.8-6
		c-0.6-5.2,4.1-7.8,5.6-12c0.3-0.8,0.6-1.5,0.9-2.3c-1.1,0.1-2.7-0.1-3.3,0.5c-1.4,1.3-2.1,3.2-3.4,4.6c-6.4,7.4-8.1,17.2-12.5,25.6
		c-0.3,0.5,0.4,1.4,0.6,2.2C121.1,261.4,121.6,261.2,122.1,260.9z"/>
	<path class="st0" d="M138.9,236.3c-0.5,1-1.1,1.9-1.5,3c-0.2,0.6-0.1,1.3-0.1,1.9c0.6-0.3,1.5-0.5,1.9-1c1.7-2.5,3.3-5,4.8-7.6
		c0.4-0.8,0.4-1.8,0.6-2.7c-1.1,0.4-2.6,0.5-3.2,1.3C140.5,232.6,140,234.3,138.9,236.3z"/>
	<path d="M447.9,282.7c-1.2-6.2-2.3-12.5-6.3-17.8c-2.6-3.4-4.4-7.6-7.5-10.4c-4-3.7-9-6.4-13.5-9.5c-0.7-0.5-1.3-1.3-1.9-2
		c0.8-0.3,1.6-0.9,2.4-1c2.7-0.4,5.2-3.3,4.6-5.8c-1.1-4.8-2.2-9.6-3.6-14.3c-0.8-2.7-2.7-4.4-5.8-4.3c-2.8,0.1-4.2-1.4-4.9-4.1
		c-1.8-7-2.3-14.1-2.1-21.7c0.4-2.1,0.1-4.5,1.2-5.6c4.8-5.2,4.1-11.4,0.7-15.9c-4-5.2-2.7-10.8-2.9-15.9
		c-0.3-6.8,1.9-13.8,3.3-20.7c1.5-7.5,2.9-15,5.1-22.3c2.1-6.8,5.2-13.4,7.6-20.1c1.9-5.2,3.8-10.1,9.2-13c1.7-0.9,2.4-3.9,3-6.1
		c0.8-2.6,0.6-5.5,1.4-8c1.2-3.5,3.2-6.8,4.4-10.3c3.7-10.7,4.3-21.8,2.8-33c-0.4-2.9-3.1-4.7-5-3.4c-1.3,0.9-2.9,1.8-3.7,3.1
		c-4.7,7.6-10.8,14.6-12.8,23.7c-0.4,2-1.4,3.9-4.3,2.2c-4.5-2.5-9.4-3.1-14.6-2.3c-5.1,0.8-10.4,0.8-15.5,1.6
		c-5.5,0.9-6.7,3.6-3,7.8c2.8,3.2,6.3,5.9,9.6,8.6c1.8,1.4,3.2,2.4,0.8,4.6c-1.5,1.4-2.6,3.3-4.1,4.7c-1.5,1.4-1.5,2.6,0.1,3.7
		c3.3,2.2,6.6,4.3,9.9,6.3c0.4,0.3,1.2,0,1.8,0.1c3.6,0.2,7.2,0.6,10.8,0.7c2.4,0.1,2.4,1.7,2,3.2c-0.4,1.3-1.2,2.7-2.2,3.7
		c-2.7,2.9-5.6,5.8-8.5,8.5c-3.2,3.1-6.3,6.3-9.8,9c-6.3,4.9-14,5.4-21.1,3.9c-6-1.2-11.4-5.3-15.3-10.5c-2.7-3.6-2.4-4.1,1.8-6.4
		c0.6-0.3,1.3-0.7,1.6-1.3c3-5.4,5.9-10.7,6.3-17.1c0.7-11.2-5.2-20.5-8.7-30.4c-0.3-0.9-2-2-2.9-1.9c-1,0.2-2.7,1.7-2.7,2.5
		c0.5,5.1-3.4,7.9-6.2,10.7c-7,6.8-9.2,14.8-7.4,23.9c0.8,4.4,2.2,9,4.6,12.7c2.9,4.6,3.6,6.7-0.4,10.5c-9.1,8.6-20,11.5-32.3,9.1
		c-4-0.8-8.3-0.7-11.9-2.5c-7.3-3.6-13.1-9.5-16.6-16.8c-2.2-4.6-3.2-9.9-4.6-14.9c-0.2-0.8,0.1-1.8,0.1-2.7
		c0.9,0.1,1.9,0.1,2.8,0.4c1.5,0.6,2.9,1.7,4.5,2.1c4.4,1.1,8.7,0.6,13.1-0.6c4.3-1.2,8.9-1.1,12.6-4.3c2.4-2.1,5.1-3.7,7.5-5.8
		c3.1-2.7,3.7-8.3,0.9-9.8c-8-4.1-15.4-9.4-24.8-10.3c-3.4-0.3-6.6-1.5-7.2-5.4c-0.3-1.7,0.7-3.6,0.6-5.4c-0.2-3.2-0.8-6.3-1.4-9.4
		c-1.1-5.7-2.5-11.3-7.3-15.2c-0.8-0.7-3.1-0.9-3.5-0.4c-2.5,3.2-5.8,6.3-6.9,10c-2.1,7.4-4.3,14.9-3.8,22.8
		c0.1,2.2-0.5,3.2-2.9,3.2c-3,0-6.2-0.2-8.9,0.8c-6.9,2.7-13.5,5.9-20.2,9.2c-3.8,1.9-4.4,4.5-1,7.2c3.8,3,8.2,5.5,12.6,7.6
		c6.7,3.2,13.8,5.2,21.4,4.5c1.2-0.1,2.4-0.1,3.6,0c0.6,0.1,1.4,0.4,1.7,0.9c0.2,0.3-0.3,1.1-0.5,1.7c-1.2,2.7-2.5,5.4-3.4,8.2
		c-1.3,3.9-1.6,8.4-3.8,11.6c-4.1,6.2-10.1,11.1-17.3,13.1c-5.7,1.6-12,1.8-18,1.4c-3.9-0.2-8.3-0.8-11.5-4.1
		c-3.8-3.9-7.9-7.4-10.6-12.4c-1.2-2.2-0.8-2.9,0.6-4.1c8-7.7,9-17.2,6.3-27.2c-1.7-6-4.7-11.6-7.4-17.3c-0.9-1.8-2.3-3.5-3.9-4.8
		c-2.2-1.8-5-0.9-5.2,1.7c-0.3,3.8-2.8,5.9-5,8.4c-7,8-11,16.9-7.9,27.6c1.4,5,3.1,10.4,9,12.7c0.4,0.2,0.7,2.4,0.3,2.8
		c-4.8,3.6-8.7,8.5-15.3,9.9c-9.1,1.9-18.2,2.9-27.4,1.5c-11.6-1.8-21.3-7-28.8-16c-2.6-3.2-2-6.7,1.7-8.3c2.8-1.2,6.2-1.6,8.7-3.2
		c6.7-4.3,13-9.1,19.5-13.6c3.7-2.5,6.6-5.6,7.8-10c1.1-3.9,0.2-6.3-3.8-7c-6.1-1-12.3-1.6-18.4-1.3c-4.7,0.2-9.2,2-12.7,5.7
		c-0.2,0.2-2.5-0.9-2.8-1.7c-0.8-2.6-1.3-5.3-1.5-8c-0.6-7.6-3-14.4-7.4-20.6c-1.6-2.3-3.4-4.4-6.1-4.2c-2.9,0.2-4,3-5.2,5.6
		c-3.8,7.8-3.1,16.2-4.1,24.4c-0.3,2.1-0.7,2.9-2.9,2.9c-6,0.1-12.1,8.5-9.7,14.1c1.7,4.1,4.2,8.4,7.6,11.1
		c6.6,5.3,12.4,10.7,14.3,19.5c1.5,7,4.6,13.7,6.3,20.6c2,8.5,5,16.9,5.3,25.8c0.1,4.3,2.4,8.6-3.1,11.1c-0.5,0.2-1.1,0.8-1.2,1.2
		c-0.6,3.4-1,6.8-1.5,10.3c0,0.4,0.3,0.9,0.6,1.1c1.7,1.6,3.5,3.1,5.2,4.8c0.9,0.9,1.9,2.2,2,3.3c0.4,7.1,0.6,14.1,0.8,21.2
		c0.1,4.4,1.1,9.1-2.9,12.5c-0.5,0.4-0.8,1.1-1,1.7c-2.9,6.7-1.7,10.1,4.5,13.7c2,1.2,3,2.7,1,5.3c-1.8,2.3-3.4,5.1-4.3,7.9
		c-2,6.1-3.3,12.5-5.2,18.6c-0.8,2.7-1.7,5.9-3.7,7.7c-3,2.7-7,4.2-10.5,6.5c-5.5,3.7-9.5,8.5-10.1,15.4c-0.3,3.8-0.2,7.7,0,11.6
		c0.1,2.3,0.3,4.6,0.8,6.8c1.8,7.4,4.5,14.6,5.4,22.1c0.9,7.6,1.1,15.7-0.4,23.2c-1.5,7.8-5,15.3-8.2,22.7
		c-3.1,7.2-6.8,14.2-10.3,21.2c-3.7,7.4-6.8,14.7-1.8,22.7c2.7,4.3,5.1,9.2,10.9,9.8c2.5,0.3,5.2-0.7,7.7-1.4
		c2.3-0.6,3.9-0.5,3.6,2.2c-0.8,8-1.5,16-2.6,24c-0.9,6.2-2.9,12.2,1.6,18c2.2,2.8,4.1,5.2,8,4.8c1-0.1,2.5-0.2,3,0.4
		c3.2,3.9,7.4,5.6,12.3,5.8c3.7,0.1,7.4,0.2,11.1,0.2c1.3,0,3-0.5,3.9,0.1c3.7,2.9,7.7,1.8,11.8,1.4c4.1-0.5,8.1-1.7,8.7-6
		c0.7-4.5,0.4-9.3-0.2-13.9c-0.5-4-2.7-7.9-3-11.9c-0.4-5.3,2.5-7.9,7.4-6.7c4.6,1.1,9,8.9,8.2,13.6c-0.9,5.8-1.8,11.6-2,17.4
		c-0.1,2.5,0.8,5.7,2.5,7.4c6.3,6.8,15.5,4.9,21.5-2.2c4.1-4.8,6.2-10.7,7.5-16.9c0.7-3.4,1.9-6.6,2.8-9.9c0.8-2.8,3.1-2.4,5.2-2.2
		c0.4,0,0.9,1.3,0.9,2c-0.1,8.3-0.7,16.7-0.2,25c0.4,6.1,4.4,8.8,10.5,8.7c0.3,0,0.6,0.4,0.9,0.4c4.5,0.9,9,1.5,13.3-0.5
		c1.5-0.7,2.9-1.9,4.5-2.1c7-0.9,14-1.9,21-2.1c5.3-0.2,7.5-4.5,11.1-6.9c0.3-0.2,0.1-1.1,0.1-1.7c-0.2-5.5-0.8-11-0.6-16.5
		c0.3-7.6,1.9-14.8,5.5-21.7c2.6-4.9,7.2-6.8,11.2-9.7c0.5-0.4,1.7,0.3,2.6,0.3c2.5-0.1,5-0.2,7.4-0.5c0.1,0,0.1-1.7,0.1-2.6
		c-4.7,0.4-9-4.7-13.9-0.9c-0.7,0.5-2.1,0.2-3.2,0c-0.5-0.1-1.1-0.9-1.2-1.4c-0.1-0.4,0.5-1.1,1-1.3c5-2.8,15.1-1.9,19.2,2
		c3.5,3.5,6.8,7.3,9.8,11.3c4.4,5.9,13.5,7.1,19.2,2.3c3.7-3.1,7.7-5.7,11.4-8.7c3.2-2.5,6.9-3.2,10.8-3.4
		c10.9-0.6,19.6,5.6,29.1,9.3c4,1.5,7.6,5,11.6,5.5c10.9,1.4,17.4-7.1,19.7-16.3c0.5-2.1,1.4-4.4,2.8-5.9c2.6-3,5.8-5.5,8.7-8.2
		c2-1.8,2.2-4,1.9-6.3c-0.1-1.1-0.5-2.2-0.6-3.3c-0.6-4.7,2.6-8.4,3.3-12.5c1.5-8.6,7-15.3,9.5-23.4c1.6-4.9,4.2-9.5,5.7-14.5
		c2.2-6.8,4.1-13.7,5.5-20.6c1.7-8.6,3.1-17.3,3.7-26C449.7,294.5,449,288.5,447.9,282.7z M396.6,134.4c0.2,0.7,0.4,1.5,0.2,2.1
		c-0.7,2.5-2.9,3.2-5.1,3.7c1.1-2.2,2.5-4.2,3.9-6C395.8,134.2,396.6,134.3,396.6,134.4z M134.2,128.5c0.5,0.5,1.1,0.9,1.5,1.4
		c0.6,0.8,1.2,1.6,1.8,2.5c3,1.9,5.7,3.4,8.4,5c1,0.6,1.9,1.2,2.8,1.9c0.3,0.2,0.4,0.7,0.7,1.1c-0.5,0.2-0.9,0.5-1.4,0.5
		c-6.6,0.6-12.8-3.8-14.2-10.3C133.5,130,134,129.2,134.2,128.5z M135.9,154.6c3.1,0.2,6.2,0.5,9.3,0.7c0.6,0,1.2-0.5,1.8-0.8
		c-0.5-0.6-1-1.6-1.6-1.7c-2.1-0.5-4.3-0.6-6.4-1c-1.2-0.3-2.3-0.9-3.2-1.6c-0.3-0.2,0.1-1.9,0.4-2c1-0.3,2.1-0.2,3.1-0.1
		c2.5,0.3,5,0.8,7.5,0.9c4.5,0.1,9.1,1.2,13.4-0.8c1.4-0.6,3.2-2.3,3.1-3.5c-0.1-2.2,1.9-5-1.7-6.7c-8.4-4-14.9-10.4-20.6-17.6
		c-1-1.2-2.2-2.2-3.3-3.3c-0.6-0.6-0.9-1.5-1.3-2.2c1,0.1,2,0,2.9,0.3c2.9,0.9,5.8,2.3,8.8,3c3.4,0.8,7,1.2,10.5,1.5
		c9.1,0.7,18.2,0.1,26.7-3c6.8-2.4,13.5-5.5,16.7-12.9c0.3-0.7,0.8-1.3,1.3-2c0.6,0.7,1.2,1.3,1.8,2c4,4.8,7.4,10.2,12,14.2
		c4.9,4.2,11.4,5.2,17.9,6c11.9,1.4,22.2-2.6,30.9-10c5.1-4.3,9.4-9.9,10.2-17.2c0.1-1,1-2,1.5-3c0.7,0.9,1.5,1.6,2,2.6
		c5.8,10.9,12.3,21,25,25c10.6,3.3,21,3.2,31.6,0.1c4.2-1.3,8.6-2,11.7-5.4c1.9-2,3.9-4,5.4-6.3c1.5-2.4,2.8-2.3,4.4-0.5
		c8.4,9.4,18.8,13.5,31.3,12.5c1.5-0.1,2.9-0.5,4.4-0.7c0.5-0.1,1.1,0.2,1.6,0.3c-0.3,0.5-0.4,1.1-0.8,1.5c-3.2,3.2-6.7,6.2-9.5,9.7
		c-2.8,3.6-5.1,7.7-7.3,11.7c-0.2,0.3,1.8,2.6,2.5,2.5c4.9-0.7,9.9-1.4,14.6-2.8c3.9-1.1,4.2-1.1,4.1,2.9c-0.2,5.6-0.2,11.2,0,16.8
		c0.1,2.4-0.6,3.3-3.1,3.4c-2,0.1-3.9,1.6-5.9,2c-5.6,0.9-11.3,1.5-17,2.2c-2.9,0.4-5.8,0.9-8.7,1.4c-3.6,0.2-6.5,0.5-9.4,0.7
		c-4.2,0.3-8.4,0.6-12.6,0.7c-5.5,0.1-11.1-0.1-16.6,0.1c-7.2,0.1-14.4,0.6-21.6,0.7c-10.8,0.1-21.6,0.3-32.4-0.1
		c-7.5-0.2-14.9-1.4-22.4-2c-7.1-0.6-14.2-1-21.4-1.4c-5.2-0.3-10.4-0.2-15.6-0.8c-6.2-0.7-12.4-1.8-18.6-2.7
		c-3.1-0.4-6.3-0.4-9.3-0.9c-10.7-1.8-21.4-3.7-32-5.7c-5.7-1.1-11.5-2.3-17.1-3.6c-0.9-0.2-1.5-1.5-2.2-2.3
		C133.9,154.9,134.9,154.5,135.9,154.6z M169.4,186.9c-3.2-0.6-6.5-0.9-9.8-1.5c-8.4-1.6-16.8-3.2-25.1-5.1c-1.2-0.3-2.9-2.1-3-3.2
		c-0.1-2.6,2.4-1.9,3.8-1.6c6,1,12,1.9,17.8,3.6c9.5,2.8,19,4.9,28.8,5.7c10,0.8,20,1.8,30,2.9c9.5,1,19.1,2.5,28.6,3.5
		c6.9,0.7,13.9,1,20.9,1.5c4.1,0.3,8.2,0.6,12.2,0.7c3.2,0,6.5-0.7,9.7-0.6c9,0.1,18,0.7,26.9,0.6c16.7-0.2,33.4-0.8,50-1.4
		c8.4-0.3,16.8-0.7,25.2-1.5c4.2-0.4,8.4-1.6,12.5-2.6c2.4-0.6,4,0.2,4.1,2.7c0.4,5,0.5,10.1,0.8,15.1c0.1,2.6-0.6,4-3.6,4.4
		c-3,0.4-5.9,1.7-8.9,2.7c-0.5,0.2-0.8,1.1-1.1,1.6c0.6,0.2,1.3,0.6,1.8,0.5c3-0.5,6-0.9,8.9-1.8c2.5-0.8,4.1-0.2,4.9,2.1
		c0.8,2.5-0.2,4.2-2.9,4.8c-7.3,1.6-14.6,3.3-21.9,5c-11.8,2.7-23.7,4.7-35.9,5.1c-4.8,0.1-9.6,1.1-14.5,1.3
		c-4.9,0.2-9.9,0.1-14.8,0c-8.8-0.2-17.6-0.4-26.3-0.7c-7.8-0.3-15.7-0.5-23.4-1.5c-9-1.2-18-3.1-26.9-4.9c-10-2-20-4.1-29.9-6.5
		c-9.2-2.2-18.4-4.6-27.5-7.1c-15.2-4.2-30.3-8.6-45.5-12.9c-0.9-0.3-2.1-0.6-2.7-1.2c-0.9-1.2-1.4-2.7-2.1-4.1
		c1.5-0.4,3.2-1.2,4.6-1c10.5,2,20.9,4.2,31.4,6.4c6.8,1.4,13.6,3,20.4,4.2c4.4,0.8,8.9,0.9,13.4,1.5c6.5,0.9,13,1.9,19.5,2.9
		c5.4,0.9,10.7,2.1,16,2.7c8.4,0.9,16.8,1.7,25.2,2.2c8,0.5,16,0.5,24.1,0.8c3.7,0.1,7.4,0.5,11.2,0.6c0.8,0,1.6-0.6,2.5-0.9
		c-0.9-0.6-1.7-1.7-2.6-1.8c-3.2-0.4-6.5-0.6-9.7-0.8c-6.8-0.3-13.7-0.3-20.5-0.8c-10.4-0.8-20.7-1.7-31-2.9
		c-8.6-1-17.2-2.1-25.7-3.6c-14.7-2.5-29.3-5.2-44-7.8c-6.9-1.2-13.8-2.4-20.7-3.6c-3.6-1-6.8-1.5-10-2.2c-0.9-0.2-2-0.6-2.7-1.3
		c-0.7-0.7-0.9-1.7-1.3-2.6c1-0.4,2.3-1.3,3.1-1c8.1,3.5,16.7,3.7,25.2,4.9c3.4,0.5,6.8,1.1,10.2,1.4c0.8,0.1,1.6-0.9,2.4-1.4
		C170.8,187.8,170.2,187,169.4,186.9z M385.1,253.5c1.6-0.5,3.3-0.9,4.9-1c0.6,0,1.2,1.1,1.8,1.7c0.5,2.5-0.1,4.6-2.4,4.1
		c-1.9-0.4-3.4-2.2-5.1-3.4C384.2,254.9,384.7,253.7,385.1,253.5z M380,250.3c-0.4-0.4-0.9-0.8-1.3-1.1c-0.5-0.5-1.1-1-1.6-1.5
		c0.8-0.4,1.7-0.9,2.5-1.3c1.4,0,2.2-0.2,2.9,0c1.6,0.5,3.1,1.1,4.6,1.7c-0.4,0.6-0.7,1.5-1.3,1.8C384,250.6,382.2,252.8,380,250.3z
		 M389.6,244.9c1-0.2,1.7,0,2.3,0.2c-0.3,0.4-0.6,0.8-0.8,1.2C390.6,245.8,390.1,245.4,389.6,244.9z M392.3,261
		c1.1-0.5,3-0.7,3.8-0.1c3.2,2.5,3.5,5.7,1.1,7.3c-0.5,0.3-1.4,0.1-2.1,0.1c-1.2-1.7-1.8-3.2-2.9-4.2
		C390.6,262.6,390.9,261.5,392.3,261z M397.5,256.5c0.3-1.5,7-3,8.6-2.3c2.3,3.6,0.2,8.5-3.5,9.2c-0.5,0.1-1.3-0.4-1.7-0.8
		c-0.6-0.6-1.1-1.4-1.5-2.2C398.7,259.1,397.3,257.6,397.5,256.5z M396.4,253.3c-1,0.2-2.3-1.9-3.5-3c1.2-3.2,2.9-5,5.8-3.4
		c1.2,0.7,1.9,2.2,2.8,3.4C399.8,251.3,398.2,253,396.4,253.3z M131,202.2c0.2-0.6,2.8-0.7,4.1-0.3c6.5,2.2,12.8,4.6,19.8,5.1
		c5.8,0.5,11.4,2.8,17.2,4.2c13.4,3.3,26.9,6.7,40.3,9.9c9.8,2.3,19.7,4.3,29.5,6.5c1,0.2,17.3,2.7,18.2,3.2
		c-0.9,0.2-17.4-1-18.3-1.1c-4.7-0.6-9.4-1.4-14.1-2.2c-5.9-0.9-11.9-1.9-17.8-2.8c-5.1-0.8-10.2-1.3-15.2-2.2
		c-7.2-1.3-14.4-2.7-21.5-4.3c-11.3-2.6-22.6-5.5-33.8-8.2c-2.6-1.1-4.8-1.7-6.9-2.7C130.1,206.4,130.2,204,131,202.2z M144.7,229.9
		c-0.2,0.9-0.2,1.9-0.6,2.7c-1.5,2.6-3.1,5.1-4.8,7.6c-0.4,0.5-1.2,0.7-1.9,1c0-0.6-0.1-1.3,0.1-1.9c0.4-1,1-2,1.5-3
		c1.1-2,1.6-3.7,2.6-5.1C142.1,230.4,143.6,230.3,144.7,229.9z M120,259.5c4.4-8.4,6.2-18.1,12.5-25.6c1.2-1.4,2-3.3,3.4-4.6
		c0.7-0.6,2.2-0.4,3.3-0.5c-0.3,0.8-0.7,1.5-0.9,2.3c-1.5,4.2-6.2,6.8-5.6,12c-1.3,2.5-2.6,4.2-3.8,6c-0.6,0.9-1.1,2-1.2,3.1
		c-0.1,0.8,0.5,1.7,0.7,2.5c0.7-0.5,1.5-0.8,2-1.5c1.2-1.7,2.2-3.6,3.4-5.4c0.3-0.4,0.9-0.5,1.4-0.7c0.1,0.4,0.2,0.9,0.3,1.3
		c0.4,3.7-1.2,5.9-5.1,7.8c-2.9,1.4-5.6,3.2-8.4,4.8c-0.5,0.3-1,0.5-1.5,0.8C120.4,261,119.8,260,120,259.5z M442.2,311.5
		c-0.8,11-1.9,22.1-7.1,32.1c-3.5,6.8-7.4,13.4-10.4,20.4c-2.1,5-3,10.5-4.7,15.6c-1.1,3.2-2.4,6.5-4.1,9.4
		c-1.9,3.1-2.9,5.9-1.6,9.6c1.4,4-0.5,7.4-5.1,10.4c-4.4,2.8-7.2,6.2-7.2,12c0,4.2-2.9,8.1-7,9.7c-1.9,0.7-5.1,0-6.9-1.3
		c-2.4-1.7-4.7-2.8-7.5-3.7c-6-2-11.7-4.6-17.6-6.7c-7-2.4-14.2-4.3-21.4-1.9c-6.2,2.1-12.3,4.4-17.6,8.7c-6.1,5-8.7,6-15.8-2.1
		c-5-5.7-11.4-9.7-18.6-12c-2.4-0.8-5.4-0.1-8.1,0.3c-4.5,0.7-9,2.1-13.5,2.7c-5.2,0.7-10.3,0.9-13.6,6.2c-1.8,2.8-4.8,4.9-7.2,7.4
		c-0.5,0.5-0.8,1.3-1.2,2c0.8,0.3,1.6,0.8,2.5,1c0.8,0.2,1.7-0.2,2.5,0.1c0.4,0.2,0.9,1.2,0.7,1.7c-1.3,3.5-2.7,7-4,10.5
		c-0.2,0.5,0.1,1.5,0.5,1.7c2.7,1.2,2.7,3.6,2.9,6c0.1,1.1,0.9,2.2,1.4,3.3c0,0.1,0.9-0.1,0.9-0.3c0.2-1.2,0.5-2.4,0.4-3.5
		c-0.5-5,1.3-9.4,3.4-13.7c0.4-0.9,2.3-1,3.6-1.4c-0.3,1-0.6,2-0.9,3c-1,3.3-2.1,6.5-3,9.8c-0.2,0.6,0.6,1.4,0.9,2.1
		c0.4-0.6,1-1.1,1.2-1.8c1.4-3.5,2.6-7.1,4.3-10.4c1.8-3.6,4.1-6.9,6.4-10.2c0.4-0.6,1.7-0.7,2.6-1c-0.2,0.8-0.2,1.8-0.7,2.4
		c-5.9,7.1-8.2,16-11,24.4c-1.5,4.4-0.6,9.8-0.2,14.7c0.4,3.9,0.1,5.3-3.9,5.4c-4.3,0.1-8.4,0.5-12.4,2.2c-2.2,0.9-4.5-1.8-4.3-4.2
		c0.2-2,0.1-4-0.4-5.9c-0.2-0.8-1.7-1.3-2.6-2c-0.5,0.9-1.3,1.7-1.6,2.6c-0.7,2.7-0.6,5.9-2,8.1c-3.2,4.8-8.4,2.8-12.9,2.6
		c-1.6-0.1-3.3-0.8-4.6-1.7c-3.5-2.4-3.1-6.3-3.2-9.9c0-0.5,0.6-1.1,0.5-1.6c-0.6-5,0.7-9.5,2.7-14c0.4-0.8-0.3-2.5-1-3.3
		c-1.6-1.8-3.5-3.4-5.5-4.8c-1-0.7-2.9-1.2-3.8-0.8c-7.2,4-11.3,9.9-11.9,18.5c-0.4,5.9-2.2,11.4-8.9,13.7c-3.3,1.1-7.3,0.6-8.9-2.9
		c-1.4-3-2.2-6.9-1.6-10c2-10.1,1.1-14.2-5.8-20.1c-3.9-3.3-10.6-3.9-14.6-1.4c-0.4,0.2-2-0.6-2.1-1.1c-0.3-1.4-0.1-2.8-0.1-4.3
		c0-0.8-0.2-1.7-0.3-2.5c-1.1,0.4-2.6,0.4-3.2,1.2c-2.1,2.8-1.1,6-0.8,9.1c0.2,1.9,0.5,3.9,0.7,5.8c0.6,4.9,1,9.9,2,14.7
		c0.9,4.6-3.2,11.6-7.6,12.1c-2.9,0.3-2.8-2.6-2.8-3.8c0-3.6-2.4-5.8-4-8.4c-1.5-2.5-3-5.5-3.1-8.3c-0.2-4.9,0.9-9.9,1.2-14.8
		c0.1-1.8-0.4-3.6-0.7-5.4c-0.3-1.8-0.7-4.3-3.1-3.4c-1.5,0.5-3,2.8-3.2,4.4c-0.4,4.3,0.3,8.7-0.2,13c-0.9,7.9,2.3,14.2,6.3,20.5
		c0.5,0.7,0.7,1.6,1,2.5c1.3,4.1,0.6,5.1-3.6,4.5c-4.7-0.7-9.1-1.8-12.9-5.2c-4.5-4-3.8-8.6-3-13.5c0.5-3.2,1.1-6.5,1.7-9.7
		c0.7-3.9,1.7-7.7,2.3-11.6c0.2-1.1-0.6-2.3-1-3.4c-0.8,0.4-2.2,0.6-2.4,1.3c-1.5,3.8-2.8,7.7-3.9,11.6c-1,3.7-1.7,7.4-2.5,11.1
		c-0.3,1.5,0,3.1-0.5,4.4c-0.4,1.1-1.5,2.1-2.6,2.6c-0.4,0.2-2.2-1.3-2.2-2c0.1-5.4-0.6-11.2,1.1-16.1c1.6-4.6,1.3-9.2,2.3-13.7
		c0.5-2.3-0.7-4.4,3.6-2.6c4.2,1.7,8.4-1.1,11.8-3.9c2.7-2.2,5.3-4.7,7.8-7.1c3-2.8,5-2.7,7.5,0.6c1.3,1.7,2.7,3.5,4.3,5
		c4.3,4,10.7,3.6,14.7-1.5c6-7.6,4.2-15.5,2.4-23.4c-1.5-6.4-2.6-12.6-0.5-19.1c0.8-2.5-1.1-5.3-3.8-5.4c-2.7-0.1-3.1-1.5-3.4-3.9
		c-0.4-4.4-0.5-9.1-3.4-12.9c-1-1.3-2.5-3-3.9-3.2c-0.2,0-0.4-0.1-0.6-0.1c-0.8,0.1-1.6,0.4-2.3,0.7c-0.5,0.2-1,0.6-1.5,0.8
		c-0.5,0.3-1,0.6-1.4,1c-1.8,1.4-3.5,3.1-5.1,4.7c-0.8,0.9-1.6,1.7-2.3,2.6c-0.8,0.9-1.5,1.8-2.3,2.7c-1.3,1.6-2.5,3.2-3.8,4.8
		c-0.5,0.5-0.5,0.7-1.2,1.6c-0.8,1-1.1,2.6-2.1,3.3c-1.1,0.8-3.4,1.6-3.9,1.1c-2.5-2.2-4.6-4.9-6.9-7.4c-1.2-1.3-2.4-2.7-3.8-3.7
		c-0.3-0.2-2.6,1.3-2.5,1.8c0.4,1.9,0.9,4,2.1,5.5c1.2,1.6,3.1,2.7,4.7,4.1c0.5,0.4,0.7,1.1,1,1.7c-0.8,0.1-1.7,0.6-2.3,0.3
		c-1.2-0.6-2.1-1.7-3.3-2.3c-0.9-0.5-2.1-0.4-3.2-0.6c0.1,1.1-0.2,2.6,0.4,3.4c2.6,3.4,6.5,4.2,10.5,2.5c0.8-0.3,1.7-0.8,2.6-0.7
		c0.9,0.1,1.7,0.8,2.5,1.3c-0.8,0.5-1.5,1.4-2.3,1.4c-2.4,0-4.8-0.8-7,0.8c-0.5,0.4-1,0.9-1.4,1.3c0.6,0.5,1.2,1.2,2,1.5
		c0.3,0.1,1-0.6,1.5-0.6c1.4,0.1,2.7,0.4,4,0.6c-0.4,0.9-0.8,1.8-1.2,2.7c-2.6,6.7-5.3,13.3-7.6,20.1c-0.6,1.8,0.5,4.1,0.5,6.1
		c0,1.1-0.6,2.1-0.9,3.2c-0.6-1-1.5-1.8-1.9-2.9c-1.4-4.2-2.6-8.5-6.2-11.4c-1.2-0.9-2.7-1.7-4.1-2c-0.9-0.2-2.1,0.7-2.9,1.4
		c-0.3,0.4,0,1.7,0.3,2.3c0.9,1.7,2,3.2-1.3,3.4c-0.8,0-1.5,1.2-2.3,1.9c0.8,0.8,1.4,1.8,2.4,2.2c2.3,0.9,4.7,1.4,6.9,2.3
		c0.6,0.2,1,1.1,1.4,1.7c-0.7,0.4-1.3,1-2,1.1c-9.1,1.3-17.2-8.1-14.2-16.9c1.8-5.3,4.9-10.2,7.2-15.3c4.9-10.6,10.2-21,13.4-32.4
		c3-10.9,3.4-21.8,3.6-32.9c0.1-3.9-1.3-7.2-2.6-10.8c-2.1-5.5-4.3-11.1-5.1-16.8c-0.9-6.3,0.4-12.5,6-16.9c5.2-4,9.8-9,16.4-10.4
		c4.7-1,8.9-2.6,13-5.1c4-2.4,5.3-6.4,7.3-10c0.2-0.4-0.2-1.4-0.6-1.8c-2.3-2.5-1.5-4.9,0-7.4c1.9-3.1,3.7-6.3,5.7-9.5
		c0.5-0.8,1-1.7,1.7-2.1c0.9-0.5,2.1-0.5,3.1-0.6c-0.3,0.9-0.5,1.9-1,2.7c-1.8,3.1-3.7,6.1-5.5,9.2c-0.3,0.5-0.5,1.1-0.4,1.6
		c0.1,0.9,0.5,1.7,0.8,2.5c0.7-0.6,1.6-1.1,2-1.8c2-3.3,3.9-6.7,5.7-10.2c1-1.9,2.5-2.4,4.4-2c6.3,1.4,12.6,2.9,19,4.2
		c7.6,1.6,15.3,2.9,22.9,4.3c5.5,1,11.1,2.1,16.6,3.1c2.2,0.4,4.4,1,6.7,1.2c13.8,0.8,27.6,1.5,41.4,2.2c3.8,0.2,7.5,0.6,11.3,0.7
		c22.1,0.3,44.2,0.7,66.3,0.6c8.9,0,17.8-1.3,26.7-2.1c4.8-0.4,7.4,2.9,10,5.9c0.4,0.4-0.5,2.6-1.4,3.3c-1.8,1.5-4.1,2.4-5.8,4
		c-0.8,0.7-0.9,2.2-1.3,3.4c1-0.3,2.1-0.4,3-0.9c2-1.3,3.9-2.8,5.8-4.3c2.8-2.1,6.4-1,7.1,2.5c0.1,0.5-0.6,1.4-1.2,1.9
		c-1.5,1.3-3.1,2.3-4.5,3.6c-0.4,0.3-0.1,1.4-0.1,2.1c0.6-0.1,1.3-0.1,1.8-0.4c1.4-0.8,2.9-1.4,3.9-2.6c2-2.4,3.4-1.3,4.8,0.5
		c0.8,1.2,1.8,2.5,2,3.8c0.1,1-0.6,2.5-1.4,3.2c-3.5,3.2-7.2,6.3-10.7,9.5c-0.7,0.6-1.2,1.7-1.3,2.6c-0.1,0.8,0.5,1.6,0.8,2.5
		c0.6-0.5,1.2-0.9,1.8-1.4c3.9-3.6,7.7-7.3,11.6-10.8c0.4-0.3,2.5,0.3,2.8,0.9c2.9,7.3,5.6,14.6,8.2,22.1c1.2,3.5,1.8,7.1,2.7,10.7
		c0.2,0.8,1,1.5,1.5,2.3c0.4-1,1.4-2,1.2-2.9c-1-4.4-2-8.9-3.5-13.2c-2.5-6.9-5.5-13.7-8.3-20.6c-0.8-2.1-0.5-3.7,1.9-4.7
		c2.3-0.9,2.9,0.3,3.5,2.1c3.1,9.4,6.4,18.6,9.2,28c1.9,6.3,2.9,12.9,4.4,19.4c0.7,4.1,1.4,7.5,2.2,10.9c0.2,0.6,1,1.1,1.5,1.6
		c0.4-0.7,1.3-1.5,1.3-2.2c-0.3-3.6-0.5-7.3-1.4-10.9c-3.2-12.7-6.5-25.5-10.1-38.1c-1.2-4.1-3.6-7.8-5.1-11.9c-0.4-1,0.1-3,0.9-3.6
		c5.1-3.8,5.2-3.8,7.3,2.5c0.2,0.5,0.3,1.1,0.6,1.5c0.6,1,1.3,1.9,1.9,2.9c0.3-1.1,1.1-2.3,0.8-3.2c-0.7-2.8-1.7-5.5-2.8-8.1
		c-1.8-3.9-3.8-7.8-5.7-11.6c-0.2-0.3-0.7-0.5-1-0.6c-0.5-0.1-1.3,0-1.7-0.3c-1.5-1.2-2.9-2.5-4.3-3.8c1.7-0.1,3.4-0.5,5-0.2
		c3.6,0.8,6.5,2.6,9.3,5.2c3.1,2.9,7,4.8,10.6,7.2c8.4,5.8,12.8,14.2,15,23.8c1.1,4.6,1.3,9.4,1.5,14.1
		C442.5,300.7,442.6,306.1,442.2,311.5z M267.4,424.2c-0.8,1.4-1.6,2.9-2.5,4.2c-0.8,1-1.8,1.9-2.8,2.8c-0.5,0.4-1.3,0.6-2,0.9
		c0.1-0.8,0-1.6,0.3-2.3c0.4-1,1.2-1.9,1.7-2.8C264.1,425.7,265.7,425,267.4,424.2z M257.3,430.9c-0.9,0.4-1.8,0.9-2.7,1.3
		c0.7-1.3,1.3-1.8,2-2.3C256.8,430.2,257.1,430.6,257.3,430.9z M130.5,404.5c1.9-5.8,3.8-11.5,5.9-17.2c0.4-1.1,1.4-2,2.1-3.1
		c0.7,0.3,1.4,1.1,1.2,1.6c-2.2,6.4-4.2,12.8-4.2,19.7c0,0.8-1.3,2-2.3,2.4c-0.7,0.3-2.4,0.1-2.7-0.5
		C130.1,406.8,130.2,405.4,130.5,404.5z"/>
	<path d="M130.2,358.9c1.7-1.7,4-4,6-5.3c0.5-0.3,1.2-0.6,1.7-0.9c0.6-0.2,1.2-0.8,1.8-0.9c0,0,0,0,0,0c0.9-0.3,1.6-1,1.9-1.9
		c0.1-0.2,0.2-0.5,0.3-0.8c2.1-5.6,4.3-10.1,6.1-15.8c2.7-8.7-1.7-21.5-9.6-25.5c-6.9-3.5-14.8-5.3-22.6-3.8
		c-2.5,0.5-4.6,3.8-6.4,6.1c-0.3,0.4,0.5,1.6,1.1,2.6c0.3,0.5,0.8,0.7,1.3,0.5c0.9-0.3,1.9-0.6,2.2-1.2c1.2-2.4,2.9-3.4,5.4-3.3
		c0.3,0,0.8,1.4,0.7,1.5c-6.8,6.5-4.3,14.9-4.2,22.5c0.1,5.2,1.4,9.8-4.1,13.3c-3.9,2.5-4.1,6.8-1.5,12.8c1.2,2.7,2.4,5.7,4.4,7.8
		c1.7,1.6,3,2.3,5.5,2.7c0.3,0.1,0.7,0.2,1-0.1c1.4-1.5,2.4-3.5,3.8-4.9C126.7,362.7,128.5,360.7,130.2,358.9z"/>
</g>
</svg>
