<?xml version="1.0" encoding="utf-8"?>
<!-- Generator: Adobe Illustrator 23.0.3, SVG Export Plug-In . SVG Version: 6.00 Build 0)  -->
<svg version="1.1" id="Contours" xmlns="http://www.w3.org/2000/svg" xmlns:xlink="http://www.w3.org/1999/xlink" x="0px" y="0px"
	 viewBox="0 0 680.8 680.8" style="enable-background:new 0 0 680.8 680.8;" xml:space="preserve">
<path d="M123.8,328.5c-0.4-2.7-1.4-5.6-0.6-7.7c1.5-3.6-0.2-4.8-2.9-6c-6-2.8-12-5.6-18-8.6c-0.8-0.4-1.7-2.8-1.4-3.1
	c1.5-1.4,3.3-3.2,5.2-3.5c1.6-0.2,3.7,1.1,5.3,2.1c3.2,1.9,6.1,4.2,9.4,5.8c3.5,1.8,8.6-2.9,9.1-8.3c0.2-2.7,0.5-5.2-3-7
	c-5.2-2.7-9.9-6.4-14.6-9.9c-1.2-0.9-1.5-2.8-2.3-4.2c2-0.5,4.6-2.2,5.9-1.4c4.8,2.6,9.2,6,13.7,9.2c1.6,1.1,2.9,2.6,4.4,3.9
	c0.9-1.6,1.8-3.1,2.7-4.7c2-3.4,4.1-6.8,5.8-10.3c0.6-1.3,0.6-3.6-0.2-4.6c-3.2-3.8-6.7-7.2-10.2-10.8c-1.5-1.6-4.2-3.3-1.1-5.2
	c1.6-1,5.2-1,6.4,0.1c3.5,3.1,6.3,6.9,9.2,10.6c2.3,2.9,2.6,2.6,5,0c2.6-2.7,5.7-5.2,9-6.9c3-1.6,3.8-2.9,2-5.9
	c-1.8-3-3.5-6-4.6-9.3c-0.5-1.5,0.6-3.5,0.9-5.3c1.7,0.5,4.2,0.6,4.9,1.7c2,3.1,3.5,6.6,4.8,10.2c1.1,3.1,2.5,4.9,6.1,4.2
	c4.4-0.9,8.9-1.5,13.3-2.4c0.9-0.2,2.1-1.7,2.1-2.5c-0.2-3.9-0.8-7.8-1.2-11.8c-0.3-2.8-0.6-5.6,2.4-7.3c1.1-0.6,3.4-1.3,3.8-0.8
	c1.5,1.8,3.2,4,3.4,6.3c0.4,3.4-0.2,6.9-0.6,10.3c-0.4,4.1,2.1,5.1,5.4,5.4c4.8,0.5,9.6,1.4,14.4,1.4c1.6,0,3.7-1.8,4.7-3.4
	c1.4-2.1,2-4.7,2.8-7.1c1.5-4.2,4.8-3.4,7.3-2c1,0.6,1,4.2,0.3,6c-0.8,2.1-2.6,3.9-4.2,5.6c-2.2,2.4-0.8,3.1,1.4,3.7
	c2,0.5,4.2,1,6,2c7,4,8.4,3.6,11.9-3.7c0.7-1.5,0.8-3.5,1.9-4.5c1.4-1.2,3.8-2.4,5.3-2c2,0.6,3.6,2.6,1.6,5.2
	c-2.1,2.8-3.6,6.2-6,8.8c-2.3,2.5-1.9,4.7-0.4,6.7c3.1,4.3,6.5,8.3,9.9,12.4c3.3,3.9,5.4,3.9,8.8-0.2c1.7-2,2.9-4.6,4.8-6.3
	c1.4-1.2,3.6-1.4,5.4-2.1c0.1,1.8,1.1,4.1,0.3,5.3c-2.3,3.4-5,6.7-8.1,9.4c-3.7,3.1-3.2,6.1-1.4,9.9c2.2,4.6,4,9.4,5.6,14.3
	c0.6,1.8,0.7,4.1,0.1,6c-0.5,1.8-2.2,4.8-3.1,4.7c-2.2-0.2-5.4-1.4-6.3-3.1c-4.4-8.3-12.3-11.2-20.2-14c-3.4-1.2-5.9-0.3-8,3.4
	c-5.9,10.4-13.9,19.3-25.2,23.6c-13.1,5-28.5,5.1-39.1-5.4c-2.3-2.3-4.2-5.5-5-8.6c-1.2-4.6-3.6-4.2-6.5-2.5
	c-8.4,4.8-16.8,9.6-25.1,14.5c-0.9,0.6-2,1.5-2.3,2.4c-2.4,2.6-4.7,2.8-7,1.6C125.7,331.8,125.9,330.8,123.8,328.5 M186.1,312.4
	c0.7,1,1.4,2,2.2,3c5.4,7.5,15.2,9.2,23.5,4.6c10-5.5,15.1-15.1,18.5-25.3c1.6-4.9,1.2-10.5,1.7-15.8c0.5-4.9-1.5-8.3-6.1-10.6
	c-8-3.9-16.4-5.6-25.3-5.7c-7.6-0.1-13.8,2.9-17.5,9.1c-2.6,4.2-3.4,9.6-4.6,14.6C176.3,296,178.6,304.7,186.1,312.4 M155.1,302.1
	c1.8-1,3.7-2,5.5-3.1c2.7-1.8,4.6-4.1,3.3-7.5c-1.7-4.6-1.4-9.1,0.7-13.5c0.5-1,0.4-2.2,0.6-3.3c-1.3,0.3-3.1,0.1-3.9,0.9
	c-5.2,5.6-10.8,11-15.2,17.2c-3.5,5.1-6.2,11-5,17.7c0.1,0.8,0.8,1.6,1.2,2.4c0.7-0.5,1.4-0.9,2-1.5
	C147.8,308.4,151.2,305.5,155.1,302.1 M244.2,292.3c4.7,2.5,9.3,5,14,7.5c0.5,0.3,1.5,0.1,1.9-0.3c0.4-0.4,0.8-1.5,0.6-1.9
	c-3.5-6-7.1-11.9-10.8-17.8c-0.5-0.8-1.8-1.1-2.7-1.7c-0.5,1.1-1.1,2.2-1.3,3.3C245.2,284.7,244.7,288,244.2,292.3z"/>
<path d="M414.9,499c1.3,8-1.4,14.5-5.3,20.7c-1.6,2.7-2.6,2.7-4.5,0.1c-6.4-8.7-12.4-17.7-19.8-25.8c-9.8-10.7-22.4-15.4-35.5-18.1
	c-6.4-1.3-14.3,1.3-20.6,4.1c-6.5,2.8-12,8-17.7,12.3c-8.7,6.5-14.1,15.6-19.3,24.9c-2.8,5-5.6,4.8-8.8,0c-7.2-10.6-6-21.8-2.9-33.4
	c3-11.3,9.5-20.6,16.6-29.3c7.1-8.8,16.9-14.2,28.1-16.3c6.6-1.3,13.4-1.6,20.1-2.6c14-2.2,25.6,3.5,37.1,10.5
	c10.2,6.2,16.2,15.9,22.6,25.4C410.6,479.5,414.6,488.4,414.9,499z"/>
<path d="M450.8,310.6c-3.1,1.8-5.6,1.5-8.4,3c-3.4,1.9-6.8,1.8-10.4,3.3c-0.6,0.3-6.2-1.6-7.5-4.2c-1.4-2.8-0.4-5.1,1.5-7.8
	c2.5-3.5,3.7-7.9,5.8-11.7c1.4-2.6,1.4-4.8-1-6.7c-2.7-2.1-5.5-4.2-8.2-6.4c-1.7-1.4-4-2.6-4.9-4.4c-0.9-1.8-0.4-4.3-0.5-6.5
	c2.1,0.3,4.7,0,6.3,1.1c3.4,2.5,6.2,5.7,9.3,8.6c4.6,4.4,4.7,4.2,8.5-0.8c2.8-3.7,6.2-7.2,9.7-10.3c4.2-3.6,4.5-3.7-0.5-5.9
	c-5.2-2.3-8.2-6.4-10.3-11.3c-0.6-1.3-0.1-3.1,0-4.6c1.7,0.3,3.9,0,4.9,1c3.8,3.7,7.2,7.9,10.8,11.9c1.6,1.8,2.9,2.4,5.2,0.4
	c2.6-2.3,6-3.7,8.6-5.9c1-0.9,1.7-3.6,1.1-4.9c-1.9-3.9-4.7-7.5-6.6-11.4c-0.5-1.1,0.5-4.2,1.3-4.4c1.7-0.5,4.6-0.2,5.4,0.9
	c2.3,3.3,4,7,5.6,10.8c1.3,3,3.4,3.5,6.1,2.9c4.6-1,9.2-2.1,13.8-3.4c3.5-1,5.1-4.8,4.1-8.9c-0.5-1.7-1.6-3.3-1.8-5.1
	c-0.2-1.4,0.1-3.4,1-4.2c1.1-1,3.4-1.7,4.7-1.3c1.2,0.4,2.6,2.5,2.7,3.9c0.2,2.8-0.3,5.6-0.6,8.4c-0.5,4.8,2.2,5.9,6.3,5.9
	c3.1,0,6.6-0.2,9.2,1.1c5,2.4,6.2,0.3,7.1-4c0.6-2.9,1.2-6.1,2.8-8.5c1-1.6,3.8-2,5.8-3c0.5,1.9,1.7,4,1.3,5.7
	c-0.6,2.7-2.1,5.3-3.5,7.8c-3.1,5.5-2.7,6.9,2.9,9.9c2.2,1.1,4.2,2.5,6.3,3.7c4.5,2.5,5.8,2,8.3-2.9c0.7-1.3,1-3.3,2-3.9
	c1.8-1.1,4.1-1.4,6.2-2c0.2,1.9,1,3.9,0.5,5.6c-0.6,2.1-1.9,4.4-3.6,5.8c-3.9,3.4-2.2,6.5,0,9.4c3.8,5.1,7.8,10,11.8,15
	c0.5,0.6,1.1,1.1,1.7,1.6c0.5-0.8,1.1-1.5,1.4-2.3c2.1-7.1,8.2-9.6,14.3-11.6c1.3-0.4,3.3,1.5,5,2.4c-1,1.1-1.9,2.3-3,3.2
	c-4.8,3.7-9.8,7.1-14.3,11c-1.2,1.1-1.8,4.1-1.2,5.8c2.1,6.3,5,12.2,7.1,18.5c0.6,1.8,0.1,5.2-1.2,6c-1.4,1-4.7,0.8-6.4-0.2
	c-9.4-5.5-19.2-9.7-30.2-10.6c-1.7-0.1-3.4-0.3-5-0.9c-4.9-1.9-7.9,1.1-10.7,4.2c-6.7,7.7-14.5,11.4-25.1,10.8
	c-6.9-0.4-13.6-0.7-19.9-3.8c-2.4-1.2-4.7-3.2-6.4-5.4c-4.5-5.9-8.2-7.2-15.5-4.5C457.6,307.7,454.5,309.2,450.8,310.6 M485.1,261.8
	c-6.5,11.7-8.6,24-2.6,36.3c4.2,8.6,11.7,14.6,21.8,13.7c5.4-0.5,11.9-2.9,15.4-6.8c5.6-6.2,9.7-14.1,13.1-21.8
	c2.2-4.9,2.1-10.8,2.6-16.3c0.1-1.6-0.8-4.2-2.1-4.8c-7-3.6-14.1-7.6-22.4-6.8c-7.2,0.7-14.4,1.5-21.5,2.7
	C488,258.2,486.8,260.2,485.1,261.8 M443.5,292.8c-0.5,0.9-1.2,1.8-1.6,2.8c-0.4,1.1-0.7,2.2-1,3.3c1.1-0.3,2.3-0.4,3.3-0.8
	c3-1.3,6-2.8,9-4c3.5-1.5,6.9-2.9,10.4-4.2c5.1-2,3.9-6.2,3.9-10.1c0-0.7,0.8-1.4,0.7-2.1c-0.3-2.7-0.9-5.4-1.3-8.2
	c-2,1.3-4.3,2.3-5.9,3.9C455.2,279.5,449.6,285.9,443.5,292.8 M565.2,297.7c-1.9-2.5-3.9-4.8-5.5-7.4c-3.3-5.1-6.3-10.3-9.6-15.4
	c-0.6-0.9-2-1.4-3-2.1c-0.2,0.9-0.3,1.8-0.5,2.7c-0.8,4.8-1.8,9.6-2.5,14.5c-0.2,1.4-0.7,2.8,2.2,3.6c5.6,1.6,10.7,4.6,16.1,7.1
	c1.3,0.6,2.7,1.2,4.1,1.8C566.2,301.1,565.9,299.6,565.2,297.7z"/>
<path d="M97.6,192.1c6.7-8.5,13.6-16.1,22.5-21.9c12.6-8.2,24.9-17,40.6-18.7c7.2-0.8,14.4-2.6,21.6-2.3c12.9,0.4,25.8,1.8,37.7,7.2
	c9.9,4.5,20.1,8.6,29.2,14.5c7.3,4.7,13.1,11.7,19.5,17.7c0.9,0.9,1.5,2.1,2.5,2.8c7.2,5.7,13.7,12.2,17.7,20.6
	c5.5,11.5,11.3,22.9,16.2,34.7c0.9,2.2-0.7,6.6-2.6,8.7c-2,2.2-5,0.4-5.5-2.6c-2.1-11.8-10.2-20.8-14.8-31.4
	c-3.3-7.7-8-14.5-15.4-19.3c-3.7-2.4-5.7-7.1-9.1-10.1c-5.8-5.1-11.7-10.1-18.1-14.2c-6.9-4.3-14.5-7.4-21.7-11.3
	c-8.2-4.5-17.2-5.9-26.3-7c-5.4-0.7-10.9-1.8-16.3-1.4c-15.6,1.3-30.4,5.2-42.9,15.4c-6.8,5.5-14.4,10.3-20.8,16.3
	c-7.3,6.8-12.5,15.2-15.1,25.1c-0.4,1.6-2.6,3.7-4.1,3.8c-2.9,0.2-3.8-2.3-3.5-5C89.5,205.7,92.5,198.6,97.6,192.1"/>
<path d="M507.3,163.4c-14.6,1.5-28.1,5-40.6,12.3c-7.1,4.1-14.7,7.3-21.8,11.2c-2.7,1.5-5.2,3.6-7.3,5.9c-12.8,14-26.5,27.2-36,44
	c-2.9,5.2-5.6,10.5-7.8,16.1c-1.4,3.6-3.8,4.7-6.6,3.4c-3.4-1.6-2.6-4.7-1.2-7.5c3-6,5.5-12.5,9.1-18c6.4-9.7,12.9-19.5,20.5-28.1
	c8-9.1,16.9-17.5,26.3-24.9c6.4-5,14.5-7.5,21.8-11.2c12.9-6.4,26-11.1,40.6-12.8c12.8-1.5,24.5,1.7,36.8,3.2
	c17.3,2,30.7,11.4,43.9,21.5c5.4,4.2,14.7,18.8,19.2,24.4c0.8,1,1.7,2.8,1.4,3.9c-0.7,2.5-2,4.9-3.1,7.3c-2-1-4.6-1.6-6-3.2
	c-3.9-4.3-12.3-17.7-16.4-21.5c-5.3-4.9-11.3-9.2-17.4-13.1c-5-3.2-10.3-6.4-15.9-8c-7.5-2.2-15.3-3.2-23.1-4.2
	C518.3,163.4,513,163.6,507.3,163.4z"/>
<path d="M527.2,419c-6,3.8-11.9,6.2-18.4,2.2c-1.6-1-3.7-2.5-4-4c-1-5.6-1.8-11.4-1.7-17.1c0.2-9.7,0.8-19.4,2.2-29
	c1-7.2,0.2-15.8,9.5-19.3c4.6-1.7,6.7-1.2,9.4,2.8c5.1,7.6,6.5,16.5,9.5,24.8c2.5,6.9,4,13.9,3.4,21.1
	C536.4,407.8,534.5,414.7,527.2,419 M513,372.8c-0.2,1.5-0.4,3.1-0.6,4.6c-0.6,4.9-1.4,9.8-1.8,14.7c-0.2,3.1,8.2,12.2,8.8,11.1
	c1.6-3,3-6.8,2.7-10.1c-0.7-9.2-2.2-18.3-3.6-27.4c-0.1-0.8-1-1.5-1.5-2.3c-0.8,0.6-2,1.1-2.3,1.9C514,367.4,513.5,369.6,513,372.8z
	"/>
<path d="M185.3,390.1c0.4,4.1,1.3,7.7,1.2,11.3c-0.2,5.3,0.2,11-1.9,15.6c-2.3,5.1-6.2,11.1-10.9,13.1c-10.4,4.3-14.3-1.5-16.6-9.2
	c-1.4-4.7-1.1-10.2-0.5-15.2c0.9-7.7,2.1-15.5,4.3-22.9c1.7-5.8,5.1-11.2,7.8-16.7c1.4-2.7,2.6-5.7,4.7-7.8c1.4-1.4,4.2-1.9,6.3-1.9
	c0.6,0,1.5,3,1.8,4.7c0.9,4.6,1.6,9.2,2.2,13.8C184.4,379.7,184.8,384.7,185.3,390.1 M168.9,380.8c-1.6,7.3-3.2,14.5-4.7,21.8
	c-0.2,1.2,0,9.2,0.1,10.4c3.1,4.2,8-3.3,8.4-4.5c2.2-8,7.1-18.8,3.8-28.7c0.2-0.9-2.3-2.6-2.4-3.6c-1,0.5-2.2,0.8-3,1.5
	C170.3,378.3,170,379.4,168.9,380.8"/>
<path d="M452.8,384.7c1.8-4.8,3.3-9.2,5.6-13.2c1.1-2,3.5-4,5.7-4.4c3.3-0.7,3.5,2.3,4.1,5c0.6,2.7,2.3,5.3,4,7.5
	c5.6,7,4.5,16.1,7.5,23.8c3,7.5-1.2,13.8-2.8,20.4c-1.5,6.3-10.8,12.4-17.5,10.3c-3.2-1-7.2-4.3-8.1-7.4
	C447.1,412.8,449,398.9,452.8,384.7 M455.2,413.6c0.9,4.1,1.8,6.5,4.8,8.9c4.8-6.6,4.4-23,2.2-30.5c-1.1-4.4-0.8-3.2-1.4-4.8
	c0-0.1-1.3,0-1.6,0.3C455.7,391.8,453.2,404.3,455.2,413.6z"/>
<path d="M309.9,338.8c-0.4-3.2,0.3-5.8,3.2-5.7c1.6,0.1,3.9,2.3,4.4,4c1.6,5,1.7,10.4,3.7,15.2c3.6,8.9,11.7,15.1,21.3,16
	c5.3,0.5,7.3-4.2,11.1-6.1c10.4-5.1,14.2-15.2,17.8-25.3c0.5-1.6,1.1-3.4,2.2-4.4c0.9-0.9,2.8-0.9,4.2-1.2c0.1,1.1,0.5,2.3,0.4,3.4
	c-0.7,6.1-1.3,12.3-2.5,18.4c-0.6,2.9-2.1,5.7-3.6,8.2c-8.6,14-21.3,20.9-37.5,19.5c-4.8-0.4-10.6-3.9-13.6-7.8
	c-4.5-6-7.4-13.4-10-20.6C309.5,348.4,310.2,343.7,309.9,338.8z"/>
<path d="M219.6,428.2c-1.3-11.7,3.2-22.2,4.2-33.1c0.7-7.5,4.9-13.6,7.6-20.3c1.6-3.8,4.5-3.1,6.6-2.6c1.8,0.5,4.1,2.8,4.4,4.6
	c2.3,12.1,4.1,24.2,6.1,36.3c1.4,8.8-5.2,21.7-12.6,24.4c-7.1,2.5-12.8-0.2-15.3-7.3C220.4,429.7,219.9,429.2,219.6,428.2
	 M237.6,407.7c-0.2-6.2-0.4-12.4-0.7-18.6c0-0.5-1.6-1.4-1.8-1.2c-0.8,0.6-1.6,1.4-1.9,2.3c-0.9,3.2-1.9,6.4-2.4,9.7
	c-1,6.4-2,12.8-2.6,19.2c-0.3,2.6,0.7,4.2,3.6,1.8C235.8,417.7,237.5,413.6,237.6,407.7z"/>
<path d="M198.7,307.7c-8.5-1.2-9.8-3.8-10.9-10.2c-2.4-13,6.6-22.2,17.4-24.1c8-1.4,15.7,6.3,14.5,14.3c-0.1,0.9,0,1.9,0.1,2.9
	c0.2,10.3-5.9,16.7-16.1,17C202.1,307.6,200.6,307.6,198.7,307.7z"/>
<path d="M511.1,264.1c7.8,1.3,13.1,9.4,11.2,16.3c-0.6,2.3-1.1,4.7-1.8,7c-2.2,6.9-7.7,10-14.1,11.9c-0.7,0.2-1.6,0.2-2.2,0.6
	c-4.9,3.1-8.7,1.5-12.5-2.3c-5.7-5.7-7.1-13.5-2.6-19.9c3.6-5.2,7.1-10.8,14-12.5C505.6,264.7,508.1,264.5,511.1,264.1z"/>
<path d="M402.9,611.2c-4,3.5-7.7,6.7-11.4,10c-8.2,7.3-15.8,15.8-24.9,21.7c-7,4.5-15.6,7.3-24.8,3.5c-8.5-3.5-17.5-5.5-25.1-11.2
	c-11.4-8.7-23.2-16.9-34.8-25.4c-5.9-4.3-11.9-8.4-17.6-12.9c-3.8-3.1-7.2-6.8-10.8-10.1c-4.5-4-9.1-7.8-13.5-11.9
	c-9.5-8.9-18.9-17.8-28.3-26.8c-4.1-3.9-7.7-8.3-12.3-11.4c-6.2-4.2-4.6-10.1-4.9-15.7c-0.1-1.3,0.7-2.7,0.8-4
	c0.1-0.9-0.1-1.8-0.2-2.7c-0.7,0.4-1.4,0.8-2.1,1c-8.3,3.3-16.6,3.3-25.1,0.3c-8-2.8-14.8-7.3-21-13.1
	c-18.1-16.8-33.7-35.7-48.2-55.5c-8.5-11.7-15.6-24.7-24.4-36.5c-13.3-18-20.6-38.8-29.2-59.1c-4.2-10-9.1-19.7-12.6-29.9
	c-4.9-14.5-8.9-29.4-13.2-44.2c-4-13.9-8.6-27.5-10.2-42c-1.2-11.2-4-22.3-5.7-33.4c-1.1-7.3,3.2-13.1,6.3-19.1
	c2.6-4.9,5.6-9.7,8.7-14.3c2.4-3.6,5.1-6.8,7.7-10.3c0.5-0.7,0.9-1.4,1.3-2.1c-1-0.3-2.1-1.1-3-0.9c-1.4,0.3-2.7,1.7-4.1,1.9
	c-1.5,0.2-3.7,0.2-4.5-0.7c-0.9-1.1-1.1-3.4-0.6-4.8c3.1-9.6,5.5-19.5,10-28.4c2.6-5,8.4-8.6,13.2-12.3c3.4-2.6,5.8-5,8-9
	c4.5-8.1,8.6-16.8,16.6-22.6c3.6-2.6,5.9-6.8,9-10.2c1-1.1,2.4-2.1,3.7-2.9c12.7-8.2,25.2-16.7,38.2-24.3c6.1-3.5,13.2-6,20.1-7.4
	c4.7-0.9,9.9,0.9,14.9,1.5c1.2,0.2,2.6,0.1,3.6,0.7c2.3,1.2,5.6,2.3,6.4,4.3c1.9,4.5,2.8,9.5,3.5,14.4c1.1,7.6,3.6,9.9,11.7,10.4
	c4.4,0.2,8.7,1,13.1,1.6c3.7,0.5,6.7-3.1,7.1-8.3c0.2-2,1.2-6,1.7-7.9c2.4,0.7,4.4,3.3,6.7,4.2c1.4,0.6,2.7,1.6,3.9,2.7
	c6.6,6.4,10.9,5.1,17.1-0.7c3.8-3.5,7.9-6.8,12.1-9.8c4.7-3.2,10.1-3.3,15-0.6c4.1,2.3,8,5,11.6,8c15.2,12.9,30.6,25.6,45.2,39.1
	c10.9,10.1,21.2,21,30.9,32.2c5,5.8,8.4,13.2,12.2,20c1.4,2.5,1.9,1.6,3.2,0.3c4.2-4.5,8.3-9.3,12.9-13.5
	c5.8-5.3,12.1-10.2,18.2-15.3c12.2-10.1,24.1-20.5,36.6-30.3c8.4-6.6,17.3-12.6,26.3-18.4c11.4-7.3,24.6-10.4,37.4-13.7
	c16.1-4.1,32.3-8.7,49.2-7.5c11.3,0.8,22.6,1.8,33.6,4.3c5,1.1,8.8,6.5,13.7,8.9c14.1,6.9,7.5,18,6.4,28.1c-0.1,1.4,0,2.8,0.1,4.1
	c1-0.7,2.1-1.4,3.1-2.2c4.6-3.8,8.9-8.3,13.9-11.4c6.4-4,10.7,0.1,10.5,6c-0.3,7.5-0.9,15-1.3,22.5c-0.1,1.2,0.4,2.5,0.6,3.7
	c1-0.7,2.4-1.3,3-2.2c3.5-5.8,8.1-2.2,11.1-0.4c4.7,2.9,9,6.8,12.2,11.2c5.4,7.4,10.2,15.4,14.5,23.5c4.3,8.2,10.4,15.5,11,25.7
	c0.4,6.9,3.8,13.6,5.3,20.5c1.2,5.4,1.6,11,2.4,16.5c1.1,7.5,2.4,15,3.3,22.5c0.3,3-0.2,6-0.4,9.1c-0.9,14.5-1.6,29-2.9,43.5
	c-0.8,9.3-1.9,18.7-4.3,27.7c-3.2,11.7-6.8,23.6-12,34.5c-4.2,8.9-8.5,18.4-16.1,25.1c-7.7,6.6-14.8,14.7-25.8,16
	c-4,0.5-4.9,2.5-5.1,6.4c-0.7,11.8-1.3,23.8-5.1,35.2c-0.5,1.4-2,2.7-3.3,3.5c-7.4,4.6-15.5,5.9-24.1,5.5c-3.4-0.2-5.3,1.8-7.8,4.2
	c-10.3,10.2-15.7,23.6-24.5,34.8c-5.5,7-12.2,7-19.5,5.6c-6.2-1.2-7-0.5-8.1,5.9c-1.4,8.4-2.6,16.8-9.2,23.5
	c-3.8,3.8-5.7,9.4-9.3,13.4c-5.3,5.8-11.6,10.8-17.1,16.4c-4.5,4.6-8.3,10-13,14.4c-6.3,6-13.3,11.3-19.9,17
	c-4.4,3.8-8.5,7.9-12.8,11.6c-8.7,7.4-17.4,14.8-26.2,22.1C408.8,607,405.9,608.9,402.9,611.2 M644.4,351.3c0.3-0.4,0.8-0.7,0.9-1.1
	c5.3-13.3,11-26.5,15.5-40c2.3-7,2.6-14.7,3.5-22.1c0.7-6,1-12,1.5-18c1-12.3,2.6-24.7,2.7-37c0.1-7.5-1.9-15-3.4-22.4
	c-2-10-3.9-20.2-7-29.9c-3.4-10.9-7.8-21.5-12.4-32c-3.6-8.1-12.9-15.7-17.8-23.1c-4.2-6.3-9-6.1-14.2-0.6c-0.6,0.6-1.2,1.2-1.7,1.8
	c-3.5,4.4-8.1,2.3-11.6,0.9c-1.6-0.6-2.5-5.4-2.2-8.1c0.7-6.3,2.4-12.4,3.5-18.7c0.2-0.9-0.5-2-0.8-3.1c-0.8,0.6-1.8,1.1-2.5,1.8
	c-0.5,0.5-0.7,1.3-1,2.1c-2,6.2-10,9.5-15.8,6.5c-2.8-1.5-4.6-3.5-4.1-7c1.1-6.7,2.5-13.5,3.2-20.3c0.2-2.2-0.7-5.2-2.2-6.9
	c-8.5-9.3-20.2-11.3-31.9-12.3c-7.6-0.7-15.3,0.3-22.9,0.5c-3.5,0.1-7.2-0.3-10.5,0.4c-10.7,2.3-21.4,4.9-32.1,7.8
	c-6.6,1.8-13.4,3.6-19.6,6.6c-7.3,3.5-14.2,7.9-21,12.4c-6,3.9-11.8,8.2-17.3,12.7c-4.9,3.9-9,8.7-14,12.5
	c-15.9,12.1-31.2,24.8-44.9,39.4c-5.7,6.1-10,13.1-11.7,21.5c-0.1,0.8-0.2,1.6-0.3,2.4c0.9-0.3,1.9-0.4,2.6-0.9
	c1.6-1.1,2.8-2.9,4.5-3.4c1.9-0.6,4.2-0.3,6.3-0.3c-0.2,1.8-0.1,3.8-0.8,5.4c-2.4,5.3-5.2,10.4-7.7,15.7c-0.4,0.9-0.5,2-0.7,3
	c1-0.2,2-0.3,3-0.6c1.3-0.4,2.6-1.2,3.9-1.2c2.5,0,4,2,2.2,3.7c-6.1,5.8-5.8,14.2-8.9,21.2c-2.6,5.8-2.7,12.6-4.4,18.9
	c-1.6,6-1.2,12.9-6.4,17.6c-1.4,1.3-2.9,2.4-4.3,3.6c-0.9-2.1-2.7-4.3-2.5-6.3c0.6-5.7,2.7-11.2,3-16.9c0.3-4.7,3.8-10.9-3.7-13.9
	c-0.7-0.3-0.7-3.3-0.4-4.9c1-4.5,2.3-8.9,3.6-13.3c0.6-2,1.4-4,2.1-6.1c0.3-0.8,0.6-1.6,0.9-2.5c-1.1,0-2.4-0.3-3.4,0.1
	c-2.7,1-5.3,2.7-8.1,3.1c-2.2,0.3-5.1-0.4-6.9-1.7c-0.8-0.6-0.1-4.2,0.8-5.8c2.8-4.5,6.8-8.4,9.2-13.2c4.2-8.2,4.4-17.5,4.8-26.5
	c0.1-1.5-0.3-3.3-1.1-4.5c-5.7-8.4-10-17.9-18.3-24.4c-1.6-1.3-2.8-3.1-4.2-4.6c-6.2-6.4-12.2-13.1-18.9-19
	c-8.4-7.4-17.4-14-26.1-21.1c-1.8-1.4-3-3.7-4.9-4.8c-6.4-4-12.9-7.9-19.7-11.2c-2.2-1.1-5.8-1.2-8.1-0.2
	c-6.3,2.8-12.1,6.6-18.2,9.7c-1.8,0.9-4.3,0.9-6.3,0.5c-2.2-0.4-4.4-1.6-6.2-2.9c-3-2.2-4.5-1.5-6.3,1.7c-1.1,2.1-3.5,4.5-5.6,4.9
	c-4.4,0.8-9,0.7-13.5,0.3c-6-0.6-11.9-2.5-18-2.8c-9.3-0.5-13.6-3.2-16.5-12.4c-1.1-3.4-1.8-6.9-2.8-10.3c-1.9-6.3-5.3-8.2-11.6-5.3
	c-10.3,4.7-21.9,7-29.9,16.1c-1.3,1.4-3.3,2.2-5,3.3c-3.2,2.3-6.4,4.5-9.4,6.9c-5.6,4.4-11.3,8.7-16.5,13.5
	c-3.3,3.1-7.7,6.8-8.3,10.8c-1.2,7.6-8.1,8-2.4,14.2c1.3,1.4,1.6,2.6,4.2,7.6c4.6,6.5,8.2,10.6,9.8,13.1c1.4,2.2,3.5,4.4,3.8,6.7
	c0.5,4,0.1,8.1-0.6,12.1c-0.3,1.6-2.7,4.1-3.9,4c-1.7-0.2-3.6-2.2-4.7-3.8c-1.4-2.1-1.6-5.4-3.4-6.9c-6.7-5.8-10.8-13.5-15.2-20.8
	c-2.5-4.1-6.1-4.5-9.9-3.7c-2.2,0.5-4.9,2-6.1,3.8c-3.2,4.9-5.6,10.2-8.4,15.3c-1.1,2-3.5,4.1-0.8,6.1c0.6,0.5,3.7-1.5,4.9-3
	c3.5-4.5,8.4-3.5,12.9-3.4c0.8,0,2.6,3.3,2.2,4.6c-1,3.2-2.3,6.7-4.6,8.9c-11.7,11.2-17.9,26.2-26.9,39.2c-2.2,3.2-3.8,7.9-3.5,11.7
	c0.7,10,5.1,19.4,5.8,29.6c0.5,7.6,3.2,15.1,5.3,22.6c4.9,17.6,9.7,35.3,15.2,52.8c3.5,11.2,8.1,22.1,12.4,33
	c3.6,9.4,6.7,19.1,11.4,27.9c6.2,11.4,11.2,23.5,19.3,34c9.4,12.4,17.1,26.1,26,38.9c5.7,8.1,11.9,15.9,18.5,23.3
	c6.3,7,13.2,13.5,20,20c4.8,4.6,10.4,8.5,14.8,13.4c2.6,3,5.1,5.5,8.9,6.1c3.8,0.6,8.2,2.1,11.3,0.7c4.6-2,8.4-6.1,12.3-9.5
	c5-4.4,9.2-9.7,14.6-13.4c7.3-5,15.3-9,23.1-13.1c3.9-2.1,7.7-0.3,11,1.9c0.4,0.3,0.2,2.5-0.3,2.9c-6.4,5-12.6,10.3-19.6,14.5
	c-9.6,5.8-15.4,17.2-15.5,30.1c1.1,4.3-3.8,7.7,1.9,13.9c-0.2,0.4,2.4,3.3,3,3.9c6.2,6.3,12.5,12.5,18.7,18.7
	c10.4,10.4,23.4,18,32.5,29.8c0.4,0.5,0.9,1,1.4,1.4c6.1,4.9,12.3,9.7,18.4,14.6c7,5.6,13.4,12.3,21.1,16.7
	c12.7,7.2,25.5,14.8,40,18.2c2.4,0.6,5.5,0.8,7.5-0.3c6.6-3.7,13-7.7,19.1-12.2c6.6-4.9,12.6-10.7,19-15.8
	c5.1-4.1,10.7-7.5,15.7-11.7c7-5.9,13.6-12.2,20.3-18.3c7.1-6.5,14.1-13,21.3-19.4c7.5-6.7,15.7-12.7,22.5-20
	c9.2-9.9,17.7-20.4,25.8-31.2c5.6-7.5,9.9-16,7.7-25.8c-1.6-7-4.6-13.6-6.7-20.5c-1-3.3-1.6-6.7-1.9-10.2c-0.3-3.5,3-5.6,5.6-3.4
	c4.1,3.5,8.3,7.1,11.2,11.5c3.9,5.9,8.8,8.5,15.4,8c1.9-0.2,4.1-1.1,5.4-2.4c3.1-3.4,5.3-7.7,8.7-10.7c6-5.3,11.2-11.1,14.7-18.4
	c1.1-2.2,2.6-4.9,4.6-5.8c8.9-4.1,17.7-9,28.3-5c2.5,0.9,5.8,0.4,6.3-3.4c1.1-9.8,2.4-19.4-1.5-29.2c-3-7.7,0.3-12.8,6.8-14.1
	c4.7-1,9.3-2.2,13.9-3.5C625.8,370,639.4,362.9,644.4,351.3z"/>
</svg>
