<?xml version="1.0" encoding="UTF-8"?>
<svg width="159px" height="152px" viewBox="0 0 159 152" version="1.1" xmlns="http://www.w3.org/2000/svg" xmlns:xlink="http://www.w3.org/1999/xlink">
    <!-- Generator: Sketch 53 (72520) - https://sketchapp.com -->
    <title>Group 34</title>
    <desc>Created with Sketch.</desc>
    <defs>
        <polygon id="path-1" points="5.67528658e-05 0.7608 158.821824 0.7608 158.821824 151.2 5.67528658e-05 151.2"></polygon>
    </defs>
    <g id="Welcome" stroke="none" stroke-width="1" fill="none" fill-rule="evenodd">
        <g id="TEMPORARY-TATTOOS" transform="translate(-970.000000, -4505.000000)">
            <g id="Group-34" transform="translate(970.000000, 4505.000000)">
                <g id="Group-3" transform="translate(0.000000, 0.039200)">
                    <mask id="mask-2" fill="white">
                        <use xlink:href="#path-1"></use>
                    </mask>
                    <g id="Clip-2"></g>
                    <path d="M155.897662,57.40632 C155.894466,43.45992 152.930195,33.53752 147.221376,25.07832 C130.623054,0.48312 96.6809487,-3.31928 81.4209437,16.00392 C79.8860744,17.94712 78.5437628,17.19112 77.1966573,15.64392 C65.5840643,2.29912 46.9371196,1.09112 32.1277477,7.81352 C9.73671256,17.97832 -1.81116181,42.67592 4.85884824,68.40872 C14.7991447,106.75672 39.4601246,132.29112 75.5243608,147.45192 C78.3232402,148.62792 80.7601749,148.55592 83.5223005,147.42792 C107.647155,137.57592 127.145828,122.10312 140.918105,99.82552 C149.567225,85.83512 155.43025,70.82392 155.897662,57.40632 M79.6567628,13.30232 C103.786411,-11.98488 145.721662,3.81672 156.114989,36.70552 C161.151853,52.64152 158.693346,68.06552 152.577039,83.12392 C139.471125,115.39352 116.095728,137.27272 84.1087628,150.21752 C81.8412151,151.13512 78.667607,151.60472 76.5191095,150.75352 C37.4410643,135.26552 11.0894111,108.02232 1.48788844,66.45432 C-5.34991055,36.85432 12.0338231,8.67752 40.2375467,2.05272 C54.4572603,-1.28728 67.1389085,1.77832 77.8286623,12.05032 C78.2121799,12.41912 78.6132754,12.76952 79.0215618,13.11032 C79.1126472,13.18712 79.2668533,13.18872 79.6567628,13.30232" id="Fill-1" fill="#000000" mask="url(#mask-2)"></path>
                </g>
                <path d="M101.633919,47.85528 C95.4536925,49.80488 94.0354764,51.41768 94.895994,55.59928 C95.5855266,58.95048 98.2190141,60.56488 101.633919,60.33368 L101.633919,47.85528 Z M120.869723,46.42328 C120.624431,46.66008 120.37914,46.89768 120.133848,47.13448 C123.197195,51.90968 122.713803,56.62168 119.821441,61.28808 L120.501386,62.02968 C125.644517,60.07848 130.787647,58.12808 135.929979,56.17688 C135.92918,55.66248 135.928381,55.14728 135.927582,54.63288 C130.908295,51.89608 125.889009,49.16008 120.869723,46.42328 L120.869723,46.42328 Z M134.230517,50.48008 C128.675105,41.23928 120.406306,37.88888 110.128833,38.47848 C102.125301,38.93848 94.8272804,43.27848 92.3328181,49.88008 C106.761868,39.76888 120.566105,41.48888 134.230517,50.48008 L134.230517,50.48008 Z M117.660959,48.82248 C117.396491,48.55688 117.132024,48.29128 116.867557,48.02568 C113.336798,44.84328 108.815285,44.82968 105.636883,47.99128 C102.548768,51.06328 102.430517,56.26248 105.375612,59.50808 C108.399009,62.83928 113.360768,63.18088 116.820416,60.29528 C120.500587,57.22488 120.823381,52.82408 117.660959,48.82248 L117.660959,48.82248 Z M85.0092302,56.62648 C86.1102452,54.65208 87.3247176,52.73688 88.2867075,50.70248 C92.6979588,41.37688 100.22529,36.62248 110.299019,35.99608 C121.871662,35.27688 130.9842,39.69448 137.175612,49.75208 C138.698496,52.22408 140.501029,54.52408 142.199692,56.93928 C140.775883,57.15768 138.810356,57.45928 136.220014,57.85608 C137.659004,59.51128 138.525115,60.50808 140.068773,62.28408 C136.760934,61.31768 134.43426,60.63768 132.107587,59.95768 C131.966964,60.31928 131.826341,60.68008 131.685718,61.04088 C132.482316,62.14088 133.278115,63.24088 134.074713,64.34088 C133.908522,64.58648 133.742331,64.83208 133.57614,65.07688 L127.934436,61.70488 C127.683552,62.02168 127.431868,62.33928 127.180185,62.65688 C127.713914,63.97848 128.247642,65.30008 128.781371,66.62168 C128.568838,66.77288 128.357105,66.92488 128.144572,67.07688 C126.654446,65.75448 125.164321,64.43208 123.674195,63.10888 C123.425708,63.28088 123.17722,63.45208 122.928733,63.62328 C123.144461,65.03608 123.36019,66.44808 123.576718,67.86088 L122.812079,68.24408 C121.861275,66.88008 120.91127,65.51608 119.209411,63.07448 C118.886617,65.70728 118.706044,67.18008 118.401627,69.66088 C117.196743,67.48968 116.464064,66.16968 115.322301,64.11128 C114.662331,66.19768 114.261235,67.46328 113.553326,69.69768 C112.698401,67.57048 112.18225,66.28568 111.320135,64.14088 C110.279843,66.13848 109.62227,67.40328 108.539632,69.48408 C108.103381,67.46728 107.834919,66.22568 107.365909,64.06088 C105.926919,65.73608 104.932969,66.89208 103.228713,68.87608 C103.377326,66.70888 103.462818,65.46888 103.6362,62.95048 C101.476517,64.68888 100.004768,65.87208 98.5330191,67.05608 C98.3356673,66.91528 98.1383156,66.77448 97.9401648,66.63368 C98.3788131,65.50168 98.8174613,64.36968 99.8018231,61.82808 C96.964592,63.12728 95.0613859,63.99848 92.0723457,65.36808 C93.3850945,63.38488 94.1153759,62.28248 94.8448583,61.18008 C94.7537729,60.81608 94.6618884,60.45208 94.570004,60.08888 C92.2513206,60.71448 89.9326372,61.34088 87.6147528,61.96728 C87.4637427,61.74808 87.3127327,61.52888 87.1617226,61.30968 C88.1644613,60.44568 89.1672,59.58168 91.0831899,57.93048 C88.4872553,57.37288 86.6000291,56.96808 85.0092302,56.62648 L85.0092302,56.62648 Z" id="Fill-4" fill="#000000"></path>
                <path d="M57.3942859,60.4276 C62.7004116,59.7332 64.3990749,58.0316 64.0690899,53.2956 C63.8677432,50.406 60.6533864,48.1684 57.3942859,48.3156 L57.3942859,60.4276 Z M38.295909,61.9844 C38.625095,61.67 38.9550799,61.3556 39.2850648,61.0412 C35.759899,56.5516 36.2920296,51.8756 38.5979291,47.1172 C38.3422508,46.8996 38.0865724,46.682 37.830894,46.4652 C32.8371754,49.25 27.8442558,52.0348 22.8513362,54.8204 C22.8968789,55.29 22.9432206,55.7596 22.9887633,56.2292 C28.0911452,58.1476 33.1935271,60.066 38.295909,61.9844 L38.295909,61.9844 Z M24.9231302,50.3228 C38.8336327,41.1972 52.7041854,39.9204 66.9087181,49.6332 C62.4151704,41.8132 55.6540749,38.59 47.1232055,38.434 C37.513693,38.2596 29.9296327,41.822 24.9231302,50.3228 L24.9231302,50.3228 Z M41.8666176,47.9644 C38.3774065,51.9564 38.3310648,56.7004 41.7499643,59.9268 C45.0562055,63.0452 49.9444568,63.0308 53.2307231,59.8916 C56.4466779,56.8196 56.6552156,51.7348 53.7013312,48.4116 C50.540507,44.8556 45.9039392,44.7164 41.7739342,48.054 L41.8666176,47.9644 Z M61.2326578,67.7108 C58.980291,65.89 57.545296,64.73 55.1810698,62.818 C55.5637884,65.3676 55.7451603,66.5764 55.9265322,67.7844 C55.4455372,68.2348 54.9637432,68.6852 54.4827482,69.1348 L52.8927482,63.3004 C52.2607432,63.8444 51.6287382,64.3876 50.9967332,64.9316 L50.9967332,68.5636 C50.7602307,68.6684 50.5237281,68.7724 50.2872256,68.8764 C49.4706528,67.5276 48.6548789,66.1796 47.4068487,64.1196 C46.7908236,66.226 46.4224869,67.4868 45.7537281,69.7724 C44.9491402,67.5276 44.4849241,66.234 43.7011101,64.0484 C42.5473613,66.1196 41.805095,67.4524 40.5906226,69.6324 C40.2358688,67.254 40.0257332,65.8436 39.6701804,63.4636 C38.1441,65.51 37.1493513,66.8444 36.1546025,68.178 C35.919698,68.0988 35.6847935,68.0188 35.4490899,67.9396 C35.6128839,66.542 35.7758789,65.1436 36.0970749,62.3884 C33.8223362,64.4636 32.417703,65.7444 31.0130698,67.0252 C30.7494015,66.9132 30.4857332,66.802 30.2228638,66.6908 C30.7382156,65.4092 31.2535673,64.1276 31.7697181,62.8452 C31.628296,62.5236 31.4876729,62.202 31.3470497,61.8804 C29.3591503,62.9084 27.3696528,63.9356 24.3438588,65.4988 C25.6550095,63.3764 26.3581251,62.2396 27.0604417,61.1028 C26.9613663,60.7564 26.862291,60.4108 26.7624166,60.0644 L19.8223462,61.958 C19.6082156,61.6628 19.3932859,61.3676 19.1791553,61.0732 C20.2769744,60.4276 21.3747935,59.782 22.4734116,59.1372 C22.4031,58.7468 22.3319894,58.3572 22.2616779,57.9668 C20.2945523,57.5892 18.3282256,57.2108 16.8253161,56.922 C18.9538387,53.798 21.1183161,50.3388 23.5624417,47.0908 C30.2676075,38.178 39.4808186,34.9212 50.2560648,36.1324 C60.5175573,37.286 67.6581754,42.8396 71.4150497,52.5876 C71.7370447,53.4228 72.2260296,54.2348 72.802904,54.9188 C73.2607281,55.4628 73.9702357,55.7948 74.9889543,56.5204 C72.5152658,56.9164 70.581698,57.226 68.6481302,57.5356 C68.5226879,57.9684 68.3964467,58.402 68.2702055,58.8356 L71.9032357,60.9972 C71.7026879,61.3028 71.5029392,61.6092 71.3023915,61.914 C69.0196628,61.282 66.7369342,60.6492 64.4542055,60.0164 C64.3215724,60.3636 64.1897382,60.7108 64.057904,61.0588 C64.8065623,62.1924 65.5560196,63.3268 66.3054769,64.4604 C66.1664518,64.646 66.0266276,64.8316 65.8868035,65.018 C64.0363312,64.0324 62.1858588,63.046 59.3398387,61.5308 C60.1140648,64.0588 60.5215523,65.3892 61.2326578,67.7108 L61.2326578,67.7108 Z" id="Fill-6" fill="#000000"></path>
                <path d="M54.7327538,101.18776 C57.0274673,113.04616 66.8990503,120.71176 79.3785528,120.72056 C92.1840452,120.72936 102.05403,112.97736 104.289618,101.12056 C87.9110201,110.31576 71.5036583,110.35016 54.7327538,101.18776 M50.9662915,94.37576 C70.0422965,108.79256 88.8290653,108.83736 107.615834,94.63336 C109.809874,98.20056 106.03702,108.86216 100.340186,115.07336 C92.1712613,123.97816 76.956799,126.40456 65.7516935,120.58856 C56.7733869,115.92936 49.2061055,102.85256 50.9662915,94.37576" id="Fill-8" fill="#000000"></path>
                <path d="M18.2575146,50.27488 C19.2690422,39.04048 36.3515548,28.94368 49.8873286,30.32368 C60.326198,31.38688 74.4620171,42.54128 73.6350573,49.64288 C55.3476603,26.41568 37.0171176,26.27008 18.2575146,50.27488" id="Fill-10" fill="#000000"></path>
                <path d="M140.073087,49.41192 C133.184952,40.00392 125.154253,32.53912 112.750655,32.57912 C100.391801,32.61992 92.279605,39.95592 85.5368864,50.30312 C84.3511779,42.51752 98.8185799,31.20072 109.468384,30.28952 C123.008952,29.13032 140.210515,39.49992 140.073087,49.41192" id="Fill-12" fill="#000000"></path>
                <path d="M121.703234,81.50104 C118.660661,85.39624 117.465365,89.34504 117.676299,93.75464 C117.797747,96.28824 118.740561,98.28664 121.548229,98.39704 C124.641139,98.51864 125.639882,96.38184 125.760531,93.70344 C125.960279,89.30744 124.802536,85.33304 121.703234,81.50104 M121.671274,77.54184 C126.380551,82.57784 128.617737,87.92584 128.228626,94.25704 C127.984933,98.21304 125.213219,100.99944 121.71442,100.99144 C118.226008,100.98344 115.446305,98.20504 115.186631,94.23624 C114.771154,87.89464 117.194506,82.62344 121.671274,77.54184" id="Fill-14" fill="#000000"></path>
                <path d="M37.2625688,81.53344 C34.1616693,85.33344 32.8704935,89.35024 33.1181819,93.84624 C33.2524131,96.30384 34.2847146,98.27424 37.0684131,98.41664 C39.9224231,98.56224 41.1352975,96.53504 41.3414382,94.16704 C41.7417347,89.56384 40.3139307,85.43824 37.2625688,81.53344 M37.2058402,77.56784 C41.694594,82.27904 43.8151266,87.40864 43.8031417,93.36624 C43.7935538,97.81744 41.0945487,100.90944 37.3624432,100.99504 C33.6670915,101.08064 30.6964281,98.05824 30.6013477,93.64944 C30.4695136,87.55184 32.7554382,82.34624 37.2058402,77.56784" id="Fill-16" fill="#000000"></path>
                <path d="M137.395575,72.63928 C136.575008,72.59848 135.755239,72.55768 134.934671,72.51688 C134.285088,75.87608 133.379028,79.21848 133.156108,82.60568 C133.095384,83.52888 135.090475,85.36088 136.144349,85.36248 C137.155078,85.36408 139.067073,83.48648 139.017535,82.51448 C138.849746,79.20408 137.990827,75.92808 137.395575,72.63928 M136.157932,68.30728 C140.024269,72.55208 141.983405,76.90568 141.74051,82.08728 C141.57352,85.66728 139.210892,88.12728 136.155535,88.14088 C133.124148,88.15448 130.592133,85.70168 130.450711,82.17048 C130.239776,76.90648 132.140585,72.41928 136.157932,68.30728" id="Fill-18" fill="#000000"></path>
                <path d="M23.8567116,72.35064 L21.8959779,72.27704 C21.1281437,75.48344 20.0063548,78.66504 19.7826362,81.90824 C19.7035357,83.05704 21.8128824,84.35704 22.9242844,85.58744 C23.9621789,84.29384 25.9309025,82.94584 25.858993,81.71704 C25.6744251,78.56664 24.584596,75.46904 23.8567116,72.35064 M22.8100281,68.30424 C26.7642543,72.35064 28.6027417,76.72184 28.4237668,81.89784 C28.2959276,85.56664 26.1386412,88.02184 23.0625106,88.14584 C19.8984905,88.27304 17.2282492,85.70024 17.1427568,81.95304 C17.0253045,76.83864 18.9301085,72.43784 22.8100281,68.30424" id="Fill-20" fill="#000000"></path>
                <path d="M55.7061693,75.78968 C54.9311442,75.78408 54.1569181,75.77848 53.382692,75.77288 C52.738702,79.11688 51.8374357,82.44488 51.6169131,85.81768 C51.5553905,86.75688 53.5065362,88.61928 54.5332447,88.61848 C55.5663452,88.61848 57.5262799,86.76568 57.4655563,85.82888 C57.2474307,82.45848 56.3477623,79.13288 55.7061693,75.78968 M54.5244558,71.53288 C58.3764106,75.63848 60.2620387,79.90088 60.2037121,84.90728 C60.1589683,88.74408 57.8075261,91.35608 54.6203352,91.40168 C51.4147673,91.44808 48.9578578,88.85848 48.8667724,85.07448 C48.7437271,79.92568 50.7172447,75.61448 54.5244558,71.53288" id="Fill-22" fill="#000000"></path>
                <path d="M105.350364,75.77096 C104.756711,75.74776 104.163057,75.72376 103.569404,75.70056 C102.752032,78.53416 101.440881,81.34696 101.317037,84.21096 C101.252319,85.71336 103.057248,88.37096 104.386776,88.63416 C107.087379,89.16696 107.91354,86.50776 107.609123,84.35736 C107.196042,81.44696 106.133379,78.62856 105.350364,75.77096 M104.364404,71.55016 C108.483223,75.75496 110.384831,80.36856 109.931801,85.83896 C109.673726,88.96136 108.043776,91.16296 104.74153,91.34856 C101.205977,91.54696 99.285193,89.36616 98.9144593,86.09896 C98.2776603,80.48616 100.434148,75.83496 104.364404,71.55016" id="Fill-24" fill="#000000"></path>
                <path d="M61.6825719,131.51272 C68.1472402,125.40712 75.4412653,125.34072 82.7153156,125.63432 C90.2018985,125.93672 94.9631095,128.33352 95.7621045,131.15752 C90.4671648,130.15672 84.9029638,128.27352 79.3435568,128.28872 C73.8057226,128.30312 68.2734814,130.22232 61.6825719,131.51272" id="Fill-26" fill="#000000"></path>
                <path d="M92.7915211,82.81856 C92.1307523,84.11856 91.850305,85.70496 90.9218729,86.33456 C83.747697,91.20016 76.3010638,91.75136 68.8879884,86.89536 C67.6775111,86.10176 67.0295261,84.45056 65.8262397,82.78896 C71.0668477,84.81776 75.3262899,87.73856 79.5977171,87.75776 C83.7213302,87.77536 87.8585261,84.80096 92.7915211,82.81856" id="Fill-28" fill="#000000"></path>
                <path d="M115.817597,53.72168 C114.774909,52.92568 113.998286,52.23288 113.126582,51.69208 C112.105467,51.05848 110.519462,49.82408 110.032075,50.14568 C108.879125,50.90648 107.363432,52.62248 107.576763,53.61048 C107.924326,55.22728 109.264241,57.41208 110.661683,57.85608 C113.554844,58.77608 115.200773,56.77368 115.817597,53.72168 M117.660879,48.82248 C117.673663,50.54648 117.798306,52.27768 117.676859,53.99208 C117.415587,57.68648 114.524025,60.31208 111.123502,60.08408 C107.790095,59.86088 105.321201,57.04728 105.446643,53.61608 C105.572884,50.14088 107.962678,47.89368 111.705969,47.83928 C113.425407,47.81448 115.147241,47.95848 116.867477,48.02568 C117.132743,48.29128 117.396412,48.55688 117.660879,48.82248" id="Fill-30" fill="#000000"></path>
                <path d="M47.5660085,59.8772 C49.402099,57.0964 51.2565663,55.4756 51.3420588,53.7668 C51.4051794,52.4972 49.1727874,51.1132 47.9623101,49.7804 C46.4506116,51.3532 44.4027874,52.7156 43.6661141,54.594 C43.3321342,55.446 45.5972849,57.3196 47.5660085,59.8772 M41.773295,48.054 C43.7484106,47.9788 45.7283201,47.7836 47.6978427,47.8548 C51.148702,47.9788 53.7374457,50.718 53.6799181,53.9948 C53.6271844,57.0444 50.992099,59.8284 47.9271543,60.0748 C44.628903,60.3396 41.6470538,57.9188 41.4600889,54.506 C41.3418377,52.3404 41.7125714,50.1468 41.8651794,47.9652 C41.8667774,47.9644 41.773295,48.054 41.773295,48.054" id="Fill-32" fill="#000000"></path>
            </g>
        </g>
    </g>
</svg>