<?xml version="1.0" encoding="UTF-8"?>
<svg width="40px" height="40px" viewBox="0 0 40 40" version="1.1" xmlns="http://www.w3.org/2000/svg" xmlns:xlink="http://www.w3.org/1999/xlink">
    <!-- Generator: Sketch 53 (72520) - https://sketchapp.com -->
    <title>Group</title>
    <desc>Created with Sketch.</desc>
    <g id="Welcome" stroke="none" stroke-width="1" fill="none" fill-rule="evenodd">
        <g id="TEMPORARY-TATTOOS" transform="translate(-250.000000, -8326.000000)" fill="#000000">
            <g id="Group" transform="translate(250.000000, 8326.000000)">
                <path d="M36.1768,29.0225333 C35.7764,33.5205333 33.5881333,35.9233333 29.1158667,36.128 C23.0474667,36.4057333 16.9464,36.4138667 10.8789333,36.1256 C6.2688,35.9066667 3.92253333,33.1272 3.7624,28.4218667 C3.6204,24.2509333 3.62333333,20.074 3.62786667,15.8997333 C3.62986667,14.0154667 3.67066667,12.1164 3.90453333,10.2504 C4.41306667,6.1928 7.1148,3.90293333 11.6113333,3.75906667 C15.7826667,3.62573333 19.9594667,3.61653333 24.1334667,3.63373333 C26.1268,3.642 28.1452,3.67506667 30.1068,3.98466667 C33.6366667,4.542 35.7909333,6.8284 36.1030667,10.3877333 C36.3526667,13.2352 36.3086667,16.1082667 36.3918667,18.97 C36.4021333,19.3250667 36.3933333,19.6808 36.3933333,20.0361333 C36.4174667,20.0366667 36.4417333,20.0373333 36.466,20.0381333 C36.3809333,23.034 36.4421333,26.0426667 36.1768,29.0225333 M39.7662667,10.3656 C39.0321333,4.17 35.0206667,0.446533333 28.7721333,0.1412 C28.2028,0.113466667 27.6352,0.0478666667 27.0666667,7.10542736e-15 L12.9333333,7.10542736e-15 C12.0784,0.0762666667 11.2210667,0.131066667 10.3689333,0.232133333 C4.1724,0.967466667 0.447333333,4.97826667 0.140933333,11.2242667 C0.112933333,11.7949333 0.0478666667,12.3637333 4.26325641e-14,12.9333333 L4.26325641e-14,27.0666667 C0.0764,27.9226667 0.131733333,28.7812 0.2324,29.6344 C0.963466667,35.8261333 4.9748,39.5497333 11.2266667,39.8589333 C11.7964,39.8872 12.3645333,39.9521333 12.9333333,40 L27.0666667,40 C27.922,39.9237333 28.7798667,39.8693333 29.6321333,39.7676 C35.8337333,39.0274667 39.5484,35.0274667 39.8590667,28.776 C39.8874667,28.2053333 39.9521333,27.6364 40,27.0666667 L40,12.9333333 C39.9232,12.0773333 39.8673333,11.2188 39.7662667,10.3656" id="Fill-1"></path>
                <path d="M20.1744797,26.8192143 C16.5434664,26.8071627 13.5767548,23.8251087 13.5805955,20.1909415 C13.5845686,16.5333332 16.5956464,13.5528684 20.2587094,13.5808123 C23.8856172,13.6084914 26.8388203,16.6070998 26.8190872,20.2421941 C26.7994866,23.8711963 23.8090689,26.831266 20.1744797,26.8192143 M20.2249381,10.0000167 C14.5465878,9.99551387 9.99845118,14.5362032 10.0000404,20.2081581 C10.0016297,25.8463419 14.5431444,30.3955072 20.1748771,30.40001 C25.8534922,30.4045128 30.4016288,25.8640883 30.4000396,20.192001 C30.3984503,14.5539496 25.8566707,10.0045195 20.2249381,10.0000167" id="Fill-4"></path>
                <path d="M30.8220665,6.80005512 C29.4784065,6.79233051 28.4020401,7.85646245 28.4000424,9.19441857 C28.3981779,10.5251828 29.4863973,11.6079604 30.8175384,11.5999694 C32.126971,11.5921116 33.1852248,10.5402325 33.1998746,9.23184298 C33.2151904,7.88203358 32.1647943,6.80791292 30.8220665,6.80005512" id="Fill-6"></path>
            </g>
        </g>
    </g>
</svg>