<?xml version="1.0" encoding="UTF-8"?>
<svg width="66px" height="102px" viewBox="0 0 66 102" version="1.1" xmlns="http://www.w3.org/2000/svg" xmlns:xlink="http://www.w3.org/1999/xlink">
    <!-- Generator: Sketch 53 (72520) - https://sketchapp.com -->
    <title>144u</title>
    <desc>Created with Sketch.</desc>
    <g id="Welcome" stroke="none" stroke-width="1" fill="none" fill-rule="evenodd">
        <g id="HOME" transform="translate(-1016.000000, -2446.000000)" fill="#000000" fill-rule="nonzero">
            <g id="144u" transform="translate(1049.549909, 2497.398839) rotate(15.000000) translate(-1049.549909, -2497.398839) translate(1024.049909, 2447.398839)">
                <path d="M48.3511695,58.4431525 C48.3511695,59.8481779 48.3366722,61.1937716 48.3561291,62.5388701 C48.3696906,63.4768716 48.4404784,64.4139339 48.4622027,65.3519718 C48.4682348,65.6127061 48.3522708,65.876258 48.3577991,66.137087 C48.3816181,67.2607522 48.4393122,68.3836673 48.4657658,69.5073033 C48.4833943,70.2559572 48.4405287,71.0069335 48.4805511,71.7538181 C48.5022467,72.1586508 48.6417419,72.5568801 48.7262783,72.9584877 C48.7609811,73.1233796 48.8144714,73.2887302 48.8184952,73.4548818 C48.8307107,73.9583164 48.8108363,74.4626027 48.8254056,74.9659134 C48.8565741,76.0429096 48.885,77.1204956 48.9480856,78.1958244 C48.9779584,78.7048578 49.1423021,79.2089257 49.1451309,79.7158186 C49.1511631,80.7964114 49.0661804,81.8774411 49.068635,82.9581795 C49.0700243,83.5709474 49.1595419,84.1848074 49.2318197,84.795464 C49.2621316,85.0516115 49.3119436,85.3196847 49.4218395,85.5484571 C49.578121,85.8738144 49.7334812,86.2568926 50.0037689,86.4572996 C50.6114537,86.9078257 50.7552462,87.4494035 50.7503226,88.1875732 C50.7415047,89.5100872 50.8737081,90.8335185 50.9444742,92.1567024 C50.9507439,92.2739498 50.9865193,92.4336143 50.9274863,92.50329 C50.527781,92.9751047 50.1826746,93.5604392 49.6759599,93.8596154 C48.5960689,94.4971811 47.4306193,94.9872848 46.2963885,95.5296051 C45.6065644,95.8594619 44.9237801,96.2122673 44.2110582,96.4825247 C43.6985201,96.6768887 43.1330171,96.723179 42.6067592,96.886906 C41.8247972,97.1301669 41.0148411,97.3363984 40.2938197,97.7103322 C39.495892,98.1241638 38.6448194,98.1168248 37.8149818,98.2850805 C37.4343878,98.3622554 37.0542979,98.4420512 36.6745965,98.5235798 C35.7535425,98.7213803 34.8406296,98.9797411 33.9101387,99.1054923 C32.6104486,99.2811306 31.2995725,99.3932233 29.9898624,99.4636126 C29.2763848,99.5019524 28.5556656,99.3733617 27.8377826,99.3667654 C27.3435137,99.3622223 26.8487768,99.4677625 26.3538098,99.4720727 C24.6964235,99.4864883 23.0388284,99.4804599 21.381327,99.4767905 C19.4972386,99.4726259 17.6312538,99.3403076 15.7854277,98.8959846 C14.6278963,98.6173544 13.4274163,98.5257057 12.2620711,98.2748002 C10.5255292,97.9009247 8.87589546,97.2675234 7.29859705,96.4338172 C6.41292972,95.9656865 5.4907599,95.5687022 4.59690449,95.1157007 C4.18779827,94.9083627 3.79603625,94.6594375 3.42191362,94.3927621 C3.32984422,94.327149 3.30689604,94.1187188 3.30465018,93.9751008 C3.29336332,93.2529049 3.29947112,92.5304322 3.29947112,91.808047 C3.29947112,91.0924764 3.34140824,90.373746 3.28894719,89.6621361 C3.22212573,88.7557253 3.68030256,88.2067213 4.38333196,87.7894822 C4.88484228,87.491835 5.20887945,87.2153309 5.10763578,86.4717007 C4.98309142,85.5568881 5.16344398,84.6021776 5.17879069,83.6641396 C5.18534465,83.2639665 5.12151772,82.8604296 5.06587144,82.4618146 C4.91673416,81.3934532 4.74351875,80.3284118 4.60450938,79.2587836 C4.56135221,78.9267136 4.60349454,78.5839992 4.59529206,78.2464395 C4.58275271,77.7302929 4.61879796,77.2035022 4.52713533,76.7012179 C4.41800242,76.103237 4.20548436,75.539628 4.34222264,74.9012832 C4.41029304,74.5834977 4.28588903,74.2222759 4.24225669,73.8815274 C4.12638266,72.9765727 4.01624919,72.0707226 3.88664076,71.1677556 C3.74980542,70.2143992 3.56772887,69.2670713 3.45316122,68.3112613 C3.36234431,67.5535796 3.36614504,66.7846783 3.28754351,66.0250307 C3.1740413,64.9281073 3.02728669,63.8346423 2.88842131,62.7405076 C2.795211,62.006102 2.6646776,61.275526 2.59900791,60.5388342 C2.52808698,59.7432349 2.53161764,58.9410537 2.46977734,58.1443622 C2.36705098,56.8210546 2.20566943,55.5015621 2.1367388,54.1768494 C2.11077109,53.6777177 2.31220738,53.1703662 2.33529225,52.6632841 C2.3491848,52.3581669 2.26156042,52.0288126 2.14536962,51.7409942 C1.85847545,51.0302871 1.80737137,50.3261981 2.07338691,49.6040749 C2.16850838,49.3458525 2.20494601,49.0300983 2.37710329,48.8433134 C2.80841976,48.3753574 2.70417095,47.8953083 2.56178919,47.3696024 C2.45899796,46.9900625 2.39814031,46.5945343 2.36144712,46.2020423 C2.30184903,45.5645202 2.25322834,44.924013 2.24327675,44.284081 C2.22495002,43.1048209 2.23804367,41.9250512 2.23804367,40.7454999 C2.23804367,39.6454531 2.25208742,38.5451662 2.23296522,37.4454544 C2.22080373,36.7458721 2.13179726,36.0472872 2.12868044,35.3480253 C2.12609622,34.768377 2.23671559,34.1879497 2.23024796,33.6086363 C2.21615728,32.3458818 2.14413152,31.0838627 2.12441904,29.8210791 C2.10476778,28.562329 2.10626498,27.3028362 2.12324935,26.0440059 C2.15092301,23.9931148 2.19902548,21.9425075 2.23796088,19.8917692 C2.27764848,17.801293 2.32209057,15.7108825 2.35312953,13.6202681 C2.36445603,12.8575954 2.2784475,12.1512421 1.36034106,11.9047888 C1.18777348,11.8584657 0.95644999,11.5658385 0.961002925,11.3924792 C0.986909538,10.4059887 1.07576847,9.42117989 1.14439317,8.43587977 C1.15101919,8.34076908 1.18759351,8.24270976 1.17333016,8.15195659 C0.959149436,6.78896945 1.77886273,5.90205263 2.55242433,4.96744763 C3.23912803,4.13777845 4.14506579,3.75602163 5.1199448,3.44850916 C6.4586855,3.02621382 7.77720259,2.53344179 9.12741366,2.15489567 C10.1061474,1.88050655 11.1208005,1.73460243 12.1220541,1.54561161 C13.5464864,1.27674471 14.9733303,1.02093581 16.3991339,0.759506154 C16.4904907,0.742753385 16.5813544,0.713911096 16.6731719,0.710500112 C17.8162565,0.66800661 18.9595246,0.630427573 20.1026524,0.589066334 C21.1543765,0.551010392 22.2066945,0.466216393 23.2574398,0.48352253 C24.149564,0.498214871 25.0387946,0.645520358 25.9312859,0.702531447 C26.4597826,0.736295478 26.9923606,0.697930107 27.5226568,0.710816816 C28.901823,0.744325933 30.2826375,0.756586628 31.6589387,0.841409733 C32.3418597,0.883502792 33.0127884,1.09856191 33.6957383,1.1751179 C34.1877398,1.23026514 34.7079512,1.10208216 35.1851458,1.20295914 C36.2419808,1.42636923 37.2752774,1.76115491 38.3267497,2.01400432 C38.9766739,2.17029061 39.6381656,2.30085442 40.3018961,2.36994763 C41.611347,2.50625948 42.7903005,2.96270832 43.9084071,3.65257464 C44.4159856,3.96574783 45.10658,4.040429 45.5179753,4.43339428 C46.1933526,5.07851379 47.1432861,5.60927257 47.0560864,6.79323225 C47.0046691,7.49141674 46.9617531,8.19096992 46.9468454,8.89059956 C46.943707,9.03772313 47.0956768,9.18230568 47.1489439,9.33761275 C47.3672385,9.97400636 46.8511877,11.3033095 46.2367366,11.6034612 C45.8020981,11.8157757 45.6167427,12.1668009 45.6478537,12.6003595 C45.7400058,13.8845954 45.8747214,15.1657044 45.9917435,16.4481348 C45.9971423,16.5072645 45.9886051,16.5676211 45.9930032,16.6269183 C46.1102342,18.2074655 46.2584106,19.7864546 46.3359142,21.368975 C46.3896565,22.4663278 46.289651,23.5722355 46.3593806,24.6677463 C46.4667283,26.3542851 46.6719508,28.0342277 46.8113021,29.7190336 C46.8543117,30.2390098 46.7448765,30.7786582 46.8329185,31.2866723 C47.0279411,32.4119682 46.8017212,33.5516143 47.1146298,34.695738 C47.2861501,35.3228779 47.2395125,36.0938906 47.2675713,36.7983873 C47.3226309,38.1814981 47.4952453,39.5368186 47.7374453,40.8976361 C47.8776891,41.6855836 47.7717235,42.5174551 47.7893521,43.3292758 C47.7936854,43.5287217 47.8191816,43.7373412 47.8842036,43.9242062 C48.2508904,44.9781154 47.9735845,45.9811112 47.6293202,46.9636702 C47.5224403,47.2686927 47.5458131,47.4269009 47.7568375,47.6622914 C48.0754471,48.0176741 48.2669425,48.369897 48.160106,48.967128 C48.0211074,49.7440016 48.0190847,50.5405401 47.7977668,51.3254517 C47.7003167,51.6710856 48.024469,52.1247568 48.1104235,52.539302 C48.4193731,54.0294164 48.6423969,55.5228143 48.3631114,57.053693 C48.2847726,57.4830907 48.3511695,57.9394923 48.3511695,58.4431525 L48.3511695,58.4431525 Z M44.1054597,11.5040987 C44.10885,11.6268175 44.1122477,11.7495364 44.1156452,11.8722589 C44.1842807,11.8357319 44.2529162,11.7992085 44.3215516,11.7626816 C44.2495257,11.6566062 44.1774927,11.550531 44.1054597,11.3848126 C43.7816313,11.0035946 43.4250437,11.3299056 43.2322597,11.4685655 C41.8985866,12.4278155 40.2816186,12.7297073 38.8498116,13.453607 C38.7014554,13.5286122 38.3663689,13.4273858 38.2329418,13.2919767 C37.8776139,12.9313994 37.5196153,12.9057569 37.0943994,13.1039505 C36.9631247,13.165137 36.8134078,13.2319187 36.6767488,13.2230909 C36.519949,13.2129527 36.3682671,13.1216389 36.2143683,13.0655889 C36.276734,12.9158078 36.2993222,12.709307 36.4106938,12.6294274 C36.581667,12.5067995 36.8095208,12.4539749 37.020574,12.4019219 C37.7001046,12.2343289 38.4378261,12.1968189 39.0540409,11.8992592 C40.7308695,11.0895244 42.3615286,10.1808931 44.0001058,9.29186847 C44.485924,9.02828367 44.940372,8.70440802 45.4008235,8.39541031 C45.4630022,8.35368131 45.4760814,8.23710737 45.5119,8.15518924 C45.4402269,8.13827627 45.3653433,8.09889887 45.2974925,8.10878602 C45.1152467,8.13534577 44.9113487,8.14010731 44.7597028,8.2293935 C43.9502002,8.70604617 43.1787262,9.25455878 42.3472977,9.68593679 C41.2003908,10.2809981 40.0148221,10.8007559 38.8365308,11.331704 C38.7071852,11.3899929 38.5169783,11.3100878 38.3549956,11.2942742 C38.4333056,11.1561386 38.4778701,10.9564998 38.595684,10.8903551 C39.1522323,10.5779065 39.7030508,10.2181991 40.3032854,10.0293901 C41.8451467,9.54436837 43.2048559,8.72388015 44.5317338,7.83347946 C44.6720424,7.73932616 44.7098909,7.48897412 44.7952767,7.31108978 C44.621784,7.33952435 44.4109036,7.31332854 44.2804567,7.40465333 C42.5590491,8.60977065 40.5614728,9.1722111 38.6309627,9.87986033 C37.8583369,10.1630701 37.0338764,10.3083843 36.2264685,10.4860866 C35.0699591,10.7406251 33.9097715,10.9796959 32.7467837,11.2019666 C31.8133558,11.3803678 30.8781932,11.5724057 29.9348533,11.6676874 C29.1821594,11.7437156 28.4158249,11.6749207 27.655868,11.6884882 C27.4553675,11.692063 27.2528875,11.8082475 27.0566916,11.7944471 C26.1840818,11.7330676 25.3148697,11.6111715 24.4417344,11.5709895 C22.9983311,11.5045683 21.5526349,11.4906769 20.1083426,11.441649 C19.4166613,11.4181725 18.7183935,11.4165526 18.0364298,11.3142268 C16.6941764,11.1128298 15.3636958,10.8324485 14.0235623,10.6148702 C13.1140327,10.4672042 12.1780098,10.4485695 11.2866522,10.2332553 C9.97462795,9.9163182 8.68055613,9.50978532 7.39969672,9.07810157 C6.02120367,8.61351647 4.66970048,8.06740653 3.29787308,7.58157289 C3.13985319,7.52560662 2.92707237,7.62783046 2.7396836,7.65670913 C2.86805382,7.72643217 2.99498085,7.79911852 3.12555376,7.86433482 C3.17387218,7.8884665 3.23341979,7.88879418 3.28335417,7.91053776 C4.1839184,8.30268045 5.07865916,8.70907496 5.98540314,9.08595727 C6.74111306,9.40005875 7.51365971,9.67264964 8.27056091,9.9839844 C8.36840329,10.0242282 8.41717152,10.1865173 8.48867198,10.2922759 C8.37279784,10.3006814 8.24327232,10.3477544 8.1431264,10.3115951 C6.96235169,9.88523703 5.78766675,9.44160214 4.60623337,9.01716621 C4.4628008,8.96563739 4.28923984,8.99991101 4.12963983,8.99442505 C4.2492318,9.11849815 4.34792368,9.28357212 4.49236768,9.3588867 C4.91157303,9.57748074 5.35290595,9.75213243 5.77843493,9.95900089 C6.20507263,10.1664227 6.60407606,10.4508301 7.04868054,10.5979464 C8.19345669,10.9767473 9.3635203,11.2769717 10.5106107,11.6491618 C11.4967732,11.9691352 12.4583859,12.3665999 13.4448038,12.6856704 C13.8319409,12.8108937 14.26388,12.7889536 14.6609184,12.8914686 C14.7894254,12.9246502 14.8717339,13.1408597 14.9751731,13.2733492 C14.8293505,13.3396721 14.6713558,13.4809676 14.5398364,13.4591294 C14.013636,13.3717652 13.4998669,13.2057848 12.9731051,13.1246567 C12.6420568,13.073674 12.2956978,13.1138012 11.9570338,13.1303792 C11.8524142,13.1355012 11.7411183,13.2450894 11.6488508,13.22636 C10.7804198,13.0501029 9.89890938,12.912284 9.05291514,12.6561182 C7.29253618,12.123077 5.52637693,11.5893112 3.9375901,10.6082558 C3.85634691,10.5580848 3.72357496,10.5932831 3.61479468,10.5887363 C3.63129669,10.6987615 3.62234214,10.822525 3.67117158,10.9151093 C3.72426229,11.0157715 3.81929378,11.1061134 3.91637688,11.1686649 C4.42829591,11.4985362 4.97644382,11.7788119 5.45610029,12.1501901 C6.27458622,12.7839153 7.2637143,12.9766267 8.20575852,13.2043797 C9.51156702,13.5200793 10.8890812,13.5345458 12.1926943,13.8567652 C13.560505,14.19486 14.9290573,14.4380262 16.3273672,14.5465805 C16.7830354,14.5819572 17.23888,14.617858 17.6932741,14.6665728 C19.1416407,14.8218543 20.5861814,15.0347403 22.0383091,15.1264764 C23.2586275,15.2035675 24.487717,15.1569495 25.7124875,15.1372954 C26.5612422,15.1236769 27.4089027,15.0461964 28.2577005,15.0275507 C29.1679429,15.0075544 30.0802295,15.0531129 30.9891904,15.0132879 C31.6858026,14.9827638 32.3804496,14.8773619 33.0726421,14.7808169 C33.8120191,14.6776903 34.5463429,14.537902 35.2850218,14.4290709 C35.9059441,14.3375897 36.5337048,14.2897049 37.1516472,14.1824647 C37.9353943,14.0464442 38.7192567,13.8978462 39.4896007,13.7007993 C39.9798601,13.5753976 40.4492734,13.3612629 40.9211414,13.1695637 C41.2242099,13.0464407 41.5231034,12.9071547 41.8093425,12.7483458 C42.5788803,12.321398 43.3406223,11.8800747 44.1054597,11.5040987 L44.1054597,11.5040987 Z M41.2749865,87.6085874 C41.2048897,87.9975775 41.2682921,88.5757333 41.0399919,88.740567 C40.318373,89.2615552 39.5125559,89.6889871 38.6902837,90.0325606 C38.1363484,90.2640267 37.4946518,90.2722393 36.9012195,90.4178376 C36.3698364,90.5482048 35.8599832,90.783151 35.3243531,90.8778576 C34.2165904,91.073736 33.0989589,91.214267 31.9836308,91.3642191 C30.6554501,91.5427986 29.3428463,91.8695393 27.9816471,91.7355027 C27.6121674,91.6991286 27.2284854,91.8424116 26.8524695,91.8358153 C25.7873926,91.817206 24.7230858,91.7575339 23.6581025,91.7274794 C23.3126361,91.7177379 22.9599499,91.7973882 22.6210231,91.753515 C21.4699125,91.604553 20.3235779,91.4179794 19.1752314,91.247059 C18.5265021,91.1505177 17.8625593,91.1140853 17.2319589,90.9477955 C16.2811471,90.6970501 15.3523369,90.3600584 14.41635,90.0529609 C13.4206824,89.7262786 12.4074113,88.1525242 12.7688939,87.2075698 C13.1049052,86.329204 12.5496563,86.6067565 12.2007167,86.6038734 C11.8635644,86.6010777 11.5254979,86.7021476 11.1884642,86.6984635 C11.0737887,86.6972113 10.9610315,86.5160981 10.8474032,86.4171832 C10.9404191,86.3172929 11.0178222,86.1601038 11.1295644,86.1289426 C11.3984988,86.053952 11.6869693,86.0542579 11.9613168,85.9947458 C12.4826117,85.8816775 13.0925315,85.8801486 13.495314,85.5902334 C14.0283852,85.2065436 14.5541932,84.8574368 15.131487,84.5338997 C16.1546844,83.9604909 17.1752365,83.3912175 18.2093033,82.836418 C20.3218,81.7030115 22.4154803,80.4465183 23.888922,78.4521322 C24.7651957,77.2660211 25.6998545,76.0834482 25.9425152,74.5457185 C26.1427422,73.2768555 26.3251894,72.0049565 26.5437864,70.739399 C26.5809222,70.5244017 26.7607852,70.3346172 26.8747122,70.1331837 C27.0599309,70.2568235 27.3033689,70.3419924 27.4147693,70.5144127 C27.5377588,70.7047868 27.5312588,70.9775924 27.5966047,71.2100561 C27.6712795,71.4756976 27.7116618,71.7705855 27.8564693,71.9931837 C28.3776956,72.7944475 28.9455165,73.5644991 29.479419,74.3575794 C30.4574402,75.810344 31.5160171,77.1687153 32.9869467,78.1741135 C34.1671023,78.9807651 35.2686026,79.9050425 36.4065187,80.7750937 C37.0345818,81.2553103 37.69932,81.6933573 38.2842007,82.2220921 C38.7036724,82.601297 39.0086917,83.1076365 39.3820874,83.5420288 C39.7852838,84.0110768 40.2014155,84.4693641 40.6263724,84.9183321 C40.8222227,85.1252625 40.9848316,85.3602962 41.3787566,85.1835077 C41.6917372,85.0430641 42.0844746,85.0492818 42.4412351,85.0525581 C42.8969861,85.0567371 43.3557963,85.1731691 43.8058606,85.1395181 C43.9941888,85.1254373 44.2748852,84.8788419 44.3229193,84.6886862 C44.5967557,83.6045549 44.8599387,82.513143 45.0345902,81.4092812 C45.1828024,80.472583 45.2367679,79.5168823 45.2734574,78.5672537 C45.295772,77.9897677 45.2301743,77.4049429 45.1610493,76.8286947 C45.0664785,76.0403032 44.9856203,75.2433276 44.7986454,74.474987 C44.5858791,73.6006474 44.2421403,72.7598645 43.992087,71.8936429 C43.5579596,70.3897826 43.2268898,68.844765 42.4456907,67.4731211 C41.8117683,66.3600422 41.1321585,65.2703267 40.4179897,64.20795 C39.0347422,62.1502732 37.2751118,60.4239457 35.5466644,58.6728858 C35.4499989,58.5749612 35.3540315,58.4762358 35.2604973,58.3752605 C34.7323389,57.8050625 34.2134016,57.2258074 33.6736324,56.6671128 C33.4346572,56.4197748 33.1230443,56.2412097 32.898336,55.9833513 C32.2561644,55.2464703 31.6069384,54.51114 31.0269381,53.7250273 C30.5395436,53.0644329 30.1197119,52.3452584 30.1876779,51.4555058 C30.271689,50.3557429 30.2337684,49.2313207 30.4561805,48.1617216 C30.6825299,47.0731564 31.0855104,46.0024653 31.5531241,44.9911041 C31.9328687,44.1697895 32.5267976,43.4505131 33.0186263,42.681335 C34.1612429,40.894389 35.3493023,39.1346287 36.426314,37.3079886 C37.6243717,35.2760416 38.7253969,33.1853035 39.8569354,31.1136187 C40.3065031,30.2905204 40.7756716,29.4722927 41.1455545,28.6120922 C41.7598473,27.1834628 42.2304914,25.7048446 42.4618293,24.1521822 C42.6192769,23.095448 42.8827407,22.0546367 43.0333427,20.9971598 C43.1634658,20.0833956 43.2514934,19.1568175 43.2630034,18.2346878 C43.2712598,17.5729649 43.1679648,16.8994983 43.0314352,16.2490931 C42.8917601,15.5836861 42.6769207,14.929939 42.4361387,14.2938768 C42.3757093,14.1342487 42.0875339,13.9656509 41.9081171,13.9700884 C41.5655373,13.9785667 41.2195454,14.0877582 40.8861722,14.191824 C39.7717871,14.5396784 38.6839348,15.0751333 37.5459969,15.2217508 C35.8058955,15.4459582 34.1262305,15.9972302 32.3403984,16.0044162 C29.9645749,16.013972 27.5895288,16.2163483 25.2140651,16.334171 C25.0572077,16.341954 24.899645,16.335183 24.742406,16.335183 C23.6350176,16.335183 22.5216007,16.409067 21.4216841,16.3173563 C19.8856678,16.1892789 18.3601143,15.9344675 16.8293419,15.7398594 C15.837608,15.613777 14.8384923,15.5350441 13.8536544,15.368656 C12.6864161,15.1714526 11.5271642,14.9201175 10.3716555,14.6595433 C9.49492832,14.4618266 8.62347386,14.2337787 7.76112527,13.979495 C7.18490048,13.8095794 6.85957132,13.960751 6.71871199,14.5481277 C6.64526086,14.8544097 6.54056578,15.1545687 6.48777722,15.464087 C6.31965454,16.4499186 6.06096333,17.4363509 6.03869906,18.4271808 C6.00911425,19.7435571 6.12150432,21.0695658 6.26329935,22.3814428 C6.37263015,23.392906 6.3192479,24.4197458 6.69672134,25.4148639 C7.02967344,26.2926035 7.06015091,27.2912163 7.41586049,28.1557852 C7.91125227,29.3598723 8.57731144,30.4930678 9.1859679,31.6481779 C9.53008822,32.3012515 9.82831596,33.0004697 10.2819327,33.5689277 C11.4458598,35.027546 12.6794445,36.4296738 13.8979274,37.8431376 C14.2178831,38.2142901 14.5894828,38.5393999 14.9283195,38.8944841 C15.8599803,39.8708181 16.784817,40.8537994 17.716125,41.8304829 C18.8953232,43.0671362 20.0800858,44.2983656 21.2590501,45.5352447 C22.4769643,46.8130118 22.9635887,48.3868754 22.9809652,50.1156929 C22.9876128,50.7776488 22.9157669,51.4632814 22.7405144,52.0988596 C22.4825033,53.0345749 22.2312875,54.0171849 21.7358489,54.8291876 C21.1608441,55.7715939 20.3549372,56.5798178 19.5947823,57.3942668 C18.5991002,58.4610628 17.550115,59.4769599 16.5240634,60.5147571 C15.9705348,61.0746167 15.3889977,61.6092851 14.8696141,62.1998616 C13.9330945,63.2647501 13.0304284,64.3602537 12.1208988,65.4491829 C11.8414585,65.7837357 11.5290754,66.1081901 11.3292875,66.4895356 C10.5960902,67.8889986 9.92109804,69.3195938 9.19133778,70.7209717 C8.49400943,72.0600855 8.51990519,73.5452782 8.40716603,74.9728227 C8.28546854,76.5138215 8.44858116,78.0778927 8.49062265,79.6318291 C8.49312043,79.7243224 8.52330282,79.8160876 8.54121925,79.9080712 C8.72018971,80.8270484 8.89611176,81.7466516 9.08087326,82.6644202 C9.12079118,82.8627011 9.18911716,83.0555509 9.25042119,83.2489246 C9.50630517,84.0560421 9.82410858,84.848802 10.0078083,85.6722426 C10.2801439,86.8930169 10.562719,88.0947596 11.3185441,89.1217378 C11.5190878,89.394223 11.6867426,89.696326 11.9140926,89.9427611 C12.4018795,90.4714959 12.8307017,91.195279 13.4407439,91.4422239 C15.0461731,92.0920648 16.7300742,92.5622487 18.477921,92.6751277 C20.5312587,92.8077373 22.5862879,93.0162112 24.6402123,93.0118865 C27.4421443,93.0059892 30.2489353,93.2316017 33.0500826,92.7152586 C34.3380827,92.4778514 35.683129,92.5329805 36.9765997,92.2057593 C38.2891531,91.8736892 39.7489109,92.0418138 40.8557379,91.0190147 C40.8779301,90.9984979 40.930535,91.0142095 40.9680884,91.007788 C41.9033735,90.8478614 42.2730835,90.1529533 42.5822131,89.3467096 C42.9561702,88.3713802 43.4125114,87.4285809 43.8084664,86.4613476 C43.8555071,86.3464445 43.7640891,86.0430456 43.7083817,86.0352554 C42.902032,85.9224927 42.0911331,85.841532 41.2796942,85.7724388 C41.2444298,85.7694391 41.1518169,85.9560565 41.1569996,86.0503263 C41.1834534,86.5307175 41.2333085,87.0097692 41.2749865,87.6085874 L41.2749865,87.6085874 Z M18.6901691,56.773148 C18.8148791,56.6072513 18.9288276,56.4315768 19.0660337,56.2770232 C19.9908849,55.2353527 20.9254716,54.2206207 21.3300826,52.8098143 C21.7421113,51.373118 22.0458997,49.9722278 21.4886856,48.5004972 C20.9259828,47.0142706 19.8713757,45.8733359 18.8748263,44.7154518 C18.042775,43.7486917 16.9783964,42.9907041 16.0871971,42.0706057 C15.2305711,41.1861898 14.4729392,40.2044098 13.6542625,39.2813337 C13.2764795,38.8553798 12.828024,38.492134 12.4625933,38.0566933 C11.8146054,37.2845377 11.2608427,36.4250069 10.5683408,35.6989376 C9.22912153,34.2948004 8.37369403,32.5806825 7.43691532,30.9198662 C6.76271146,29.7245597 6.304783,28.442344 6.1143168,27.0580829 C6.00363634,26.2536812 5.6822985,25.4801931 5.55366198,24.6767524 C5.38156945,23.6019404 5.28888808,22.5129822 5.19355432,21.427271 C5.15139761,20.9471491 5.18987235,20.4600596 5.18463208,19.9762101 C5.18275335,19.8027196 5.15770697,19.6296005 5.14720108,19.4560737 C5.12142773,19.030462 5.07267377,18.6042314 5.08026805,18.179122 C5.08887717,17.6973838 5.31681742,17.1451544 5.15249182,16.7498265 C4.77713463,15.8468012 5.11682444,15.0483187 5.32950796,14.2459846 C5.46886277,13.720275 5.35893804,13.4579463 4.91599281,13.2588279 C4.71685994,13.1693125 4.51543804,13.0849808 4.31662914,12.9947481 C3.92141206,12.8153787 3.66093564,12.9623639 3.65715649,13.4039021 C3.64620798,14.6828632 3.63816389,15.9622066 3.65718173,17.2409749 C3.67999664,18.7752974 3.74089391,20.3090155 3.76797376,21.8433087 C3.78528198,22.8238728 3.74742275,23.8058567 3.78190959,24.7854888 C3.79762344,25.2319014 3.97619445,25.6716958 3.99882574,26.118749 C4.09674737,28.0528078 4.17474425,29.9880679 4.23975892,31.92359 C4.29460606,33.5565215 4.32194867,35.1903994 4.36070056,36.8238768 C4.3739454,37.3822439 4.37008711,37.9414918 4.40002467,38.4989123 C4.45550891,39.5319916 4.53626632,40.5636586 4.59469106,41.5965996 C4.63629701,42.3321846 4.62975378,43.0715484 4.69591302,43.8044906 C4.80834272,45.0500919 5.07413147,46.303993 4.58405555,47.5173848 C4.41087966,47.9461564 4.55071317,48.0975791 4.88068891,48.3204323 C5.15068504,48.5027833 5.51869998,48.8426946 5.50460941,49.0932724 C5.45802583,49.9215109 5.85309538,50.812261 5.21501237,51.5911805 C5.11244782,51.7163784 5.26100921,52.0579205 5.30429246,52.2974537 C5.33393848,52.4615156 5.41211521,52.6210855 5.41764713,52.7844267 C5.46511251,54.1858774 5.5199093,55.5875247 5.53549353,56.9895287 C5.55523112,58.7653355 5.5402624,60.5415207 5.5402624,62.3175459 C5.5402624,63.2387874 5.55535708,64.1603564 5.53556912,65.081161 C5.51925062,65.8404664 5.43927784,66.598505 5.4274296,67.3577448 C5.40840092,68.5768592 5.40701163,69.7967525 5.42677446,71.015845 C5.44531359,72.1595028 5.54585542,73.3031459 5.53076062,74.4457261 C5.50082306,76.7123137 5.59836317,78.9665678 5.88661408,81.2164025 C6.11994591,83.0375968 6.29451464,84.8666832 6.47857429,86.6939933 C6.52427252,87.14765 6.76818206,87.137661 7.07180857,87.0085607 C7.4568869,86.8448336 7.81800233,86.5481328 8.21248891,86.4993671 C8.86238785,86.4190034 8.973324,86.2730411 8.75214281,85.5991158 C8.3426119,84.351272 8.03685487,83.059395 7.80141752,81.7647368 C7.53328939,80.2902903 7.35093568,78.7965211 7.20880229,77.3035891 C7.14509046,76.6343379 7.27351116,75.9468925 7.30841549,75.267383 C7.3514684,74.4292647 7.37152997,73.5895445 7.43384166,72.7529842 C7.46738206,72.3026547 7.49233127,71.8267483 7.65433175,71.4161201 C8.03769705,70.4443729 8.47959855,69.4942492 8.93734338,68.5550901 C9.39683037,67.6123635 9.83384423,66.6455525 10.411613,65.7785446 C10.9224811,65.0119512 11.6140725,64.368692 12.2248561,63.670078 C13.4204305,62.3025624 14.5859592,60.9065867 15.820289,59.5758675 C16.710009,58.616672 17.6909526,57.7440434 18.6901691,56.773148 L18.6901691,56.773148 Z M36.5575312,58.3835095 C37.3609151,59.1960874 38.2095043,59.9686144 38.9566411,60.8310427 C39.9667808,61.9970448 40.9235671,63.2131522 41.8533383,64.4462599 C42.2611416,64.9871024 42.5679461,65.6113009 42.8810204,66.2185355 C43.4022539,67.2295255 44.0604561,68.1783824 44.2327178,69.3512209 C44.299345,69.8048486 44.4090177,70.2731104 44.605372,70.6825591 C45.5174355,72.5844957 46.0418363,74.594193 46.092944,76.6925103 C46.1590456,79.4062748 46.2928686,82.1412188 45.2953689,84.7580415 C45.1805206,85.0593435 45.3439717,85.3355129 45.7016102,85.4001359 C46.1787977,85.4863677 46.6587565,85.5568153 47.1362822,85.6412561 C47.9924007,85.7926207 48.0992014,85.5501899 47.9423943,84.6813763 C47.8794671,84.3327647 47.8741476,83.9683249 47.8854776,83.6124908 C47.8995215,83.1709781 48.0060198,82.7285189 47.9847777,82.2908505 C47.9601956,81.7844528 47.8036982,81.2853648 47.7684267,80.7785593 C47.669832,79.3619503 47.6155715,77.9422106 47.5212742,76.5252375 C47.4664882,75.7018698 47.3790006,74.8802348 47.2873234,74.0599831 C47.1390607,72.7334867 46.9608172,71.4102883 46.823863,70.0826779 C46.7514053,69.3802779 46.766097,68.668719 46.6943519,67.9662099 C46.5567427,66.6188107 46.3826453,65.2752629 46.2299414,63.9293854 C46.1779339,63.4710471 46.1747523,63.0052462 46.0968311,62.55207 C45.9222515,61.5367481 45.64645,60.5346842 45.5374683,59.5134941 C45.3911779,58.1426004 45.3648394,56.7586741 45.2841829,55.3805069 C45.2486738,54.7737674 45.2996016,54.1409922 45.1410237,53.5682605 C44.9774143,52.9773709 45.0952356,52.4752615 45.356511,52.0122855 C45.6561604,51.4813374 45.5854663,51.1468429 45.1579613,50.7110965 C44.4225432,49.9615034 44.1893626,49.1625477 44.6913337,48.0086607 C44.9105353,47.5047966 45.1935855,46.9962947 45.2617027,46.4654923 C45.3831878,45.518805 45.3672868,44.5537196 45.4017881,43.5960676 C45.4451217,42.3934075 45.514189,41.1904344 45.5121016,39.9877016 C45.5096757,38.5928835 45.4383913,37.198262 45.4047106,35.8033712 C45.39256,35.2999513 45.4169764,34.7954683 45.3994559,34.2923686 C45.3727791,33.5263942 45.3196415,32.7614099 45.2859392,31.995632 C45.2420586,30.9986064 45.1955002,30.0015225 45.168881,29.0039508 C45.0848773,25.8568134 45.0222451,22.7090208 44.9235713,19.5623856 C44.89277,18.5800888 44.804548,17.5968235 44.6864676,16.6209445 C44.5687977,15.6483527 44.3869839,14.6833438 44.217407,13.7178687 C44.1877863,13.5492601 44.1095483,13.2920932 44.0002858,13.2595561 C43.8616328,13.2182639 43.6140557,13.320404 43.5157634,13.4439565 C43.4367768,13.5432426 43.4815644,13.7743593 43.5243941,13.9322837 C43.5616883,14.0698186 43.7224759,14.178828 43.7438405,14.3141497 C43.9150728,15.3988416 44.1275584,16.4824157 44.2036656,17.575149 C44.2629433,18.4262124 44.1475623,19.290075 44.1045886,20.1479749 C44.0695619,20.8472733 44.1170201,21.5663168 43.9697004,22.2412759 C43.6061304,23.9069556 43.1889765,25.5631997 42.7223273,27.2025527 C42.3231691,28.6048406 41.6980429,29.9137107 40.9527273,31.172519 C40.1934326,32.454924 39.5526431,33.8086574 38.8084,35.1007674 C37.9297438,36.6262366 36.9978562,38.1204135 36.0848354,39.6255552 C35.6805088,40.2921125 35.265133,40.9518041 34.8560412,41.6154054 C34.1646909,42.7368646 33.4593113,43.8498344 32.7873819,44.9830881 C31.9502669,46.3949428 31.5692051,47.9575287 31.3639753,49.5750324 C31.3147104,49.9633091 31.1032038,50.3591284 31.151792,50.7263786 C31.3286894,52.0633883 32.0083497,53.2109994 32.7676803,54.270078 C33.2463866,54.9377492 33.9817398,55.4112094 34.5573923,56.0152478 C35.2488577,56.7407783 35.8929369,57.5124972 36.5575312,58.3835095 L36.5575312,58.3835095 Z M21.8744515,10.6094534 C24.0000201,10.5696938 26.1269061,10.5633706 28.2506751,10.4778486 C29.5602411,10.4251112 30.8772718,10.3266842 32.1686478,10.1117124 C33.527047,9.88559024 34.8579271,9.49203878 36.2025559,9.17922965 C37.4234249,8.8952009 38.6732742,8.70519065 39.8610384,8.31869782 C40.9789075,7.95494974 42.0258592,7.37265127 43.117692,6.92027951 C43.5017555,6.76115385 43.8264549,6.56301474 43.7364694,6.12251409 C43.6425105,5.662545 43.4123242,5.25648902 42.884677,5.11869206 C41.2707251,4.69721932 39.6668508,4.2348403 38.0475074,3.8364036 C36.8806901,3.54930597 35.700664,3.30747227 34.5165349,3.10540161 C33.7137628,2.9684164 32.8928942,2.94255924 32.0814769,2.85426682 C30.6723084,2.70093655 29.2649251,2.53035478 27.8548856,2.38615073 C27.6252538,2.36266701 27.3831401,2.47603025 27.1513703,2.45973614 C26.451303,2.41051538 25.7537191,2.27474593 25.0547387,2.27160799 C23.9051758,2.26644601 22.7553932,2.36484028 21.6054847,2.37014064 C20.7573994,2.37405024 19.9092278,2.27974055 19.0605559,2.26750539 C18.6255574,2.26123679 18.190048,2.35822218 17.7535523,2.37388288 C17.1973388,2.39383538 16.6378068,2.34704639 16.0833784,2.38459262 C14.3486504,2.50206216 12.6094342,2.51997988 10.8999469,2.95881685 C9.23240394,3.38688945 7.5307915,3.65615668 6.01191076,4.56527585 C5.3199379,4.97945342 4.77424814,5.49381252 4.35828557,6.17610334 C4.14463745,6.52654244 4.26115222,6.70153624 4.60259114,6.86638453 C6.0679204,7.57385902 7.57675249,8.16188369 9.14514658,8.58438301 C10.1036676,8.84259098 11.0704523,9.07081725 12.0376652,9.29416544 C12.7942606,9.46887904 13.5524574,9.64651216 14.3185617,9.76660994 C15.286498,9.9183531 16.2621941,10.0221423 17.2363246,10.1301979 C18.7422594,10.2972559 20.2497093,10.4504041 21.8744515,10.6094534 L21.8744515,10.6094534 Z M38.6803861,88.0857316 C38.8134099,88.1453746 39.014911,88.2928221 39.0682286,88.2502741 C39.3902142,87.9933694 39.7052966,87.7153945 39.9641247,87.3959199 C40.0649149,87.2715083 40.0676358,87.0066823 40.0225818,86.8299083 C39.6507267,85.3708239 38.6306461,84.3605476 37.5109198,83.5162116 C36.2143467,82.5385379 34.7512416,81.7892871 33.4313172,80.840037 C32.2901186,80.019334 31.2033389,79.1061959 30.177766,78.1412197 C29.4719257,77.4771014 28.921467,76.6458705 28.276524,75.911829 C28.1741287,75.7952805 27.8550153,75.6999258 27.7825215,75.7640829 C27.5971301,75.9281375 27.4943245,76.187678 27.3584933,76.4090312 C27.4922946,76.4642258 27.6404709,76.4986414 27.7559311,76.5803593 C27.875811,76.6652006 28.0725612,76.8474205 28.0489437,76.8982102 C27.8608026,77.3027955 27.9436186,77.874355 27.3125539,78.018934 C26.817738,78.1322936 26.7398167,78.5299914 27.0361261,78.9447986 C27.1295525,79.075588 27.13963,79.2673165 27.1878583,79.4311455 C27.0143586,79.45871 26.8410892,79.4878035 26.6672942,79.5133148 C26.5195354,79.5350111 26.3425732,79.5080291 26.2297332,79.5822334 C26.054909,79.6971947 25.9236702,79.8799388 25.7739391,80.0339244 C25.7124442,79.8425454 25.6741279,79.638469 25.5808888,79.4644908 C25.523569,79.3575237 25.3822886,79.2965993 25.2787056,79.2149979 C25.2947794,79.5674974 25.310853,79.9199969 25.3269268,80.2724964 C26.1169724,80.1733341 26.365327,80.8551516 26.7858712,81.2968536 C26.9949664,81.5164669 27.1633771,81.7626545 26.8845379,81.983753 C26.5690235,82.2339304 26.4613878,81.8893231 26.2898171,81.6894695 C26.0026784,81.3550113 25.7054259,80.8625342 25.3475713,80.7965862 C24.8234368,80.699972 24.4921871,80.5908643 24.4040659,80.0317401 C24.3910299,79.9489593 24.2974597,79.8791962 24.2411404,79.8034047 C24.1795233,79.8914713 24.0565337,79.9873719 24.0663665,80.0663379 C24.1245213,80.5329104 24.2277228,80.993746 24.2853377,81.4603623 C24.3091856,81.6535177 24.317406,81.8979434 24.2201215,82.0403819 C24.1510397,82.14151 23.8874536,82.0919579 23.7217424,82.1450192 C23.5887543,82.1875964 23.3598063,82.2962527 23.3662344,82.3534057 C23.4240796,82.8674336 23.1288103,83.1763367 22.8213616,83.5118287 C22.7079603,83.6355704 22.7236128,83.8802873 22.6804088,84.0698461 C23.0528147,84.06424 23.4637565,84.1566168 23.7871745,84.0264681 C24.1354554,83.8863157 23.8461788,83.6450789 23.7232036,83.4240678 C23.6496805,83.2919387 23.7670338,83.0511533 23.798591,82.8592065 C23.9351637,82.9031088 24.1519395,82.9081906 24.1942869,82.9977134 C24.3679594,83.3648325 24.6832075,83.7011253 24.421529,84.1853462 C24.2585026,84.4870124 24.2459632,84.8108552 24.593877,85.0916842 C24.6996195,85.1770425 24.6627788,85.6944776 24.5702163,85.7356569 C24.1965903,85.9018304 23.8596035,86.3129391 23.3526153,86.0132095 C23.2127782,85.9305306 22.9677492,86.0298823 22.7709918,86.0457249 C22.9134455,86.1979049 23.0356937,86.3791491 23.2018152,86.4972849 C23.9579607,87.0349457 24.8283749,86.3680244 25.6079183,86.7139422 C25.6147062,86.5878706 25.6535625,86.4526399 25.6214654,86.3376786 C25.5588333,86.1133766 25.4204466,85.9070142 25.3800787,85.6810521 C25.3336139,85.4209293 25.403833,85.1365184 25.3420864,84.8829045 C25.2679297,84.5783116 25.4520686,84.220832 25.6877614,84.3480395 C25.9985753,84.5158 26.3090005,84.7841207 26.4733801,85.0896748 C26.5625522,85.2554549 26.3921261,85.615206 26.2578065,85.8373384 C26.1424038,86.0281932 26.0482145,86.0901951 26.1907691,86.3633356 C26.3038322,86.5799929 26.1382577,86.9840394 26.0167582,87.2703143 C25.9595679,87.4050789 25.7146973,87.5362179 25.5558604,87.5350093 C24.9823458,87.53067 24.4053256,87.411282 23.8374185,87.4505975 C23.473215,87.4757886 22.8711665,87.6365015 22.8150236,87.8530277 C22.6691615,88.4154718 22.7617493,89.0424516 22.7831533,89.6428133 C22.783909,89.6640145 23.1342595,89.7281861 23.1585681,89.6828422 C23.2475422,89.5169164 23.3003487,89.3139613 23.3051283,89.1233686 C23.31129,88.8773703 23.2259042,88.6282705 23.2377454,88.3833642 C23.2595057,87.9330129 23.6365797,87.7534868 23.9969105,88.0373298 C24.4150865,88.3667207 24.784523,88.5918672 25.1930391,88.0284038 C25.2491783,87.9509669 25.4588566,87.9423174 25.5833362,87.9690375 C25.9726615,88.0525755 27.085283,87.5024649 27.2405569,87.1265652 C27.4355579,86.654503 27.9134867,86.5457885 28.2928713,86.8819357 C28.5363526,87.0976612 28.8138818,87.280347 29.0292539,87.520812 C29.3691704,87.9003373 29.6847279,88.3053011 29.9753363,88.7245059 C30.0405382,88.8185719 29.9613933,89.0160228 29.9464784,89.1656401 C29.9289867,89.3412492 29.9090691,89.5166397 29.8902025,89.6921178 C30.0382852,89.5847574 30.1863535,89.4773826 30.3344578,89.3700368 C30.5136875,89.2401355 30.7568448,88.959627 30.8616803,89.0051311 C31.4826963,89.2746604 31.5041112,88.9248983 31.4915862,88.472654 C31.4892611,88.3889266 31.5359059,88.283037 31.5951476,88.2227824 C31.7115868,88.1043118 31.8489441,87.9351243 31.9847537,87.9281203 C32.1196708,87.9211599 32.2977559,88.0630888 32.3863882,88.1900777 C32.422358,88.2416101 32.2654645,88.4233204 32.2081447,88.5512122 C32.1557846,88.6680519 32.1193901,88.7922304 32.0759486,88.9131619 C32.1944825,88.9150841 32.3132898,88.9232092 32.4314925,88.9177342 C32.7774628,88.9017459 33.1244768,88.8931984 33.4687194,88.8580912 C33.9935161,88.804593 34.5583281,88.8338029 35.0279429,88.6369927 C35.4805195,88.4473028 35.7428531,88.7373053 36.0910764,88.7772906 C36.4267027,88.8158197 36.7842261,88.620087 37.1375313,88.5595557 C37.2771273,88.5356462 37.438023,88.6359442 37.576676,88.6103018 C37.6798631,88.591212 37.8422488,88.4606263 37.8424215,88.3793744 C37.8439908,87.650757 38.2752029,87.9425651 38.6803861,88.0857316 L38.6803861,88.0857316 Z M44.2823643,95.302522 C45.0394418,94.9446639 45.7999169,94.5939262 46.5523732,94.2263995 C47.0280779,93.9940451 47.4975632,93.7468091 47.9564598,93.482478 C48.0573939,93.4243495 48.1016632,93.2655586 48.1720191,93.1531018 C48.0124119,93.117252 47.8525673,93.0543035 47.6932696,93.0557015 C47.5978998,93.0565314 47.506633,93.1647363 47.4079807,93.2131235 C46.5735002,93.6225576 45.7549494,94.0717441 44.8983702,94.4270102 C43.5878828,94.9705102 42.2497108,95.4454846 40.9263025,95.9575322 C40.6893571,96.0491954 40.4754967,96.2122673 40.2338653,96.2762787 C40.1320315,96.3032607 39.9857987,96.1588419 39.8597499,96.0923406 C40.010791,95.9085917 40.1272662,95.624836 40.318445,95.5572134 C41.6248365,95.0953003 42.9533557,94.6976172 44.2615972,94.2407132 C45.0846973,93.953259 45.8899241,93.6109668 46.6939776,93.2710191 C47.3808721,92.9806089 48.0568539,92.6632311 48.7312451,92.3439168 C48.807849,92.3076592 48.842955,92.1817478 48.8973091,92.0974088 C48.7978074,92.0524435 48.6936413,91.962615 48.5998407,91.9725603 C48.441047,91.9894078 48.2824548,92.0556033 48.1349696,92.1252791 C47.6736039,92.3432761 47.2296509,92.6039521 46.75702,92.7916179 C45.3706053,93.3421364 43.9766396,93.8737252 42.5790243,94.3945969 C42.1174858,94.5665947 41.6425012,94.7273805 41.1598574,94.8023128 C40.9829168,94.8297608 40.7660331,94.5939846 40.5673682,94.4782951 C40.7162643,94.3951793 40.8564937,94.2841787 41.0155033,94.2336073 C41.9204981,93.9457452 42.8469797,93.7184146 43.734094,93.3835778 C45.213647,92.8251818 46.6709431,92.205934 48.1316295,91.5976073 C48.2864427,91.5331153 48.4013702,91.3706406 48.5348117,91.2536261 C48.3450222,91.2024723 48.1264396,91.0628297 47.9702228,91.114828 C47.0904148,91.4076554 46.223247,91.7402788 45.3564102,92.0717227 C44.6430405,92.3444701 43.943182,92.65464 43.2246799,92.9121126 C42.1254543,93.3060389 40.9221851,93.367575 39.8886222,93.9834153 C39.7376169,94.0733895 39.5339636,94.0844997 39.3516459,94.1070989 C38.6578411,94.1930542 37.9542322,94.2245939 37.2705337,94.3602322 C36.5359004,94.5059907 35.8295058,94.8084576 35.0926337,94.9286611 C34.1925985,95.0754679 33.2750357,95.133946 32.3625908,95.1763047 C30.9386874,95.2423693 29.5128622,95.2713608 28.087512,95.2959112 C27.7704572,95.3013862 27.451826,95.1898322 27.1342241,95.1914486 C26.7130535,95.1935745 26.2901771,95.2993039 25.871562,95.2804034 C24.7938664,95.2317832 23.7188415,95.1251073 22.6413871,95.067896 C21.5580444,95.0103353 20.4726936,94.9923084 19.3889515,94.9412419 C18.875528,94.9170557 18.350958,94.914158 17.8536083,94.8014974 C16.0597573,94.3950919 14.2571676,94.009713 12.4928008,93.4941562 C10.9386988,93.0400189 9.33135846,92.7481526 7.8661048,91.9801904 C7.21157368,91.6371412 6.46234943,91.4741713 5.74757605,91.258344 C5.63437611,91.2241687 5.47597823,91.3431198 5.33847703,91.3912593 C5.43843931,91.4755838 5.5255167,91.5913751 5.64031102,91.6394856 C7.09965866,92.2510158 8.55091539,92.8853781 10.0294103,93.446002 C11.0690091,93.8402051 12.1421948,94.1475501 13.2093557,94.4625835 C14.1937041,94.7531684 15.194497,94.9871246 16.176891,95.2838253 C16.3525071,95.3368721 16.4737403,95.5741044 16.6200846,95.726299 C16.4274735,95.7043406 16.230295,95.7012245 16.0435828,95.6549197 C15.8690644,95.6116435 15.7104111,95.5050694 15.5365297,95.4566386 C14.759459,95.2403016 13.9803187,95.0312744 13.1988391,94.8319741 C13.1345117,94.8155782 13.0469952,94.8922142 12.9702581,94.9256323 C13.0344451,94.9717334 13.0923623,95.0374047 13.1638195,95.0608338 C13.6667155,95.225784 14.1744164,95.3759837 14.6755092,95.5461906 C14.7767312,95.5805697 14.8563117,95.6801543 14.9458653,95.7496844 C14.8370743,95.7789234 14.7192963,95.8517299 14.6208384,95.8309363 C13.0669488,95.5028415 11.5159457,95.1608262 9.96276155,94.8292803 C9.84616764,94.8043951 9.71806372,94.8346825 9.5953081,94.839313 C9.69509042,94.953954 9.77442257,95.1298543 9.89835154,95.1721985 C10.3312659,95.3200829 10.7767054,95.4344472 11.2226092,95.5386768 C12.4433991,95.8240489 13.6675469,96.0947286 14.8883367,96.3800715 C15.0373949,96.4149021 15.1741043,96.5037988 15.3165364,96.5676354 C15.1623675,96.6230848 14.9977828,96.7455597 14.8557394,96.7229752 C13.9937759,96.585968 13.1317908,96.4396709 12.2798005,96.2504324 C11.3480318,96.0434729 10.4101769,95.8386248 9.5059812,95.5375993 C8.50740547,95.2051362 7.54879083,94.7515375 6.56153794,94.3813607 C6.34663733,94.3007785 6.0840877,94.350214 5.8434785,94.3397736 C6.00742976,94.5016514 6.14320709,94.731545 6.33971611,94.8148064 C8.16504157,95.5882143 9.99116228,96.3619428 11.839533,97.0760572 C12.3853235,97.2869337 13.0024955,97.3087464 13.5869191,97.4173882 C14.5000192,97.5871146 15.4121617,97.762345 16.3264423,97.9253149 C17.2254444,98.0855181 18.123644,98.2555211 19.0278397,98.3789716 C19.6524188,98.4642425 20.2863017,98.5078973 20.9165566,98.5139839 C21.4501245,98.5191531 21.984045,98.418025 22.5185306,98.4093611 C23.6187927,98.3914944 24.7198106,98.4191753 25.8200008,98.3991827 C26.7081587,98.3830488 27.62421,98.1647315 28.4767582,98.3211779 C29.8405344,98.5714573 31.1481137,98.2932494 32.4605735,98.137531 C33.7651584,97.9827591 35.0802023,97.8455482 36.3631563,97.472357 C37.3067842,97.1978332 38.3146854,97.1567121 39.2829817,96.9571789 C39.5719776,96.8976232 39.8067778,96.5943845 40.0969399,96.5092883 C40.547357,96.3771738 41.0392576,96.3863619 41.486198,96.246297 C42.3886805,95.9634878 43.2727571,95.6206278 44.2823643,95.302522 L44.2823643,95.302522 Z M4.8326441,66.6142457 C4.79333437,66.4519674 4.72075066,66.2898786 4.7198652,66.1273892 C4.71127412,64.5517055 4.7097229,62.9759052 4.71997676,61.4002433 C4.72154968,61.1582785 4.83160756,60.9158622 4.82596053,60.6752297 C4.80257327,59.6784517 4.74782331,58.6824527 4.71960255,57.6857328 C4.71349475,57.4698326 4.80551378,57.2495204 4.79031827,57.0357462 C4.74139885,56.3474416 4.65445461,55.6619837 4.59940226,54.9740141 C4.54780875,54.3293278 4.55024885,53.6780454 4.45717535,53.0403703 C4.43268326,52.8725879 4.13414594,52.614329 3.97608289,52.6247403 C3.62766166,52.6477035 3.00132971,52.792348 2.99074823,52.9275714 C2.89958588,54.0920736 2.8867945,55.2665139 2.9205256,56.4359306 C2.93952905,57.0949015 3.11087658,57.7478585 3.17716897,58.4072735 C3.30981143,59.7267005 3.39032035,61.0519156 3.54268967,62.3687871 C3.70674532,63.7865756 3.95471116,65.1944696 4.11741726,66.6123891 C4.27080143,67.9490276 4.35934735,69.2932452 4.48296674,70.6335094 C4.48985186,70.7081942 4.55651139,70.7772365 4.59534961,70.8488999 C4.67066509,70.7930791 4.78970642,70.7508296 4.81164671,70.6784528 C4.85006024,70.551755 4.83203944,70.4065645 4.83214016,70.2691278 C4.83301112,69.0905958 4.8326441,67.9120638 4.8326441,66.6142457 L4.8326441,66.6142457 Z M46.9359329,63.1549508 C47.0145596,64.2738398 47.0712098,65.3948911 47.1789679,66.5109043 C47.2608337,67.3587132 47.4068217,68.2002243 47.5265865,69.0442109 C47.54374,69.1650694 47.5738863,69.2840352 47.5980149,69.4038818 C47.6525058,69.2678357 47.7521874,69.1324813 47.7542101,68.9956417 C47.7680668,68.0557035 47.776791,67.1151175 47.7570102,66.1753905 C47.7388058,65.3108361 47.6525418,64.4470972 47.6521819,63.5829724 C47.6518292,62.7387529 47.7408933,61.8947736 47.7535551,61.0501245 C47.7598464,60.6303956 47.6450916,60.20881 47.6514404,59.7890883 C47.6645269,58.9245777 47.8025824,58.0551015 47.743751,57.1978934 C47.6403479,55.6914922 47.7596376,54.1665399 47.3139498,52.6802771 C47.1482458,52.1276909 46.8465808,52.1269993 46.440397,52.1193328 C46.017355,52.1113459 45.8527811,52.3284765 45.8735265,52.736207 C45.9161186,53.5735099 45.9509726,54.4111987 45.9930969,55.2485234 C46.0292393,55.9670062 46.0563696,56.686421 46.115309,57.4030837 C46.1578075,57.9197763 46.2387665,58.4337167 46.3152624,58.9469511 C46.5184839,60.3104187 46.7285724,61.6728305 46.9359329,63.1549508 L46.9359329,63.1549508 Z M46.2283146,29.9934337 C46.1890049,29.6918259 46.1431303,29.3909024 46.1119402,29.0884354 C46.0665624,28.6483206 46.01503,28.2077909 45.9969408,27.7661471 C45.9771527,27.2830547 45.9952852,26.7984624 45.9891307,26.3146202 C45.9882884,26.2483299 45.9426441,26.1826149 45.9177382,26.1166377 C45.8640175,26.1733393 45.7661067,26.2282572 45.7637889,26.2870338 C45.7494356,26.651095 45.7500402,27.0161755 45.7576776,27.380659 C45.7945255,29.1403173 45.8290844,30.9000556 45.876996,32.6594226 C45.90219,33.5844937 45.9384404,34.5097904 45.9964872,35.4332597 C46.0569671,36.3954548 46.1963687,37.3546356 46.2153289,38.3168599 C46.2346922,39.299994 46.1661144,40.2863098 46.1027264,41.2690362 C46.0753154,41.6939927 45.9068329,42.1129427 45.9033344,42.535482 C45.8963161,43.3826356 45.9526282,44.2306702 45.9945869,45.077751 C46.0226889,45.6451678 46.0607245,46.2127958 46.126711,46.7764485 C46.1331535,46.8315193 46.3675506,46.8592877 46.4961405,46.8997316 C46.5525316,46.4933188 46.7345614,46.2217145 47.1825454,46.1910048 C47.2247776,46.1881071 47.2835732,45.9961021 47.2849984,45.8911953 C47.294241,45.2086133 47.3340761,44.5222745 47.2809673,43.8438206 C47.1505564,42.1780462 46.9760056,40.5158102 46.8171903,38.8523437 C46.792493,38.5936698 46.7299258,38.3356729 46.7332441,38.0780038 C46.7379374,37.7126976 46.8321987,37.3450034 46.8084947,36.9836724 C46.7622603,36.278899 46.6629819,35.5775766 46.5803098,34.875468 C46.5628828,34.7274452 46.5060165,34.5834414 46.4951039,34.4354842 C46.402527,33.180571 46.3148017,31.9252791 46.2300421,30.6697981 C46.2175603,30.484928 46.2283146,30.2984489 46.2283146,29.9934337 L46.2283146,29.9934337 Z M3.29947112,26.1762807 C3.26015774,25.8084336 3.22515622,25.440004 3.17682707,25.0733726 C3.16967918,25.0191538 3.09953923,24.9734313 3.05854514,24.9237773 C3.02091624,24.956977 2.96152336,24.9834567 2.94917105,25.0244468 C2.8638896,25.3073506 2.71929087,25.5939167 2.72184985,25.8781311 C2.73249255,27.0608349 2.79459195,28.2429855 2.82253556,29.4256966 C2.82813589,29.6629144 2.72601761,29.9050904 2.74478718,30.1391413 C2.78881897,30.6882399 2.92406711,31.2326063 2.93736597,31.7809915 C2.99590228,34.1948226 3.0214381,36.6094402 3.06449455,39.0236791 C3.09939889,40.9810795 3.12466475,42.9389387 3.19069085,44.8953418 C3.21508941,45.6183313 3.32400272,46.3409424 3.43792973,47.0566367 C3.4682704,47.2472584 3.65958232,47.4116699 3.77699318,47.5881235 C3.8536944,47.3923398 4.00873062,47.1904549 3.9943701,47.0017625 C3.90122453,45.7776537 3.7189752,44.5587505 3.6652941,43.3336878 C3.58078655,41.4050532 3.57944761,39.4728 3.53365587,37.5423014 C3.50324314,36.260297 3.4553783,34.9787221 3.41776379,33.696885 C3.37685602,32.3027295 3.3273356,30.9086905 3.30317822,29.5142219 C3.28459227,28.4416451 3.29947112,27.3684712 3.29947112,26.1762807 L3.29947112,26.1762807 Z M41.0980819,11.3251696 C41.0555977,11.3649292 41.0193976,11.4174336 40.9696793,11.4425482 C40.2556113,11.8032092 39.5365693,12.1539978 38.8276482,12.5246225 C38.7202212,12.5807818 38.657805,12.7250113 38.5745715,12.828502 C38.6945666,12.8182436 38.8211697,12.829321 38.9333475,12.7937989 C39.2966007,12.6787684 39.663446,12.567775 40.0129937,12.4173861 C41.395543,11.8225685 42.7748387,11.2197495 44.1492827,10.6060315 C44.6394414,10.3871609 45.1518139,10.1785997 45.3797326,9.61812853 C45.4076259,9.54953035 45.4677818,9.43690978 45.4460215,9.41601063 C45.3842243,9.35665891 45.2788562,9.29126416 45.2068231,9.30650248 C45.0684868,9.33577074 44.9390117,9.41441614 44.8098603,9.48056811 C43.6114283,10.0944645 42.4138457,10.7100609 41.0980819,11.3251696 L41.0980819,11.3251696 Z M17.4518371,88.4435897 C17.8227565,88.709071 18.136878,88.683909 18.4284618,88.2989962 C18.6844537,87.961087 18.9520636,87.6214159 19.2674305,87.3440381 C19.4789803,87.1579594 19.774084,87.0435951 20.0507025,86.9739922 C20.1348718,86.95282 20.3917923,87.1967506 20.3830392,87.3036159 C20.3061941,88.2415082 21.083524,87.9566313 21.524641,88.1366815 C21.5981316,88.1666778 21.7173781,88.0819893 21.8154868,88.0502894 C21.7496191,87.9229364 21.7146248,87.7534139 21.6118695,87.6764576 C21.3471893,87.4782494 21.0520676,87.3217738 20.7699567,87.1471986 C20.4091689,86.9239887 19.9937642,86.4542272 19.6995207,86.5223158 C18.8865594,86.7104184 18.6359949,86.5014785 18.7346544,85.6988169 C18.7450919,85.6138809 18.5548597,85.5037248 18.4577191,85.4052615 C18.39761,85.4970412 18.3376628,85.5889375 18.2773558,85.6805861 C17.9973073,86.1061688 18.1782177,86.4557852 18.491263,86.7412737 C18.8576403,87.0753969 19.0439099,87.3097462 18.4283394,87.5989333 C18.0455933,87.7787506 17.7355459,88.1168781 17.4518371,88.4435897 L17.4518371,88.4435897 Z M26.945716,89.2189489 C26.6288339,89.179182 26.312722,89.1307512 25.9948826,89.1016432 C25.4885566,89.0552801 25.1096327,89.3325561 25.0227209,89.779733 C24.9173742,90.3217768 24.6141113,90.1241947 24.3087465,90.1421634 C24.0237312,90.158938 23.7447408,90.2803499 23.4631015,90.3557046 C23.5032462,90.4936873 23.5294695,90.7450296 23.5857023,90.7520918 C24.1341741,90.8210686 24.6874544,90.8527976 25.2398349,90.8873807 C25.5059189,90.9040388 25.5668233,90.8262524 25.4863036,90.529013 C25.3656463,90.0835979 25.5046231,89.7105815 26.0514394,89.6996314 C26.7433223,89.6857836 27.4357235,89.6986412 28.1279014,89.6980734 C28.2110559,89.6980005 28.2941958,89.686002 28.377343,89.6795077 C28.3364352,89.6094242 28.3004798,89.5357588 28.2538279,89.4698397 C27.933865,89.0176974 27.4623067,89.2943035 26.945716,89.2189489 L26.945716,89.2189489 Z M8.19383102,11.4444557 C7.76641955,11.2904883 7.32897734,11.1599209 6.91367699,10.9777083 C6.03200464,10.5908696 5.16485486,10.1702196 4.28411821,9.78109484 C4.13258399,9.71414925 3.94336674,9.73445865 3.77155855,9.71446238 C3.88225706,9.86642026 3.98563856,10.0248106 4.10764918,10.1668232 C4.14990295,10.2159967 4.23849205,10.224322 4.30578501,10.2516281 C4.89459597,10.490546 5.49469379,10.7047389 6.0699719,10.9733181 C7.5949713,11.6853066 9.12133829,12.3875937 10.8040769,12.6332315 C11.0109982,12.6634353 11.2258844,12.6377929 11.4370816,12.6380294 C11.2230195,12.5185032 11.0203163,12.3663924 10.792862,12.2853079 C9.97032693,11.9921127 9.13947797,11.7227909 8.19383102,11.4444557 L8.19383102,11.4444557 Z M6.66065804,92.7975299 C6.31040126,92.5987247 5.96357441,92.3932795 5.60789727,92.2049439 C5.49474049,92.1450242 5.35806343,92.1305211 5.23215136,92.0952392 C5.30816513,92.2498072 5.34324224,92.4677167 5.4664873,92.5492163 C6.79492001,93.4277713 8.33981539,93.7702236 9.80701983,94.3058895 C9.86576135,94.3273237 9.93999346,94.3053653 10.0070057,94.3036179 C9.98919722,94.2358352 9.99292944,94.1409684 9.94938355,94.1055554 C9.83617288,94.0134698 9.70999805,93.9271214 9.57526458,93.8743805 C8.64501105,93.5102901 7.7112377,93.155388 6.66065804,92.7975299 L6.66065804,92.7975299 Z M29.2454754,88.8014478 C29.0882221,88.5913867 28.8650759,88.4035462 28.7870323,88.1667796 C28.6081697,87.6241825 28.255649,87.4534952 27.74558,87.5563125 C27.5686034,87.5920022 27.2683349,87.7111134 27.2672912,87.7951903 C27.2643759,88.0303405 27.3347966,88.4284168 27.4716932,88.4749401 C28.0237426,88.6625185 28.6117689,88.7418048 29.2454754,88.8014478 L29.2454754,88.8014478 Z M21.6385787,87.0718149 C21.7074481,87.0816729 21.8347781,87.107024 21.8368081,87.0991755 C21.940186,86.6997596 22.106995,86.2971254 22.1050335,85.8956418 C22.1032232,85.5248532 21.9246737,85.1532639 21.8123556,84.7856643 C21.7761015,84.6670189 21.6869438,84.4590547 21.6496028,84.4651267 C21.4951137,84.4903469 21.3236762,84.5536302 21.2154358,84.6614565 C21.1640834,84.7125957 21.2318335,84.8975531 21.261386,85.0179312 C21.322564,85.2670895 21.4193195,85.5098697 21.4560127,85.762042 C21.5162406,86.1759173 21.5402971,86.5951658 21.6385787,87.0718149 L21.6385787,87.0718149 Z M17.1569961,87.3103724 C16.8346542,86.9924704 16.5559193,86.5807938 16.0414557,86.6077322 C15.8785229,86.6162505 15.7234939,86.7791476 15.564855,86.8714079 C15.6897809,86.9779674 15.802934,87.1051311 15.9422168,87.1865869 C16.1927957,87.3331171 16.4628457,87.4451953 16.7171929,87.5857117 C16.8505624,87.6593917 16.9678797,87.7628206 17.092442,87.8528093 C17.1336125,87.691878 17.1747866,87.5309467 17.1569961,87.3103724 L17.1569961,87.3103724 Z M20.813024,83.3739333 C20.8763831,83.5329862 20.9299058,83.8215763 21.0048973,83.8274008 C21.2546556,83.8467964 21.5421651,83.8219548 21.7583866,83.7058432 C21.9852075,83.5840234 22.1573757,83.346529 22.3287304,83.138754 C22.3713333,83.0871051 22.3519952,82.918733 22.3003656,82.8703749 C22.2499094,82.823109 22.1127428,82.8350348 22.0293905,82.8653077 C21.640605,83.0065667 21.2572721,83.1631732 20.813024,83.3739333 L20.813024,83.3739333 Z M20.3412785,84.0896495 C19.8679277,84.0520522 19.4852932,84.2886731 19.3708983,84.6992284 C19.3044403,84.9377277 19.5520174,85.2705841 19.6750178,85.5535536 C19.6959755,85.6017514 19.8014517,85.6123811 19.8678846,85.6403679 C19.8808558,85.5734006 19.9263741,85.4890034 19.9018315,85.4421452 C19.6115075,84.8878408 19.9481632,84.6332222 20.3781372,84.4542641 C20.6217517,84.3528738 20.6951668,84.2721751 20.3412785,84.0896495 L20.3412785,84.0896495 Z M22.346197,90.2925232 C22.038939,90.0332741 21.2746775,89.9722477 21.0366381,90.2003066 C21.0208019,90.2154794 21.0930186,90.3892392 21.1467067,90.4036257 C21.5023191,90.4989294 21.8625815,90.5787252 22.2242764,90.647804 C22.4984834,90.7001517 22.5004234,90.689755 22.346197,90.2925232 L22.346197,90.2925232 Z M18.6901691,89.696093 C18.9789887,89.6823034 19.2678119,89.668514 19.5566351,89.6547098 C19.4081205,89.4923224 19.2596058,89.329935 19.1110841,89.1675476 C18.9511206,89.3238484 18.7911608,89.4801492 18.6901691,89.696093 L18.6901691,89.696093 Z M30.7786484,90.4714522 C30.5600946,90.6082555 30.3415337,90.7450587 30.1229727,90.8818475 C30.35999,90.8842209 30.6076824,90.9312247 30.8310806,90.8765908 C31.0617705,90.8201804 31.2688503,90.6649716 31.4862667,90.5529954 C31.2700524,90.5059333 31.0538309,90.4588712 30.7786484,90.4714522 L30.7786484,90.4714522 Z M3.59431208,49.258128 C3.77057956,49.0785582 3.94684705,48.8989812 4.12311465,48.7194115 C3.86987244,48.7797025 3.61533459,48.8351154 3.36424827,48.9035098 C3.29653781,48.9219517 3.22147071,48.9663926 3.1806133,49.0220532 C3.054964,49.1932138 2.94424391,49.3755938 2.82772559,49.5536128 C2.98190878,49.4948799 3.13781608,49.4402824 3.2894871,49.3755211 C3.35622223,49.3470319 3.41434104,49.2978876 3.59431208,49.258128 L3.59431208,49.258128 Z M28.5378571,90.4714522 C28.7339522,90.6503813 28.9300474,90.8293103 29.1261426,91.0082394 C29.1266104,90.7969843 29.1564904,90.5797736 29.1163529,90.3767311 C29.0927858,90.2575033 28.9578255,90.1607873 28.8729723,90.0539511 C28.7612697,90.153361 28.6495669,90.2527709 28.5378571,90.4714522 L28.5378571,90.4714522 Z M21.6975469,88.8014478 C21.5661533,88.7418048 21.4385821,88.6499668 21.302085,88.6333668 C21.2042246,88.6214849 21.0944114,88.7102796 20.9899286,88.7541382 C21.0750589,88.8957757 21.1328358,89.0725206 21.2534391,89.1686251 C21.3618989,89.2550608 21.5392894,89.2530077 21.6862744,89.2899934 C21.6900319,89.1669069 21.6937893,89.0438203 21.6975469,88.8014478 L21.6975469,88.8014478 Z M22.9358789,85.1632238 C23.0769037,85.2427429 23.2110326,85.360966 23.3613468,85.3883558 C23.4632959,85.406936 23.5879553,85.298003 23.7024654,85.2461066 C23.5201117,85.0991833 23.3453234,84.9392421 23.1462518,84.8211501 C23.1200681,84.8056278 22.9697432,85.0041709 22.9358789,85.1632238 L22.9358789,85.1632238 Z M27.1226205,90.5907383 C27.0105939,90.4515761 26.9196942,90.2794908 26.7780324,90.1865025 C26.7020906,90.1366592 26.5388484,90.222862 26.4150022,90.2476744 C26.5287563,90.4373206 26.6237878,90.6442947 26.7689337,90.804891 C26.8070341,90.847046 27.0005019,90.7455539 27.1226205,90.5907383 L27.1226205,90.5907383 Z M48.1152967,73.1749775 C48.0603956,73.0796812 48.0054871,72.9843849 47.9505788,72.8890886 C47.8875435,72.9530417 47.7643669,73.0250545 47.7715148,73.0796083 C47.809939,73.3729309 47.8779266,73.6626058 47.9474332,73.9506498 C47.9516153,73.9679995 48.0570051,73.9603841 48.1152967,73.9643811 C48.1152967,73.741011 48.1152967,73.5176337 48.1152967,73.1749775 L48.1152967,73.1749775 Z M47.5256148,69.8349686 C47.5256148,70.1477085 47.5215046,70.4605578 47.528962,70.7731157 C47.5305312,70.8386706 47.5656443,70.9101083 47.6054075,70.963519 C47.6158739,70.9775924 47.7471702,70.928572 47.7459034,70.918481 C47.6977397,70.5367059 47.6405567,70.1560959 47.5256148,69.8349686 L47.5256148,69.8349686 Z M34.7884854,89.755736 C34.8671121,89.6937923 34.9457387,89.6318341 35.0243582,89.5698759 C34.9425067,89.5555766 34.8601298,89.5267016 34.7789045,89.5296866 C34.5322703,89.5387729 34.2862193,89.5634397 34.0396138,89.5745936 C33.9753549,89.5774913 33.9099011,89.5533051 33.8449944,89.5415541 C33.8779624,89.6065265 33.902926,89.7213714 33.9452086,89.7283172 C34.2044685,89.7709089 34.4676443,89.7890668 34.7884854,89.755736 L34.7884854,89.755736 Z M31.8400759,89.9943081 C31.9580122,90.0285562 32.0759486,90.062819 32.193885,90.097067 C32.1633788,89.9126776 32.1575265,89.7181096 32.0894454,89.5492134 C32.0644962,89.4873425 31.8920257,89.4863086 31.7868519,89.457521 C31.7849371,89.6165738 31.7830224,89.7756122 31.8400759,89.9943081 L31.8400759,89.9943081 Z M33.0194397,89.3978779 C33.0218943,89.5991731 33.0243489,89.8004683 33.0268107,90.0017635 C33.1205609,89.9814942 33.2143182,89.9612248 33.3080685,89.9409555 C33.2508927,89.7400535 33.1941488,89.5390058 33.1343168,89.3389193 C33.13269,89.3334879 33.0977927,89.3382349 33.0194397,89.3978779 L33.0194397,89.3978779 Z M3.06360189,22.3591276 C3.08821993,22.2647414 3.11283809,22.1703551 3.13745248,22.0759762 C3.03421144,22.0931075 2.93097028,22.1102462 2.82772559,22.1273775 C2.85739685,22.304035 2.88706811,22.4806852 2.91673925,22.6573427 C2.96569111,22.5976997 3.01464296,22.5380567 3.06360189,22.3591276 L3.06360189,22.3591276 Z M3.06359836,10.9076685 C2.86703886,10.8699949 2.67047582,10.8323211 2.47391644,10.7946438 C2.54082788,10.8602387 2.5985292,10.9412832 2.6762777,10.988702 C2.98471248,11.1768083 2.98703394,11.1729132 3.06359836,10.9076685 L3.06359836,10.9076685 Z M24.3511083,89.3382349 C24.3734158,89.1619852 24.4004092,88.9859829 24.4091695,88.8090488 C24.409875,88.7948369 24.2850282,88.7742619 24.2185234,88.7566282 C24.2430623,88.9306209 24.2676084,89.1045991 24.3511083,89.3382349 L24.3511083,89.3382349 Z M9.84494393,89.2189489 C9.74666247,89.2697241 9.64838089,89.3204992 9.55009578,89.3712599 C9.67343093,89.4397853 9.79676597,89.5082961 9.92009747,89.576807 C9.91470235,89.4773971 9.9093037,89.3780018 9.84494393,89.2189489 L9.84494393,89.2189489 Z M11.4960498,94.7061064 C11.6336409,94.7156586 11.7712358,94.7251962 11.9088271,94.7347484 C11.784585,94.6591753 11.6647411,94.5725066 11.5318791,94.5187027 C11.509021,94.5094271 11.4307759,94.6400855 11.4960498,94.7061064 L11.4960498,94.7061064 Z M26.0611931,78.1849909 C26.0342859,78.2770619 26.007386,78.3691474 25.9804861,78.4612039 C26.0830325,78.4516663 26.1855862,78.4421141 26.2881328,78.432591 C26.2321447,78.3301814 26.1761565,78.2277573 26.0611931,78.1849909 L26.0611931,78.1849909 Z M28.6557935,1.60335797 C28.7398044,1.66300099 28.8238082,1.72264401 28.9078192,1.78228702 C28.9417445,1.72897452 28.9756772,1.67566571 29.0096027,1.6223532 C28.9113247,1.59613926 28.8130396,1.56992532 28.6557935,1.60335797 L28.6557935,1.60335797 Z M5.71716698,15.8580389 C5.65819879,15.9430112 5.59923059,16.0279799 5.5402624,16.1129487 C5.59297171,16.147266 5.64567736,16.1815797 5.69838667,16.215897 C5.72430048,16.1164907 5.75021782,16.0170881 5.71716698,15.8580389 L5.71716698,15.8580389 Z M44.872039,11.3251659 C44.9220381,11.2166917 44.9720373,11.1082137 45.0220436,10.9997431 C44.9558196,11.0053384 44.8450095,10.9911083 44.8322469,11.0204748 C44.8014528,11.0913082 44.8165115,11.1825273 44.872039,11.3251659 L44.872039,11.3251659 Z M3.18153474,8.52195156 C3.06359836,8.52237741 2.94563673,8.52225729 2.82795946,8.52807451 C2.82608439,8.52816923 2.82608439,8.63500526 2.82795946,8.63509627 C2.94563673,8.64091719 3.06359836,8.64080435 3.18153474,8.52195156 Z" id="Shape"></path>
                <path d="M38.9072202,27.1607356 C38.0582562,28.7250885 37.2643102,30.2751307 36.4104741,31.7887564 C35.669301,33.1026498 34.8608375,34.3756409 34.0812179,35.6661195 C33.1474574,37.2117347 32.2042287,38.7512682 31.2814165,40.3038989 C30.6558527,41.3564051 30.0200628,42.4056682 29.4594737,43.4955543 C28.9295555,44.5258222 28.3601708,45.5667165 28.0437808,46.6754506 C27.5427843,48.431064 26.8578189,50.1639392 26.9767777,52.065932 C27.0284601,52.8923423 26.9980299,53.725474 26.9775,54.5548185 C26.9716293,54.7923129 26.9210516,55.0633339 26.7970648,55.2526897 C26.6848833,55.424021 26.4285604,55.619738 26.2650788,55.5951097 C26.0819242,55.5675032 25.81119,55.3214708 25.78736,55.1407999 C25.6640885,54.2060151 25.3199451,53.3212958 25.3330179,52.3464838 C25.3426845,51.6249255 25.3506444,50.8568391 24.9468092,50.1738081 C24.774518,49.8824168 24.7858346,49.4798858 24.6397033,49.1648811 C23.9933545,47.7715802 23.5122081,46.2869289 22.5597378,45.0592968 C22.4255037,44.8862814 22.3125467,44.6848651 22.2332527,44.478566 C22.0291008,43.9474152 21.7196508,43.5335739 21.3168177,43.1213359 C20.7936378,42.5859493 20.4529821,41.8602435 20.0217372,41.2252628 C19.7035236,40.7567085 19.4026176,40.2671809 19.0300624,39.8483244 C18.0671854,38.7657921 17.0891996,37.6958867 16.0796895,36.6604195 C14.7760649,35.323273 13.5128309,33.9555047 12.4466387,32.4001236 C11.3598316,30.8146723 10.2011522,29.2733739 9.38879714,27.5108405 C9.00453938,26.6771425 8.99792863,25.7380042 9.26299041,24.8577487 C9.32957978,24.6366166 9.74831854,24.4935684 10.0303269,24.3848924 C11.2875556,23.9004242 12.5442708,23.4101391 13.8211514,22.9869658 C14.4251904,22.786785 15.0700555,22.6751012 15.703728,22.6269184 C16.4986406,22.5664766 17.301106,22.618204 18.1002216,22.6110266 C19.3534563,22.5997751 20.506527,22.9859362 21.5992615,23.580132 C22.8238754,24.2460358 24.0518141,24.9093878 25.2424499,25.6370939 C25.9201211,26.0512807 26.501835,26.634328 27.1779835,27.0518831 C27.4064895,27.1929824 27.8357693,27.1581838 28.0991173,27.0340718 C29.3695074,26.4353313 30.6048997,25.7568744 31.872018,25.1501842 C32.7307476,24.7390346 33.6096105,24.3653162 34.5005549,24.0365009 C35.8776383,23.5282723 37.9344039,24.1658856 38.741607,25.3907968 C39.0677557,25.8857149 39.223504,26.5087527 38.9072202,27.1607356 L38.9072202,27.1607356 Z M21.358143,33.8176189 C21.5015904,33.8862529 21.7027467,33.9145655 21.7780609,34.0308014 C22.0427791,34.4393772 22.2989711,34.8030795 22.8604666,34.6711136 C22.9386807,34.6527361 23.0465813,34.7705458 23.14074,34.8253103 C23.0829354,34.8962903 23.0283494,34.9704618 22.9667881,35.037728 C22.6176308,35.4192635 22.1584166,35.3425181 21.7157133,35.4037615 C21.3321709,35.4568272 21.1482444,35.4144394 20.8731407,35.0750638 C20.6904358,34.8496665 20.1363725,34.9201905 19.7499937,34.9287725 C19.6828661,34.930258 19.639919,35.2915481 19.5551897,35.4710792 C19.4614066,35.6697744 19.3661963,35.9691741 19.2123282,36.0163788 C18.7921767,36.1453223 18.3390988,36.1544411 17.9030134,36.2342899 C17.7902972,36.2549397 17.6921232,36.3612184 17.5872713,36.4281683 C17.6470197,36.5218718 17.6982525,36.687857 17.7680003,36.6967258 C18.064381,36.7343925 18.3669724,36.7431657 18.6659734,36.7300389 C19.3616888,36.6994981 19.9004662,36.4274698 20.1569485,35.6893873 C20.1886356,35.5982135 20.4327886,35.5866532 20.5784809,35.5381982 C20.586979,35.6819599 20.6291471,35.8350462 20.5952716,35.9670856 C20.5548279,36.1247166 20.4344705,36.2584622 20.3772538,36.4138724 C20.3406271,36.513356 20.3114752,36.6671631 20.3595778,36.7347602 C20.4096774,36.8051591 20.5757119,36.851827 20.6571056,36.8187638 C20.8061051,36.7582338 20.9580682,36.6549188 21.0581577,36.5267917 C21.2157615,36.3250371 21.294443,35.9539001 21.4744143,35.9003195 C21.6922977,35.8354581 21.9833246,36.0190777 22.2376469,36.1103471 C22.3470914,36.1496243 22.9759837,35.838657 23.048373,35.766596 C23.1650904,35.6504263 23.326235,35.5489203 23.4811123,35.5235714 C23.5456763,35.5129964 23.7339085,35.7662357 23.7104326,35.8104106 C23.4332186,36.3319718 23.6881039,36.6777747 24.0549088,36.9677835 C24.2268247,37.1036985 24.4507983,37.1686408 24.6511756,37.2657418 C24.6693544,37.0341378 24.7429477,36.7886938 24.6932552,36.5740331 C24.6102857,36.2156183 24.6651833,36.0530822 25.0474263,36.1044861 C25.1615058,36.1198336 25.2911012,36.0738423 25.3926957,36.1135608 C25.6211591,36.2028887 26.0189678,36.3206248 26.0236134,36.4403906 C26.0385912,36.8258163 25.9106174,37.21839 25.8234626,37.6047203 C25.8166146,37.6350919 25.6803552,37.6743029 25.6361086,37.6490937 C25.141861,37.3674169 24.8415607,37.6917538 24.5162759,38.0001546 C24.2712341,38.2324793 23.9898703,38.423122 23.729879,38.6390548 C23.657603,38.6990774 23.6038314,38.7831179 23.5415689,38.8561422 C23.6735934,38.8942944 23.8417489,39.0061179 23.9317293,38.9585234 C24.4763917,38.6704782 25.0156931,38.3663352 25.5307467,38.02518 C25.7892579,37.8539442 25.8965389,37.9049289 26.0668684,38.1446075 C26.2615026,38.4184964 26.4983862,38.7888614 26.7718256,38.8492663 C27.5791136,39.0276134 28.2194074,38.5922399 28.7191859,37.9690549 C29.060546,37.5434107 29.3526741,37.5407339 29.598155,38.039351 C29.7335858,38.3144166 29.8276949,38.6148826 29.9876143,38.8722989 C30.0981741,39.050256 30.2894161,39.1741695 30.4446049,39.322233 C30.1960435,39.439094 30.1874888,39.992733 29.7172483,39.7345373 C29.6248744,39.68381 29.4488227,39.8187101 29.3075282,39.8386024 C28.9508856,39.8888076 28.5926142,39.9293717 28.2338825,39.9595521 C28.041805,39.9757161 27.8129591,39.896588 27.6637401,39.9808491 C27.5130907,40.0659044 27.4403897,40.2998249 27.3335336,40.4685235 C27.4299441,40.5006381 27.5306392,40.5700516 27.6220642,40.558734 C28.1714571,40.4907398 28.7240581,40.431379 29.2652503,40.3165771 C29.8594068,40.1905237 30.4817272,40.1461871 30.8178753,39.4373732 C31.167762,38.6995923 31.6269409,38.0179511 32.0325961,37.3082179 C32.1049854,37.1815543 32.1493595,37.0376089 32.2066648,36.9016425 C32.0886054,36.9400372 31.9724864,36.999692 31.8520121,37.0115098 C31.696972,37.0267178 31.5041225,37.0571482 31.3923446,36.9799028 C31.3037735,36.9187108 31.2541944,36.6825474 31.2959978,36.5662012 C31.3329998,36.4632245 31.5129747,36.3873983 31.6425136,36.3560265 C31.7892043,36.3204997 31.9978531,36.2826713 32.0956588,36.3601153 C32.3827589,36.5874614 32.5090472,36.3590637 32.638494,36.1908798 C32.7841722,36.0015975 32.8943567,35.7817304 33.0098312,35.5692245 C33.0422301,35.5095916 33.0388662,35.4289927 33.0519037,35.3580128 C32.9585524,35.3517473 32.8395654,35.3044175 32.7765734,35.3468054 C32.574801,35.482566 32.4097332,35.6844013 32.1985987,35.7951806 C32.0749731,35.8600348 31.8748577,35.8390173 31.7402201,35.7800904 C31.6720585,35.7502482 31.6221536,35.4580333 31.6500627,35.4415458 C32.0596907,35.1995287 32.2709314,34.5902795 32.8436374,34.6691942 C33.3637827,34.7408802 33.6020614,34.4246106 33.7985863,34.0284041 C34.1265196,33.3672729 34.4328962,32.6945961 34.7607869,32.033443 C35.3354474,30.8746655 35.9113331,29.7163881 36.503103,28.5669942 C36.8003299,27.9896829 37.1110122,27.4167252 37.4604243,26.8728448 C37.6279071,26.6121413 37.8995619,26.4235944 38.1240384,26.2023668 C37.8633956,26.0001491 37.585438,25.8177648 37.3453888,25.5919409 C36.6571304,24.944488 35.8016797,25.0342351 35.0412869,25.1914985 C34.0677484,25.3928411 33.1179479,25.7830175 32.2003125,26.1939466 C31.1004148,26.6864894 30.0515198,27.3004084 28.9687244,27.8360303 C28.0654933,28.2828391 27.1789396,28.8252266 26.2243944,29.0866949 C24.8832508,29.4540742 23.4805103,29.5715234 22.1143683,29.8500748 C20.8526781,30.1073366 19.6261627,29.9070308 18.42335,29.5827896 C17.5102045,29.3366469 16.6343194,28.9375061 15.7475992,28.5906076 C14.7946545,28.2178158 13.8051396,27.9112094 12.9117202,27.4189019 C12.0612478,26.950252 11.3183753,26.272876 10.5166251,25.7048822 C10.4097903,25.6291958 10.2351019,25.6511031 10.0913147,25.6468158 C10.0780045,25.646426 10.0376564,25.7886064 10.0493378,25.8573508 C10.1189793,26.2671841 10.1959648,26.6758629 10.2817492,27.0823649 C10.2961216,27.1504989 10.3550734,27.2252956 10.4137242,27.2595795 C10.4438923,27.2772289 10.5538537,27.2251926 10.5681907,27.1828782 C10.7731251,26.578181 10.9901622,27.0001409 11.1406735,27.1964682 C11.4245374,27.5667228 11.6464572,27.9884915 11.9332067,28.355959 C12.1732452,28.6635656 12.4986575,28.9001335 12.7335016,29.2111304 C13.1457498,29.7570552 13.1267,29.755908 12.4897876,29.8545753 C12.367727,29.8734897 12.2698824,30.0609702 12.160863,30.1706684 C12.4598249,30.3420954 12.7452608,30.5623082 13.0652271,30.6579752 C13.1742467,30.6905751 13.3856609,30.4246578 13.5229471,30.2691152 C13.7719688,29.9869972 13.9909179,29.975334 14.2250574,30.2828964 C14.3072727,30.3909033 14.4152795,30.479312 14.5179574,30.568684 C15.1809093,31.1456938 16.0748456,31.3810336 16.6227621,32.1390304 C16.8406382,32.440445 16.829559,32.5443117 16.5036899,32.7501696 C16.0915478,33.0105348 15.9596224,32.6030621 15.9038716,32.4607712 C15.4813017,31.3822322 14.6433677,31.40261 13.766353,31.541312 C13.5964236,31.5681979 13.4510004,31.7621941 13.2942748,31.8791065 C13.4601358,31.9630072 13.6187026,32.0813316 13.793862,32.1213663 C13.9782665,32.1635115 14.184079,32.1009224 14.3705018,32.1382067 C14.6152107,32.1871617 14.88916,32.2346974 15.0792475,32.382033 C15.3124452,32.56277 15.4778848,32.8412625 15.6604551,33.0872287 C15.732317,33.1840502 15.7713301,33.3071621 15.825307,33.418309 C15.7110222,33.471088 15.5984192,33.5283676 15.4819568,33.575315 C15.3736808,33.618953 15.2612868,33.651575 15.1507021,33.6890505 C15.2787468,33.7720688 15.414461,33.9357301 15.5334516,33.9235299 C15.9496656,33.8808331 16.357895,33.7334093 16.7734399,33.7108623 C17.1139361,33.6923965 17.217269,33.5912803 17.2620857,33.2355055 C17.2902036,33.0122556 17.5022234,32.7155547 17.7007205,32.6348898 C18.0848189,32.4788178 18.5154903,32.4331352 18.9314494,32.3818858 C19.0804169,32.3635379 19.2555975,32.4377094 19.3917224,32.5187275 C19.4388442,32.5467679 19.4277082,32.8100525 19.4026246,32.8174506 C19.2720767,32.8559189 19.1264057,32.8337321 18.9899302,32.8572499 C18.8487562,32.881584 18.7120825,32.9340909 18.57344,32.9742653 C18.6441723,33.087839 18.7026177,33.2128041 18.7883349,33.3124863 C18.9404149,33.4893331 19.1079365,33.6519942 19.2710038,33.8184793 C19.5252837,34.0780944 19.7313406,34.3655808 20.1830588,34.3235311 C20.4372643,34.2998662 20.7152537,34.5116 20.9767604,34.6309245 C21.0916437,34.6833358 21.185434,34.7871289 21.3012556,34.8352896 C21.395616,34.8745154 21.5085199,34.8656465 21.6132019,34.8781041 C21.5818652,34.7811648 21.5305971,34.6858509 21.5230728,34.5869628 C21.5035096,34.3297819 21.0098286,34.2353063 21.358143,33.8176189 L21.358143,33.8176189 Z M18.167406,27.130614 C18.3652941,27.1754581 18.5728452,27.1947621 18.7589775,27.2706913 C19.1018958,27.4105699 19.34004,27.2567262 19.4320811,26.9564955 C19.5735916,26.4949053 19.6413177,26.6497492 19.844471,26.9214908 C20.0061999,27.1378207 20.2684679,27.3856401 20.5037333,27.406665 C20.9895501,27.4500677 21.4874553,27.3242571 21.9796492,27.3305006 C22.1026622,27.3320669 22.2855583,27.5533387 22.3250601,27.7059691 C22.3582132,27.8340742 22.2027658,28.0044864 22.1671944,28.164875 C22.1286344,28.3387289 22.1321858,28.5226501 22.1173709,28.7021811 C22.2652727,28.6254283 22.4477651,28.5826948 22.5546106,28.465547 C22.8783728,28.1105885 23.1741126,27.9882121 23.5664683,28.380521 C23.7092499,28.5232972 23.9807914,28.6609036 24.1498606,28.617442 C24.7382242,28.4662015 25.3096199,28.2406939 25.8793446,28.0207237 C25.920553,28.0048172 25.9438378,27.7399368 25.8957175,27.703079 C25.100178,27.0936605 24.3050706,26.4817418 23.4839025,25.9106446 C21.0440828,24.2138184 18.3709453,23.5106965 15.4450043,23.9400617 C15.2852655,23.9634986 15.0659304,23.9666755 14.9840444,24.0716085 C14.6435836,24.5078792 14.2076718,24.5784619 13.7144476,24.5485462 C13.6230579,24.5430014 13.5255355,24.6464268 13.4308422,24.6995587 C13.5254824,24.7669132 13.6238794,24.829289 13.7139625,24.9026811 C13.8859739,25.0428172 14.0635799,25.1784968 14.2175189,25.3382089 C14.2811411,25.4042177 14.2897808,25.5273662 14.3234261,25.6245334 C14.385161,25.5455671 14.4419067,25.4616149 14.5096222,25.388642 C14.6704091,25.2153472 14.8635313,25.0671145 14.9950388,24.8732433 C15.3455983,24.3564622 15.7871578,24.5096514 16.1802287,24.7273712 C16.4874516,24.8975481 16.7528214,25.1723342 16.9948782,25.4413034 C17.4512067,25.9483701 18.0231477,26.0055026 18.6350404,25.9920597 C18.8397906,25.9875591 19.0482412,26.0446034 19.2489442,26.0980222 C19.2773243,26.105582 19.300963,26.3129108 19.2762868,26.3261257 C19.0867303,26.4277127 18.8901807,26.5548691 18.6854799,26.5787767 C18.1057384,26.6464915 17.5196833,26.6555147 16.9396513,26.7213321 C16.8373524,26.732944 16.7521522,26.9070477 16.6590559,27.0061197 C16.7882513,27.0677012 16.9145856,27.173024 17.0472051,27.1824002 C17.3998181,27.2073153 17.7551435,27.1908572 18.167406,27.130614 L18.167406,27.130614 Z M18.8055541,34.0585845 C18.4573387,34.1028403 18.385739,33.898284 18.391585,33.591854 C18.3930544,33.5146232 18.2971785,33.4353922 18.2460379,33.3570803 C18.1811516,33.4152057 18.1184145,33.476177 18.050986,33.5309267 C17.8328477,33.7080457 17.5437329,34.0747336 17.4071512,34.0215722 C17.0396098,33.8785166 16.8444553,33.9877369 16.6407177,34.2563163 C16.5612077,34.3611316 16.469248,34.4557691 16.3829572,34.5550395 C16.5267197,34.5502006 16.6967094,34.5952434 16.8094115,34.5313378 C17.1736032,34.3248181 17.5173641,34.5867422 17.4383072,34.8149928 C17.1798208,35.5613043 17.8219879,35.3148454 18.052505,35.4896698 C18.124381,35.5441844 18.3191495,35.42397 18.4576575,35.3837441 C18.375598,35.2986594 18.2797115,35.2234216 18.2152112,35.1258205 C18.1453464,35.0201007 18.0644129,34.8931502 18.0654256,34.776179 C18.0661125,34.6969773 18.2118791,34.5453397 18.2718118,34.5557823 C18.3989606,34.5779322 18.5364875,34.6620977 18.6248923,34.7631624 C18.7172273,34.8687205 18.7325876,35.0498546 18.8290016,35.1474556 C18.8837009,35.202838 19.077262,35.2039926 19.1326801,35.1483602 C19.3471004,34.9331187 19.2027926,34.2536543 18.8055541,34.0585845 L18.8055541,34.0585845 Z M23.3306045,37.3117184 C22.5377455,37.8033935 22.3470807,37.7375172 21.9971445,36.849687 C21.990385,36.8325451 22.0039748,36.7979082 21.9951262,36.7918633 C21.8926998,36.7218834 21.7877628,36.6558675 21.6834915,36.5887998 C21.6330555,36.6882466 21.5455148,36.7848476 21.5382136,36.8876038 C21.4908333,37.5541915 22.1223564,38.135768 22.7663471,38.0350489 C23.0389862,37.9924109 23.3150601,37.967893 23.5841017,37.9084294 C23.7186686,37.8786827 23.8409275,37.7889136 23.9687526,37.7263024 C23.8557637,37.6282748 23.7446232,37.5277983 23.6289999,37.4332418 C23.5725161,37.3870592 23.5076829,37.3518781 23.3306045,37.3117184 L23.3306045,37.3117184 Z M22.9825237,40.6853389 C22.586758,40.2959862 22.2371264,40.0609846 22.0725224,40.8876596 C22.0493191,41.004197 21.8054848,41.0644549 21.6803224,41.1715941 C21.6128372,41.2293811 21.5804277,41.3313503 21.532187,41.4133758 C21.603068,41.4518367 21.6805844,41.5315384 21.7435232,41.5206179 C21.9006383,41.4933643 22.0824403,41.4648533 22.1989842,41.366274 C22.7710139,40.8824015 22.9009918,40.8928809 23.4426939,41.5184118 C23.498682,41.5830673 23.5986972,41.6066071 23.6782887,41.6492304 C23.6899311,41.5406941 23.7510817,41.3897403 23.7044911,41.3311076 C23.5208903,41.1000993 23.303439,40.8981021 22.9825237,40.6853389 L22.9825237,40.6853389 Z M20.778012,38.9985287 C20.9497366,39.2042837 21.1351255,39.3798509 21.3804363,39.1147793 C21.4524397,39.0369749 21.5399875,38.8590176 21.5070291,38.8111657 C21.3140239,38.5308862 21.0938355,38.2694548 20.8692245,38.0145903 C20.766012,37.897472 20.63187,37.8097472 20.5117534,37.7086972 C20.499849,37.9136285 20.4512719,38.1255535 20.4859369,38.3216014 C20.52364,38.5348499 20.6386755,38.733354 20.778012,38.9985287 L20.778012,38.9985287 Z M15.614817,26.1667151 C15.7214854,26.2165966 15.8287735,26.3095207 15.9347054,26.3078734 C16.1993459,26.3037919 16.4635685,26.2584698 16.7274723,26.2255022 C16.7797992,26.2189793 16.8512255,26.2087941 16.8749208,26.1727159 C16.8970442,26.1390423 16.8825018,26.0597451 16.8583001,26.0158643 C16.5125244,25.3889363 15.9858496,25.4029455 15.614817,26.1667151 L15.614817,26.1667151 Z M12.0179786,29.1788835 C11.9019516,29.0316509 11.7603526,28.8987511 11.6749329,28.7343691 C11.4617695,28.324146 11.1404081,28.6410995 11.172637,28.7554896 C11.2550894,29.0480869 11.4847001,29.3078564 11.6986035,29.5373866 C11.7359171,29.5774212 11.983526,29.4061339 12.1340055,29.3324552 C12.1146688,29.3013481 12.0953322,29.2702338 12.0179786,29.1788835 L12.0179786,29.1788835 Z M29.1899716,39.4202312 C29.2286449,39.2587761 29.3171735,39.0890553 29.2939384,38.9378442 C29.2615324,38.7269635 29.1596193,38.5216644 29.0562687,38.3323233 C29.0276869,38.2799635 28.8884673,38.2927299 28.8000237,38.27561 C28.7753014,38.4398007 28.7426688,38.6032413 28.7283,38.7684028 C28.716346,38.9058032 28.6756899,39.0809513 28.7379099,39.1751548 C28.8256453,39.3079884 28.996584,39.381557 29.1899716,39.4202312 L29.1899716,39.4202312 Z M28.0877087,43.4565271 C28.0336894,43.5126227 27.9387588,43.5644677 27.932881,43.6255567 C27.9096459,43.8671179 27.9143198,44.1115691 27.9086403,44.3549541 C28.0433416,44.2185538 28.1844521,44.0881322 28.3098694,43.943069 C28.3669976,43.8769941 28.4004941,43.7848791 28.431505,43.6994193 C28.4755038,43.5781975 28.5073078,43.4522103 28.5443239,43.3282602 C28.4114567,43.3509396 28.2785894,43.3736118 28.0877087,43.4565271 L28.0877087,43.4565271 Z M24.9549815,39.1190151 C24.8956791,39.0386883 24.8363698,38.9583616 24.7770603,38.8780422 C24.6236561,39.0351879 24.4071536,39.1683672 24.3402314,39.3583627 C24.2993557,39.4743928 24.4885085,39.6777798 24.5743531,39.8419338 C24.6552547,39.6888548 24.7382242,39.536901 24.8161018,39.3821821 C24.8486282,39.3175633 24.8703407,39.247076 24.9549815,39.1190151 L24.9549815,39.1190151 Z M24.3168334,42.9143381 C24.3468174,42.9344142 24.3959646,42.9782141 24.4040236,42.9711765 C24.7607795,42.6601943 24.5024099,42.3732521 24.3413857,42.1133503 C24.2647402,41.9896281 24.0826762,41.936327 23.9483642,41.851132 C24.0040337,42.0956347 24.0475863,42.3442115 24.1219231,42.5824341 C24.1479981,42.6659966 24.2496774,42.7241146 24.3168334,42.9143381 L24.3168334,42.9143381 Z M22.518416,39.359988 C22.6924564,39.2865445 22.8664967,39.213101 23.0405371,39.1396576 C22.9507444,38.9792908 22.8882092,38.7845005 22.7588757,38.6740963 C22.700232,38.6240529 22.4176005,38.713528 22.3963872,38.788479 C22.3469143,38.963274 22.3942662,39.167617 22.518416,39.359988 L22.518416,39.359988 Z M16.6010424,35.9863676 C16.9588181,36.0987794 16.9335433,35.8634028 16.8492602,35.6542062 C16.7877379,35.5015023 16.6554689,35.3752503 16.5404936,35.2514841 C16.4582076,35.1629062 16.3592405,35.0803587 16.2520658,35.0350365 C16.2257466,35.0238953 16.0860702,35.1722384 16.0904361,35.2409606 C16.0981233,35.3619766 16.1589553,35.4914715 16.2299637,35.5929408 C16.3168919,35.7171557 16.4371713,35.8161981 16.6010424,35.9863676 L16.6010424,35.9863676 Z M24.0847795,40.1431499 C23.8628737,40.0924447 23.6409679,40.0417468 23.4190623,39.991049 C23.524941,40.1562251 23.6308553,40.3213718 23.7366349,40.4866142 C23.7465919,40.5021603 23.7520802,40.5263621 23.7657196,40.5329291 C23.9119997,40.6033648 24.0595048,40.6710503 24.2066772,40.7394857 C24.1853824,40.5607858 24.1640877,40.382093 24.0847795,40.1431499 L24.0847795,40.1431499 Z M25.3610758,39.902177 C25.5076532,40.0311057 25.6542236,40.1600271 25.8008012,40.2889558 C25.7865032,40.0965849 25.7910071,39.8998973 25.7513353,39.7133433 C25.7247151,39.5881357 25.6355066,39.4772682 25.5743064,39.359988 C25.5032271,39.5005579 25.4321551,39.6411206 25.3610758,39.902177 L25.3610758,39.902177 Z M23.272591,42.4323923 C23.0927223,42.1510391 22.5444554,42.0142417 22.3367344,42.2015679 C22.2989782,42.2356164 22.2740541,42.2850126 22.2432025,42.327327 C22.3172703,42.3824298 22.3881937,42.478619 22.4659864,42.4850463 C22.7141441,42.5055123 22.9648548,42.4926355 23.272591,42.4323923 L23.272591,42.4323923 Z M25.4190893,42.8540948 C25.2906056,42.9616457 25.1621148,43.0691893 25.033624,43.1767328 C25.1398498,43.2931159 25.2460757,43.4094988 25.3523015,43.5258818 C25.5155706,43.348807 25.7642453,43.1905288 25.4190893,42.8540948 L25.4190893,42.8540948 Z M24.7229277,40.8058253 C24.8423751,40.9263117 24.9500738,41.0684702 25.090384,41.1504441 C25.1213878,41.1685422 25.2678024,40.9735753 25.3610758,40.876717 C25.1676952,40.8330054 24.9743217,40.7892937 24.7229277,40.8058253 L24.7229277,40.8058253 Z M28.5518164,42.8540875 C28.6485032,42.8411079 28.7998325,42.86189 28.8306097,42.808177 C28.8964342,42.6933016 28.8998972,42.5398991 28.928904,42.4022707 C28.7963695,42.4323923 28.6486377,42.435981 28.5380212,42.5043429 C28.4863033,42.5363178 28.5063093,42.6934487 28.5518164,42.8540875 L28.5518164,42.8540875 Z M29.4220114,41.2275279 C29.3992436,41.4046909 29.3764759,41.5818613 29.3537082,41.7590243 C29.4538295,41.6321031 29.5542271,41.5054173 29.6539235,41.3781359 C29.688971,41.3334021 29.7512476,41.2868077 29.7506457,41.2417944 C29.7492152,41.1364055 29.7172908,41.0314433 29.6977169,40.9263117 C29.6058174,40.986555 29.5139179,41.0467982 29.4220114,41.2275279 L29.4220114,41.2275279 Z M26.4633317,41.0467982 C26.5503022,40.9764654 26.6372799,40.9061327 26.7242577,40.8358072 C26.6066161,40.7454939 26.4981382,40.6086965 26.3681391,40.581053 C26.2801841,40.5623521 26.1619335,40.6972375 26.0572374,40.76343 C26.1539241,40.857891 26.2506109,40.9523445 26.4633317,41.0467982 L26.4633317,41.0467982 Z M25.1870354,44.1794457 C25.3032465,44.2196054 25.4232958,44.2993659 25.5345001,44.2877688 C25.6284391,44.277966 25.7121379,44.1622597 25.8003691,44.0934344 C25.6103099,44.0016209 25.4202435,43.9098 25.2301843,43.8179864 C25.1964611,43.9183893 25.162745,44.0187996 25.1870354,44.1794457 L25.1870354,44.1794457 Z M22.9245102,43.3962765 C23.097414,43.4175367 23.2703177,43.4387968 23.4432251,43.4600643 C23.4432251,43.3773843 23.4432251,43.2946969 23.4432251,43.2120169 C23.2703177,43.2332771 23.097414,43.2545372 22.9245102,43.3962765 L22.9245102,43.3962765 Z M21.3001332,40.5046092 C21.1866309,40.587554 21.0731286,40.6704987 20.9596297,40.7534508 C21.0502228,40.8512357 21.1408121,40.9490133 21.231405,41.0467982 C21.2736545,40.8861521 21.3159005,40.7254986 21.3001332,40.5046092 L21.3001332,40.5046092 Z M19.0956214,37.7334136 C18.9804974,37.6923201 18.8653734,37.651219 18.7502458,37.6101254 C18.7862174,37.7698375 18.8221855,37.9295424 18.8581535,38.0892546 C18.9373095,38.0108031 19.0164654,37.9323589 19.0956214,37.7334136 L19.0956214,37.7334136 Z M26.0572374,45.0830941 C26.1368005,45.1209593 26.2163566,45.1588319 26.2959198,45.1966972 C26.3166408,45.1023172 26.3821468,44.9806026 26.347765,44.9198373 C26.293781,44.8244203 26.1724358,44.7701117 26.0796156,44.6983964 C26.0528184,44.8065503 26.0260212,44.9146969 26.0572374,45.0830941 L26.0572374,45.0830941 Z M25.4190893,45.1433373 C25.4422394,45.0468981 25.4653967,44.9504516 25.4885539,44.8540125 C25.3706219,44.8480631 25.252683,44.8421138 25.134751,44.8361719 C25.2101926,44.9184768 25.2856342,45.0007892 25.4190893,45.1433373 L25.4190893,45.1433373 Z M23.6206718,44.1192025 C23.6229379,44.2420422 23.6252041,44.3648818 23.6274702,44.487729 C23.6809514,44.4676454 23.7823616,44.4366708 23.7807682,44.4291036 C23.7544031,44.3039768 23.7150923,44.1817989 23.6206718,44.1192025 L23.6206718,44.1192025 Z M26.5793586,39.9624202 C26.6591271,39.9599125 26.7388956,39.9574048 26.8186641,39.9548898 C26.799324,39.8996693 26.7799909,39.8444414 26.7606507,39.7892209 C26.6808822,39.826873 26.6011136,39.864525 26.5793586,39.9624202 Z" id="Shape"></path>
                <path d="M26.8013406,65.2017516 C26.9245795,65.723611 27.0536978,66.1823109 27.1693025,66.6483244 C27.2730195,67.0664137 27.2273031,67.4756591 26.9803196,67.7278071 C26.8625783,67.8480277 26.6353348,67.8783447 26.5028357,67.7942466 C26.1889829,67.5950306 26.1115099,66.613095 26.4040958,66.2386764 C26.641819,65.934453 26.5930291,65.6342051 26.5585163,65.2871237 C26.5438674,65.1397487 26.5384341,64.9903679 26.528807,64.8419021 C26.6196499,64.9418652 26.7104977,65.041821 26.8013406,65.2017516 Z" id="Path"></path>
                <path d="M27.0769888,62.6682685 C27.2715266,62.8141808 27.5501121,62.9707066 27.5399067,63.1041291 C27.4999578,63.6264101 27.3699413,64.1416296 27.2636603,64.6573773 C27.2614222,64.6682216 27.1027842,64.6789809 27.0831571,64.6471584 C26.9235752,64.3884375 26.7607578,64.1285448 26.6353781,63.8517298 C26.4195328,63.3751879 26.5723943,62.9466925 27.0769888,62.6682685 Z" id="Path"></path>
                <path d="M26.6889628,57.5798203 C27.0773362,57.6229157 27.2496289,57.891777 27.2051697,58.3386541 C27.1717241,58.6747719 27.1049181,59.0214007 26.9926039,59.3227963 C26.8443142,59.720729 26.4606433,59.6391218 26.2803461,59.1985227 C26.0972263,58.7510091 26.2985122,57.8582918 26.6889628,57.5798203 Z" id="Path"></path>
                <path d="M26.6151616,9.51259168 C24.6007179,9.66406481 22.615962,9.86669345 20.6303717,9.87578693 C19.4443892,9.88121948 18.2575435,9.57973027 17.0702285,9.42309457 C16.3996046,9.33462554 15.7191383,9.30295154 15.057608,9.16921434 C14.0885552,8.97330893 13.1321167,8.71052377 12.1710544,8.47301124 C11.3352511,8.26645896 10.4939822,8.07919952 9.66759127,7.83790391 C9.13007699,7.68095764 8.61279876,7.44796409 8.09154855,7.23570576 C7.99124258,7.19486425 7.90026299,7.10430573 7.82937979,7.01584785 C7.36466486,6.43586766 7.52444683,5.06303893 8.11601444,4.62393699 C8.7568145,4.14829064 9.41866723,3.72178799 10.2280456,3.59694844 C10.5846072,3.54195061 10.9298043,3.40300285 11.2774728,3.29310352 C11.8371106,3.11620242 12.3587405,2.91817057 12.9964211,3.0870579 C13.4633565,3.21071777 14.0058598,3.00665438 14.5161003,2.98593771 C15.0536468,2.964108 15.5929912,2.99463929 16.1313291,2.98651464 C16.4330208,2.98196232 16.7366072,2.96271385 17.0352007,2.91957951 C17.586701,2.83990452 18.1258914,2.83146917 18.5755815,3.22639766 C18.6851172,3.32259195 18.7901688,3.55134 18.7513623,3.66688262 C18.7072909,3.79808295 18.4845769,3.97141547 18.3651201,3.95265873 C17.4471587,3.80851157 16.653063,4.28881372 15.7974929,4.4383343 C15.1349274,4.55412096 14.4465529,4.50320588 13.7764447,4.58542149 C13.3272847,4.6405302 12.7993369,4.57123937 12.5411688,5.13562473 C12.3785574,5.4911169 12.1176386,5.81500171 12.0326117,6.18532686 C11.9878955,6.38008967 12.1698117,6.77178974 12.3465953,6.85536982 C13.2160871,7.26644415 14.1107468,7.62514621 15.0105567,7.96242549 C16.2361981,8.42183719 17.5299686,8.47884307 18.8137787,8.5703223 C19.6177525,8.6276018 20.4240184,8.69177443 21.2288268,8.68617186 C22.5621165,8.6768971 23.9527726,8.84728959 25.2136783,8.51493258 C26.8241616,8.09042319 28.5031894,8.40442299 30.0735159,7.78426704 C30.7853067,7.50316902 31.5620748,7.35580445 32.3225251,7.264118 C32.7445438,7.21323624 33.192049,7.45683581 33.6309443,7.47069984 C34.391065,7.49470773 35.1543304,7.46038961 35.914487,7.41705557 C36.3612259,7.39158325 36.8035881,7.29100679 37.2500905,7.24867489 C37.3483764,7.23935202 37.4558672,7.33360115 37.5591244,7.38015624 C37.4796991,7.49517378 37.4199367,7.68462244 37.3177467,7.71340076 C36.5244461,7.93676449 35.7179365,8.11030035 34.925209,8.33562402 C33.8042359,8.65424266 32.5869825,8.47170942 31.5145686,9.04708543 C31.4066911,9.10496028 31.2446815,9.04706326 31.1092758,9.05970326 C29.6208459,9.19864739 28.132717,9.34091967 26.6151616,9.51259168 L26.6151616,9.51259168 Z M10.5072878,4.69574616 C10.4483743,4.95854247 10.4019138,5.22524011 10.3261848,5.48275922 C10.2753369,5.65567016 10.0830808,5.85299202 10.1259381,5.97508397 C10.359755,6.64121069 10.5899832,7.33344956 11.3318091,7.60647103 C11.504954,7.67019614 11.6801761,7.72790837 11.8544419,7.78838662 C11.7600885,7.60845314 11.6776547,7.4204098 11.5690107,7.25019847 C11.3070604,6.83979729 11.0875734,6.47721219 11.2418969,5.90262383 C11.3947198,5.33361223 11.5306054,4.80618909 11.9621726,4.39524068 C12.0243238,4.33605661 12.0234966,4.20635405 12.051809,4.10928328 C11.9506075,4.10280798 11.8352267,4.06039478 11.7506223,4.09597764 C11.3511247,4.26400702 10.9600473,4.45338539 10.5072878,4.69574616 L10.5072878,4.69574616 Z M13.2066067,7.96756576 C12.9667655,7.88677763 12.7302587,7.79065726 12.4851957,7.73392137 C12.4045168,7.71523879 12.301718,7.79842323 12.2090336,7.83502677 C12.2728217,7.88447742 12.3298119,7.95262554 12.4014796,7.98039808 C12.9233889,8.18264573 13.4403304,8.4051108 13.9747143,8.56442394 C14.3964501,8.690151 14.839901,8.74117333 15.2760599,8.80927334 C15.3425485,8.81965386 15.4218056,8.74284123 15.4951565,8.70635232 C15.4293699,8.6620531 15.3690917,8.59911177 15.2969334,8.57636499 C14.6404603,8.36943549 13.9819097,8.16952864 13.2066067,7.96756576 L13.2066067,7.96756576 Z M8.45346464,5.84694194 C8.57676795,5.63884392 8.71548658,5.43810506 8.81394445,5.21815093 C8.84336359,5.1524288 8.76014182,5.0329514 8.72853073,4.93810692 C8.54269989,5.0959 8.32374306,5.22700047 8.17928674,5.41813545 C7.99200543,5.66591386 8.0987583,5.84866898 8.45346464,5.84694194 L8.45346464,5.84694194 Z M9.15763383,6.33165596 C9.2515896,6.35582283 9.34554184,6.37999346 9.43949773,6.40416045 C9.46274224,6.21825081 9.48979043,6.03262231 9.50259458,5.84595458 C9.50371209,5.82958312 9.3720456,5.78305773 9.36830294,5.78979186 C9.29226933,5.92657634 9.2259204,6.06910371 9.15763383,6.33165596 L9.15763383,6.33165596 Z M8.45346464,6.69519523 C8.57518134,6.77147903 8.69596325,6.84959349 8.82159115,6.91826668 C8.82742554,6.9214544 8.87652913,6.84026698 8.90547917,6.79837145 C8.77436792,6.74378042 8.64325666,6.6891895 8.45346464,6.69519523 Z" id="Shape"></path>
                <path d="M23.1596067,7.06265038 C23.5436412,7.0133101 23.8701882,6.93610403 24.1975099,6.93016858 C24.307983,6.92816296 24.4204034,7.10683199 24.5319374,7.20293321 C24.424389,7.30419279 24.3234996,7.47623988 24.2081406,7.49442573 C23.7126697,7.57251724 23.2132901,7.63971802 22.7147132,7.64794816 C21.4711083,7.66848732 20.2266448,7.68396284 18.9834971,7.64690465 C17.6033628,7.60575396 16.2554518,7.27117736 14.9450129,6.71068308 C14.4694946,6.50729639 14.4008495,6.11065503 14.7581679,5.7404477 C14.8271481,5.66897828 15.0105241,5.64184412 15.0620054,5.70401739 C15.7270317,6.50718805 16.5903991,6.61124824 17.4121726,6.74291254 C18.3574299,6.89436615 19.3199663,6.86504565 20.2749816,6.91470652 C21.2174713,6.96371702 22.159947,7.0133101 23.1596067,7.06265038 Z" id="Path"></path>
                <path d="M24.9797219,82.8496296 C25.1255985,82.8915611 25.2353588,82.9180927 25.2691359,82.9781879 C25.3885124,83.1905323 25.6179264,83.4520093 25.5566269,83.6259689 C25.4309005,83.9827629 25.0643855,83.8475718 24.8617749,83.6682689 C24.6412578,83.4731055 24.3534637,83.2064389 24.8078303,82.9375461 C24.8463722,82.9147301 24.8753412,82.879232 24.9797219,82.8496296 Z" id="Path"></path>
                <path d="M26.0441181,81.6662479 C26.1560802,81.7824731 26.3016414,81.884809 26.2694013,81.9491627 C26.1531045,82.1813227 25.9769431,82.4006792 25.8233802,82.6248848 C25.6284862,82.5059979 25.2726724,82.3863766 25.2739611,82.2684075 C25.2762571,82.0567147 25.4792348,81.8414577 25.6344844,81.6395243 C25.6596838,81.6067432 25.8708971,81.63492 26.0441181,81.6662479 Z" id="Path"></path>
                <path d="M27.5638868,84.2638432 C27.7361745,84.5562346 27.8762535,84.7997866 28.0163406,85.043315 C27.7866104,85.1255567 27.5566445,85.2659428 27.3272448,85.2638194 C27.2230308,85.262865 27.1199412,84.9797071 27.0163406,84.8245761 C27.1881172,84.6213696 27.3598937,84.4181629 27.5638868,84.2638432 Z" id="Path"></path>
                <path d="M26.4987025,82.8520008 C26.6003699,82.1323463 27.0033092,82.3552081 27.3216929,82.398362 C27.3931048,82.4080453 27.5184735,82.6669885 27.4960566,82.701199 C27.3420423,82.9362319 27.1804179,83.1996365 26.9660242,83.3270831 C26.8873542,83.3738553 26.6588577,83.0765691 26.4987025,82.8520008 Z" id="Path"></path>
                <path d="M30.4658303,85.8366052 C30.2018972,86.1929641 29.9379642,86.4355106 29.6740186,86.6780567 C29.604614,86.344705 29.5352222,86.0113807 29.4658303,85.6780567 C29.7991678,85.692978 30.1324926,85.7078991 30.4658303,85.8366052 Z" id="Path"></path>
                <path d="M28.3182266,13.3540674 C26.2751542,13.3540674 24.286638,13.4234685 22.3096447,13.3284368 C21.0936288,13.269985 19.8937926,12.9657912 18.6909026,12.7554213 C18.5586393,12.7322876 18.4541547,12.6001619 18.3367836,12.5185884 C18.4887012,12.4688806 18.6406261,12.3785 18.7925364,12.3785211 C19.0528994,12.3785542 19.3241141,12.4071175 19.5716449,12.4730091 C20.4210651,12.6991119 21.2643992,12.8663634 22.167741,12.676474 C22.3843377,12.6309487 22.6450669,12.7570198 22.8860041,12.7588557 C24.1380789,12.7684109 25.3913071,12.7888734 26.6422287,12.7558781 C27.8166654,12.7248988 28.9880048,12.6201436 30.1621296,12.5711328 C30.799853,12.5445105 31.441566,12.5513254 32.0787744,12.5818839 C32.1795669,12.5867185 32.3270452,12.7940807 32.3366565,12.9141843 C32.3426337,12.988967 32.1363048,13.1391183 32.0146212,13.1473423 C30.803567,13.2291562 29.5902931,13.2884282 28.3182266,13.3540674 Z" id="Path"></path>
                <path d="M10.9220392,10.2405069 C10.3237514,10.0890512 9.77425029,9.95031884 9.2308998,9.77354781 C9.14085195,9.74424947 9.07768153,9.54879122 9.00208868,9.43011934 C9.06722655,9.36374162 9.14682268,9.22323587 9.19530828,9.24226185 C9.80050397,9.47967599 10.4013737,9.73938189 11.0008749,10.0046287 C11.0081366,10.0078416 10.9829348,10.1586152 10.9220392,10.2405069 Z" id="Path"></path>
                <path d="M25.1953701,96.31909 C26.0164482,96.3504329 26.7814883,96.4319979 27.5389134,96.40015 C28.4432257,96.3621047 29.338857,96.2096595 30.2422917,96.1392957 C30.993451,96.0807874 31.7514272,96.0412616 32.5042037,96.057306 C32.6863875,96.0611852 32.9835268,96.3036193 33.0113028,96.4603798 C33.0657092,96.7674508 32.695083,96.679367 32.4621842,96.694918 C31.0479009,96.7894058 29.6347706,96.8986067 28.2185364,96.9685459 C27.7448193,96.9919583 27.2612392,96.8758943 26.785477,96.890573 C25.4328161,96.9322795 24.0777691,97.0891432 22.7314902,97.0464039 C21.6009548,97.0105047 20.47955,96.7653277 19.3594941,96.5911226 C19.2277244,96.5706251 19.1301236,96.4126023 19.0166839,96.3183325 C19.1703626,96.2558992 19.3759423,96.1084348 19.4696885,96.1442307 C20.3812348,96.4924916 21.3805952,96.2135731 22.3480599,96.4543431 C23.1686704,96.6585598 24.1717075,96.4040406 25.0938893,96.3509952 C25.1088144,96.3501459 25.1219773,96.3301535 25.1953701,96.31909 Z" id="Path"></path>
                <path d="M31.0502246,35.7615861 C30.7137463,35.9441209 30.4582376,36.1076527 30.1995809,36.37036 C29.8438019,36.731708 29.165894,36.8078001 28.6172227,36.9804817 C28.5477448,37.0023416 28.3545928,36.8791818 28.3437505,36.8061445 C28.3268872,36.6925887 28.3823748,36.4938568 28.4683797,36.4546789 C28.8324644,36.2888248 29.2107608,36.1388016 29.5994105,36.0382049 C30.2818189,35.8615528 30.4122169,35.5542319 29.973306,35.0331029 C29.8125051,34.8421802 29.5100665,34.6951678 29.8311257,34.4103076 C30.2350953,34.0518899 31.0453955,33.8480008 31.2298371,34.0851194 C31.5159166,34.4529067 31.190273,34.5795095 30.9099316,34.7137531 C30.7931801,34.7696557 30.6900751,34.8517623 30.5807733,34.9219646 C30.6695976,35.0117997 30.781589,35.0893716 30.841982,35.1942611 C30.9396621,35.3639247 31.0034322,35.5515434 31.0502246,35.7615861 Z" id="Path"></path>
                <path d="M26.713889,35.7254266 C27.2229864,35.7381111 27.2806277,35.90311 27.0971664,36.5539286 C26.9829694,36.9590443 27.1127553,37.2203638 27.3929502,37.3606193 C27.5128673,37.4206527 27.7034717,37.5753419 27.701763,37.6813891 C27.6979116,37.920627 27.6354586,38.2246055 27.5207074,38.3761595 C27.3790585,38.56324 27.1650937,38.6523606 26.9721807,38.7219179 C26.8962303,38.7492896 26.7927308,38.6095073 26.7017744,38.5458485 C26.7381124,38.434824 26.7606557,38.3060444 26.8134912,38.2162478 C26.9479057,37.9877845 27.2283122,37.7716506 26.7977995,37.5767194 C26.7715531,37.5648377 26.7350609,37.5155957 26.7340324,37.4817086 C26.716632,36.9080024 26.7040945,36.3339919 26.713889,35.7254266 Z" id="Path"></path>
                <path d="M19.3362681,33.2142429 C19.4378332,33.0478674 19.5462402,32.8736574 19.716293,32.7821943 C20.0014974,32.6288072 20.3201462,32.5153742 20.6365554,32.4110446 C20.7779301,32.3644313 21.0480508,32.3265128 21.0867806,32.3782082 C21.2173193,32.5524254 21.2859587,32.7658728 21.3360939,32.9717366 C21.3437328,33.0030963 21.0980468,33.1404488 21.0206381,33.115275 C20.5374914,32.9582034 20.1583396,33.0830622 19.7822457,33.343087 C19.718845,33.3869262 19.5116019,33.280568 19.3362681,33.2142429 Z" id="Path"></path>
                <path d="M24.9911026,35.0187236 C24.787043,35.1068181 24.6158568,35.2180857 24.4471841,35.2158444 C24.2888887,35.2137383 24.1332393,35.0916183 23.9764285,35.0223111 C24.052362,34.9243882 24.1002579,34.7971092 24.2096041,34.7341461 C24.5149967,34.5582857 24.8309407,34.3845377 25.1727405,34.2593906 C25.350571,34.1942827 25.5943476,34.2164512 25.8028451,34.2354573 C25.8697369,34.2415695 25.9190679,34.3638248 25.9764285,34.4329388 C25.8152131,34.4963013 25.637001,34.5427059 25.4971123,34.6273159 C25.3232137,34.7324908 25.1809858,34.8692375 24.9911026,35.0187236 Z" id="Path"></path>
                <path d="M30.5100033,36.9148953 C30.6575038,37.0852344 30.7579346,37.2555655 30.8583709,37.4259046 C30.5902685,37.5988545 30.3299737,37.8194054 30.0489446,37.9134828 C29.9723275,37.9391224 29.7051156,37.6106439 29.979216,37.3408089 C30.1349838,37.1874806 30.3013457,37.0561386 30.5100033,36.9148953 Z" id="Path"></path>
                <path d="M23.3493339,34.6381805 C23.1074132,34.3893646 22.9380692,34.1405383 22.7687208,33.8917224 C22.9977774,33.8016548 23.2227145,33.6753078 23.4578666,33.6389043 C23.555613,33.6237845 23.7795224,33.8501997 23.7683151,33.8823528 C23.6765843,34.1455645 23.5428775,34.3888474 23.3493339,34.6381805 Z" id="Path"></path>
                <path d="M15.1443769,30.6459797 C15.0298457,30.6459797 14.9696704,30.6672862 14.9163849,30.6419478 C14.7608911,30.5680109 14.6081454,30.4754515 14.4543257,30.3901874 C14.594401,30.1313838 14.7202653,29.7016487 14.8783354,29.6593128 C15.0551021,29.6119621 15.2610701,29.9158737 15.4543257,30.0669096 C15.3701787,30.2599414 15.2860317,30.4529605 15.1443769,30.6459797 Z" id="Path"></path>
                <path d="M23.9934656,34.7333949 C24.2517897,34.5525116 24.4748616,34.3330925 24.6921132,34.345816 C24.8035434,34.3523393 24.9200122,34.7632282 24.9931375,35.0188491 C25.0037205,35.0558383 24.7553634,35.3813326 24.6757283,35.3419956 C24.4232979,35.2172499 24.194029,34.9829283 23.9934656,34.7333949 Z" id="Path"></path>
                <path d="M33.3155667,33.0793683 C33.5535892,33.0118687 33.749598,32.9968489 33.9456171,32.9818417 C33.800205,33.2835462 33.6908281,33.6316558 33.495291,33.8687954 C33.3858629,34.0015008 33.1335454,33.9502128 32.9456171,33.9818417 C33.0549223,33.6985146 33.1642377,33.4151878 33.3155667,33.0793683 Z" id="Path"></path>
                <path d="M27.0206526,34.7439718 C27.0839274,34.5749934 27.1755015,34.3283729 27.3007349,34.3200517 C27.5302377,34.3048072 27.7795796,34.4301923 28.0206526,34.4969508 C27.8455401,34.5892261 27.6842055,34.7005605 27.4901245,34.7666056 C27.3747839,34.8058526 27.207866,34.7737911 27.0206526,34.7439718 Z" id="Path"></path>
                <path d="M17.7744059,31.0856095 C17.4410707,31.1662948 17.1077412,31.1873488 16.7744059,31.2084029 C16.7744059,31.1265382 16.7744059,31.0446807 16.7744059,30.9628161 C17.1077412,30.9838702 17.4410707,31.0049168 17.7744059,31.0856095 Z" id="Path"></path>
                <path d="M29.1324089,35.5279912 C29.2007999,35.3392932 29.2691837,35.2258778 29.3375748,35.1124532 C29.4264212,35.2887466 29.5878477,35.4683478 29.5830254,35.6403591 C29.5785053,35.8018955 29.3983076,35.9554101 29.2954044,36.1124532 C29.2410773,35.9427206 29.1867431,35.7729971 29.1324089,35.5279912 Z" id="Path"></path>
                <path d="M17.0012,32.0865911 C17.0896434,32.1024035 17.1486057,32.1480425 17.207568,32.1936741 C17.1026961,32.2208797 16.997828,32.2480928 16.8929562,32.2752985 C16.9192092,32.2223359 16.9454658,32.1693732 17.0012,32.0865911 Z" id="Path"></path>
            </g>
        </g>
    </g>
</svg>