<?xml version="1.0" encoding="UTF-8"?>
<svg width="198px" height="217px" viewBox="0 0 198 217" version="1.1" xmlns="http://www.w3.org/2000/svg" xmlns:xlink="http://www.w3.org/1999/xlink">
    <!-- Generator: Sketch 53 (72520) - https://sketchapp.com -->
    <title>differnce-yellow</title>
    <desc>Created with Sketch.</desc>
    <g id="Welcome" stroke="none" stroke-width="1" fill="none" fill-rule="evenodd">
        <g id="HOME" transform="translate(-260.000000, -1397.000000)" fill-rule="nonzero">
            <g id="differnce-yellow" transform="translate(359.000000, 1505.500000) scale(-1, 1) translate(-359.000000, -1505.500000) translate(260.000000, 1397.000000)">
                <g id="Laag_2" transform="translate(9.000000, 12.000000)" fill="#FFF476">
                    <path d="M0.443918919,0.148888889 C0.443918919,0.148888889 9.86486486,4.66518519 10.6540541,12.3577778 C10.0621622,6.10444444 11.9364865,5.31037037 15.0932432,7.69259259 C20.3216216,10.5711111 22.9851351,14.5414815 22.6891892,17.817037 C23.2317568,16.9237037 23.8236486,15.8814815 24.5141892,15.682963 C24.4648649,13.002963 31.7648649,19.5540741 32.1594595,22.6807407 C32.8006757,23.0281481 33.4418919,23.8718519 34.0831081,24.1696296 C33.6885135,20.5962963 44.1452703,26.1548148 44.9837838,29.5792593 C45.9209459,29.877037 47.0554054,30.9688889 47.8939189,31.217037 C45.3290541,26.1548148 58.4986486,31.0681481 58.6466216,37.7185185 C59.1398649,37.917037 59.7810811,37.7185185 60.5209459,38.0162963 C59.8304054,36.3785185 59.5344595,34.9888889 60.1263514,34.8896296 C61.2608108,34.7407407 68.1662162,40.2 71.5202703,43.0288889 C72.5560811,43.9222222 72.8027027,44.0711111 72.4081081,45.162963 C70.4351351,51.7140741 66.1439189,67 64.1709459,67 C62.197973,67 -0.739864865,9.03259259 0.443918919,0.148888889 Z" id="Path"></path>
                </g>
                <g id="Contours" fill="#000000">
                    <path d="M177.461194,155.014123 C177.313433,159.512301 177.01791,163.763326 177.067164,168.014351 C177.067164,169.398405 177.855224,170.831891 178.544776,172.117084 C180.071642,175.033485 181.697015,177.900456 183.470149,180.668565 C184.652239,182.497494 184.553731,183.832118 183.026866,185.315034 C179.086567,189.368337 174.50597,192.630752 169.777612,195.695444 C167.856716,196.931207 166.18209,198.562415 164.21194,199.699317 C156.725373,204.148064 148.746269,207.55877 140.422388,210.178588 C134.610448,211.958087 128.749254,213.342141 122.740299,214.281321 C119.58806,214.775626 116.583582,216.06082 113.431343,216.703417 C111.756716,217.049431 109.885075,217 108.161194,216.703417 C106.38806,216.406834 104.664179,215.714806 102.989552,215.07221 C102.497015,214.874487 101.807463,214.231891 101.856716,213.885877 C102.102985,212.155809 101.019403,212.452392 99.9850746,212.353531 C97.9164179,212.25467 96.3895522,212.897267 94.6164179,214.18246 C92.0059701,216.110251 88.7059701,215.912528 85.6029851,214.874487 C85.3567164,214.775626 85.0119403,214.775626 84.8149254,214.627335 C83.7313433,213.836446 82.6477612,212.996128 81.5641791,212.205239 C82.4014925,211.216629 83.1895522,210.178588 84.0761194,209.239408 C86.1447761,207.015034 88.3119403,204.840091 90.2328358,202.516856 C93.2865672,198.858998 96.3402985,195.201139 99.0985075,191.296128 C100.576119,189.220046 101.51194,186.748519 102.447761,184.326424 C102.792537,183.387244 102.497015,182.10205 102.250746,181.014579 C101.610448,178.2959 100.773134,175.626651 100.083582,172.907973 C99.8865672,172.018223 100.132836,171.029613 99.9850746,170.139863 C99.8865672,169.694989 99.2462687,169.052392 99,169.101822 C98.1134328,169.299544 97.2761194,169.645558 96.4880597,170.090433 C90.5776119,173.649431 84.2731343,175.972665 77.2298507,175.774943 C71.5656716,175.626651 69.9895522,174.638041 68.1671642,169.79385 C67.2313433,167.223462 66.3447761,164.653075 65.8522388,161.983827 C65.5567164,160.35262 65.7537313,158.47426 66.0985075,156.843052 C66.738806,153.877221 65.2119403,150.169932 62.5522388,148.835308 C59.7447761,147.451253 57.8731343,144.534852 59.1537313,141.272437 C60.0895522,138.850342 58.2671642,138.603189 57.2328358,137.71344 C56.2970149,136.922551 54.3268657,136.428246 54.2776119,135.686788 C54.1791045,134.105011 54.7208955,132.276082 55.558209,130.892027 C56.5925373,129.161959 58.2179104,127.728474 59.5970149,126.196128 C60.0402985,125.701822 60.4343284,125.108656 60.8283582,124.56492 C60.1880597,124.51549 59.5477612,124.367198 58.858209,124.367198 C57.6761194,124.367198 56.3955224,124.812073 55.361194,124.416629 C52.1597015,123.230296 50.2880597,118.237813 51.5686567,114.481093 C54.0313433,107.313667 56.3955224,100.096811 59.1044776,92.9788155 C60.0402985,90.5072893 62.0104478,88.4806378 63.4880597,86.2068337 C64.5716418,84.5756264 65.5567164,82.8455581 66.6895522,81.2143508 C66.8865672,80.9177677 67.5761194,80.9177677 68.0686567,80.7694761 C68.0686567,81.2637813 68.2164179,81.8075171 68.019403,82.2029613 C66.0985075,85.7125285 63.8328358,89.0243736 62.2567164,92.6822323 C59.7447761,98.6138952 57.6268657,104.74328 55.4597015,110.872665 C54.819403,112.701595 54.2283582,114.678815 54.1298507,116.606606 C53.9328358,121.74738 58.0701493,122.291116 61.419403,121.203645 C62.4537313,120.857631 63.3402985,120.017312 64.3746269,119.671298 C65.0641791,119.473576 65.9507463,119.720729 66.738806,119.869021 C66.7880597,119.869021 66.738806,120.75877 66.6402985,121.203645 C66.3940299,123.032574 68.4626866,124.120046 70.6298507,123.230296 C73.4865672,122.093394 74.9149254,119.720729 76.1462687,117.00205 C76.4910448,116.260592 77.4761194,115.865148 78.1656716,115.321412 C78.2149254,116.161731 78.461194,117.00205 78.3134328,117.792938 C78.1656716,118.732118 77.6731343,119.621868 77.3776119,120.561048 C76.7373134,122.439408 75.9,124.120046 73.8313433,124.762642 C73.4865672,124.861503 73.2402985,125.207517 72.9940299,125.405239 C73.2895522,125.652392 73.5358209,125.899544 73.8313433,126.097267 C75.8507463,127.431891 78.0179104,128.519362 79.7910448,130.101139 C83.0910448,132.968109 86.0955224,136.230524 89.3955224,139.097494 C90.7746269,140.283827 92.5970149,141.074715 94.3208955,141.816173 C95.7492537,142.45877 98.8522388,141.173576 99.7880597,139.542369 C100.477612,138.405467 100.970149,137.169704 101.216418,135.88451 C101.364179,135.241913 100.970149,134.203872 100.477612,133.808428 C100.034328,133.462415 99.0492537,133.561276 98.4089552,133.808428 C97.5716418,134.105011 96.8328358,134.747608 96.0447761,135.192483 C95.7,135.390205 95.3059701,135.587927 94.9119403,135.785649 C94.7641791,135.340774 94.3701493,134.648747 94.5179104,134.401595 C95.7,132.918679 96.8328358,131.13918 98.4089552,130.249431 C100.083582,129.310251 102.497015,129.21139 103.925373,130.892027 C105.649254,132.918679 105.058209,135.489066 104.565672,137.812301 C103.186567,144.435991 97.6208955,146.808656 91.7104478,145.523462 C86.4402985,144.38656 81.0223881,143.793394 75.7522388,142.705923 C72.3537313,142.013895 69.0044776,140.876993 65.6059701,140.036674 C63.8820896,139.5918 62.3552239,140.728702 62.1089552,142.409339 C61.961194,143.595672 63.5865672,145.424601 65.0149254,145.424601 C66.2462687,145.424601 67.4283582,145.177449 68.6597015,144.979727 C69.4970149,144.880866 70.3343284,144.584282 71.1716418,144.584282 C71.6149254,144.584282 72.3537313,145.078588 72.4029851,145.424601 C72.4522388,145.820046 72.0089552,146.462642 71.6149254,146.759226 C71.0238806,147.2041 70.038806,147.2041 69.5955224,147.747836 C68.9552239,148.489294 68.6104478,149.477904 68.1671642,150.367654 C69.1522388,150.614806 70.0880597,150.96082 71.0731343,151.109112 C72.0089552,151.257403 72.9940299,151.059681 73.9298507,151.257403 C74.5208955,151.356264 75.0626866,151.9 75.6044776,152.246014 C75.0626866,152.690888 74.5701493,153.135763 74.0283582,153.580638 C72.4522388,154.76697 70.5313433,155.70615 69.3985075,157.238497 C67.4283582,159.957175 69.3492537,166.432574 72.5014925,168.014351 C76.441791,169.991572 80.4313433,170.634169 84.9134328,169.497267 C89.8880597,168.261503 94.7641791,167.075171 99.4432836,164.900228 C106.683582,161.538952 114.170149,158.770843 121.31194,155.162415 C126.729851,152.394305 131.753731,148.835308 136.925373,145.523462 C141.702985,142.409339 145.397015,138.257175 148.5,133.511845 C150.716418,130.150569 150.765672,126.591572 150.026866,122.785421 C149.435821,119.720729 148.844776,116.507745 149.091045,113.443052 C149.238806,111.712984 150.962687,109.982916 152.341791,108.598861 C152.735821,108.203417 154.804478,108.697722 155.346269,109.389749 C156.873134,111.218679 157.956716,113.393622 159.237313,115.420273 C159.483582,115.766287 159.779104,116.112301 160.025373,116.458314 C160.222388,116.06287 160.51791,115.716856 160.567164,115.321412 C161.010448,110.724374 163.867164,107.906834 167.610448,105.63303 C170.664179,103.8041 173.668657,101.826879 175.491045,98.6138952 C178.495522,93.2259681 178.938806,87.73918 176.08209,82.1041002 C174.013433,78.0507973 168.989552,76.6667426 165.098507,79.2865604 C164.162687,79.9291572 163.276119,80.670615 162.291045,81.2637813 C161.847761,81.5109339 161.256716,81.5109339 160.714925,81.6592255 C160.714925,81.1154897 160.51791,80.3246014 160.813433,80.0280182 C161.995522,78.7428246 163.226866,77.4082005 164.655224,76.3701595 C168.102985,73.8986333 171.304478,74.343508 174.9,76.7656036 C178.889552,79.4348519 180.416418,82.9444191 180.859701,87.3931663 C181.647761,95.6480638 177.904478,101.87631 171.797015,106.671071 C169.580597,108.401139 166.822388,109.389749 165.295522,112.009567 C164.359701,113.640774 163.522388,115.420273 162.340299,116.853759 C161.502985,117.8918 160.173134,119.028702 159.040299,119.028702 C158.055224,119.028702 156.971642,117.644647 156.134328,116.656036 C155.49403,115.865148 155.198507,114.777677 154.755224,113.887927 C154.508955,113.443052 154.262687,112.998178 154.016418,112.553303 C153.671642,113.097039 153.031343,113.591344 153.031343,114.13508 C152.98209,115.271982 153.228358,116.458314 153.376119,117.595216 C153.671642,120.116173 154.164179,122.587699 154.31194,125.108656 C154.459701,127.679043 154.902985,130.447153 154.213433,132.819818 C153.376119,135.686788 151.8,138.553759 149.928358,140.926424 C147.908955,143.496811 145.150746,145.572893 142.737313,147.846697 C142.244776,148.291572 141.50597,148.736446 141.358209,149.280182 C140.865672,151.356264 140.126866,152.048292 138.304478,150.466515 C138.058209,150.268793 137.319403,150.664237 136.826866,150.812528 C137.122388,151.207973 137.41791,151.603417 137.713433,151.998861 C138.156716,152.493166 138.6,152.938041 139.043284,153.432346 C138.304478,153.481777 137.565672,153.630068 136.777612,153.580638 C136.038806,153.580638 135.3,153.432346 134.561194,153.382916 C134.856716,154.025513 135.3,154.618679 135.497015,155.261276 C135.69403,155.903872 135.644776,156.5959 135.69403,157.238497 C135.053731,157.238497 134.413433,157.287927 133.871642,157.139636 C133.477612,157.040774 133.231343,156.398178 132.837313,156.348747 C131.852239,156.249886 130.867164,156.299317 129.832836,156.299317 C130.325373,156.941913 130.768657,157.633941 131.310448,158.177677 C131.753731,158.622551 132.443284,158.869704 132.837313,159.314579 C133.132836,159.710023 133.18209,160.35262 133.329851,160.846925 C132.689552,160.846925 131.901493,161.094077 131.359701,160.846925 C130.81791,160.599772 130.522388,159.858314 130.029851,159.41344 C129.48806,158.869704 128.946269,158.276538 128.30597,157.930524 C127.862687,157.732802 127.222388,157.979954 126.631343,158.029385 C126.877612,158.424829 127.123881,158.770843 127.370149,159.166287 C127.468657,159.265148 127.567164,159.41344 127.665672,159.46287 C129.88209,161.242369 129.88209,161.2918 127.862687,163.565604 C126.483582,165.09795 125.350746,164.405923 124.119403,163.21959 C123.28209,162.379271 122.198507,161.736674 121.164179,161.143508 C120.770149,160.896355 120.179104,161.044647 119.686567,160.995216 C119.834328,161.440091 119.883582,162.033257 120.228358,162.329841 C121.70597,163.763326 123.331343,165.048519 124.759701,166.531435 C125.252239,167.02574 125.350746,167.866059 125.597015,168.558087 C124.858209,168.310934 123.971642,168.261503 123.429851,167.816629 C121.607463,166.333713 119.932836,164.653075 118.208955,163.120729 C117.716418,162.725285 117.174627,162.329841 116.583582,162.132118 C116.28806,162.033257 115.795522,162.379271 115.401493,162.478132 C115.549254,162.774715 115.598507,163.21959 115.844776,163.417312 C117.716418,165.048519 119.637313,166.580866 121.508955,168.261503 C121.952239,168.656948 122.198507,169.299544 122.49403,169.84328 C121.804478,169.79385 120.868657,170.041002 120.376119,169.694989 C118.553731,168.409795 116.879104,166.877449 115.155224,165.443964 C114.564179,164.949658 113.973134,164.307062 113.234328,164.059909 C112.791045,163.911617 112.101493,164.307062 111.559701,164.504784 C111.756716,164.999089 111.80597,165.740547 112.150746,166.03713 C114.120896,167.569476 116.238806,168.85467 118.159701,170.436446 C118.652239,170.831891 118.602985,171.820501 118.849254,172.561959 C118.159701,172.413667 117.371642,172.512528 116.879104,172.117084 C114.367164,170.189294 111.953731,168.063781 109.441791,166.135991 C108.998507,165.789977 108.259701,165.888838 107.619403,165.789977 C107.767164,166.333713 107.767164,167.124601 108.161194,167.470615 C109.983582,169.002961 111.904478,170.337585 113.776119,171.820501 C114.416418,172.364237 115.5,173.501139 115.401493,173.649431 C114.514925,174.885194 113.628358,174.341458 112.692537,173.501139 C110.870149,171.820501 108.9,170.288155 107.028358,168.706378 C106.634328,168.360364 106.338806,167.767198 105.895522,167.618907 C105.304478,167.470615 104.614925,167.618907 103.925373,167.668337 C104.270149,168.063781 104.565672,168.558087 105.008955,168.9041 C108.161194,171.375626 111.41194,173.797722 114.514925,176.318679 C115.007463,176.714123 115.10597,177.603872 115.401493,178.2959 C114.761194,178.444191 114.071642,178.592483 113.431343,178.740774 C112.840299,178.839636 112.2,178.889066 111.559701,178.987927 C111.214925,179.037358 110.870149,179.333941 110.574627,179.23508 C108.308955,178.592483 107.71791,179.086788 109.097015,181.212301 C109.29403,181.508884 109.047761,182.151481 108.801493,182.546925 C108.702985,182.695216 108.11194,182.546925 107.767164,182.546925 C106.880597,182.546925 105.797015,180.767426 105.20597,182.299772 C104.713433,183.733257 104.565672,185.809339 105.255224,187.045103 C106.634328,189.61549 107.323881,189.269476 110.131343,188.132574 C112.692537,187.094533 115.549254,186.699089 118.258209,186.007062 C122.297015,185.018451 126.335821,184.227563 130.325373,183.04123 C134.11791,181.953759 137.81194,180.520273 141.555224,179.185649 C143.279104,178.592483 143.968657,176.022096 143.279104,173.402278 C142.491045,170.387016 141.210448,167.717768 138.99403,165.443964 C137.910448,164.356492 138.156716,163.516173 139.634328,162.774715 C141.259701,161.983827 142.885075,161.044647 144.313433,159.907745 C147.71194,157.189066 150.568657,153.976082 152.341791,149.97221 C152.637313,149.329613 152.292537,148.341002 152.144776,147.550114 C151.997015,146.858087 151.553731,146.21549 151.504478,145.572893 C151.356716,144.040547 152.144776,143.299089 153.425373,144.38656 C157.070149,147.451253 160.764179,145.770615 164.507463,144.831435 C165.837313,144.485421 167.11791,143.892255 168.447761,143.496811 C170.220896,142.953075 171.107463,141.964465 170.910448,139.987244 C170.861194,139.394077 171.501493,138.70205 171.797015,138.059453 C172.240299,138.504328 172.634328,138.998633 173.077612,139.394077 C173.570149,139.888383 174.407463,140.778132 174.604478,140.679271 C175.392537,140.184966 176.377612,139.492938 176.623881,138.70205 C177.41194,136.082232 177.953731,133.363554 178.446269,130.644875 C178.692537,129.359681 180.71194,127.975626 179.234328,127.036446 C177.559701,125.998405 175.244776,125.553531 173.225373,125.553531 C170.762687,125.553531 168.349254,126.641002 165.886567,126.641002 C163.571642,126.641002 163.226866,124.268337 162.832836,122.538269 C162.537313,121.351936 162.980597,119.967882 163.226866,118.682688 C163.374627,118.040091 163.916418,117.446925 164.261194,116.853759 C164.802985,117.397494 165.541791,117.842369 165.886567,118.534396 C166.477612,119.770159 166.477612,121.69795 167.413433,122.291116 C168.3,122.834852 170.023881,121.796811 171.353731,121.796811 C173.619403,121.796811 175.885075,121.945103 178.150746,122.241686 C180.613433,122.538269 182.386567,121.500228 183.420896,117.94123 C185.834328,109.587472 188.297015,101.233713 190.070149,92.7316629 C190.562687,90.3095672 191.744776,87.5414579 190.316418,84.6744875 C188.641791,81.3626424 186.720896,78.5451025 183.125373,77.0127563 C179.529851,75.48041 176.279104,73.2066059 172.634328,71.9214123 C164.064179,68.9061503 155.641791,65.2482916 146.677612,63.3699317 C146.037313,63.2216401 145.397015,63.122779 144.756716,63.0733485 C143.032836,62.8756264 142.638806,63.8148064 143.131343,65.2482916 C144.313433,68.7578588 145.544776,72.2179954 146.776119,75.6781321 C146.923881,76.0735763 147.022388,76.518451 147.022388,76.9138952 C147.170149,80.3740319 148.155224,81.1649203 151.40597,80.0774487 C153.425373,79.3854214 155.001493,80.1268793 156.577612,81.0660592 C156.971642,81.2637813 157.119403,81.8569476 157.365672,82.3018223 C156.922388,82.4995444 156.479104,82.9444191 156.085075,82.9444191 C152.98209,82.9444191 149.977612,83.0927107 147.120896,84.723918 C146.135821,85.2676538 145.002985,84.4767654 144.80597,83.0927107 C144.658209,82.1041002 144.510448,81.1154897 144.362687,80.1268793 C143.08209,71.8225513 140.028358,64.061959 136.285075,56.5979499 C133.428358,50.8640091 128.798507,47.4038724 122.641791,45.9209567 C120.376119,45.377221 118.208955,44.2403189 115.89403,43.7460137 C112.446269,42.9551253 108.9,42.46082 105.402985,41.9170843 C103.038806,41.5710706 100.674627,40.9779043 98.3597015,41.0767654 C94.8134328,41.2744875 91.2671642,41.9665148 87.7208955,42.5102506 C85.1597015,42.9056948 82.4507463,42.9056948 80.2835821,44.5863326 C79.7910448,44.9817768 79.1014925,45.9703872 79.1507463,46.0198178 C79.7910448,46.6624146 80.5298507,47.2061503 81.2686567,47.7498861 C81.6134328,47.2555809 81.8597015,46.7118451 82.2537313,46.3164009 C83.041791,45.5255125 83.9283582,44.33918 84.8149254,44.2403189 C86.0955224,44.1414579 86.4895522,45.5255125 86.2432836,46.7118451 C85.5537313,50.0236902 84.8641791,53.3355353 83.9283582,56.5979499 C83.041791,59.8109339 82.0074627,63.023918 80.7268657,66.0886105 C79.2,69.7958998 77.3776119,73.4537585 75.6537313,77.0621868 C74.8656716,78.7428246 74.0283582,80.4728929 73.141791,82.1041002 C72.8462687,82.647836 72.3537313,83.2904328 71.8119403,83.5375854 C71.1223881,83.8835991 70.2850746,83.8835991 69.5462687,84.0318907 C69.4477612,83.2904328 68.9552239,82.3018223 69.2507463,81.8075171 C70.038806,80.3740319 69.3985075,79.3359909 68.5119403,78.5451025 C64.0298507,74.5412301 59.4985075,70.6362187 54.9671642,66.6817768 C54.7208955,66.4840547 54.5238806,66.2369021 54.3268657,66.03918 C51.1253731,62.9744875 47.8253731,59.909795 44.6731343,56.795672 C37.4328358,49.6776765 30.241791,41.9170843 22.2626866,35.0462415 C18.8641791,32.1298405 17.2880597,28.1753986 14.2343284,25.2589977 C12.3626866,23.4794989 10.6880597,21.5517084 9.01343284,19.5744875 C6.15671642,16.2132118 3.20149254,12.8519362 0.689552239,9.24350797 C0.0985074627,8.40318907 0.788059701,6.47539863 1.32985075,5.19020501 C1.92089552,3.75671982 3.39850746,4.05330296 4.62985075,4.3498861 C5.07313433,4.44874715 5.46716418,4.84419134 5.91044776,5.09134396 C9.9,7.31571754 14.4313433,8.0571754 18.6179104,9.73781321 C22.0656716,11.1218679 25.2671642,13.395672 28.5671642,15.3234624 C30.0940299,16.2132118 31.4731343,17.3995444 32.9507463,18.3387244 C39.5507463,22.4414579 46.2492537,26.5441913 52.8492537,30.6469248 C57.0358209,33.2667426 61.1731343,35.9854214 65.3104478,38.6052392 C65.6552239,38.8029613 66.0985075,38.8029613 66.541791,38.9018223 C66.4925373,38.5558087 66.3447761,38.1603645 66.3447761,37.8143508 C66.4925373,32.6735763 65.5074627,27.4833713 68.2656716,22.5897494 C69.3,20.76082 69.4970149,18.4375854 70.0880597,16.3615034 C71.4179104,11.6161731 74.6686567,8.50205011 78.8552239,6.47539863 C81.9089552,4.99248292 85.258209,4.05330296 88.558209,3.3118451 C91.119403,2.76810934 93.8283582,3.06469248 96.438806,2.76810934 C101.216418,2.22437358 105.944776,1.38405467 110.722388,0.939179954 C114.810448,0.593166287 118.947761,0.24715262 122.986567,0.642596811 C126.729851,0.988610478 130.374627,2.32323462 134.019403,3.26241458 C134.413433,3.36127563 134.807463,3.60842825 135.102985,3.90501139 C135.841791,4.64646925 136.580597,5.48678815 137.319403,6.27767654 C136.334328,6.62369021 135.349254,7.0191344 134.364179,7.31571754 C134.019403,7.41457859 133.526866,7.21685649 133.280597,7.36514806 C132.39403,7.8594533 131.60597,8.45261959 130.768657,8.99635535 C131.60597,9.04578588 132.443284,9.0952164 133.280597,9.14464692 C139.683582,9.44123007 146.086567,9.49066059 152.489552,10.1332574 C157.414925,10.6275626 162.241791,11.8633257 167.11791,12.7530752 C167.462687,12.8025057 167.856716,12.8519362 168.102985,13.0496583 C170.220896,14.433713 172.38806,15.7683371 174.456716,17.3006834 C175.885075,18.3881549 177.362687,19.5744875 176.032836,21.7494305 C175.885075,21.9965831 176.426866,22.9357631 176.820896,23.0840547 C181.056716,24.6658314 184.258209,27.7799544 187.361194,30.6963554 C191.153731,34.3047836 193.025373,39.1984055 194.158209,44.2897494 C194.995522,48.2441913 195.931343,52.1492027 196.620896,56.1036446 C196.965672,58.0314351 196.768657,60.008656 196.867164,61.985877 C197.014925,64.8528474 197.21194,67.7198178 197.310448,70.5867882 C197.408955,73.7009112 197.802985,76.9633257 197.21194,79.9785877 C196.079104,85.8113895 194.355224,91.5453303 192.828358,97.3287016 C191.350746,102.81549 189.380597,108.203417 188.49403,113.789066 C188.001493,116.903189 186.080597,119.374715 185.834328,122.439408 C185.785075,122.933713 185.341791,123.526879 184.898507,123.774032 C183.519403,124.614351 182.731343,125.405239 183.273134,127.33303 C183.61791,128.469932 182.879104,129.952847 182.485075,131.18861 C180.71194,137.070843 178.98806,143.002506 178.446269,149.131891 C178.2,151.109112 177.756716,152.938041 177.461194,155.014123 L177.461194,155.014123 Z M81.1701493,54.9667426 C82.0074627,53.3849658 80.7761194,52.742369 79.7910448,52.0503417 C76.7373134,49.8259681 73.6835821,47.552164 70.6791045,45.3277904 C70.3835821,45.1300683 70.0880597,44.9817768 69.7432836,44.8334852 C69.6447761,45.2289294 69.4477612,45.6738041 69.4970149,46.0692483 C69.7432836,48.6890661 70.2358209,51.2594533 70.3343284,53.8792711 C70.6298507,59.4649203 69.1522388,64.8034169 67.8716418,70.191344 C67.6746269,71.0810934 67.7238806,72.3168565 68.2164179,73.0088838 C69.1522388,74.343508 70.4328358,75.4309795 71.6641791,76.518451 C71.9104478,76.7656036 72.8462687,76.6667426 72.9940299,76.4690205 C73.5850746,75.6287016 73.880597,74.5906606 74.4223881,73.7009112 C77.5746269,67.8681093 79.8402985,61.7387244 81.1701493,54.9667426 L81.1701493,54.9667426 Z M66.541791,58.8223235 C66.6402985,55.4610478 66.9850746,52.0997722 66.6895522,48.7879271 C66.2462687,43.2022779 62.7985075,39.8410023 57.4791045,39.4949886 C57.1343284,39.4949886 56.3955224,40.2364465 56.4447761,40.4835991 C56.7895522,42.4113895 57.2820896,44.33918 57.7253731,46.2669704 C58.858209,51.3583144 57.7746269,56.4002278 57.1835821,61.4421412 C57.1343284,62.0353075 57.1343284,62.8756264 57.4791045,63.2710706 C59.5477612,65.4954442 61.7641791,67.6209567 63.9313433,69.7464692 C64.0298507,69.8453303 64.8671642,69.5487472 64.8671642,69.3510251 C65.4089552,65.8908884 65.8522388,62.4801822 66.541791,58.8223235 L66.541791,58.8223235 Z M44.7223881,43.2517084 C44.4268657,45.6243736 44.0328358,47.9476082 43.8850746,50.3202733 C43.8358209,50.8145786 44.4268657,51.5066059 44.8701493,51.9020501 C47.7268657,54.71959 50.6820896,57.4382688 53.5880597,60.2063781 C53.7850746,60.4041002 54.080597,60.5029613 54.3268657,60.6018223 C54.4253731,60.3052392 54.6716418,60.008656 54.6716418,59.7120729 C54.7208955,58.1797267 54.4253731,56.5979499 54.7208955,55.1150342 C55.8044776,50.1719818 54.7208955,45.5749431 53.4895522,40.7801822 C52.3567164,36.5291572 49.8940299,34.6013667 46.2,33.3656036 C44.2791045,32.7230068 43.5895522,33.3161731 43.8358209,35.2439636 C44.1313433,37.7649203 44.4268657,40.285877 44.7223881,43.2517084 L44.7223881,43.2517084 Z M184.701493,67.6209567 C186.474627,68.6095672 188.198507,69.6970387 189.971642,70.6362187 C190.61194,70.9328018 191.4,70.8833713 192.138806,71.0316629 C191.991045,70.1419134 192.18806,68.9061503 191.695522,68.5107062 C189.28209,66.5334852 186.868657,64.3585421 184.110448,63.023918 C179.923881,61.046697 175.491045,59.6132118 171.107463,58.0808656 C167.610448,56.894533 164.113433,55.757631 160.567164,54.818451 C156.577612,53.78041 152.489552,52.8412301 148.401493,52.1492027 C145.98806,51.704328 143.426866,51.7537585 140.964179,51.704328 C140.570149,51.704328 140.126866,52.4457859 139.732836,52.8412301 C140.126866,53.1872437 140.422388,53.78041 140.865672,53.8792711 C145.741791,54.9667426 150.716418,55.7082005 155.49403,57.1416856 C162.192537,59.1189066 168.792537,61.5410023 175.441791,63.8642369 C178.446269,64.9022779 181.450746,66.1874715 184.701493,67.6209567 L184.701493,67.6209567 Z M188.050746,74.6400911 C187.213433,73.9480638 186.376119,73.2560364 185.58806,72.5640091 C184.307463,71.4765376 183.223881,69.9441913 181.746269,69.3015945 C176.279104,66.8794989 170.81194,64.4574032 165.147761,62.6284738 C158.350746,60.4535308 151.40597,58.8223235 144.510448,57.0922551 C143.870149,56.9439636 143.08209,57.4876993 142.343284,57.7348519 C142.737313,58.4268793 142.983582,59.1683371 143.525373,59.7120729 C143.820896,60.008656 144.41194,60.0580866 144.855224,60.2063781 C148.204478,61.1949886 151.602985,62.0353075 154.902985,63.122779 C160.025373,64.8528474 165.049254,66.8794989 170.220896,68.4612756 C174.50597,69.7958998 178.643284,71.328246 182.386567,73.8986333 C184.652239,75.4309795 187.262687,76.5678815 189.774627,77.8036446 C190.119403,78.0013667 190.61194,77.9519362 191.055224,78.0013667 C191.00597,77.556492 191.104478,76.9138952 190.858209,76.6173121 C190.119403,75.8264237 189.28209,75.2826879 188.050746,74.6400911 L188.050746,74.6400911 Z M170.959701,51.1605923 C168.398507,50.8640091 165.738806,50.8640091 163.276119,50.1719818 C154.607463,47.7498861 145.840299,46.9589977 136.925373,47.1567198 C136.48209,47.1567198 136.08806,47.552164 135.644776,47.7993166 C136.08806,48.1947608 136.48209,48.8867882 136.925373,48.8867882 C139.535821,49.1339408 142.195522,49.1833713 144.80597,49.3810934 C147.219403,49.5788155 149.68209,49.8753986 152.046269,50.2708428 C154.656716,50.7651481 157.267164,51.4077449 159.828358,52.0503417 C164.704478,53.2366743 169.728358,54.1264237 174.50597,55.757631 C179.185075,57.3394077 183.61791,59.8109339 188.247761,61.6398633 C189.232836,62.0353075 190.661194,61.4421412 191.892537,61.3432802 C191.104478,60.5523918 190.464179,59.4649203 189.528358,59.0200456 C183.519403,56.3013667 177.461194,53.7309795 170.959701,51.1605923 L170.959701,51.1605923 Z M109.29403,197.474943 C109.68806,196.28861 109.983582,195.052847 110.426866,193.915945 C110.771642,193.075626 110.820896,192.581321 109.786567,192.531891 C107.964179,192.383599 106.191045,192.185877 104.368657,192.136446 C103.974627,192.136446 103.383582,192.531891 103.235821,192.927335 C101.413433,196.881777 99.4925373,200.836219 97.8179104,204.840091 C96.3402985,208.448519 96.4880597,208.695672 99.9358209,209.189977 C101.265672,209.387699 103.432836,208.942825 104.023881,208.003645 C105.99403,204.74123 107.422388,201.132802 109.29403,197.474943 L109.29403,197.474943 Z M33,40.0881549 C35.1671642,42.1148064 37.2850746,44.1908884 39.5014925,46.1681093 C39.8955224,46.5635535 40.5358209,46.6624146 41.0776119,46.9095672 C41.2253731,46.3164009 41.619403,45.6738041 41.5701493,45.0806378 C41.1761194,40.7801822 40.6343284,36.4302961 40.2895522,32.1298405 C39.9940299,29.0651481 38.2208955,27.2856492 35.7089552,26.0004556 C34.6253731,25.4567198 34.0835821,26.0004556 33.9850746,27.1373576 C33.5910448,31.2895216 33.2955224,35.4911162 33,40.0881549 L33,40.0881549 Z M24.2328358,18.1904328 C23.641791,17.7455581 23.1492537,17.2512528 22.5089552,16.9546697 C22.1149254,16.7569476 21.4746269,16.7569476 21.0313433,16.9546697 C20.8343284,17.0535308 20.8343284,17.7455581 20.8835821,18.1904328 C21.3268657,21.601139 21.7208955,25.0118451 22.2626866,28.4225513 C22.4104478,29.2628702 22.8537313,30.1526196 23.4447761,30.7952164 C25.2179104,32.7724374 27.138806,34.6507973 29.0104478,36.5785877 C29.3059701,36.8751708 29.6014925,37.171754 29.8477612,37.4189066 C29.9955224,37.0234624 30.2910448,36.6774487 30.3402985,36.2820046 C30.3895522,34.8485194 30.4880597,33.3656036 30.3402985,31.9321185 C29.9955224,28.6697039 31.3746269,25.1601367 29.3552239,22.2437358 C28.1731343,20.5630979 26.2522388,19.5250569 24.2328358,18.1904328 L24.2328358,18.1904328 Z M155.444776,157.979954 C157.267164,156.348747 158.104478,154.371526 156.725373,152.097722 C155.986567,150.91139 156.577612,150.515945 157.464179,150.565376 C158.892537,150.614806 160.320896,150.861959 161.7,151.158542 C163.670149,151.652847 170.270149,149.675626 171.501493,148.14328 C171.747761,147.797267 172.043284,147.401822 172.092537,147.055809 C172.092537,146.512073 171.895522,145.968337 171.797015,145.375171 C171.353731,145.474032 170.81194,145.474032 170.41791,145.671754 C167.068657,147.352392 163.768657,148.983599 159.729851,148.736446 C157.759701,148.637585 155.937313,149.675626 154.853731,152.048292 C152.785075,156.546469 149.780597,160.35262 145.544776,163.071298 C145.2,163.318451 145.002985,163.812756 144.707463,164.2082 C145.249254,164.603645 145.741791,165.196811 146.283582,165.246241 C146.923881,165.295672 147.761194,165.048519 148.253731,164.653075 C150.61791,162.675854 153.031343,160.550342 155.444776,157.979954 L155.444776,157.979954 Z M15.6626866,20.8596811 C16.3029851,21.9471526 16.8940299,23.0346241 17.5835821,24.1220957 C17.8791045,24.5669704 18.2238806,24.9624146 18.5686567,25.4072893 C18.7164179,24.9129841 19.1104478,24.3692483 19.0119403,23.9738041 C18.3223881,21.4034169 17.8298507,18.7835991 16.6970149,16.4109339 C16.0567164,15.0268793 14.4313433,14.0382688 13.1507463,13.0496583 C12.7567164,12.7530752 11.9686567,13.0496583 11.3776119,13.0496583 C11.4761194,13.5933941 11.4268657,14.1865604 11.6731343,14.5820046 C12.9044776,16.608656 14.1850746,18.6353075 15.6626866,20.8596811 L15.6626866,20.8596811 Z M161.059701,159.561731 C160.813433,158.671982 160.665672,157.732802 160.370149,156.892483 C159.877612,155.360137 159.089552,156.299317 158.843284,156.892483 C157.365672,160.35262 155.395522,163.367882 152.341791,165.691116 C151.997015,165.938269 151.947761,166.679727 151.997015,167.174032 C152.046269,167.421185 152.883582,167.816629 153.031343,167.668337 C155.001493,166.333713 158.104478,166.482005 158.646269,163.120729 C158.843284,161.884966 160.074627,160.896355 161.059701,159.561731 L161.059701,159.561731 Z M164.21194,155.953303 C166.280597,156.101595 168.3,156.299317 170.368657,156.398178 C172.831343,156.497039 172.338806,154.272665 172.929851,152.938041 C173.126866,152.493166 172.634328,151.751708 172.486567,151.158542 C171.501493,151.553986 170.565672,152.048292 169.580597,152.394305 C167.659701,153.036902 165.738806,153.580638 163.81791,154.173804 C163.276119,154.322096 162.734328,154.519818 162.192537,154.71754 C162.685075,155.063554 163.226866,155.508428 164.21194,155.953303 L164.21194,155.953303 Z M164.21194,166.778588 C166.379104,165.246241 164.802985,163.417312 164.556716,161.687244 C164.507463,161.390661 164.21194,161.143508 164.064179,160.896355 C163.768657,161.094077 163.276119,161.242369 163.226866,161.489522 C162.389552,164.603645 160.173134,166.630296 157.661194,168.409795 C157.365672,168.656948 157.168657,169.052392 156.922388,169.348975 C157.365672,169.546697 157.808955,169.892711 158.252239,169.892711 C160.51791,169.744419 162.438806,168.656948 164.21194,166.778588 L164.21194,166.778588 Z M147.31791,169.694989 C146.677612,169.151253 145.98806,168.656948 145.347761,168.113212 C145.397015,168.805239 145.446269,169.546697 145.544776,170.238724 C145.840299,172.265376 146.135821,174.341458 146.431343,176.368109 C146.529851,176.911845 146.776119,177.40615 146.973134,177.949886 C147.367164,177.455581 147.958209,177.010706 148.204478,176.41754 C149.189552,174.193166 148.450746,172.018223 147.31791,169.694989 L147.31791,169.694989 Z M109.983582,175.132346 C108.555224,173.995444 107.176119,172.907973 105.747761,171.820501 C105.452239,171.622779 105.058209,171.573349 104.664179,171.474487 C104.762687,171.919362 104.713433,172.61139 105.008955,172.809112 C106.486567,174.044875 108.062687,175.181777 109.638806,176.269248 C110.032836,176.565831 110.673134,176.516401 111.214925,176.664692 C110.870149,176.219818 110.525373,175.774943 109.983582,175.132346 L109.983582,175.132346 Z M169.580597,161.786105 C170.614925,161.390661 171.649254,160.995216 172.585075,160.500911 C172.831343,160.35262 172.831343,159.759453 172.929851,159.364009 C172.535821,159.265148 172.092537,159.017995 171.747761,159.116856 C170.910448,159.314579 170.073134,159.710023 169.235821,160.006606 C168.743284,160.204328 168.201493,160.35262 167.659701,160.550342 C168.201493,160.945786 168.69403,161.390661 169.580597,161.786105 L169.580597,161.786105 Z M150.470149,171.079043 C150.61791,172.067654 150.716418,173.056264 150.962687,174.044875 C151.061194,174.489749 151.356716,174.934624 151.602985,175.330068 C151.997015,175.082916 152.735821,174.885194 152.785075,174.58861 C152.932836,173.748292 153.031343,172.759681 152.686567,172.067654 C152.341791,171.474487 151.356716,171.227335 150.470149,171.079043 L150.470149,171.079043 Z M126.631343,162.033257 C125.646269,160.896355 124.61194,159.759453 123.626866,158.622551 C123.479104,158.919134 123.134328,159.364009 123.232836,159.41344 C124.21791,160.40205 125.301493,161.34123 126.631343,162.033257 L126.631343,162.033257 Z M173.865672,145.32574 C174.210448,146.017768 174.555224,146.660364 174.9,147.352392 C175.146269,146.660364 175.540299,146.017768 175.638806,145.32574 C175.737313,144.831435 175.441791,144.287699 175.343284,143.743964 C174.850746,144.089977 174.358209,144.485421 173.865672,145.32574 Z" id="Shape"></path>
                    <path d="M105.6,79.9291572 C100.723881,79.5831435 96.6358209,77.2599089 92.5477612,75.2826879 C90.2328358,74.1457859 87.8686567,72.4157175 86.341791,70.3396355 C85.1597015,68.7084282 84.2731343,66.3851936 84.7164179,63.9630979 C84.9626866,62.5790433 84.6179104,61.0961276 84.8149254,59.7120729 C84.9134328,58.970615 85.5537313,58.2785877 85.9477612,57.5371298 C86.2925373,58.2785877 86.9328358,59.0200456 86.9820896,59.8109339 C87.0313433,60.9972665 86.6865672,62.2330296 86.5880597,63.4687927 C86.538806,64.4574032 86.1940299,65.6437358 87.9179104,65.6931663 C89.2477612,65.7425968 89.8880597,65.2482916 89.6910448,63.9136674 C89.5432836,62.7767654 89.2477612,61.6398633 89.2970149,60.5029613 C89.3462687,59.6626424 89.641791,58.2785877 90.0850746,58.1302961 C91.4641791,57.7348519 91.3656716,58.9211845 91.5134328,59.909795 C91.7104478,61.4421412 92.0059701,63.023918 92.4492537,64.5068337 C92.5970149,65.001139 93.3850746,65.6437358 93.8776119,65.5943052 C94.3208955,65.5448747 94.9119403,64.8034169 95.0597015,64.2596811 C95.5029851,62.6779043 95.6507463,61.046697 96.0447761,59.4649203 C96.1432836,59.0694761 96.7835821,58.7728929 97.1776119,58.4763098 C97.5223881,58.9211845 98.1626866,59.3660592 98.1626866,59.8603645 C98.1626866,61.1455581 97.7686567,62.4307517 97.8179104,63.7159453 C97.8671642,64.4079727 98.5074627,65.0505695 98.9014925,65.6931663 C99.5910448,65.1494305 100.428358,64.7539863 100.871642,64.1113895 C101.265672,63.5182232 101.068657,62.5296128 101.413433,61.8870159 C101.807463,61.2444191 102.595522,60.3546697 103.137313,60.4041002 C104.270149,60.4041002 104.073134,61.2444191 103.629851,62.1341686 C103.235821,62.9250569 103.038806,63.9136674 103.038806,64.8034169 C102.989552,65.3965831 103.235821,66.3357631 103.629851,66.5829157 C104.073134,66.8300683 105.20597,66.6323462 105.452239,66.2369021 C106.141791,65.2482916 106.486567,63.9630979 107.126866,62.9250569 C107.471642,62.3813212 108.210448,62.1341686 108.801493,61.7387244 C108.9,62.3813212 109.195522,63.023918 109.047761,63.5676538 C108.850746,64.5068337 108.358209,65.3965831 108.062687,66.3357631 C107.816418,67.2255125 107.126866,68.115262 108.801493,68.6095672 C110.032836,69.0050114 110.820896,69.2027335 111.313433,67.7198178 C111.658209,66.7312073 112.002985,65.6931663 112.643284,64.9022779 C113.135821,64.3091116 114.219403,63.5182232 114.71194,63.7159453 C115.89403,64.16082 115.943284,64.9517084 114.908955,66.03918 C113.923881,67.077221 113.332836,68.5107062 112.643284,69.7958998 C112.446269,70.191344 112.544776,70.7845103 112.495522,71.2788155 C112.98806,71.2788155 113.677612,71.5259681 114.022388,71.2788155 C115.007463,70.4879271 115.844776,69.5487472 116.731343,68.6589977 C117.125373,68.2635535 117.420896,67.7692483 117.864179,67.5715262 C118.40597,67.3243736 119.046269,67.2749431 119.686567,67.176082 C119.637313,67.7692483 119.785075,68.5107062 119.489552,69.0050114 C118.849254,70.0430524 118.01194,71.0316629 117.125373,71.8225513 C116.435821,72.4157175 115.007463,72.8605923 116.091045,73.7503417 C116.879104,74.3929385 118.258209,75.7275626 119.686567,74.2940774 C120.376119,73.6020501 121.016418,72.8605923 121.755224,72.267426 C122.149254,71.9708428 122.740299,71.8719818 123.28209,71.7236902 C123.28209,72.267426 123.528358,73.0088838 123.28209,73.3548975 C122.247761,74.6895216 121.065672,75.8758542 119.932836,77.0621868 C119.538806,77.457631 118.8,77.7047836 118.602985,78.1496583 C117.519403,80.670615 115.204478,80.571754 113.135821,80.6211845 C110.673134,80.5223235 108.161194,80.2257403 105.6,79.9291572 L105.6,79.9291572 Z M115.352239,76.6667426 C114.958209,76.2712984 114.662687,75.8264237 114.219403,75.5792711 C113.135821,74.9366743 111.953731,73.7503417 110.968657,73.8986333 C110.180597,74.0469248 109.589552,75.7275626 108.949254,76.7656036 C108.752239,77.0621868 108.50597,77.4082005 108.308955,77.7047836 C108.752239,77.9025057 109.244776,78.1990888 109.68806,78.1990888 C111.510448,78.1002278 113.332836,77.9519362 115.10597,77.7542141 C115.302985,77.7542141 115.450746,77.2104784 115.352239,76.6667426 L115.352239,76.6667426 Z M89.7402985,69.8947608 C91.0208955,70.7350797 92.3014925,71.6248292 93.6313433,72.366287 C93.9761194,72.5640091 94.9119403,72.366287 94.961194,72.267426 C95.2074627,70.9328018 95.6507463,69.4498861 94.2223881,68.5107062 C93.138806,67.8186788 89.7895522,68.4118451 89.3462687,69.3510251 C89.2477612,69.4004556 89.3955224,69.5487472 89.7402985,69.8947608 L89.7402985,69.8947608 Z M98.7044776,70.7845103 C98.8522388,71.229385 98.9014925,71.8719818 99.1970149,72.1191344 C100.132836,72.9100228 104.073134,72.0697039 104.713433,70.9822323 C104.861194,70.7350797 104.664179,69.9936219 104.41791,69.7958998 C103.038806,68.7578588 100.034328,69.0544419 98.7044776,70.7845103 Z" id="Shape"></path>
                    <path d="M118.208955,91.0015945 C120.129851,90.7544419 119.637313,92.0396355 119.144776,92.6822323 C117.371642,94.8571754 115.697015,97.3287016 113.431343,98.8610478 C112.052239,99.8002278 109.68806,99.5036446 107.816418,99.4047836 C104.861194,99.256492 101.90597,98.6633257 98.9507463,98.6138952 C96.3402985,98.5644647 94.1731343,97.8230068 92.0059701,96.2412301 C90.2328358,94.9066059 88.0656716,94.2145786 86.0955224,93.1271071 C84.5686567,92.2867882 83.041791,91.3476082 81.6626866,90.2601367 C80.2835821,89.1726651 79.2985075,87.8874715 79.2492537,85.86082 C79.2,84.0813212 78.3134328,82.3512528 77.8701493,80.6211845 C77.7223881,80.1268793 77.4268657,79.533713 77.6238806,79.1876993 C77.8701493,78.6439636 78.461194,77.9519362 78.9044776,77.9519362 C79.3477612,77.9519362 80.0865672,78.6439636 80.2343284,79.1382688 C80.6776119,80.4728929 80.7268657,81.9558087 81.2686567,83.2410023 C81.4656716,83.7353075 82.5,83.8835991 83.1402985,84.1801822 C83.3865672,83.5375854 83.9283582,82.8455581 83.8298507,82.3018223 C83.6820896,81.3626424 82.8940299,80.5223235 82.7955224,79.632574 C82.7462687,78.9405467 83.3373134,78.1990888 83.6328358,77.457631 C84.0268657,77.8530752 84.5686567,78.1990888 84.7656716,78.6933941 C85.3074627,80.1268793 85.6029851,81.6592255 86.1940299,83.0927107 C86.3910448,83.5375854 87.0313433,84.1307517 87.4746269,84.1307517 C88.0656716,84.1307517 89.0507463,83.8341686 89.2477612,83.3398633 C89.641791,82.4501139 89.4940299,81.3132118 89.838806,80.4234624 C90.0850746,79.7808656 90.7746269,79.3359909 91.3164179,78.7922551 C91.5626866,79.3359909 91.9567164,79.8797267 92.0059701,80.4728929 C92.1044776,81.2637813 91.8089552,82.0546697 91.858209,82.8455581 C91.858209,83.3892938 92.0552239,83.9824601 92.2029851,84.5261959 C92.8432836,84.3779043 93.8776119,84.4767654 94.1238806,84.0318907 C94.7149254,83.0927107 94.8134328,81.9063781 95.2567164,80.9177677 C95.4537313,80.4234624 95.9955224,80.0774487 96.3895522,79.632574 C96.7343284,80.0774487 97.2761194,80.4728929 97.4238806,80.9671982 C97.6208955,81.5109339 97.6701493,82.3018223 97.4238806,82.746697 C96.2910448,84.6250569 97.6208955,85.2676538 98.8522388,85.2182232 C99.5910448,85.1687927 100.329851,83.9330296 101.019403,83.1915718 C101.167164,82.9938497 101.068657,82.4995444 101.216418,82.4006834 C101.807463,82.0052392 102.447761,81.7580866 103.038806,81.4120729 C103.137313,82.0052392 103.235821,82.5984055 103.235821,83.1915718 C103.235821,83.5375854 103.137313,83.8835991 102.940299,84.1801822 C101.758209,85.9596811 101.758209,87.0471526 104.220896,87.7886105 C105.797015,88.2829157 106.585075,88.1346241 107.323881,86.701139 C107.767164,85.86082 108.308955,85.1193622 108.998507,84.4767654 C109.29403,84.2296128 109.983582,84.3779043 110.476119,84.3284738 C110.476119,84.723918 110.574627,85.2182232 110.426866,85.5642369 C109.885075,86.701139 109.146269,87.73918 108.653731,88.876082 C108.456716,89.3703872 108.604478,90.0129841 108.604478,90.5567198 C109.343284,90.4578588 110.180597,90.6555809 110.722388,90.2601367 C111.264179,89.8646925 111.362687,88.8266515 111.904478,88.3323462 C112.397015,87.8874715 113.185075,87.8874715 113.874627,87.6897494 C113.923881,88.2334852 114.120896,88.876082 113.923881,89.3703872 C113.726866,89.9635535 113.135821,90.4084282 112.889552,90.952164 C112.544776,91.6441913 112.347761,92.3856492 112.052239,93.1271071 C113.283582,93.2259681 114.31791,94.9560364 115.746269,93.4731207 C116.485075,92.6822323 117.273134,91.891344 118.208955,91.0015945 L118.208955,91.0015945 Z M105.008955,95.6480638 C106.929851,96.043508 108.850746,96.4389522 110.820896,96.7355353 C111.116418,96.7849658 111.461194,96.5378132 111.756716,96.4389522 C111.559701,96.142369 111.461194,95.7469248 111.214925,95.5492027 C109.737313,94.4617312 108.259701,93.3742597 106.683582,92.3856492 C106.486567,92.2373576 105.747761,92.4845103 105.649254,92.7316629 C105.353731,93.5225513 105.20597,94.3628702 105.008955,95.6480638 L105.008955,95.6480638 Z M98.0641791,88.1840547 C96.9313433,88.2334852 95.8477612,88.2829157 94.7149254,88.3817768 C95.158209,89.4692483 95.3059701,91.0015945 96.0940299,91.4464692 C96.8328358,91.891344 98.5074627,91.4958998 99.2955224,90.853303 C100.379104,89.914123 99.2955224,88.9255125 98.0641791,88.1840547 L98.0641791,88.1840547 Z M86.0955224,87.0471526 C85.3567164,87.2943052 84.6671642,87.5908884 83.9283582,87.838041 C84.4208955,88.2334852 84.9134328,88.6783599 85.4552239,89.0738041 C86.1940299,89.6669704 86.8835821,90.3095672 87.6716418,90.8038724 C88.0656716,91.0510251 88.6567164,91.0510251 89.1985075,91.1993166 C89.3955224,90.1612756 89.7895522,89.0738041 89.641791,88.0851936 C89.5925373,87.6897494 88.2626866,87.4920273 87.4746269,87.2943052 C87.1298507,87.1954442 86.7358209,87.2943052 86.0955224,87.0471526 Z" id="Shape"></path>
                    <path d="M126.976119,125.998405 C126.18806,125.998405 125.498507,125.899544 124.858209,125.751253 C125.153731,124.910934 125.202985,123.724601 125.79403,123.230296 C127.862687,121.500228 130.473134,120.313895 132.246269,118.336674 C134.659701,115.667426 136.679104,112.553303 135.3,108.450569 C135.004478,107.56082 135.546269,106.325057 135.940299,105.385877 C136.038806,105.188155 137.516418,105.237585 137.910448,105.63303 C138.550746,106.275626 139.043284,107.264237 139.191045,108.203417 C139.634328,110.674943 139.929851,113.1959 140.126866,115.716856 C140.274627,117.348064 139.732836,118.484966 138.107463,119.374715 C134.364179,121.450797 130.719403,123.724601 126.976119,125.998405 Z" id="Path"></path>
                    <path d="M165.78806,85.0205011 C167.90597,84.7733485 169.876119,85.2676538 170.516418,86.9977221 C171.107463,88.6289294 170.81194,90.6061503 170.664179,92.3856492 C170.614925,92.8305239 169.629851,93.1765376 169.08806,93.5225513 C168.989552,92.8799544 168.891045,92.2867882 168.841791,91.6441913 C168.841791,91.0015945 169.08806,90.2601367 168.891045,89.6669704 C168.595522,88.9255125 168.004478,87.838041 167.51194,87.838041 C166.625373,87.838041 165.049254,88.4312073 165,88.9255125 C164.655224,92.4845103 164.556716,96.043508 164.458209,99.6519362 C164.458209,99.8990888 165.295522,100.393394 165.39403,100.343964 C165.886567,99.9485194 166.576119,99.4542141 166.576119,98.9104784 C166.625373,98.218451 166.034328,97.4769932 165.985075,96.7355353 C165.935821,95.8952164 166.231343,95.005467 166.329851,94.1157175 C167.019403,94.5605923 167.807463,94.9560364 168.3,95.5492027 C168.792537,96.1917995 169.137313,97.0321185 169.285075,97.8230068 C169.580597,99.5036446 169.235821,101.134852 167.364179,101.678588 C165.541791,102.222323 164.162687,103.062642 163.473134,104.891572 C163.325373,105.336446 162.48806,105.484738 161.946269,105.731891 C161.7,105.237585 161.207463,104.594989 161.30597,104.199544 C162.48806,100.492255 161.256716,96.7355353 161.749254,93.028246 C162.044776,90.952164 162.537313,88.876082 163.276119,86.898861 C163.571642,86.1574032 164.753731,85.6630979 165.78806,85.0205011 Z" id="Path"></path>
                </g>
            </g>
        </g>
    </g>
</svg>