<?xml version="1.0" encoding="UTF-8"?>
<svg width="103px" height="44px" viewBox="0 0 103 44" version="1.1" xmlns="http://www.w3.org/2000/svg" xmlns:xlink="http://www.w3.org/1999/xlink">
    <!-- Generator: Sketch 53 (72520) - https://sketchapp.com -->
    <title>Group 24</title>
    <desc>Created with Sketch.</desc>
    <defs>
        <polygon id="path-1" points="7.35714273e-05 0.0384175113 36.3840879 0.0384175113 36.3840879 34.7704407 7.35714273e-05 34.7704407"></polygon>
    </defs>
    <g id="Welcome" stroke="none" stroke-width="1" fill="none" fill-rule="evenodd">
        <g id="TEMPORARY-TATTOOS" transform="translate(-239.000000, -40.000000)">
            <g id="Group-24" transform="translate(239.000000, 40.000000)">
                <g id="Group-3" transform="translate(0.000000, 8.827993)">
                    <mask id="mask-2" fill="white">
                        <use xlink:href="#path-1"></use>
                    </mask>
                    <g id="Clip-2"></g>
                    <path d="M33.395126,9.59099451 C33.9520617,7.88674972 34.4903593,6.16302362 35.010264,4.41981621 C35.2822331,3.82896532 35.5671998,3.2642539 35.8639379,2.72494217 C36.1609212,2.18637024 36.333814,1.52819786 36.3840879,0.750178423 C36.2847664,0.632057564 36.185445,0.519855078 36.0868593,0.412831168 C35.9875379,0.306300456 35.8884617,0.193604773 35.789876,0.0752373153 C35.442864,0.0239447503 35.047295,0.0261641401 34.6016974,0.0823886825 C34.156345,0.139106423 33.7230093,0.182014626 33.302426,0.211113293 C33.2523974,0.333426332 33.1660736,0.422448524 33.0424736,0.478179869 C32.9183831,0.533911214 32.807045,0.604685089 32.7084593,0.690008298 C32.3864617,0.974090197 32.0894783,1.31513643 31.817264,1.71413341 C31.5445593,2.11337698 31.2725902,2.50719537 31.000376,2.8946022 C30.2080117,4.05435668 29.4227593,5.2298935 28.6429021,6.42071944 C27.8632902,7.61203858 27.1393474,8.7648883 26.4710736,9.87951519 C26.4460593,8.84281354 26.4953521,7.81498945 26.6194426,6.79628952 C26.7430426,5.77808278 26.7803188,4.79785228 26.7307807,3.85584459 C26.5081045,3.57817426 26.2113664,3.43835271 25.8398307,3.43637991 C25.4687855,3.43440712 25.0722355,3.49876943 24.6518974,3.63020663 C24.2305783,3.76164382 23.803864,3.91626132 23.3710188,4.0947989 C22.9376831,4.27333648 22.5229855,4.40945906 22.1271712,4.50242683 C21.8301879,4.75839646 21.6197736,5.05086272 21.4961736,5.37809942 C21.3718379,5.70582932 21.2362212,6.04145038 21.0876069,6.3849626 C20.9142236,6.75535411 20.6979236,7.10478471 20.4379712,7.4339942 C20.1780188,7.76295709 19.9369498,8.08378222 19.7140283,8.3944968 C19.565414,8.80557711 19.4042926,9.20260129 19.2313998,9.58408974 C19.0580164,9.9658248 18.8787474,10.3482996 18.6931021,10.7320075 C18.5074569,11.1162085 18.3276974,11.5105201 18.1545593,11.9146957 C17.981176,12.3191178 17.8450688,12.7341437 17.7464831,13.1582938 C17.4492545,13.5057516 17.213826,13.8820615 17.0409331,14.2859904 C16.8673045,14.6901659 16.6696426,15.1046986 16.4469664,15.5290953 C16.2743188,15.8543592 16.1070664,16.1670466 15.9456998,16.4671574 C15.7848236,16.7675148 15.643076,17.0646665 15.5187402,17.3581191 C14.6528045,19.2552042 13.6625331,21.0612944 12.5486617,22.7756497 C11.4347902,24.490005 10.321164,26.1930168 9.20729262,27.8851783 C9.13298548,28.1243792 9.04666167,28.3778828 8.94734024,28.6444562 C8.8730331,28.7026535 8.81760929,28.7354512 8.7803331,28.7421094 C8.74330214,28.7487675 8.68738786,28.7805788 8.61308071,28.8395159 C8.4404331,29.119159 8.24816643,29.3568803 8.03775214,29.5529264 C7.82782833,29.7484793 7.6358069,29.9975442 7.46242357,30.300121 C6.94251881,30.6414139 6.42923548,30.9868989 5.92159262,31.3378091 C5.41444024,31.6877329 4.75205214,31.9239746 3.93540929,32.0467808 C3.93540929,32.0238471 3.8981331,32.0191617 3.82382595,32.0322315 C3.62616405,31.9540596 3.41550452,31.8615851 3.19282833,31.7543146 C2.97015214,31.6463043 2.72295214,31.6731835 2.45024738,31.8349524 C2.27735452,31.797716 2.14124738,31.7254625 2.04192595,31.6191784 C1.94334024,31.5119079 1.79472595,31.4534639 1.59632833,31.4436 C1.52202119,31.5244844 1.51000452,31.5999437 1.55929738,31.6707175 C1.60908071,31.7407516 1.59632833,31.8051139 1.52202119,31.8640511 C1.27482119,31.8169507 1.052145,31.7377924 0.853992619,31.6260831 C0.656085476,31.5138807 0.420902143,31.493413 0.148442619,31.56468 C0.148442619,31.7003094 0.0991497619,31.7767551 7.35714273e-05,31.7945102 C0.148442619,32.2203864 0.340464048,32.5969429 0.575402143,32.9254126 C0.810830714,33.2531425 1.0644069,33.5715016 1.33637595,33.8812298 C1.757695,34.1635855 2.22168548,34.4000738 2.72859262,34.5894618 C3.23623548,34.7781099 3.8981331,34.800797 4.71502119,34.6560435 C4.78932833,34.62004 4.81434262,34.6385349 4.78932833,34.7105418 C4.76480452,34.7827953 4.78932833,34.7897 4.86339024,34.7315027 C4.91341881,34.6999381 4.91905929,34.6705928 4.88202833,34.6434669 C4.84499738,34.6158478 4.87614262,34.6045043 4.97497357,34.6099295 C5.76733786,34.4696147 6.45424976,34.2567999 7.03546405,33.9732112 C7.61716881,33.6886361 8.13707357,33.3537548 8.59468786,32.9673344 C9.05303786,32.580914 9.47362119,32.1671211 9.85717357,31.7259557 C10.2409712,31.2847903 10.6308998,30.8478171 11.026714,30.4160225 C11.6702188,29.5329519 12.2887093,28.6429766 12.8829212,27.7463431 C13.4766426,26.8492164 14.0836069,25.9503636 14.7020974,25.0492913 C15.2717855,23.7948428 15.8964069,22.5815764 16.5769426,21.409492 C17.2572331,20.2371609 17.919376,19.04017 18.5633712,17.8177794 C19.2066307,16.5961286 19.8189902,15.3680662 20.4009402,14.1335923 C20.9821545,12.9001048 21.6317902,11.6883179 22.3500926,10.4977386 C22.4984617,11.3312427 22.6036688,12.1716517 22.665714,13.0199518 C22.7272688,13.8687451 22.7213831,14.7629126 22.647076,15.7029475 C22.5972926,16.164334 22.5541307,16.6580249 22.517345,17.1845135 C22.4800688,17.7117419 22.4734474,18.2325587 22.4984617,18.7484436 C22.3993855,19.0828316 22.3128164,19.4825684 22.2387545,19.9476539 C22.1644474,20.4137257 22.176464,20.7727737 22.2757855,21.0265239 C22.3250783,21.017893 22.4116474,20.9804099 22.5357379,20.9125952 C22.6590926,20.8457669 22.7456617,20.7737601 22.7956902,20.6970678 C22.9685831,20.8699336 23.1233283,20.8990323 23.2596807,20.7843638 C23.3952974,20.6701885 23.5196331,20.5177904 23.6309712,20.3284025 C23.7423093,20.1390146 23.8720402,19.9802049 24.0206545,19.8522201 C24.1692688,19.7242353 24.354914,19.7308935 24.5775902,19.8721946 C25.0474664,18.9748213 25.4994402,18.0636385 25.932776,17.1386461 C26.3656212,16.2139004 26.8109736,15.292607 27.2693236,14.3745194 C27.7269379,13.456925 28.1973045,12.5595517 28.6801783,11.6819063 C29.1628069,10.8052473 29.6883521,9.9658248 30.2580402,9.16363867 C29.4906902,12.0811499 28.7108331,14.9730149 27.9189593,17.8380005 C27.126595,20.7039726 26.3467379,23.5950977 25.5801236,26.5128556 C25.4557879,26.5569968 25.3758402,26.6507043 25.338564,26.7929919 C25.3015331,26.9352794 25.3324331,27.0198629 25.4315093,27.0479751 C25.6787093,26.9584597 25.8827474,26.7865803 26.044114,26.5323369 C26.204745,26.2773537 26.4090283,26.0716902 26.6567188,25.9148533 C26.7060117,25.815474 26.7553045,25.7160946 26.8050879,25.6169619 C26.854626,25.5175825 26.9289331,25.4366981 27.0280093,25.374062 C27.0032402,25.4685094 27.0093712,25.5242407 27.0466474,25.5402696 C27.0836783,25.556052 27.126595,25.5599975 27.1763783,25.55112 C27.2259164,25.542489 27.2815855,25.5326251 27.3436307,25.5215281 C27.4049402,25.5106778 27.4483474,25.5141302 27.4736069,25.5326251 C27.5228998,25.6140027 27.5349164,25.7022851 27.5106379,25.7972257 C27.4856236,25.8919196 27.5228998,25.9419792 27.621976,25.9471578 C27.745576,25.9703381 27.8505379,25.9234843 27.9375974,25.8063498 C28.0241664,25.6892153 28.1046045,25.5903292 28.1786664,25.5091982 C28.2532188,25.4280671 28.3395426,25.3449633 28.438864,25.2596401 C28.5372045,25.1743169 28.6117569,25.0815957 28.6615402,24.9827096 C28.8344331,24.7028199 28.9644093,24.3802685 29.0514688,24.0145624 C29.1377926,23.6483631 29.2427545,23.3075635 29.366845,22.9919169 C29.366845,22.9462961 29.3913688,22.9196634 29.4411521,22.9110325 C29.4906902,22.9021549 29.5154593,22.875029 29.5154593,22.8299015 C29.5897664,22.5228859 29.6760902,22.2247478 29.7754117,21.9357339 C29.8739974,21.6469667 29.9360426,21.3305803 29.9610569,20.9868215 C30.1587188,20.5446697 30.3323474,20.1017782 30.4807164,19.6566672 C30.6293307,19.2120494 30.7526855,18.7324146 30.8520069,18.217023 C31.049914,17.7297436 31.2232974,17.1842669 31.3719117,16.5815793 C31.5202807,15.9783984 31.6809117,15.3902601 31.854295,14.8166712 C32.3241712,13.0372137 32.8381902,11.2957325 33.395126,9.59099451" id="Fill-1" fill="#000000" mask="url(#mask-2)"></path>
                </g>
                <path d="M38.2747264,30.8203213 C38.2747264,30.795908 38.261974,30.7853043 38.2376955,30.7894965 C38.261974,30.8353639 38.2747264,30.8454744 38.2747264,30.8203213" id="Fill-4" fill="#000000"></path>
                <path d="M37.9035095,31.4088789 C37.9277881,31.4044401 37.9407857,31.3901373 37.9407857,31.3647377 C37.8907571,31.3987683 37.8784952,31.4133176 37.9035095,31.4088789" id="Fill-6" fill="#000000"></path>
                <path d="M37.9407612,31.3648116 C38.0148231,31.376895 38.0334612,31.3672776 37.9964302,31.3364528 C37.9593993,31.3056279 37.9407612,31.3152453 37.9407612,31.3648116" id="Fill-8" fill="#000000"></path>
                <path d="M89.841799,20.8911165 C89.915861,20.9031998 89.9342538,20.8935825 89.8974681,20.862511 C89.8601919,20.8319327 89.841799,20.8415501 89.841799,20.8911165" id="Fill-10" fill="#000000"></path>
                <path d="M89.80467,20.9350604 C89.8289486,20.9308682 89.841701,20.9163189 89.841701,20.8911658 C89.7919176,20.9251964 89.7794105,20.9394992 89.80467,20.9350604" id="Fill-12" fill="#000000"></path>
                <path d="M90.3241333,14.4030755 C90.1760095,15.0143941 89.9651048,15.6116566 89.6931357,16.1948629 C89.4206762,16.7788091 89.1487071,17.2937075 88.8762476,17.7398049 C88.7521571,17.9360976 88.6162952,18.1654345 88.4679262,18.4280623 C88.3190667,18.6914299 88.1832048,18.8707073 88.0596048,18.9671274 C87.7623762,19.194245 87.4219857,19.2546617 87.0384333,19.148131 C86.6543905,19.0423401 86.4013048,18.8507328 86.2772143,18.5738022 C86.227431,18.5079603 86.2031524,18.4320079 86.2031524,18.3444653 C86.2031524,18.2574159 86.1781381,18.1937934 86.1293357,18.1523648 L86.1293357,17.8162505 C86.1293357,17.7171178 86.153369,17.6251364 86.2031524,17.541786 C86.153369,17.1773128 86.1717619,16.8256628 86.2588214,16.4865894 C86.3451452,16.1480091 86.4567286,15.8109085 86.593081,15.475534 C86.7289429,15.1404062 86.858919,14.8121831 86.9827643,14.4916045 C87.1063643,14.171026 87.1926881,13.8447757 87.2429619,13.5123604 C87.3663167,13.2911612 87.422231,12.5918068 87.3910857,12.3284392 C87.4896714,11.8135408 87.7067071,11.4017207 88.0409667,11.0934721 C88.3752262,10.7857167 88.8634952,10.6116179 89.5074905,10.5719155 C89.6310905,10.6002744 89.7485595,10.6352914 89.8601429,10.6774598 C89.971481,10.7201214 90.0887048,10.7553851 90.2130405,10.7830041 C90.4599952,11.336372 90.5777095,11.9257433 90.5656929,12.5496384 C90.5529405,13.1742734 90.4725024,13.7922501 90.3241333,14.4030755 L90.3241333,14.4030755 Z M78.1841119,14.7636031 C77.9344595,15.7936466 77.6749976,16.8234435 77.4064619,17.8532403 C77.2085548,18.0295585 77.0148167,18.2105621 76.8296619,18.4009364 C76.3467881,18.89734 75.8827976,19.3967027 75.4372,19.8985314 C75.2145238,20.161899 74.9977333,20.4245268 74.7875643,20.685675 C74.5769048,20.9470698 74.3603595,21.209451 74.1379286,21.4730651 C73.9152524,21.7364327 73.6859548,22.0010333 73.4512619,22.2666203 C73.2153429,22.5324539 72.9499952,22.7538997 72.6527667,22.9307111 C72.6282429,22.8855835 72.6093595,22.8266463 72.5973429,22.7538997 C72.5843452,22.6816462 72.5536905,22.6254217 72.5041524,22.5837465 C72.5289214,21.9075724 72.5659524,21.2476738 72.6157357,20.6040507 C72.6650286,19.9606743 72.7515976,19.3296278 72.8756881,18.7101714 C72.9992881,18.0909616 73.159919,17.4964118 73.3580714,16.9260286 C73.5562238,16.355892 73.6798238,15.7554237 73.7296071,15.1241306 C74.0756381,14.1421739 74.3851286,13.1599706 74.6575881,12.1785071 C74.9298024,11.196797 75.5858143,9.23263704 75.5858143,9.23263704 L75.8455214,8.42453254 C76.1893452,8.36386922 76.535131,8.31997462 76.8858214,8.30542528 C77.3218548,8.28816336 77.7532286,8.22799324 78.1796976,8.12466831 C78.6912643,8.00605426 79.2003786,7.86820549 79.7072857,7.71013561 C79.8046452,7.67980395 79.9024952,7.65341787 80.0001,7.62752499 L79.743581,8.64449873 C79.743581,8.64449873 78.6794929,12.7222576 78.1841119,14.7636031 L78.1841119,14.7636031 Z M71.204881,16.0010362 C70.7453048,17.8961485 70.2504143,19.7907677 69.7275667,21.68588 C69.6316786,21.7805739 69.5382429,21.8747747 69.4421095,21.9694687 C69.0085286,22.3953449 68.5325214,22.7534065 68.0126167,23.0443931 C68.0619095,22.4634062 68.1173333,21.9494942 68.1796238,21.502657 C68.2414238,21.0565597 68.2845857,20.58235 68.3096,20.0797815 C68.6558762,18.9234794 68.9837595,17.7329001 69.29325,16.5080435 C69.6024952,15.2836801 69.8315476,14.0733729 69.9804071,12.8771217 C69.8560714,12.8495027 69.8315476,12.7977169 69.9061,12.7222576 C69.9804071,12.647045 69.9804071,12.5538306 69.9061,12.4421213 C69.9804071,12.4791112 70.0171929,12.466288 70.0171929,12.4036519 C70.0171929,12.3420022 70.0417167,12.3059988 70.0919905,12.2971212 C69.992669,12.2653099 69.9676548,12.2014408 70.0171929,12.1050207 C70.066731,12.0093403 70.054469,11.9060154 69.9804071,11.7943061 C69.8070238,11.8500374 69.7079476,11.9422654 69.6831786,12.07099 C69.6584095,12.2002078 69.5841024,12.287997 69.4605024,12.3346042 C69.3864405,12.1235156 69.3614262,11.9664321 69.3864405,11.8621208 C69.410719,11.7587959 69.3984571,11.6118229 69.3494095,11.4209554 C69.0764595,11.4944419 68.8228833,11.5082514 68.5879452,11.4626306 C68.3525167,11.417503 68.1114476,11.5161426 67.8640024,11.7587959 C67.8640024,12.0081073 67.814219,12.2098252 67.7158786,12.3639495 C67.6165571,12.518567 67.5049738,12.6687457 67.3813738,12.8152254 C67.2570381,12.5636946 67.1030286,12.3417556 66.9173833,12.1508881 C66.7317381,11.9595273 66.4654095,11.8705051 66.1191333,11.8816021 C65.5496905,11.9079882 65.0175238,12.0648251 64.5226333,12.3513729 C64.0274976,12.6386606 63.5944071,12.9020282 63.2231167,13.1417223 C62.8761048,13.7015018 62.5178119,14.2561026 62.1465214,14.8072511 C61.775231,15.3586462 61.428219,15.9366739 61.1072024,16.5408411 C61.0569286,16.6000249 61.0569286,16.6744977 61.1072024,16.7649995 C60.9088048,16.9247956 60.7785833,17.1654761 60.7172738,17.4872876 C60.6554738,17.8098389 60.5252524,18.0756725 60.3273452,18.2845418 C60.2532833,18.5962427 60.1605833,18.8805712 60.049,19.1362943 C59.9376619,19.3930037 59.8689952,19.6724002 59.8449619,19.9752236 C59.7951786,20.0090077 59.7642786,20.058574 59.7517714,20.1221965 C59.739019,20.187052 59.6961024,20.2255215 59.6222857,20.2385912 C59.5977619,20.8333877 59.5065333,21.4582692 59.3486,22.1132358 C59.1134167,22.3659997 58.8828929,22.6195033 58.6570286,22.8737467 C58.4343524,23.1371143 58.2173167,23.3997421 58.0076381,23.6608903 C57.7967333,23.9222851 57.5801881,24.1846663 57.3575119,24.4482805 C57.1348357,24.7116481 56.9055381,24.9760021 56.6710905,25.2418357 C56.4354167,25.5076693 56.1695786,25.729115 55.8725952,25.9059264 C55.8478262,25.8607988 55.8289429,25.8018617 55.8171714,25.729115 C55.8041738,25.6568616 55.773519,25.600637 55.723981,25.5589618 C55.74875,24.8827877 55.785781,24.2228891 55.8355643,23.5792661 C55.8848571,22.9358896 55.9714262,22.3045965 56.0952714,21.6853868 C56.2193619,21.066177 56.3797476,20.4716271 56.5781452,19.901244 C56.7760524,19.3311074 56.8994071,18.7306391 56.9491905,18.099346 C57.2954667,17.1173893 57.6049571,16.135186 57.8774167,15.1534759 C58.149631,14.1720124 58.8056429,12.2078524 58.8056429,12.2078524 L59.5322833,9.94728056 C59.6752571,9.95171934 59.8206833,9.94062239 59.9705238,9.90091997 C60.1627905,9.8503672 60.3418143,9.84888761 60.50735,9.89746759 C60.765831,9.7855117 61.0294619,9.71597082 61.2975071,9.68958474 C61.5655524,9.66295206 61.8414452,9.61313909 62.1264119,9.53989923 C62.0464643,9.71350483 61.94935,9.90018018 61.8333524,10.1011583 C61.7176,10.3018897 61.6295595,10.5016348 61.5699667,10.7008867 C61.5098833,10.9003852 61.4968857,11.0853343 61.5295024,11.2559808 C61.5628548,11.4266272 61.68155,11.5681749 61.8853429,11.681857 C61.9996238,11.6530049 62.1094905,11.6266189 62.2166595,11.6039318 C62.3223571,11.5819845 62.4113786,11.5629964 62.4822524,11.5479538 C63.0171167,11.5215677 63.4842952,11.4470949 63.8835429,11.3250284 C64.283281,11.2024688 64.7104857,11.0828684 65.1663833,10.9657339 C65.6791762,10.8209804 66.2169833,10.6624173 66.781031,10.4897981 C67.3438524,10.3174255 67.9238405,10.1709457 68.519769,10.0503589 C69.5409405,9.85307979 70.6670738,9.590452 71.8984143,9.2629687 C72.2621024,9.16605534 72.6255452,9.07629335 72.9892333,8.99047694 L72.76435,9.88193186 C72.76435,9.88193186 71.7000167,13.9596908 71.204881,16.0010362 L71.204881,16.0010362 Z M66.0450714,18.9131223 C65.8714429,19.6161757 65.6365048,20.2800198 65.3395214,20.9049014 C65.0425381,21.5305227 64.7019024,22.1134824 64.3185952,22.6537805 C63.9345524,23.1953117 63.544869,23.6870298 63.1490548,24.1306612 C62.5048143,24.3444624 62.0964929,24.1807207 61.9238452,23.6386964 C61.8740619,23.174844 61.8740619,22.7326922 61.9238452,22.3132275 C61.9733833,21.8937628 62.0472,21.495259 62.1465214,21.1164832 C62.2453524,20.7384471 62.3444286,20.3907427 62.4435048,20.074603 C62.542581,19.7582166 62.6166429,19.4593388 62.6664262,19.1762433 C62.9876881,18.5220165 63.297669,17.876174 63.5944071,17.2384694 C63.8916357,16.6012579 64.3612667,16.1011554 65.0055071,15.7376686 C65.0295405,15.6836635 65.0852095,15.6617162 65.1725143,15.6708403 C65.2590833,15.6804577 65.326769,15.6683743 65.3765524,15.6345903 C65.6487667,15.6609764 65.8405429,15.7892078 65.9521262,16.0178049 C66.0634643,16.2471419 66.1806881,16.4875758 66.3050238,16.7391066 C66.3050238,17.485808 66.2179643,18.2105621 66.0450714,18.9131223 L66.0450714,18.9131223 Z M38.4234143,24.8768694 C38.2748,25.488188 38.0641405,26.0854504 37.7921714,26.6686567 C37.5194667,27.2526029 37.2474976,27.7675013 36.9752833,28.2133521 C36.8514381,28.4098914 36.715331,28.6392283 36.5669619,28.9018561 C36.4183476,29.1652237 36.2822405,29.3442545 36.1586405,29.4409212 C35.8616571,29.6680388 35.5210214,29.7284555 35.1377143,29.6219248 C34.7536714,29.5161339 34.5000952,29.3245266 34.3764952,29.047596 C34.3267119,28.9820007 34.3024333,28.9058017 34.3024333,28.8182591 C34.3024333,28.7312097 34.277419,28.6673406 34.227881,28.625912 L34.227881,28.2897977 C34.227881,28.1909116 34.2521595,28.0989302 34.3024333,28.0153332 C34.2521595,27.6511066 34.2710429,27.2994567 34.3581024,26.9601366 C34.4444262,26.621803 34.5557643,26.2847023 34.6921167,25.9490812 C34.8279786,25.6139534 34.9577095,25.2859769 35.0818,24.9653983 C35.2056452,24.6445732 35.291969,24.3183229 35.3417524,23.9859076 C35.4655976,23.764955 35.5833119,23.5267405 35.6944048,23.2700311 C35.8057429,23.0140615 35.9232119,22.7627772 36.0473024,22.5169182 C35.9729952,22.4804215 35.8859357,22.5082872 35.78735,22.6002686 C35.6880286,22.6924966 35.5889524,22.7603112 35.4903667,22.8022331 C35.5889524,22.2873346 35.8057429,21.8755145 36.1400024,21.5670193 C36.4742619,21.2592639 36.962531,21.0851651 37.6065262,21.0457093 C37.7301262,21.0738216 37.8478405,21.1090852 37.9594238,21.1512536 C38.0705167,21.1939152 38.1877405,21.2291789 38.3120762,21.2565513 C38.559031,21.8101658 38.6769905,22.3995371 38.6644833,23.0234322 C38.651731,23.6480672 38.5717833,24.266044 38.4234143,24.8768694 L38.4234143,24.8768694 Z M52.2330167,25.4761046 C52.034619,25.685467 51.782269,25.8117257 51.6216381,26.0139367 C51.4602714,26.2171342 51.2562333,26.4028232 51.0092786,26.570757 C50.810881,26.5310546 50.6875262,26.4102211 50.6379881,26.2070237 C50.5882048,26.0048126 50.5882048,25.7744892 50.6379881,25.5165468 C50.6875262,25.2590976 50.7547214,24.9858661 50.8420262,24.696359 C50.9285952,24.4075917 50.9965262,24.1592666 51.0463095,23.9508906 C51.1696643,23.5555926 51.2812476,23.1812555 51.380569,22.8276327 C51.4789095,22.4742566 51.5779857,22.1270454 51.6773071,21.7857525 C51.9002286,21.0247484 52.1349214,20.2671967 52.3828571,19.5138371 C52.6300571,18.7609708 52.778181,18.0438613 52.8284548,17.3630018 C52.8775024,16.9312072 52.8284548,16.5107561 52.6798405,16.101402 C52.5314714,15.692541 52.2835357,15.4193095 51.9375048,15.2812141 C51.7391071,15.3662907 51.5475762,15.3751683 51.361931,15.30834 C51.1762857,15.2422515 50.9965262,15.2491563 50.8236333,15.3290543 C50.4766214,15.4654235 50.1180833,15.653825 49.7470381,15.8932725 C49.3755024,16.1337064 49.0100976,16.3914022 48.6515595,16.6661134 C48.2922857,16.9418109 47.9585167,17.2249064 47.6492714,17.5161397 C47.3395357,17.8078661 47.0859595,18.0825773 46.8880524,18.3415061 C46.7637167,18.4882324 46.659,18.6376713 46.572431,18.7895762 C46.4853714,18.9422209 46.3556405,19.058369 46.1827476,19.1385136 C46.3556405,18.8344572 46.3370024,18.5952563 46.1268333,18.4206643 C45.916419,18.2465655 45.7243976,18.1126623 45.5515048,18.0187082 C45.1554452,18.0394225 44.8275619,18.1597627 44.5676095,18.3797289 C44.3079024,18.6001883 44.0786048,18.852459 43.8809429,19.1360477 C43.3360238,19.6561247 42.8227405,20.1823667 42.3401119,20.7160066 C42.0948738,20.9870188 41.8901,21.2962538 41.7248095,21.6429718 C41.7096048,20.3446287 41.3780429,19.3500955 40.725219,18.6633176 C40.0569452,17.9605108 39.017381,17.7220497 37.6065262,17.9471945 C36.7398548,18.2502645 36.0529429,18.6892105 35.5460357,19.2645257 C35.0383929,19.8398408 34.5493881,20.4435149 34.0795119,21.0738216 C33.3119167,22.553908 32.6995571,24.2366987 32.2416976,26.1221936 C31.7835929,28.0081818 31.6783857,29.936585 31.9263214,31.9086361 C32.0749357,32.2309409 32.2353214,32.544368 32.4087048,32.849904 C32.5815976,33.1549468 32.7799952,33.4249726 33.0029167,33.6589949 C33.275131,33.7356872 33.5412143,33.8062144 33.8009214,33.8723029 C34.0608738,33.9381448 34.3639881,33.9280343 34.7107548,33.8417247 C34.7848167,33.8284083 34.8713857,33.8010359 34.9704619,33.7581277 C35.0690476,33.7162058 35.180631,33.6713249 35.3047214,33.6242245 C36.1706571,33.2969878 36.8141619,32.7470723 37.2352357,31.9754644 L37.4579119,31.9360086 C37.5564976,31.7192482 37.6808333,31.5296137 37.8292024,31.3661186 C37.9778167,31.2031168 38.1136786,31.0112628 38.237769,30.7895705 L38.237769,30.6778612 C38.4106619,30.5723169 38.5533905,30.4162198 38.6644833,30.2098165 C38.7760667,30.0034133 38.9180595,29.8231495 39.0916881,29.6675456 C39.3636571,29.1218223 39.6542643,28.5474935 39.964,27.9448059 C40.2732452,27.3428581 40.5579667,26.7137843 40.817919,26.0573381 C41.0778714,25.4018783 41.2941714,24.7165801 41.4678,24.0009502 C41.5825714,23.5264939 41.6556524,23.0320632 41.6946452,22.5213569 C41.7731214,22.4663654 41.8552762,22.4111272 41.9317905,22.3561357 C42.1174357,22.2242053 42.3087214,22.0784654 42.507119,21.9181761 C42.48235,21.9729211 42.45145,22.0466541 42.414419,22.1401151 C42.3773881,22.2343159 42.3830286,22.3013908 42.4328119,22.3420796 C42.7790881,22.330736 43.0392857,22.253304 43.212669,22.1105232 C43.3855619,21.9679891 43.5959762,21.8624448 43.8436667,21.7933971 C43.8186524,22.7933555 43.645269,23.7388156 43.3240071,24.6292841 C43.0020095,25.5204924 42.6679952,26.4321684 42.3214738,27.3645588 C42.2471667,27.9504777 42.0990429,28.4929952 41.8758762,28.9928511 C41.6534452,29.4929536 41.5168476,30.0709814 41.4678,30.7264411 C41.3934929,30.9390094 41.3064333,31.1283973 41.2078476,31.2950981 C41.1092619,31.4620456 41.0349548,31.6617907 40.9849262,31.8948266 C41.0099405,32.0644866 41.1028857,32.1665785 41.2632714,32.1998694 C41.4241476,32.2339 41.6034167,32.2329136 41.8018143,32.19765 C41.9994762,32.162633 42.2101357,32.1253965 42.4328119,32.0859407 C42.6557333,32.0462383 42.8536405,32.0240444 43.0270238,32.0178794 C43.2246857,31.933296 43.4169524,31.849699 43.6023524,31.7665952 C43.7879976,31.6842312 43.9179738,31.5488484 43.992281,31.3616798 C44.1899429,30.8036266 44.3571952,30.2142553 44.4935476,29.5925795 C44.6291643,28.9711504 44.7591405,28.3386243 44.8834762,27.6942614 C45.1554452,26.9990992 45.4274143,26.2911139 45.700119,25.5707986 C45.9720881,24.8504833 46.2626952,24.1521153 46.572431,23.4747082 C46.8816762,22.7980409 47.2156905,22.1475131 47.5749643,21.5236179 C47.9335024,20.900216 48.3602167,20.320462 48.8558429,19.7848493 C48.9791976,19.7133356 49.0723881,19.6470005 49.1344333,19.5860906 C49.1957429,19.5254273 49.2764262,19.4615582 49.3755024,19.3937435 C49.4498095,19.4309799 49.5483952,19.4134714 49.6724857,19.3412179 C49.796331,19.2697042 49.9074238,19.2623063 50.0067452,19.3195172 C49.9569619,19.7515584 49.8770143,20.1887782 49.765431,20.6311766 C49.6538476,21.0745614 49.5361333,21.5184393 49.4127786,21.9633037 C49.2641643,22.5622924 49.0723881,23.1938321 48.8372048,23.857183 C48.6017762,24.5212738 48.372969,25.1900499 48.1502929,25.8642512 C47.9276167,26.5384525 47.729219,27.2146266 47.5563262,27.8922803 C47.3829429,28.5704272 47.2838667,29.2470945 47.2593429,29.9235152 C47.2593429,30.0482943 47.2529667,30.14866 47.2407048,30.2253522 C47.2279524,30.3022911 47.2343286,30.3888473 47.2593429,30.4832947 C47.2838667,30.678601 47.3709262,30.8687287 47.5192952,31.0534312 C47.6676643,31.238627 47.8162786,31.3303618 47.9646476,31.3291288 C48.0882476,31.3315948 48.1932095,31.282275 48.2805143,31.1799365 C48.3668381,31.0775979 48.4718,30.9907951 48.5961357,30.9185417 C48.7442595,30.8425892 48.8867429,30.7676232 49.02285,30.6936435 C49.1587119,30.6196638 49.2884429,30.5345872 49.4127786,30.4376739 C49.5611476,30.2125291 49.7156476,29.9920697 49.8770143,29.7767889 C50.0374,29.5617547 50.2539452,29.3802579 50.5264048,29.2322986 C50.675019,28.9072813 50.8606643,28.6195004 51.0833405,28.3682162 C51.3060167,28.1174251 51.5534619,27.8804436 51.8259214,27.6577648 C51.9988143,27.4533343 52.1538048,27.2452049 52.2901571,27.0343629 C52.4005143,26.8629767 52.5268119,26.6940564 52.6619381,26.5266158 C52.6616929,26.5280954 52.6614476,26.5298216 52.6614476,26.5315478 C52.5996476,27.0032914 52.5682571,27.4876116 52.5682571,27.9852481 C52.6182857,28.2503419 52.6798405,28.5008863 52.7539024,28.7363883 C52.8284548,28.9723834 52.9025167,29.2081319 52.9765786,29.4433872 C53.1997452,29.5777836 53.4344381,29.6855473 53.6821286,29.7664317 C53.9295738,29.8465764 54.2263119,29.8315338 54.5733238,29.7203178 C54.7957548,29.6308024 55.0189214,29.4978856 55.2415976,29.321814 C55.4642738,29.1452492 55.6741976,29.0397049 55.8725952,29.0046878 C56.5904071,28.3050868 57.28345,27.5850181 57.9514786,26.8442351 C58.3470476,26.4060289 58.7229976,25.9369979 59.0837429,25.4438002 C59.1256786,25.6211047 59.1730095,25.7954501 59.2321119,25.9638772 C59.3191714,26.2094896 59.4366405,26.4193453 59.5847643,26.5919645 C59.5847643,27.3887254 59.8322095,27.8673738 60.3273452,28.0281563 C60.822481,28.1889388 61.3911881,28.1381394 62.0351833,27.8747718 C62.6786881,27.6114042 63.2540167,27.1919395 63.7616595,26.6166244 C64.2688119,26.0413092 64.7325571,25.5424397 65.1538762,25.119276 C65.0548,25.8588261 65.079569,26.4575681 65.2281833,26.9164886 C65.3765524,27.3756557 65.7228286,27.5813192 66.2677476,27.534712 C66.4904238,27.5196694 66.706969,27.4570333 66.9173833,27.3450774 C67.1275524,27.232875 67.3445881,27.1073561 67.5672643,26.968521 C67.6165571,26.9103236 67.6653595,26.8331382 67.7158786,26.736718 C67.764681,26.6410377 67.814219,26.5640988 67.8640024,26.5051617 C68.0126167,26.4292092 68.1242,26.359915 68.1980167,26.296539 C68.3468762,26.1461137 68.427069,25.9887837 68.4398214,25.8245488 C68.4518381,25.6608072 68.5072619,25.4830094 68.6063381,25.2909089 C68.7549524,24.9910446 68.9528595,24.7197859 69.2007952,24.4763928 C69.2677452,24.4105509 69.3236595,24.3402702 69.3724619,24.2667837 C69.3567667,24.5114098 69.3486738,24.7589951 69.3486738,25.0100327 C69.3984571,25.2751265 69.4600119,25.525671 69.534319,25.7611729 C69.6086262,25.997168 69.6826881,26.2329165 69.7569952,26.4681719 C69.9799167,26.6025682 70.2146095,26.710332 70.4623,26.7912164 C70.7097452,26.8716076 71.0064833,26.8563185 71.3534952,26.7451024 C71.5761714,26.655587 71.7990929,26.5226702 72.021769,26.3465986 C72.2444452,26.1700338 72.454369,26.0647361 72.6527667,26.0294725 C73.3705786,25.3301181 74.0636214,24.6098028 74.7318952,23.8690198 C75.3714762,23.1602946 75.9644619,22.3773432 76.5137952,21.5246043 C76.4833857,21.7896981 76.4549381,22.0570113 76.4210952,22.3186527 C76.3592952,22.7906429 76.3279048,23.2749631 76.3279048,23.7725996 C76.3776881,24.0376934 76.4394881,24.2882378 76.51355,24.5237398 C76.5878571,24.7594883 76.6621643,24.9954834 76.7362262,25.2307387 C76.9593929,25.3651351 77.1938405,25.4728988 77.4417762,25.5537832 C77.6892214,25.6339279 77.9857143,25.6188854 78.3329714,25.5076693 C78.5554024,25.4179073 78.778569,25.2852371 79.0012452,25.1091655 C79.2239214,24.9326007 79.4338452,24.8270564 79.6319976,24.7920393 C80.3500548,24.0924383 81.0430976,23.372123 81.7111262,22.6315866 C82.3794,21.8910502 82.9981357,21.0720954 83.5678238,20.1742289 C83.6070619,20.114552 83.6548833,20.0489567 83.7083452,19.9794158 C83.7264929,20.4620098 83.7659762,20.9470698 83.8272857,21.4350889 C83.9756548,21.7573936 84.1362857,22.0708208 84.3099143,22.3761102 C84.4828071,22.681153 84.6812048,22.9514254 84.9036357,23.1854477 C85.17585,23.2618934 85.4421786,23.3324206 85.7018857,23.3985091 C85.9620833,23.464351 86.2644619,23.4544871 86.6114738,23.3679309 C86.6860262,23.3546145 86.7725952,23.3269955 86.8716714,23.2845804 C86.9700119,23.242412 87.0815952,23.197531 87.2054405,23.1506773 C88.0718667,22.823194 88.7151262,22.2732785 89.1362,21.5016706 L89.3588762,21.4622148 C89.4577071,21.245701 89.5815524,21.0558199 89.7301667,20.8920782 C89.878781,20.7295696 90.0143976,20.5372224 90.1384881,20.3160232 L90.1384881,20.2040674 C90.311381,20.0987696 90.4541095,19.942426 90.5656929,19.7360227 C90.6767857,19.5298661 90.819269,19.3493557 90.9926524,19.1937518 C91.2646214,18.6480285 91.5552286,18.0736997 91.8649643,17.4710121 C92.1742095,16.8690642 92.458931,16.2399905 92.7188833,15.5837909 C92.9788357,14.9280845 93.195381,14.2430329 93.368519,13.5271564 C93.5414119,12.8125128 93.6284714,12.0566873 93.6284714,11.2599263 C93.6284714,9.9159625 93.2944571,8.89257719 92.6261833,8.18977041 C91.9576643,7.48696363 90.9185905,7.24825593 89.5074905,7.4734007 C88.640819,7.77647071 87.9541524,8.21566329 87.4472452,8.79073186 C86.9391119,9.36604702 86.4501071,9.96972106 85.9804762,10.6000278 C85.212881,12.0801142 84.6005214,13.7631515 84.1429071,15.6483998 C84.0247024,16.133953 83.9312667,16.6224654 83.8599024,17.1134437 C83.8432262,17.130459 83.825569,17.146488 83.8091381,17.1635033 C83.3262643,17.6599068 82.8622738,18.1590229 82.4166762,18.6610982 C82.194,18.9244658 81.9769643,19.1870936 81.7670405,19.4479952 C81.556381,19.7096366 81.3398357,19.9720178 81.1171595,20.235632 C80.8944833,20.4989996 80.6651857,20.7633536 80.4304929,21.0291872 C80.194819,21.2950208 79.9292262,21.5164665 79.6319976,21.6932779 C79.6074738,21.6481503 79.5885905,21.5892132 79.5765738,21.5164665 C79.5638214,21.4442131 79.5329214,21.3877419 79.4836286,21.3463133 C79.5081524,20.6701392 79.5454286,20.0102407 79.5952119,19.3666176 C79.6445048,18.7232411 79.7310738,18.091948 79.854919,17.4727383 C79.978519,16.8535285 80.1393952,16.2589786 80.3375476,15.6883489 C80.5357,15.1184589 80.6590548,14.5179906 80.7088381,13.8866975 C81.0551143,12.9047408 81.3646048,11.9222909 81.6370643,10.9408274 C81.9092786,9.95936391 82.5650452,7.99495731 82.5650452,7.99495731 L82.7992476,7.26675084 C83.2956095,7.21521168 83.8096286,7.18364702 84.345719,7.17748205 C85.293319,7.1668783 86.248031,7.09659762 87.2093643,6.96639342 C87.3503762,6.94987129 87.492369,6.91953963 87.6353429,6.87687803 C87.7770905,6.83347663 87.9276667,6.79007523 88.0843738,6.74642723 C88.3244619,6.71387618 88.550081,6.69858705 88.7604952,6.69957344 C88.9709095,6.70129963 89.2109976,6.67170777 89.4810048,6.61252404 C89.5126405,6.54544915 89.5714976,6.49785557 89.6568405,6.4692501 C89.742919,6.44089123 89.8081524,6.39354424 89.8540119,6.32622275 C89.904531,6.16642668 89.9415619,6.00737041 89.9633881,5.84856074 C89.9861952,5.68975107 89.9729524,5.53858596 89.9246405,5.39457222 C89.9015881,5.2897677 89.8537667,5.20543089 89.7801952,5.14156178 C89.7066238,5.07769267 89.6372214,4.99360246 89.572969,4.88953774 C89.4405405,4.73467365 89.3404833,4.56279423 89.2740238,4.3729131 C89.2070738,4.18377177 89.12075,4.01781073 89.0165238,3.87502998 C88.7131643,3.77737683 88.4117667,3.7620877 88.1135571,3.828916 C87.8153476,3.89574429 87.5034048,3.95295523 87.178219,4.00079541 C87.0791429,4.01682433 86.9950262,4.01509814 86.925869,3.99783622 C86.8564667,3.97934131 86.7792167,3.98451988 86.6933833,4.01312535 C86.6082857,4.02866108 86.5300548,4.05356757 86.4577095,4.08833801 C86.3856095,4.12335505 86.3002667,4.14850813 86.2011905,4.16404386 C85.8181286,4.24048951 85.43335,4.29227527 85.0456286,4.32211374 C84.6576619,4.351459 84.2853905,4.42371247 83.9290595,4.53788775 C83.8064405,4.54528571 83.6808786,4.55416327 83.554581,4.56328743 C83.6028929,4.30361882 83.6691071,4.02200291 83.753469,3.8269432 C83.951131,3.3690091 84.0744857,2.94880463 84.1247595,2.56657638 C84.1487929,2.36337891 84.1247595,2.19963726 84.0502071,2.07584463 C83.9761452,1.95254519 83.9018381,1.81001105 83.827531,1.64873539 C83.6543929,1.33111604 83.4932714,1.04234876 83.3446571,0.782186956 C83.1967786,0.522764945 83.0229048,0.273453487 82.8252429,0.0342525831 C82.7261667,0.00244132881 82.6395976,-0.00742262599 82.5650452,0.00589371299 C82.292831,0.17900612 82.1133167,0.403411092 82.0267476,0.680095024 C81.9399333,0.956532357 81.8349714,1.24308024 81.7111262,1.53850569 C81.463681,2.25438221 81.2221214,3.02500368 80.9876738,3.85086329 C80.9035571,4.14530235 80.8015381,4.52111902 80.7049143,4.88312616 C80.4873881,4.91444422 80.2674095,4.94724187 80.042281,4.98250551 C78.927919,5.15783731 77.7848643,5.36695315 76.6136071,5.60960644 C76.656769,5.40986135 76.7099857,5.21233566 76.7739929,5.06462293 C76.9716548,4.60644223 77.0952548,4.18623776 77.1452833,3.80400951 C77.1695619,3.60081204 77.1452833,3.43707039 77.070731,3.31327776 C76.996669,3.18997832 76.9223619,3.04744418 76.8483,2.88616852 C76.6749167,2.56854917 76.5140405,2.27978189 76.3654262,2.01962009 C76.2173024,1.76019807 76.0436738,1.51088662 75.8460119,1.27193231 C75.7469357,1.24012106 75.6603667,1.2300105 75.5858143,1.24332684 C75.3133548,1.41643925 75.1340857,1.64084422 75.0475167,1.91752815 C74.9607024,2.19396549 74.8557405,2.48051337 74.7318952,2.77593882 C74.48445,3.49206194 74.2428905,4.26268341 74.0081976,5.08829642 C73.9164786,5.40961475 73.8034238,5.82784644 73.6994429,6.21919884 C72.8506738,6.39724323 72.0131857,6.5772604 71.1904119,6.75925037 C69.776369,7.07218433 68.339519,7.37846013 66.8783905,7.67931075 C66.7768619,7.7345489 66.672881,7.78016969 66.5657119,7.81518673 C66.4585429,7.85143676 66.3687857,7.88990619 66.2961952,7.9310882 C66.0835738,7.97621579 65.8711976,8.00778045 65.6595571,8.02676856 C65.4479167,8.04526348 65.2441238,8.05685362 65.0476881,8.0617856 C65.0270881,7.91752526 65.0391048,7.81469353 65.0849643,7.75452341 C65.1305786,7.69361349 65.169081,7.61075627 65.2036595,7.50397896 C65.1038476,7.00560264 64.7901881,6.69735405 64.2631714,6.5784934 C64.1908262,6.61992201 64.0934667,6.66850198 63.9713381,6.72472653 C63.8489643,6.78021127 63.7516048,6.83594262 63.6785238,6.88994777 C63.4659024,6.92200562 63.2537714,6.96318763 63.0399238,7.0149734 C62.8270571,7.06675916 62.6134548,7.12175071 62.3998524,7.17970144 C62.2002286,7.23715898 61.9866262,7.28919134 61.7600262,7.33407233 C61.5334262,7.37944653 61.3056,7.43789046 61.0770381,7.50965073 C60.8627,7.5811644 60.6581714,7.65884305 60.4644333,7.74293326 C60.3278357,7.80187039 60.1868238,7.85414935 60.0467929,7.90716811 C60.2118381,7.50101977 60.3197429,7.1237235 60.3651119,6.77922488 C60.3896357,6.57602741 60.3651119,6.41253236 60.2905595,6.28849313 C60.2164976,6.16519369 60.1421905,6.02265954 60.0678833,5.86138388 C59.8947452,5.54401114 59.733869,5.25499726 59.5850095,4.99483545 C59.437131,4.73541344 59.2632571,4.48634858 59.0658405,4.24690108 C58.966519,4.21533642 58.87995,4.20522587 58.8056429,4.21854221 C58.5331833,4.39165462 58.353669,4.61605959 58.2671,4.89274352 C58.180531,5.16942745 58.075569,5.45572874 57.9514786,5.75115419 C57.7040333,6.46727731 57.462719,7.23789878 57.2280262,8.06351179 C57.1583786,8.30715148 57.0767143,8.6067691 56.9957857,8.90761972 C56.6759952,9.00699907 56.3473762,9.09552806 55.9998738,9.16112336 C54.8828143,9.57220368 53.689731,9.99117516 52.4169452,10.418531 C51.1453857,10.8461334 49.8699024,11.201729 48.5922119,11.4843313 C48.4462952,11.5940678 48.2797786,11.6835832 48.0933976,11.7541105 C47.9075071,11.8248844 47.7557048,11.9141531 47.6370095,12.0229032 C47.2664548,12.1375717 46.9265548,12.261611 46.6173095,12.3947743 C46.3090452,12.5281843 46.0081381,12.7035161 45.715569,12.9217561 C45.7859524,12.9200299 45.8769357,12.9279211 45.9880286,12.9444432 C46.0996119,12.9614585 46.2040833,12.9691031 46.3024238,12.9663905 C46.3038952,12.940251 46.3122333,12.9264415 46.3259667,12.9261949 C46.3399452,12.9257017 46.3320976,12.9392647 46.3024238,12.9663905 L46.3014429,12.986365 L46.2597524,12.9873514 C46.1432643,13.0566457 46.0145143,13.1089247 45.8722762,13.1454213 C45.7300381,13.1819179 45.6020238,13.208304 45.488969,13.2240863 C45.2564833,13.3754981 45.0132071,13.5197584 44.7603667,13.6581004 C44.5077714,13.7964423 44.244631,13.9281261 43.9709452,14.0536449 C43.8696619,14.1226926 43.7512119,14.1717658 43.6160857,14.2013577 C43.4809595,14.2311961 43.4110667,14.2925992 43.4061619,14.384334 C44.8241286,14.1115957 46.2094786,13.7994015 47.5609857,13.4484913 C48.913719,13.0978277 50.24855,12.7279294 51.56695,12.3385498 C52.886331,11.9496634 54.1956571,11.5501732 55.4941929,11.1413123 C55.8272262,11.0367544 56.1614857,10.9346624 56.4955,10.8310909 L55.9841786,12.8571472 C55.9841786,12.8571472 54.9198452,16.9349061 54.4247095,18.9762516 C53.9572857,20.903915 53.4567548,22.8310851 52.9236071,24.7589951 C52.8627881,24.9792079 52.7212857,25.169089 52.5282833,25.2904157 L52.2330167,25.4761046 Z" id="Fill-14" fill="#000000"></path>
                <path d="M90.1758869,20.3465029 C90.1758869,20.3220896 90.1631345,20.3114858 90.1386107,20.3159246 C90.1631345,20.361792 90.1758869,20.371656 90.1758869,20.3465029" id="Fill-16" fill="#000000"></path>
                <path d="M100.412885,11.5328866 C100.228466,12.0184398 100.033011,12.6245798 100.033011,12.6245798 C100.033011,12.6245798 99.7725686,13.2632709 99.695809,13.5892746 C99.6197852,13.9152783 99.5444971,14.2496664 99.4704352,14.5919456 C99.3963733,14.934718 99.2997495,15.2725585 99.1800733,15.6049738 C99.0603971,15.9381288 98.8732805,16.2648724 98.6184781,16.5856975 C98.6138186,16.6752129 98.5821829,16.7657147 98.5247971,16.856463 C98.466921,16.9477046 98.4024233,17.0502898 98.3303233,17.1642184 C98.2628829,17.1893715 98.2040257,17.2411573 98.1535067,17.3208087 C98.1029876,17.4009533 98.0372638,17.4643293 97.9553543,17.5116762 C97.6858376,17.7328754 97.3513329,17.8423653 96.9511043,17.8391595 C96.5508757,17.836447 96.2852829,17.6924332 96.154571,17.4068717 C96.1013543,17.2860383 96.0849233,17.0865398 96.1060138,16.8066501 C96.126859,16.5272536 96.1396114,16.2818877 96.144271,16.069566 C96.1616829,15.5901778 96.0920352,15.076759 96.1893948,14.4711122 C96.2869995,13.8659585 96.2492329,13.3091383 96.4726448,12.7103962 C96.6948305,12.1126406 97.0778924,11.2840684 97.4283376,10.7087532 C97.7790281,10.1344244 98.4862948,9.47082688 98.7624329,9.183046 C99.038571,8.89501852 99.4226138,9.10512076 99.5452329,9.0952568 C99.6680971,9.08588605 99.8395186,9.26590322 99.9650805,9.27231479 C100.510735,9.47674526 100.295907,9.88831877 100.412885,10.2572307 C100.529373,10.6268824 100.597304,11.0473335 100.412885,11.5328866 M102.586185,8.24744989 C102.471659,7.58853771 102.119742,7.00705757 101.529945,6.50350268 C100.414602,5.92942051 99.3590971,5.87664835 98.3622043,6.3456794 C97.3650662,6.81495705 96.4777948,7.66522996 95.6998995,8.89575832 C95.2386067,9.62569097 94.8778614,10.3403345 94.6166829,11.0396889 C94.3555043,11.7405229 94.1497495,12.4245881 93.999909,13.0926245 C93.8490876,13.7614006 93.7365233,14.4119284 93.66099,15.0437147 C93.5854567,15.6764874 93.5099233,16.2781887 93.4338995,16.8490651 C93.4969257,17.0364802 93.5182614,17.2389379 93.4969257,17.4569313 C93.4758352,17.6751713 93.5113948,17.8554351 93.6031138,17.9969828 L93.538371,18.0993213 C93.5194876,18.3345767 93.6011519,19.1283784 93.5628948,19.3525368 C93.5628948,19.3525368 93.9111329,20.9347152 94.4867067,21.4604639 C94.5688614,21.5359232 94.6412067,21.6062039 94.7037424,21.6703196 C94.7667686,21.7351751 94.8270971,21.7830153 94.8852186,21.8145799 C95.1412471,21.9842399 95.4024257,22.0722757 95.6702257,22.0799203 C95.9380257,22.0870717 96.2139186,22.0920037 96.4983948,22.09299 C96.8304471,21.9366464 97.1617638,21.7410935 97.4911186,21.5068245 C97.821209,21.2725556 98.1444329,21.0274363 98.4622614,20.7709735 C99.8225971,19.0297389 100.846221,17.2364719 101.533133,15.389693 C102.22078,13.5436538 102.654361,11.8426148 102.833385,10.2870691 C102.783847,9.58722155 102.701447,8.90685527 102.586185,8.24744989" id="Fill-18" fill="#000000"></path>
                <path d="M93.474609,18.7535975 C93.4942281,18.7642012 93.4915305,18.7479257 93.4674971,18.7035379 C93.4527829,18.7267182 93.4557257,18.7432403 93.474609,18.7535975" id="Fill-20" fill="#000000"></path>
                <path d="M93.4875576,18.1177176 C93.4728433,18.1406513 93.49001,18.1347329 93.5383219,18.0994693 C93.5189481,18.0891122 93.5017814,18.0952771 93.4875576,18.1177176" id="Fill-22" fill="#000000"></path>
            </g>
        </g>
    </g>
</svg>