<?xml version="1.0" encoding="UTF-8"?>
<svg width="207px" height="207px" viewBox="0 0 207 207" version="1.1" xmlns="http://www.w3.org/2000/svg" xmlns:xlink="http://www.w3.org/1999/xlink">
    <!-- Generator: Sketch 53 (72520) - https://sketchapp.com -->
    <title>peper3-yellow</title>
    <desc>Created with Sketch.</desc>
    <g id="Welcome" stroke="none" stroke-width="1" fill="none" fill-rule="evenodd">
        <g id="HOME" transform="translate(-616.000000, -5087.000000)" fill-rule="nonzero">
            <g id="peper3-yellow" transform="translate(616.000000, 5087.000000)">
                <g id="Laag_2" transform="translate(5.100000, 49.500000)" fill="#FFF476">
                    <path d="M2.31,113.37 C-0.48,107.82 -0.54,101.22 2.49,95.82 C2.67,95.49 2.82,95.16 2.97,94.83 C4.59,90.66 9,92.04 10.62,95.52 C12.24,99 19.92,102.96 29.43,102.03 C38.94,101.1 42.66,104.82 48.24,104.13 C53.82,103.44 71.94,102.27 77.73,93.69 C83.55,85.11 95.85,66.06 103.05,62.58 C110.25,59.1 115.35,42.15 113.97,37.95 C112.92,34.8 112.26,21.54 115.86,12 C117.54,7.53 118.32,7.17 124.5,7.05 C125.1,7.05 125.7,6.96 126.27,6.84 C126.9,6.69 127.77,6.51 128.4,6.36 C132.75,5.43 132.9,3.63 132.9,3.63 C133.74,3.09 134.88,3.72 134.88,4.71 L134.88,4.71 L132.57,7.74 L130.71,10.29 L129.09,14.25 L128.16,17.04 L131.19,16.59 L137.7,13.8 L144.21,12.18 L148.62,11.94 L156.99,14.04 L161.88,16.35 L165.84,19.38 L168.87,11.49 L174.9,6.39 L180.72,5.7 L182.58,7.08 L179.34,0.81 L184.68,0.12 L193.5,1.29 L198.99,5.97 L200.88,13.5 L196.8,26.04 L187.08,44.85 L174.54,67.41 L169.2,83.7 L156.03,104.7 L147.87,116.94 L136.59,128.55 L121.8,139.77 L107.37,145.41 L90.45,149.16 L71.64,153.54 L54.39,154.17 L37.47,150.72 L22.41,141.63 L10.8,129.72 L10.17,128.94 L2.31,113.37 Z" id="Path"></path>
                </g>
                <g id="Contours" fill="#000000">
                    <path d="M200.07,82.44 C198.21,86.64 196.38,90.72 194.46,94.74 C192.99,97.83 191.76,101.1 189.75,103.8 C187.05,107.43 184.59,111.18 182.73,115.26 C181.23,118.5 180.42,122.07 179.13,125.43 C178.53,126.96 177.45,128.31 176.79,129.84 C174.84,134.37 173.13,138.99 171.03,143.43 C169.86,145.89 168.18,148.17 166.56,150.39 C165.09,152.4 163.74,154.38 162.78,156.75 C161.91,158.91 160.26,160.8 158.82,162.72 C157.05,165.09 155.22,167.46 153.27,169.68 C151.05,172.2 148.77,174.66 146.31,176.91 C143.82,179.22 141.12,181.35 138.39,183.36 C134.91,185.94 131.31,188.34 127.74,190.77 C123.06,193.98 117.87,195.99 112.44,197.46 C107.82,198.69 103.26,200.1 98.67,201.33 C93.6,202.68 88.53,204.06 83.4,205.17 C79.92,205.92 76.35,206.22 72.84,206.7 C70.77,207 70.35,206.64 68.28,206.88 C67.95,206.91 53.85,206.79 50.52,205.77 C42.75,203.43 35.79,199.44 29.31,194.61 C26.37,192.42 23.07,190.53 20.67,187.86 C17.31,184.17 14.43,179.97 11.76,175.77 C8.4,170.49 5.37,165 2.34,159.51 C0.99,157.05 0.39,154.29 0.27,151.41 C-0.03,147.18 0.63,143.1 2.28,139.2 C4.86,133.08 12.93,130.41 17.7,135.66 C19.32,137.46 20.97,139.2 22.65,140.91 C24.87,143.19 27.48,144.33 30.81,144.36 C35.55,144.42 40.29,144.69 45,145.68 C47.37,146.19 50.01,145.77 52.47,145.44 C55.38,145.05 58.26,144.33 61.14,143.67 C63.36,143.16 65.55,142.53 67.77,142.02 C68.55,141.84 69.39,141.84 70.17,141.69 C72.75,141.21 74.22,139.2 75.63,137.34 C78.48,133.65 81.15,129.78 83.79,125.94 C84.93,124.26 85.98,122.49 86.82,120.63 C88.17,117.6 90.72,115.71 93,113.52 C94.59,112.02 96.09,110.43 97.62,108.87 C98.31,108.15 99.06,107.49 99.72,106.74 C102.36,103.8 105.15,100.98 107.61,97.89 C109.68,95.28 109.77,92.13 109.35,88.83 C109.08,86.67 109.65,84.42 109.86,82.23 C110.04,80.46 110.28,78.72 110.46,76.95 C110.88,72.54 111,68.07 111.72,63.72 C112.62,58.47 115.65,54.33 120.27,51.75 C125.67,48.75 131.25,46.08 136.8,43.35 C138.93,42.3 141.18,41.46 143.46,40.65 C147.3,39.3 147.81,37.32 147.03,33.84 C145.83,28.62 144,23.55 142.44,18.45 C141.48,15.33 140.49,12.18 139.41,9.09 C138.87,7.56 139.32,6.36 140.28,5.34 C143.01,2.43 146.52,0.84 150.33,0.09 C151.59,-0.15 153,0.45 154.35,0.72 C154.98,0.84 155.61,1.08 156.24,1.2 C157.74,1.5 158.01,2.73 158.46,3.9 C159.87,7.65 161.52,11.31 162.72,15.12 C163.86,18.81 164.61,22.62 165.45,26.4 C166.23,29.97 166.77,33.6 167.61,37.17 C167.88,38.31 168.54,39.39 170.28,39.18 C174.27,38.76 177.96,39.87 181.41,41.79 C184.2,43.35 186.9,45.12 189.78,46.47 C191.73,47.4 193.89,47.88 196.02,48.36 C202.38,49.86 205.8,53.49 206.76,59.85 C207.39,64.11 206.52,67.95 204.72,71.79 C203.16,75.12 201.87,78.57 200.43,81.96 C200.31,82.08 200.16,82.2 200.07,82.44 L200.07,82.44 Z M188.7,87.36 C189.6,87.12 190.53,86.58 191.37,86.67 C193.38,86.88 193.89,86.61 194.07,84.63 C194.19,83.55 194.55,82.71 195.9,82.71 C197.22,82.71 198.06,82.14 198.57,80.7 C200.19,76.14 202.11,71.7 203.73,67.17 C204.33,65.52 204.69,63.69 204.69,61.95 C204.72,60.72 204.03,59.49 203.58,58.26 C202.71,55.77 201.6,53.43 198.99,52.29 C197.58,51.66 196.14,51.78 194.58,51.87 C192.09,52.05 189.57,51.72 187.05,51.69 C186.6,51.69 186.12,52.11 185.67,52.32 C186.06,52.65 186.45,52.95 186.84,53.28 C187.65,53.97 188.94,54.57 189.12,55.38 C189.48,57.12 189.24,58.98 189.21,60.78 C189.21,60.84 188.61,60.99 188.52,60.9 C187.83,60.12 187.17,59.28 186.57,58.44 C185.58,57.03 183.36,56.01 181.92,56.46 C179.28,57.3 176.97,58.65 175.5,61.08 C174.21,63.21 172.89,65.31 173.37,68.04 C173.55,69 173.16,70.11 172.92,71.1 C172.71,72 172.05,72.33 171.3,71.76 C169.68,70.5 167.94,69.33 166.59,67.8 C164.49,65.46 162.3,63.42 159.09,62.67 C155.46,61.83 151.89,62.01 148.23,62.64 C143.34,63.48 139.2,65.55 135.81,69.09 C134.79,70.17 133.68,71.01 132.18,71.19 C131.52,71.28 130.38,71.49 130.26,71.25 C129.9,70.53 129.57,69.45 129.87,68.82 C131.37,65.46 132.96,62.13 134.7,58.89 C135.42,57.57 136.68,56.52 137.58,55.29 C137.88,54.9 138.12,54.18 137.94,53.82 C137.73,53.4 137.04,52.86 136.59,52.92 C134.4,53.16 132.21,53.61 130.02,53.94 C127.62,54.3 125.22,54.9 122.88,53.64 C122.55,53.46 122.07,53.52 121.68,53.64 C119.55,54.21 118.11,55.68 116.94,57.39 C115.59,59.37 115.14,61.74 114.78,64.11 C114.12,68.61 113.22,73.08 112.8,77.61 C112.41,81.78 112.71,86.01 112.38,90.18 C112.2,92.31 111.54,94.5 110.76,96.51 C109.02,100.89 105.81,104.25 102.66,107.64 C99.72,110.76 96.6,113.7 93.6,116.76 C92.55,117.84 91.56,118.98 90.66,120.18 C88.65,122.85 86.7,125.61 84.72,128.31 C82.02,131.97 79.32,135.63 76.62,139.29 C74.79,141.72 72.33,143.34 69.39,144.03 C64.59,145.14 59.79,146.19 54.96,147 C52.2,147.48 49.35,147.69 46.56,147.57 C42.33,147.39 38.13,146.79 33.9,146.46 C32.7,146.37 31.5,146.64 30.3,146.73 C27.09,146.94 24.3,145.89 22.05,143.64 C20.01,141.6 18.21,139.32 16.2,137.28 C14.37,135.39 11.94,134.94 9.54,135.51 C6.69,136.2 5.34,138.42 5.25,141.33 C5.22,143.22 5.07,145.14 3.93,146.61 C2.64,148.26 2.16,149.88 2.49,151.92 C3.12,155.73 4.29,159.33 6.3,162.6 C9,166.98 11.79,171.33 14.82,175.5 C16.38,177.66 18.3,179.73 21.09,180.39 C22.44,180.72 23.85,180.66 25.23,180.87 C26.01,180.99 26.76,181.29 27.51,181.5 C26.94,181.86 26.37,182.22 25.77,182.55 C25.5,182.7 25.11,182.76 24.9,182.97 C24.15,183.69 22.83,184.14 23.19,185.43 C23.43,186.27 24.09,187.32 24.84,187.65 C26.13,188.22 27.72,188.76 29.04,188.55 C32.19,188.04 35.28,187.08 38.43,186.36 C40.08,185.97 41.73,185.67 43.38,185.37 C43.56,185.34 43.83,185.64 44.04,185.82 C43.47,186.57 43.05,187.59 42.3,187.98 C40.47,188.94 38.52,189.63 36.6,190.44 C35.49,190.92 34.8,191.67 35.07,192.96 C35.4,194.49 36.78,195.57 38.4,195.51 C39.42,195.48 40.41,195.39 41.4,195.21 C43.83,194.76 46.29,194.34 48.69,193.68 C50.37,193.23 51.93,192.39 53.58,191.79 C54,191.64 54.54,191.79 55.05,191.79 C54.75,192.24 54.45,192.69 54.15,193.11 C54.06,193.23 53.91,193.26 53.79,193.35 C51.54,194.79 49.32,196.23 47.07,197.67 C45.93,198.39 46.32,199.5 46.86,200.16 C47.4,200.82 48.6,201.57 49.23,201.39 C54.42,199.89 59.49,198.03 64.08,195.06 C64.47,194.82 65.07,194.91 65.58,194.82 C65.4,195.27 65.31,195.84 64.98,196.17 C63.84,197.31 62.58,198.33 61.44,199.47 C60.63,200.28 60.9,201.09 61.95,201.48 C65.25,202.71 68.25,201.72 70.98,199.98 C73.44,198.39 75.72,196.47 78.09,194.76 C78.45,194.49 79.02,194.52 79.5,194.4 C79.62,194.91 79.83,195.39 79.83,195.9 C79.83,196.23 79.41,196.5 79.29,196.86 C78.96,197.73 78.54,198.57 78.42,199.47 C78.27,200.73 79.29,201.57 80.52,201.18 C84.72,199.83 88.38,197.61 90.9,193.89 C92.01,192.24 92.88,190.44 93.93,188.73 C94.17,188.34 94.65,188.07 95.04,187.77 C95.25,188.13 95.61,188.49 95.67,188.88 C95.76,189.48 95.64,190.14 95.55,190.77 C95.31,192.3 95.01,193.83 94.83,195.39 C94.8,195.72 95.22,196.38 95.49,196.41 C96.42,196.5 97.35,196.59 98.16,195.69 C101.67,191.85 103.95,187.26 106.77,182.97 C107.19,182.31 107.91,181.86 108.48,181.32 C108.45,182.1 108.6,182.94 108.36,183.66 C107.28,186.75 106.02,189.75 104.94,192.84 C104.73,193.47 104.82,194.67 105.24,194.97 C105.72,195.33 106.8,195.21 107.46,194.94 C108.15,194.67 108.78,194.1 109.23,193.5 C111.33,190.74 113.4,187.98 115.38,185.16 C117.06,182.73 118.62,180.24 120.24,177.78 C120.42,177.51 120.72,177.36 120.96,177.15 C120.93,177.45 120.93,177.78 120.84,178.05 C120.33,179.67 120.03,181.41 119.22,182.88 C117.93,185.22 118.29,187.41 119.19,189.66 C119.67,190.83 120.93,191.25 121.8,190.44 C122.97,189.36 124.17,188.19 124.89,186.81 C126.84,183.21 128.52,179.46 130.32,175.77 C130.62,175.2 130.98,174.66 131.34,174.09 C131.43,173.97 131.55,173.88 131.64,173.76 C131.7,173.94 131.82,174.09 131.79,174.27 C131.61,176.13 131.28,177.99 131.28,179.85 C131.28,180.81 131.67,181.95 132.3,182.61 C132.66,183 134.07,183 134.61,182.61 C135.9,181.68 137.07,180.54 138.03,179.31 C140.1,176.64 140.88,173.4 141.63,170.22 C142.08,168.36 142.41,166.47 142.86,164.61 C142.98,164.16 143.34,163.74 143.61,163.32 C143.76,163.8 143.97,164.28 144.03,164.79 C144.09,165.54 144.09,166.29 144.03,167.04 C143.97,167.76 143.76,168.45 143.76,169.17 C143.79,170.55 145.5,171.66 146.43,170.73 C147.66,169.53 148.71,167.97 149.37,166.38 C151.2,162.06 151.68,157.47 151.53,152.79 C151.5,152.28 151.59,151.71 151.8,151.26 C151.98,150.93 152.43,150.72 152.76,150.45 C152.94,150.81 153.27,151.17 153.27,151.53 C153.33,153.63 153.3,155.7 153.3,157.8 C153.3,158.82 153.54,159.75 154.68,159.99 C156.06,160.32 156.81,159.42 157.17,158.31 C158.73,153.51 159.63,148.59 159.3,143.49 C159.27,142.83 159.27,142.11 159.48,141.48 C159.72,140.73 160.2,140.1 160.59,139.38 C160.86,140.16 161.13,140.94 161.4,141.72 C161.91,143.25 162.36,144.81 162.93,146.31 C163.02,146.52 163.62,146.79 163.74,146.7 C165.18,145.74 166.71,144.84 167.07,142.92 C167.46,140.88 167.97,138.87 168.24,136.83 C168.48,134.94 168.6,133.02 168.51,131.13 C168.39,129.06 167.85,126.99 167.73,124.92 C167.67,124.17 168.27,123.39 168.57,122.61 C168.6,122.55 168.84,122.52 168.84,122.55 C169.14,123.12 169.56,123.66 169.74,124.26 C170.1,125.61 170.19,127.08 170.73,128.34 C171.12,129.24 171.9,130.29 172.77,130.62 C174.03,131.13 174.45,129.69 174.72,128.85 C175.83,125.31 176.97,121.74 176.91,117.96 C176.85,114.21 176.55,110.46 176.34,106.71 C176.34,106.44 176.43,106.2 176.49,105.93 C176.64,106.17 176.85,106.38 176.91,106.65 C177.24,107.82 177.39,109.05 177.87,110.13 C178.11,110.73 178.86,111.45 179.4,111.48 C179.97,111.51 180.93,110.82 181.05,110.28 C182.04,105.93 183.69,101.67 182.91,97.08 C182.85,96.69 182.85,96.27 182.91,95.88 C182.94,95.73 183.18,95.61 183.3,95.46 C183.36,95.61 183.42,95.76 183.48,95.94 C183.99,97.68 184.47,99.42 185.01,101.13 C185.07,101.31 185.52,101.55 185.64,101.46 C187.2,100.62 188.25,97.53 187.92,95.76 C187.53,92.91 187.65,90.18 188.7,87.36 L188.7,87.36 Z M145.68,13.89 C147.18,17.76 148.68,21.6 150.15,25.47 C150.99,27.72 151.62,30.03 152.61,32.22 C153.03,33.18 154.2,33.81 154.83,34.71 C156.81,37.65 156.63,42.9 154.35,45.51 C153.45,46.56 152.4,47.49 151.41,48.45 C150.75,49.08 150.93,49.47 151.68,49.86 C153.15,50.64 154.02,49.53 155.1,48.93 C155.43,48.75 155.79,48.66 156.12,48.51 C156,49.02 156.06,49.71 155.76,49.98 C155.01,50.67 154.02,51.06 153.21,51.72 C151.98,52.74 150.69,53.76 149.7,54.99 C149.1,55.71 149.01,56.85 148.71,57.81 C149.64,57.75 150.6,57.66 151.53,57.6 C153.15,57.48 154.77,57.33 156.39,57.33 C157.68,57.33 159,57.51 160.29,57.6 C161.46,57.69 162.03,57.15 161.76,56.01 C161.55,55.17 161.16,54.36 160.89,53.55 C160.8,53.22 160.77,52.89 160.74,52.56 C161.22,52.62 161.67,52.68 162.15,52.8 C162.27,52.83 162.27,53.16 162.39,53.28 C163.11,54.03 163.74,54.99 164.61,55.47 C166.71,56.64 167.94,58.14 167.85,60.72 C167.82,61.44 168.93,62.25 169.62,62.88 C169.83,63.06 170.67,62.94 170.88,62.7 C172.05,61.26 173.22,59.82 174.12,58.23 C174.57,57.42 174.78,56.13 173.7,55.44 C171.06,53.73 169.29,50.76 165.87,50.16 C165.54,50.1 165.33,49.47 165.09,49.11 C165.48,48.87 165.96,48.36 166.29,48.45 C167.52,48.81 168.81,49.17 169.86,49.86 C170.91,50.55 171.84,51.54 172.62,52.56 C175.11,55.8 179.82,55.44 182.67,53.79 C183.48,53.31 183.54,52.8 183,52.17 C182.67,51.75 182.25,51.39 181.8,51.09 C180.21,50.01 178.62,48.96 176.97,47.94 C174.15,46.17 171.42,44.19 167.88,43.86 C166.44,43.71 165.33,42.48 165.06,40.98 C164.55,38.13 164.28,35.25 163.83,32.37 C163.38,29.4 163.17,26.31 162.24,23.46 C160.62,18.42 158.61,13.53 156.63,8.61 C156.3,7.77 155.4,7.05 154.59,6.54 C154.23,6.3 153.36,6.39 152.94,6.69 C152.67,6.87 152.64,7.68 152.73,8.16 C153,9.51 153.45,10.86 153.75,12.21 C153.84,12.6 153.75,13.08 153.57,13.41 C153.18,14.04 152.4,14.58 152.28,15.24 C152.13,16.02 152.46,16.92 152.73,17.7 C153.42,19.74 154.23,21.75 154.86,23.82 C155.04,24.36 154.71,25.08 154.62,25.71 C154.23,25.2 153.63,24.78 153.45,24.21 C152.4,21.27 151.44,18.27 150.42,15.3 C150.15,14.55 149.55,13.95 150.54,13.14 C152.07,11.88 152.01,11.19 150.66,9.69 C150.15,9.12 149.64,8.61 149.07,8.1 C147.72,6.93 145.05,7.38 144.81,8.94 C144.6,10.47 144.57,12.15 145.68,13.89 L145.68,13.89 Z M131.94,48.24 C131.73,48.45 131.46,48.63 131.31,48.87 C131.01,49.47 130.77,50.1 130.53,50.7 C131.19,50.91 131.85,51.3 132.51,51.33 C133.62,51.36 134.76,51.3 135.81,51.03 C136.77,50.76 137.82,50.37 138.51,49.68 C140.31,47.82 142.8,47.73 144.99,46.92 C145.17,46.86 145.44,47.01 145.68,47.04 C145.56,47.28 145.47,47.61 145.26,47.76 C144.39,48.39 143.52,49.08 142.56,49.53 C141.51,50.04 141.3,50.64 141.63,51.72 C142.2,53.46 141.75,54.48 140.52,55.53 C139.11,56.76 137.64,58.02 136.59,59.52 C135.66,60.84 135.21,62.52 134.64,64.05 C134.4,64.68 134.82,64.98 135.42,64.8 C138.36,63.9 141.45,63.15 143.55,60.72 C144.72,59.37 145.32,57.54 146.46,56.13 C148.98,53.04 150.33,49.83 149.64,45.69 C149.22,43.2 147.45,42.57 145.29,43.23 C140.82,44.61 136.86,47.46 131.94,48.24 L131.94,48.24 Z M186.93,48.24 C187.35,47.82 188.01,47.49 186.9,46.98 C184.08,45.66 181.32,44.13 178.47,42.87 C178.05,42.69 177.21,43.41 176.55,43.68 C176.76,44.04 176.85,44.46 177.15,44.7 C179.94,47.01 182.97,48.69 186.93,48.24 L186.93,48.24 Z M155.25,38.37 C155.07,36.87 153.87,37.26 153.06,37.38 C152.13,37.53 151.32,38.1 151.38,39.21 C151.44,40.77 151.5,42.3 151.71,43.83 C151.77,44.28 152.31,44.67 152.64,45.09 C153,44.76 153.6,44.52 153.72,44.13 C154.29,42.33 154.74,40.5 155.25,38.37 L155.25,38.37 Z M165.27,57.93 C164.82,58.32 164.25,58.65 163.98,59.13 C163.86,59.34 164.4,59.88 164.64,60.3 C165.03,60.03 165.63,59.85 165.72,59.52 C165.84,59.1 165.54,58.56 165.27,57.93 Z" id="Shape"></path>
                    <path d="M50.67,77.67 C54.36,83.01 58.05,88.2 61.71,93.42 C62.04,93.9 62.1,94.62 62.25,95.22 C61.59,94.92 60.78,94.8 60.33,94.29 C58.47,92.25 56.7,90.12 54.93,88.02 C54.57,87.57 54.27,87.09 53.88,86.67 C51.18,83.85 48.33,81.15 45.78,78.21 C42.57,74.46 39.63,70.5 36.54,66.66 C35.34,65.16 34.05,63.69 32.73,62.25 C29.73,59.01 26.67,55.8 23.67,52.56 C21.72,50.46 19.8,48.3 17.85,46.17 C16.86,45.09 16.95,44.22 18.12,43.41 C20.31,41.88 22.53,40.38 24.75,38.85 C26.25,37.83 26.79,37.95 27.63,39.54 C29.64,43.32 31.53,47.19 33.66,50.91 C37.8,58.2 41.85,65.58 46.92,72.3 C48.27,74.01 49.44,75.78 50.67,77.67 Z" id="Path"></path>
                    <path d="M40.59,105.36 C42.36,106.74 44.13,107.97 45.75,109.35 C47.58,110.91 49.29,112.62 51,114.3 C51.33,114.63 51.33,115.29 51.48,115.8 C50.91,115.83 50.25,116.07 49.83,115.83 C44.07,112.8 38.34,109.68 32.61,106.62 C29.16,104.79 25.65,103.02 22.17,101.22 C21,100.62 20.43,99.78 21.09,98.37 C22.17,96.09 23.07,93.72 24.12,91.41 C24.63,90.3 25.5,90 26.43,90.87 C28.44,92.79 30.39,94.77 32.34,96.75 C34.86,99.33 37.32,101.94 39.81,104.52 C40.02,104.82 40.29,105.06 40.59,105.36 Z" id="Path"></path>
                    <path d="M78.18,72 C78.39,73.98 78.69,75.81 78.72,77.64 C78.72,78.24 78.09,78.84 77.76,79.47 C77.25,79.08 76.53,78.78 76.26,78.27 C75.15,76.17 74.13,73.98 73.11,71.82 C71.7,68.73 70.2,65.67 68.94,62.49 C67.5,58.86 66.24,55.14 65.07,51.42 C64.71,50.28 65.67,49.41 66.72,49.08 C68.94,48.39 71.19,47.82 73.44,47.28 C74.79,46.95 75.66,48 75.75,50.01 C75.78,50.82 75.42,51.63 75.51,52.41 C75.75,55.14 76.08,57.84 76.38,60.54 C76.59,62.34 76.71,64.17 77.01,65.97 C77.31,67.89 77.76,69.87 78.18,72 Z" id="Path"></path>
                    <path d="M129.93,144.06 C126.6,147.36 123.57,150.84 119.58,153.21 C116.88,154.8 114.12,156.33 111.36,157.83 C110.97,158.04 110.4,157.92 109.92,157.98 C110.19,157.59 110.4,157.11 110.76,156.87 C113.67,155.04 116.7,153.36 119.55,151.44 C122.94,149.19 126,146.55 128.58,143.37 C129.93,141.69 131.49,140.19 132.99,138.63 C137.88,133.59 142.53,128.34 145.71,121.95 C145.86,121.65 146.34,121.5 146.64,121.29 C146.61,121.59 146.67,121.92 146.58,122.22 C145.41,125.61 143.55,128.64 141.18,131.34 C137.73,135.27 134.28,139.23 130.83,143.16 C130.59,143.43 130.29,143.7 129.93,144.06 Z" id="Path"></path>
                    <path d="M104.1,154.68 C100.92,157.68 97.17,159.63 93.33,161.31 C90.9,162.39 88.44,163.41 85.98,164.43 C85.74,164.55 85.44,164.58 85.17,164.58 C84.93,164.58 84.72,164.49 84.48,164.43 C84.57,164.22 84.63,163.92 84.81,163.83 C86.13,163.05 87.42,162.27 88.8,161.61 C92.61,159.78 96.6,158.25 100.23,156.15 C103.05,154.5 105.45,152.16 108.03,150.15 C108.3,149.94 108.57,149.79 108.84,149.61 C109.14,149.43 109.47,149.28 109.77,149.13 C109.65,149.49 109.62,150 109.35,150.24 C107.67,151.74 105.9,153.15 104.1,154.68 Z" id="Path"></path>
                    <path d="M94.68,128.82 C96.78,125.52 98.58,122.07 100.95,119.13 C102.45,117.3 104.85,116.25 106.86,114.84 C106.98,114.75 107.19,114.78 107.37,114.78 C107.28,114.93 107.25,115.11 107.13,115.23 C106.47,115.98 105.87,116.88 105.09,117.48 C102.12,119.64 100.2,122.7 98.19,125.64 C96.99,127.41 95.94,129.27 94.8,131.07 C94.65,131.31 94.32,131.46 94.08,131.64 C93.96,131.28 93.66,130.89 93.75,130.62 C93.93,130.02 94.29,129.48 94.68,128.82 Z" id="Path"></path>
                    <path d="M122.61,137.94 C123.69,136.86 124.68,135.81 125.76,134.82 C126,134.61 126.48,134.64 126.87,134.55 C126.69,134.82 126.57,135.12 126.36,135.36 C124.11,137.91 121.92,140.49 119.61,142.98 C118.41,144.27 117.09,145.44 115.71,146.55 C115.35,146.85 114.66,146.79 114.12,146.91 C114.3,146.46 114.36,145.92 114.66,145.59 C116.73,143.46 118.83,141.36 120.96,139.26 C121.44,138.81 122.01,138.42 122.61,137.94 Z" id="Path"></path>
                    <path d="M32.76,169.08 C32.07,168.63 31.53,168.18 30.99,167.7 C31.62,167.76 32.28,167.73 32.88,167.88 C36.27,168.75 39.66,169.65 43.08,170.55 C43.29,170.61 43.53,170.7 43.68,170.85 C43.95,171.06 44.16,171.33 44.4,171.57 C44.01,171.72 43.62,172.02 43.26,171.99 C39.6,171.78 36.18,170.67 32.76,169.08 Z" id="Path"></path>
                    <path d="M49.26,169.32 C47.64,168.18 46.08,167.16 44.55,166.08 C44.4,165.96 44.31,165.75 44.19,165.57 C44.4,165.45 44.58,165.27 44.79,165.21 C46.17,164.91 47.7,165.63 48.6,166.8 C49.77,168.36 51.51,168.9 53.31,169.38 C53.46,169.41 53.64,169.32 53.76,169.38 C54.33,169.68 54.87,170.04 55.44,170.37 C54.9,170.52 54.3,170.94 53.82,170.82 C52.29,170.46 50.82,169.89 49.26,169.32 Z" id="Path"></path>
                    <path d="M114.09,160.2 C115.68,159.12 117.18,158.07 118.71,157.08 C119.07,156.84 119.52,156.78 119.94,156.63 C119.79,156.99 119.76,157.44 119.52,157.74 C117.48,160.29 114.6,161.64 111.78,163.08 C111.45,163.26 110.94,163.05 110.49,162.99 C110.73,162.72 110.94,162.36 111.24,162.15 C112.14,161.52 113.1,160.89 114.09,160.2 Z" id="Path"></path>
                    <path d="M152.04,80.88 C152.73,78.15 153.45,75.48 154.29,72.84 C154.47,72.27 155.22,71.88 155.7,71.4 C155.7,72.09 155.82,72.84 155.64,73.5 C155.25,74.73 154.68,75.87 154.23,77.07 C153.84,78.09 153.57,79.17 153.15,80.19 C152.97,80.52 152.46,80.7 152.04,80.88 Z" id="Path"></path>
                    <path d="M33.66,160.11 C35.52,160.5 37.26,160.86 38.94,161.34 C39.36,161.46 39.6,162.12 39.93,162.54 C39.6,162.63 39.21,162.84 38.91,162.78 C36.99,162.33 35.04,161.82 33.15,161.28 C32.91,161.22 32.82,160.68 32.67,160.35 C32.94,160.26 33.24,160.2 33.66,160.11 Z" id="Path"></path>
                    <path d="M184.14,74.61 C183.21,73.77 183.54,72.81 183.93,71.82 C184.44,70.5 185.25,69.21 184.53,67.68 C184.44,67.5 184.74,67.17 184.86,66.9 C185.13,67.11 185.67,67.29 185.67,67.5 C185.76,68.61 185.91,69.75 185.67,70.8 C185.37,72.09 184.74,73.29 184.14,74.61 Z" id="Path"></path>
                    <path d="M99.6,131.67 C100.44,130.56 101.19,129.48 102.03,128.49 C102.24,128.25 102.9,128.01 102.63,128.79 C102.36,129.57 101.97,130.32 101.46,130.98 C100.47,132.27 99.39,133.5 98.31,134.73 C98.16,134.88 97.86,134.88 97.62,134.94 C97.71,134.73 97.74,134.52 97.86,134.34 C98.4,133.44 98.97,132.6 99.6,131.67 Z" id="Path"></path>
                    <path d="M154.44,85.65 C155.58,83.55 156.81,81.51 158.07,79.5 C158.16,79.38 158.34,79.32 158.49,79.23 C158.52,79.41 158.55,79.62 158.55,79.8 C158.52,81.45 157.47,82.56 156.51,83.73 C155.88,84.42 155.16,85.05 154.44,85.65 Z" id="Path"></path>
                    <path d="M189.69,64.29 C190.74,64.77 190.59,65.73 190.5,66.57 C190.38,67.74 190.14,68.88 189.93,70.02 C189.9,70.17 189.81,70.29 189.75,70.44 C189.63,70.29 189.36,70.14 189.36,70.02 C189.39,68.13 189.51,66.24 189.69,64.29 Z" id="Path"></path>
                    <path d="M123.21,61.14 C123.6,60.75 123.9,60.42 124.23,60.15 C124.53,59.88 124.92,59.67 125.25,59.46 C125.25,59.97 125.37,60.54 125.19,60.93 C124.86,61.62 124.35,62.25 123.87,62.88 C123.75,63.03 123.33,63.09 123.21,63 C122.97,62.82 122.73,62.49 122.73,62.22 C122.73,61.89 122.97,61.56 123.21,61.14 Z" id="Path"></path>
                    <path d="M121.2,104.55 C120.75,105.24 120.3,105.78 119.85,106.32 C119.91,105.57 119.94,104.85 120.03,104.13 C120.06,103.95 120.21,103.8 120.33,103.65 C120.75,103.17 121.17,102.72 121.59,102.27 C121.59,102.27 121.83,102.39 121.83,102.42 C121.59,103.08 121.38,103.74 121.2,104.55 Z" id="Path"></path>
                    <path d="M133.8,81.03 C133.14,81.69 132.57,82.32 131.94,82.86 C131.76,83.01 131.43,82.98 131.16,83.01 C131.22,82.77 131.22,82.47 131.37,82.29 C132.09,81.42 132.81,80.61 133.59,79.8 C133.68,79.68 134.04,79.8 134.28,79.83 C134.13,80.19 134.01,80.58 133.8,81.03 Z" id="Path"></path>
                    <path d="M132.18,125.85 C132.15,126.12 132.09,126.39 131.94,126.51 C131.76,126.63 131.46,126.63 131.22,126.69 C131.31,126.48 131.37,126.24 131.49,126.09 C131.64,125.91 131.88,125.85 132.18,125.85 Z" id="Path"></path>
                    <path d="M161.82,41.22 C161.73,42.36 161.64,43.38 161.49,44.37 C161.49,44.43 161.1,44.52 161.1,44.52 C160.74,43.68 160.17,42.87 160.05,41.97 C159.75,39.54 159.63,37.08 159.39,34.62 C159.27,33.36 159,32.1 158.82,30.84 C158.79,30.6 158.76,30.33 158.82,30.09 C158.94,29.7 159.12,29.34 159.27,28.98 C159.51,29.28 159.9,29.55 159.96,29.88 C160.23,30.96 160.41,32.1 160.56,33.21 C160.89,35.58 161.16,37.92 161.46,40.29 C161.58,40.56 161.73,40.8 161.82,41.22 Z" id="Path"></path>
                    <path d="M156.15,16.71 C156.96,18.36 157.62,20.01 158.22,21.69 C158.31,21.93 158.01,22.29 157.89,22.59 C157.65,22.41 157.26,22.29 157.17,22.05 C156.63,20.28 156.18,18.48 155.7,16.71 C155.79,16.71 155.91,16.71 156.15,16.71 Z" id="Path"></path>
                </g>
            </g>
        </g>
    </g>
</svg>