<?xml version="1.0" encoding="UTF-8"?>
<svg width="200px" height="218px" viewBox="0 0 200 218" version="1.1" xmlns="http://www.w3.org/2000/svg" xmlns:xlink="http://www.w3.org/1999/xlink">
    <!-- Generator: Sketch 53 (72520) - https://sketchapp.com -->
    <title>conversation</title>
    <desc>Created with Sketch.</desc>
    <g id="Welcome" stroke="none" stroke-width="1" fill="none" fill-rule="evenodd">
        <g id="HOME" transform="translate(-990.000000, -5951.000000)" fill="#FFFFFF" fill-rule="nonzero">
            <g id="conversation" transform="translate(990.000000, 5951.000000)">
                <path d="M60.2406015,109.11978 C60.5112782,109.778571 60.8721805,110.287637 61.0526316,110.826648 C61.8045113,113.162363 63.3082707,113.132418 64.962406,111.874725 C65.924812,111.126099 66.6165414,110.018132 67.3984962,109.05989 C69.7744361,106.185165 73.3834586,104.747802 76.8120301,107.412912 C78.1954887,108.490934 78.3157895,110.167857 78.0150376,111.754945 C77.7443609,113.312088 78.9172932,115.018956 80.5112782,115.108791 C81.443609,115.168681 82.3759398,115.228571 83.2781955,115.408242 C83.518797,115.468132 83.7293233,116.007143 83.8496241,116.366484 C83.9699248,116.725824 83.9398496,117.11511 83.9699248,117.474451 C84.4210526,117.35467 84.9924812,117.384615 85.2330827,117.085165 C85.5639098,116.695879 85.8045113,116.067033 85.7744361,115.557967 C85.7142857,111.48544 85.6541353,107.442857 85.5037594,103.37033 C85.3533835,99.0881868 85.2030075,94.835989 84.9323308,90.5538462 C84.7518797,87.6491758 86.4661654,87.1700549 88.5112782,86.9005495 C89.5639098,86.7807692 90.6466165,86.7208791 91.6992481,86.6010989 C91.9097744,86.5711538 92.0902256,86.4214286 92.2706767,86.3315934 C92.1503759,86.1519231 92.0902256,85.8824176 91.9097744,85.7626374 C89.9849624,84.1456044 89.7443609,81.8098901 89.3834586,79.564011 C89.1428571,78.0967033 89.0225564,76.5994505 89.112782,75.1321429 C89.3834586,71.5387363 89.9548872,67.9752747 92.1203008,64.8909341 C93.7744361,62.5552198 95.4887218,60.2793956 97.1428571,57.9436813 C98.8571429,55.578022 99.6090226,52.7931319 100,49.9782967 C100.270677,48.0019231 100.06015,45.9357143 100.06015,43.9293956 C100.06015,43.6598901 100.06015,43.3903846 100.06015,43.1208791 C100.030075,41.982967 100.120301,40.8151099 99.9699248,39.6771978 C99.8796992,38.9285714 99.3984962,38.0901099 100.300752,37.7307692 C101.142857,37.4013736 101.714286,38.1200549 101.984962,38.8686813 C102.255639,39.6173077 102.556391,40.3958791 102.616541,41.2043956 C102.917293,44.5582418 103.308271,47.942033 103.308271,51.2958791 C103.308271,54.3802198 102.796992,57.4346154 102.556391,60.518956 C102.496241,61.1777473 102.706767,61.8964286 102.947368,62.5252747 C103.578947,64.2321429 105.353383,64.5016484 106.406015,62.8846154 C107.909774,60.6387363 108.81203,58.1532967 109.172932,55.3983516 C109.774436,50.8167582 108.451128,46.5945055 107.18797,42.3423077 C106.075188,38.5392857 105.082707,34.6763736 105.62406,30.7236264 C105.924812,28.5675824 107.007519,26.4714286 107.789474,24.4052198 C107.879699,24.1956044 108.390977,24.1357143 108.691729,24.0159341 C108.842105,24.3752747 109.172932,24.7945055 109.082707,25.064011 C107.518797,29.0167582 109.413534,32.4903846 110.646617,36.0239011 C110.766917,36.3832418 111.278195,36.5928571 111.609023,36.8623626 C111.609023,36.4431319 111.639098,36.0239011 111.578947,35.6346154 C111.12782,32.9096154 111.218045,30.2445055 111.969925,27.5494505 C112.932331,24.1057692 113.744361,20.6321429 114.586466,17.1585165 C114.616541,17.0686813 114.586466,16.9788462 114.586466,16.889011 C114.676692,14.0142857 114.977444,11.1096154 114.796992,8.26483516 C114.676692,6.19862637 113.864662,4.19230769 113.383459,2.18598901 C113.353383,2.06620879 113.233083,1.94642857 113.233083,1.85659341 C113.293233,1.31758242 113.383459,0.778571429 113.473684,0.269505495 C113.804511,0.628846154 114.165414,0.988186813 114.466165,1.37747253 C117.744361,5.50989011 117.383459,10.4208791 117.293233,15.242033 C117.263158,16.4398352 116.601504,17.7274725 116.842105,18.8354396 C117.323308,20.9016484 116.992481,22.9978022 117.443609,25.093956 C118.075188,27.9686813 119.18797,30.6038462 120.390977,33.2090659 C121.804511,36.2335165 123.759398,39.0184066 125.233083,42.0129121 C126.616541,44.7978022 127.669173,47.7324176 128.842105,50.6370879 C129.533835,52.343956 130.285714,54.0807692 130.736842,55.8774725 C131.428571,58.6623626 131.879699,61.5071429 132.421053,64.3519231 C132.571429,65.1304945 132.691729,65.9090659 132.691729,66.6876374 C132.721805,71.5986264 131.578947,76.2401099 129.323308,80.6120879 C128.421053,82.3489011 127.548872,84.0857143 126.646617,85.7925824 C126.496241,86.0620879 126.315789,86.3016484 126.105263,86.5412088 C125.924812,86.7508242 125.744361,86.9304945 125.56391,87.1101648 C125.834586,87.0502747 126.105263,86.9304945 126.345865,86.9903846 C126.586466,87.0502747 126.827068,87.2299451 126.947368,87.4096154 C127.93985,88.9967033 128.902256,90.6137363 129.864662,92.2307692 C130.135338,92.6799451 130.37594,93.0991758 130.646617,93.5483516 C131.428571,94.8659341 132.902256,94.7162088 134.075188,95.1953297 C136.87218,96.2733516 138.616541,98.3395604 139.548872,101.124451 C140.481203,103.939286 140.270677,106.694231 138.947368,109.299451 C138.43609,110.347527 137.413534,111.126099 136.721805,112.084341 C136.360902,112.593407 136.120301,113.222253 135.969925,113.821154 C135.669173,115.078846 135.488722,116.366484 135.218045,117.624176 C135.097744,118.193132 134.857143,118.552473 135.93985,118.462637 C139.308271,118.223077 142.736842,118.103297 146.105263,118.163187 C149.082707,118.223077 150.736842,120.319231 152.150376,122.654945 C153.082707,124.212088 152.902256,125.918956 153.022556,127.625824 C153.233083,130.440659 153.744361,133.255495 154.075188,136.07033 C154.225564,137.357967 154.285714,138.675549 154.345865,139.963187 C154.526316,143.257143 154.766917,146.551099 154.887218,149.845055 C154.977444,152.330495 154.857143,154.785989 154.917293,157.271429 C154.947368,159.008242 155.12782,160.745055 155.157895,162.481868 C155.218045,164.578022 155.157895,166.704121 155.157895,168.83022 C155.157895,171.675 155.18797,174.51978 155.157895,177.36456 C155.12782,179.640385 154.857143,181.946154 154.917293,184.221978 C154.977444,187.096703 155.338346,190.001374 155.398496,192.876099 C155.428571,194.493132 154.917293,196.110165 154.917293,197.697253 C154.917293,200.811538 155.157895,203.925824 155.12782,207.070055 C155.12782,211.412088 152.992481,214.376648 148.481203,215.873901 C145.233083,216.981868 142.105263,217.071703 138.857143,217.101648 C136.240602,217.131593 133.62406,217.041758 131.037594,217.131593 C129.383459,217.191484 127.729323,217.520879 126.045113,217.640659 C124.721805,217.730495 123.368421,217.670604 122.015038,217.670604 C119.789474,217.670604 117.593985,217.640659 115.368421,217.670604 C111.759398,217.730495 108.120301,217.88022 104.511278,217.94011 C101.834586,217.970055 99.1578947,217.94011 96.5112782,217.94011 C94.7969925,217.94011 93.0827068,217.970055 91.3984962,217.94011 C84.1203008,217.850275 76.8421053,217.850275 69.5639098,217.610714 C67.4586466,217.550824 65.2631579,217.401099 63.3684211,216.053571 C61.1729323,214.526374 59.6390977,212.639835 59.3984962,209.94478 C59.2781955,208.746978 59.3684211,207.549176 59.3684211,206.351374 C59.3684211,202.069231 59.3984962,197.817033 59.3684211,193.53489 C59.3082707,188.324451 59.2180451,183.143956 59.0977444,177.933516 C59.037594,174.63956 58.887218,171.315659 58.8270677,168.021703 C58.7669173,164.218681 58.8571429,160.385714 58.7969925,156.582692 C58.7669173,153.288736 58.6466165,149.99478 58.5263158,146.730769 C58.4661654,144.454945 58.3759398,142.149176 58.2556391,139.873352 C58.1353383,137.717308 57.8646617,135.561264 57.7443609,133.40522 C57.7142857,132.716484 57.9548872,132.027747 57.9849624,131.339011 C58.0150376,131.009615 57.924812,130.590385 57.7142857,130.380769 C57.5639098,130.231044 57.0827068,130.350824 56.8120301,130.440659 C53.8345865,131.518681 50.8571429,132.626648 47.8796992,133.76456 C45.7744361,134.573077 43.7293233,135.471429 41.6240602,136.19011 C39.9699248,136.759066 38.2857143,137.357967 36.5714286,137.537637 C33.2330827,137.837088 30.7368421,136.040385 28.9323308,133.46511 C27.1879699,130.949725 25.7443609,128.224725 24.1203008,125.619505 C22.1954887,122.50522 20.1503759,119.420879 18.3157895,116.246703 C15.5789474,111.54533 13.5639098,106.544505 11.8195489,101.423901 C10.6466165,97.9502747 8.96240602,94.6563187 7.7593985,91.2126374 C6.37593985,87.2 4.84210526,83.2472527 4.15037594,79.025 C3.66917293,76.1203297 2.82706767,73.2755495 2.22556391,70.4008242 C1.80451128,68.4543956 1.5037594,66.507967 1.17293233,64.5315934 C0.872180451,62.5851648 0.781954887,60.6087912 0.270676692,58.7521978 C-9.04831765e-15,57.6741758 0.210526316,56.9255495 0.721804511,56.117033 C2.10526316,53.9909341 4.12030075,52.6134615 6.31578947,51.4755495 C11.1278195,48.9901099 16.1503759,47.0137363 21.2330827,45.0972527 C24.6616541,43.8096154 28.1503759,42.9112637 31.6992481,42.2824176 C34.2255639,41.8332418 34.7669173,41.5337912 36,44.4983516 C37.0225564,46.9837912 37.8345865,49.5590659 38.7669173,52.1043956 C39.7593985,54.7994505 40.8120301,57.4645604 41.8345865,60.1296703 C42.9473684,63.0343407 44.0601504,65.939011 45.112782,68.8736264 C46.3157895,72.1975275 47.4285714,75.5813187 48.6616541,78.9052198 C50.4962406,83.8760989 52.3609023,88.8769231 54.2556391,93.8178571 C56.0300752,98.3695055 57.8646617,102.891209 59.6691729,107.442857 C59.9398496,107.892033 60.0601504,108.431044 60.2406015,109.11978 L60.2406015,109.11978 Z M87.4285714,91.4821429 C87.6090226,94.7162088 87.9398496,97.9802198 87.9398496,101.214286 C87.9398496,104.059066 87.518797,106.873901 87.4586466,109.718681 C87.3984962,112.054396 87.5789474,114.39011 87.7293233,116.695879 C87.7894737,117.444505 88.2406015,117.863736 89.1428571,117.863736 C92.8120301,117.803846 96.481203,117.773901 100.150376,117.863736 C104.511278,117.983516 108.87218,118.253022 113.233083,118.372802 C116.210526,118.462637 119.218045,118.402747 122.195489,118.402747 C124.330827,118.402747 124.81203,117.983516 124.75188,115.887363 C124.631579,112.922802 124.390977,109.928297 124.210526,106.963736 C124.090226,104.717857 124,102.501923 123.93985,100.256044 C123.849624,97.4412088 123.729323,94.5964286 123.669173,91.7516484 C123.639098,90.1046703 123.518797,89.9549451 121.894737,89.9549451 C115.93985,90.0447802 109.984962,90.1346154 104.030075,90.2244505 C101.744361,90.2543956 99.4285714,89.9848901 97.1729323,90.2843407 C94.5263158,90.6436813 92,90.2843407 89.4135338,89.9848901 C88.6315789,89.925 87.2180451,89.385989 87.4285714,91.4821429 L87.4285714,91.4821429 Z M91.8195489,82.1692308 C92.6917293,83.9659341 93.7744361,85.4931319 95.8496241,86.2118132 C97.7443609,86.8406593 99.6090226,86.9604396 101.503759,86.4813187 C101.684211,86.4513736 101.864662,86.6010989 102.075188,86.631044 C103.097744,86.8406593 104.090226,87.2 105.112782,87.2 C107.578947,87.2 110.075188,87.0203297 112.541353,86.9604396 C113.774436,86.9304945 114.827068,86.8406593 115.578947,85.6428571 C115.789474,85.2835165 116.481203,85.2236264 116.932331,85.043956 C116.87218,85.4931319 116.81203,85.9423077 116.81203,86.3914835 C116.81203,86.660989 116.87218,86.9304945 116.902256,87.2 C117.984962,86.5412088 119.518797,87.4994505 120.481203,86.2118132 C120.601504,86.0620879 121.172932,86.0620879 121.383459,86.2118132 C122.526316,87.0502747 124.180451,86.7807692 124.902256,85.553022 C125.052632,85.2835165 124.962406,84.8942308 124.992481,84.5648352 C124.691729,84.6546703 124.360902,84.6846154 124.06015,84.8043956 C123.759398,84.9241758 123.488722,85.1038462 123.218045,85.2535714 C123.338346,84.8043956 123.308271,84.1456044 123.578947,83.9958791 C124.300752,83.5766484 125.172932,83.4568681 125.954887,83.0975275 C126.406015,82.857967 126.766917,82.4087912 127.097744,82.0195055 C127.157895,81.9596154 126.917293,81.5104396 126.736842,81.3906593 C125.654135,80.642033 124.421053,80.8815934 123.729323,82.0195055 C123.157895,82.9178571 122.887218,82.7681319 122.586466,81.8997253 C122.496241,81.6302198 122.285714,81.3906593 122.105263,81.1510989 C121.503759,80.3425824 121.744361,79.8634615 122.676692,79.8934066 C124.120301,79.9532967 125.56391,80.1928571 127.037594,80.2826923 C127.398496,80.3126374 127.969925,80.0431319 128.090226,79.7736264 C129.022556,77.4678571 129.864662,75.1321429 130.676692,72.7964286 C130.796992,72.467033 130.706767,72.0478022 130.736842,71.6884615 C130.406015,71.8980769 130.075188,72.1076923 129.774436,72.3173077 C129.533835,72.467033 129.293233,72.6167582 129.052632,72.7365385 C128.932331,72.467033 128.631579,72.1076923 128.721805,71.957967 C129.022556,71.389011 129.503759,70.3708791 129.804511,70.4008242 C131.218045,70.6104396 131.18797,69.4725275 131.368421,68.7837912 C131.488722,68.3346154 131.157895,67.7057692 130.887218,67.2565934 C130.766917,67.046978 130.255639,67.1068681 129.894737,67.046978 C129.954887,67.4362637 130.045113,67.8554945 130.015038,68.2447802 C129.954887,68.7538462 129.774436,69.232967 129.654135,69.742033 C129.473684,69.6821429 129.112782,69.6222527 129.112782,69.5324176 C129.052632,68.9934066 129.052632,68.4244505 129.052632,67.8854396 C129.052632,67.8554945 129.142857,67.7956044 129.142857,67.7956044 C129.052632,67.556044 128.962406,67.1068681 128.87218,67.1068681 C128.511278,67.1068681 128.120301,67.2865385 127.759398,67.3464286 C127.368421,67.4063187 127.007519,67.3464286 126.616541,67.3763736 C126.676692,66.9271978 126.646617,66.4480769 126.827068,66.0887363 C127.097744,65.6395604 127.699248,65.3700549 127.93985,64.8909341 C128.150376,64.4417582 128.030075,63.8728022 128.06015,63.3337912 C127.819549,63.4236264 127.548872,63.5733516 127.308271,63.6332418 C126.947368,63.753022 126.556391,63.8428571 126.165414,63.8728022 C126.075188,63.8728022 125.894737,63.243956 125.924812,63.214011 C126.255639,63.0043956 126.676692,62.675 127.007519,62.7348901 C128.06015,62.9145604 128.421053,62.7947802 127.849624,61.6868132 C127.729323,61.4472527 127.93985,60.8782967 128.180451,60.6387363 C128.300752,60.518956 128.842105,60.7585165 129.172932,60.9082418 C129.56391,61.0879121 129.894737,61.3873626 130.255639,61.596978 C130.315789,61.6269231 130.556391,61.4771978 130.556391,61.4472527 C130.466165,60.518956 130.37594,59.6206044 130.225564,58.7222527 C130.225564,58.6923077 129.924812,58.6923077 129.774436,58.7222527 C128.210526,59.2313187 126.857143,60.1596154 125.62406,61.2376374 C125.022556,61.7766484 124.571429,62.2557692 123.639098,61.9263736 C122.917293,61.6568681 122.075188,61.7467033 121.323308,61.567033 C121.142857,61.5370879 121.052632,61.057967 120.932331,60.7884615 C121.142857,60.6986264 121.383459,60.518956 121.56391,60.5489011 C122.165414,60.6087912 122.796992,60.6686813 123.338346,60.9082418 C124.090226,61.2376374 124.511278,61.057967 124.481203,60.2793956 C124.451128,59.7104396 124.150376,59.1414835 123.969925,58.6024725 C123.879699,58.303022 123.759398,58.0035714 123.669173,57.7041209 C124.120301,57.764011 124.661654,57.6442308 124.932331,57.8837912 C125.293233,58.1832418 125.383459,58.7521978 125.62406,59.2313187 C125.714286,59.410989 125.774436,59.6206044 125.894737,59.7104396 C126.015038,59.7703297 126.285714,59.7403846 126.37594,59.6206044 C126.917293,59.1115385 126.676692,58.0335165 126.105263,57.5244505 C125.293233,56.7758242 124.601504,55.9074176 123.849624,55.1288462 C123.759398,55.039011 123.338346,55.0090659 123.308271,55.0989011 C123.037594,55.607967 122.526316,56.2667582 122.646617,56.7159341 C123.24812,58.7521978 121.533835,59.0217033 120.451128,59.8002747 C120.300752,59.9200549 119.819549,59.8601648 119.729323,59.7403846 C119.609023,59.5307692 119.609023,59.1414835 119.729323,58.9318681 C119.879699,58.6923077 120.240602,58.6324176 120.451128,58.4228022 C120.932331,57.9736264 122.135338,58.0934066 121.714286,56.9554945 C121.323308,55.9074176 120.571429,57.0453297 120.030075,56.7458791 C119.699248,56.5662088 119.338346,56.4464286 119.007519,56.3266484 C119.368421,56.117033 119.699248,55.7876374 120.120301,55.6678571 C120.661654,55.4881868 121.233083,55.5181319 121.774436,55.3384615 C122.075188,55.2486264 122.315789,54.9192308 122.586466,54.6796703 C122.225564,54.4401099 121.864662,54.0508242 121.503759,54.0508242 C121.022556,54.0208791 120.541353,54.3802198 120.06015,54.4700549 C119.759398,54.5 119.428571,54.3502747 119.12782,54.2304945 C119.097744,54.2005495 119.12782,53.8112637 119.218045,53.6914835 C119.93985,52.9428571 120.81203,52.4337912 121.924812,52.6733516 C122.225564,52.7332418 122.556391,52.7631868 122.857143,52.7931319 C122.857143,52.343956 122.947368,51.8648352 122.796992,51.4456044 C122.736842,51.2958791 122.045113,51.1760989 121.804511,51.3258242 C120.781955,51.9247253 120.421053,51.3258242 120.090226,50.5173077 C119.969925,50.2478022 119.729323,50.0381868 119.548872,49.7686813 C119.067669,49.1098901 118.43609,48.9002747 117.684211,49.1697802 C117.984962,49.589011 118.225564,50.0381868 118.556391,50.3975275 C119.699248,51.5953297 119.548872,52.1043956 118.015038,52.7032967 C117.503759,52.882967 117.082707,53.4519231 116.571429,53.5118132 C115.849624,53.6016484 115.067669,53.4818681 114.345865,53.3021978 C114.165414,53.2423077 113.924812,52.4637363 114.075188,52.2840659 C114.466165,51.775 115.037594,51.4156593 115.548872,51.0263736 C115.819549,50.8467033 116.180451,50.7568681 116.481203,50.6370879 C116.150376,50.4873626 115.819549,50.3076923 115.458647,50.2178571 C113.924812,49.7686813 113.172932,51.2958791 111.93985,51.6252747 C111.909774,51.6252747 111.93985,51.9247253 111.93985,52.0744505 C113.052632,52.0145604 112.511278,52.882967 112.691729,53.3620879 C112.932331,54.0208791 112.421053,55.3384615 114.075188,54.9192308 C114.496241,54.7994505 115.097744,55.4282967 115.609023,55.7277473 C115.488722,55.8774725 115.398496,56.1769231 115.278195,56.1769231 C114.766917,56.2368132 114.255639,56.2068681 113.714286,56.2068681 C113.62406,56.2068681 113.56391,56.117033 113.503759,56.0870879 C112.090226,55.5181319 110.917293,56.0571429 110.466165,57.4945055 C110.135338,58.6024725 109.834586,59.7104396 109.654135,60.8483516 C109.56391,61.4472527 109.774436,62.106044 109.744361,62.7348901 C109.714286,63.1541209 109.533835,63.5733516 109.323308,63.9326923 C109.293233,63.9626374 108.721805,63.8428571 108.541353,63.6631868 C108.150376,63.2739011 108,63.2739011 107.699248,63.753022 C107.097744,64.6813187 106.406015,65.6096154 105.684211,66.478022 C105.503759,66.6876374 104.992481,66.8673077 104.781955,66.7475275 C103.819549,66.2684066 102.796992,65.8192308 102.045113,65.1005495 C101.353383,64.4118132 100.81203,64.4118132 100,64.7412088 C98.9774436,65.1604396 98.9473684,65.968956 98.8270677,66.8673077 C98.7969925,67.2565934 98.2255639,67.556044 97.8947368,67.9153846 C97.8345865,67.5260989 97.7443609,67.1667582 97.7142857,66.7774725 C97.6240602,65.9989011 97.593985,65.2203297 97.5037594,64.4717033 C97.4736842,64.321978 97.0827068,64.0824176 96.9924812,64.1423077 C96.7518797,64.292033 96.4511278,64.5315934 96.4210526,64.7412088 C96.2706767,65.9090659 96.2706767,67.0769231 96.0902256,68.2148352 C96.0300752,68.6041209 95.5789474,68.9335165 95.3082707,69.2928571 C95.2481203,68.8436813 95.2180451,68.3645604 95.1578947,67.9153846 C95.1278195,67.6458791 95.1278195,67.3763736 95.1278195,67.1068681 C94.8571429,67.1967033 94.556391,67.2565934 94.3157895,67.4362637 C93.8345865,67.7656593 93.4736842,68.2447802 92.962406,68.4543956 C91.9398496,68.8736264 91.9398496,69.742033 92.1203008,70.5206044 C92.1503759,70.7002747 93.2330827,70.6703297 93.8045113,70.6703297 C94.1954887,70.6703297 94.6165414,70.5804945 95.0075188,70.5206044 C95.0075188,70.8200549 95.0977444,71.2692308 94.9473684,71.418956 C94.6466165,71.6585165 94.1954887,71.6884615 93.8345865,71.8082418 C92.9924812,72.0777473 91.9398496,72.1376374 91.3684211,72.6766484 C90.5263158,73.4851648 90.8571429,76.1502747 91.6090226,77.2582418 C91.8195489,77.5576923 92.0601504,78.1266484 91.9398496,78.2464286 C90.8270677,79.3843407 91.2180451,80.7019231 91.8195489,82.1692308 L91.8195489,82.1692308 Z M124.631579,151.492033 C127.909774,146.521154 131.157895,141.52033 134.43609,136.549451 C134.556391,136.339835 134.586466,136.07033 134.676692,135.830769 C134.466165,135.770879 134.285714,135.651099 134.075188,135.651099 C132.601504,135.710989 131.12782,135.770879 129.654135,135.950549 C129.263158,136.01044 128.81203,136.519505 128.601504,136.908791 C127.278195,139.334341 126.195489,141.849725 124.75188,144.18544 C121.924812,148.737088 118.947368,153.198901 115.969925,157.660714 C113.533835,161.314011 111.007519,164.877473 108.601504,168.560714 C104.902256,174.22033 101.293233,179.939835 97.593985,185.599451 C95.518797,188.803571 93.3533835,191.947802 91.2481203,195.151923 C90.1353383,196.828846 89.1428571,198.565659 88,200.242582 C87.7894737,200.542033 87.2481203,200.661813 86.887218,200.841484 C86.887218,200.422253 86.7368421,199.883242 86.9172932,199.583791 C87.6691729,198.326099 88.5413534,197.158242 89.3533835,195.930495 C92.1203008,191.738187 94.8571429,187.545879 97.593985,183.353571 C99.1578947,180.957967 100.781955,178.562363 102.345865,176.166758 C103.458647,174.4 104.421053,172.543407 105.56391,170.806593 C107.338346,168.141484 109.263158,165.596154 111.037594,162.931044 C113.654135,158.978297 116.180451,154.935714 118.736842,150.953022 C120.631579,147.958516 122.496241,144.934066 124.390977,141.93956 C125.443609,140.232692 126.526316,138.525824 127.578947,136.818956 C127.669173,136.669231 127.759398,136.30989 127.729323,136.279945 C127.488722,136.13022 127.18797,135.920604 126.917293,135.950549 C125.954887,135.980495 124.962406,136.07033 124,136.220055 C123.699248,136.279945 123.308271,136.549451 123.12782,136.818956 C121.293233,139.663736 119.488722,142.508516 117.62406,145.353297 C114.43609,150.204396 111.157895,154.965659 108.030075,159.846703 C105.203008,164.218681 102.526316,168.71044 99.6691729,173.052473 C96.2105263,178.322802 92.6015038,183.533242 89.0526316,188.773626 C86.406015,192.696429 83.7593985,196.619231 81.1428571,200.542033 C80.8421053,201.021154 80.6015038,201.560165 80.3609023,202.039286 C80.8721805,202.039286 81.3834586,202.099176 81.8947368,202.069231 C85.0225564,201.979396 88.1203008,201.799725 91.2481203,201.82967 C92.8120301,201.82967 93.7744361,201.230769 94.556391,199.973077 C98.4962406,193.385165 102.43609,186.827198 106.43609,180.269231 C108.932331,176.226648 111.548872,172.273901 114.075188,168.261264 C117.56391,162.721429 121.022556,157.151648 124.631579,151.492033 L124.631579,151.492033 Z M108.842105,179.221154 C108.451128,179.79011 108.030075,180.329121 107.669173,180.928022 C105.413534,184.611264 103.218045,188.294505 100.962406,191.977747 C99.1278195,195.002198 97.2631579,198.026648 95.4285714,201.051099 C95.0676692,201.620055 95.037594,202.099176 95.9699248,202.069231 C97.0225564,202.039286 98.075188,202.159066 99.1278195,202.009341 C99.7293233,201.919505 100.481203,201.59011 100.781955,201.110989 C103.24812,197.397802 105.593985,193.624725 108,189.881593 C111.18797,184.940659 114.43609,180.059615 117.593985,175.118681 C118.766917,173.292033 119.639098,171.315659 120.81203,169.489011 C123.639098,165.087088 126.586466,160.775 129.383459,156.343132 C131.819549,152.48022 134.135338,148.557418 136.541353,144.66456 C137.714286,142.807967 138.977444,141.041209 140.180451,139.184615 C140.992481,137.956868 140.781955,136.609341 139.759398,135.920604 C138.43609,135.022253 136.571429,135.112088 135.849624,136.160165 C135.037594,137.328022 134.285714,138.525824 133.533835,139.723626 C131.849624,142.448626 130.165414,145.173626 128.451128,147.868681 C126.135338,151.521978 123.729323,155.115385 121.443609,158.798626 C118.887218,162.871154 116.421053,167.033516 113.894737,171.135989 C112.270677,173.801099 110.616541,176.466209 108.842105,179.221154 L108.842105,179.221154 Z M91.9398496,182.095879 C93.8045113,179.310989 95.7293233,176.556044 97.5639098,173.741209 C100.87218,168.650549 104.150376,163.529945 107.458647,158.409341 C109.834586,154.726099 112.240602,151.072802 114.646617,147.449451 C116.601504,144.48489 118.586466,141.490385 120.571429,138.555769 C120.962406,137.986813 121.473684,137.507692 121.924812,136.998626 C122.135338,136.729121 122.345865,136.42967 122.526316,136.13022 C122.225564,136.040385 121.894737,135.890659 121.593985,135.920604 C120.120301,135.980495 118.646617,136.07033 117.172932,136.19011 C116.81203,136.220055 116.330827,136.399725 116.150376,136.669231 C114.496241,139.21456 112.842105,141.75989 111.278195,144.36511 C109.112782,147.958516 107.097744,151.671703 104.842105,155.235165 C102.917293,158.28956 100.691729,161.164286 98.6766917,164.188736 C95.7894737,168.470879 92.9924812,172.782967 90.1353383,177.06511 C87.0676692,181.676648 84,186.318132 80.9022556,190.899725 C78.5864662,194.283516 76.1804511,197.607418 73.8345865,200.991209 C73.6240602,201.290659 73.6240602,201.739835 73.5338346,202.099176 C73.924812,202.069231 74.3458647,202.159066 74.6466165,202.009341 C75.2781955,201.70989 75.7293233,201.260714 76.481203,201.949451 C77.112782,202.518407 78.8270677,201.949451 79.3383459,201.170879 C80.481203,199.464011 81.5639098,197.727198 82.7067669,195.990385 C84.6015038,193.115659 86.556391,190.300824 88.4511278,187.426099 C89.6240602,185.719231 90.7067669,183.982418 91.9398496,182.095879 L91.9398496,182.095879 Z M73.6842105,191.259066 C73.7443609,191.019505 73.7443609,190.720055 73.8947368,190.51044 C75.6390977,188.025 77.4135338,185.599451 79.1278195,183.084066 C81.6541353,179.400824 84.1503759,175.687637 86.5864662,171.944505 C88.4511278,169.06978 90.075188,166.10522 91.9398496,163.230495 C95.3383459,158.020055 98.8571429,152.869505 102.225564,147.659066 C104.180451,144.634615 105.954887,141.46044 107.819549,138.376099 C108.210526,137.747253 108.601504,137.118407 109.022556,136.48956 C108.120301,136.36978 107.157895,136.040385 106.285714,136.220055 C105.233083,136.42967 104.030075,136.30989 103.308271,137.627473 C101.56391,140.801648 99.7593985,143.945879 97.8045113,146.97033 C94.7969925,151.581868 91.3383459,155.923901 88.6015038,160.685165 C85.7443609,165.656044 81.8345865,169.938187 79.3383459,175.148626 C78.2857143,177.334615 76.3609023,179.101374 74.8571429,181.107692 C74.1353383,182.065934 73.1428571,183.024176 72.9323308,184.132143 C72.481203,186.407967 72.481203,188.803571 72.3308271,191.139286 C72.3007519,191.498626 72.5714286,191.857967 72.6917293,192.217308 C72.9924812,191.917857 73.2631579,191.678297 73.6842105,191.259066 L73.6842105,191.259066 Z M103.218045,155.594505 C106.135338,150.593681 108.992481,145.562912 111.969925,140.651923 C112.75188,139.364286 113.142857,137.657418 114.887218,137.088462 C115.007519,137.058516 115.12782,136.639286 115.067669,136.549451 C114.917293,136.36978 114.646617,136.19011 114.406015,136.19011 C113.413534,136.160165 112.390977,136.100275 111.398496,136.220055 C110.977444,136.279945 110.466165,136.669231 110.225564,137.028571 C107.458647,141.370604 104.721805,145.772527 101.954887,150.144505 C98.1052632,156.283242 94.3458647,162.511813 90.3759398,168.590659 C86.4661654,174.57967 82.406015,180.418956 78.3759398,186.318132 C76.7218045,188.713736 74.9473684,190.98956 73.2631579,193.35522 C72.1203008,194.972253 72.3007519,196.858791 72.3308271,198.715385 C72.3609023,199.374176 72.5112782,200.032967 72.6015038,200.691758 C72.9924812,200.152747 73.4135338,199.643681 73.7744361,199.10467 C75.9398496,195.870604 78.075188,192.576648 80.3007519,189.372527 C82.4962406,186.168407 84.8721805,183.084066 87.0676692,179.85 C89.5639098,176.196703 91.9097744,172.483516 94.3458647,168.800275 C97.2330827,164.428297 100.150376,160.086264 103.218045,155.594505 L103.218045,155.594505 Z M119.669173,174.190385 C119.398496,174.729396 119.218045,175.298352 118.887218,175.777473 C116.451128,179.460714 113.984962,183.143956 111.578947,186.827198 C109.62406,189.791758 107.729323,192.816209 105.804511,195.780769 C104.661654,197.547527 103.428571,199.254396 102.345865,201.051099 C102.165414,201.350549 102.285714,202.248901 102.406015,202.278846 C103.609023,202.578297 105.233083,201.679945 105.834586,200.512088 C105.954887,200.272527 106.075188,200.062912 106.225564,199.853297 C109.022556,195.690934 111.849624,191.528571 114.676692,187.336264 C116.932331,183.982418 119.278195,180.688462 121.443609,177.274725 C125.413534,171.135989 129.293233,164.937363 133.172932,158.738736 C134.466165,156.702473 135.609023,154.546429 136.81203,152.450275 C137.62406,151.042857 138.466165,149.665385 139.278195,148.287912 C139.849624,147.299725 140.631579,146.341484 140.87218,145.263462 C141.142857,144.035714 140.932331,142.718132 140.932331,141.46044 C140.932331,141.220879 140.781955,141.011264 140.721805,140.801648 C140.541353,140.921429 140.300752,141.011264 140.180451,141.160989 C139.24812,142.598352 138.345865,144.035714 137.443609,145.503022 C135.097744,149.365934 132.81203,153.258791 130.43609,157.091758 C126.947368,162.781319 123.368421,168.410989 119.669173,174.190385 L119.669173,174.190385 Z M119.398496,198.236264 C121.353383,195.211813 123.338346,192.217308 125.293233,189.192857 C126.586466,187.186538 127.789474,185.12033 129.112782,183.114011 C130.917293,180.389011 132.87218,177.753846 134.616541,174.998901 C136.631579,171.824725 138.526316,168.590659 140.390977,165.356593 C140.842105,164.578022 141.112782,163.61978 141.203008,162.691484 C141.413534,160.984615 141.443609,159.277747 141.503759,157.570879 C141.503759,157.211538 141.293233,156.852198 141.172932,156.492857 C140.932331,156.762363 140.601504,156.971978 140.421053,157.271429 C138.225564,160.924725 136.06015,164.578022 133.804511,168.201374 C131.007519,172.753022 128.210526,177.30467 125.263158,181.766484 C123.398496,184.611264 121.203008,187.276374 119.278195,190.091209 C116.721805,193.834341 114.255639,197.667308 111.759398,201.47033 C111.488722,201.88956 111.24812,202.368681 112.090226,202.308791 C113.56391,202.248901 115.037594,202.159066 116.511278,202.009341 C116.81203,201.979396 117.142857,201.65 117.323308,201.350549 C117.984962,200.392308 118.616541,199.374176 119.398496,198.236264 L119.398496,198.236264 Z M88.3909774,158.589011 C89.7443609,156.492857 91.0977444,154.426648 92.481203,152.36044 C94.5263158,149.276099 96.6315789,146.251648 98.6766917,143.167308 C100.06015,141.101099 101.413534,139.004945 102.736842,136.908791 C102.857143,136.699176 102.917293,136.459615 103.007519,136.25 C102.706767,136.13022 102.37594,135.920604 102.075188,135.950549 C101.082707,136.07033 100.120301,136.399725 99.1278195,136.399725 C98.1954887,136.399725 97.7142857,136.848901 97.2932331,137.507692 C95.5488722,140.322527 93.8045113,143.167308 92.0601504,146.012088 C90.1353383,149.186264 88.2406015,152.390385 86.2255639,155.474725 C83.4586466,159.726923 80.5413534,163.889286 77.7142857,168.081593 C76.4210526,169.998077 75.1879699,172.004396 73.8045113,173.831044 C73.0827068,174.789286 72.6015038,175.687637 72.5714286,176.88544 C72.5413534,178.203022 72.3609023,179.550549 72.3308271,180.868132 C72.3308271,181.137637 72.6917293,181.437088 72.9022556,181.706593 C73.0827068,181.556868 73.2932331,181.437088 73.3834586,181.257418 C73.8646617,180.508791 74.2857143,179.700275 74.7669173,178.951648 C76.9022556,175.687637 79.0676692,172.423626 81.2330827,169.18956 C83.5789474,165.745879 85.924812,162.242308 88.3909774,158.589011 L88.3909774,158.589011 Z M129.984962,166.10522 C126.827068,171.076099 123.669173,176.076923 120.481203,181.017857 C118.105263,184.731044 115.669173,188.414286 113.233083,192.097527 C111.18797,195.181868 109.082707,198.206319 107.007519,201.290659 C106.827068,201.560165 106.676692,202.099176 106.796992,202.278846 C107.037594,202.638187 110.075188,201.88956 110.37594,201.440385 C111.338346,200.062912 112.300752,198.68544 113.203008,197.278022 C114.43609,195.361538 115.518797,193.385165 116.781955,191.528571 C118.285714,189.312637 119.969925,187.216484 121.443609,184.970604 C125.774436,178.352747 130.105263,171.704945 134.345865,165.027198 C135.909774,162.571703 137.263158,159.936538 138.766917,157.421154 C139.458647,156.283242 140.511278,155.295055 140.87218,154.067308 C141.293233,152.65989 141.142857,151.072802 141.203008,149.545604 C141.233083,149.186264 141.082707,148.796978 141.022556,148.437637 C140.721805,148.737088 140.330827,148.976648 140.150376,149.306044 C139.338346,150.743407 138.616541,152.240659 137.774436,153.648077 C135.24812,157.81044 132.661654,161.882967 129.984962,166.10522 L129.984962,166.10522 Z M89.4736842,119.78022 C89.2330827,119.78022 88.9924812,119.72033 88.7819549,119.78022 C87.2180451,120.468956 85.7142857,120.379121 84.1503759,119.810165 C83.6090226,119.630495 82.7067669,119.78022 82.2857143,120.169505 C81.5037594,120.888187 80.9022556,121.846429 80.2706767,122.74478 C80.1503759,122.894505 80.1804511,123.164011 80.1503759,123.373626 C80.3609023,123.403571 80.6015038,123.493407 80.8120301,123.463462 C81.4135338,123.373626 81.9849624,123.104121 82.556391,123.104121 C86.6466165,122.984341 90.7067669,122.894505 94.7969925,122.80467 C100.300752,122.714835 105.804511,122.56511 111.278195,122.535165 C114.947368,122.535165 118.616541,122.774725 122.285714,122.774725 C126.075188,122.774725 129.894737,122.595055 133.684211,122.535165 C138.165414,122.44533 142.676692,122.355495 147.157895,122.235714 C147.609023,122.235714 148.06015,122.026099 148.541353,121.906319 C148.180451,121.487088 147.879699,120.828297 147.428571,120.708516 C146.165414,120.379121 144.87218,120.109615 143.578947,120.07967 C140.421053,119.989835 137.233083,120.01978 134.075188,120.049725 C131.548872,120.07967 129.022556,120.289286 126.496241,120.289286 C123.879699,120.289286 121.233083,120.07967 118.616541,120.049725 C112.721805,120.01978 106.827068,120.01978 100.902256,120.049725 C100.210526,120.049725 99.518797,120.319231 98.8270677,120.289286 C95.8195489,120.169505 92.7819549,119.95989 89.4736842,119.78022 L89.4736842,119.78022 Z M127.518797,188.26456 C125.684211,191.199176 123.879699,194.133791 121.984962,197.038462 C121.082707,198.415934 120.030075,199.673626 119.12782,201.051099 C118.917293,201.380495 118.857143,202.189011 119.037594,202.308791 C119.699248,202.728022 121.774436,202.099176 122.225564,201.500275 C125.082707,197.577473 128,193.71456 130.736842,189.701923 C134.135338,184.731044 137.413534,179.640385 140.691729,174.549725 C141.142857,173.831044 141.413534,172.902747 141.503759,172.034341 C141.684211,170.567033 141.654135,169.06978 141.714286,167.572527 C141.714286,167.243132 141.714286,166.883791 141.684211,166.554396 C141.353383,166.764011 140.932331,166.883791 140.75188,167.183242 C139.699248,168.83022 138.526316,170.447253 137.714286,172.214011 C135.669173,176.496154 132.571429,180.08956 130.075188,184.072253 C129.233083,185.389835 128.451128,186.767308 127.518797,188.26456 L127.518797,188.26456 Z M131.609023,197.817033 C132.150376,197.188187 132.691729,196.529396 133.263158,195.900549 C136.390977,192.576648 138.676692,188.653846 140.932331,184.731044 C141.203008,184.251923 141.443609,183.712912 141.473684,183.203846 C141.533835,181.197527 141.503759,179.161264 141.473684,177.154945 C141.473684,176.88544 141.323308,176.615934 141.233083,176.376374 C141.022556,176.526099 140.781955,176.645879 140.601504,176.855495 C140.421053,177.035165 140.330827,177.30467 140.210526,177.514286 C137.413534,181.766484 134.676692,186.078571 131.759398,190.270879 C129.142857,194.043956 126.345865,197.697253 123.669173,201.41044 C123.368421,201.82967 123.218045,202.428571 124.120301,202.368681 C125.203008,202.278846 126.315789,202.099176 127.398496,202.039286 C129.052632,201.979396 129.924812,201.051099 130.496241,199.613736 C130.766917,199.014835 131.24812,198.595604 131.609023,197.817033 L131.609023,197.817033 Z M90.2857143,146.551099 C92.2706767,143.496703 94.2255639,140.442308 96.1804511,137.387912 C96.3308271,137.148352 96.4511278,136.639286 96.3007519,136.48956 C95.9097744,136.07033 93.2330827,136.579396 92.9022556,137.118407 C91.9699248,138.555769 91.037594,139.993132 90.1353383,141.430495 C87.1278195,146.161813 84.1503759,150.893132 81.0526316,155.56456 C78.7969925,158.978297 76.4210526,162.302198 74.1052632,165.685989 C73.6541353,166.34478 73.0225564,167.033516 72.8721805,167.752198 C72.5413534,169.369231 72.4511278,171.046154 72.3007519,172.693132 C72.2706767,172.902747 72.5112782,173.262088 72.6917293,173.292033 C72.8721805,173.321978 73.2030075,173.112363 73.3233083,172.932692 C73.7443609,172.214011 74.0451128,171.405495 74.5263158,170.686813 C76.3909774,167.871978 78.3759398,165.087088 80.2105263,162.242308 C83.6090226,157.121703 86.8571429,151.911264 90.2857143,146.551099 L90.2857143,146.551099 Z M78.9172932,156.283242 C81.0225564,153.228846 83.1578947,150.204396 85.2330827,147.120055 C87.3984962,143.885989 89.5037594,140.592033 91.6090226,137.328022 C91.7293233,137.118407 91.7293233,136.579396 91.5789474,136.48956 C90.9172932,136.07033 87.8796992,137.088462 87.4285714,137.807143 C85.593985,140.651923 83.7593985,143.496703 81.924812,146.341484 C79.5488722,150.05467 77.2330827,153.797802 74.7669173,157.451099 C73.8646617,158.768681 72.7518797,159.936538 72.6917293,161.673352 C72.6315789,162.721429 72.4210526,163.73956 72.3609023,164.787637 C72.3308271,164.997253 72.5714286,165.356593 72.7518797,165.416484 C72.9022556,165.476374 73.2631579,165.266758 73.3834586,165.087088 C73.593985,164.787637 73.6842105,164.398352 73.8947368,164.068956 C75.5488722,161.523626 77.2330827,159.038187 78.9172932,156.283242 L78.9172932,156.283242 Z M73.4135338,157.900275 C73.8045113,157.061813 74.1052632,156.163462 74.5864662,155.38489 C76.8421053,151.821429 79.1578947,148.257967 81.443609,144.694505 C82.7368421,142.688187 84,140.651923 85.3233083,138.675549 C85.7142857,138.076648 86.2857143,137.567582 86.7669173,137.028571 C85.9548872,136.938736 85.112782,136.818956 84.3007519,136.729121 C84.2706767,136.729121 84.2105263,136.729121 84.1503759,136.729121 C83.3082707,137.028571 82.2255639,137.118407 81.7142857,137.717308 C80.5413534,139.064835 79.6390977,140.651923 78.6165414,142.149176 C76.9323308,144.634615 75.1578947,147.09011 73.5639098,149.605495 C73.0526316,150.414011 72.7218045,151.402198 72.6315789,152.330495 C72.481203,153.887637 72.5714286,155.44478 72.6015038,157.001923 C72.6015038,157.451099 72.2706767,158.199725 73.4135338,157.900275 L73.4135338,157.900275 Z M130.947368,108.850275 C133.233083,108.82033 134.285714,107.802198 134.075188,105.646154 C134.015038,104.837637 133.714286,104.059066 133.56391,103.250549 C133.022556,99.9565934 130.646617,97.560989 129.293233,94.6563187 C128.781955,93.5483516 127.93985,92.5601648 127.278195,91.5120879 C127.12782,91.2725275 127.037594,91.032967 126.947368,90.7934066 C126.857143,91.0928571 126.706767,91.3923077 126.676692,91.6917582 C126.646617,94.4766484 126.706767,97.2914835 126.646617,100.076374 C126.616541,101.962912 126.43609,103.819505 126.406015,105.706044 C126.406015,106.09533 126.556391,106.574451 126.796992,106.903846 C127.789474,108.101648 128.992481,108.94011 130.947368,108.850275 L130.947368,108.850275 Z M71.4887218,117.175 C71.4887218,118.851923 71.7593985,120.618681 71.3984962,122.205769 C71.0676692,123.613187 71.5488722,123.643132 72.5714286,123.583242 C74.3157895,123.493407 76.0601504,123.433516 77.8045113,123.283791 C78.1052632,123.253846 78.4360902,122.834615 78.6165414,122.535165 C79.518797,121.097802 80.3609023,119.600549 81.2330827,118.163187 C81.3533835,117.953571 81.5037594,117.743956 81.6541353,117.534341 C81.3834586,117.474451 81.0827068,117.35467 80.8120301,117.35467 C78.8270677,117.175 77.1729323,116.725824 76.3909774,114.50989 C76.0300752,113.521703 75.1278195,112.623352 74.2857143,111.90467 C73.3834586,111.156044 72.5714286,111.48544 72.3007519,112.623352 C71.9398496,114.000824 71.7593985,115.468132 71.4887218,117.175 L71.4887218,117.175 Z M64.3609023,120.169505 C64.7819549,120.439011 64.962406,121.277473 65.7142857,120.498901 C66.7067669,119.480769 67.8195489,118.582418 68.8421053,117.594231 C69.2330827,117.204945 69.6842105,116.755769 69.8045113,116.246703 C70.1052632,114.899176 70.2255639,113.491758 70.3759398,112.114286 C70.6766917,109.838462 72.5112782,108.850275 74.556391,109.808516 C74.9473684,109.988187 75.4285714,109.988187 75.8496241,110.078022 C75.6090226,109.628846 75.4285714,109.149725 75.0977444,108.76044 C74.887218,108.520879 74.5263158,108.371154 74.2255639,108.281319 C72.0300752,107.652473 70.4962406,108.460989 69.0225564,110.347527 C67.5789474,112.204121 66.0150376,113.881044 63.6691729,114.599725 C63.2781955,114.719505 62.6766917,115.468132 62.7669173,115.767582 C63.1879699,117.204945 63.7894737,118.552473 64.3609023,120.169505 L64.3609023,120.169505 Z M138.225564,192.097527 C136.842105,193.744505 135.398496,195.391484 134.075188,197.068407 C133.112782,198.296154 132.240602,199.583791 131.368421,200.871429 C131.037594,201.380495 131.097744,201.76978 131.909774,201.82967 C133.203008,201.88956 134.285714,201.47033 135.037594,200.452198 C136.240602,198.86511 137.353383,197.218132 138.526316,195.631044 C140.090226,193.445055 141.714286,191.289011 141.503759,188.414286 C141.473684,188.054945 141.353383,187.695604 141.263158,187.336264 C140.992481,187.635714 140.631579,187.90522 140.421053,188.26456 C139.669173,189.402473 138.947368,190.600275 138.225564,192.097527 L138.225564,192.097527 Z M72.6015038,147.239835 C72.6015038,147.748901 72.5714286,148.228022 72.5714286,148.737088 C72.962406,148.377747 73.3533835,148.078297 73.6842105,147.689011 C73.8345865,147.509341 73.8045113,147.179945 73.9548872,147.000275 C76.1503759,143.885989 78.3458647,140.801648 80.5112782,137.687363 C80.6015038,137.537637 80.5413534,137.088462 80.4210526,137.058516 C79.3082707,136.48956 77.112782,137.208242 76.3308271,138.316209 C75.7593985,139.124725 75.1578947,139.963187 74.4962406,140.681868 C73.0526316,142.209066 72.1804511,143.885989 72.5714286,146.042033 C72.6315789,146.341484 72.6015038,146.670879 72.6015038,147.239835 L72.6015038,147.239835 Z M135.18797,109.23956 C134.015038,110.706868 132.240602,110.018132 130.766917,110.467308 C130.496241,110.557143 130.225564,110.706868 129.984962,110.856593 C130.195489,111.066209 130.406015,111.48544 130.616541,111.48544 C132.210526,111.635165 133.774436,111.635165 135.24812,110.826648 C137.142857,109.808516 138.345865,106.604396 137.684211,104.298626 C137.56391,103.849451 137.503759,103.37033 137.413534,102.921154 C137.052632,100.675275 136.180451,98.6989011 134.105263,97.5010989 C133.924812,97.3813187 133.62406,97.4412088 133.383459,97.4112637 C133.383459,97.6508242 133.353383,97.9203297 133.443609,98.1598901 C134.105263,99.746978 135.007519,101.274176 135.398496,102.951099 C135.849624,104.897527 136.300752,106.993681 135.18797,109.23956 L135.18797,109.23956 Z M128.180451,112.114286 C127.759398,111.84478 127.308271,111.575275 126.887218,111.305769 C126.827068,111.754945 126.676692,112.234066 126.676692,112.683242 C126.706767,114.030769 126.917293,115.408242 126.796992,116.755769 C126.676692,117.983516 127.12782,118.612363 128.360902,118.432692 C128.992481,118.342857 129.684211,118.342857 130.315789,118.432692 C131.338346,118.552473 132.360902,117.654121 132.180451,116.695879 C132.06015,116.096978 131.879699,115.498077 131.93985,114.899176 C132.030075,113.821154 131.819549,113.192308 130.556391,113.042582 C129.804511,112.952747 129.142857,112.443681 128.180451,112.114286 L128.180451,112.114286 Z M140.962406,197.817033 C141.142857,196.888736 141.353383,195.990385 141.503759,195.062088 C141.533835,194.792582 141.323308,194.523077 141.233083,194.253571 C141.052632,194.433242 140.87218,194.582967 140.721805,194.792582 C139.729323,196.14011 138.766917,197.517582 137.774436,198.86511 C137.323308,199.464011 136.781955,200.003022 136.360902,200.601923 C136.240602,200.781593 136.300752,201.081044 136.270677,201.350549 C136.481203,201.350549 136.721805,201.41044 136.932331,201.350549 C137.593985,201.170879 138.195489,200.871429 138.857143,200.721703 C140.962406,200.272527 140.962406,200.302473 140.962406,197.817033 L140.962406,197.817033 Z M69.8345865,122.355495 C69.8646617,121.786538 69.8947368,121.217582 69.924812,120.618681 C69.924812,120.319231 70.0451128,119.810165 69.8947368,119.72033 C69.593985,119.540659 69.112782,119.450824 68.8120301,119.540659 C67.6390977,119.989835 66.1954887,121.876374 66.2857143,123.193956 C66.3157895,123.523352 66.7669173,124.092308 66.9172932,124.062363 C68,123.852747 69.4135338,124.152198 69.8345865,122.355495 L69.8345865,122.355495 Z M64.6315789,125.11044 C64.6315789,124.930769 64.6917293,124.721154 64.6315789,124.571429 C64.3308271,123.882692 64.1503759,123.044231 63.6390977,122.56511 C63.3383459,122.295604 62.1353383,122.415385 61.924812,122.714835 C61.5037594,123.343681 61.2030075,124.361813 61.443609,125.020604 C61.7142857,125.769231 62.6466165,126.278297 63.2781955,126.877198 C63.6992481,126.368132 64.1804511,125.889011 64.6315789,125.11044 L64.6315789,125.11044 Z M99.9097744,59.6206044 C99.7894737,60.3392857 99.6992481,61.0879121 99.5789474,61.8065934 C99.1278195,61.3574176 98.7067669,60.9082418 98.2556391,60.4590659 C98.1052632,60.3093407 97.8045113,60.1296703 97.7142857,60.1895604 C97.5338346,60.3392857 97.3533835,60.5788462 97.2932331,60.8184066 C97.112782,61.7467033 98.5864662,63.1241758 99.7593985,63.1840659 C101.082707,63.243956 101.052632,62.2857143 101.112782,61.3873626 C101.203008,59.6505495 101.293233,57.9137363 101.383459,56.1769231 C101.383459,56.0571429 101.353383,55.8774725 101.263158,55.8175824 C101.172932,55.7576923 100.962406,55.7876374 100.902256,55.8475275 C100.661654,56.146978 100.390977,56.4763736 100.300752,56.8357143 C100.090226,57.7041209 99.9398496,58.6024725 99.9097744,59.6206044 L99.9097744,59.6206044 Z M112.390977,48.2714286 C112.691729,49.6788462 113.654135,48.8403846 114.315789,48.7804945 C114.917293,48.7206044 115.518797,48.1516484 116.090226,48.2115385 C117.172932,48.3013736 117.984962,47.7324176 117.864662,46.6843407 C117.804511,46.1752747 117.593985,45.5763736 116.962406,46.2052198 C116.571429,46.5945055 116.390977,47.3431319 115.93985,47.5228022 C115.488722,47.7024725 114.796992,47.2532967 114.255639,47.3431319 C113.654135,47.4629121 113.112782,47.8821429 112.390977,48.2714286 L112.390977,48.2714286 Z M75.7593985,137.807143 C75.7593985,137.627473 75.7593985,137.268132 75.7293233,137.268132 C74.887218,137.268132 74.0451128,137.178297 73.2330827,137.357967 C72.9323308,137.417857 72.6917293,138.106593 72.6015038,138.555769 C72.481203,139.03489 72.5413534,139.543956 72.6015038,140.053022 C72.6315789,140.382418 72.8120301,140.681868 72.9022556,141.011264 C73.1729323,140.771703 73.443609,140.532143 73.6842105,140.262637 C74.3458647,139.514011 74.9774436,138.73544 75.7593985,137.807143 L75.7593985,137.807143 Z M125.984962,48.9601648 C125.593985,49.2296703 125.233083,49.7087912 124.81203,49.7387363 C123.699248,49.7986264 123.879699,50.5472527 123.93985,51.1760989 C124,51.8348901 124.210526,52.5236264 124.421053,53.1524725 C124.571429,53.5118132 124.902256,53.8112637 125.142857,54.1406593 C125.203008,53.6615385 125.323308,53.2123626 125.353383,52.7332418 C125.383459,51.6252747 124.661654,50.3076923 126.345865,49.7387363 C126.43609,49.7387363 126.315789,49.2296703 125.984962,48.9601648 L125.984962,48.9601648 Z M119.278195,43.8994505 C118.736842,43.4502747 118.225564,42.9711538 117.654135,42.5818681 C117.503759,42.492033 117.233083,42.6118132 116.992481,42.6118132 C117.052632,42.7914835 117.082707,43.031044 117.203008,43.1807692 C117.894737,44.3186813 118.556391,45.4565934 119.278195,46.5645604 C119.428571,46.7741758 119.759398,46.893956 120,47.0436813 C120.120301,46.8340659 120.300752,46.5945055 120.360902,46.3848901 C120.541353,45.3967033 120.240602,44.6181319 119.278195,43.8994505 L119.278195,43.8994505 Z M121.052632,42.9412088 C121.112782,43.3304945 121.082707,43.7497253 121.203008,44.139011 C121.533835,45.1271978 121.834586,46.1453297 122.315789,47.0736264 C122.496241,47.432967 123.12782,47.5826923 123.548872,47.8521978 C123.488722,47.403022 123.518797,46.9239011 123.368421,46.5346154 C122.947368,45.4865385 122.496241,44.4384615 121.984962,43.4203297 C121.864662,43.1508242 121.473684,43.0010989 121.052632,42.9412088 L121.052632,42.9412088 Z M127.518797,54.2903846 C127.909774,54.4700549 128.270677,54.6197802 128.661654,54.7994505 C128.721805,54.6197802 128.87218,54.4101648 128.81203,54.2304945 C128.481203,53.2423077 128.180451,52.2241758 127.729323,51.2958791 C127.639098,51.0862637 127.067669,51.0563187 126.736842,50.9365385 C126.646617,51.235989 126.37594,51.6252747 126.466165,51.8648352 C126.736842,52.6134615 127.157895,53.3021978 127.518797,54.2903846 L127.518797,54.2903846 Z M127.639098,55.7876374 C127.308271,55.6379121 126.947368,55.3983516 126.586466,55.3384615 C126.406015,55.3085165 126.165414,55.607967 125.954887,55.7576923 C126.526316,56.2368132 127.037594,56.9255495 127.699248,57.0752747 C128.180451,57.1950549 128.842105,56.5961538 129.413534,56.2967033 C128.932331,56.146978 128.421053,55.9673077 127.639098,55.7876374 L127.639098,55.7876374 Z M133.263158,116.067033 C133.263158,116.665934 133.233083,117.23489 133.263158,117.833791 C133.263158,118.013462 133.383459,118.193132 133.473684,118.372802 C133.62406,118.193132 133.894737,118.043407 133.894737,117.863736 C133.984962,116.546154 134.045113,115.258516 134.075188,113.940934 C134.075188,113.791209 133.804511,113.641484 133.654135,113.491758 C133.533835,113.671429 133.293233,113.821154 133.293233,114.030769 C133.233083,114.62967 133.263158,115.228571 133.263158,116.067033 L133.263158,116.067033 Z M115.428571,40.0664835 C115.007519,39.2879121 114.646617,38.4793956 114.165414,37.7607143 C113.924812,37.4013736 113.533835,37.1318681 113.233083,36.8024725 C113.323308,37.2815934 113.353383,37.7906593 113.533835,38.2098901 C113.744361,38.718956 114.105263,39.1381868 114.406015,39.6173077 C114.556391,39.8269231 114.796992,40.0065934 114.857143,40.2461538 C114.917293,40.4857143 114.766917,40.7552198 114.706767,41.0247253 C114.917293,40.7552198 115.097744,40.4857143 115.428571,40.0664835 L115.428571,40.0664835 Z M129.56391,63.9925824 C129.894737,64.3519231 130.195489,64.7112637 130.526316,65.0406593 C130.616541,65.1604396 130.736842,65.2502747 130.827068,65.3401099 C130.917293,65.2203297 131.067669,65.0706044 131.067669,64.9508242 C131.007519,64.3519231 130.887218,63.782967 130.796992,63.1840659 C130.736842,62.8846154 130.676692,62.6151099 130.646617,62.3156593 C130.406015,62.4653846 130.075188,62.5851648 129.924812,62.8247253 C129.684211,63.1541209 129.593985,63.5134615 129.56391,63.9925824 L129.56391,63.9925824 Z M111.578947,49.3793956 C111.578947,49.0200549 111.699248,48.6008242 111.548872,48.3313187 C111.308271,47.942033 110.887218,47.6725275 110.526316,47.3431319 C110.496241,47.7324176 110.406015,48.1217033 110.406015,48.510989 C110.406015,48.7804945 110.406015,49.05 110.496241,49.2895604 C110.586466,49.5590659 110.736842,49.8285714 110.887218,50.0681319 C111.067669,49.8585165 111.24812,49.6788462 111.578947,49.3793956 L111.578947,49.3793956 Z M115.849624,38.2997253 C115.93985,38.4793956 116,38.718956 116.150376,38.8387363 C116.571429,39.228022 116.992481,39.5574176 117.443609,39.9167582 C117.323308,39.4076923 117.203008,38.8986264 117.052632,38.3895604 C116.992481,38.1799451 116.902256,38.0002747 116.75188,37.8206044 C116.541353,37.581044 116.300752,37.4013736 116.090226,37.1917582 C115.93985,37.5510989 115.819549,37.8505495 115.849624,38.2997253 L115.849624,38.2997253 Z M117.353383,36.2634615 C117.714286,37.071978 118.075188,37.8804945 118.466165,38.6590659 C118.556391,38.8387363 118.736842,38.9585165 118.917293,39.0782967 C118.947368,39.0782967 119.12782,38.9285714 119.18797,38.8087912 C119.518797,38.0002747 118.315789,36.1436813 117.353383,36.2634615 L117.353383,36.2634615 Z M123.93985,45.2769231 C124.210526,45.0373626 124.75188,44.678022 124.721805,44.5582418 C124.541353,44.0791209 124.210526,43.6299451 123.849624,43.3304945 C123.669173,43.1807692 123.18797,43.3604396 122.857143,43.3903846 C122.947368,43.6598901 123.007519,43.9593407 123.157895,44.2288462 C123.308271,44.5282967 123.578947,44.8277473 123.93985,45.2769231 L123.93985,45.2769231 Z M113.082707,45.1271978 C112.721805,44.9475275 112.330827,44.7678571 111.969925,44.5881868 C111.93985,44.7978022 111.789474,45.0373626 111.879699,45.217033 C112.120301,45.6961538 112.390977,46.1752747 112.691729,46.6244505 C112.781955,46.7442308 113.082707,46.7741758 113.293233,46.7442308 C113.383459,46.7442308 113.503759,46.4747253 113.503759,46.3549451 C113.443609,45.9956044 113.323308,45.6362637 113.082707,45.1271978 L113.082707,45.1271978 Z M115.278195,36.1137363 C116.270677,35.425 116.451128,34.6164835 115.578947,33.7181319 C115.488722,33.6282967 114.947368,33.7181319 114.947368,33.7480769 C114.947368,34.5266484 114.977444,35.3351648 115.278195,36.1137363 L115.278195,36.1137363 Z M119.93985,39.9467033 C118.706767,39.8568681 119.338346,40.7851648 119.308271,41.2642857 C119.278195,41.5337912 119.729323,41.8332418 120,42.1326923 C120.120301,41.7434066 120.300752,41.3241758 120.360902,40.9348901 C120.360902,40.6354396 120.180451,40.3659341 119.93985,39.9467033 L119.93985,39.9467033 Z M93.7443609,65.4898352 C93.7443609,65.6395604 93.7142857,65.7593407 93.7142857,65.9090659 C94.075188,65.8192308 94.4962406,65.7892857 94.8270677,65.6096154 C95.1278195,65.4598901 95.3684211,65.1304945 95.6390977,64.8909341 C95.2481203,64.7711538 94.8270677,64.5615385 94.4360902,64.5914835 C94.1654135,64.6214286 93.9548872,65.0107143 93.7443609,65.4898352 L93.7443609,65.4898352 Z M113.233083,43.0909341 C113.142857,42.8513736 113.022556,42.4321429 112.962406,42.4321429 C112.390977,42.5519231 111.789474,42.6717033 111.24812,42.8813187 C111.067669,42.9412088 110.977444,43.2406593 110.857143,43.4502747 C111.097744,43.5101648 111.368421,43.6299451 111.609023,43.6 C112.120301,43.5101648 112.601504,43.3604396 113.233083,43.0909341 L113.233083,43.0909341 Z M119.93985,36.6527473 C120.090226,37.2815934 120.180451,37.9104396 120.360902,38.5392857 C120.421053,38.7489011 120.661654,38.8986264 120.81203,39.0782967 C120.932331,38.8986264 121.112782,38.7489011 121.172932,38.5392857 C121.443609,37.6409341 120.75188,37.1917582 119.93985,36.6527473 L119.93985,36.6527473 Z M125.864662,47.7324176 C126.43609,47.1335165 126.045113,46.8340659 125.473684,46.8041209 C125.142857,46.7741758 124.81203,47.0736264 124.481203,47.2233516 C124.902256,47.4629121 125.293233,47.6725275 125.864662,47.7324176 L125.864662,47.7324176 Z M121.203008,49.3793956 C121.142857,49.4392857 121.082707,49.4991758 121.022556,49.5590659 C121.323308,49.7087912 121.684211,49.9782967 121.954887,49.9483516 C122.255639,49.8884615 122.526316,49.5590659 122.827068,49.3195055 C122.466165,49.1997253 122.135338,49.05 121.774436,48.9601648 C121.62406,48.9601648 121.473684,49.1398352 121.203008,49.3793956 L121.203008,49.3793956 Z M109.924812,39.796978 C109.473684,40.0664835 109.022556,40.3659341 108.571429,40.6653846 C108.571429,40.6653846 108.721805,40.9049451 108.781955,41.0247253 C109.233083,40.6953297 109.714286,40.3659341 110.165414,40.0365385 C110.135338,40.0065934 110.105263,39.9766484 109.924812,39.796978 L109.924812,39.796978 Z M101.413534,53.4818681 C101.413534,53.1225275 101.383459,52.7332418 101.383459,52.3739011 C101.263158,52.4337912 101.022556,52.4936813 101.022556,52.5236264 C101.082707,52.882967 101.203008,53.2423077 101.413534,53.4818681 L101.413534,53.4818681 Z M122.015038,41.1744505 C122.105263,41.2642857 122.195489,41.3840659 122.315789,41.443956 C122.496241,41.5337912 122.706767,41.5936813 122.887218,41.6535714 C122.827068,41.3241758 122.736842,41.0247253 122.676692,40.6953297 C122.43609,40.7851648 122.225564,40.8450549 122.015038,41.1744505 L122.015038,41.1744505 Z M62.1654135,118.821978 C61.924812,118.702198 61.6842105,118.582418 61.4135338,118.462637 C61.4135338,118.702198 61.3533835,118.971703 61.443609,119.181319 C61.5338346,119.420879 61.7744361,119.570604 61.9548872,119.78022 C62.0150376,119.540659 62.075188,119.331044 62.1654135,118.821978 L62.1654135,118.821978 Z M107.18797,34.6164835 C107.548872,34.6164835 107.909774,34.6164835 108.300752,34.6164835 C108.180451,34.4068681 108.030075,34.1972527 107.909774,33.9576923 C107.609023,34.1373626 107.338346,34.2870879 107.18797,34.6164835 L107.18797,34.6164835 Z M118.586466,33.3887363 C118.43609,33.0293956 118.315789,32.6700549 118.165414,32.2807692 C118.075188,32.3107143 117.954887,32.3706044 117.954887,32.3706044 C118.075188,32.7 118.195489,33.0593407 118.586466,33.3887363 L118.586466,33.3887363 Z M67.0977444,126.188462 C66.9473684,126.068681 66.7969925,125.948901 66.6466165,125.829121 C66.556391,125.978846 66.4661654,126.158516 66.406015,126.308242 C66.5864662,126.308242 66.7669173,126.338187 67.0977444,126.188462 L67.0977444,126.188462 Z M61.4736842,117.025275 C61.3233083,117.23489 61.2030075,117.41456 61.0526316,117.624176 C61.1729323,117.714011 61.2932331,117.773901 61.4135338,117.863736 C61.4736842,117.624176 61.5338346,117.41456 61.4736842,117.025275 L61.4736842,117.025275 Z M108.421053,37.2217033 C108.421053,37.042033 108.421053,36.8623626 108.421053,36.6826923 C108.210526,36.8024725 108,36.9521978 107.759398,37.071978 C107.93985,37.1318681 108.120301,37.2516484 108.421053,37.2217033 L108.421053,37.2217033 Z M63.3984962,212.72967 C63.5789474,212.72967 63.7894737,212.72967 63.9699248,212.699725 C63.9097744,212.579945 63.8796992,212.460165 63.8195489,212.31044 C63.6390977,212.43022 63.4285714,212.49011 63.3984962,212.72967 Z" id="Shape"></path>
                <path d="M199.518797,44.5282967 C199.278195,44.2587912 199.097744,44.0791209 198.917293,43.8994505 C199.18797,43.8994505 199.488722,43.9293956 199.759398,43.9293956 C199.699248,44.139011 199.639098,44.3785714 199.518797,44.5282967 Z" id="Path"></path>
                <path d="M91.8796992,113.401923 C90.7969925,112.114286 90.7368421,110.257692 91.6992481,109.05989 C92.481203,108.071703 94.6165414,107.682418 95.7894737,108.281319 C96.6616541,108.730495 97.0225564,109.988187 96.4511278,111.305769 C95.4586466,113.581593 94.5263158,114.959066 91.8796992,113.401923 Z" id="Path"></path>
                <path d="M113.142857,93.6082418 C114.285714,94.835989 114.556391,96.2134615 113.984962,97.5909341 C113.56391,98.639011 112.781955,99.5373626 111.398496,99.5673077 C109.353383,99.5972527 108.180451,97.8304945 109.022556,95.914011 C109.834586,94.0873626 111.218045,93.4285714 113.142857,93.6082418 Z" id="Path"></path>
                <path d="M90.9172932,97.4112637 C90.4661654,94.835989 91.6992481,93.3986264 94.1353383,93.5184066 C95.0075188,93.5483516 95.4887218,93.8777473 95.7593985,94.806044 C96.5112782,97.3214286 94.7669173,99.5074176 92.2406015,98.9384615 C91.7293233,98.8186813 91.3984962,97.9802198 90.9172932,97.4112637 Z" id="Path"></path>
                <path d="M111.097744,109.329396 C112.150376,110.167857 112.090226,111.245879 111.639098,112.144231 C111.067669,113.282143 110.225564,114.33022 108.75188,114.27033 C107.789474,114.240385 106.466165,112.713187 106.345865,111.695055 C106.225564,110.467308 106.646617,109.389286 107.879699,109.149725 C108.902256,108.94011 109.984962,109.209615 111.097744,109.329396 Z" id="Path"></path>
                <path d="M104.090226,105.226923 C103.037594,106.275 101.924812,106.424725 101.112782,105.676099 C100.180451,104.837637 99.9699248,103.070879 100.87218,102.172527 C101.473684,101.573626 101.864662,100.465659 103.12782,100.854945 C104.932331,101.423901 105.503759,102.621703 104.691729,104.268681 C104.571429,104.598077 104.360902,104.867582 104.090226,105.226923 Z" id="Path"></path>
                <path d="M120.571429,102.741484 C120.06015,103.520055 119.699248,104.328571 119.12782,104.957418 C118.586466,105.556319 117.744361,105.945604 117.022556,105.316758 C116.451128,104.837637 115.93985,104.118956 115.759398,103.43022 C115.548872,102.651648 115.639098,101.753297 116.691729,101.393956 C117.203008,101.214286 117.62406,100.735165 118.165414,100.64533 C119.699248,100.375824 120.270677,101.453846 120.571429,102.741484 Z" id="Path"></path>
                <path d="M114.406015,70.7601648 C116.300752,71.0596154 118.135338,71.2692308 119.18797,69.203022 C119.278195,69.0233516 119.789474,69.0832418 120.090226,69.0233516 C120.090226,69.2629121 120.090226,69.5024725 120.120301,69.742033 C120.210526,70.3409341 120.270677,70.9697802 120.451128,71.5387363 C120.571429,71.8381868 121.052632,72.0178571 121.172932,72.3173077 C121.293233,72.6467033 121.172932,73.0659341 121.172932,73.4252747 C120.81203,73.2456044 120.180451,73.0659341 120.180451,72.8862637 C120.150376,71.7483516 119.368421,71.8381868 118.676692,71.928022 C117.774436,72.0478022 116.902256,72.2873626 116.030075,72.467033 C115.308271,72.6167582 113.954887,71.8082418 113.804511,71.1195055 C113.774436,71.0296703 114.135338,70.85 114.406015,70.7601648 Z" id="Path"></path>
                <path d="M95.1578947,77.5876374 C95.0977444,77.0785714 95.1278195,76.5994505 95.0676692,76.1502747 C94.9774436,75.5813187 94.7969925,75.192033 94.1052632,75.7010989 C93.5037594,76.1502747 91.7593985,75.0423077 91.8796992,74.2936813 C91.9097744,74.143956 92.7218045,73.8744505 92.8120301,73.9642857 C93.5338346,74.7428571 94.2857143,75.0722527 95.3383459,74.653022 C95.518797,74.5931319 96.0601504,74.8626374 96.0902256,75.0123626 C96.1804511,75.8208791 96.1503759,76.6593407 96.0902256,77.4978022 C96.1503759,77.6175824 95.5488722,77.6175824 95.1578947,77.5876374 Z" id="Path"></path>
                <path d="M116.601504,57.4945055 C117.353383,57.6442308 118.045113,57.8538462 118.706767,58.1233516 C118.827068,58.1832418 118.857143,58.5425824 118.917293,58.7521978 C118.676692,58.8120879 118.315789,58.9917582 118.165414,58.9019231 C117.323308,58.332967 116.781955,58.7521978 116.150376,59.2912088 C115.488722,59.8302198 114.736842,60.2195055 113.984962,60.6387363 C113.864662,60.6986264 113.533835,60.6387363 113.443609,60.518956 C113.353383,60.3392857 113.293233,59.9799451 113.413534,59.8901099 C114.255639,59.2313187 115.12782,58.6324176 116,58.0035714 C116.180451,57.8538462 116.360902,57.7041209 116.601504,57.4945055 Z" id="Path"></path>
                <path d="M118.43609,84.7744505 C118.315789,84.2354396 118.225564,83.8162088 118.045113,83.4269231 C117.62406,82.5884615 117.924812,81.9895604 118.857143,82.0494505 C119.548872,82.0793956 120.270677,82.1692308 120.932331,82.3489011 C121.172932,82.4087912 121.293233,82.857967 121.473684,83.1274725 C121.233083,83.2173077 120.962406,83.396978 120.721805,83.396978 C120.481203,83.396978 120.240602,83.2173077 120,83.1873626 C119.699248,83.1574176 119.398496,83.1873626 119.067669,83.1873626 C119.18797,83.4269231 119.368421,83.6964286 119.368421,83.935989 C119.398496,84.3252747 119.308271,84.7445055 119.278195,85.1337912 C119.007519,85.0739011 118.736842,84.9840659 118.43609,84.7744505 Z" id="Path"></path>
                <path d="M114.676692,64.7412088 C115.037594,65.2502747 115.338346,65.6994505 115.609023,66.1186813 C114.857143,66.3881868 114.135338,66.6876374 113.383459,66.9571429 C113.353383,66.9571429 113.293233,66.9271978 113.293233,66.8972527 C113.263158,66.2983516 113.112782,65.6695055 113.263158,65.1304945 C113.413534,64.5914835 113.774436,63.753022 114.676692,64.7412088 Z" id="Path"></path>
                <path d="M96.1203008,81.1510989 C95.7293233,81.0013736 95.3984962,80.7917582 95.0977444,80.5821429 C95.4285714,80.4324176 95.7894737,80.132967 96.1203008,80.1629121 C97.5639098,80.2826923 98.2857143,81.5104396 99.3082707,82.318956 C99.3684211,82.3489011 99.3082707,82.6483516 99.2481203,82.6782967 C99.0075188,82.7681319 98.7368421,82.9178571 98.5263158,82.857967 C98.0150376,82.7082418 97.5338346,82.5285714 97.0827068,82.2291209 C96.9323308,82.1392857 96.9924812,81.6901099 96.8421053,81.5104396 C96.7218045,81.3008242 96.4210526,81.210989 96.1203008,81.1510989 Z" id="Path"></path>
                <path d="M112.06015,57.6442308 C112.481203,57.5244505 112.81203,57.4346154 113.142857,57.4645604 C113.323308,57.4645604 113.503759,57.6741758 113.684211,57.764011 C113.56391,57.9137363 113.503759,58.0934066 113.353383,58.2431319 C112.962406,58.6623626 112.571429,59.1115385 112.120301,59.4409341 C111.819549,59.6505495 111.398496,59.6505495 111.007519,59.7703297 C111.007519,59.4409341 110.887218,59.0516484 111.037594,58.7821429 C111.278195,58.3928571 111.669173,58.0634615 112.06015,57.6442308 Z" id="Path"></path>
                <path d="M118.37594,63.1241758 C117.62406,63.5134615 116.962406,63.8428571 116.270677,64.1123626 C116.090226,64.1722527 115.789474,64.1423077 115.639098,64.0225275 C115.518797,63.9626374 115.488722,63.5434066 115.548872,63.5134615 C116.421053,63.0043956 117.293233,62.5252747 118.225564,62.106044 C118.406015,62.0162088 118.736842,62.3456044 119.007519,62.4653846 C118.796992,62.675 118.616541,62.8546703 118.37594,63.1241758 Z" id="Path"></path>
                <path d="M109.593985,66.5379121 C109.654135,66.9271978 109.774436,67.3464286 109.62406,67.5260989 C109.443609,67.7357143 108.781955,67.8554945 108.75188,67.8255495 C108.390977,66.9870879 108.06015,66.1186813 107.729323,65.2502747 C108.030075,65.1903846 108.511278,64.9508242 108.631579,65.0706044 C108.992481,65.4898352 109.233083,65.9989011 109.593985,66.5379121 Z" id="Path"></path>
                <path d="M106.37594,74.114011 C106.075188,74.2936813 105.654135,74.5032967 105.443609,74.3835165 C104.87218,74.0541209 104.360902,73.6348901 103.909774,73.1557692 C103.729323,72.9760989 103.759398,72.5568681 103.729323,72.2574176 C104,72.2574176 104.390977,72.1076923 104.571429,72.2274725 C105.203008,72.7664835 105.774436,73.3953297 106.37594,74.114011 Z" id="Path"></path>
                <path d="M93.8045113,78.6956044 C93.7443609,79.564011 93.6240602,80.4024725 93.443609,81.210989 C93.2932331,81.9296703 92.7518797,81.8098901 92.6315789,81.3307692 C92.481203,80.5821429 92.5413534,79.7436813 92.6616541,78.9651099 C92.6917293,78.7854396 93.3533835,78.7255495 93.8045113,78.6956044 Z" id="Path"></path>
                <path d="M108.481203,74.0541209 C108.030075,74.114011 107.669173,74.114011 107.278195,74.0840659 C107.428571,73.7846154 107.548872,73.4552198 107.699248,73.1557692 C107.879699,72.7664835 108,72.3173077 108.300752,72.0478022 C108.601504,71.8082418 109.082707,71.7483516 109.473684,71.6285714 C109.413534,71.957967 109.413534,72.3173077 109.293233,72.6467033 C109.112782,73.1258242 108.81203,73.5450549 108.481203,74.0541209 Z" id="Path"></path>
                <path d="M112.06015,68.9934066 C112.150376,69.8917582 111.729323,70.1313187 110.766917,70.0414835 C110.37594,70.0115385 109.984962,70.1612637 109.593985,70.2510989 C109.353383,70.310989 109.082707,70.5505495 108.962406,70.4906593 C108.781955,70.4008242 108.571429,70.0414835 108.631579,69.8618132 C108.691729,69.6222527 108.932331,69.2629121 109.142857,69.232967 C110.075188,69.0832418 111.037594,69.0233516 112.06015,68.9934066 Z" id="Path"></path>
                <path d="M97.924812,75.4016484 C97.8646617,74.7129121 97.7744361,74.0541209 97.8947368,73.4552198 C97.924812,73.2156593 98.4962406,72.8563187 98.6766917,72.9162088 C99.1879699,73.1557692 99.2481203,75.5214286 98.7368421,75.7909341 C98.5864662,75.8807692 98.2255639,75.6112637 97.924812,75.4016484 Z" id="Path"></path>
                <path d="M102.736842,72.1376374 C102.406015,72.6467033 102.225564,73.1258242 101.894737,73.4851648 C101.714286,73.6947802 101.293233,73.6947802 100.992481,73.8145604 C100.962406,73.5151099 100.781955,73.1258242 100.902256,72.9461538 C101.383459,72.2574176 101.924812,71.6585165 102.496241,71.0596154 C102.586466,70.9697802 102.917293,71.0596154 103.12782,71.0596154 C103.007519,71.389011 102.917293,71.7184066 102.736842,72.1376374 Z" id="Path"></path>
                <path d="M118.43609,79.593956 C119.18797,79.2346154 119.969925,78.9651099 120.75188,78.7854396 C120.932331,78.7554945 121.203008,78.9950549 121.413534,79.1148352 C121.263158,79.2945055 121.142857,79.564011 120.932331,79.6837912 C120.120301,80.1629121 119.278195,80.5222527 118.43609,79.593956 Z" id="Path"></path>
                <path d="M118.917293,74.5931319 C118.556391,75.0123626 118.285714,75.3717033 117.984962,75.731044 C117.864662,75.5214286 117.593985,75.221978 117.62406,75.0722527 C117.834586,74.5032967 118.105263,73.9043956 118.496241,73.4252747 C118.646617,73.2755495 119.18797,73.4552198 119.548872,73.4851648 C119.398496,73.8145604 119.18797,74.1739011 118.917293,74.5931319 Z" id="Path"></path>
                <path d="M127.518797,71.1195055 C127.398496,71.5686813 127.278195,71.8681319 127.12782,72.1975275 C126.887218,71.8980769 126.586466,71.6585165 126.43609,71.3291209 C126.315789,71.0596154 126.345865,70.7002747 126.43609,70.4008242 C126.526316,70.1013736 126.676692,69.742033 126.887218,69.5324176 C126.977444,69.4425824 127.488722,69.5923077 127.548872,69.742033 C127.639098,69.9815934 127.518797,70.310989 127.518797,70.6104396 C127.488722,70.7002747 127.518797,70.85 127.518797,71.1195055 Z" id="Path"></path>
                <path d="M101.894737,69.8019231 C101.804511,70.0414835 101.654135,70.310989 101.473684,70.3409341 C100.87218,70.4607143 100.240602,70.4906593 99.6090226,70.5505495 C99.6992481,70.310989 99.6992481,69.9815934 99.8496241,69.8019231 C100.481203,69.203022 101.142857,68.8137363 101.894737,69.8019231 Z" id="Path"></path>
                <path d="M115.699248,74.9225275 C115.969925,75.2519231 116.330827,75.6711538 116.210526,75.8508242 C115.729323,76.6892857 115.097744,75.9706044 114.586466,75.8208791 C114.37594,75.760989 114.315789,75.2519231 114.165414,74.9225275 C114.646617,74.9524725 115.097744,74.9524725 115.699248,74.9225275 Z" id="Path"></path>
                <path d="M118.37594,65.8491758 C118.105263,66.0887363 117.864662,66.478022 117.714286,66.4181319 C117.323308,66.3282967 116.932331,66.0587912 116.601504,65.8192308 C116.541353,65.7892857 116.691729,65.2502747 116.81203,65.2203297 C117.323308,65.0706044 117.864662,65.0107143 118.37594,64.9208791 C118.43609,65.2203297 118.43609,65.4898352 118.37594,65.8491758 Z" id="Path"></path>
                <path d="M102.796992,74.653022 C103.157895,74.653022 103.428571,74.5631868 103.609023,74.682967 C104.06015,74.9824176 104.481203,75.3717033 104.932331,75.7010989 C104.631579,75.8208791 104.210526,76.0903846 104,76.0005495 C103.428571,75.731044 102.917293,75.3118132 102.37594,74.9524725 C102.466165,74.8626374 102.556391,74.7428571 102.796992,74.653022 Z" id="Path"></path>
                <path d="M116.87218,54.5 C117.293233,54.4101648 117.62406,54.3802198 117.954887,54.3502747 C117.984962,54.6497253 118.075188,54.9791209 117.984962,55.2785714 C117.864662,55.6678571 117.62406,55.9972527 117.413534,56.3565934 C117.203008,56.1769231 116.87218,55.9972527 116.81203,55.7876374 C116.721805,55.3983516 116.781955,54.9791209 116.87218,54.5 Z" id="Path"></path>
                <path d="M126.195489,74.4434066 C125.984962,74.7129121 125.804511,74.9225275 125.654135,75.1321429 C125.443609,74.7428571 125.082707,74.3236264 125.082707,73.9343407 C125.082707,73.6348901 125.56391,73.3054945 125.834586,73.006044 C126.015038,73.1557692 126.315789,73.3054945 126.37594,73.5151099 C126.43609,73.7846154 126.315789,74.0840659 126.195489,74.4434066 Z" id="Path"></path>
                <path d="M112.330827,64.2021978 C111.909774,63.7230769 111.548872,63.214011 111.218045,62.6450549 C111.12782,62.4953297 111.157895,62.2857143 111.157895,62.0760989 C111.338346,62.0760989 111.609023,61.9862637 111.669173,62.0760989 C112.210526,62.675 113.263158,63.0642857 112.330827,64.2021978 Z" id="Path"></path>
                <path d="M95.1578947,84.4450549 C95.3082707,84.0557692 95.518797,83.7263736 95.6992481,83.4269231 C96.0300752,83.6664835 96.4511278,83.8461538 96.6917293,84.1755495 C96.7819549,84.2953297 96.481203,84.9241758 96.4210526,84.9241758 C96.0300752,84.8343407 95.6390977,84.6546703 95.1578947,84.4450549 Z" id="Path"></path>
                <path d="M123.18797,75.7010989 C123.308271,76.0604396 123.428571,76.3898352 123.368421,76.6593407 C123.278195,76.9288462 123.007519,77.1684066 122.827068,77.407967 C122.646617,77.1384615 122.37594,76.8989011 122.315789,76.6293956 C122.225564,76.1802198 122.285714,75.7010989 122.315789,75.2519231 C122.315789,75.1620879 122.43609,75.0423077 122.496241,74.9524725 C122.676692,75.1620879 122.887218,75.4016484 123.18797,75.7010989 Z" id="Path"></path>
                <path d="M117.56391,69.6821429 C117.112782,69.742033 116.75188,69.742033 116.390977,69.742033 C116.451128,69.4126374 116.421053,68.9634615 116.631579,68.7538462 C116.842105,68.5442308 117.293233,68.5741758 117.62406,68.5142857 C117.62406,68.8736264 117.62406,69.232967 117.56391,69.6821429 Z" id="Path"></path>
                <path d="M97.0827068,69.2629121 C97.4736842,69.4126374 98.0150376,69.5623626 98.0451128,69.8318681 C98.1052632,70.1313187 97.7744361,70.5505495 97.5037594,70.7901099 C97.4135338,70.85 96.7518797,70.5505495 96.6917293,70.3409341 C96.6616541,70.0414835 96.9022556,69.6821429 97.0827068,69.2629121 Z" id="Path"></path>
                <path d="M125.383459,68.0351648 C125.172932,68.5442308 124.87218,69.0233516 124.571429,69.4725275 C124.360902,69.1730769 124.150376,68.8436813 123.93985,68.5442308 C124.390977,68.3346154 124.842105,68.1549451 125.383459,68.0351648 Z" id="Path"></path>
                <path d="M100.87218,84.7744505 C100.571429,84.3851648 99.518797,84.2054945 100.360902,83.5766484 C100.601504,83.396978 101.323308,83.4568681 101.503759,83.6964286 C101.954887,84.2054945 101.714286,84.6546703 100.87218,84.7744505 Z" id="Path"></path>
                <path d="M122.015038,63.7230769 C121.413534,63.9027473 120.842105,63.9626374 120.240602,63.9925824 C120.240602,63.8129121 120.240602,63.6032967 120.240602,63.4236264 C120.842105,63.4835165 121.413534,63.5434066 122.015038,63.7230769 Z" id="Path"></path>
                <path d="M123.729323,63.5134615 C124.210526,63.6032967 124.631579,63.782967 125.022556,63.9326923 C124.902256,64.2021978 124.87218,64.5615385 124.661654,64.7112637 C124.481203,64.831044 124,64.7412088 123.879699,64.5914835 C123.729323,64.321978 123.729323,63.9326923 123.729323,63.5134615 Z" id="Path"></path>
                <path d="M99.6992481,79.2346154 C100.120301,79.2645604 100.511278,79.3543956 100.87218,79.4442308 C100.691729,79.7137363 100.541353,80.103022 100.270677,80.2527473 C100.06015,80.3725275 99.6691729,80.1928571 99.3684211,80.132967 C99.4586466,79.8634615 99.5488722,79.593956 99.6992481,79.2346154 Z" id="Path"></path>
                <path d="M101.142857,76.3 C100.842105,76.6892857 100.571429,76.9587912 100.270677,77.2282967 C100.120301,76.868956 99.9699248,76.4796703 99.8195489,76.1203297 C100.270677,76.1203297 100.721805,76.1502747 101.142857,76.3 Z" id="Path"></path>
                <path d="M128.120301,74.1739011 C128.421053,74.4134615 128.631579,74.7428571 128.87218,75.0722527 C128.481203,75.221978 128.120301,75.4016484 127.729323,75.5513736 C127.849624,75.1321429 127.93985,74.682967 128.120301,74.1739011 Z" id="Path"></path>
                <path d="M96.5413534,73.0958791 C96.1203008,73.0659341 95.7293233,72.9760989 95.3684211,72.8862637 C95.5488722,72.6167582 95.6992481,72.2274725 95.9699248,72.0777473 C96.1804511,71.957967 96.5714286,72.1376374 96.8721805,72.1975275 C96.7819549,72.467033 96.6917293,72.7365385 96.5413534,73.0958791 Z" id="Path"></path>
                <path d="M106.706767,68.7239011 C106.195489,68.7239011 105.774436,68.664011 105.353383,68.6041209 C105.413534,68.3945055 105.473684,68.0052198 105.56391,67.9752747 C106.015038,67.9153846 106.466165,67.9752747 106.917293,67.9752747 C106.887218,68.2148352 106.827068,68.4244505 106.706767,68.7239011 Z" id="Path"></path>
                <path d="M101.62406,66.3881868 C101.142857,66.8673077 100.721805,67.4063187 100.210526,66.6876374 C100.120301,66.5379121 100.390977,65.968956 100.631579,65.8192308 C101.172932,65.4 101.56391,65.6695055 101.62406,66.3881868 Z" id="Path"></path>
                <path d="M102.586466,68.1549451 C102.766917,68.0052198 102.857143,67.8255495 102.947368,67.8255495 C103.428571,67.9153846 103.909774,68.0651099 104.421053,68.1848901 C104.210526,68.3945055 104.06015,68.7538462 103.819549,68.8137363 C103.24812,68.9934066 102.616541,69.1131868 102.586466,68.1549451 Z" id="Path"></path>
                <path d="M122.917293,71.7184066 C123.368421,71.8082418 123.789474,71.957967 124.180451,72.1076923 C124,72.3771978 123.849624,72.7065934 123.609023,72.9162088 C123.518797,72.9760989 123.067669,72.8563187 123.007519,72.7065934 C122.857143,72.4370879 122.887218,72.1076923 122.917293,71.7184066 Z" id="Path"></path>
                <path d="M126.736842,77.5876374 C125.924812,76.839011 126.887218,76.6892857 127.067669,76.3 C127.368421,76.5096154 127.699248,76.6892857 128,76.8989011 C127.609023,77.1684066 127.218045,77.4379121 126.736842,77.5876374 Z" id="Path"></path>
                <path d="M121.383459,76.3598901 C121.052632,76.7491758 120.661654,77.0785714 120.240602,77.378022 C120.180451,77.1085165 120,76.7491758 120.090226,76.5395604 C120.360902,75.9406593 120.781955,75.760989 121.383459,76.3598901 Z" id="Path"></path>
                <path d="M122.015038,70.281044 C122.225564,69.9217033 122.43609,69.6821429 122.676692,69.4725275 C122.827068,69.771978 123.067669,70.0714286 123.097744,70.3708791 C123.097744,70.6104396 122.827068,70.8799451 122.676692,71.1195055 C122.43609,70.8799451 122.225564,70.6403846 122.015038,70.281044 Z" id="Path"></path>
                <path d="M113.774436,69.4725275 C114.075188,69.0233516 114.37594,68.693956 114.676692,68.3645604 C114.736842,68.6041209 114.947368,68.9335165 114.827068,69.0832418 C114.616541,69.4725275 114.586466,70.4607143 113.774436,69.4725275 Z" id="Path"></path>
                <path d="M96.8120301,77.7373626 C97.1729323,77.6774725 97.6240602,77.5876374 97.6842105,77.7074176 C97.8045113,77.9769231 97.7443609,78.3662088 97.7744361,78.6956044 C97.443609,78.6656593 97.0526316,78.7554945 96.7819549,78.6057692 C96.6917293,78.5458791 96.7518797,78.0967033 96.8120301,77.7373626 Z" id="Path"></path>
                <path d="M110.676692,64.4717033 C111.007519,64.6513736 111.458647,64.831044 111.518797,65.1304945 C111.578947,65.3401099 111.12782,65.6395604 110.887218,65.9090659 C110.796992,65.4598901 110.706767,65.0107143 110.676692,64.4717033 Z" id="Path"></path>
                <path d="M102.857143,79.3843407 C102.646617,79.0549451 102.496241,78.6656593 102.345865,78.2464286 C102.586466,78.1865385 102.857143,78.1565934 103.097744,78.0967033 C103.037594,78.5159341 102.977444,78.9052198 102.857143,79.3843407 Z" id="Path"></path>
                <path d="M114.255639,61.4771978 C114.766917,61.5071429 115.218045,61.596978 115.699248,61.6868132 C115.428571,61.8964286 115.12782,62.3456044 114.917293,62.3156593 C114.616541,62.2557692 114.43609,61.8065934 114.255639,61.4771978 Z" id="Path"></path>
                <path d="M118.105263,60.2494505 C118.105263,60.3692308 118.045113,60.4590659 117.984962,60.518956 C117.714286,60.7585165 117.413534,60.9980769 117.142857,61.2076923 C117.022556,60.9082418 116.932331,60.6087912 116.81203,60.2793956 C117.233083,60.2494505 117.62406,60.2195055 118.105263,60.2494505 Z" id="Path"></path>
                <path d="M113.56391,73.2156593 C113.443609,73.6348901 113.263158,73.9942308 113.052632,74.3535714 C112.842105,74.0840659 112.601504,73.8145604 112.390977,73.575 C112.781955,73.4252747 113.142857,73.3054945 113.56391,73.2156593 Z" id="Path"></path>
                <path d="M123.037594,68.0351648 C122.766917,67.7656593 122.556391,67.4362637 122.345865,67.0769231 C122.556391,66.9571429 122.766917,66.8673077 123.007519,66.7475275 C123.037594,67.1667582 123.067669,67.556044 123.037594,68.0351648 Z" id="Path"></path>
                <path d="M120.842105,67.4961538 C120.601504,67.2865385 120.421053,67.017033 120.240602,66.7175824 C120.511278,66.5678571 120.81203,66.3881868 121.082707,66.2384615 C121.022556,66.6277473 120.962406,67.017033 120.842105,67.4961538 Z" id="Path"></path>
                <path d="M116.87218,79.2346154 C116.601504,79.564011 116.270677,79.8634615 115.93985,80.132967 C115.849624,79.9532967 115.789474,79.7736264 115.699248,79.6239011 C116.06015,79.4741758 116.421053,79.3244505 116.87218,79.2346154 Z" id="Path"></path>
                <path d="M105.804511,71.389011 C106.165414,71.1793956 106.556391,71.0895604 106.917293,70.9997253 C106.887218,71.1793956 106.887218,71.5387363 106.827068,71.5387363 C106.496241,71.5686813 106.165414,71.5387363 105.804511,71.389011 Z" id="Path"></path>
                <path d="M111.909774,72.1376374 C111.93985,71.7483516 112,71.418956 112.090226,71.1195055 C112.270677,71.2392857 112.601504,71.2991758 112.631579,71.4489011 C112.781955,71.957967 112.661654,72.3472527 111.909774,72.1376374 Z" id="Path"></path>
                <path d="M124,78.4260989 C124.180451,78.1565934 124.421053,77.946978 124.691729,77.7373626 C124.81203,77.8571429 124.902256,77.9769231 125.022556,78.1266484 C124.691729,78.2464286 124.390977,78.3662088 124,78.4260989 Z" id="Path"></path>
                <path d="M132.180451,103.909341 C132.421053,104.987363 131.909774,105.676099 131.218045,106.065385 C130.315789,106.574451 129.022556,105.586264 129.263158,104.358516 C129.413534,103.579945 130.345865,102.651648 131.157895,102.352198 C131.93985,102.052747 132.240602,102.981044 132.180451,103.909341 Z" id="Path"></path>
                <path d="M74.8571429,115.048901 C74.9473684,115.917308 75.037594,116.725824 74.9172932,117.504396 C74.887218,117.654121 73.6541353,117.863736 73.4736842,117.654121 C73.0526316,117.145055 72.7518797,116.396429 72.7518797,115.737637 C72.7518797,115.438187 73.5639098,115.078846 74.075188,114.869231 C74.2255639,114.779396 74.5263158,114.929121 74.8571429,115.048901 Z" id="Path"></path>
            </g>
        </g>
    </g>
</svg>