<?xml version="1.0" encoding="UTF-8"?>
<svg width="230px" height="158px" viewBox="0 0 230 158" version="1.1" xmlns="http://www.w3.org/2000/svg" xmlns:xlink="http://www.w3.org/1999/xlink">
    <!-- Generator: Sketch 53 (72520) - https://sketchapp.com -->
    <title>experience</title>
    <desc>Created with Sketch.</desc>
    <g id="Welcome" stroke="none" stroke-width="1" fill="none" fill-rule="evenodd">
        <g id="HOME" transform="translate(-605.000000, -3079.000000)" fill="#000000" fill-rule="nonzero">
            <g id="experience" transform="translate(605.000000, 3079.000000)">
                <path d="M229.748351,44.0424425 C229.748351,45.2065731 229.766952,46.2215022 229.745125,47.2355367 C229.65265,51.53311 229.535984,55.8302271 229.463099,60.1280928 C229.453698,60.6833823 229.739939,61.2429644 229.734588,61.7990942 C229.654354,70.1361847 229.562099,78.4732567 229.442885,86.8098906 C229.371174,91.823005 229.171433,96.8353521 229.169802,101.848083 C229.168245,106.661276 229.407698,111.474195 229.434895,116.287808 C229.482324,124.68287 229.480674,133.078625 229.427711,141.473632 C229.412353,143.910182 227.622479,144.97616 225.213646,144.453125 C223.252694,144.027347 221.22529,143.851042 219.217056,143.707813 C215.551411,143.446323 211.878069,143.292227 208.208044,143.091393 C204.587904,142.893262 200.966316,142.503757 197.348192,142.534204 C190.674475,142.590293 184.001968,142.86802 177.330596,143.100269 C172.891152,143.254804 168.452057,143.447382 164.017433,143.702699 C159.834963,143.943478 155.661436,144.345128 151.477958,144.558747 C149.910219,144.638818 148.325491,144.310974 146.748479,144.310554 C145.188676,144.310133 143.60492,144.363082 142.081256,144.652078 C141.506299,144.761116 140.941458,145.524235 140.601081,146.119323 C140.093785,147.006128 139.662142,147.634018 138.435458,147.61338 C133.632985,147.532542 128.826957,147.511428 124.024978,147.605855 C121.084054,147.663643 118.148078,148.096178 115.209849,148.096763 C114.249541,148.096945 113.103146,147.463247 112.366458,146.774537 C110.714252,145.229924 108.653733,144.676625 106.613482,144.348123 C103.371234,143.826056 100.02414,143.920994 96.7983672,143.334472 C92.4272995,142.539664 88.0490753,142.537619 83.6504352,142.482479 C79.7881107,142.434078 75.9206547,142.116663 72.0673467,142.252568 C69.220016,142.352985 66.3811798,142.928785 63.5576367,143.405119 C59.7842138,144.041703 56.0237021,144.758924 52.2684407,145.496181 C50.0130097,145.938981 47.7447593,146.371297 45.5408437,147.009306 C40.6359073,148.429319 35.7601373,149.95143 30.8867592,151.477194 C25.8859842,153.042847 20.8931264,154.635129 15.9180589,156.279648 C14.8287648,156.63971 13.862336,157.365424 12.7755022,157.737761 C12.1779124,157.942431 11.2702384,158.020383 10.8092815,157.70704 C9.30427407,156.68391 8.26484162,155.202382 8.18297723,153.339971 C8.07283516,150.834144 8.19339599,148.319222 8.14633337,145.80945 C8.08411957,142.491629 7.9459289,139.175324 7.85781969,135.857905 C7.7476593,131.710354 7.66553368,127.562092 7.55168488,123.414651 C7.46929354,120.413405 7.3832324,117.411739 7.24774018,114.412557 C7.07716185,110.636722 6.8803308,106.861635 6.64506001,103.089325 C6.49450339,100.67535 6.21063085,98.2693377 6.07730111,95.8547963 C6.03045407,95.0064922 6.35022373,94.1420243 6.3381052,93.2872362 C6.27151599,88.5903869 6.19715183,83.8928432 6.04089085,79.1983133 C5.90247108,75.0399323 5.68232866,70.8835418 5.44227471,66.7294893 C5.3027599,64.3151122 4.96308743,61.9102873 4.87630236,59.4953441 C4.77545187,56.6890878 4.99722531,53.8673437 4.81919721,51.0687403 C4.54685649,46.7874585 4.13234364,42.510816 3.62902047,38.2496981 C3.13258799,34.0469164 2.49096426,29.8596411 1.83765706,25.6772608 C1.29843708,22.2252516 0.654829217,18.7892969 0.0461150001,15.3482283 C-0.242495065,13.7166775 0.828857546,12.6814382 3.11192042,12.0284161 C6.06595244,11.1834728 9.02563358,10.3572869 11.9912938,9.55383986 C14.5580139,8.85848127 17.1193002,8.12911436 19.714202,7.5548478 C22.7994745,6.87205499 25.9130158,6.31092069 29.0244218,5.75301909 C30.5299517,5.48309106 32.0529922,5.26150833 33.5777282,5.15559356 C38.4546068,4.81684545 43.3332632,4.47691025 48.2169412,4.27419475 C50.2865875,4.18826101 52.3711973,4.53884445 54.4476796,4.5225528 C58.8603119,4.48794182 63.2824645,4.11304852 67.6811503,4.31054074 C71.7415844,4.49287334 75.7787894,5.22273309 79.8217855,5.74553085 C82.6624912,6.11288085 85.5041406,6.48634946 88.3302951,6.94867392 C92.3015249,7.5982987 96.2809741,8.22962271 100.213636,9.0698724 C102.564557,9.57215889 104.901898,10.2949508 107.116654,11.2235629 C108.914573,11.977404 110.541177,11.6703079 112.301051,11.3454408 C117.86017,10.3192056 122.611109,7.22943274 127.85503,5.41635311 C131.360208,4.20447965 134.885912,3.02571945 138.464194,2.05933669 C140.654319,1.46782898 142.9518,1.21983601 145.218071,0.971697307 C148.655222,0.595361057 152.102397,0.262950902 155.554281,0.0824810872 C158.283296,-0.0601629886 161.026496,0.015030947 163.762072,0.0652578902 C166.240802,0.110754409 168.755892,0.0205468826 171.185067,0.416297981 C173.790415,0.840778746 176.317032,1.75253301 178.87299,2.46937063 C183.480524,3.76157034 188.084411,4.8979207 192.916115,5.25423913 C195.422115,5.43900098 197.62976,5.29920599 199.879941,4.2875275 C200.501667,4.00797403 201.306511,4.17518381 201.226296,5.24216649 C201.207639,5.49014091 201.19252,5.74543958 201.230199,5.98901214 C201.301874,6.45217688 201.412804,6.90929601 201.507442,7.36893567 C201.86129,7.12691528 202.235499,6.9094968 202.565155,6.63827185 C203.561365,5.81862441 205.853659,5.82843238 206.838781,6.71096382 C207.236539,7.0673005 207.817305,7.36365703 207.263772,8.11839311 C207.049243,8.41095075 207.24365,8.99115309 207.225892,9.43928627 C207.177491,10.6614423 206.991203,11.8417185 208.996889,11.1804226 C209.959543,10.863062 211.118015,11.0758595 212.181519,11.1448074 C212.801504,11.185007 213.260308,11.4623871 212.645106,12.1685947 C211.980642,12.9313305 212.174299,13.2532207 213.186562,13.2299702 C214.754154,13.1939531 216.327721,13.1453151 217.890475,13.2390112 C219.963823,13.363318 222.02733,13.6432004 224.098938,13.807579 C224.961309,13.8759972 225.835299,13.7854976 226.701225,13.8261904 C228.305067,13.9015489 229.070308,14.7025302 229.145098,16.359048 C229.255772,18.8107756 229.359078,21.2629601 229.445341,23.7156375 C229.556748,26.8827415 229.691887,30.0499186 229.736769,33.2181917 C229.787185,36.7757502 229.748351,40.3345506 229.748351,44.0424425 L229.748351,44.0424425 Z M196.5695,119.152273 C196.769753,119.152364 196.988242,119.099416 197.167474,119.16062 C199.123405,119.828472 199.121719,119.833385 199.121719,117.939979 C199.121719,113.135042 199.145727,108.329921 199.107956,103.525276 C199.095714,101.96996 198.828349,100.415083 198.842405,98.8614849 C198.865918,96.2588391 199.043538,93.6579652 199.113674,91.0551917 C199.157107,89.4433116 199.149759,87.8287102 199.116203,86.2163555 C199.032946,82.2176045 198.866578,78.2197481 198.842332,74.2208875 C198.828074,71.8689926 199.091425,69.5163124 199.107993,67.1631388 C199.149557,61.2612834 199.121719,55.3589349 199.121719,49.4567871 C199.121719,46.9460109 199.121719,44.435253 199.121719,41.9244768 C199.121719,37.6852578 199.138818,33.4458928 199.108084,29.2068931 C199.101523,28.2999605 198.799155,27.3881515 198.844421,26.4891456 C198.9811,23.7757086 199.267543,21.0696507 199.398083,18.3560492 C199.446135,17.3571193 199.124688,16.3435598 199.141328,15.3394614 C199.179466,13.035711 199.350159,10.7344449 199.412304,8.43071272 C199.455389,6.83271359 199.029189,6.68544861 197.463337,7.18788143 C196.458808,7.51022836 195.325865,7.50202763 194.249165,7.51298618 C193.390955,7.52173483 192.530948,7.33357569 191.671399,7.23598974 C189.902857,7.03524655 188.083642,7.033329 186.375357,6.59832777 C182.138512,5.51947355 177.97589,4.15016176 173.736553,3.08255816 C171.35127,2.48191816 168.885185,2.06751917 166.432936,1.90244628 C164.189427,1.75143718 161.915642,2.12850358 159.654978,2.13210167 C154.753854,2.13993704 149.863432,2.18218259 145.013273,3.03523536 C142.404407,3.49410776 139.722766,3.44420968 137.18605,4.43550497 C134.987899,5.29451207 132.66027,5.82178411 130.452296,6.65911139 C127.385542,7.82205483 124.182403,8.81146878 121.390491,10.4664344 C117.450848,12.8017271 113.804134,15.6375898 110.104677,18.3573644 C109.381276,18.8892025 108.535289,19.8624529 108.526712,20.6406403 C108.499662,23.0990527 108.868977,25.5597662 109.037067,28.022836 C109.262758,31.3298631 109.444923,34.6398305 109.643601,37.9486656 C109.845266,41.307198 110.092508,44.6638673 110.233659,48.0249567 C110.473057,53.7259594 110.663543,59.4292453 110.835005,65.1327506 C110.896931,67.1928183 110.759903,69.2604658 110.861817,71.3173739 C111.110324,76.3328993 111.473555,81.3427441 111.730859,86.357922 C111.823609,88.1657416 111.667688,89.9865288 111.767365,91.7936176 C111.870397,93.6613622 112.18607,95.5164315 112.337026,97.3828065 C112.5721,100.289754 112.7944,103.199295 112.934011,106.11194 C113.089713,109.359608 113.146964,112.611952 113.247045,115.862268 C113.347163,119.112585 113.445081,122.362974 113.551778,125.613071 C113.559439,125.846288 113.64845,126.075815 113.670112,126.309763 C113.932658,129.145224 114.261398,131.977269 114.417448,134.818666 C114.494108,136.21404 114.196926,137.62631 114.177261,139.032424 C114.17092,139.485324 114.510583,139.94301 114.69196,140.398503 C115.011024,140.021802 115.521582,139.687602 115.616843,139.26124 C116.094101,137.125156 117.098393,135.49229 118.820312,133.981046 C122.653003,130.617254 126.391477,127.243124 130.868509,124.646524 C134.295763,122.658746 137.779975,120.957152 141.594413,120.098912 C146.069593,119.092019 150.604536,118.256244 155.157531,117.711401 C159.756984,117.161007 164.408117,116.876996 169.040758,116.822003 C172.115118,116.785492 175.191767,117.430405 178.276353,117.637906 C182.341991,117.911377 186.42099,117.991613 190.485089,118.282179 C192.424031,118.420824 194.341843,118.853049 196.5695,119.152273 L196.5695,119.152273 Z M65.2052699,40.6011547 C66.3062244,38.5118456 67.5005153,36.4648733 68.4797451,34.3203512 C69.3206743,32.4787245 69.9305245,30.5308544 70.6150921,28.6201885 C71.1818476,27.0383533 71.8709417,25.5022704 71.2334093,23.7193269 C70.5323297,21.7587264 69.7738788,19.7691039 69.47502,17.7288894 C69.1745847,15.6779902 69.2480922,13.5305826 69.4897267,11.4640491 C69.5836775,10.6606571 70.573491,9.95260463 71.1797677,9.22130163 C71.4598512,8.88346681 71.7988271,8.59414188 72.1111103,8.28280856 C71.67286,8.13324211 71.2360483,7.85905825 70.796121,7.85401721 C67.5767261,7.81708681 64.3545729,7.90183316 61.1379271,7.80119703 C59.8281426,7.76023015 58.9610798,8.18659195 58.0263376,9.07263022 C57.020232,10.0263012 55.7228546,10.6874324 54.5049133,11.3946997 C54.287103,11.5211799 53.8376001,11.2513613 53.4950872,11.1645146 C53.6921518,10.9053258 53.8384706,10.5691161 54.0954905,10.4009021 C54.993424,9.81321123 55.9439362,9.30528103 56.8417505,8.71740761 C57.0830187,8.55942138 57.2081426,8.2252029 57.3865785,7.97187683 C57.0467871,7.82620083 56.6302172,7.47886836 56.3816917,7.57287477 C55.649741,7.84970692 54.931911,8.23165008 54.3047055,8.70027569 C53.2299764,9.5032661 51.9988765,9.48551324 50.8996083,8.73223837 C50.2678395,8.29930101 49.4694737,7.91578713 48.7255925,7.87416281 C46.6632311,7.75871419 44.5837615,7.73100703 42.5226555,7.85706739 C38.9888881,8.0732072 35.4429243,8.28330172 31.9410449,8.77276686 C28.2522722,9.28836814 24.6194867,10.1888532 20.9436433,10.8123787 C15.3826096,11.7556935 10.1404565,13.5834578 5.1740758,16.2208237 C4.41437439,16.6242824 3.78144621,17.0608358 4.21467073,18.1960903 C4.59483071,19.1922806 4.69290949,20.3050154 4.84450141,21.3762536 C5.17219736,23.6920216 5.41747885,26.01968 5.76415641,28.3323978 C6.22744997,31.423011 6.92970693,34.48831 7.21179743,37.5931145 C7.58658303,41.7181632 7.68862946,45.8695674 7.8456462,50.0120039 C7.9914656,53.8589601 8.12121713,57.7090763 8.11562747,61.5576035 C8.11395051,62.710958 8.773232,63.1703053 9.5466097,63.4516306 C10.3371272,63.7391654 11.2496303,63.7724065 12.109321,63.7759863 C13.9450252,63.7836391 15.6537634,64.1983849 16.9203295,65.5440994 C17.8910604,66.5755395 19.0744519,66.8232219 20.3423056,67.1136244 C21.2082225,67.311938 21.9591137,67.7378435 22.0215794,66.3221039 C22.0284977,66.16525 22.5767252,65.8853312 22.8521175,65.9094585 C26.040449,66.1889572 28.8451431,65.0309453 31.4269139,63.4194671 C33.0173227,62.4267288 34.7424677,61.2422884 35.6741221,59.7032284 C37.0484982,57.4328288 39.0096427,55.8794859 40.9706771,54.3590187 C45.4091864,50.9176031 50.8013326,49.859296 56.2036131,49.1958633 C58.8702721,48.8683658 60.8176533,47.8302226 62.2278854,45.6547242 C63.2449319,44.0857836 64.2145221,42.4862688 65.2052699,40.6011547 L65.2052699,40.6011547 Z M200.623025,80.6996395 C200.623025,82.710832 200.623025,84.7220062 200.623025,86.733199 C200.623025,91.1208335 200.600556,95.5086509 200.636806,99.8959935 C200.647582,101.201617 200.921233,102.507095 200.904849,103.810528 C200.856266,107.676004 200.686343,111.539965 200.641956,115.405423 C200.625297,116.85855 200.882583,118.313156 200.906902,119.768876 C200.932302,121.288831 200.114685,121.818277 198.66407,121.557792 C195.068744,120.912203 191.477853,120.149285 187.849686,119.801952 C183.500885,119.385672 179.115156,119.353765 174.745774,119.147761 C174.46395,119.134465 174.186926,119.030596 173.90479,119.011893 C171.516721,118.853505 169.129422,118.671739 166.73875,118.571139 C165.846782,118.533588 164.94664,118.744376 164.049962,118.746842 C163.228514,118.749106 162.387274,118.47527 161.588459,118.579577 C158.235647,119.017299 154.906403,119.649245 151.547489,120.021179 C148.479947,120.36084 145.439437,120.749961 142.538227,121.838788 C139.682832,122.910465 136.805043,123.939969 134.019381,125.172682 C132.324218,125.922815 130.728568,126.940521 129.190627,127.987413 C127.493504,129.142685 125.797534,130.346522 124.308984,131.748454 C121.944098,133.975731 119.738377,136.372447 117.508118,138.737529 C117.297895,138.960481 117.392148,139.468612 117.345049,139.844346 C117.686691,139.873295 118.029231,139.93448 118.369811,139.925074 C119.302684,139.899285 120.361313,139.542711 121.138777,139.867395 C122.451961,140.415836 122.224713,139.64658 122.253284,138.95018 C122.313798,137.475136 122.630846,136.187064 124.099934,135.38212 C125.172418,134.794465 126.119842,133.982982 127.137512,133.2925 C128.969757,132.049395 130.725471,130.657581 132.673667,129.630269 C135.078193,128.362306 137.651598,127.414187 140.143102,126.307937 C144.572283,124.341364 148.947493,122.006783 153.898868,121.911078 C158.373737,121.824597 162.737236,120.695771 167.235655,120.910833 C170.996341,121.090646 174.774528,120.87341 178.541225,120.972676 C181.263331,121.0444 183.983054,121.306566 186.69717,121.555783 C190.637181,121.917526 194.570685,122.349221 198.507947,122.741191 C200.625187,122.951961 202.777962,122.981239 204.8488,123.409245 C205.892292,123.62491 206.007712,123.427728 206.034047,122.568959 C206.116956,119.867467 206.227849,117.166851 206.32804,114.465889 C206.338963,114.171395 206.347027,113.876737 206.362568,113.582481 C206.450095,111.923826 206.660043,110.261135 206.602828,108.607575 C206.488306,105.296822 206.140414,101.993247 206.057871,98.6825128 C206.000931,96.4000041 206.354357,94.1073585 206.297582,91.8248313 C206.217697,88.6137653 205.886317,85.4097123 205.743077,82.1991026 C205.657933,80.2911401 205.805589,78.372237 205.70527,76.4657171 C205.60704,74.5985204 205.18729,72.743232 205.154412,70.8784277 C205.071503,66.1759895 205.088254,61.4707202 205.13867,56.767387 C205.182269,52.7025372 205.393023,48.6389663 205.405559,44.5744453 C205.41496,41.5248173 205.166563,38.475098 205.140191,35.4245019 C205.09311,29.9731353 205.126941,24.5210569 205.126941,19.0692887 C205.126941,16.2273077 205.103923,13.3849796 205.145671,10.5436009 C205.154376,9.95035792 205.445602,9.36558975 205.514784,8.76637415 C205.537143,8.57268141 205.292173,8.19115809 205.123789,8.1625562 C204.637624,8.07996499 204.128221,8.13168964 203.627926,8.13366225 C201.850734,8.14067559 201.31912,8.61061637 201.230621,10.3896329 C201.102885,12.9567179 201.020618,15.5261043 200.924037,18.0947052 C200.820602,20.8454014 200.687625,23.5956045 200.633489,26.3473232 C200.584118,28.8564192 200.584063,31.3679988 200.633544,33.8770948 C200.687149,36.5960477 200.865576,39.3126626 200.911868,42.0316151 C200.962229,44.9895565 200.958454,47.94958 200.910237,50.907594 C200.880823,52.7122356 200.643752,54.5144662 200.636678,56.3183223 C200.605193,64.3455772 200.623025,72.3730144 200.623025,80.6996395 L200.623025,80.6996395 Z M126.458534,136.957215 C125.628014,137.705321 124.77783,138.433428 123.978667,139.213442 C123.732818,139.453362 123.626286,139.835031 123.455923,140.151771 C123.752922,140.234015 124.05562,140.401316 124.345783,140.381956 C125.108074,140.331126 125.871628,140.234051 126.622262,140.090804 C127.68058,139.888874 128.860494,139.893093 128.917471,138.276611 C128.933049,137.834742 129.584555,137.34062 130.043982,137.006839 C130.679324,136.545282 131.449971,136.270094 132.091508,135.815385 C135.26177,133.568382 138.383613,131.273143 142.309823,130.412931 C144.90544,129.844235 147.5365,129.293932 150.012811,128.366908 C152.46878,127.44752 154.932427,126.970292 157.519137,126.934074 C158.21941,126.924284 158.921534,126.963698 159.62003,126.927352 C163.239822,126.739084 166.858294,126.525282 170.478636,126.349232 C170.781793,126.334475 171.098511,126.628219 171.403628,126.618156 C173.564357,126.54698 175.722924,126.390181 177.883836,126.350547 C179.172646,126.326877 180.464242,126.471256 181.755012,126.530889 C184.635184,126.663999 187.381023,128.066114 190.38138,127.272511 C191.676091,126.930055 193.10147,126.869546 194.445772,126.96989 C196.58319,127.129447 198.694071,127.673431 200.831232,127.797482 C204.173762,127.991486 207.413427,128.47065 210.448255,129.96772 C210.730392,130.106931 211.266313,130.167477 211.430628,130.006787 C211.657693,129.784785 211.684963,129.321913 211.721653,128.954636 C211.763016,128.540784 211.695721,128.117254 211.717566,127.700133 C211.814495,125.848973 212.014565,123.998378 212.010368,122.147966 C212.005255,119.895557 211.820304,117.644006 211.738531,115.39114 C211.703565,114.428008 211.771537,113.46053 211.721121,112.49875 C211.676111,111.639743 211.435375,110.783987 211.452015,109.930112 C211.490428,107.958791 211.75684,105.98599 211.701274,104.020239 C211.631633,101.55642 211.18454,99.1001262 211.16625,96.6386089 C211.137679,92.79189 211.410634,88.9435271 211.410451,85.0958584 C211.410267,81.2310944 211.182011,77.3666041 211.161888,73.5014381 C211.155621,72.2952087 211.670137,71.0838831 211.646514,69.8807218 C211.609788,68.0094886 211.157893,66.1428763 211.162493,64.2749856 C211.175358,59.0638314 211.460464,53.8516544 211.404073,48.6423998 C211.30566,39.5499157 211.035619,30.4592217 210.820301,21.3681989 C210.810607,20.9586584 210.585136,20.5581951 210.539576,20.144819 C210.321729,18.1680729 210.128,16.1886785 209.939017,14.2089556 C209.927233,14.0854157 210.003362,13.9320686 210.082532,13.8247839 C210.720459,12.9604438 209.801843,12.7892708 209.421752,12.6559595 C208.152057,12.2105297 206.931037,13.2192492 206.93034,14.6277561 C206.926492,22.2732319 206.925979,29.9187262 206.936186,37.5641837 C206.936681,37.9383097 207.081809,38.3103905 207.103672,38.6866352 C207.253821,41.2707608 207.490947,43.8557266 207.491735,46.4404914 C207.49223,48.0529925 206.976871,49.6642696 206.96254,51.2784691 C206.938386,53.9953763 207.202892,56.7140551 207.206832,59.4322042 C207.210406,61.9007717 206.949968,64.369613 206.950481,66.8383082 C206.950994,69.3398061 207.139574,71.8408838 207.22657,74.3428201 C207.433512,80.2928751 207.659111,86.2425282 207.816297,92.1939531 C207.891766,95.0510022 207.791593,97.9122888 207.838582,100.770562 C207.901021,104.568972 208.057932,108.365939 208.111794,112.164403 C208.127426,113.268188 207.861069,114.37391 207.842963,115.480672 C207.800299,118.089728 207.900581,120.703132 207.78309,123.307622 C207.750524,124.030085 207.276271,125.226306 206.798811,125.339015 C205.56718,125.629746 204.206035,125.560872 202.922467,125.412894 C199.169826,124.980213 195.433478,124.408686 191.683055,123.954726 C190.134302,123.767243 188.558298,123.806256 187.008097,123.626992 C183.966579,123.275367 180.942233,122.757702 177.894997,122.48224 C176.506124,122.356691 175.078803,122.736479 173.670559,122.722361 C171.292753,122.698526 168.909394,122.381274 166.540733,122.480541 C162.607136,122.645395 158.681292,123.019119 154.756529,123.355018 C153.479192,123.464348 152.165165,123.573404 150.955965,123.957777 C148.534908,124.727361 146.151036,125.628906 143.795039,126.582102 C140.626243,127.864147 137.47297,129.190939 134.360015,130.601546 C131.261887,132.005432 128.63506,134.047547 126.458534,136.957215 L126.458534,136.957215 Z M223.743129,116.907973 C223.743129,119.251375 223.774925,121.595343 223.733508,123.938015 C223.697661,125.966503 223.587977,127.993951 223.493632,130.021089 C223.412776,131.758554 223.270159,133.49401 223.229218,135.232115 C223.210048,136.045936 223.513883,136.882605 223.412556,137.676099 C223.192327,139.400907 221.990879,140.198418 220.672069,139.56934 C216.860234,137.751 212.702816,137.646583 208.632999,137.126635 C207.59922,136.994566 206.469961,137.336638 205.494497,137.066545 C201.558152,135.976568 197.504535,135.821888 193.493601,135.677179 C188.541566,135.498518 183.571424,135.797852 178.609675,135.914195 C175.33103,135.991052 172.052789,136.093149 168.775574,136.216196 C167.214323,136.274788 165.651532,136.365086 164.097373,136.520022 C162.383205,136.690922 160.680583,136.973836 158.968212,137.166451 C157.904341,137.286155 156.788387,137.165739 155.77057,137.434425 C151.45406,138.573954 147.168119,139.8343 142.62196,139.50262 C142.42288,139.488101 142.175582,139.427646 142.032287,139.517597 C141.808649,139.657995 141.508883,139.911869 141.512878,140.112283 C141.516818,140.310907 141.832455,140.63362 142.053766,140.674568 C142.902282,140.831605 143.777903,141.034558 144.625246,140.972715 C147.907703,140.733197 151.181362,140.376348 154.46184,140.106019 C157.278308,139.873934 160.101008,139.717701 162.918467,139.496411 C166.498197,139.215268 170.072374,138.856521 173.654744,138.618171 C176.310086,138.441519 178.974592,138.330563 181.635249,138.32565 C183.995333,138.321285 186.355858,138.583743 188.716015,138.58115 C191.243677,138.578392 193.770386,138.371366 196.298891,138.313724 C198.416461,138.265433 200.541014,138.211352 202.653581,138.3245 C206.209596,138.51496 209.755258,138.624984 213.280393,139.435225 C216.756341,140.234198 220.355387,140.503048 223.9018,140.994796 C225.520596,141.219265 226.093427,140.790291 226.141864,139.302681 C226.252538,135.903566 226.473518,132.501765 226.417678,129.104859 C226.314921,122.852877 225.986181,116.604676 225.871145,110.35273 C225.817815,107.454732 226.05879,104.551986 226.139079,101.650646 C226.175401,100.338008 226.123464,99.0231422 226.149158,97.7100117 C226.239086,93.113561 226.35885,88.5176585 226.439376,83.9210617 C226.475479,81.8600807 226.472877,79.7974921 226.440146,77.7364016 C226.356082,72.4417614 226.254884,67.1473221 226.142066,61.8532113 C226.057947,57.9048697 225.87569,53.9573319 225.866747,50.009118 C225.85949,46.8093757 226.137539,43.608793 226.124142,40.40927 C226.102591,35.2641594 225.932007,30.1197979 225.850931,24.974724 C225.815304,22.7141871 225.875159,20.4518237 225.81448,18.1923645 C225.804657,17.8262746 225.436734,17.2013615 225.157237,17.1546779 C223.436472,16.8673074 221.69564,16.6907645 219.957482,16.5173813 C217.740913,16.2962553 215.52229,16.0852112 213.299746,15.9459642 C212.991641,15.9266588 212.656065,16.3430119 212.333207,16.557709 C212.636511,16.742014 212.922899,17.0451468 213.245921,17.0907529 C214.958293,17.3325357 216.679278,17.5148865 218.398412,17.707794 C220.63197,17.9584353 221.780289,19.1259628 221.649493,20.9769227 C221.599206,21.688628 221.6238,22.4072919 221.644289,23.1219378 C221.737515,26.3719984 221.836112,29.6219495 221.943175,32.8715717 C222.035468,35.6728965 222.158805,38.4733079 222.234841,41.2750163 C222.274518,42.7371839 222.241823,44.2012691 222.241823,45.6644957 C222.241823,47.975442 222.241823,50.2864068 222.241823,52.5973531 C222.241823,55.9056403 222.26464,59.2140918 222.237627,62.52216 C222.148175,73.4795575 222.169471,84.432371 223.1245,95.3629202 C223.255718,96.8646297 223.080902,98.3905763 223.15538,99.9000117 C223.313776,103.110603 223.597928,106.315569 223.724876,109.526983 C223.818048,111.884156 223.743129,114.247904 223.743129,116.907973 L223.743129,116.907973 Z M201.073416,131.121988 C203.264219,131.509904 205.462866,131.859044 207.643735,132.296164 C210.04817,132.778104 212.409226,133.348553 214.91726,133.279386 C216.409713,133.2382 216.773421,132.534221 216.823672,131.401322 C217.054421,126.198716 217.252952,120.994539 217.420419,115.789558 C217.444628,115.036867 217.139603,114.274643 217.15628,113.520565 C217.200959,111.498742 217.463688,109.475404 217.407041,107.459189 C217.328933,104.678521 216.988647,101.906163 216.854186,99.1257512 C216.764331,97.2676317 216.867583,95.401129 216.830874,93.5394299 C216.751044,89.490726 216.622337,85.4430081 216.543277,81.3942859 C216.505928,79.4827253 216.497956,77.5688085 216.54729,75.6577955 C216.60161,73.5533818 216.825065,71.4506487 216.815517,69.3479153 C216.802707,66.5289654 216.603736,63.7113673 216.543809,60.8919608 C216.420636,55.0985952 216.352425,49.3040427 216.226889,43.5107318 C216.189906,41.8051377 216.028651,40.1024295 215.937935,38.3976938 C215.732733,34.5406188 215.514905,30.6839824 215.346466,26.8252636 C215.281279,25.3318827 215.281847,23.8308303 215.350938,22.3378147 C215.420615,20.8322144 214.095207,20.9278649 213.343528,20.7771843 C212.408914,20.5898107 212.648551,21.6043018 212.642119,22.1867688 C212.619742,24.2156776 212.35333,26.2946308 212.704319,28.2615689 C213.143824,30.7246205 212.927443,33.1442393 212.931017,35.5842414 C212.939429,41.3367862 212.969778,47.0896231 212.920846,52.8417477 C212.888958,56.5913921 212.674758,60.3396482 212.654654,64.0891279 C212.64177,66.490994 212.878036,68.8933166 212.913882,71.2967354 C212.930321,72.4007945 212.671954,73.5070271 212.654855,74.6140816 C212.6432,75.3690185 212.931677,76.1291789 212.915275,76.8833123 C212.866929,79.1045263 212.719859,81.3234388 212.645601,83.5443969 C212.631673,83.9610606 212.821993,84.3812307 212.838139,84.8028076 C212.885238,86.034096 212.933803,87.2678683 212.906203,88.4989741 C212.837699,91.5530219 212.623701,94.6075632 212.666786,97.6591273 C212.700122,100.02262 213.137612,102.379099 213.202139,104.743925 C213.256697,106.743228 212.937633,108.751498 212.967817,110.753029 C212.987664,112.069539 213.471978,113.378231 213.500293,114.695709 C213.537917,116.44689 213.270332,118.202693 213.255524,119.957528 C213.244931,121.211994 213.525547,122.469035 213.513011,123.723299 C213.493805,125.64496 213.383901,127.569489 213.218285,129.48472 C213.084868,131.027781 211.925406,132.208477 210.117627,131.513593 C207.438607,130.483797 204.706788,129.604516 201.743707,129.575768 C200.213867,129.560919 198.699679,128.866602 197.159576,128.766057 C194.900159,128.618518 192.623716,128.712396 190.354806,128.733838 C188.967693,128.746952 187.567092,128.961375 186.197388,128.829452 C183.826895,128.601185 181.484349,127.979303 179.114423,127.874868 C175.334256,127.708243 171.539208,127.752461 167.754257,127.851965 C163.881193,127.953752 160.006242,128.151024 156.145457,128.4678 C154.625073,128.592546 153.124464,129.098285 151.64374,129.529194 C149.282849,130.216261 146.987017,131.188105 144.58885,131.669205 C141.599287,132.26895 138.877017,133.342362 136.357767,135.010222 C134.475948,136.256103 132.565761,137.46047 130.709435,138.742625 C130.370047,138.977047 130.228933,139.496575 129.996315,139.884509 C131.009329,139.816091 132.488387,140.14189 132.946457,139.604042 C134.232188,138.094351 135.858773,137.219125 137.564639,136.553976 C140.065856,135.578643 142.690904,134.920288 145.25839,134.111782 C147.115761,133.526886 148.926215,132.662181 150.826672,132.372801 C154.636528,131.792653 158.492108,131.505411 162.332038,131.129732 C163.837228,130.982467 165.350025,130.901319 166.861263,130.830654 C167.777202,130.787824 168.702085,130.886177 169.613717,130.810527 C172.089259,130.605126 174.535881,131.410856 177.076261,130.610624 C178.796147,130.068886 180.778192,130.161431 182.626693,130.263383 C185.263251,130.408821 187.878532,130.93087 190.51509,131.083852 C192.263418,131.18531 194.032931,130.846982 195.793172,130.844626 C197.453038,130.842416 199.113142,131.022228 201.073416,131.121988 L201.073416,131.121988 Z M218.63869,131.870094 C218.63869,132.268585 218.642777,132.667148 218.637994,133.065584 C218.616185,134.877257 217.866889,135.434593 216.046501,135.019573 C215.80877,134.965401 215.544997,135.036943 215.298176,135.008322 C212.770202,134.715345 210.23433,134.472922 207.718269,134.098851 C204.813631,133.667028 201.943594,132.867636 199.028456,132.671313 C193.370136,132.290265 187.691767,132.111457 182.019812,132.061175 C178.752695,132.032172 175.483012,132.441109 172.212138,132.607223 C170.897616,132.673961 169.572813,132.551773 168.259592,132.630236 C163.779225,132.897954 159.298125,133.171024 154.825492,133.54031 C153.22986,133.672069 151.634173,133.992827 150.079592,134.38792 C147.148125,135.132958 144.216291,135.902561 141.342845,136.83941 C139.372876,137.481675 137.492488,138.40415 135.595953,139.254317 C135.326224,139.375263 135.191873,139.796165 134.994863,140.078238 C135.309272,140.085252 135.626393,140.068357 135.93765,140.103297 C137.480704,140.276534 138.676873,139.683401 139.635055,138.505956 C139.735576,138.382452 139.966691,138.335897 140.145668,138.308573 C144.757545,137.604301 149.366234,136.876688 153.985773,136.225967 C155.572919,136.002412 157.248344,136.204361 158.776389,135.805084 C161.348254,135.132976 163.952337,134.910206 166.570568,134.725244 C168.826302,134.565906 171.088816,134.487588 173.349736,134.419335 C177.327279,134.299229 181.305977,134.132056 185.284015,134.136256 C189.745432,134.14095 194.207106,134.29901 198.667717,134.423791 C199.828901,134.456265 201.049024,134.412449 202.134905,134.748056 C206.55155,136.113057 211.18826,135.683499 215.652482,136.539109 C217.46772,136.887007 219.219805,137.567462 220.993753,138.118533 C221.289635,138.210457 221.550347,138.414872 221.827297,138.567305 C221.865379,138.234 221.948728,137.898704 221.934104,137.567718 C221.849289,135.646678 221.329495,133.638865 221.719336,131.822954 C222.840696,126.599563 222.005687,121.365615 222.221665,116.146296 C222.335655,113.391527 222.319839,110.62538 222.219282,107.869588 C222.123929,105.255929 221.825446,102.650087 221.650391,100.038565 C221.592681,99.1776767 221.687667,98.306816 221.633549,97.4454712 C221.349892,92.9313014 220.95875,88.4221543 220.767843,83.9044229 C220.628287,80.6023639 220.776676,77.2892547 220.732106,73.9819173 C220.664133,68.9369866 220.482481,63.893006 220.461369,58.8481665 C220.448156,55.6817564 220.768521,52.5122414 220.712845,49.3480781 C220.609026,43.4456927 220.341147,37.5461567 220.137998,31.6455618 C220.122971,31.2087525 220.086941,30.7722539 220.048144,30.3367412 C219.881153,28.4620745 219.66578,26.5903847 219.554428,24.7125218 C219.476815,23.40361 219.649762,22.0721601 219.481306,20.7805083 C219.420058,20.3108599 218.766151,19.7281736 218.256638,19.5446539 C217.075881,19.1193511 215.826583,18.8614409 214.587181,18.6315114 C214.163602,18.5529202 213.686582,18.7603661 213.233991,18.8371311 C213.649031,19.0596085 214.04798,19.3224867 214.483032,19.4947923 C215.085002,19.7332328 215.766252,19.8149108 216.313371,20.1341893 C216.678325,20.3472059 217.099999,20.8584604 217.0978,21.2339016 C217.087738,22.955349 216.816983,24.6796093 216.869562,26.3958882 C216.92674,28.2621899 217.341798,30.1166382 217.416461,31.9835791 C217.584184,36.1777768 217.622799,40.3769236 217.743863,44.5732034 C217.810791,46.8933916 217.946041,49.2115523 218.036116,51.5311742 C218.144847,54.3316039 218.331374,57.1330933 218.317464,59.9332857 C218.294409,64.5793056 218.061443,69.2246313 218.060142,73.8702858 C218.058895,78.3663195 218.257775,82.8620604 218.330915,87.3585504 C218.372553,89.9178733 218.338429,92.4784378 218.338429,95.0384364 C218.338429,98.0471891 218.26078,101.058553 218.361612,104.063945 C218.45154,106.744433 218.774673,109.416447 218.916941,112.096332 C218.959367,112.895122 218.643382,113.709637 218.659106,114.513705 C218.689491,116.069312 218.966313,117.627258 218.909299,119.175779 C218.822212,121.540459 218.444796,123.895002 218.369291,126.259518 C218.3129,128.025329 218.538591,129.800072 218.63869,131.870094 L218.63869,131.870094 Z M81.8697608,93.4174425 C82.5418298,94.3864736 83.1708771,95.388764 83.8943424,96.318052 C85.7796428,98.7397168 87.7009913,101.133638 89.6195724,103.529385 C90.2366984,104.299938 90.9308138,104.588514 91.6818241,103.683061 C92.0784825,103.204829 92.5205356,102.743911 92.8170396,102.206629 C94.3182535,99.4863434 95.0942975,96.6793932 94.3689171,93.4994128 C93.674609,90.4555745 92.0361574,88.2917472 89.3249649,86.8280271 C87.0039799,85.574986 84.4943424,85.9495139 82.0406463,85.9689838 C81.0743091,85.9766728 80.0404114,86.1987852 79.1684282,86.6037416 C78.471188,86.9275495 78.0444008,87.5855575 78.7222606,88.5299501 C79.8103315,90.045833 80.7292397,91.6822967 81.8697608,93.4174425 L81.8697608,93.4174425 Z M75.2640167,107.481836 C76.0228155,107.938828 76.83784,108.324533 77.5295914,108.866527 C79.3883644,110.322831 81.3769251,110.38977 83.482244,109.574031 C85.0904022,108.950908 85.2851026,107.916673 84.0763153,106.678664 C83.4640367,106.051559 82.8174142,105.430992 82.3369214,104.708054 C81.0715419,102.804219 79.8711755,100.85655 78.6771044,98.906762 C77.0731979,96.2877881 75.5065862,93.6460934 73.8968429,91.0307176 C73.7898254,90.8568413 73.3174786,90.6787277 73.2448506,90.7466345 C72.5387037,91.407017 71.6379114,92.0077668 71.2549611,92.8374596 C69.9680847,95.6257071 70.2799557,98.5239238 70.8782422,101.460003 C71.4179203,104.108437 73.4517476,105.557966 75.2640167,107.481836 L75.2640167,107.481836 Z M57.3984814,53.1693365 C58.1759093,52.3945646 58.965799,51.6315365 59.7212076,50.8359982 C59.8915247,50.6566242 59.9416842,50.3639388 60.047153,50.1234161 C59.8118318,50.0943575 59.489854,49.9510557 59.3541555,50.0533176 C57.1856104,51.6872974 54.5577391,51.0830593 52.1547159,51.4712488 C49.0113666,51.9790516 46.1096797,53.1018681 43.4120121,54.6183536 C40.0287325,56.5202343 37.479244,59.4613358 34.9643832,62.3740547 C34.705329,62.6741006 34.5466495,63.060208 34.3413928,63.4063899 C34.7766924,63.4294393 35.2209722,63.5193363 35.6455693,63.4626986 C36.8194446,63.3060823 37.9790806,62.991589 39.1555216,62.9185867 C40.7157374,62.821786 42.3237307,63.1111657 43.8454336,62.851648 C47.5086132,62.2269175 50.747251,60.8599799 53.0411494,57.6117276 C54.1744958,56.0068612 55.9264343,54.8358816 57.3984814,53.1693365 L57.3984814,53.1693365 Z M78.1164971,49.279185 C78.0164072,48.9218802 77.8822757,48.5701462 77.8223571,48.2062665 C77.6065994,46.8962589 77.4367312,45.5783611 77.1997883,44.2724268 C77.1463208,43.9776955 76.8921323,43.7191644 76.7303279,43.4439577 C76.5918622,43.683969 76.369406,43.91083 76.3290971,44.1662379 C76.128596,45.4367946 76.0498381,46.7301084 75.788713,47.9866016 C75.42912,49.716889 74.9111678,51.4139355 74.5230311,53.1390543 C74.1585268,54.7591531 73.6544202,56.2490276 71.7256585,56.5274852 C70.8990517,56.6468061 70.0411983,56.5384803 69.2078563,56.6284685 C68.6681872,56.6867316 68.1471927,56.9168254 67.6178414,57.0699352 C68.1156254,57.3158274 68.58942,57.6685478 69.11605,57.7859508 C70.3177264,58.0539247 71.5387559,58.2830687 72.7639638,58.3866823 C74.2865281,58.5154272 74.7879041,58.9972215 74.8251067,60.5626371 C74.8373303,61.0773254 74.8939133,61.6250171 75.084344,62.0956701 C75.9652798,64.2728852 76.8818694,66.4365666 77.839529,68.5811981 C77.9606853,68.8525143 78.3992473,68.9830493 78.6907575,69.1788062 C78.7996076,68.9092615 78.9851542,68.6451414 79.004791,68.3692956 C79.129457,66.6185155 79.0956263,64.8477907 79.3441149,63.1164258 C79.7941402,59.9808823 80.4115776,56.8862144 84.5373729,56.5774381 C84.7925416,56.5583518 85.0117539,56.0620193 85.2477074,55.787726 C84.9495356,55.6630355 84.6465622,55.4217459 84.3540349,55.4337273 C83.0436454,55.4873877 81.7327706,55.5815401 80.4288504,55.7231069 C79.4174942,55.8328936 78.1399277,55.1782095 78.1256421,54.4128803 C78.0955683,52.8018952 78.1164971,51.1899604 78.1164971,49.279185 L78.1164971,49.279185 Z M30.9755049,116.907973 C30.8347668,116.268978 30.6940285,115.629964 30.5532811,114.990969 C30.1935872,115.620449 29.6973886,116.210203 29.4990962,116.886695 C28.8330291,119.159177 28.2921598,121.46784 27.6542148,123.749016 C27.5462719,124.134959 27.1954846,124.453433 26.9569104,124.803085 C26.6950527,124.536043 26.332564,124.312689 26.192687,123.99268 C25.9185778,123.365538 25.6954805,123.250327 25.0265453,123.605257 C24.3463672,123.966215 23.5038988,124.012569 22.7507446,124.253384 C22.4636235,124.345181 22.2271934,124.594525 21.967672,124.772072 C22.2331314,124.993509 22.4646954,125.324312 22.769694,125.418172 C24.4122324,125.923801 26.1186204,126.256906 27.7066927,126.8896 C28.4123447,127.170761 29.0963992,127.918848 29.431838,128.624252 C30.1411004,130.115752 30.604302,131.7225 31.1938833,133.272355 C31.3077642,133.571706 31.537954,133.827115 31.7144928,134.102796 C31.8685087,133.825562 32.0971501,133.564821 32.1631162,133.268154 C32.3977135,132.213134 32.5769646,131.145914 32.7770625,130.083279 C33.0771311,128.489626 33.0769846,126.849857 34.8412293,125.844224 C36.0391123,125.161413 36.9688149,124.009099 38.0094748,123.056999 C38.1712795,122.908985 38.2850409,122.708827 38.4210235,122.532777 C38.2249668,122.403429 37.990168,122.128204 37.8390751,122.168075 C36.7644104,122.451629 35.6919537,122.759948 34.651706,123.14801 C34.2744186,123.288773 33.9871327,123.669146 33.6587678,123.94017 C33.3648659,123.539286 32.9564054,123.178804 32.7971482,122.730397 C32.1484275,120.903984 31.5760271,119.050632 30.9755049,116.907973 L30.9755049,116.907973 Z M85.6230245,130.972367 C84.890854,132.112608 84.5683631,133.662005 82.8332209,133.8117 C81.4765755,133.928737 80.1105926,133.963987 78.7623683,134.139507 C78.2278672,134.209094 77.7301658,134.559495 77.2157048,134.782046 C77.6348771,135.157998 78.0042658,135.621747 78.4835585,135.891621 C79.4888392,136.457705 80.8432489,136.677461 81.5242975,137.483958 C82.5965434,138.753674 83.7130478,138.646828 85.054418,138.443437 C85.9723182,138.304263 86.9916647,138.099611 87.8354158,138.353741 C89.6999433,138.915277 91.1770942,138.553753 92.5735816,137.251508 C93.1761747,136.68957 93.9847114,136.345124 94.7056753,135.911748 C95.1610978,135.637984 95.6275615,135.382503 96.0890775,135.118821 C95.5454773,134.983519 95.0044705,134.836236 94.4569116,134.719399 C94.2657297,134.678597 94.0475348,134.671053 93.8601646,134.719399 C91.9776134,135.205321 90.309088,134.409892 88.6474167,133.77508 C88.146792,133.583834 87.5142536,132.931141 87.489137,132.460835 C87.4173064,131.115705 87.6529757,129.756658 87.7032454,128.400697 C87.7138107,128.11603 87.448718,127.821207 87.3106372,127.531079 C87.0483669,127.755876 86.67458,127.930282 86.5450849,128.215059 C86.1835858,129.009958 85.9232766,129.850573 85.6230245,130.972367 L85.6230245,130.972367 Z M87.2744605,103.890927 C85.7231147,101.938765 84.0507499,100.068701 82.6484714,98.0154272 C80.4854974,94.8483049 78.5151348,91.5508485 76.4455618,88.3198012 C75.9363055,87.5247191 75.3492623,86.779499 74.818949,85.9972203 C74.6243401,85.7101786 74.4904285,85.3822245 74.3288439,85.0729368 C74.1901764,85.4644138 73.9657778,85.8500831 73.9386729,86.2490852 C73.9149586,86.5982804 74.0493191,86.9971365 74.2233291,87.3144056 C75.4506995,89.5524409 76.6391903,91.8158453 77.9698853,93.99233 C79.6559492,96.7500396 81.3248413,99.5374834 83.2605026,102.118924 C85.1791113,104.677571 87.3939311,107.019731 89.5517278,109.39095 C89.8291084,109.695763 90.5714039,109.745734 91.0487356,109.654887 C91.4704463,109.574634 91.8229471,109.133112 92.2060163,108.851112 C91.7776717,108.594169 91.3076889,108.386395 90.9305297,108.069052 C90.3299069,107.563679 89.7456586,107.023841 89.2375751,106.428205 C88.5899813,105.668958 88.0251226,104.839649 87.2744605,103.890927 L87.2744605,103.890927 Z M8.45591817,69.3284456 C9.15248488,69.5778083 9.84539561,70.0235487 10.546356,70.0364799 C12.1029342,70.0652095 13.664584,69.8907305 15.2221519,69.7726884 C16.3294655,69.6887458 17.4425382,69.6136428 18.5339306,69.4248813 C18.9025953,69.3611023 19.2125879,68.960493 19.549401,68.7138152 C19.2725338,68.5376377 19.0174473,68.2957998 18.7151703,68.196223 C17.0799534,67.6574625 15.5284974,67.0043306 14.356134,65.6619772 C14.1671238,65.4455633 13.781104,65.3552828 13.4692651,65.2980425 C12.2561115,65.0754738 11.0412536,64.8373253 9.8159403,64.7187352 C9.39069252,64.6775493 8.56576269,64.932537 8.54929157,65.1099567 C8.42878118,66.4081107 8.46746381,67.7209674 8.45591817,69.3284456 L8.45591817,69.3284456 Z M126.008142,144.288655 C129.167096,144.388414 132.325665,144.525598 135.485316,144.558583 C136.177618,144.565797 136.873804,144.201917 137.568194,144.008918 C136.928307,143.703174 136.297363,143.154386 135.647084,143.130606 C130.940605,142.958337 126.230497,142.869646 121.520829,142.809081 C120.414221,142.794817 119.306294,143.011158 118.196351,143.079229 C117.48116,143.123099 116.746762,143.006628 116.04944,143.126478 C115.693924,143.187609 115.401159,143.611304 115.080042,143.871096 C115.472247,144.010288 115.863224,144.26608 116.256859,144.270189 C119.406925,144.303211 122.557467,144.288655 126.008142,144.288655 L126.008142,144.288655 Z M71.3606224,11.7242607 C71.1104109,13.06066 70.5398344,14.4315973 70.6803434,15.7258609 C70.9303257,18.0285155 71.6025137,20.2866413 72.1258723,22.5570412 C72.1715144,22.7550262 72.4227246,22.9059623 72.5784358,23.0787428 C72.7193297,22.9383266 72.965436,22.8110794 72.9850455,22.6554856 C73.2117348,20.8572368 73.4092027,19.055207 73.5917161,17.2518988 C73.6016124,17.1541483 73.3775528,17.0515027 73.3175243,16.9251321 C72.8759843,15.9954969 72.585143,15.1412753 72.9293419,13.9981671 C73.1650114,13.2154318 72.6421752,12.1932152 72.4049389,11.2920541 C72.3557598,11.1052284 72.0705537,10.9800999 71.8941248,10.8265335 C71.7663343,11.0758961 71.6385438,11.3252769 71.3606224,11.7242607 L71.3606224,11.7242607 Z M28.5734161,92.0708516 C30.0045954,91.2807559 30.3654071,90.5211616 29.8062663,89.6889484 C29.1460912,88.7063652 28.1290357,88.7569207 27.2881891,89.0008225 C26.8067982,89.1404711 26.1144696,90.3068666 26.2452015,90.4873909 C26.7801332,91.2262004 27.0191107,92.5306008 28.5734161,92.0708516 L28.5734161,92.0708516 Z M57.548612,119.750776 C57.6544657,120.548762 57.7603195,121.346729 57.8661642,122.144715 C58.4108823,121.596713 59.0903641,121.126133 59.4640228,120.479887 C59.8730241,119.772565 61.1558869,118.866217 60.0107659,118.13064 C58.7626865,117.328929 58.3308047,118.853925 57.548612,119.750776 L57.548612,119.750776 Z M95.3815101,18.6068365 C94.8893618,19.1970658 94.3302939,19.7473146 93.9390144,20.3978162 C93.7889664,20.6472518 93.8862342,21.2888039 94.1052633,21.4696205 C94.8281055,22.0663704 96.8855465,21.3159084 96.9948271,20.3947842 C97.0615722,19.8320975 96.8014094,19.2059423 96.5758287,18.6538122 C96.5279602,18.5366468 95.992552,18.6173201 95.3815101,18.6068365 L95.3815101,18.6068365 Z M83.3710663,38.9553213 C83.2975771,38.383338 83.2240789,37.8113547 83.1505897,37.2393896 C82.6736063,37.6737148 82.1920322,38.1032731 81.7263105,38.5492691 C81.6766638,38.5968113 81.7092208,38.7416655 81.7213165,38.839215 C81.8048942,39.5133142 81.876157,40.1900069 82.0009968,40.8566359 C82.0169959,40.9420579 82.4635481,41.0346031 82.4687619,41.0222749 C82.7360537,40.3901107 82.9770928,39.7469513 83.3710663,38.9553213 L83.3710663,38.9553213 Z M20.0159749,137.106836 C19.7748076,137.047934 19.3412489,136.900066 19.3210713,136.943371 C18.9720253,137.693066 18.580828,138.446377 18.409173,139.24387 C18.3380204,139.574418 18.7603361,140.010441 18.9582346,140.398503 C19.2607681,140.056285 19.7050296,139.759709 19.8340479,139.361657 C20.0504196,138.693932 20.0660155,137.961606 20.0159749,137.106836 L20.0159749,137.106836 Z M95.5316407,77.7072153 C95.3005072,78.4376963 94.3822863,79.1467533 95.4187131,79.8635544 C95.4759468,79.9031331 96.3473708,78.915874 96.70646,78.3259735 C96.9212097,77.9731619 96.8762549,77.4633321 96.9480212,77.0241118 C96.4758946,77.1520715 96.0037676,77.2800315 95.5316407,77.7072153 L95.5316407,77.7072153 Z M36.5303352,103.591703 C36.0832608,103.638277 35.3247368,103.557111 35.2435597,103.753708 C34.9098528,104.561958 34.7557819,105.450078 34.6025269,106.320501 C34.5743957,106.48024 34.8572464,106.694334 34.9965463,106.883352 C35.1575075,106.715923 35.3734487,106.575032 35.4699376,106.37648 C35.8923446,105.507209 36.2801237,104.621226 36.5303352,103.591703 L36.5303352,103.591703 Z M44.7875154,133.366306 C44.9249917,133.802549 45.0624584,134.23881 45.1999255,134.675053 C45.5082594,134.392998 45.819837,134.114376 46.1238277,133.827772 C46.3393563,133.624563 46.5757588,133.432843 46.7465797,133.195718 C46.9554101,132.905881 47.1053665,132.573928 47.2807694,132.260183 C46.9073305,132.272548 46.4848502,132.178834 46.1720995,132.322465 C45.7190049,132.530513 45.3452452,132.91021 44.7875154,133.366306 L44.7875154,133.366306 Z M20.316236,78.7545638 C19.8341488,79.0355237 19.2610888,79.2344768 18.903915,79.6280359 C18.6880014,79.8659651 18.7011141,80.4403412 18.8180553,80.7960201 C18.8808784,80.9871014 19.5372047,81.2194051 19.6567485,81.1180382 C20.3212483,80.5545114 21.2497781,80.0145452 20.316236,78.7545638 L20.316236,78.7545638 Z M42.3854266,110.32464 C42.2129104,109.898095 42.0403939,109.471532 41.8678686,109.044987 C41.4398627,109.549484 40.9367275,110.012685 40.622703,110.579865 C40.5054871,110.791585 40.829609,111.246001 40.9524975,111.589735 C41.4301405,111.26779 41.9077836,110.945845 42.3854266,110.32464 L42.3854266,110.32464 Z M18.9650611,108.828446 C19.2405905,108.753343 19.6989451,108.748795 19.7602473,108.591028 C20.0377745,107.876729 20.2188124,107.122687 20.387233,106.372371 C20.4063567,106.287186 20.1274826,106.135538 19.9867991,106.014701 C19.6007609,106.59894 19.1749177,107.162211 18.8486423,107.777919 C18.7217589,108.017346 18.8195122,108.374998 18.9650611,108.828446 L18.9650611,108.828446 Z M100.636079,48.6807001 C100.970098,48.930081 101.304116,49.1794436 101.638135,49.4288062 C101.904639,48.855873 102.218791,48.2977707 102.405904,47.7001443 C102.455917,47.5403863 102.046834,47.0451314 101.969698,47.0704638 C101.538531,47.2119758 101.112916,47.4253395 100.754139,47.7025185 C100.619586,47.8064607 100.669983,48.1481495 100.636079,48.6807001 L100.636079,48.6807001 Z M99.735296,102.544336 C100.086835,102.193991 100.576024,101.897853 100.743638,101.475071 C100.864262,101.170879 100.555993,100.697779 100.439033,100.300018 C99.9041929,100.665158 99.2789118,100.957972 98.8905736,101.440277 C98.7765828,101.581826 99.334954,102.261112 99.735296,102.544336 L99.735296,102.544336 Z M54.0956094,87.2829728 C53.8206756,87.0582304 53.3796028,86.592582 53.298151,86.6483793 C52.8170165,86.9779224 52.3390069,87.378477 52.034265,87.8638509 C51.9160042,88.0522108 52.2528908,88.524398 52.3824499,88.8672921 C52.6578418,88.7335972 52.9887082,88.6559557 53.1954311,88.4528384 C53.4928148,88.1606458 53.6998673,87.7771319 54.0956094,87.2829728 L54.0956094,87.2829728 Z M99.8854266,140.398521 C100.235737,140.319638 100.586048,140.240772 100.936322,140.161889 C100.619347,139.941512 100.330705,139.627914 99.9790384,139.521743 C99.3936722,139.345018 98.7704803,139.257714 98.1579356,139.221624 C97.8897094,139.205807 97.6085077,139.409071 97.3332073,139.512849 C97.6251481,139.708331 97.894016,139.966022 98.2146378,140.08412 C98.6507716,140.244754 99.1264536,140.298744 99.8854266,140.398521 L99.8854266,140.398521 Z M36.9807269,80.6996395 C36.7977003,80.2507759 36.6146737,79.8019122 36.4316289,79.3530486 C36.1142235,79.6275793 35.5215816,79.9190776 35.5373423,80.1730794 C35.5690928,80.684681 35.9320398,81.1758997 36.1583534,81.6755196 C36.432481,81.4499737 36.7065993,81.2244278 36.9807269,80.6996395 L36.9807269,80.6996395 Z M63.5538339,69.777291 C64.2607506,69.262621 64.5369125,68.5914807 64.2003924,67.7654773 C64.1620899,67.6714895 63.7600436,67.7246933 63.5266651,67.7096617 C63.4856779,68.3490039 63.4446905,68.9883276 63.5538339,69.777291 L63.5538339,69.777291 Z M89.0760181,61.996988 C88.9851462,62.6046599 88.8942743,63.2123132 88.8034117,63.8199851 C89.0144685,63.7907623 89.4081489,63.767384 89.4093034,63.7314581 C89.427859,63.1542512 89.3963925,62.5754368 89.0760181,61.996988 L89.0760181,61.996988 Z M81.8697608,35.9628971 C80.9733394,35.8086367 80.2610804,36.0382008 79.9758837,36.9740274 C79.905895,37.203701 80.0403288,37.4952544 80.0807848,37.7583516 C80.2824858,37.6528935 80.517468,37.5835438 80.6795474,37.4351282 C81.1421996,37.0114692 81.5752176,36.5556652 81.8697608,35.9628971 L81.8697608,35.9628971 Z M88.775766,111.072746 C88.5807999,111.072746 88.3817835,111.047979 88.1918293,111.078736 C87.9324731,111.120708 87.6800166,111.204998 87.4245911,111.271114 C87.5376748,111.467309 87.6480553,111.829363 87.7643275,111.831244 C88.2941187,111.839865 88.8255682,111.747265 89.3564223,111.691029 C89.2629574,111.484934 89.1694924,111.27884 88.775766,111.072746 L88.775766,111.072746 Z M103.038186,125.286779 C103.244873,125.080776 103.573961,124.902059 103.627823,124.661975 C103.697977,124.3494 103.549734,123.98815 103.495506,123.647849 C103.242967,123.871642 102.904971,124.053518 102.76679,124.333364 C102.668175,124.53312 102.837988,124.86449 103.038186,125.286779 L103.038186,125.286779 Z M79.1674202,138.603067 C79.4176317,138.532841 79.6678522,138.462596 79.9180637,138.392333 C79.6713986,138.163317 79.4458085,137.783182 79.1724784,137.74532 C78.8622385,137.702362 78.5092887,137.965734 78.1749129,138.095958 C78.4056617,138.264976 78.6364103,138.434013 79.1674202,138.603067 L79.1674202,138.603067 Z M73.6125806,10.0784274 C73.7628121,9.35601908 73.3459305,9.21467162 72.783903,9.34759929 C72.5464102,9.40376201 72.3540278,9.649417 72.1411382,9.80893745 C72.5815786,9.94864117 73.0220097,10.0883449 73.6125806,10.0784274 L73.6125806,10.0784274 Z M34.7287686,71.871988 C34.4785572,72.0888583 34.2283367,72.3057106 33.9781159,72.5225808 C34.3145536,72.6049712 34.6509821,72.6873431 34.9874195,72.7697153 C35.0012928,72.4704728 35.0151568,72.1712304 34.7287686,71.871988 L34.7287686,71.871988 Z M46.2888208,128.87767 C45.886637,128.779755 45.4861302,128.671977 45.0790073,128.602956 C45.0472475,128.597568 44.9692592,128.862967 44.9127678,129.002488 C45.3214117,129.010762 45.7300464,129.019017 46.2888208,128.87767 L46.2888208,128.87767 Z M104.089082,121.845491 C103.738771,121.910183 103.388479,121.974875 103.038168,122.039568 C103.080246,122.166432 103.122323,122.293277 103.164401,122.420159 C103.522684,122.278465 103.880948,122.136789 104.089082,121.845491 L104.089082,121.845491 Z M103.63869,47.184488 C103.703603,47.5336102 103.768533,47.8827142 103.833446,48.2318365 C103.960742,48.1899015 104.088019,48.1479669 104.215315,48.106032 C104.073156,47.7489831 103.930979,47.3919157 103.63869,47.184488 L103.63869,47.184488 Z M85.0225023,23.5443365 C84.7222412,23.5454141 84.4219162,23.5451217 84.1223147,23.5597152 C84.1175406,23.5599707 84.1175316,23.8279629 84.1223147,23.8282185 C84.4219162,23.8428302 84.7222412,23.8425196 85.0225023,23.5443365 L85.0225023,23.5443365 Z M17.9141427,109.576533 C17.7798876,109.642212 17.6456276,109.707909 17.5113725,109.773605 C17.7457179,109.90741 17.9800632,110.041214 18.2144083,110.175018 C18.2144083,109.975517 18.2144083,109.776034 17.9141427,109.576533 L17.9141427,109.576533 Z M25.8710663,93.8663062 C26.1337032,94.0035441 26.39634,94.1408004 26.6589769,94.2780383 C26.6966011,94.1526357 26.7342254,94.0272331 26.7718496,93.9018119 C26.5216381,93.8400967 26.2714176,93.7783819 25.8710663,93.8663062 L25.8710663,93.8663062 Z M75.2640167,7.53486679 C75.419297,7.73436782 75.5745866,7.9338506 75.729867,8.13335164 C75.8247981,8.05426725 75.9197383,7.97516431 76.0146694,7.89607992 C75.8645389,7.77568153 75.7144083,7.65526518 75.2640167,7.53486679 Z" id="Shape"></path>
                <path d="M10.2574893,24.591685 C10.3575795,25.3969035 10.4050084,26.0658154 10.5679034,26.705523 C11.005975,28.4259293 12.0862111,30.1118163 13.6208618,30.4423457 C15.5307425,30.8536759 17.8707229,31.1979765 19.4883099,29.2819775 C19.9004449,28.793809 20.2987344,28.1996347 20.436018,27.5939537 C20.7774863,26.0874039 21.7250662,24.9323692 22.4239557,23.6251744 C23.2099786,22.1549889 23.9951217,20.5755461 23.4577892,18.7871235 C23.3670641,18.4851962 23.0640997,18.2461895 22.9751522,17.9442072 C22.8599886,17.5531869 22.8612349,17.1280852 22.8123581,16.7176679 C23.288819,16.7562603 23.9331232,16.6108581 24.2132161,16.8646588 C25.5594061,18.0845322 25.1796632,19.6669518 24.9218554,21.1939575 C24.8863753,21.4040882 24.6746861,21.6827287 24.7493665,21.7989443 C26.7408963,24.897813 25.1608785,27.5749039 23.4985748,30.0013357 C21.9774401,32.2216728 20.0234157,33.1715629 16.803567,32.0817498 C16.3176449,31.9172799 15.7927332,31.7997671 15.2823452,31.7855028 C12.1366181,31.6975967 10.0562095,30.2131466 9.19760001,27.245763 C8.90971388,26.2508148 8.77034559,25.1720698 8.81305563,24.141908 C8.83219307,23.6802961 9.45520181,23.2335511 9.83944864,22.8119742 C9.8790705,22.7685053 10.3019129,22.9366463 10.3060775,23.0187444 C10.3300669,23.4911509 10.2814741,23.9672283 10.2574893,24.591685 L10.2574893,24.591685 Z M23.7692386,23.5443365 C21.990351,25.6401293 22.3530965,28.8799983 19.9653022,30.6632524 C19.9514566,30.67359 20.2244936,31.1644069 20.2770723,31.1484255 C20.6720448,31.0283012 21.1155091,30.9167793 21.4139101,30.6553258 C23.3881211,28.9255496 23.8376057,26.4905885 24.3444155,24.1008681 C24.3861448,23.9041067 24.0694997,23.6318772 23.7692386,23.5443365 Z" id="Shape"></path>
                <path d="M12.9598391,53.9174425 C13.6657983,51.2339227 15.0589041,49.0917018 17.0238238,47.3999156 C17.7875022,46.7423639 18.9361237,46.5066082 19.9357142,46.1525182 C20.4631411,45.9656925 21.0593657,45.8199797 21.6017931,45.8756495 C22.0248048,45.9190636 22.41274,46.3019566 22.8162615,46.5339864 C22.5204905,46.7009586 22.2432751,46.9324041 21.9255853,47.0232325 C20.8049941,47.3435336 19.5223144,47.3742906 18.5711152,47.9545112 C16.3491894,49.3098142 15.3832648,51.6618552 14.4729836,53.973368 C14.1011439,54.917596 13.8920525,55.9245438 13.5437257,56.8793653 C13.4178775,57.2243233 13.1014435,57.5001874 12.8719821,57.8075941 C12.6187927,57.3410141 12.1157947,56.8452843 12.1664262,56.414137 C12.2606382,55.6119321 12.6773685,54.847315 12.9598391,53.9174425 Z" id="Path"></path>
                <path d="M26.5466537,57.8824047 C27.4020517,55.3333281 27.9651604,52.8317937 27.7273008,50.2045643 C27.7053367,49.9619048 28.0295688,49.688141 28.1930409,49.4288062 C28.5200129,49.6389004 29.1128745,49.8306208 29.1290019,50.0622306 C29.2089788,51.2104345 29.1546222,52.3699077 29.1077248,53.5237736 C29.0927889,53.8913247 28.8359431,54.2733043 28.892013,54.6158148 C29.4942488,58.2943379 25.5194545,60.9096224 22.6233663,61.6724312 C22.376655,61.7373973 22.0352512,61.4452963 21.7378306,61.3190716 C21.9381939,60.9728535 22.0532753,60.4892512 22.3536096,60.3040144 C23.6974173,59.4752897 25.0940326,58.7316038 26.5466537,57.8824047 Z" id="Path"></path>
                <path d="M36.9807269,31.4742607 C37.6971916,33.0862503 38.7793521,33.82548 40.4965252,33.6029292 C40.998726,33.5378535 41.5541375,33.8805834 42.0851655,34.0363962 C41.6418021,34.2795672 41.2247739,34.6137857 40.7504938,34.7500373 C38.7779595,35.3166876 37.3153501,34.7136548 36.3654153,33.2178811 C34.9106773,30.9272264 35.7417925,29.6109724 36.9716737,28.0817386 C37.1998568,27.7980209 37.7049713,27.7014939 38.1032515,27.6018986 C38.3055025,27.5513066 38.5544586,27.6862251 38.7822934,27.7372738 C38.6756242,27.9421626 38.5660043,28.1455724 38.4627622,28.3521415 C37.9678187,29.3425238 37.4745798,30.3337279 36.9807269,31.4742607 Z" id="Path"></path>
                <path d="M18.5897347,43.5187683 C18.843749,43.6434405 19.0356822,43.6672024 19.1992095,43.7480401 C19.7107382,44.000873 20.2115461,44.2752394 20.7165048,44.541259 C20.2226701,44.6742415 19.7096203,44.9689177 19.2382083,44.9132664 C16.6449559,44.6070837 15.467539,46.4675409 14.1728645,48.1246616 C13.600327,48.8574803 13.1840729,49.7098026 12.6426766,50.4695064 C12.4460332,50.7454253 12.0917092,50.9097495 11.8093209,51.1249942 C11.7161171,50.6855732 11.3895667,50.0854081 11.5656704,49.8314976 C13.3966004,47.1917024 14.7093954,43.9544817 18.5897347,43.5187683 Z" id="Path"></path>
                <path d="M57.7738078,46.5111925 C57.0037933,46.8353658 56.3228636,47.1482698 55.6074984,47.3051785 C55.2880038,47.3752586 54.8993083,47.1319781 54.542015,47.0309033 C54.7269293,46.7495053 54.8504589,46.3682196 55.1106768,46.2093566 C55.5353106,45.950186 56.0598235,45.8603074 56.5234653,45.6566968 C58.8505894,44.634754 60.5119128,42.9185302 61.7954995,40.7571135 C62.0466274,40.3342583 62.6993983,40.1482728 63.1669253,39.8530486 C63.1457674,40.3094552 63.2087096,40.7891127 63.0893126,41.2183787 C62.4748808,43.4273737 60.4054726,44.3656295 58.935881,45.8260435 C58.6521228,46.1080262 58.2151556,46.2368809 57.7738078,46.5111925 Z" id="Path"></path>
                <path d="M13.0349044,20.7763441 C13.409814,20.7015335 13.7349992,20.6288415 14.0025564,20.721478 C14.284207,20.8189912 14.510773,21.0745272 14.7614057,21.261024 C14.5868324,21.473511 14.3849615,21.6693774 14.2425419,21.9014621 C13.7044305,22.7782947 13.0697614,23.622325 12.7035251,24.5679778 C12.487575,25.1256056 12.4289394,26.0772306 13.4606242,26.1020701 C14.0091541,26.1152754 14.6063728,25.838644 15.1094852,25.562378 C15.7066904,25.2344242 16.2263286,24.7661457 16.7795776,24.358687 C16.4823678,25.1094599 16.385957,26.1127366 15.8367031,26.5465687 C15.1629986,27.0786992 14.0460454,27.4713089 13.2372059,27.3171763 C12.0402346,27.0890369 11.2594212,26.0203009 11.492204,24.7198092 C11.7348603,23.364159 11.5268548,21.7787074 13.0349044,20.7763441 Z" id="Path"></path>
                <path d="M21.0668887,50.027291 C20.008287,50.8329297 19.1095104,51.6498556 18.1860345,52.4380152 C17.867795,52.7096238 17.4880245,52.9095997 17.1363623,53.1422871 C17.1639575,52.6340828 17.0738644,52.0838888 17.238821,51.6246875 C18.1122613,49.1932147 20.2617881,48.6401534 22.473987,48.2404391 C23.318114,48.0878955 24.1807323,47.9620362 25.0331246,47.9723553 C25.3153433,47.9757526 25.5919174,48.4436295 25.8710663,48.6991469 C25.5878489,48.8426133 25.319256,49.0428448 25.0188757,49.1196463 C23.7567676,49.4422853 22.485157,49.7280304 21.0668887,50.027291 Z" id="Path"></path>
                <path d="M52.6693692,12.247935 C52.4692349,12.621988 52.2407494,13.1097364 51.9114684,13.1907751 C49.1639713,13.8669927 45.8550607,12.1004506 44.7227496,9.40083991 C44.6355613,9.19295559 44.6033893,8.7736616 44.7036627,8.71327986 C44.955322,8.56174111 45.344503,8.43633818 45.5915167,8.52952287 C45.8897342,8.64203084 46.1637885,8.95239611 46.3351046,9.24332827 C47.6291834,11.4411639 49.6333767,12.1488328 52.057274,12.0311742 C52.2335471,12.0226081 52.4151717,12.1232445 52.6693692,12.247935 Z" id="Path"></path>
                <path d="M66.1060532,22.1977456 C66.0059633,23.5609022 65.7224619,24.7994963 65.8843212,25.9772702 C65.9634917,26.553436 66.8821525,27.0058612 67.3973558,27.536969 C67.5631372,27.7078681 67.6538073,27.9511486 67.7788396,28.1613161 C67.5250271,28.2681624 67.2634898,28.4818912 67.0186296,28.4643574 C65.5089582,28.356324 63.9444721,26.6946192 64.0304783,25.1454588 C64.1032985,23.834045 64.3516042,22.52338 64.6411442,21.2389788 C64.7156414,20.908541 65.2383494,20.6784658 65.5551594,20.402291 C65.7387907,20.9508961 65.9224219,21.4995193 66.1060532,22.1977456 Z" id="Path"></path>
                <path d="M21.5923457,56.9846774 C20.7058755,55.878938 19.9038718,54.8276078 21.0162161,53.5367047 C21.4471175,53.0366279 22.3155638,52.1733655 22.4216191,52.2499659 C23.2484826,52.8470994 23.9669999,53.6081549 24.6403423,54.3861777 C24.7473965,54.5098635 24.4605595,54.9721697 24.3558236,55.2779144 C24.1435939,55.1569133 23.9360739,55.0265975 23.7180804,54.9169203 C23.3387954,54.7260764 22.9530596,54.5479448 22.570027,54.3644796 C22.569413,54.8300003 22.5638693,55.2955577 22.5695046,55.7610054 C22.5757998,56.281666 22.5922478,56.8021805 22.6042793,57.3227863 C22.2919867,57.2350263 21.9796942,57.1472663 21.5923457,56.9846774 Z" id="Path"></path>
                <path d="M19.2653222,23.6939577 C19.1652412,22.4394006 19.0282966,21.3355605 18.9945851,20.2286158 C18.9874104,19.9930974 19.4755088,19.512655 19.5326599,19.5416584 C19.9721563,19.7648484 20.6615254,20.0387947 20.7161567,20.3844834 C20.9936013,22.1397745 21.0841982,23.939083 20.1953821,25.5710719 C19.9019844,26.1097777 19.3314075,26.5100767 18.8424753,26.9202929 C18.7593465,26.9900442 18.2907611,26.81741 18.270973,26.7080983 C18.2120305,26.3825004 18.2051765,25.9989682 18.3281517,25.6992874 C18.590367,25.0602741 18.9472388,24.4598349 19.2653222,23.6939577 Z" id="Path"></path>
                <path d="M50.1171498,27.6589198 C50.991708,29.861084 49.9642797,32.4619944 47.8379585,33.6579413 C47.73358,33.7166611 47.4436001,33.6767535 47.4376624,33.6454668 C47.3619282,33.2469214 47.1630034,32.7670814 47.3098626,32.4548165 C47.5474289,31.9496989 47.9886389,31.5240493 48.3964307,31.1171753 C49.4591009,30.0569505 49.386363,29.0628605 48.4176162,27.9585459 C48.1351407,27.6365461 48.1764945,27.032454 48.069422,26.557655 C48.5860548,26.759366 49.1108977,26.9431963 49.6147479,27.1727604 C49.7845975,27.2501463 49.9011723,27.4436568 50.1171498,27.6589198 Z" id="Path"></path>
                <path d="M42.3854266,37.4591092 C42.1274447,37.5588506 42.0038052,37.7569087 41.9142713,37.7426261 C41.2667597,37.6393597 40.6261392,37.4931537 39.9833378,37.3605549 C40.5505241,37.0941699 41.0930158,36.7255781 41.6899549,36.5823127 C42.9990065,36.2681118 43.7958788,35.4221274 44.4909196,34.3531721 C44.7109932,34.0146981 45.2166485,33.8606568 45.5916266,33.6222163 C45.610686,34.0664593 45.7882973,34.5848001 45.6203808,34.9416482 C45.0069477,36.2452084 43.9145609,37.0457695 42.3854266,37.4591092 Z" id="Path"></path>
                <path d="M43.2862099,39.2545638 C42.7857686,39.177671 42.4354672,39.1007783 42.0851655,39.0238856 C42.3481597,38.8015359 42.576462,38.4950242 42.8799026,38.3708452 C44.5332723,37.694116 46.0117063,36.8406799 46.9374227,35.2118321 C47.1185434,34.8931383 47.6710776,34.7841004 48.052305,34.578353 C47.9971149,35.057663 48.0990467,35.6417376 47.8596845,35.9982203 C46.7872831,37.5953974 45.2602747,38.6398603 43.2862099,39.2545638 Z" id="Path"></path>
                <path d="M45.9134945,30.6513441 C45.4440251,29.3949424 44.9446651,28.4117015 43.3636211,28.7372447 C43.110679,28.7893162 42.7371669,28.2597606 42.4193948,27.9991109 C42.7193352,27.7610357 42.9925831,27.3665995 43.323587,27.310455 C45.334277,26.9694605 46.8880054,28.1171895 46.8780814,30.3558275 C46.8751311,31.0214701 46.6401122,31.4515398 45.9134945,30.6513441 Z" id="Path"></path>
                <path d="M41.1093169,14.1930107 C39.8615952,13.2250572 38.3291622,12.5786284 38.509339,10.7212761 C38.5367096,10.4391291 38.8873317,10.0575148 39.1653353,9.97293277 C39.3740924,9.90939133 39.961731,10.2849418 39.9447882,10.4026736 C39.7123351,12.0174393 41.1833742,12.5165116 41.898144,13.503259 C42.0821785,13.7573338 42.1204717,14.1162275 42.2257204,14.4269764 C41.8786078,14.3739186 41.5314951,14.3208609 41.1093169,14.1930107 Z" id="Path"></path>
                <path d="M30.3749827,38.6560789 C29.7833672,38.5153341 29.3418825,38.3745893 28.9003975,38.2338446 C29.3752274,37.9756055 29.9173521,37.4229458 30.3126452,37.5126966 C31.659312,37.8184231 32.9822,38.2873042 34.2483308,38.8429229 C34.546805,38.9739145 34.5875264,39.6883046 34.7468203,40.1343006 C34.3286101,40.0287512 33.8973694,39.958452 33.4947733,39.8106753 C32.4979043,39.4447135 31.5141388,39.0432821 30.3749827,38.6560789 Z" id="Path"></path>
                <path d="M19.490518,58.4808895 C19.8518615,58.9686197 20.1381484,59.3815392 20.4244357,59.7944584 C19.7528435,59.6957764 18.9246513,59.810239 18.4402548,59.4567696 C17.1939118,58.5472621 17.1258979,57.3171426 18.0864346,56.4496062 C18.2885254,56.2670911 18.5556566,56.1560805 18.7928289,56.0121395 C18.9503266,56.2881314 19.1837418,56.5476673 19.2484343,56.8438048 C19.359557,57.3525205 19.3654124,57.8841032 19.490518,58.4808895 Z" id="Path"></path>
                <path d="M38.5570976,25.7138441 C37.7038075,24.6149903 38.9041922,24.2434578 39.2782722,24.0608876 C40.1273842,23.6465071 41.1487466,23.5529756 42.1128018,23.4218925 C42.3744857,23.3863137 42.6814909,23.6818303 42.9676956,23.8253877 C42.7059844,23.998588 42.4633693,24.2164083 42.1792355,24.3372083 C41.0037199,24.8369928 39.8156231,25.3074268 38.5570976,25.7138441 Z" id="Path"></path>
                <path d="M17.1634945,18.9060789 C16.7365607,19.0822016 16.4763707,19.3651889 16.1793212,19.4110505 C15.6446141,19.4935869 15.0878234,19.4340087 14.5402511,19.4337896 C14.8813984,18.9586435 15.1382763,18.3661678 15.589497,18.0442775 C15.9731253,17.7705868 16.5813357,17.7280857 17.0891946,17.7314282 C17.6150088,17.7348985 18.1396454,17.916738 18.6648,18.020552 C18.2144038,18.3157035 17.7640122,18.6108912 17.1634945,18.9060789 Z" id="Path"></path>
                <path d="M40.2835989,30.8757759 C41.2272298,30.4767738 42.1660312,30.2036858 43.1211434,30.010833 C43.2292422,29.9889889 43.5975311,30.4589297 43.5559849,30.6317464 C43.4115905,31.2322951 40.7576409,32.0110669 40.2980496,31.6055264 C40.1990406,31.518168 40.2835989,31.2242042 40.2835989,30.8757759 Z" id="Path"></path>
                <path d="M48.3155833,58.3312683 C46.6916004,59.2515154 45.1538985,60.1183943 43.5881572,60.9316673 C42.9770055,61.2490827 42.31892,61.5206 41.650049,61.6638836 C41.3494489,61.7282653 40.9699075,61.4266301 40.6261761,61.2910724 C40.8299114,61.0276281 40.9776137,60.6515112 41.2463351,60.5188211 C43.1942384,59.5570407 45.206642,58.7185446 47.1182777,57.6923827 C48.602356,56.895712 49.9712713,55.8856776 51.3893834,54.9674393 C51.9812374,54.5841993 52.5380416,54.1306052 53.1690225,53.8306506 C53.5074576,53.6697784 53.9693766,53.766908 54.375574,53.7475845 C54.183091,54.0526531 54.0601843,54.4577921 53.7868359,54.6465536 C52.006308,55.8760339 50.1931408,57.0585747 48.3155833,58.3312683 Z" id="Path"></path>
                <path d="M48.1654527,54.590738 C48.7863356,54.361667 49.3321625,54.2073884 49.8779802,54.053128 C49.4712056,54.5675605 49.1153053,55.1356172 48.6427754,55.5806999 C48.2056336,55.9924688 47.6731485,56.3380112 47.1245084,56.5838305 C46.8372042,56.7125757 46.4250235,56.5644887 46.069233,56.5414027 C46.2405308,56.2652462 46.358425,55.9266442 46.5944335,55.7261386 C47.0583591,55.3320133 47.5879578,55.0146709 48.1654527,54.590738 Z" id="Path"></path>
                <path d="M12.1341211,68.9543744 C11.2904706,68.9614428 10.5171253,68.923325 9.7571765,68.8018855 C9.59831796,68.7764984 9.33860413,68.3315614 9.38311903,68.272312 C9.5616741,68.0346387 9.84678822,67.7045477 10.0831129,67.7118169 C11.0792075,67.7424644 12.0748853,67.8614381 13.063086,68.0015254 C13.2339667,68.025762 13.3679288,68.3086032 13.5189481,68.4719773 C13.0823655,68.6078457 12.6457783,68.7437137 12.1341211,68.9543744 Z" id="Path"></path>
            </g>
        </g>
    </g>
</svg>